<?xml version="1.0" standalone="no"?>
<!DOCTYPE svg PUBLIC "-//W3C//DTD SVG 1.1//EN" "http://www.w3.org/Graphics/SVG/1.1/DTD/svg11.dtd" >
<svg xmlns="http://www.w3.org/2000/svg" xmlns:xlink="http://www.w3.org/1999/xlink" version="1.1">
<metadata>
Created by FontForge 20170731 at Mon Jul 18 17:12:25 2016
 By Aleksey,,,
Copyright (c) 2016 by Daniel Hernandez. All rights reserved.
</metadata>
<defs>
<font id="BasicSans-Black" horiz-adv-x="0" >
  <font-face 
    font-family="BasicSans-Black"
    font-weight="400"
    font-stretch="normal"
    units-per-em="1000"
    panose-1="0 0 10 0 0 0 0 0 0 0"
    ascent="779"
    descent="-221"
    x-height="472"
    cap-height="660"
    bbox="-567 -330 1351 943"
    underline-thickness="50"
    underline-position="-150"
    unicode-range="U+0020-FB02"
  />
<missing-glyph horiz-adv-x="414" 
 />
    <glyph glyph-name="fi" unicode="fi" horiz-adv-x="683" 
d="M532 514q-48 0 -80 30t-32 77t32 77.5t80 30.5t80.5 -30.5t32.5 -77.5t-32.5 -77t-80.5 -30zM270 472h174l180 5v-477h-180v339h-174v-339h-180v339h-70v133h70v15q0 106 63 165.5t161 59.5q30 0 57 -6t39 -12l12 -6l-48 -145q-11 17 -36 17q-31 0 -49.5 -19.5
t-18.5 -51.5v-17z" />
    <glyph glyph-name="fl" unicode="fl" horiz-adv-x="680" 
d="M338 560q-31 0 -49.5 -19.5t-18.5 -51.5v-17h136v-133h-136v-339h-180v339h-70v133h70v15q0 106 63 165.5t161 59.5q34 0 63.5 -6t42.5 -12l12 -6l-48 -145q-21 17 -46 17zM457 706h180v-706h-180v706z" />
    <glyph glyph-name=".notdef" horiz-adv-x="414" 
 />
    <glyph glyph-name=".null" 
 />
    <glyph glyph-name="nonmarkingreturn" horiz-adv-x="333" 
 />
    <glyph glyph-name="space" unicode=" " horiz-adv-x="182" 
 />
    <glyph glyph-name="exclam" unicode="!" horiz-adv-x="270" 
d="M232 671l-25 -447l-145 -5l-20 452h190zM38 89q0 40 27.5 68t67.5 28t68 -28t28 -68t-28 -67.5t-68 -27.5t-67.5 27.5t-27.5 67.5z" />
    <glyph glyph-name="quotedbl" unicode="&#x22;" horiz-adv-x="347" 
d="M44 465l-5 241h113l-6 -241h-102zM201 465l-5 241h113l-6 -241h-102z" />
    <glyph glyph-name="numbersign" unicode="#" horiz-adv-x="632" 
d="M588 283h-97l-18 -86h99l-21 -90h-97l-22 -107h-120l23 107h-83l-22 -107h-120l23 107h-110l21 90h108l18 86h-110l21 90h108l25 119h119l-25 -119h83l25 119h119l-25 -119h99zM354 197l18 86h-83l-18 -86h83z" />
    <glyph glyph-name="dollar" unicode="$" horiz-adv-x="607" 
d="M573 184q0 -72 -49.5 -123t-150.5 -65v-100h-119v99q-130 15 -233 101l107 130q33 -31 85.5 -59.5t102.5 -28.5q70 0 70 40q0 19 -18 32t-46.5 22t-63.5 18.5t-70 24.5t-63.5 36t-46.5 58t-18 86q0 76 52.5 134.5t141.5 73.5v108h119v-107q89 -14 136 -63t59 -117
l-164 -40q0 29 -24.5 51.5t-62.5 22.5q-34 0 -52.5 -13.5t-18.5 -35.5q0 -21 18 -35t47 -23.5t63.5 -18.5t69.5 -24t64 -36.5t47 -59.5t18 -88z" />
    <glyph glyph-name="percent" unicode="%" horiz-adv-x="955" 
d="M254 0l306 668h133l-305 -668h-134zM214 290q-85 0 -137.5 51.5t-52.5 135.5q0 85 52.5 137t137.5 52t137.5 -52t52.5 -137q0 -84 -52.5 -135.5t-137.5 -51.5zM214 406q26 0 42.5 19.5t16.5 51.5q0 33 -16.5 52.5t-42.5 19.5t-42.5 -19.5t-16.5 -52.5q0 -32 16.5 -51.5
t42.5 -19.5zM742 -4q-85 0 -137.5 51.5t-52.5 135.5q0 85 52.5 137t137.5 52t137.5 -52t52.5 -137q0 -84 -52.5 -135.5t-137.5 -51.5zM742 112q26 0 42.5 19.5t16.5 51.5q0 33 -16.5 52.5t-42.5 19.5t-42.5 -19.5t-16.5 -52.5q0 -32 16.5 -51.5t42.5 -19.5z" />
    <glyph glyph-name="ampersand" unicode="&#x26;" horiz-adv-x="616" 
d="M604 293q0 -115 -67 -193l50 -59l-100 -79l-53 63q-67 -29 -149 -29q-118 0 -189.5 50t-71.5 134q0 124 127 177q-49 70 -49 135q0 79 53 127.5t139 48.5q88 0 142.5 -46t54.5 -121q0 -119 -137 -184l91 -108q25 44 25 110zM296 542q-22 0 -35 -16t-13 -42q0 -40 34 -82
q63 28 63 89q0 23 -13.5 37t-35.5 14zM294 129q27 0 46 5l-111 129q-35 -23 -35 -63q0 -32 27.5 -51.5t72.5 -19.5z" />
    <glyph glyph-name="quotesingle" unicode="'" horiz-adv-x="190" 
d="M44 465l-5 241h113l-6 -241h-102z" />
    <glyph glyph-name="parenleft" unicode="(" horiz-adv-x="329" 
d="M177 -244q-6 7 -16 20.5t-36 59.5t-45.5 98t-35.5 135.5t-16 171.5t15.5 170.5t37.5 137t43.5 96.5t37.5 61l15 20l145 -62q-5 -6 -13.5 -17.5t-30.5 -52t-38.5 -85.5t-30 -118t-13.5 -150t13 -149t31.5 -119.5t37 -84t31.5 -53.5l13 -17z" />
    <glyph glyph-name="parenright" unicode=")" horiz-adv-x="329" 
d="M301 241q0 -88 -15.5 -170.5t-37.5 -137t-43.5 -96.5t-36.5 -61l-16 -20l-145 62q5 6 13.5 17.5t30.5 52t38.5 85.5t30 118t13.5 150t-13 149t-31.5 119.5t-37 84t-31.5 53.5l-13 17l145 62q6 -7 16 -20.5t36 -59.5t45.5 -98t35.5 -135.5t16 -171.5z" />
    <glyph glyph-name="asterisk" unicode="*" horiz-adv-x="439" 
d="M251 311l-42 127l-72 -107l-70 50l97 102l-136 7l8 86l135 -35l-59 124l78 34l40 -134l76 114l68 -51l-94 -101l133 -8l-9 -86l-135 32l59 -121z" />
    <glyph glyph-name="plus" unicode="+" horiz-adv-x="459" 
d="M433 291v-110h-143v-157h-120v157h-144v110h144v147h120v-147h143z" />
    <glyph glyph-name="comma" unicode="," horiz-adv-x="262" 
d="M27 86q0 41 26.5 67.5t68.5 26.5q45 0 77.5 -30t32.5 -92q0 -51 -14.5 -94.5t-35 -68.5t-41 -43t-35.5 -24l-14 -7l-54 69q10 5 25 13.5t40 36t25 54.5q-44 0 -72.5 26t-28.5 66z" />
    <glyph glyph-name="hyphen" unicode="-" horiz-adv-x="385" 
d="M43 261v120h299v-120h-299z" />
    <glyph glyph-name="period" unicode="." horiz-adv-x="245" 
d="M27 89q0 40 27.5 68t67.5 28t68 -28t28 -68t-28 -67.5t-68 -27.5t-67.5 27.5t-27.5 67.5z" />
    <glyph glyph-name="slash" unicode="/" horiz-adv-x="476" 
d="M19 -204l273 910h165l-272 -910h-166z" />
    <glyph glyph-name="zero" unicode="0" horiz-adv-x="670" 
d="M335 -8q-146 0 -225 88.5t-79 243.5q0 156 79.5 250t224.5 94t224.5 -94t79.5 -250q0 -155 -79 -243.5t-225 -88.5zM335 153q56 0 88 43t32 128q0 87 -32.5 135t-87.5 48t-87.5 -48t-32.5 -135q0 -85 32 -128t88 -43z" />
    <glyph glyph-name="one" unicode="1" horiz-adv-x="417" 
d="M180 0v475l-165 -41v163l315 63h31v-660h-181z" />
    <glyph glyph-name="two" unicode="2" horiz-adv-x="586" 
d="M320 145q10 2 46 2h183v-147h-513v115q30 23 91 68.5t90.5 69.5t67 58.5t53.5 63.5t16 57q0 33 -19 54t-54 21q-29 0 -46.5 -16t-17.5 -42q0 -11 3 -15l-179 -35q-10 30 -10 58q0 93 70.5 152t186.5 59q114 0 184.5 -64.5t70.5 -168.5q0 -43 -16.5 -83.5t-46.5 -74
t-58.5 -57.5t-66.5 -50q-24 -17 -37 -21z" />
    <glyph glyph-name="three" unicode="3" horiz-adv-x="592" 
d="M289 668q116 0 184 -56.5t68 -147.5q0 -60 -34.5 -97t-92.5 -37v-3q59 0 104 -43t45 -105q0 -85 -72.5 -136t-196.5 -51q-62 0 -114 14.5t-81.5 35t-50 41.5t-28.5 35l-7 15l133 92q6 -8 16.5 -20.5t46.5 -33t75 -20.5q40 0 65 15t25 40q0 24 -18 39.5t-57 15.5h-98v121
h57q44 0 69 16.5t25 43.5q0 30 -19 47.5t-51 17.5q-28 0 -43.5 -12t-15.5 -30q0 -10 2 -14l-179 -29q-7 28 -7 57q0 84 69 136.5t181 52.5z" />
    <glyph glyph-name="four" unicode="4" horiz-adv-x="631" 
d="M516 660v-389h88v-144h-86v-127h-181v127h-322v144l281 389h220zM350 271v152q0 60 2 67l-4 3q-6 -14 -36 -57l-92 -123q-26 -35 -32 -40l3 -4q9 2 49 2h110z" />
    <glyph glyph-name="five" unicode="5" horiz-adv-x="593" 
d="M94 660h424v-150h-283l-7 -99l4 -2q38 28 106 28q104 0 167.5 -59t63.5 -155q0 -104 -76.5 -167.5t-201.5 -63.5q-55 0 -104 13.5t-79 33t-52.5 39t-31.5 32.5l-9 14l134 103q6 -8 18 -20.5t49 -33t74 -20.5q40 0 65 20t25 52t-21.5 53t-56.5 21q-58 0 -70 -35h-165z" />
    <glyph glyph-name="six" unicode="6" horiz-adv-x="601" 
d="M357 417q94 0 153.5 -57.5t59.5 -150.5q0 -98 -69 -157.5t-181 -59.5q-130 0 -210 91.5t-80 239.5q0 156 84 250t219 94q150 0 228 -106l-125 -106q-11 18 -39 34.5t-58 16.5q-63 0 -98.5 -45t-36.5 -120l4 -1q16 35 54 56t95 21zM318 150q39 0 62.5 19.5t23.5 50.5
q0 30 -24 48.5t-63 18.5q-42 0 -67.5 -21.5t-27.5 -56.5q26 -59 96 -59z" />
    <glyph glyph-name="seven" unicode="7" horiz-adv-x="546" 
d="M22 660h509v-141l-235 -519h-211l233 467q22 43 26 48l-2 3q-8 -2 -34 -2h-119v-87h-167v231z" />
    <glyph glyph-name="eight" unicode="8" horiz-adv-x="606" 
d="M479 344q98 -50 98 -153q0 -90 -74.5 -144.5t-199.5 -54.5t-199.5 54.5t-74.5 144.5q0 103 98 153v3q-74 42 -74 127q0 89 68.5 141.5t181.5 52.5t181.5 -52.5t68.5 -141.5q0 -85 -74 -127v-3zM303 541q-35 0 -55.5 -17.5t-20.5 -48.5q0 -28 21 -47t55 -19t55 19t21 47
q0 31 -20.5 48.5t-55.5 17.5zM303 131q45 0 72.5 20t27.5 53t-27.5 53.5t-72.5 20.5t-72.5 -20.5t-27.5 -53.5t27.5 -53t72.5 -20z" />
    <glyph glyph-name="nine" unicode="9" horiz-adv-x="594" 
d="M286 667q134 0 205.5 -89t71.5 -252q0 -155 -79.5 -244.5t-213.5 -89.5q-163 0 -235 97l130 107q15 -18 42 -32t57 -14q53 0 89.5 38.5t43.5 103.5h-2q-30 -65 -143 -65q-97 0 -158 56t-61 150q0 102 71.5 168t181.5 66zM286 372q42 0 67.5 21.5t27.5 56.5q-26 59 -96 59
q-39 0 -62.5 -19.5t-23.5 -50.5q0 -30 24 -48.5t63 -18.5z" />
    <glyph glyph-name="colon" unicode=":" horiz-adv-x="265" 
d="M37 384q0 40 27.5 68t67.5 28t68 -28t28 -68t-28 -67.5t-68 -27.5t-67.5 27.5t-27.5 67.5zM37 87q0 40 27.5 68t67.5 28t68 -28t28 -68t-28 -67.5t-68 -27.5t-67.5 27.5t-27.5 67.5z" />
    <glyph glyph-name="semicolon" unicode=";" horiz-adv-x="275" 
d="M37 384q0 40 27.5 68t67.5 28t68 -28t28 -68t-28 -67.5t-68 -27.5t-67.5 27.5t-27.5 67.5zM37 84q0 41 26.5 67.5t68.5 26.5q45 0 77.5 -30t32.5 -92q0 -51 -14.5 -94.5t-35 -68.5t-41 -43t-35.5 -24l-14 -7l-54 69q10 5 25 13.5t40 36t25 54.5q-44 0 -72.5 26t-28.5 66z
" />
    <glyph glyph-name="less" unicode="&#x3c;" horiz-adv-x="444" 
d="M26 206v131l367 196v-145l-219 -117l219 -115v-145z" />
    <glyph glyph-name="equal" unicode="=" horiz-adv-x="506" 
d="M46 279v110h414v-110h-414zM46 71v110h414v-110h-414z" />
    <glyph glyph-name="greater" unicode="&#x3e;" horiz-adv-x="444" 
d="M51 11v145l219 115l-219 117v145l367 -196v-131z" />
    <glyph glyph-name="question" unicode="?" horiz-adv-x="489" 
d="M239 697q63 0 109.5 -18t71 -47.5t35.5 -60.5t11 -63q0 -43 -19 -75.5t-46 -52t-53.5 -37t-45.5 -40.5t-19 -51v-17l-148 -5v53q0 44 24 79.5t52.5 53t52.5 39t24 41.5q0 44 -49 44q-23 0 -37.5 -12t-14.5 -34q0 -13 4 -25l-157 -25q-7 42 -7 71q0 78 58.5 130t153.5 52z
M217 185q40 0 68 -28t28 -68t-28 -67.5t-68 -27.5t-67.5 27.5t-27.5 67.5t27.5 68t67.5 28z" />
    <glyph glyph-name="at" unicode="@" horiz-adv-x="828" 
d="M455 442h162v-267q0 -51 38 -51q37 0 58.5 45t21.5 119q0 131 -86.5 211.5t-228.5 80.5q-139 0 -234.5 -97t-95.5 -241q0 -145 95.5 -235.5t240.5 -90.5q158 0 262 97l38 -41q-113 -113 -299 -113q-172 0 -285.5 106.5t-113.5 276.5q0 171 114 283.5t277 111.5
q171 -1 274.5 -97.5t103.5 -251.5q0 -114 -55 -183.5t-145 -69.5q-49 0 -83 23.5t-45 64.5q-30 -82 -122 -82q-75 0 -118.5 56.5t-43.5 141.5q0 100 50.5 154.5t119.5 54.5q70 0 100 -40v34zM400 178q21 0 38 12t17 34v39q0 20 -16.5 34t-37.5 14q-23 0 -37 -19t-14 -53
q0 -28 13.5 -44.5t36.5 -16.5z" />
    <glyph glyph-name="A" unicode="A" horiz-adv-x="637" 
d="M454 0l-33 121h-203l-34 -121h-191l222 660h208l220 -660h-189zM255 255h129l-44 159q-14 53 -18 80h-4q-2 -16 -19 -81z" />
    <glyph glyph-name="B" unicode="B" horiz-adv-x="626" 
d="M466 339q44 -4 88.5 -46.5t44.5 -114.5q0 -87 -60 -132.5t-169 -45.5h-314v660h296q106 0 166.5 -49.5t60.5 -132.5q0 -37 -11.5 -64t-31 -41t-36 -21t-34.5 -9v-4zM392 458q0 31 -22.5 49.5t-63.5 18.5h-68v-131h71q83 0 83 63zM331 134q79 0 79 67q0 30 -23 49.5
t-59 19.5h-90v-136h93z" />
    <glyph glyph-name="C" unicode="C" horiz-adv-x="659" 
d="M350 668q75 0 132.5 -23.5t90 -63t48.5 -85t16 -94.5l-172 -26q0 52 -27.5 91.5t-84.5 39.5q-59 0 -97.5 -48.5t-38.5 -128.5q0 -89 45.5 -133t112.5 -44q93 0 156 88l110 -116q-38 -53 -105 -93t-166 -40q-155 0 -248.5 91.5t-93.5 246.5q0 154 90 246t232 92z" />
    <glyph glyph-name="D" unicode="D" horiz-adv-x="668" 
d="M314 660q156 0 240.5 -90.5t84.5 -238.5q0 -156 -76.5 -243.5t-221.5 -87.5h-285v660h258zM310 144q71 0 105.5 43.5t34.5 143.5q0 185 -168 185h-39v-372h67z" />
    <glyph glyph-name="E" unicode="E" horiz-adv-x="557" 
d="M519 508h-276v-108h232v-141h-232v-107h276v-152h-463v660h463v-152z" />
    <glyph glyph-name="F" unicode="F" horiz-adv-x="532" 
d="M509 508h-266v-120h232v-146h-232v-242h-187v660h453v-152z" />
    <glyph glyph-name="G" unicode="G" horiz-adv-x="680" 
d="M641 318v-318h-131q-5 33 -7 58q-60 -66 -171 -66q-137 0 -220 91.5t-83 246.5q0 154 90 246t232 92q75 0 133 -23.5t90 -62t48 -82t16 -88.5l-172 -26q0 51 -27.5 86t-84.5 35q-59 0 -97.5 -48.5t-38.5 -128.5q0 -84 40.5 -135.5t107.5 -51.5q102 0 115 73h-138v102h298
z" />
    <glyph glyph-name="H" unicode="H" horiz-adv-x="712" 
d="M469 660h187v-660h-187v254h-226v-254h-187v660h187v-254h226v254z" />
    <glyph glyph-name="I" unicode="I" horiz-adv-x="294" 
d="M56 0v660h182v-660h-182z" />
    <glyph glyph-name="J" unicode="J" horiz-adv-x="480" 
d="M96 193q27 -38 72 -38q39 0 57 19t18 62v424h187v-425q0 -116 -68.5 -178.5t-189.5 -62.5q-106 0 -183 71z" />
    <glyph glyph-name="K" unicode="K" horiz-adv-x="633" 
d="M444 0l-137 237h-64v-237h-187v660h187v-279h49l152 279h191l-198 -339l199 -321h-192z" />
    <glyph glyph-name="L" unicode="L" horiz-adv-x="524" 
d="M243 152h271v-152h-458v660h187v-508z" />
    <glyph glyph-name="M" unicode="M" horiz-adv-x="868" 
d="M812 660v-660h-184v296q0 58 5 73l-5 2q-3 -17 -17 -50l-130 -327h-94l-132 327q-14 33 -17 50l-5 -2q5 -15 5 -73v-296h-182v660h198l126 -272q47 -102 55 -138h4q4 27 54 139l122 271h197z" />
    <glyph glyph-name="N" unicode="N" horiz-adv-x="711" 
d="M655 660v-660h-167l-169 234q-43 60 -82 123l-7 -3q5 -21 5 -120v-234h-179v660h148l189 -259q47 -66 82 -130l6 3q-5 21 -5 127v259h179z" />
    <glyph glyph-name="O" unicode="O" horiz-adv-x="718" 
d="M359 668q148 0 239.5 -91.5t91.5 -245.5q0 -155 -91.5 -246.5t-239.5 -91.5t-239.5 91.5t-91.5 246.5q0 154 91.5 245.5t239.5 91.5zM359 154q63 0 102.5 46.5t39.5 130.5q0 83 -39.5 129.5t-102.5 46.5t-102.5 -46.5t-39.5 -129.5q0 -84 39.5 -130.5t102.5 -46.5z" />
    <glyph glyph-name="P" unicode="P" horiz-adv-x="627" 
d="M320 660q138 0 215 -60.5t77 -182.5q0 -119 -76 -181t-191 -62h-102v-174h-187v660h264zM306 317q117 0 117 100q0 46 -31.5 73t-92.5 27h-56v-200h63z" />
    <glyph glyph-name="Q" unicode="Q" horiz-adv-x="718" 
d="M690 331q0 -112 -49 -192.5t-136 -117.5q98 -22 176 -25l-39 -142q-25 5 -47.5 10t-39.5 9t-37 11.5t-31 11t-30.5 13.5t-27 13t-29.5 16t-28 17t-32.5 20t-34.5 21q-126 17 -201.5 106.5t-75.5 228.5q0 154 91.5 245.5t239.5 91.5t239.5 -91.5t91.5 -245.5zM217 331
q0 -84 39.5 -130.5t102.5 -46.5t102.5 46.5t39.5 130.5q0 83 -39.5 129.5t-102.5 46.5t-102.5 -46.5t-39.5 -129.5z" />
    <glyph glyph-name="R" unicode="R" horiz-adv-x="649" 
d="M622 144l10 -143q-27 -9 -89 -9q-51 0 -87.5 15.5t-55 38.5t-35 50.5t-28 50.5t-32.5 38.5t-51 15.5h-11v-201h-187v660h247q142 0 212.5 -58t70.5 -181q0 -136 -119 -187q19 -6 35.5 -22.5t26 -31.5t28.5 -26.5t44 -11.5zM243 327h36q58 0 91.5 24t33.5 68
q0 47 -30 72.5t-83 25.5h-48v-190z" />
    <glyph glyph-name="S" unicode="S" horiz-adv-x="590" 
d="M392 444q0 29 -24.5 51.5t-62.5 22.5q-34 0 -52.5 -13.5t-18.5 -35.5q0 -21 18 -35t47 -23.5t63.5 -18.5t69.5 -24t64 -36.5t47 -59.5t18 -88q0 -83 -65.5 -137.5t-199.5 -54.5q-166 0 -287 104l107 130q33 -31 85.5 -59.5t102.5 -28.5q70 0 70 40q0 19 -18 32t-46.5 22
t-63.5 18.5t-70 24.5t-63.5 36t-46.5 58t-18 86q0 89 69.5 151t181.5 62q120 0 181.5 -52t75.5 -132z" />
    <glyph glyph-name="T" unicode="T" horiz-adv-x="589" 
d="M201 0v508h-191v152h569v-152h-191v-508h-187z" />
    <glyph glyph-name="U" unicode="U" horiz-adv-x="674" 
d="M438 660h187v-395q0 -125 -79 -199t-208 -74q-131 0 -210.5 74t-79.5 199l1 395h187v-395q0 -52 28 -82t74 -30q45 0 72.5 30t27.5 82v395z" />
    <glyph glyph-name="V" unicode="V" horiz-adv-x="630" 
d="M186 660l110 -413q17 -65 19 -81h4q4 27 18 80l109 414h189l-215 -660h-210l-215 660h191z" />
    <glyph glyph-name="W" unicode="W" horiz-adv-x="942" 
d="M756 660h191l-180 -660h-215l-59 254q-7 29 -10.5 52t-5.5 45t-3 29h-4q-13 -95 -20 -126l-58 -254h-220l-175 660h191l83 -413q12 -55 16 -81h4q5 29 16 80l86 414h159l85 -414q12 -57 16 -80h4q3 20 16 81z" />
    <glyph glyph-name="X" unicode="X" horiz-adv-x="640" 
d="M452 322l195 -322h-209l-97 184q-16 30 -19 43h-4q-3 -16 -19 -43l-106 -184h-189l179 318l-187 342h216l89 -199q16 -35 18 -43h4q2 11 19 43l104 199h189z" />
    <glyph glyph-name="Y" unicode="Y" horiz-adv-x="611" 
d="M617 660l-218 -422v-238h-187v237l-219 423h202l81 -187q23 -55 30 -81h4q8 32 29 81l80 187h198z" />
    <glyph glyph-name="Z" unicode="Z" horiz-adv-x="598" 
d="M29 0v144l249 287q46 55 70 76l-3 4q-18 -3 -105 -3h-201v152h528v-144l-245 -287q-45 -52 -74 -76l3 -4q24 3 105 3h206v-152h-533z" />
    <glyph glyph-name="bracketleft" unicode="[" horiz-adv-x="405" 
d="M51 -204v910h333v-136h-164v-638h164v-136h-333z" />
    <glyph glyph-name="backslash" unicode="\" horiz-adv-x="476" 
d="M457 -204h-166l-272 910h165z" />
    <glyph glyph-name="bracketright" unicode="]" horiz-adv-x="405" 
d="M21 -204v136h164v638h-164v136h333v-910h-333z" />
    <glyph glyph-name="asciicircum" unicode="^" horiz-adv-x="414" 
d="M26 500l90 239h182l90 -239h-145l-36 118l-36 -118h-145z" />
    <glyph glyph-name="underscore" unicode="_" horiz-adv-x="425" 
d="M0 -170v120h425v-120h-425z" />
    <glyph glyph-name="grave" unicode="`" horiz-adv-x="322" 
d="M122 528l-112 181h215l60 -174z" />
    <glyph glyph-name="a" unicode="a" horiz-adv-x="551" 
d="M529 135l6 -131q-34 -10 -82 -10q-105 0 -128 70h-2q-35 -70 -140 -70q-75 0 -117.5 34.5t-42.5 94.5q0 38 17 65.5t42 43.5t67 26t77.5 14t87.5 7v13q0 26 -15 41.5t-43 15.5q-58 0 -58 -37q0 -6 3 -11l-152 -26q-7 22 -7 51q0 70 59.5 111t162.5 41q111 0 167.5 -51
t56.5 -147v-123q0 -25 24 -25q8 0 17 3zM239 119q33 0 54 13.5t21 37.5v32q-85 -7 -104 -19q-15 -11 -16 -28q0 -18 13 -27t32 -9z" />
    <glyph glyph-name="b" unicode="b" horiz-adv-x="574" 
d="M353 478q84 0 140 -63.5t56 -178.5q0 -110 -58.5 -176t-146.5 -66q-95 0 -142 80h-4q0 -35 -12 -74h-143v706h180v-294q40 66 130 66zM297 145q32 0 51 24.5t19 66.5q0 44 -18 67.5t-52 23.5q-32 0 -53 -21t-21 -49v-43q0 -30 22.5 -49.5t51.5 -19.5z" />
    <glyph glyph-name="c" unicode="c" horiz-adv-x="502" 
d="M274 478q93 0 146 -48.5t53 -122.5l-4 -37l-155 -8q2 8 2 17q0 22 -11.5 37.5t-35.5 15.5q-29 0 -46.5 -25t-17.5 -65q0 -103 91 -103q39 0 70.5 16.5t43.5 31.5l80 -112q-19 -27 -72.5 -54t-135.5 -27q-123 0 -191 67t-68 174q0 109 69 176t182 67z" />
    <glyph glyph-name="d" unicode="d" horiz-adv-x="574" 
d="M351 706h180v-706l-153 -5q-16 52 -16 79h-3q-40 -80 -139 -80q-90 0 -142.5 67t-52.5 170q0 118 60 182.5t144 64.5q82 0 122 -50v278zM277 145q29 0 51.5 19.5t22.5 49.5v43q0 27 -22 48.5t-52 21.5q-32 0 -51 -25.5t-19 -70.5q0 -39 19 -62.5t51 -23.5z" />
    <glyph glyph-name="e" unicode="e" horiz-adv-x="518" 
d="M419 171l75 -98q-21 -28 -75 -53.5t-134 -25.5q-123 0 -192.5 67t-69.5 175q0 107 68 174.5t179 67.5q102 0 161 -61.5t59 -162.5l-5 -55h-283q23 -74 106 -74q29 0 54 9.5t33 16t24 20.5zM270 347q-62 0 -73 -70h136q-2 29 -18 49.5t-45 20.5z" />
    <glyph glyph-name="f" unicode="f" horiz-adv-x="414" 
d="M270 489v-17h136v-133h-136v-339h-180v339h-70v133h70v15q0 106 63 165.5t161 59.5q34 0 63.5 -6t42.5 -12l12 -6l-48 -145q-21 17 -46 17q-31 0 -49.5 -19.5t-18.5 -51.5z" />
    <glyph glyph-name="g" unicode="g" horiz-adv-x="529" 
d="M319 94q93 0 150.5 -36t57.5 -110q0 -30 -11 -55t-38.5 -50t-83.5 -39t-135 -14q-127 0 -190.5 32t-63.5 84q0 67 79 91q-61 37 -61 96q0 73 74 96q-48 45 -48 115q0 77 60 125.5t157 48.5q59 0 108 -19q44 26 44 117l127 -38q0 -44 -32 -79.5t-72 -43.5q44 -46 44 -111
q0 -78 -60 -126t-159 -48q-47 0 -86 12q-27 -6 -27 -25q0 -13 9.5 -18t42.5 -5h114zM211 306q-1 -23 14.5 -38t40.5 -16q27 -1 43 13t18 37q1 23 -15 38t-42 16q-25 1 -41.5 -13t-17.5 -37zM259 -97q109 0 109 33q0 30 -59 30h-74q-79 0 -79 -30q0 -33 103 -33z" />
    <glyph glyph-name="h" unicode="h" horiz-adv-x="565" 
d="M355 478q87 0 129 -52t42 -135v-291h-180v245q0 76 -61 76q-31 0 -46.5 -22t-15.5 -57v-242h-180v706h177l1 -306h3q34 78 131 78z" />
    <glyph glyph-name="i" unicode="i" horiz-adv-x="266" 
d="M244 621q0 -47 -32.5 -77t-80.5 -30t-80 30t-32 77t32 77.5t80 30.5t80.5 -30.5t32.5 -77.5zM43 0v472l180 5v-477h-180z" />
    <glyph glyph-name="j" unicode="j" horiz-adv-x="274" 
d="M260 631q0 -47 -32.5 -77t-80.5 -30t-80 30t-32 77t32 77.5t80 30.5t80.5 -30.5t32.5 -77.5zM-44 -50q13 -8 34 -8q61 0 61 86v444l180 5v-457q0 -106 -52 -168t-160 -62q-37 0 -65 8.5t-38 17.5l-10 8z" />
    <glyph glyph-name="k" unicode="k" horiz-adv-x="573" 
d="M374 0l-118 179h-33v-179h-180v706h180v-394h41l100 160h204l-160 -228l180 -244h-214z" />
    <glyph glyph-name="l" unicode="l" horiz-adv-x="266" 
d="M43 0v706h180v-706h-180z" />
    <glyph glyph-name="m" unicode="m" horiz-adv-x="858" 
d="M651 478q84 0 126 -52.5t42 -134.5v-291h-180v245q0 76 -58 76q-60 0 -60 -79v-242h-180v245q0 76 -58 76q-60 0 -60 -79v-242h-180v472l148 5q8 -16 14.5 -45t6.5 -44h3q36 90 138 90q117 0 154 -103q33 103 144 103z" />
    <glyph glyph-name="n" unicode="n" horiz-adv-x="565" 
d="M356 478q85 0 127.5 -52.5t42.5 -134.5v-291h-180v245q0 76 -60 76q-31 0 -47 -22t-16 -57v-242h-180v472l148 5q21 -45 21 -89h4q36 90 140 90z" />
    <glyph glyph-name="o" unicode="o" horiz-adv-x="552" 
d="M276 478q114 0 183.5 -67t69.5 -174t-69.5 -175t-183.5 -68t-183.5 68t-69.5 175t69.5 174t183.5 67zM276 140q34 0 52.5 26.5t18.5 70.5t-18.5 69.5t-52.5 25.5t-52.5 -25.5t-18.5 -69.5t18.5 -70.5t52.5 -26.5z" />
    <glyph glyph-name="p" unicode="p" horiz-adv-x="574" 
d="M354 478q90 0 142.5 -68t52.5 -174q0 -116 -58.5 -179t-145.5 -63q-82 0 -122 50v-248h-180v676l149 5q8 -17 14 -43.5t6 -35.5h4q40 80 138 80zM297 145q32 0 51 24.5t19 66.5t-19 66.5t-51 24.5q-29 0 -51.5 -19.5t-22.5 -49.5v-43q0 -27 22 -48.5t52 -21.5z" />
    <glyph glyph-name="q" unicode="q" horiz-adv-x="574" 
d="M382 472h149v-676h-180v248q-40 -50 -122 -50q-87 0 -145.5 63t-58.5 179q0 106 52.5 174t142.5 68q99 0 139 -80h3q0 31 20 74zM277 145q30 0 52 21.5t22 48.5v43q0 30 -22.5 49.5t-51.5 19.5q-32 0 -51 -24.5t-19 -66.5t19 -66.5t51 -24.5z" />
    <glyph glyph-name="r" unicode="r" horiz-adv-x="411" 
d="M340 478q41 0 77 -19l-48 -171q-29 23 -63 23q-38 0 -60.5 -26.5t-22.5 -72.5v-212h-180v472l148 5q8 -18 14.5 -50.5t6.5 -48.5h3q30 100 125 100z" />
    <glyph glyph-name="s" unicode="s" horiz-adv-x="491" 
d="M297 311q1 5 1 12q0 47 -50 47t-50 -34q0 -18 20 -29.5t49.5 -15.5t64.5 -13.5t64.5 -22t49.5 -41.5t20 -72q0 -66 -56.5 -107t-159.5 -41q-47 0 -88.5 7t-67 17.5t-44.5 21t-27 17.5l-8 7l74 103l24 -16t55 -26t72 -16q42 0 42 17q0 15 -25 25t-61 19t-72.5 23.5
t-61.5 47t-25 79.5q0 77 58.5 117.5t159.5 40.5q88 0 144.5 -36t56.5 -92l-4 -31z" />
    <glyph glyph-name="t" unicode="t" horiz-adv-x="441" 
d="M392 170l49 -139q-6 -4 -17.5 -10t-52 -16.5t-86.5 -10.5q-96 0 -150 54t-54 161v130h-70v133h80v126l170 5v-131h151v-133h-151v-122q0 -38 16 -54.5t49 -16.5q19 0 35.5 6t23.5 12z" />
    <glyph glyph-name="u" unicode="u" horiz-adv-x="561" 
d="M338 472h180v-472l-152 -5q-17 55 -17 89h-2q-36 -90 -138 -90q-85 0 -127.5 52.5t-42.5 134.5v291h180v-245q0 -76 60 -76q29 0 44 22.5t15 56.5v242z" />
    <glyph glyph-name="v" unicode="v" horiz-adv-x="545" 
d="M362 472h180l-168 -472h-203l-168 472h190l69 -235q8 -31 14 -72h4q8 53 14 72z" />
    <glyph glyph-name="w" unicode="w" horiz-adv-x="782" 
d="M593 472h182l-128 -472h-203l-40 163q-9 39 -11 70h-4q-2 -31 -11 -70l-40 -163h-203l-128 472h182l44 -235q4 -19 9 -72h4q6 47 13 72l57 235h150l56 -235q11 -49 14 -72h4q5 47 11 72z" />
    <glyph glyph-name="x" unicode="x" horiz-adv-x="532" 
d="M365 230l172 -230h-186l-55 80q-12 18 -29 51h-4q-5 -17 -27 -51l-51 -80h-191l174 246l-167 226h191l45 -70q26 -42 29 -62h4q4 23 28 62l40 70h196z" />
    <glyph glyph-name="y" unicode="y" horiz-adv-x="533" 
d="M351 -44q-28 -75 -83.5 -120.5t-138.5 -45.5q-28 0 -53.5 5.5t-37.5 10.5l-11 6l24 132q29 -15 62 -15q55 0 78 40l2 3l-191 500h190l67 -235q8 -31 14 -72h4q10 56 14 72l60 235h180z" />
    <glyph glyph-name="z" unicode="z" horiz-adv-x="485" 
d="M25 0v123l203 193q15 15 24 22l-1 4q-30 -3 -69 -3h-149v133h421v-123l-196 -194q-15 -15 -23 -21l2 -4q27 3 61 3h162v-133h-435z" />
    <glyph glyph-name="braceleft" unicode="{" horiz-adv-x="379" 
d="M353 -214q-53 0 -96.5 11t-82 35.5t-60 71.5t-21.5 112v90q0 33 -19 50t-45 17h-10v136h10q26 0 45 17t19 50v108q0 65 21.5 112t60 71.5t82 35.5t96.5 11v-148q-102 0 -102 -112v-118q0 -77 -47 -94q12 -4 29.5 -31t17.5 -65v-100q0 -112 102 -112v-148z" />
    <glyph glyph-name="bar" unicode="|" horiz-adv-x="244" 
d="M51 -204v910h142v-910h-142z" />
    <glyph glyph-name="braceright" unicode="}" horiz-adv-x="379" 
d="M26 -64q102 0 102 112v98q0 21 3.5 37.5t11 27t12 15.5t13.5 10l8 6q-48 17 -48 94v118q0 112 -102 112v148q53 0 96.5 -11t82 -35.5t60 -71.5t21.5 -112v-108q0 -33 19 -50t45 -17h10v-136h-10q-26 0 -45 -17t-19 -50v-88q0 -65 -21.5 -112t-60 -71.5t-82 -35.5
t-96.5 -11v148z" />
    <glyph glyph-name="asciitilde" unicode="~" horiz-adv-x="528" 
d="M47 207v117q45 33 110 33q43 0 107 -20t107 -20q67 0 110 30v-117q-50 -33 -110 -33q-43 0 -107 20t-107 20q-67 0 -110 -30z" />
    <glyph glyph-name="exclamdown" unicode="&#xa1;" horiz-adv-x="260" 
d="M133 301q-37 0 -63.5 26.5t-26.5 63.5t26.5 63.5t63.5 26.5t63.5 -26.5t26.5 -63.5t-26.5 -63.5t-63.5 -26.5zM33 -211l25 442l145 5l20 -447h-190z" />
    <glyph glyph-name="cent" unicode="&#xa2;" horiz-adv-x="523" 
d="M304 139q39 0 70.5 16.5t43.5 31.5l80 -112q-16 -22 -57 -46t-102 -32v-98h-119v102q-91 18 -140 81t-49 155t49 155t140 81v111h119v-107q61 -8 102 -32t57 -46l-80 -112q-12 15 -43.5 31.5t-70.5 16.5q-46 0 -68.5 -27t-22.5 -71t22.5 -71t68.5 -27z" />
    <glyph glyph-name="sterling" unicode="&#xa3;" horiz-adv-x="611" 
d="M277 140q8 2 41 2h246v-143h-510v102q4 2 10.5 5.5t23 16.5t29.5 28.5t23.5 40t10.5 51.5v1h-117v94h72q-38 60 -38 113q0 98 73 158.5t193 60.5q56 0 102.5 -16.5t73 -39.5t45 -46t25.5 -40l6 -16l-150 -66q-1 2 -3 6.5t-9.5 15t-17 18.5t-27 14.5t-37.5 6.5
q-38 0 -61 -22t-23 -59q0 -41 32 -88h194v-94h-155v-1q0 -70 -55 -99z" />
    <glyph glyph-name="currency" unicode="&#xa4;" horiz-adv-x="594" 
d="M84 349q0 54 26 101l-78 79l83 84l78 -79q48 28 106 28q55 0 104 -27l79 78l83 -84l-78 -78q27 -45 27 -102t-27 -103l75 -73l-84 -82l-75 72q-48 -27 -104 -27q-57 0 -106 27l-81 -80l-84 83l82 82q-26 49 -26 101zM211 349q0 -36 25.5 -61t62.5 -25t62.5 25t25.5 61
t-25.5 61.5t-62.5 25.5t-62.5 -25.5t-25.5 -61.5z" />
    <glyph glyph-name="yen" unicode="&#xa5;" horiz-adv-x="668" 
d="M646 660l-162 -314h106v-94h-155l-7 -14v-32h162v-94h-162v-112h-187v112h-163v94h163v31l-8 15h-155v94h107l-163 314h202l81 -187q23 -55 30 -81h4q8 32 29 81l80 187h198z" />
    <glyph glyph-name="brokenbar" unicode="&#xa6;" horiz-adv-x="246" 
d="M52 307v399h142v-399h-142zM52 -204v399h142v-399h-142z" />
    <glyph glyph-name="section" unicode="&#xa7;" horiz-adv-x="615" 
d="M504 100q73 -51 73 -136q0 -81 -71 -128t-194 -47q-166 0 -287 104l107 130q33 -31 85.5 -59.5t102.5 -28.5q70 0 70 40q0 22 -33.5 38t-81.5 29.5t-96 32t-81.5 55t-33.5 88.5q0 83 79 115q-78 54 -78 139q0 88 69 142t182 54q120 0 181.5 -52t75.5 -132l-164 -40
q0 29 -24.5 51.5t-62.5 22.5q-34 0 -52.5 -13.5t-18.5 -35.5q0 -27 23.5 -45.5t59.5 -28.5t77 -24.5t77 -31.5t59.5 -52.5t23.5 -84.5q0 -35 -17.5 -62t-49.5 -40zM220 236q0 -13 8.5 -23.5t28.5 -19.5t37 -14.5t50 -14.5t51 -15q16 16 16 39q0 9 -4 17t-14 15.5t-19.5 13
t-26 12.5t-29 11t-34 11.5t-34.5 12.5q-30 -7 -30 -45z" />
    <glyph glyph-name="dieresis" unicode="&#xa8;" horiz-adv-x="416" 
d="M103 530q-35 0 -60 24.5t-25 58.5q0 35 25 59.5t60 24.5q34 0 58.5 -24.5t24.5 -59.5t-24 -59t-59 -24zM320 530q-35 0 -59.5 24.5t-24.5 58.5q0 35 25 59.5t59 24.5q35 0 59.5 -24.5t24.5 -59.5t-24.5 -59t-59.5 -24z" />
    <glyph glyph-name="copyright" unicode="&#xa9;" horiz-adv-x="730" 
d="M364 -5q-151 0 -243 92.5t-92 243.5q0 150 92 242t243 92t244 -92t93 -242q0 -151 -92.5 -243.5t-244.5 -92.5zM364 39q130 0 209 80.5t79 211.5t-79 210.5t-209 79.5q-129 0 -207.5 -79.5t-78.5 -210.5t78.5 -211.5t207.5 -80.5zM536 191q-2 -3 -6 -8t-19 -18t-33 -22.5
t-47.5 -17.5t-62.5 -8q-92 0 -148.5 58t-56.5 153q0 98 56.5 158.5t149.5 60.5q79 0 127 -44t48 -115l-109 -20v8t-3 17.5t-8.5 22t-19.5 17.5t-33 8q-37 0 -59.5 -29t-22.5 -76q0 -51 27 -82.5t70 -31.5q26 0 48.5 11t31.5 23l10 11z" />
    <glyph glyph-name="ordfeminine" unicode="&#xaa;" horiz-adv-x="479" 
d="M447 394l5 -114q-29 -9 -71 -9q-89 0 -109 56h-3q-27 -56 -112 -56q-61 0 -96 28t-35 78q0 129 235 129v9q0 40 -40 40q-42 0 -42 -25q0 -4 2 -8l-133 -22q-5 18 -5 43q0 58 49.5 91.5t135.5 33.5q186 0 186 -165v-92q0 -20 19 -20q7 0 14 3zM208 380q53 0 53 36v25
q-85 0 -85 -34q0 -27 32 -27z" />
    <glyph glyph-name="guillemotleft" unicode="&#xab;" horiz-adv-x="574" 
d="M30 197v135l172 143l83 -93l-137 -118l137 -117l-83 -93zM294 197v135l172 143l83 -93l-137 -118l137 -117l-83 -93z" />
    <glyph glyph-name="registered" unicode="&#xae;" horiz-adv-x="426" 
d="M213 310q-83 0 -134 49.5t-51 129.5t51 129.5t134 49.5t134 -49.5t51 -129.5t-51 -129.5t-134 -49.5zM213 345q66 0 106 39.5t40 104.5t-40 105t-106 40t-106 -40t-40 -105t40 -104.5t106 -39.5zM305 381q-11 -2 -22 -2q-23 0 -39 15.5t-28 30.5t-26 15h-8v-60h-55v213
h82q35 0 57.5 -19t22.5 -47q0 -22 -9.5 -38t-18.5 -21t-15 -5q15 -5 24.5 -19t21.5 -14q7 0 9 1zM203 491q33 0 33 29q0 23 -30 23h-24v-52h21z" />
    <glyph glyph-name="macron" unicode="&#xaf;" horiz-adv-x="438" 
d="M50 555v119h338v-119h-338z" />
    <glyph glyph-name="degree" unicode="&#xb0;" horiz-adv-x="327" 
d="M303 529q0 -61 -39 -99t-101 -38t-100.5 38t-38.5 99q0 62 38.5 100t100.5 38t101 -38t39 -100zM213 529q0 23 -13.5 36.5t-36.5 13.5q-22 0 -35.5 -14t-13.5 -36t13.5 -35.5t35.5 -13.5t36 13.5t14 35.5z" />
    <glyph glyph-name="plusminus" unicode="&#xb1;" horiz-adv-x="487" 
d="M304 391h143v-110h-143v-127h-120v127h-144v110h144v117h120v-117zM40 1v110h407v-110h-407z" />
    <glyph glyph-name="acute" unicode="&#xb4;" horiz-adv-x="322" 
d="M200 535l-159 -7l60 181h211z" />
    <glyph glyph-name="paragraph" unicode="&#xb6;" horiz-adv-x="643" 
d="M478 -203v786h-90v-786h-98v453h-40q-103 0 -165.5 55t-62.5 144q0 95 62.5 153t165.5 58h326v-863h-98z" />
    <glyph glyph-name="periodcentered" unicode="&#xb7;" horiz-adv-x="247" 
d="M28 353q0 40 27.5 68t67.5 28t68 -28t28 -68t-28 -67.5t-68 -27.5t-67.5 27.5t-27.5 67.5z" />
    <glyph glyph-name="cedilla" unicode="&#xb8;" horiz-adv-x="297" 
d="M190 -24q33 -4 55.5 -26.5t22.5 -62.5q0 -47 -36 -72.5t-85 -25.5q-32 0 -60 11.5t-41 23.5l-12 11l41 67q28 -30 69 -30q35 0 35 26q0 37 -84 37l34 76h78z" />
    <glyph glyph-name="ordmasculine" unicode="&#xba;" horiz-adv-x="459" 
d="M230 668q94 0 151 -55t57 -142q0 -88 -57 -144t-151 -56t-151.5 56t-57.5 144q0 87 57.5 142t151.5 55zM230 400q48 0 48 71q0 68 -48 68q-49 0 -49 -68q0 -33 12.5 -52t36.5 -19z" />
    <glyph glyph-name="guillemotright" unicode="&#xbb;" horiz-adv-x="574" 
d="M108 54l-83 93l137 117l-137 118l83 93l172 -143v-135zM372 54l-83 93l137 117l-137 118l83 93l172 -143v-135z" />
    <glyph glyph-name="onequarter" unicode="&#xbc;" horiz-adv-x="917" 
d="M211 0l306 668h133l-305 -668h-134zM142 292v227l-118 -24v122l239 43h27v-368h-148zM833 364v-206h59v-102h-59v-56h-142v56h-197v90l185 218h154zM704 158v69q0 13 1 18l-4 2q0 -1 -1.5 -2.5l-3 -3t-2.5 -3.5l-54 -68q-6 -8 -12 -10l2 -3q6 1 22 1h52z" />
    <glyph glyph-name="onehalf" unicode="&#xbd;" horiz-adv-x="916" 
d="M211 0l306 668h133l-305 -668h-134zM142 292v227l-118 -24v122l239 43h27v-368h-148zM740 103q3 1 31 1h117v-104h-372v88q106 50 160.5 85.5t54.5 66.5q0 12 -9 19t-21 7q-33 0 -33 -29q0 -6 1 -8l-148 -28q-8 19 -8 39q0 59 51.5 96t137.5 37q81 0 128.5 -37t47.5 -94
q0 -70 -117 -127q-14 -7 -22 -9z" />
    <glyph glyph-name="threequarters" unicode="&#xbe;" horiz-adv-x="972" 
d="M287 0l306 668h133l-305 -668h-134zM209 665q84 0 129 -34t45 -89q0 -30 -21 -48.5t-55 -18.5v-2q40 0 64.5 -21.5t24.5 -56.5q0 -47 -49.5 -78.5t-136.5 -31.5q-43 0 -78 8t-54 19t-31.5 22t-16.5 19l-4 8l85 71q35 -31 90 -31q48 0 48 17t-27 17h-74v79h50q17 0 28 7.5
t11 19.5q0 24 -33 24q-31 0 -31 -24q0 -5 1 -6l-137 -23l-1 2q0 2 -0.5 5.5t-1.5 8t-1.5 10t-0.5 10.5q0 53 47.5 85t129.5 32zM889 364v-206h59v-102h-59v-56h-142v56h-197v90l185 218h154zM760 158v69q0 13 1 18l-4 2q0 -1 -1.5 -2.5l-3 -3t-2.5 -3.5l-54 -68
q-6 -8 -12 -10l2 -3q6 1 22 1h52z" />
    <glyph glyph-name="questiondown" unicode="&#xbf;" horiz-adv-x="484" 
d="M270 289q-40 0 -68 28t-28 68t28 67.5t68 27.5t67.5 -27.5t27.5 -67.5t-27.5 -68t-67.5 -28zM248 -223q-63 0 -109.5 18t-71 47.5t-35.5 60.5t-11 63q0 43 19 75.5t45.5 52t53.5 37t46 40.5t19 51v17l148 5v-53q0 -44 -24 -79.5t-52.5 -53t-52.5 -39t-24 -41.5
q0 -44 49 -44q23 0 37.5 12t14.5 34q0 13 -4 25l157 25q7 -42 7 -71q0 -78 -58.5 -130t-153.5 -52z" />
    <glyph glyph-name="Agrave" unicode="&#xc0;" horiz-adv-x="637" 
d="M411 703l-170 -7l-112 139h222zM454 0l-33 121h-203l-34 -121h-191l222 660h208l220 -660h-189zM255 255h129l-44 159q-14 53 -18 80h-4q-2 -16 -19 -81z" />
    <glyph glyph-name="Aacute" unicode="&#xc1;" horiz-adv-x="637" 
d="M506 835l-112 -132l-170 -7l60 139h222zM454 0l-33 121h-203l-34 -121h-191l222 660h208l220 -660h-189zM255 255h129l-44 159q-14 53 -18 80h-4q-2 -16 -19 -81z" />
    <glyph glyph-name="Acircumflex" unicode="&#xc2;" horiz-adv-x="637" 
d="M325 751l-57 -50l-125 -5l90 149h184l90 -149l-125 5zM454 0l-33 121h-203l-34 -121h-191l222 660h208l220 -660h-189zM255 255h129l-44 159q-14 53 -18 80h-4q-2 -16 -19 -81z" />
    <glyph glyph-name="Atilde" unicode="&#xc3;" horiz-adv-x="637" 
d="M224 694h-110q-6 19 -6 49q0 52 33 82.5t87 30.5q48 0 99 -23.5t60 -23.5q22 0 22 25l-5 36h108q6 -25 6 -56q0 -51 -33.5 -83t-87.5 -32q-33 0 -80 25.5t-63 25.5t-25.5 -9.5t-9.5 -25.5zM454 0l-33 121h-203l-34 -121h-191l222 660h208l220 -660h-189zM255 255h129
l-44 159q-14 53 -18 80h-4q-2 -16 -19 -81z" />
    <glyph glyph-name="Adieresis" unicode="&#xc4;" horiz-adv-x="637" 
d="M218 700q-34 0 -58 23.5t-24 57.5t24 58t58 24t57.5 -24t23.5 -58t-23.5 -57.5t-57.5 -23.5zM437 700q-34 0 -58 23.5t-24 57.5t24 58t58 24t57.5 -24t23.5 -58t-23.5 -57.5t-57.5 -23.5zM454 0l-33 121h-203l-34 -121h-191l222 660h208l220 -660h-189zM255 255h129
l-44 159q-14 53 -18 80h-4q-2 -16 -19 -81z" />
    <glyph glyph-name="Aring" unicode="&#xc5;" horiz-adv-x="637" 
d="M324 683q-43 0 -75.5 30t-32.5 72t32.5 72t75.5 30t75.5 -30t32.5 -72t-32.5 -72t-75.5 -30zM324 815q-13 0 -21.5 -8.5t-8.5 -21.5t8.5 -21.5t21.5 -8.5t21.5 8.5t8.5 21.5t-8.5 21.5t-21.5 8.5zM454 0l-33 121h-203l-34 -121h-191l222 660h208l220 -660h-189zM255 255
h129l-44 159q-14 53 -18 80h-4q-2 -16 -19 -81z" />
    <glyph glyph-name="AE" unicode="&#xc6;" horiz-adv-x="961" 
d="M923 508h-276v-108h232v-141h-232v-107h276v-152h-463v121h-211l-80 -121h-191l442 660h503v-152zM339 255h121v182z" />
    <glyph glyph-name="Ccedilla" unicode="&#xc7;" horiz-adv-x="659" 
d="M641 125q-87 -121 -243 -132l-8 -17q33 -4 55.5 -26.5t22.5 -62.5q0 -47 -36 -72.5t-85 -25.5q-32 0 -60 11.5t-41 23.5l-12 11l41 67q28 -30 69 -30q35 0 35 26q0 37 -84 37l27 60q-135 14 -214.5 103.5t-79.5 231.5q0 154 90 246t232 92q75 0 132.5 -23.5t90 -63
t48.5 -85t16 -94.5l-172 -26q0 52 -27.5 91.5t-84.5 39.5q-59 0 -97.5 -48.5t-38.5 -128.5q0 -89 45.5 -133t112.5 -44q93 0 156 88z" />
    <glyph glyph-name="Egrave" unicode="&#xc8;" horiz-adv-x="557" 
d="M374 703l-170 -7l-112 139h222zM519 508h-276v-108h232v-141h-232v-107h276v-152h-463v660h463v-152z" />
    <glyph glyph-name="Eacute" unicode="&#xc9;" horiz-adv-x="557" 
d="M469 835l-112 -132l-170 -7l60 139h222zM519 508h-276v-108h232v-141h-232v-107h276v-152h-463v660h463v-152z" />
    <glyph glyph-name="Ecircumflex" unicode="&#xca;" horiz-adv-x="557" 
d="M288 751l-57 -50l-125 -5l90 149h184l90 -149l-125 5zM519 508h-276v-108h232v-141h-232v-107h276v-152h-463v660h463v-152z" />
    <glyph glyph-name="Edieresis" unicode="&#xcb;" horiz-adv-x="557" 
d="M181 700q-34 0 -58 23.5t-24 57.5t24 58t58 24t57.5 -24t23.5 -58t-23.5 -57.5t-57.5 -23.5zM400 700q-34 0 -58 23.5t-24 57.5t24 58t58 24t57.5 -24t23.5 -58t-23.5 -57.5t-57.5 -23.5zM519 508h-276v-108h232v-141h-232v-107h276v-152h-463v660h463v-152z" />
    <glyph glyph-name="Igrave" unicode="&#xcc;" horiz-adv-x="294" 
d="M64 696l-112 139h222l60 -132zM56 0v660h182v-660h-182z" />
    <glyph glyph-name="Iacute" unicode="&#xcd;" horiz-adv-x="294" 
d="M217 703l-170 -7l60 139h222zM56 0v660h182v-660h-182z" />
    <glyph glyph-name="Icircumflex" unicode="&#xce;" horiz-adv-x="294" 
d="M240 845l90 -149l-125 5l-57 50l-57 -50l-125 -5l90 149h184zM56 0v660h182v-660h-182z" />
    <glyph glyph-name="Idieresis" unicode="&#xcf;" horiz-adv-x="294" 
d="M41 700q-34 0 -58 23.5t-24 57.5t24 58t58 24t57.5 -24t23.5 -58t-23.5 -57.5t-57.5 -23.5zM260 700q-34 0 -58 23.5t-24 57.5t24 58t58 24t57.5 -24t23.5 -58t-23.5 -57.5t-57.5 -23.5zM56 0v660h182v-660h-182z" />
    <glyph glyph-name="Eth" unicode="&#xd0;" horiz-adv-x="668" 
d="M314 660q156 0 240.5 -90.5t84.5 -238.5q0 -156 -76.5 -243.5t-221.5 -87.5h-285v283h-94v100h94v277h258zM310 144q71 0 105.5 43.5t34.5 143.5q0 185 -168 185h-39v-133h150v-100h-150v-139h67z" />
    <glyph glyph-name="Ntilde" unicode="&#xd1;" horiz-adv-x="711" 
d="M570 870q6 -25 6 -56q0 -51 -33.5 -83t-87.5 -32q-33 0 -80 25.5t-63 25.5t-25.5 -9.5t-9.5 -25.5l5 -21h-110q-6 19 -6 49q0 52 33 82.5t87 30.5q48 0 99 -23.5t60 -23.5q22 0 22 25l-5 36h108zM655 660v-660h-167l-169 234q-43 60 -82 123l-7 -3q5 -21 5 -120v-234
h-179v660h148l189 -259q47 -66 82 -130l6 3q-5 21 -5 127v259h179z" />
    <glyph glyph-name="Ograve" unicode="&#xd2;" horiz-adv-x="718" 
d="M276 696l-112 139h222l60 -132zM359 668q148 0 239.5 -91.5t91.5 -245.5q0 -155 -91.5 -246.5t-239.5 -91.5t-239.5 91.5t-91.5 246.5q0 154 91.5 245.5t239.5 91.5zM359 154q63 0 102.5 46.5t39.5 130.5q0 83 -39.5 129.5t-102.5 46.5t-102.5 -46.5t-39.5 -129.5
q0 -84 39.5 -130.5t102.5 -46.5z" />
    <glyph glyph-name="Oacute" unicode="&#xd3;" horiz-adv-x="718" 
d="M429 703l-170 -7l60 139h222zM359 668q148 0 239.5 -91.5t91.5 -245.5q0 -155 -91.5 -246.5t-239.5 -91.5t-239.5 91.5t-91.5 246.5q0 154 91.5 245.5t239.5 91.5zM359 154q63 0 102.5 46.5t39.5 130.5q0 83 -39.5 129.5t-102.5 46.5t-102.5 -46.5t-39.5 -129.5
q0 -84 39.5 -130.5t102.5 -46.5z" />
    <glyph glyph-name="Ocircumflex" unicode="&#xd4;" horiz-adv-x="718" 
d="M452 845l90 -149l-125 5l-57 50l-57 -50l-125 -5l90 149h184zM359 668q148 0 239.5 -91.5t91.5 -245.5q0 -155 -91.5 -246.5t-239.5 -91.5t-239.5 91.5t-91.5 246.5q0 154 91.5 245.5t239.5 91.5zM359 154q63 0 102.5 46.5t39.5 130.5q0 83 -39.5 129.5t-102.5 46.5
t-102.5 -46.5t-39.5 -129.5q0 -84 39.5 -130.5t102.5 -46.5z" />
    <glyph glyph-name="Otilde" unicode="&#xd5;" horiz-adv-x="718" 
d="M547 870q6 -25 6 -56q0 -51 -33.5 -83t-87.5 -32q-33 0 -80 25.5t-63 25.5t-25.5 -9.5t-9.5 -25.5l5 -21h-110q-6 19 -6 49q0 52 33 82.5t87 30.5q48 0 99 -23.5t60 -23.5q22 0 22 25l-5 36h108zM359 668q148 0 239.5 -91.5t91.5 -245.5q0 -155 -91.5 -246.5
t-239.5 -91.5t-239.5 91.5t-91.5 246.5q0 154 91.5 245.5t239.5 91.5zM359 154q63 0 102.5 46.5t39.5 130.5q0 83 -39.5 129.5t-102.5 46.5t-102.5 -46.5t-39.5 -129.5q0 -84 39.5 -130.5t102.5 -46.5z" />
    <glyph glyph-name="Odieresis" unicode="&#xd6;" horiz-adv-x="718" 
d="M253 700q-34 0 -58 23.5t-24 57.5t24 58t58 24t57.5 -24t23.5 -58t-23.5 -57.5t-57.5 -23.5zM472 700q-34 0 -58 23.5t-24 57.5t24 58t58 24t57.5 -24t23.5 -58t-23.5 -57.5t-57.5 -23.5zM359 668q148 0 239.5 -91.5t91.5 -245.5q0 -155 -91.5 -246.5t-239.5 -91.5
t-239.5 91.5t-91.5 246.5q0 154 91.5 245.5t239.5 91.5zM359 154q63 0 102.5 46.5t39.5 130.5q0 83 -39.5 129.5t-102.5 46.5t-102.5 -46.5t-39.5 -129.5q0 -84 39.5 -130.5t102.5 -46.5z" />
    <glyph glyph-name="multiply" unicode="&#xd7;" horiz-adv-x="438" 
d="M406 338l-107 -107l107 -107l-80 -80l-107 107l-107 -107l-80 80l107 107l-107 107l80 80l107 -107l107 107z" />
    <glyph glyph-name="Oslash" unicode="&#xd8;" horiz-adv-x="718" 
d="M597 578q93 -91 93 -247q0 -155 -91.5 -246.5t-239.5 -91.5q-68 0 -126 20l-37 -57h-136l74 115q-106 92 -106 260q0 154 91.5 245.5t239.5 91.5q79 0 144 -27l30 47h135zM217 331q0 -60 20 -100l173 267q-24 9 -51 9q-63 0 -102.5 -46.5t-39.5 -129.5zM359 154
q63 0 102.5 46.5t39.5 130.5q0 46 -12 79l-163 -252q15 -4 33 -4z" />
    <glyph glyph-name="Ugrave" unicode="&#xd9;" horiz-adv-x="674" 
d="M255 696l-112 139h222l60 -132zM438 660h187v-395q0 -125 -79 -199t-208 -74q-131 0 -210.5 74t-79.5 199l1 395h187v-395q0 -52 28 -82t74 -30q45 0 72.5 30t27.5 82v395z" />
    <glyph glyph-name="Uacute" unicode="&#xda;" horiz-adv-x="674" 
d="M408 703l-170 -7l60 139h222zM438 660h187v-395q0 -125 -79 -199t-208 -74q-131 0 -210.5 74t-79.5 199l1 395h187v-395q0 -52 28 -82t74 -30q45 0 72.5 30t27.5 82v395z" />
    <glyph glyph-name="Ucircumflex" unicode="&#xdb;" horiz-adv-x="674" 
d="M431 845l90 -149l-125 5l-57 50l-57 -50l-125 -5l90 149h184zM438 660h187v-395q0 -125 -79 -199t-208 -74q-131 0 -210.5 74t-79.5 199l1 395h187v-395q0 -52 28 -82t74 -30q45 0 72.5 30t27.5 82v395z" />
    <glyph glyph-name="Udieresis" unicode="&#xdc;" horiz-adv-x="674" 
d="M232 700q-34 0 -58 23.5t-24 57.5t24 58t58 24t57.5 -24t23.5 -58t-23.5 -57.5t-57.5 -23.5zM451 700q-34 0 -58 23.5t-24 57.5t24 58t58 24t57.5 -24t23.5 -58t-23.5 -57.5t-57.5 -23.5zM438 660h187v-395q0 -125 -79 -199t-208 -74q-131 0 -210.5 74t-79.5 199l1 395
h187v-395q0 -52 28 -82t74 -30q45 0 72.5 30t27.5 82v395z" />
    <glyph glyph-name="Yacute" unicode="&#xdd;" horiz-adv-x="611" 
d="M490 835l-112 -132l-170 -7l60 139h222zM617 660l-218 -422v-238h-187v237l-219 423h202l81 -187q23 -55 30 -81h4q8 32 29 81l80 187h198z" />
    <glyph glyph-name="Thorn" unicode="&#xde;" horiz-adv-x="630" 
d="M320 572q138 0 215 -60.5t77 -182.5q0 -119 -76 -181t-191 -62h-102v-86h-187v660h187v-88h77zM306 229q117 0 117 100q0 46 -31.5 73t-92.5 27h-56v-200h63z" />
    <glyph glyph-name="germandbls" unicode="&#xdf;" horiz-adv-x="600" 
d="M451 356q127 -45 127 -183q0 -89 -51 -135t-144 -46q-32 0 -59.5 2t-39.5 4l-12 3l16 142q15 -6 44 -6q64 0 64 69q0 33 -22.5 52t-59.5 19h-47v146h10q28 0 44.5 22t16.5 58q0 31 -16.5 50.5t-42.5 19.5q-25 0 -40.5 -18t-15.5 -48v-507h-180v500q0 96 63.5 155
t166.5 59q111 0 179 -57t68 -150q0 -97 -69 -151z" />
    <glyph glyph-name="agrave" unicode="&#xe0;" horiz-adv-x="551" 
d="M349 535l-163 -7l-112 181h215zM529 135l6 -131q-34 -10 -82 -10q-105 0 -128 70h-2q-35 -70 -140 -70q-75 0 -117.5 34.5t-42.5 94.5q0 38 17 65.5t42 43.5t67 26t77.5 14t87.5 7v13q0 26 -15 41.5t-43 15.5q-58 0 -58 -37q0 -6 3 -11l-152 -26q-7 22 -7 51
q0 70 59.5 111t162.5 41q111 0 167.5 -51t56.5 -147v-123q0 -25 24 -25q8 0 17 3zM239 119q33 0 54 13.5t21 37.5v32q-85 -7 -104 -19q-15 -11 -16 -28q0 -18 13 -27t32 -9z" />
    <glyph glyph-name="aacute" unicode="&#xe1;" horiz-adv-x="551" 
d="M444 709l-112 -174l-159 -7l60 181h211zM529 135l6 -131q-34 -10 -82 -10q-105 0 -128 70h-2q-35 -70 -140 -70q-75 0 -117.5 34.5t-42.5 94.5q0 38 17 65.5t42 43.5t67 26t77.5 14t87.5 7v13q0 26 -15 41.5t-43 15.5q-58 0 -58 -37q0 -6 3 -11l-152 -26q-7 22 -7 51
q0 70 59.5 111t162.5 41q111 0 167.5 -51t56.5 -147v-123q0 -25 24 -25q8 0 17 3zM239 119q33 0 54 13.5t21 37.5v32q-85 -7 -104 -19q-15 -11 -16 -28q0 -18 13 -27t32 -9z" />
    <glyph glyph-name="acircumflex" unicode="&#xe2;" horiz-adv-x="551" 
d="M265 603l-57 -70l-125 -5l90 179h184l90 -179l-125 5zM529 135l6 -131q-34 -10 -82 -10q-105 0 -128 70h-2q-35 -70 -140 -70q-75 0 -117.5 34.5t-42.5 94.5q0 38 17 65.5t42 43.5t67 26t77.5 14t87.5 7v13q0 26 -15 41.5t-43 15.5q-58 0 -58 -37q0 -6 3 -11l-152 -26
q-7 22 -7 51q0 70 59.5 111t162.5 41q111 0 167.5 -51t56.5 -147v-123q0 -25 24 -25q8 0 17 3zM239 119q33 0 54 13.5t21 37.5v32q-85 -7 -104 -19q-15 -11 -16 -28q0 -18 13 -27t32 -9z" />
    <glyph glyph-name="atilde" unicode="&#xe3;" horiz-adv-x="551" 
d="M164 518h-110q-6 25 -6 56q0 51 33.5 83.5t86.5 32.5q45 0 97 -23.5t62 -23.5q22 0 22 25l-5 36h108q6 -25 6 -56q0 -51 -33.5 -83t-87.5 -32q-33 0 -80 25.5t-63 25.5t-25.5 -10t-9.5 -26zM529 135l6 -131q-34 -10 -82 -10q-105 0 -128 70h-2q-35 -70 -140 -70
q-75 0 -117.5 34.5t-42.5 94.5q0 38 17 65.5t42 43.5t67 26t77.5 14t87.5 7v13q0 26 -15 41.5t-43 15.5q-58 0 -58 -37q0 -6 3 -11l-152 -26q-7 22 -7 51q0 70 59.5 111t162.5 41q111 0 167.5 -51t56.5 -147v-123q0 -25 24 -25q8 0 17 3zM239 119q33 0 54 13.5t21 37.5v32
q-85 -7 -104 -19q-15 -11 -16 -28q0 -18 13 -27t32 -9z" />
    <glyph glyph-name="adieresis" unicode="&#xe4;" horiz-adv-x="551" 
d="M159 530q-35 0 -60 24.5t-25 58.5q0 35 25 59.5t60 24.5q34 0 58.5 -24.5t24.5 -59.5t-24 -59t-59 -24zM376 530q-35 0 -59.5 24.5t-24.5 58.5q0 35 25 59.5t59 24.5q35 0 59.5 -24.5t24.5 -59.5t-24.5 -59t-59.5 -24zM529 135l6 -131q-34 -10 -82 -10q-105 0 -128 70h-2
q-35 -70 -140 -70q-75 0 -117.5 34.5t-42.5 94.5q0 38 17 65.5t42 43.5t67 26t77.5 14t87.5 7v13q0 26 -15 41.5t-43 15.5q-58 0 -58 -37q0 -6 3 -11l-152 -26q-7 22 -7 51q0 70 59.5 111t162.5 41q111 0 167.5 -51t56.5 -147v-123q0 -25 24 -25q8 0 17 3zM239 119
q33 0 54 13.5t21 37.5v32q-85 -7 -104 -19q-15 -11 -16 -28q0 -18 13 -27t32 -9z" />
    <glyph glyph-name="aring" unicode="&#xe5;" horiz-adv-x="551" 
d="M264 515q-43 0 -75.5 30t-32.5 72t32.5 72t75.5 30t75.5 -30t32.5 -72t-32.5 -72t-75.5 -30zM264 647q-13 0 -21.5 -8.5t-8.5 -21.5t8.5 -21.5t21.5 -8.5t21.5 8.5t8.5 21.5t-8.5 21.5t-21.5 8.5zM529 135l6 -131q-34 -10 -82 -10q-105 0 -128 70h-2q-35 -70 -140 -70
q-75 0 -117.5 34.5t-42.5 94.5q0 38 17 65.5t42 43.5t67 26t77.5 14t87.5 7v13q0 26 -15 41.5t-43 15.5q-58 0 -58 -37q0 -6 3 -11l-152 -26q-7 22 -7 51q0 70 59.5 111t162.5 41q111 0 167.5 -51t56.5 -147v-123q0 -25 24 -25q8 0 17 3zM239 119q33 0 54 13.5t21 37.5v32
q-85 -7 -104 -19q-15 -11 -16 -28q0 -18 13 -27t32 -9z" />
    <glyph glyph-name="ae" unicode="&#xe6;" horiz-adv-x="810" 
d="M711 171l75 -98q-21 -28 -75 -53.5t-134 -25.5q-133 0 -200 86h-4q-16 -32 -63.5 -59t-126.5 -27q-75 0 -117.5 34.5t-42.5 94.5q0 38 17 65.5t42 43.5t67 26t77.5 14t87.5 7v13q0 26 -15 41.5t-43 15.5q-58 0 -58 -37q0 -6 3 -11l-152 -26q-7 22 -7 51q0 70 59.5 111
t162.5 41q93 0 149 -51q66 51 149 51q102 0 161 -61.5t59 -162.5l-5 -55h-293q21 -74 105 -74q34 0 61.5 9.5t36.5 16t24 20.5zM556 347q-66 0 -77 -70h146q-2 30 -19.5 50t-49.5 20zM239 119q32 0 54 19t22 47v17q-86 -7 -105 -19q-16 -10 -16 -28t13 -27t32 -9z" />
    <glyph glyph-name="ccedilla" unicode="&#xe7;" horiz-adv-x="502" 
d="M490 75q-17 -25 -66.5 -51.5t-124.5 -29.5l-9 -18q33 -4 55.5 -26.5t22.5 -62.5q0 -47 -36 -72.5t-85 -25.5q-32 0 -60 11.5t-41 23.5l-12 11l41 67q28 -30 69 -30q35 0 35 26q0 37 -84 37l28 64q-96 15 -148 79t-52 157q0 109 69 176t182 67q93 0 146 -48.5t53 -122.5
l-4 -37l-155 -8q2 8 2 17q0 22 -11.5 37.5t-35.5 15.5q-29 0 -46.5 -25t-17.5 -65q0 -103 91 -103q39 0 70.5 16.5t43.5 31.5z" />
    <glyph glyph-name="egrave" unicode="&#xe8;" horiz-adv-x="518" 
d="M355 535l-163 -7l-112 181h215zM419 171l75 -98q-21 -28 -75 -53.5t-134 -25.5q-123 0 -192.5 67t-69.5 175q0 107 68 174.5t179 67.5q102 0 161 -61.5t59 -162.5l-5 -55h-283q23 -74 106 -74q29 0 54 9.5t33 16t24 20.5zM270 347q-62 0 -73 -70h136q-2 29 -18 49.5
t-45 20.5z" />
    <glyph glyph-name="eacute" unicode="&#xe9;" horiz-adv-x="518" 
d="M450 709l-112 -174l-159 -7l60 181h211zM419 171l75 -98q-21 -28 -75 -53.5t-134 -25.5q-123 0 -192.5 67t-69.5 175q0 107 68 174.5t179 67.5q102 0 161 -61.5t59 -162.5l-5 -55h-283q23 -74 106 -74q29 0 54 9.5t33 16t24 20.5zM270 347q-62 0 -73 -70h136
q-2 29 -18 49.5t-45 20.5z" />
    <glyph glyph-name="ecircumflex" unicode="&#xea;" horiz-adv-x="518" 
d="M271 603l-57 -70l-125 -5l90 179h184l90 -179l-125 5zM419 171l75 -98q-21 -28 -75 -53.5t-134 -25.5q-123 0 -192.5 67t-69.5 175q0 107 68 174.5t179 67.5q102 0 161 -61.5t59 -162.5l-5 -55h-283q23 -74 106 -74q29 0 54 9.5t33 16t24 20.5zM270 347q-62 0 -73 -70
h136q-2 29 -18 49.5t-45 20.5z" />
    <glyph glyph-name="edieresis" unicode="&#xeb;" horiz-adv-x="518" 
d="M165 530q-35 0 -60 24.5t-25 58.5q0 35 25 59.5t60 24.5q34 0 58.5 -24.5t24.5 -59.5t-24 -59t-59 -24zM382 530q-35 0 -59.5 24.5t-24.5 58.5q0 35 25 59.5t59 24.5q35 0 59.5 -24.5t24.5 -59.5t-24.5 -59t-59.5 -24zM419 171l75 -98q-21 -28 -75 -53.5t-134 -25.5
q-123 0 -192.5 67t-69.5 175q0 107 68 174.5t179 67.5q102 0 161 -61.5t59 -162.5l-5 -55h-283q23 -74 106 -74q29 0 54 9.5t33 16t24 20.5zM270 347q-62 0 -73 -70h136q-2 29 -18 49.5t-45 20.5z" />
    <glyph glyph-name="igrave" unicode="&#xec;" horiz-adv-x="266" 
d="M50 528l-112 181h215l60 -174zM43 0v472l180 5v-477h-180z" />
    <glyph glyph-name="iacute" unicode="&#xed;" horiz-adv-x="266" 
d="M213 535l-159 -7l60 181h211zM43 0v472l180 5v-477h-180z" />
    <glyph glyph-name="icircumflex" unicode="&#xee;" horiz-adv-x="266" 
d="M-58 528l90 179h184l90 -179l-125 5l-57 70l-57 -70zM43 0v472l180 5v-477h-180z" />
    <glyph glyph-name="idieresis" unicode="&#xef;" horiz-adv-x="266" 
d="M18 530q-35 0 -60 24.5t-25 58.5q0 35 25 59.5t60 24.5q34 0 58.5 -24.5t24.5 -59.5t-24.5 -59t-58.5 -24zM235 530q-35 0 -59.5 24.5t-24.5 58.5q0 35 24.5 59.5t59.5 24.5t59.5 -24.5t24.5 -59.5t-24.5 -59t-59.5 -24zM43 0v472l180 5v-477h-180z" />
    <glyph glyph-name="eth" unicode="&#xf0;" horiz-adv-x="576" 
d="M406 636q68 -52 105 -136.5t37 -190.5q0 -149 -69 -232t-211 -83q-115 0 -180 67t-65 160q0 106 61.5 171t162.5 65q81 0 121 -45q-19 80 -78 127l-85 -72l-60 71l52 43q-37 10 -89 10l80 118q69 -1 132 -25l86 72l59 -70zM284 140q42 0 67 25.5t26 67.5q0 35 -25.5 56.5
t-66.5 21.5t-66.5 -23.5t-25.5 -62.5q0 -38 25 -61.5t66 -23.5z" />
    <glyph glyph-name="ntilde" unicode="&#xf1;" horiz-adv-x="565" 
d="M185 518h-110q-6 25 -6 56q0 51 33.5 83.5t86.5 32.5q45 0 97 -23.5t62 -23.5q22 0 22 25l-5 36h108q6 -25 6 -56q0 -51 -33.5 -83t-87.5 -32q-33 0 -80 25.5t-63 25.5t-25.5 -10t-9.5 -26zM356 478q85 0 127.5 -52.5t42.5 -134.5v-291h-180v245q0 76 -60 76
q-31 0 -47 -22t-16 -57v-242h-180v472l148 5q21 -45 21 -89h4q36 90 140 90z" />
    <glyph glyph-name="ograve" unicode="&#xf2;" horiz-adv-x="552" 
d="M198 528l-112 181h215l60 -174zM276 478q114 0 183.5 -67t69.5 -174t-69.5 -175t-183.5 -68t-183.5 68t-69.5 175t69.5 174t183.5 67zM276 140q34 0 52.5 26.5t18.5 70.5t-18.5 69.5t-52.5 25.5t-52.5 -25.5t-18.5 -69.5t18.5 -70.5t52.5 -26.5z" />
    <glyph glyph-name="oacute" unicode="&#xf3;" horiz-adv-x="552" 
d="M344 535l-159 -7l60 181h211zM276 478q114 0 183.5 -67t69.5 -174t-69.5 -175t-183.5 -68t-183.5 68t-69.5 175t69.5 174t183.5 67zM276 140q34 0 52.5 26.5t18.5 70.5t-18.5 69.5t-52.5 25.5t-52.5 -25.5t-18.5 -69.5t18.5 -70.5t52.5 -26.5z" />
    <glyph glyph-name="ocircumflex" unicode="&#xf4;" horiz-adv-x="552" 
d="M95 528l90 179h184l90 -179l-125 5l-57 70l-57 -70zM276 478q114 0 183.5 -67t69.5 -174t-69.5 -175t-183.5 -68t-183.5 68t-69.5 175t69.5 174t183.5 67zM276 140q34 0 52.5 26.5t18.5 70.5t-18.5 69.5t-52.5 25.5t-52.5 -25.5t-18.5 -69.5t18.5 -70.5t52.5 -26.5z" />
    <glyph glyph-name="otilde" unicode="&#xf5;" horiz-adv-x="552" 
d="M464 704q6 -25 6 -56q0 -51 -33.5 -83t-87.5 -32q-33 0 -80 25.5t-63 25.5t-25.5 -10t-9.5 -26l5 -30h-110q-6 25 -6 56q0 51 33.5 83.5t86.5 32.5q45 0 97 -23.5t62 -23.5q22 0 22 25l-5 36h108zM276 478q114 0 183.5 -67t69.5 -174t-69.5 -175t-183.5 -68t-183.5 68
t-69.5 175t69.5 174t183.5 67zM276 140q34 0 52.5 26.5t18.5 70.5t-18.5 69.5t-52.5 25.5t-52.5 -25.5t-18.5 -69.5t18.5 -70.5t52.5 -26.5z" />
    <glyph glyph-name="odieresis" unicode="&#xf6;" horiz-adv-x="552" 
d="M171 530q-35 0 -60 24.5t-25 58.5q0 35 25 59.5t60 24.5q34 0 58.5 -24.5t24.5 -59.5t-24 -59t-59 -24zM388 530q-35 0 -59.5 24.5t-24.5 58.5q0 35 25 59.5t59 24.5q35 0 59.5 -24.5t24.5 -59.5t-24.5 -59t-59.5 -24zM276 478q114 0 183.5 -67t69.5 -174t-69.5 -175
t-183.5 -68t-183.5 68t-69.5 175t69.5 174t183.5 67zM276 140q34 0 52.5 26.5t18.5 70.5t-18.5 69.5t-52.5 25.5t-52.5 -25.5t-18.5 -69.5t18.5 -70.5t52.5 -26.5z" />
    <glyph glyph-name="divide" unicode="&#xf7;" horiz-adv-x="439" 
d="M144 404q0 32 22 54.5t54 22.5t54 -22.5t22 -54.5t-22 -54t-54 -22t-54 22t-22 54zM26 181v110h387v-110h-387zM144 68q0 32 22 54.5t54 22.5t54 -22.5t22 -54.5t-22 -54t-54 -22t-54 22t-22 54z" />
    <glyph glyph-name="oslash" unicode="&#xf8;" horiz-adv-x="552" 
d="M444 424q85 -68 85 -187q0 -107 -69.5 -175t-183.5 -68q-56 0 -102 17l-28 -42h-90l52 79q-85 69 -85 189q0 107 69.5 174t183.5 67q55 0 103 -17l21 32h89zM205 237q0 -21 4 -36l84 129q-10 2 -17 2q-34 0 -52.5 -25.5t-18.5 -69.5zM276 140q34 0 52.5 26.5t18.5 70.5
q0 19 -3 34l-85 -129q10 -2 17 -2z" />
    <glyph glyph-name="ugrave" unicode="&#xf9;" horiz-adv-x="561" 
d="M364 535l-163 -7l-112 181h215zM338 472h180v-472l-152 -5q-17 55 -17 89h-2q-36 -90 -138 -90q-85 0 -127.5 52.5t-42.5 134.5v291h180v-245q0 -76 60 -76q29 0 44 22.5t15 56.5v242z" />
    <glyph glyph-name="uacute" unicode="&#xfa;" horiz-adv-x="561" 
d="M459 709l-112 -174l-159 -7l60 181h211zM338 472h180v-472l-152 -5q-17 55 -17 89h-2q-36 -90 -138 -90q-85 0 -127.5 52.5t-42.5 134.5v291h180v-245q0 -76 60 -76q29 0 44 22.5t15 56.5v242z" />
    <glyph glyph-name="ucircumflex" unicode="&#xfb;" horiz-adv-x="561" 
d="M280 603l-57 -70l-125 -5l90 179h184l90 -179l-125 5zM338 472h180v-472l-152 -5q-17 55 -17 89h-2q-36 -90 -138 -90q-85 0 -127.5 52.5t-42.5 134.5v291h180v-245q0 -76 60 -76q29 0 44 22.5t15 56.5v242z" />
    <glyph glyph-name="udieresis" unicode="&#xfc;" horiz-adv-x="561" 
d="M174 530q-35 0 -60 24.5t-25 58.5q0 35 25 59.5t60 24.5q34 0 58.5 -24.5t24.5 -59.5t-24.5 -59t-58.5 -24zM391 530q-35 0 -59.5 24.5t-24.5 58.5q0 35 24.5 59.5t59.5 24.5t59.5 -24.5t24.5 -59.5t-24.5 -59t-59.5 -24zM338 472h180v-472l-152 -5q-17 55 -17 89h-2
q-36 -90 -138 -90q-85 0 -127.5 52.5t-42.5 134.5v291h180v-245q0 -76 60 -76q29 0 44 22.5t15 56.5v242z" />
    <glyph glyph-name="yacute" unicode="&#xfd;" horiz-adv-x="533" 
d="M339 535l-159 -7l60 181h211zM351 -44q-28 -75 -83.5 -120.5t-138.5 -45.5q-28 0 -53.5 5.5t-37.5 10.5l-11 6l24 132q29 -15 62 -15q55 0 78 40l2 3l-191 500h190l67 -235q8 -31 14 -72h4q10 56 14 72l60 235h180z" />
    <glyph glyph-name="thorn" unicode="&#xfe;" horiz-adv-x="575" 
d="M355 478q90 0 142.5 -68t52.5 -174q0 -116 -58.5 -179t-145.5 -63q-82 0 -122 50v-248h-180v910h176l1 -299h1q40 71 133 71zM298 145q32 0 51 24.5t19 66.5t-19 66.5t-51 24.5q-29 0 -51.5 -19.5t-22.5 -49.5v-43q0 -27 22 -48.5t52 -21.5z" />
    <glyph glyph-name="ydieresis" unicode="&#xff;" horiz-adv-x="533" 
d="M166 530q-35 0 -60 24.5t-25 58.5q0 35 25 59.5t60 24.5q34 0 58.5 -24.5t24.5 -59.5t-24.5 -59t-58.5 -24zM383 530q-35 0 -59.5 24.5t-24.5 58.5q0 35 24.5 59.5t59.5 24.5t59.5 -24.5t24.5 -59.5t-24.5 -59t-59.5 -24zM351 -44q-28 -75 -83.5 -120.5t-138.5 -45.5
q-28 0 -53.5 5.5t-37.5 10.5l-11 6l24 132q29 -15 62 -15q55 0 78 40l2 3l-191 500h190l67 -235q8 -31 14 -72h4q10 56 14 72l60 235h180z" />
    <glyph glyph-name="Amacron" unicode="&#x100;" horiz-adv-x="637" 
d="M506 828v-119h-358v119h358zM454 0l-33 121h-203l-34 -121h-191l222 660h208l220 -660h-189zM255 255h129l-44 159q-14 53 -18 80h-4q-2 -16 -19 -81z" />
    <glyph glyph-name="amacron" unicode="&#x101;" horiz-adv-x="551" 
d="M436 674v-119h-338v119h338zM529 135l6 -131q-34 -10 -82 -10q-105 0 -128 70h-2q-35 -70 -140 -70q-75 0 -117.5 34.5t-42.5 94.5q0 38 17 65.5t42 43.5t67 26t77.5 14t87.5 7v13q0 26 -15 41.5t-43 15.5q-58 0 -58 -37q0 -6 3 -11l-152 -26q-7 22 -7 51q0 70 59.5 111
t162.5 41q111 0 167.5 -51t56.5 -147v-123q0 -25 24 -25q8 0 17 3zM239 119q33 0 54 13.5t21 37.5v32q-85 -7 -104 -19q-15 -11 -16 -28q0 -18 13 -27t32 -9z" />
    <glyph glyph-name="Abreve" unicode="&#x102;" horiz-adv-x="637" 
d="M324 692q-76 0 -124 44t-48 112h125q0 -50 46 -50q45 0 45 50h126q0 -68 -47.5 -112t-122.5 -44zM454 0l-33 121h-203l-34 -121h-191l222 660h208l220 -660h-189zM255 255h129l-44 159q-14 53 -18 80h-4q-2 -16 -19 -81z" />
    <glyph glyph-name="abreve" unicode="&#x103;" horiz-adv-x="551" 
d="M264 526q-77 0 -124.5 46.5t-47.5 126.5h125q0 -37 11 -52t35 -15t34.5 15t10.5 52h126q0 -80 -47 -126.5t-123 -46.5zM529 135l6 -131q-34 -10 -82 -10q-105 0 -128 70h-2q-35 -70 -140 -70q-75 0 -117.5 34.5t-42.5 94.5q0 38 17 65.5t42 43.5t67 26t77.5 14t87.5 7v13
q0 26 -15 41.5t-43 15.5q-58 0 -58 -37q0 -6 3 -11l-152 -26q-7 22 -7 51q0 70 59.5 111t162.5 41q111 0 167.5 -51t56.5 -147v-123q0 -25 24 -25q8 0 17 3zM239 119q33 0 54 13.5t21 37.5v32q-85 -7 -104 -19q-15 -11 -16 -28q0 -18 13 -27t32 -9z" />
    <glyph glyph-name="Aogonek" unicode="&#x104;" horiz-adv-x="637" 
d="M662 -91l41 -75q-5 -6 -14 -14t-38.5 -22t-61.5 -14q-50 0 -80.5 28t-30.5 72q0 70 62 116h-86l-33 121h-203l-34 -121h-191l222 660h208l220 -660q-8 -4 -19.5 -10.5t-30.5 -28.5t-19 -45q0 -20 10.5 -30.5t27.5 -10.5q16 0 28.5 8.5t17.5 16.5zM255 255h129l-44 159
q-14 53 -18 80h-4q-2 -16 -19 -81z" />
    <glyph glyph-name="aogonek" unicode="&#x105;" horiz-adv-x="551" 
d="M554 -87l41 -75q-5 -6 -14 -14t-38.5 -22t-61.5 -14q-50 0 -80.5 28t-30.5 72q0 62 52 108q-77 8 -97 68h-2q-35 -70 -140 -70q-75 0 -117.5 34.5t-42.5 94.5q0 38 17 65.5t42 43.5t67 26t77.5 14t87.5 7v13q0 26 -15 41.5t-43 15.5q-58 0 -58 -37q0 -6 3 -11l-152 -26
q-7 22 -7 51q0 70 59.5 111t162.5 41q111 0 167.5 -51t56.5 -147v-123q0 -25 24 -25q8 0 17 3l6 -131q-8 -4 -19.5 -10.5t-30.5 -28.5t-19 -45q0 -20 10.5 -30.5t27.5 -10.5q16 0 28.5 8.5t17.5 16.5zM239 119q33 0 54 13.5t21 37.5v32q-85 -7 -104 -19q-15 -11 -16 -28
q0 -18 13 -27t32 -9z" />
    <glyph glyph-name="Cacute" unicode="&#x106;" horiz-adv-x="659" 
d="M420 703l-170 -7l60 139h222zM350 668q75 0 132.5 -23.5t90 -63t48.5 -85t16 -94.5l-172 -26q0 52 -27.5 91.5t-84.5 39.5q-59 0 -97.5 -48.5t-38.5 -128.5q0 -89 45.5 -133t112.5 -44q93 0 156 88l110 -116q-38 -53 -105 -93t-166 -40q-155 0 -248.5 91.5t-93.5 246.5
q0 154 90 246t232 92z" />
    <glyph glyph-name="cacute" unicode="&#x107;" horiz-adv-x="502" 
d="M342 535l-159 -7l60 181h211zM274 478q93 0 146 -48.5t53 -122.5l-4 -37l-155 -8q2 8 2 17q0 22 -11.5 37.5t-35.5 15.5q-29 0 -46.5 -25t-17.5 -65q0 -103 91 -103q39 0 70.5 16.5t43.5 31.5l80 -112q-19 -27 -72.5 -54t-135.5 -27q-123 0 -191 67t-68 174q0 109 69 176
t182 67z" />
    <glyph glyph-name="Ccircumflex" unicode="&#x108;" horiz-adv-x="659" 
d="M443 845l90 -149l-125 5l-57 50l-57 -50l-125 -5l90 149h184zM350 668q75 0 132.5 -23.5t90 -63t48.5 -85t16 -94.5l-172 -26q0 52 -27.5 91.5t-84.5 39.5q-59 0 -97.5 -48.5t-38.5 -128.5q0 -89 45.5 -133t112.5 -44q93 0 156 88l110 -116q-38 -53 -105 -93t-166 -40
q-155 0 -248.5 91.5t-93.5 246.5q0 154 90 246t232 92z" />
    <glyph glyph-name="ccircumflex" unicode="&#x109;" horiz-adv-x="502" 
d="M93 528l90 179h184l90 -179l-125 5l-57 70l-57 -70zM274 478q93 0 146 -48.5t53 -122.5l-4 -37l-155 -8q2 8 2 17q0 22 -11.5 37.5t-35.5 15.5q-29 0 -46.5 -25t-17.5 -65q0 -103 91 -103q39 0 70.5 16.5t43.5 31.5l80 -112q-19 -27 -72.5 -54t-135.5 -27q-123 0 -191 67
t-68 174q0 109 69 176t182 67z" />
    <glyph glyph-name="Cdotaccent" unicode="&#x10a;" horiz-adv-x="659" 
d="M349 693q-43 0 -72.5 27.5t-29.5 69.5t29.5 70t72.5 28t73 -28t30 -70t-30 -69.5t-73 -27.5zM350 668q75 0 132.5 -23.5t90 -63t48.5 -85t16 -94.5l-172 -26q0 52 -27.5 91.5t-84.5 39.5q-59 0 -97.5 -48.5t-38.5 -128.5q0 -89 45.5 -133t112.5 -44q93 0 156 88l110 -116
q-38 -53 -105 -93t-166 -40q-155 0 -248.5 91.5t-93.5 246.5q0 154 90 246t232 92z" />
    <glyph glyph-name="cdotaccent" unicode="&#x10b;" horiz-adv-x="502" 
d="M388 621q0 -47 -32.5 -77t-80.5 -30t-80 30t-32 77t32 77.5t80 30.5t80.5 -30.5t32.5 -77.5zM274 478q93 0 146 -48.5t53 -122.5l-4 -37l-155 -8q2 8 2 17q0 22 -11.5 37.5t-35.5 15.5q-29 0 -46.5 -25t-17.5 -65q0 -103 91 -103q39 0 70.5 16.5t43.5 31.5l80 -112
q-19 -27 -72.5 -54t-135.5 -27q-123 0 -191 67t-68 174q0 109 69 176t182 67z" />
    <glyph glyph-name="Ccaron" unicode="&#x10c;" horiz-adv-x="659" 
d="M169 850l125 -5l57 -50l57 50l125 5l-90 -149h-184zM350 668q75 0 132.5 -23.5t90 -63t48.5 -85t16 -94.5l-172 -26q0 52 -27.5 91.5t-84.5 39.5q-59 0 -97.5 -48.5t-38.5 -128.5q0 -89 45.5 -133t112.5 -44q93 0 156 88l110 -116q-38 -53 -105 -93t-166 -40
q-155 0 -248.5 91.5t-93.5 246.5q0 154 90 246t232 92z" />
    <glyph glyph-name="ccaron" unicode="&#x10d;" horiz-adv-x="502" 
d="M93 707l125 -5l57 -70l57 70l125 5l-90 -179h-184zM274 478q93 0 146 -48.5t53 -122.5l-4 -37l-155 -8q2 8 2 17q0 22 -11.5 37.5t-35.5 15.5q-29 0 -46.5 -25t-17.5 -65q0 -103 91 -103q39 0 70.5 16.5t43.5 31.5l80 -112q-19 -27 -72.5 -54t-135.5 -27q-123 0 -191 67
t-68 174q0 109 69 176t182 67z" />
    <glyph glyph-name="Dcaron" unicode="&#x10e;" horiz-adv-x="668" 
d="M378 701h-184l-90 149l125 -5l57 -50l57 50l125 5zM314 660q156 0 240.5 -90.5t84.5 -238.5q0 -156 -76.5 -243.5t-221.5 -87.5h-285v660h258zM310 144q71 0 105.5 43.5t34.5 143.5q0 185 -168 185h-39v-372h67z" />
    <glyph glyph-name="dcaron" unicode="&#x10f;" horiz-adv-x="645" 
d="M639 719q34 0 59 -23t25 -68q0 -39 -10 -73.5t-24.5 -55.5t-29.5 -36t-25 -21l-10 -7l-39 56q57 45 57 78q-33 0 -55 21.5t-22 53.5q0 31 21.5 53t52.5 22zM351 428v278h180v-706l-153 -5q-16 52 -16 79h-3q-40 -80 -139 -80q-90 0 -142.5 67t-52.5 170q0 118 60 182.5
t144 64.5q82 0 122 -50zM277 145q29 0 51.5 19.5t22.5 49.5v43q0 27 -22 48.5t-52 21.5q-32 0 -51 -25.5t-19 -70.5q0 -39 19 -62.5t51 -23.5z" />
    <glyph glyph-name="Dcroat" unicode="&#x110;" horiz-adv-x="668" 
d="M314 660q156 0 240.5 -90.5t84.5 -238.5q0 -156 -76.5 -243.5t-221.5 -87.5h-285v283h-94v100h94v277h258zM310 144q71 0 105.5 43.5t34.5 143.5q0 185 -168 185h-39v-133h150v-100h-150v-139h67z" />
    <glyph glyph-name="dcroat" unicode="&#x111;" horiz-adv-x="574" 
d="M597 636v-90h-66v-546l-153 -5q-16 52 -16 79h-3q-40 -80 -139 -80q-90 0 -142.5 67t-52.5 170q0 118 60 182.5t144 64.5q82 0 122 -50v118h-115v90h115v70h180v-70h66zM277 145q29 0 51.5 19.5t22.5 49.5v43q0 27 -22 48.5t-52 21.5q-32 0 -51 -25.5t-19 -70.5
q0 -39 19 -62.5t51 -23.5z" />
    <glyph glyph-name="Emacron" unicode="&#x112;" horiz-adv-x="557" 
d="M469 828v-119h-358v119h358zM519 508h-276v-108h232v-141h-232v-107h276v-152h-463v660h463v-152z" />
    <glyph glyph-name="emacron" unicode="&#x113;" horiz-adv-x="518" 
d="M442 674v-119h-338v119h338zM419 171l75 -98q-21 -28 -75 -53.5t-134 -25.5q-123 0 -192.5 67t-69.5 175q0 107 68 174.5t179 67.5q102 0 161 -61.5t59 -162.5l-5 -55h-283q23 -74 106 -74q29 0 54 9.5t33 16t24 20.5zM270 347q-62 0 -73 -70h136q-2 29 -18 49.5
t-45 20.5z" />
    <glyph glyph-name="Ebreve" unicode="&#x114;" horiz-adv-x="557" 
d="M287 692q-76 0 -124 44t-48 112h125q0 -50 46 -50q45 0 45 50h126q0 -68 -47.5 -112t-122.5 -44zM519 508h-276v-108h232v-141h-232v-107h276v-152h-463v660h463v-152z" />
    <glyph glyph-name="ebreve" unicode="&#x115;" horiz-adv-x="518" 
d="M270 526q-77 0 -124.5 46.5t-47.5 126.5h125q0 -37 11 -52t35 -15t34.5 15t10.5 52h126q0 -80 -47 -126.5t-123 -46.5zM419 171l75 -98q-21 -28 -75 -53.5t-134 -25.5q-123 0 -192.5 67t-69.5 175q0 107 68 174.5t179 67.5q102 0 161 -61.5t59 -162.5l-5 -55h-283
q23 -74 106 -74q29 0 54 9.5t33 16t24 20.5zM270 347q-62 0 -73 -70h136q-2 29 -18 49.5t-45 20.5z" />
    <glyph glyph-name="Edotaccent" unicode="&#x116;" horiz-adv-x="557" 
d="M286 693q-43 0 -72.5 27.5t-29.5 69.5t29.5 70t72.5 28t73 -28t30 -70t-30 -69.5t-73 -27.5zM519 508h-276v-108h232v-141h-232v-107h276v-152h-463v660h463v-152z" />
    <glyph glyph-name="edotaccent" unicode="&#x117;" horiz-adv-x="518" 
d="M271 514q-48 0 -80 30t-32 77t32 77.5t80 30.5t80.5 -30.5t32.5 -77.5t-32.5 -77t-80.5 -30zM419 171l75 -98q-21 -28 -75 -53.5t-134 -25.5q-123 0 -192.5 67t-69.5 175q0 107 68 174.5t179 67.5q102 0 161 -61.5t59 -162.5l-5 -55h-283q23 -74 106 -74q29 0 54 9.5
t33 16t24 20.5zM270 347q-62 0 -73 -70h136q-2 29 -18 49.5t-45 20.5z" />
    <glyph glyph-name="Eogonek" unicode="&#x118;" horiz-adv-x="557" 
d="M538 -91l41 -75q-5 -6 -14 -14t-38.5 -22t-61.5 -14q-50 0 -80.5 28t-30.5 72q0 70 62 116h-360v660h463v-152h-276v-108h232v-141h-232v-107h276v-152q-8 -4 -19.5 -10.5t-30.5 -28.5t-19 -45q0 -20 10.5 -30.5t27.5 -10.5q16 0 28.5 8.5t17.5 16.5z" />
    <glyph glyph-name="eogonek" unicode="&#x119;" horiz-adv-x="518" 
d="M465 -58l41 -75q-5 -6 -14 -14t-38.5 -22t-61.5 -14q-50 0 -80.5 28t-30.5 72q0 43 24 77h-20q-123 0 -192.5 67t-69.5 175q0 107 68 174.5t179 67.5q102 0 161 -61.5t59 -162.5l-5 -55h-283q23 -74 106 -74q29 0 54 9.5t33 16t24 20.5l75 -98q-15 -21 -48 -40
q-1 0 -2 -1l-8 -4q-59 -37 -59 -79q0 -20 10.5 -30.5t27.5 -10.5q16 0 28.5 8.5t16.5 17.5zM270 347q-62 0 -73 -70h136q-2 29 -18 49.5t-45 20.5z" />
    <glyph glyph-name="Ecaron" unicode="&#x11a;" horiz-adv-x="557" 
d="M380 701h-184l-90 149l125 -5l57 -50l57 50l125 5zM519 508h-276v-108h232v-141h-232v-107h276v-152h-463v660h463v-152z" />
    <glyph glyph-name="ecaron" unicode="&#x11b;" horiz-adv-x="518" 
d="M363 528h-184l-90 179l125 -5l57 -70l57 70l125 5zM419 171l75 -98q-21 -28 -75 -53.5t-134 -25.5q-123 0 -192.5 67t-69.5 175q0 107 68 174.5t179 67.5q102 0 161 -61.5t59 -162.5l-5 -55h-283q23 -74 106 -74q29 0 54 9.5t33 16t24 20.5zM270 347q-62 0 -73 -70h136
q-2 29 -18 49.5t-45 20.5z" />
    <glyph glyph-name="Gcircumflex" unicode="&#x11c;" horiz-adv-x="680" 
d="M350 751l-57 -50l-125 -5l90 149h184l90 -149l-125 5zM641 318v-318h-131q-5 33 -7 58q-60 -66 -171 -66q-137 0 -220 91.5t-83 246.5q0 154 90 246t232 92q75 0 133 -23.5t90 -62t48 -82t16 -88.5l-172 -26q0 51 -27.5 86t-84.5 35q-59 0 -97.5 -48.5t-38.5 -128.5
q0 -84 40.5 -135.5t107.5 -51.5q102 0 115 73h-138v102h298z" />
    <glyph glyph-name="gcircumflex" unicode="&#x11d;" horiz-adv-x="529" 
d="M275 603l-57 -70l-125 -5l90 179h184l90 -179l-125 5zM319 94q93 0 150.5 -36t57.5 -110q0 -30 -11 -55t-38.5 -50t-83.5 -39t-135 -14q-127 0 -190.5 32t-63.5 84q0 67 79 91q-61 37 -61 96q0 73 74 96q-48 45 -48 115q0 77 60 125.5t157 48.5q71 0 123 -26q29 24 29 64
l117 -21q0 -40 -22 -66.5t-56 -33.5q28 -39 28 -91q0 -78 -60 -126t-159 -48q-47 0 -86 12q-27 -6 -27 -25q0 -13 9.5 -18t42.5 -5h114zM211 306q-1 -23 14.5 -38t40.5 -16q27 -1 43 13t18 37q1 23 -15 38t-42 16q-25 1 -41.5 -13t-17.5 -37zM259 -97q109 0 109 33
q0 30 -59 30h-74q-79 0 -79 -30q0 -33 103 -33z" />
    <glyph glyph-name="Gbreve" unicode="&#x11e;" horiz-adv-x="680" 
d="M349 692q-76 0 -124 44t-48 112h125q0 -50 46 -50q45 0 45 50h126q0 -68 -47.5 -112t-122.5 -44zM641 318v-318h-131q-5 33 -7 58q-60 -66 -171 -66q-137 0 -220 91.5t-83 246.5q0 154 90 246t232 92q75 0 133 -23.5t90 -62t48 -82t16 -88.5l-172 -26q0 51 -27.5 86
t-84.5 35q-59 0 -97.5 -48.5t-38.5 -128.5q0 -84 40.5 -135.5t107.5 -51.5q102 0 115 73h-138v102h298z" />
    <glyph glyph-name="gbreve" unicode="&#x11f;" horiz-adv-x="529" 
d="M274 526q-77 0 -124.5 46.5t-47.5 126.5h125q0 -37 11 -52t35 -15t34.5 15t10.5 52h126q0 -80 -47 -126.5t-123 -46.5zM319 94q93 0 150.5 -36t57.5 -110q0 -30 -11 -55t-38.5 -50t-83.5 -39t-135 -14q-127 0 -190.5 32t-63.5 84q0 67 79 91q-61 37 -61 96q0 73 74 96
q-48 45 -48 115q0 77 60 125.5t157 48.5q59 0 108 -19q44 26 44 117l127 -38q0 -44 -32 -79.5t-72 -43.5q44 -46 44 -111q0 -78 -60 -126t-159 -48q-47 0 -86 12q-27 -6 -27 -25q0 -13 9.5 -18t42.5 -5h114zM211 306q-1 -23 14.5 -38t40.5 -16q27 -1 43 13t18 37
q1 23 -15 38t-42 16q-25 1 -41.5 -13t-17.5 -37zM259 -97q109 0 109 33q0 30 -59 30h-74q-79 0 -79 -30q0 -33 103 -33z" />
    <glyph glyph-name="Gdotaccent" unicode="&#x120;" horiz-adv-x="680" 
d="M348 693q-43 0 -72.5 27.5t-29.5 69.5t29.5 70t72.5 28t73 -28t30 -70t-30 -69.5t-73 -27.5zM641 318v-318h-131q-5 33 -7 58q-60 -66 -171 -66q-137 0 -220 91.5t-83 246.5q0 154 90 246t232 92q75 0 133 -23.5t90 -62t48 -82t16 -88.5l-172 -26q0 51 -27.5 86t-84.5 35
q-59 0 -97.5 -48.5t-38.5 -128.5q0 -84 40.5 -135.5t107.5 -51.5q102 0 115 73h-138v102h298z" />
    <glyph glyph-name="gdotaccent" unicode="&#x121;" horiz-adv-x="529" 
d="M275 514q-48 0 -80 30t-32 77t32 77.5t80 30.5t80.5 -30.5t32.5 -77.5t-32.5 -77t-80.5 -30zM319 94q93 0 150.5 -36t57.5 -110q0 -30 -11 -55t-38.5 -50t-83.5 -39t-135 -14q-127 0 -190.5 32t-63.5 84q0 67 79 91q-61 37 -61 96q0 73 74 96q-48 45 -48 115
q0 77 60 125.5t157 48.5q59 0 108 -19q44 26 44 117l127 -38q0 -44 -32 -79.5t-72 -43.5q44 -46 44 -111q0 -78 -60 -126t-159 -48q-47 0 -86 12q-27 -6 -27 -25q0 -13 9.5 -18t42.5 -5h114zM211 306q-1 -23 14.5 -38t40.5 -16q27 -1 43 13t18 37q1 23 -15 38t-42 16
q-25 1 -41.5 -13t-17.5 -37zM259 -97q109 0 109 33q0 30 -59 30h-74q-79 0 -79 -30q0 -33 103 -33z" />
    <glyph glyph-name="Gcommaaccent" unicode="&#x122;" horiz-adv-x="680" 
d="M641 318v-318h-131q-5 33 -7 58q-60 -66 -171 -66q-137 0 -220 91.5t-83 246.5q0 154 90 246t232 92q75 0 133 -23.5t90 -62t48 -82t16 -88.5l-172 -26q0 51 -27.5 86t-84.5 35q-59 0 -97.5 -48.5t-38.5 -128.5q0 -84 40.5 -135.5t107.5 -51.5q102 0 115 73h-138v102h298
zM346 -40q37 0 63 -24.5t26 -69.5q0 -41 -12.5 -76.5t-30 -56.5t-35 -36t-29.5 -21l-13 -6l-38 60q8 4 19 11t30.5 24t19.5 30q-34 0 -58 23.5t-24 58.5t24 59t58 24z" />
    <glyph glyph-name="gcommaaccent" unicode="&#x123;" horiz-adv-x="529" 
d="M278 512q-37 0 -63 24.5t-26 69.5q0 41 12.5 76.5t30 56.5t35 36t29.5 21l13 6l38 -60q-8 -4 -19 -11t-30.5 -24t-19.5 -30q34 0 58 -23.5t24 -58.5t-24 -59t-58 -24zM319 94q93 0 150.5 -36t57.5 -110q0 -30 -11 -55t-38.5 -50t-83.5 -39t-135 -14q-127 0 -190.5 32
t-63.5 84q0 67 79 91q-61 37 -61 96q0 73 74 96q-48 45 -48 115q0 77 60 125.5t157 48.5q59 0 108 -19q44 26 44 117l127 -38q0 -44 -32 -79.5t-72 -43.5q44 -46 44 -111q0 -78 -60 -126t-159 -48q-47 0 -86 12q-27 -6 -27 -25q0 -13 9.5 -18t42.5 -5h114zM211 306
q-1 -23 14.5 -38t40.5 -16q27 -1 43 13t18 37q1 23 -15 38t-42 16q-25 1 -41.5 -13t-17.5 -37zM259 -97q109 0 109 33q0 30 -59 30h-74q-79 0 -79 -30q0 -33 103 -33z" />
    <glyph glyph-name="Hcircumflex" unicode="&#x124;" horiz-adv-x="712" 
d="M362 751l-57 -50l-125 -5l90 149h184l90 -149l-125 5zM469 660h187v-660h-187v254h-226v-254h-187v660h187v-254h226v254z" />
    <glyph glyph-name="Hbar" unicode="&#x126;" horiz-adv-x="712" 
d="M702 596v-100h-46v-496h-187v254h-226v-254h-187v496h-44v100h44v64h187v-64h226v64h187v-64h46zM469 406v90h-226v-90h226z" />
    <glyph glyph-name="hbar" unicode="&#x127;" horiz-adv-x="565" 
d="M355 478q87 0 129 -52t42 -135v-291h-180v245q0 76 -61 76q-31 0 -46.5 -22t-15.5 -57v-242h-180v546h-72v90h72v70h177v-70h112v-90h-111v-146h3q34 78 131 78z" />
    <glyph glyph-name="Itilde" unicode="&#x128;" horiz-adv-x="294" 
d="M335 870q6 -25 6 -56q0 -51 -33.5 -83t-87.5 -32q-33 0 -80 25.5t-63 25.5t-25.5 -9.5t-9.5 -25.5l5 -21h-110q-6 19 -6 49q0 52 33 82.5t87 30.5q48 0 99 -23.5t60 -23.5q22 0 22 25l-5 36h108zM56 0v660h182v-660h-182z" />
    <glyph glyph-name="itilde" unicode="&#x129;" horiz-adv-x="266" 
d="M311 704q6 -25 6 -56q0 -51 -33.5 -83t-87.5 -32q-33 0 -80 25.5t-63 25.5t-25.5 -10t-9.5 -26l5 -30h-110q-6 25 -6 56q0 51 33.5 83.5t86.5 32.5q45 0 97 -23.5t62 -23.5q22 0 22 25l-5 36h108zM43 0v472l180 5v-477h-180z" />
    <glyph glyph-name="Imacron" unicode="&#x12a;" horiz-adv-x="294" 
d="M-29 709v119h358v-119h-358zM56 0v660h182v-660h-182z" />
    <glyph glyph-name="imacron" unicode="&#x12b;" horiz-adv-x="266" 
d="M-43 555v119h338v-119h-338zM43 0v472l180 5v-477h-180z" />
    <glyph glyph-name="Ibreve" unicode="&#x12c;" horiz-adv-x="294" 
d="M317 848q0 -68 -47.5 -112t-122.5 -44q-76 0 -124 44t-48 112h125q0 -50 46 -50q45 0 45 50h126zM56 0v660h182v-660h-182z" />
    <glyph glyph-name="ibreve" unicode="&#x12d;" horiz-adv-x="266" 
d="M293 699q0 -80 -47 -126.5t-123 -46.5q-77 0 -124.5 46.5t-47.5 126.5h125q0 -37 11 -52t35 -15t34.5 15t10.5 52h126zM43 0v472l180 5v-477h-180z" />
    <glyph glyph-name="Iogonek" unicode="&#x12e;" horiz-adv-x="294" 
d="M257 -91l41 -75q-5 -6 -14 -14t-38.5 -22t-61.5 -14q-50 0 -80.5 28t-30.5 72q0 70 62 116h-79v660h182v-660q-8 -4 -19.5 -10.5t-30.5 -28.5t-19 -45q0 -20 10.5 -30.5t27.5 -10.5q16 0 28.5 8.5t16.5 16.5z" />
    <glyph glyph-name="iogonek" unicode="&#x12f;" horiz-adv-x="266" 
d="M131 514q-48 0 -80 30t-32 77t32 77.5t80 30.5t80.5 -30.5t32.5 -77.5t-32.5 -77t-80.5 -30zM242 -91l41 -75q-5 -6 -14 -14t-38.5 -22t-61.5 -14q-50 0 -80.5 28t-30.5 72q0 70 62 116h-77v472l180 5v-477q-8 -4 -19.5 -10.5t-30.5 -28.5t-19 -45q0 -20 10.5 -30.5
t27.5 -10.5q16 0 28.5 8.5t17.5 16.5z" />
    <glyph glyph-name="Idotaccent" unicode="&#x130;" horiz-adv-x="294" 
d="M146 693q-43 0 -72.5 27.5t-29.5 69.5t29.5 70t72.5 28t73 -28t30 -70t-30 -69.5t-73 -27.5zM56 0v660h182v-660h-182z" />
    <glyph glyph-name="dotlessi" unicode="&#x131;" horiz-adv-x="266" 
d="M43 0v472l180 5v-477h-180z" />
    <glyph glyph-name="IJ" unicode="&#x132;" horiz-adv-x="774" 
d="M56 0v660h182v-660h-182zM390 193q27 -38 72 -38q39 0 57 19t18 62v424h187v-425q0 -116 -68.5 -178.5t-189.5 -62.5q-106 0 -183 71z" />
    <glyph glyph-name="ij" unicode="&#x133;" horiz-adv-x="550" 
d="M126 727q48 0 80.5 -30.5t32.5 -77.5t-32.5 -77t-80.5 -30t-80 30t-32 77t32 77.5t80 30.5zM413 727q48 0 80.5 -30.5t32.5 -77.5t-32.5 -77t-80.5 -30t-80 30t-32 77t32 77.5t80 30.5zM43 0v472l180 5v-477h-180zM232 -50q13 -8 34 -8q61 0 61 86v444l180 5v-457
q0 -106 -52 -168t-160 -62q-37 0 -65 8.5t-38 17.5l-10 8z" />
    <glyph glyph-name="Jcircumflex" unicode="&#x134;" horiz-adv-x="480" 
d="M430 845l90 -149l-125 5l-57 50l-57 -50l-125 -5l90 149h184zM96 193q27 -38 72 -38q39 0 57 19t18 62v424h187v-425q0 -116 -68.5 -178.5t-189.5 -62.5q-106 0 -183 71z" />
    <glyph glyph-name="jcircumflex" unicode="&#x135;" horiz-adv-x="274" 
d="M-35 538l90 179h184l90 -179l-125 5l-57 70l-57 -70zM-44 -50q13 -8 34 -8q61 0 61 86v444l180 5v-457q0 -106 -52 -168t-160 -62q-37 0 -65 8.5t-38 17.5l-10 8z" />
    <glyph glyph-name="Kcommaaccent" unicode="&#x136;" horiz-adv-x="633" 
d="M437 321l199 -321h-192l-137 237h-64v-237h-187v660h187v-279h49l152 279h191zM327 -40q37 0 63 -24.5t26 -69.5q0 -41 -12.5 -76.5t-30 -56.5t-35 -36t-30.5 -21l-12 -6l-38 60q8 4 19 11t30.5 24t19.5 30q-35 0 -58.5 23.5t-23.5 58.5t24 59t58 24z" />
    <glyph glyph-name="kcommaaccent" unicode="&#x137;" horiz-adv-x="573" 
d="M408 244l180 -244h-214l-118 179h-33v-179h-180v706h180v-394h41l100 160h204zM285 -40q37 0 63 -24.5t26 -69.5q0 -41 -12.5 -76.5t-30 -56.5t-35 -36t-30.5 -21l-12 -6l-38 60q8 4 19 11t30.5 24t19.5 30q-35 0 -58.5 23.5t-23.5 58.5t24 59t58 24z" />
    <glyph glyph-name="kgreenlandic" unicode="&#x138;" horiz-adv-x="573" 
d="M374 0l-114 159h-37v-159h-180v472h180v-180h37l104 180h204l-160 -246l180 -226h-214z" />
    <glyph glyph-name="Lacute" unicode="&#x139;" horiz-adv-x="524" 
d="M334 835l-112 -132l-170 -7l60 139h222zM243 152h271v-152h-458v660h187v-508z" />
    <glyph glyph-name="lacute" unicode="&#x13a;" horiz-adv-x="266" 
d="M210 769l-159 -7l60 181h211zM43 0v706h180v-706h-180z" />
    <glyph glyph-name="Lcommaaccent" unicode="&#x13b;" horiz-adv-x="524" 
d="M243 152h271v-152h-458v660h187v-508zM292 -40q37 0 63 -24.5t26 -69.5q0 -41 -12.5 -76.5t-30 -56.5t-35 -36t-29.5 -21l-13 -6l-38 60q8 4 19 11t30.5 24t19.5 30q-34 0 -58 23.5t-24 58.5t24 59t58 24z" />
    <glyph glyph-name="lcommaaccent" unicode="&#x13c;" horiz-adv-x="266" 
d="M43 0v706h180v-706h-180zM47 -123q0 35 24 59t58 24q37 0 63 -24.5t26 -69.5q0 -41 -12.5 -76.5t-30 -56.5t-35 -36t-30.5 -21l-12 -6l-38 60q8 4 19 11t30.5 24t19.5 30q-35 0 -58.5 23.5t-23.5 58.5z" />
    <glyph glyph-name="Lcaron" unicode="&#x13d;" horiz-adv-x="524" 
d="M409 549q-33 0 -55 21.5t-22 53.5q0 31 21.5 53t52.5 22q34 0 59 -23t25 -68q0 -39 -10 -73.5t-25 -55.5t-29.5 -36t-24.5 -21l-10 -7l-39 56q57 45 57 78zM243 152h271v-152h-458v660h187v-508z" />
    <glyph glyph-name="lcaron" unicode="&#x13e;" horiz-adv-x="339" 
d="M259 644q0 31 21.5 53t52.5 22q34 0 59 -23t25 -68q0 -39 -10 -73.5t-24.5 -55.5t-29.5 -36t-25 -21l-10 -7l-39 56q57 45 57 78q-33 0 -55 21.5t-22 53.5zM43 0v706h180v-706h-180z" />
    <glyph glyph-name="Ldot" unicode="&#x13f;" horiz-adv-x="524" 
d="M243 152h271v-152h-458v660h187v-508zM385 234q-40 0 -67.5 27.5t-27.5 67.5t27.5 68t67.5 28t68 -28t28 -68t-28 -67.5t-68 -27.5z" />
    <glyph glyph-name="ldot" unicode="&#x140;" horiz-adv-x="477" 
d="M43 0v706h180v-706h-180zM483 355q0 -47 -32.5 -77t-80.5 -30t-80 30t-32 77t32 77.5t80 30.5t80.5 -30.5t32.5 -77.5z" />
    <glyph glyph-name="Lslash" unicode="&#x141;" horiz-adv-x="524" 
d="M243 152h271v-152h-458v175l-43 -24l-58 98l101 56v355h187v-250l121 67l58 -98l-179 -100v-127z" />
    <glyph glyph-name="lslash" unicode="&#x142;" horiz-adv-x="370" 
d="M379 415l-102 -57v-358h-180v257l-55 -31l-44 78l99 56v346h180v-246l58 33z" />
    <glyph glyph-name="Nacute" unicode="&#x143;" horiz-adv-x="711" 
d="M420 703l-170 -7l60 139h222zM655 660v-660h-167l-169 234q-43 60 -82 123l-7 -3q5 -21 5 -120v-234h-179v660h148l189 -259q47 -66 82 -130l6 3q-5 21 -5 127v259h179z" />
    <glyph glyph-name="nacute" unicode="&#x144;" horiz-adv-x="565" 
d="M465 709l-112 -174l-159 -7l60 181h211zM356 478q85 0 127.5 -52.5t42.5 -134.5v-291h-180v245q0 76 -60 76q-31 0 -47 -22t-16 -57v-242h-180v472l148 5q21 -45 21 -89h4q36 90 140 90z" />
    <glyph glyph-name="Ncommaaccent" unicode="&#x145;" horiz-adv-x="711" 
d="M655 660v-660h-167l-169 234q-43 60 -82 123l-7 -3q5 -21 5 -120v-234h-179v660h148l189 -259q47 -66 82 -130l6 3q-5 21 -5 127v259h179zM270 -123q0 35 24 59t58 24q37 0 63 -24.5t26 -69.5q0 -41 -12.5 -76.5t-30 -56.5t-35 -36t-29.5 -21l-13 -6l-38 60q8 4 19 11
t30.5 24t19.5 30q-34 0 -58 23.5t-24 58.5z" />
    <glyph glyph-name="ncommaaccent" unicode="&#x146;" horiz-adv-x="565" 
d="M356 478q85 0 127.5 -52.5t42.5 -134.5v-291h-180v245q0 76 -60 76q-31 0 -47 -22t-16 -57v-242h-180v472l148 5q21 -45 21 -89h4q36 90 140 90zM281 -40q37 0 63 -24.5t26 -69.5q0 -41 -12.5 -76.5t-30 -56.5t-35 -36t-30.5 -21l-12 -6l-38 60q8 4 19 11t30.5 24
t19.5 30q-35 0 -58.5 23.5t-23.5 58.5t24 59t58 24z" />
    <glyph glyph-name="Ncaron" unicode="&#x147;" horiz-adv-x="711" 
d="M169 850l125 -5l57 -50l57 50l125 5l-90 -149h-184zM655 660v-660h-167l-169 234q-43 60 -82 123l-7 -3q5 -21 5 -120v-234h-179v660h148l189 -259q47 -66 82 -130l6 3q-5 21 -5 127v259h179z" />
    <glyph glyph-name="ncaron" unicode="&#x148;" horiz-adv-x="565" 
d="M378 528h-184l-90 179l125 -5l57 -70l57 70l125 5zM356 478q85 0 127.5 -52.5t42.5 -134.5v-291h-180v245q0 76 -60 76q-31 0 -47 -22t-16 -57v-242h-180v472l148 5q21 -45 21 -89h4q36 90 140 90z" />
    <glyph glyph-name="napostrophe" unicode="&#x149;" horiz-adv-x="565" 
d="M-23 720q34 0 59 -23t25 -68q0 -39 -10 -73.5t-24.5 -55.5t-29.5 -36t-25 -22l-10 -6l-39 56q57 45 57 78q-33 0 -55 21.5t-22 53.5q0 31 21.5 53t52.5 22zM356 478q85 0 127.5 -52.5t42.5 -134.5v-291h-180v245q0 76 -60 76q-31 0 -47 -22t-16 -57v-242h-180v472l148 5
q21 -45 21 -89h4q36 90 140 90z" />
    <glyph glyph-name="Eng" unicode="&#x14a;" horiz-adv-x="711" 
d="M476 660h179v-667q0 -126 -75.5 -195t-187.5 -69q-55 0 -101 18.5t-65 36.5l-19 19l109 129q1 -2 10 -10t28 -16.5t38 -8.5q38 0 59.5 25t21.5 69v30l-154 213q-43 60 -82 123l-7 -3q5 -21 5 -120v-234h-179v660h148l189 -259q47 -66 82 -130l6 3q-5 21 -5 127v259z" />
    <glyph glyph-name="eng" unicode="&#x14b;" horiz-adv-x="565" 
d="M356 478q85 0 127.5 -52.5t42.5 -134.5v-291q-5 -97 -57 -153.5t-155 -56.5q-37 0 -65 8.5t-38 17.5l-10 8l50 126q13 -8 34 -8q61 0 61 86v217q0 76 -60 76q-31 0 -47 -22t-16 -57v-242h-180v472l148 5q21 -45 21 -89h4q36 90 140 90z" />
    <glyph glyph-name="Omacron" unicode="&#x14c;" horiz-adv-x="718" 
d="M183 709v119h358v-119h-358zM359 668q148 0 239.5 -91.5t91.5 -245.5q0 -155 -91.5 -246.5t-239.5 -91.5t-239.5 91.5t-91.5 246.5q0 154 91.5 245.5t239.5 91.5zM359 154q63 0 102.5 46.5t39.5 130.5q0 83 -39.5 129.5t-102.5 46.5t-102.5 -46.5t-39.5 -129.5
q0 -84 39.5 -130.5t102.5 -46.5z" />
    <glyph glyph-name="omacron" unicode="&#x14d;" horiz-adv-x="552" 
d="M110 555v119h338v-119h-338zM276 478q114 0 183.5 -67t69.5 -174t-69.5 -175t-183.5 -68t-183.5 68t-69.5 175t69.5 174t183.5 67zM276 140q34 0 52.5 26.5t18.5 70.5t-18.5 69.5t-52.5 25.5t-52.5 -25.5t-18.5 -69.5t18.5 -70.5t52.5 -26.5z" />
    <glyph glyph-name="Obreve" unicode="&#x14e;" horiz-adv-x="718" 
d="M529 848q0 -68 -47.5 -112t-122.5 -44q-76 0 -124 44t-48 112h125q0 -50 46 -50q45 0 45 50h126zM359 668q148 0 239.5 -91.5t91.5 -245.5q0 -155 -91.5 -246.5t-239.5 -91.5t-239.5 91.5t-91.5 246.5q0 154 91.5 245.5t239.5 91.5zM359 154q63 0 102.5 46.5t39.5 130.5
q0 83 -39.5 129.5t-102.5 46.5t-102.5 -46.5t-39.5 -129.5q0 -84 39.5 -130.5t102.5 -46.5z" />
    <glyph glyph-name="obreve" unicode="&#x14f;" horiz-adv-x="552" 
d="M446 699q0 -80 -47 -126.5t-123 -46.5q-77 0 -124.5 46.5t-47.5 126.5h125q0 -37 11 -52t35 -15t34.5 15t10.5 52h126zM276 478q114 0 183.5 -67t69.5 -174t-69.5 -175t-183.5 -68t-183.5 68t-69.5 175t69.5 174t183.5 67zM276 140q34 0 52.5 26.5t18.5 70.5t-18.5 69.5
t-52.5 25.5t-52.5 -25.5t-18.5 -69.5t18.5 -70.5t52.5 -26.5z" />
    <glyph glyph-name="Ohungarumlaut" unicode="&#x150;" horiz-adv-x="718" 
d="M296 703l-140 -7l60 139h192zM516 703l-140 -7l60 139h192zM359 668q148 0 239.5 -91.5t91.5 -245.5q0 -155 -91.5 -246.5t-239.5 -91.5t-239.5 91.5t-91.5 246.5q0 154 91.5 245.5t239.5 91.5zM359 154q63 0 102.5 46.5t39.5 130.5q0 83 -39.5 129.5t-102.5 46.5
t-102.5 -46.5t-39.5 -129.5q0 -84 39.5 -130.5t102.5 -46.5z" />
    <glyph glyph-name="ohungarumlaut" unicode="&#x151;" horiz-adv-x="552" 
d="M211 535l-170 -7l60 183h222zM466 535l-170 -7l60 183h222zM276 478q114 0 183.5 -67t69.5 -174t-69.5 -175t-183.5 -68t-183.5 68t-69.5 175t69.5 174t183.5 67zM276 140q34 0 52.5 26.5t18.5 70.5t-18.5 69.5t-52.5 25.5t-52.5 -25.5t-18.5 -69.5t18.5 -70.5
t52.5 -26.5z" />
    <glyph glyph-name="OE" unicode="&#x152;" horiz-adv-x="1009" 
d="M971 508h-276v-108h232v-141h-232v-107h276v-152h-463v23q-66 -30 -149 -30q-148 0 -239.5 91.5t-91.5 246.5q0 154 91.5 245.5t239.5 91.5q83 0 149 -30v22h463v-152zM359 154q63 0 102.5 46.5t39.5 130.5q0 83 -39.5 129.5t-102.5 46.5t-102.5 -46.5t-39.5 -129.5
q0 -84 39.5 -130.5t102.5 -46.5z" />
    <glyph glyph-name="oe" unicode="&#x153;" horiz-adv-x="845" 
d="M746 171l75 -98q-21 -28 -75 -53.5t-134 -25.5q-103 0 -173 51q-67 -51 -163 -51q-114 0 -183.5 68t-69.5 175t69.5 174t183.5 67q96 0 163 -50q64 50 158 50q102 0 161 -61.5t59 -162.5l-5 -55h-283q23 -74 106 -74q29 0 54 9.5t33 16t24 20.5zM597 347q-58 0 -72 -64
q1 -2 1 -6h134q-2 29 -18 49.5t-45 20.5zM276 140q34 0 52.5 26.5t18.5 70.5t-18.5 69.5t-52.5 25.5t-52.5 -25.5t-18.5 -69.5t18.5 -70.5t52.5 -26.5z" />
    <glyph glyph-name="Racute" unicode="&#x154;" horiz-adv-x="649" 
d="M485 835l-112 -132l-170 -7l60 139h222zM622 144l10 -143q-27 -9 -89 -9q-51 0 -87.5 15.5t-55 38.5t-35 50.5t-28 50.5t-32.5 38.5t-51 15.5h-11v-201h-187v660h247q142 0 212.5 -58t70.5 -181q0 -136 -119 -187q19 -6 35.5 -22.5t26 -31.5t28.5 -26.5t44 -11.5z
M243 327h36q58 0 91.5 24t33.5 68q0 47 -30 72.5t-83 25.5h-48v-190z" />
    <glyph glyph-name="racute" unicode="&#x155;" horiz-adv-x="411" 
d="M402 709l-112 -174l-159 -7l60 181h211zM340 478q41 0 77 -19l-48 -171q-29 23 -63 23q-38 0 -60.5 -26.5t-22.5 -72.5v-212h-180v472l148 5q8 -18 14.5 -50.5t6.5 -48.5h3q30 100 125 100z" />
    <glyph glyph-name="Rcommaaccent" unicode="&#x156;" horiz-adv-x="649" 
d="M622 144l10 -143q-27 -9 -89 -9q-51 0 -87.5 15.5t-55 38.5t-35 50.5t-28 50.5t-32.5 38.5t-51 15.5h-11v-201h-187v660h247q142 0 212.5 -58t70.5 -181q0 -136 -119 -187q19 -6 35.5 -22.5t26 -31.5t28.5 -26.5t44 -11.5zM243 327h36q58 0 91.5 24t33.5 68
q0 47 -30 72.5t-83 25.5h-48v-190zM340 -40q37 0 63 -24.5t26 -69.5q0 -41 -12.5 -76.5t-30 -56.5t-35 -36t-29.5 -21l-13 -6l-38 60q8 4 19 11t30.5 24t19.5 30q-34 0 -58 23.5t-24 58.5t24 59t58 24z" />
    <glyph glyph-name="rcommaaccent" unicode="&#x157;" horiz-adv-x="411" 
d="M340 478q41 0 77 -19l-48 -171q-29 23 -63 23q-38 0 -60.5 -26.5t-22.5 -72.5v-212h-180v472l148 5q8 -18 14.5 -50.5t6.5 -48.5h3q30 100 125 100zM132 -40q37 0 63 -24.5t26 -69.5q0 -41 -12.5 -76.5t-30 -56.5t-35 -36t-29.5 -21l-13 -6l-38 60q8 4 19 11t30.5 24
t19.5 30q-34 0 -58 23.5t-24 58.5t24 59t58 24z" />
    <glyph glyph-name="Rcaron" unicode="&#x158;" horiz-adv-x="649" 
d="M396 701h-184l-90 149l125 -5l57 -50l57 50l125 5zM622 144l10 -143q-27 -9 -89 -9q-51 0 -87.5 15.5t-55 38.5t-35 50.5t-28 50.5t-32.5 38.5t-51 15.5h-11v-201h-187v660h247q142 0 212.5 -58t70.5 -181q0 -136 -119 -187q19 -6 35.5 -22.5t26 -31.5t28.5 -26.5
t44 -11.5zM243 327h36q58 0 91.5 24t33.5 68q0 47 -30 72.5t-83 25.5h-48v-190z" />
    <glyph glyph-name="rcaron" unicode="&#x159;" horiz-adv-x="411" 
d="M315 528h-184l-90 179l125 -5l57 -70l57 70l125 5zM340 478q41 0 77 -19l-48 -171q-29 23 -63 23q-38 0 -60.5 -26.5t-22.5 -72.5v-212h-180v472l148 5q8 -18 14.5 -50.5t6.5 -48.5h3q30 100 125 100z" />
    <glyph glyph-name="Sacute" unicode="&#x15a;" horiz-adv-x="590" 
d="M367 703l-170 -7l60 139h222zM392 444q0 29 -24.5 51.5t-62.5 22.5q-34 0 -52.5 -13.5t-18.5 -35.5q0 -21 18 -35t47 -23.5t63.5 -18.5t69.5 -24t64 -36.5t47 -59.5t18 -88q0 -83 -65.5 -137.5t-199.5 -54.5q-166 0 -287 104l107 130q33 -31 85.5 -59.5t102.5 -28.5
q70 0 70 40q0 19 -18 32t-46.5 22t-63.5 18.5t-70 24.5t-63.5 36t-46.5 58t-18 86q0 89 69.5 151t181.5 62q120 0 181.5 -52t75.5 -132z" />
    <glyph glyph-name="sacute" unicode="&#x15b;" horiz-adv-x="491" 
d="M315 535l-159 -7l60 181h211zM297 311q1 5 1 12q0 47 -50 47t-50 -34q0 -18 20 -29.5t49.5 -15.5t64.5 -13.5t64.5 -22t49.5 -41.5t20 -72q0 -66 -56.5 -107t-159.5 -41q-47 0 -88.5 7t-67 17.5t-44.5 21t-27 17.5l-8 7l74 103l24 -16t55 -26t72 -16q42 0 42 17
q0 15 -25 25t-61 19t-72.5 23.5t-61.5 47t-25 79.5q0 77 58.5 117.5t159.5 40.5q88 0 144.5 -36t56.5 -92l-4 -31z" />
    <glyph glyph-name="Scircumflex" unicode="&#x15c;" horiz-adv-x="590" 
d="M390 845l90 -149l-125 5l-57 50l-57 -50l-125 -5l90 149h184zM392 444q0 29 -24.5 51.5t-62.5 22.5q-34 0 -52.5 -13.5t-18.5 -35.5q0 -21 18 -35t47 -23.5t63.5 -18.5t69.5 -24t64 -36.5t47 -59.5t18 -88q0 -83 -65.5 -137.5t-199.5 -54.5q-166 0 -287 104l107 130
q33 -31 85.5 -59.5t102.5 -28.5q70 0 70 40q0 19 -18 32t-46.5 22t-63.5 18.5t-70 24.5t-63.5 36t-46.5 58t-18 86q0 89 69.5 151t181.5 62q120 0 181.5 -52t75.5 -132z" />
    <glyph glyph-name="scircumflex" unicode="&#x15d;" horiz-adv-x="491" 
d="M66 528l90 179h184l90 -179l-125 5l-57 70l-57 -70zM297 311q1 5 1 12q0 47 -50 47t-50 -34q0 -18 20 -29.5t49.5 -15.5t64.5 -13.5t64.5 -22t49.5 -41.5t20 -72q0 -66 -56.5 -107t-159.5 -41q-47 0 -88.5 7t-67 17.5t-44.5 21t-27 17.5l-8 7l74 103l24 -16t55 -26
t72 -16q42 0 42 17q0 15 -25 25t-61 19t-72.5 23.5t-61.5 47t-25 79.5q0 77 58.5 117.5t159.5 40.5q88 0 144.5 -36t56.5 -92l-4 -31z" />
    <glyph glyph-name="Scedilla" unicode="&#x15e;" horiz-adv-x="590" 
d="M561 184q0 -75 -54 -127.5t-164 -62.5l-9 -18q33 -4 55.5 -26.5t22.5 -62.5q0 -47 -36 -72.5t-85 -25.5q-32 0 -60 11.5t-41 23.5l-12 11l41 67q28 -30 69 -30q35 0 35 26q0 37 -84 37l26 58q-146 10 -256 103l107 130q33 -31 85.5 -59.5t102.5 -28.5q70 0 70 40
q0 19 -18 32t-46.5 22t-63.5 18.5t-70 24.5t-63.5 36t-46.5 58t-18 86q0 89 69.5 151t181.5 62q120 0 181.5 -52t75.5 -132l-164 -40q0 29 -24.5 51.5t-62.5 22.5q-34 0 -52.5 -13.5t-18.5 -35.5q0 -21 18 -35t47 -23.5t63.5 -18.5t69.5 -24t64 -36.5t47 -59.5t18 -88z" />
    <glyph glyph-name="scedilla" unicode="&#x15f;" horiz-adv-x="491" 
d="M466 142q0 -59 -45.5 -99t-130.5 -47l-10 -20q33 -4 55.5 -26.5t22.5 -62.5q0 -47 -36 -72.5t-85 -25.5q-32 0 -60 11.5t-41 23.5l-12 11l41 67q28 -30 69 -30q35 0 35 26q0 37 -84 37l27 60q-62 4 -111 21.5t-67 32.5l-19 15l74 103l24 -16t55 -26t72 -16q42 0 42 17
q0 15 -25 25t-61 19t-72.5 23.5t-61.5 47t-25 79.5q0 77 58.5 117.5t159.5 40.5q88 0 144.5 -36t56.5 -92l-4 -31l-155 -8q1 5 1 12q0 47 -50 47t-50 -34q0 -18 20 -29.5t49.5 -15.5t64.5 -13.5t64.5 -22t49.5 -41.5t20 -72z" />
    <glyph glyph-name="Scaron" unicode="&#x160;" horiz-adv-x="590" 
d="M116 850l125 -5l57 -50l57 50l125 5l-90 -149h-184zM392 444q0 29 -24.5 51.5t-62.5 22.5q-34 0 -52.5 -13.5t-18.5 -35.5q0 -21 18 -35t47 -23.5t63.5 -18.5t69.5 -24t64 -36.5t47 -59.5t18 -88q0 -83 -65.5 -137.5t-199.5 -54.5q-166 0 -287 104l107 130
q33 -31 85.5 -59.5t102.5 -28.5q70 0 70 40q0 19 -18 32t-46.5 22t-63.5 18.5t-70 24.5t-63.5 36t-46.5 58t-18 86q0 89 69.5 151t181.5 62q120 0 181.5 -52t75.5 -132z" />
    <glyph glyph-name="scaron" unicode="&#x161;" horiz-adv-x="491" 
d="M66 707l125 -5l57 -70l57 70l125 5l-90 -179h-184zM297 311q1 5 1 12q0 47 -50 47t-50 -34q0 -18 20 -29.5t49.5 -15.5t64.5 -13.5t64.5 -22t49.5 -41.5t20 -72q0 -66 -56.5 -107t-159.5 -41q-47 0 -88.5 7t-67 17.5t-44.5 21t-27 17.5l-8 7l74 103l24 -16t55 -26t72 -16
q42 0 42 17q0 15 -25 25t-61 19t-72.5 23.5t-61.5 47t-25 79.5q0 77 58.5 117.5t159.5 40.5q88 0 144.5 -36t56.5 -92l-4 -31z" />
    <glyph glyph-name="uni0162" unicode="&#x162;" horiz-adv-x="589" 
d="M388 0h-57l-12 -24q33 -4 55.5 -26.5t22.5 -62.5q0 -47 -36 -72.5t-85 -25.5q-32 0 -60 11.5t-40 23.5l-13 11l41 67q28 -30 69 -30q35 0 35 26q0 37 -84 37l29 65h-52v508h-191v152h569v-152h-191v-508z" />
    <glyph glyph-name="uni0163" unicode="&#x163;" horiz-adv-x="441" 
d="M289 -24q33 -4 55.5 -26.5t22.5 -62.5q0 -47 -36 -72.5t-85 -25.5q-32 0 -60 11.5t-40 23.5l-13 11l41 67q28 -30 69 -30q35 0 35 26q0 37 -84 37l29 65q-142 34 -142 209v130h-70v133h80v126l170 5v-131h151v-133h-151v-122q0 -38 16 -54.5t49 -16.5q19 0 35.5 6
t23.5 12l7 6l49 -139q-49 -34 -143 -37z" />
    <glyph glyph-name="Tcaron" unicode="&#x164;" horiz-adv-x="589" 
d="M115 850l125 -5l57 -50l57 50l125 5l-90 -149h-184zM201 0v508h-191v152h569v-152h-191v-508h-187z" />
    <glyph glyph-name="tcaron" unicode="&#x165;" horiz-adv-x="441" 
d="M367 602q-31 0 -52.5 22t-21.5 53t21.5 53t52.5 22q33 0 57 -22t24 -63q0 -38 -11 -69t-27 -48.5t-32.5 -30t-27.5 -17.5l-11 -4l-34 54q61 24 62 50zM326 146q19 0 35.5 6t23.5 12l7 6l49 -139q-6 -4 -17.5 -10t-52 -16.5t-86.5 -10.5q-96 0 -150 54t-54 161v130h-70
v133h80v126l170 5v-131h151v-133h-151v-122q0 -38 16 -54.5t49 -16.5z" />
    <glyph glyph-name="Tbar" unicode="&#x166;" horiz-adv-x="589" 
d="M579 508h-191v-143h121v-100h-121v-265h-187v265h-123v100h123v143h-191v152h569v-152z" />
    <glyph glyph-name="tbar" unicode="&#x167;" horiz-adv-x="441" 
d="M392 170l49 -139q-6 -4 -17.5 -10t-52 -16.5t-86.5 -10.5q-96 0 -150 54t-54 161v2h-67v90h67v38h-70v133h80v126l170 5v-131h151v-133h-151v-38h114v-90h-114q1 -34 17 -49.5t48 -15.5q19 0 35.5 6t23.5 12z" />
    <glyph glyph-name="Utilde" unicode="&#x168;" horiz-adv-x="674" 
d="M548 870q6 -25 6 -56q0 -51 -33.5 -83t-87.5 -32q-33 0 -80 25.5t-63 25.5t-25.5 -9.5t-9.5 -25.5l5 -21h-110q-6 19 -6 49q0 52 33 82.5t87 30.5q48 0 99 -23.5t60 -23.5q22 0 22 25l-5 36h108zM438 660h187v-395q0 -125 -79 -199t-208 -74q-131 0 -210.5 74t-79.5 199
l1 395h187v-395q0 -52 28 -82t74 -30q45 0 72.5 30t27.5 82v395z" />
    <glyph glyph-name="utilde" unicode="&#x169;" horiz-adv-x="561" 
d="M179 518h-110q-6 25 -6 56q0 51 33.5 83.5t86.5 32.5q45 0 97 -23.5t62 -23.5q22 0 22 25l-5 36h108q6 -25 6 -56q0 -51 -33.5 -83t-87.5 -32q-33 0 -80 25.5t-63 25.5t-25.5 -10t-9.5 -26zM338 472h180v-472l-152 -5q-17 55 -17 89h-2q-36 -90 -138 -90
q-85 0 -127.5 52.5t-42.5 134.5v291h180v-245q0 -76 60 -76q29 0 44 22.5t15 56.5v242z" />
    <glyph glyph-name="Umacron" unicode="&#x16a;" horiz-adv-x="674" 
d="M162 709v119h358v-119h-358zM438 660h187v-395q0 -125 -79 -199t-208 -74q-131 0 -210.5 74t-79.5 199l1 395h187v-395q0 -52 28 -82t74 -30q45 0 72.5 30t27.5 82v395z" />
    <glyph glyph-name="umacron" unicode="&#x16b;" horiz-adv-x="561" 
d="M451 674v-119h-338v119h338zM338 472h180v-472l-152 -5q-17 55 -17 89h-2q-36 -90 -138 -90q-85 0 -127.5 52.5t-42.5 134.5v291h180v-245q0 -76 60 -76q29 0 44 22.5t15 56.5v242z" />
    <glyph glyph-name="Ubreve" unicode="&#x16c;" horiz-adv-x="674" 
d="M508 848q0 -68 -47.5 -112t-122.5 -44q-76 0 -124 44t-48 112h125q0 -50 46 -50q45 0 45 50h126zM438 660h187v-395q0 -125 -79 -199t-208 -74q-131 0 -210.5 74t-79.5 199l1 395h187v-395q0 -52 28 -82t74 -30q45 0 72.5 30t27.5 82v395z" />
    <glyph glyph-name="ubreve" unicode="&#x16d;" horiz-adv-x="561" 
d="M279 526q-77 0 -124.5 46.5t-47.5 126.5h125q0 -37 11 -52t35 -15t34.5 15t10.5 52h126q0 -80 -47 -126.5t-123 -46.5zM338 472h180v-472l-152 -5q-17 55 -17 89h-2q-36 -90 -138 -90q-85 0 -127.5 52.5t-42.5 134.5v291h180v-245q0 -76 60 -76q29 0 44 22.5t15 56.5v242
z" />
    <glyph glyph-name="Uring" unicode="&#x16e;" horiz-adv-x="674" 
d="M338 683q-43 0 -75.5 30t-32.5 72t32.5 72t75.5 30t75.5 -30t32.5 -72t-32.5 -72t-75.5 -30zM368 785q0 13 -8.5 21.5t-21.5 8.5t-21.5 -8.5t-8.5 -21.5t8.5 -21.5t21.5 -8.5t21.5 8.5t8.5 21.5zM438 660h187v-395q0 -125 -79 -199t-208 -74q-131 0 -210.5 74t-79.5 199
l1 395h187v-395q0 -52 28 -82t74 -30q45 0 72.5 30t27.5 82v395z" />
    <glyph glyph-name="uring" unicode="&#x16f;" horiz-adv-x="561" 
d="M279 515q-43 0 -75.5 30t-32.5 72t32.5 72t75.5 30t75.5 -30t32.5 -72t-32.5 -72t-75.5 -30zM279 647q-13 0 -21.5 -8.5t-8.5 -21.5t8.5 -21.5t21.5 -8.5t21.5 8.5t8.5 21.5t-8.5 21.5t-21.5 8.5zM338 472h180v-472l-152 -5q-17 55 -17 89h-2q-36 -90 -138 -90
q-85 0 -127.5 52.5t-42.5 134.5v291h180v-245q0 -76 60 -76q29 0 44 22.5t15 56.5v242z" />
    <glyph glyph-name="Uhungarumlaut" unicode="&#x170;" horiz-adv-x="674" 
d="M275 703l-140 -7l60 139h192zM495 703l-140 -7l60 139h192zM438 660h187v-395q0 -125 -79 -199t-208 -74q-131 0 -210.5 74t-79.5 199l1 395h187v-395q0 -52 28 -82t74 -30q45 0 72.5 30t27.5 82v395z" />
    <glyph glyph-name="uhungarumlaut" unicode="&#x171;" horiz-adv-x="561" 
d="M326 711l-112 -176l-170 -7l60 183h222zM469 535l-170 -7l60 183h222zM338 230v242h180v-472l-152 -5q-17 55 -17 89h-2q-36 -90 -138 -90q-85 0 -127.5 52.5t-42.5 134.5v291h180v-245q0 -76 60 -76q29 0 44 22.5t15 56.5z" />
    <glyph glyph-name="Uogonek" unicode="&#x172;" horiz-adv-x="674" 
d="M438 660h187v-395q0 -98 -50.5 -166.5t-137.5 -93.5q-21 -11 -40.5 -32t-19.5 -47q0 -20 10.5 -30.5t27.5 -10.5q16 0 28.5 8.5t16.5 16.5l5 9l41 -75q-5 -6 -14 -14t-38.5 -22t-61.5 -14q-50 0 -80.5 28t-30.5 72q0 58 42 98q-125 5 -200 78.5t-75 194.5l1 395h187v-395
q0 -52 28 -82t74 -30q45 0 72.5 30t27.5 82v395z" />
    <glyph glyph-name="uogonek" unicode="&#x173;" horiz-adv-x="561" 
d="M537 -91l41 -75q-5 -6 -14 -14t-38.5 -22t-61.5 -14q-50 0 -80.5 28t-30.5 72q0 66 57 112l-44 -1q-17 55 -17 89h-2q-36 -90 -138 -90q-85 0 -127.5 52.5t-42.5 134.5v291h180v-245q0 -76 60 -76q29 0 44 22.5t15 56.5v242h180v-472q-8 -4 -19.5 -10.5t-30.5 -28.5
t-19 -45q0 -20 10.5 -30.5t27.5 -10.5q16 0 28.5 8.5t16.5 16.5z" />
    <glyph glyph-name="Wcircumflex" unicode="&#x174;" horiz-adv-x="942" 
d="M571 845l90 -149l-125 5l-57 50l-57 -50l-125 -5l90 149h184zM756 660h191l-180 -660h-215l-59 254q-7 29 -10.5 52t-5.5 45t-3 29h-4q-13 -95 -20 -126l-58 -254h-220l-175 660h191l83 -413q12 -55 16 -81h4q5 29 16 80l86 414h159l85 -414q12 -57 16 -80h4q3 20 16 81z
" />
    <glyph glyph-name="wcircumflex" unicode="&#x175;" horiz-adv-x="782" 
d="M392 603l-57 -70l-125 -5l90 179h184l90 -179l-125 5zM593 472h182l-128 -472h-203l-40 163q-9 39 -11 70h-4q-2 -31 -11 -70l-40 -163h-203l-128 472h182l44 -235q4 -19 9 -72h4q6 47 13 72l57 235h150l56 -235q11 -49 14 -72h4q5 47 11 72z" />
    <glyph glyph-name="Ycircumflex" unicode="&#x176;" horiz-adv-x="611" 
d="M309 751l-57 -50l-125 -5l90 149h184l90 -149l-125 5zM617 660l-218 -422v-238h-187v237l-219 423h202l81 -187q23 -55 30 -81h4q8 32 29 81l80 187h198z" />
    <glyph glyph-name="ycircumflex" unicode="&#x177;" horiz-adv-x="533" 
d="M90 528l90 179h184l90 -179l-125 5l-57 70l-57 -70zM351 -44q-28 -75 -83.5 -120.5t-138.5 -45.5q-28 0 -53.5 5.5t-37.5 10.5l-11 6l24 132q29 -15 62 -15q55 0 78 40l2 3l-191 500h190l67 -235q8 -31 14 -72h4q10 56 14 72l60 235h180z" />
    <glyph glyph-name="Ydieresis" unicode="&#x178;" horiz-adv-x="611" 
d="M202 700q-34 0 -58 23.5t-24 57.5t24 58t58 24t57.5 -24t23.5 -58t-23.5 -57.5t-57.5 -23.5zM421 700q-34 0 -58 23.5t-24 57.5t24 58t58 24t57.5 -24t23.5 -58t-23.5 -57.5t-57.5 -23.5zM617 660l-218 -422v-238h-187v237l-219 423h202l81 -187q23 -55 30 -81h4
q8 32 29 81l80 187h198z" />
    <glyph glyph-name="Zacute" unicode="&#x179;" horiz-adv-x="598" 
d="M374 703l-170 -7l60 139h222zM29 0v144l249 287q46 55 70 76l-3 4q-18 -3 -105 -3h-201v152h528v-144l-245 -287q-45 -52 -74 -76l3 -4q24 3 105 3h206v-152h-533z" />
    <glyph glyph-name="zacute" unicode="&#x17a;" horiz-adv-x="485" 
d="M313 535l-159 -7l60 181h211zM25 0v123l203 193q15 15 24 22l-1 4q-30 -3 -69 -3h-149v133h421v-123l-196 -194q-15 -15 -23 -21l2 -4q27 3 61 3h162v-133h-435z" />
    <glyph glyph-name="Zdotaccent" unicode="&#x17b;" horiz-adv-x="598" 
d="M303 693q-43 0 -72.5 27.5t-29.5 69.5t29.5 70t72.5 28t73 -28t30 -70t-30 -69.5t-73 -27.5zM29 0v144l249 287q46 55 70 76l-3 4q-18 -3 -105 -3h-201v152h528v-144l-245 -287q-45 -52 -74 -76l3 -4q24 3 105 3h206v-152h-533z" />
    <glyph glyph-name="zdotaccent" unicode="&#x17c;" horiz-adv-x="485" 
d="M359 621q0 -47 -32.5 -77t-80.5 -30t-80 30t-32 77t32 77.5t80 30.5t80.5 -30.5t32.5 -77.5zM25 0v123l203 193q15 15 24 22l-1 4q-30 -3 -69 -3h-149v133h421v-123l-196 -194q-15 -15 -23 -21l2 -4q27 3 61 3h162v-133h-435z" />
    <glyph glyph-name="Zcaron" unicode="&#x17d;" horiz-adv-x="598" 
d="M123 850l125 -5l57 -50l57 50l125 5l-90 -149h-184zM29 0v144l249 287q46 55 70 76l-3 4q-18 -3 -105 -3h-201v152h528v-144l-245 -287q-45 -52 -74 -76l3 -4q24 3 105 3h206v-152h-533z" />
    <glyph glyph-name="zcaron" unicode="&#x17e;" horiz-adv-x="485" 
d="M64 707l125 -5l57 -70l57 70l125 5l-90 -179h-184zM25 0v123l203 193q15 15 24 22l-1 4q-30 -3 -69 -3h-149v133h421v-123l-196 -194q-15 -15 -23 -21l2 -4q27 3 61 3h162v-133h-435z" />
    <glyph glyph-name="uni01EA" unicode="&#x1ea;" horiz-adv-x="718" 
d="M457 5q-56 -34 -56 -77q0 -20 10.5 -30.5t27.5 -10.5q16 0 28.5 8.5t16.5 16.5l5 9l41 -75q-5 -6 -14 -14t-38.5 -22t-61.5 -14q-50 0 -80.5 28t-30.5 72q0 56 41 97q-143 5 -230.5 96t-87.5 242q0 154 91.5 245.5t239.5 91.5t239.5 -91.5t91.5 -245.5
q0 -127 -62.5 -212.5t-170.5 -113.5zM217 331q0 -84 39.5 -130.5t102.5 -46.5t102.5 46.5t39.5 130.5q0 83 -39.5 129.5t-102.5 46.5t-102.5 -46.5t-39.5 -129.5z" />
    <glyph glyph-name="uni01EB" unicode="&#x1eb;" horiz-adv-x="552" 
d="M381 12q-7 -3 -16 -9.5t-21.5 -16.5t-20.5 -25t-8 -31q0 -20 10.5 -30.5t27.5 -10.5q16 0 28.5 8.5t16.5 16.5l5 9l41 -75q-5 -6 -14 -14t-38.5 -22t-61.5 -14q-50 0 -80.5 28t-30.5 72q0 56 40 96q-107 6 -171.5 73t-64.5 170q0 107 69.5 174t183.5 67t183.5 -67
t69.5 -174q0 -79 -39.5 -138.5t-108.5 -86.5zM205 237q0 -44 18.5 -70.5t52.5 -26.5t52.5 26.5t18.5 70.5t-18.5 69.5t-52.5 25.5t-52.5 -25.5t-18.5 -69.5z" />
    <glyph glyph-name="AEacute" unicode="&#x1fc;" horiz-adv-x="961" 
d="M720 835l-112 -132l-170 -7l60 139h222zM923 508h-276v-108h232v-141h-232v-107h276v-152h-463v121h-211l-80 -121h-191l442 660h503v-152zM339 255h121v182z" />
    <glyph glyph-name="aeacute" unicode="&#x1fd;" horiz-adv-x="810" 
d="M588 709l-112 -174l-159 -7l60 181h211zM711 171l75 -98q-21 -28 -75 -53.5t-134 -25.5q-133 0 -200 86h-4q-16 -32 -63.5 -59t-126.5 -27q-75 0 -117.5 34.5t-42.5 94.5q0 38 17 65.5t42 43.5t67 26t77.5 14t87.5 7v13q0 26 -15 41.5t-43 15.5q-58 0 -58 -37q0 -6 3 -11
l-152 -26q-7 22 -7 51q0 70 59.5 111t162.5 41q93 0 149 -51q66 51 149 51q102 0 161 -61.5t59 -162.5l-5 -55h-293q21 -74 105 -74q34 0 61.5 9.5t36.5 16t24 20.5zM556 347q-66 0 -77 -70h146q-2 30 -19.5 50t-49.5 20zM239 119q32 0 54 19t22 47v17q-86 -7 -105 -19
q-16 -10 -16 -28t13 -27t32 -9z" />
    <glyph glyph-name="Oslashacute" unicode="&#x1fe;" horiz-adv-x="718" 
d="M541 835l-112 -132l-170 -7l60 139h222zM597 578q93 -91 93 -247q0 -155 -91.5 -246.5t-239.5 -91.5q-68 0 -126 20l-37 -57h-136l74 115q-106 92 -106 260q0 154 91.5 245.5t239.5 91.5q79 0 144 -27l30 47h135zM217 331q0 -60 20 -100l173 267q-24 9 -51 9
q-63 0 -102.5 -46.5t-39.5 -129.5zM359 154q63 0 102.5 46.5t39.5 130.5q0 46 -12 79l-163 -252q15 -4 33 -4z" />
    <glyph glyph-name="oslashacute" unicode="&#x1ff;" horiz-adv-x="552" 
d="M466 709l-112 -174l-159 -7l60 181h211zM444 424q85 -68 85 -187q0 -107 -69.5 -175t-183.5 -68q-56 0 -102 17l-28 -42h-90l52 79q-85 69 -85 189q0 107 69.5 174t183.5 67q55 0 103 -17l21 32h89zM205 237q0 -21 4 -36l84 129q-10 2 -17 2q-34 0 -52.5 -25.5
t-18.5 -69.5zM276 140q34 0 52.5 26.5t18.5 70.5q0 19 -3 34l-85 -129q10 -2 17 -2z" />
    <glyph glyph-name="Scommaaccent" unicode="&#x218;" horiz-adv-x="590" 
d="M392 444q0 29 -24.5 51.5t-62.5 22.5q-34 0 -52.5 -13.5t-18.5 -35.5q0 -21 18 -35t47 -23.5t63.5 -18.5t69.5 -24t64 -36.5t47 -59.5t18 -88q0 -83 -65.5 -137.5t-199.5 -54.5q-166 0 -287 104l107 130q33 -31 85.5 -59.5t102.5 -28.5q70 0 70 40q0 19 -18 32t-46.5 22
t-63.5 18.5t-70 24.5t-63.5 36t-46.5 58t-18 86q0 89 69.5 151t181.5 62q120 0 181.5 -52t75.5 -132zM216 -123q0 35 24 59t58 24q37 0 63 -24.5t26 -69.5q0 -41 -12.5 -76.5t-30 -56.5t-35 -36t-29.5 -21l-13 -6l-38 60q8 4 19 11t30.5 24t19.5 30q-34 0 -58 23.5t-24 58.5
z" />
    <glyph glyph-name="scommaaccent" unicode="&#x219;" horiz-adv-x="491" 
d="M297 311q1 5 1 12q0 47 -50 47t-50 -34q0 -18 20 -29.5t49.5 -15.5t64.5 -13.5t64.5 -22t49.5 -41.5t20 -72q0 -66 -56.5 -107t-159.5 -41q-47 0 -88.5 7t-67 17.5t-44.5 21t-27 17.5l-8 7l74 103l24 -16t55 -26t72 -16q42 0 42 17q0 15 -25 25t-61 19t-72.5 23.5
t-61.5 47t-25 79.5q0 77 58.5 117.5t159.5 40.5q88 0 144.5 -36t56.5 -92l-4 -31zM162 -123q0 35 24 59t58 24q37 0 63 -24.5t26 -69.5q0 -41 -12.5 -76.5t-30 -56.5t-35 -36t-29.5 -21l-13 -6l-38 60q8 4 19 11t30.5 24t19.5 30q-34 0 -58 23.5t-24 58.5z" />
    <glyph glyph-name="uni021A" unicode="&#x21a;" horiz-adv-x="589" 
d="M201 0v508h-191v152h569v-152h-191v-508h-187zM201 -123q0 35 24 59t58 24q37 0 63 -24.5t26 -69.5q0 -41 -12.5 -76.5t-30 -56.5t-35 -36t-30.5 -21l-12 -6l-38 60q8 4 19 11t30.5 24t19.5 30q-35 0 -58.5 23.5t-23.5 58.5z" />
    <glyph glyph-name="uni021B" unicode="&#x21b;" horiz-adv-x="441" 
d="M441 31q-6 -4 -17.5 -10t-52 -16.5t-86.5 -10.5q-96 0 -150 54t-54 161v130h-70v133h80v126l170 5v-131h151v-133h-151v-122q0 -38 16 -54.5t49 -16.5q19 0 35.5 6t23.5 12l7 6zM253 -40q37 0 63 -24.5t26 -69.5q0 -41 -12.5 -76.5t-30 -56.5t-35 -36t-30.5 -21l-12 -6
l-38 60q8 4 19 11t30.5 24t19.5 30q-35 0 -58.5 23.5t-23.5 58.5t24 59t58 24z" />
    <glyph glyph-name="uni0237" unicode="&#x237;" horiz-adv-x="274" 
d="M-44 -50q13 -8 34 -8q61 0 61 86v444l180 5v-457q0 -106 -52 -168t-160 -62q-37 0 -65 8.5t-38 17.5l-10 8z" />
    <glyph glyph-name="circumflex" unicode="&#x2c6;" horiz-adv-x="407" 
d="M20 528l90 179h184l90 -179l-125 5l-57 70l-57 -70z" />
    <glyph glyph-name="caron" unicode="&#x2c7;" horiz-adv-x="378" 
d="M20 707l125 -5l57 -70l57 70l125 5l-90 -179h-184z" />
    <glyph glyph-name="breve" unicode="&#x2d8;" horiz-adv-x="376" 
d="M359 699q0 -80 -47 -126.5t-123 -46.5q-77 0 -124.5 46.5t-47.5 126.5h125q0 -37 11 -52t35 -15t34.5 15t10.5 52h126z" />
    <glyph glyph-name="dotaccent" unicode="&#x2d9;" horiz-adv-x="255" 
d="M240 621q0 -47 -32.5 -77t-80.5 -30t-80 30t-32 77t32 77.5t80 30.5t80.5 -30.5t32.5 -77.5z" />
    <glyph glyph-name="ring" unicode="&#x2da;" horiz-adv-x="298" 
d="M149 515q-43 0 -75.5 30t-32.5 72t32.5 72t75.5 30t75.5 -30t32.5 -72t-32.5 -72t-75.5 -30zM179 617q0 13 -8.5 21.5t-21.5 8.5t-21.5 -8.5t-8.5 -21.5t8.5 -21.5t21.5 -8.5t21.5 8.5t8.5 21.5z" />
    <glyph glyph-name="ogonek" unicode="&#x2db;" horiz-adv-x="297" 
d="M259 -166q-5 -6 -14 -14t-38.5 -22t-61.5 -14q-50 0 -80.5 28t-30.5 72q0 32 14 60t34 45t40.5 29t34.5 16l14 5l28 -39q-8 -4 -19.5 -10.5t-30.5 -28.5t-19 -45q0 -20 10.5 -30.5t27.5 -10.5q16 0 28.5 8.5t17.5 16.5l4 9z" />
    <glyph glyph-name="tilde" unicode="&#x2dc;" horiz-adv-x="467" 
d="M429 704q6 -25 6 -56q0 -51 -33.5 -83t-87.5 -32q-33 0 -80 25.5t-63 25.5t-25.5 -10t-9.5 -26l5 -30h-110q-6 25 -6 56q0 51 33.5 83.5t86.5 32.5q45 0 97 -23.5t62 -23.5q22 0 22 25l-5 36h108z" />
    <glyph glyph-name="hungarumlaut" unicode="&#x2dd;" horiz-adv-x="597" 
d="M200 535l-170 -7l60 183h222zM455 535l-170 -7l60 183h222z" />
    <glyph glyph-name="gravecomb" unicode="&#x300;" 
d="M-200 528l-112 181h215l60 -174z" />
    <glyph glyph-name="acutecomb" unicode="&#x301;" 
d="M-122 535l-159 -7l60 181h211z" />
    <glyph glyph-name="uni0302" unicode="&#x302;" 
d="M-387 528l90 179h184l90 -179l-125 5l-57 70l-57 -70z" />
    <glyph glyph-name="tildecomb" unicode="&#x303;" 
d="M-38 704q6 -25 6 -56q0 -51 -33.5 -83t-87.5 -32q-33 0 -80 25.5t-63 25.5t-25.5 -10t-9.5 -26l5 -30h-110q-6 25 -6 56q0 51 33.5 83.5t86.5 32.5q45 0 97 -23.5t62 -23.5q22 0 22 25l-5 36h108z" />
    <glyph glyph-name="uni0304" unicode="&#x304;" 
d="M-388 555v119h338v-119h-338z" />
    <glyph glyph-name="uni0306" unicode="&#x306;" 
d="M-17 699q0 -80 -47 -126.5t-123 -46.5q-77 0 -124.5 46.5t-47.5 126.5h125q0 -37 11 -52t35 -15t34.5 15t10.5 52h126z" />
    <glyph glyph-name="uni0307" unicode="&#x307;" 
d="M-15 621q0 -47 -32.5 -77t-80.5 -30t-80 30t-32 77t32 77.5t80 30.5t80.5 -30.5t32.5 -77.5z" />
    <glyph glyph-name="uni0308" unicode="&#x308;" 
d="M-313 530q-35 0 -60 24.5t-25 58.5q0 35 25 59.5t60 24.5q34 0 58.5 -24.5t24.5 -59.5t-24 -59t-59 -24zM-96 530q-35 0 -59.5 24.5t-24.5 58.5q0 35 25 59.5t59 24.5q35 0 59.5 -24.5t24.5 -59.5t-24.5 -59t-59.5 -24z" />
    <glyph glyph-name="uni030A" unicode="&#x30a;" 
d="M-149 515q-43 0 -75.5 30t-32.5 72t32.5 72t75.5 30t75.5 -30t32.5 -72t-32.5 -72t-75.5 -30zM-119 617q0 13 -8.5 21.5t-21.5 8.5t-21.5 -8.5t-8.5 -21.5t8.5 -21.5t21.5 -8.5t21.5 8.5t8.5 21.5z" />
    <glyph glyph-name="uni030B" unicode="&#x30b;" 
d="M-397 535l-170 -7l60 183h222zM-142 535l-170 -7l60 183h222z" />
    <glyph glyph-name="uni030C" unicode="&#x30c;" 
d="M-358 707l125 -5l57 -70l57 70l125 5l-90 -179h-184z" />
    <glyph glyph-name="uni0326" unicode="&#x326;" 
d="M-208 -123q0 35 24 59t58 24q37 0 63 -24.5t26 -69.5q0 -41 -12.5 -76.5t-30 -56.5t-35 -36t-29.5 -21l-13 -6l-38 60q8 4 19 11t30.5 24t19.5 30q-34 0 -58 23.5t-24 58.5z" />
    <glyph glyph-name="uni0327" unicode="&#x327;" 
d="M-107 -24q33 -4 55.5 -26.5t22.5 -62.5q0 -47 -36 -72.5t-85 -25.5q-32 0 -60 11.5t-40 23.5l-13 11l41 67q28 -30 69 -30q35 0 35 26q0 37 -84 37l34 76h78z" />
    <glyph glyph-name="uni0328" unicode="&#x328;" 
d="M-38 -166q-5 -6 -14 -14t-38.5 -22t-61.5 -14q-50 0 -80.5 28t-30.5 72q0 32 14 60t34 45t40.5 29t34.5 16l14 5l28 -39q-8 -4 -19.5 -10.5t-30.5 -28.5t-19 -45q0 -20 10.5 -30.5t27.5 -10.5q16 0 28.5 8.5t16.5 16.5l5 9z" />
    <glyph glyph-name="uni0335" unicode="&#x335;" 
d="M-411 245h361v-90h-361v90z" />
    <glyph glyph-name="uni0336" unicode="&#x336;" 
d="M-451 255h431v-100h-431v100z" />
    <glyph glyph-name="uni0337" unicode="&#x337;" 
d="M-405 344l337 189l44 -78l-337 -189z" />
    <glyph glyph-name="uni0338" unicode="&#x338;" 
d="M-109 504h89l-343 -524h-90z" />
    <glyph glyph-name="Wgrave" unicode="&#x1e80;" horiz-adv-x="942" 
d="M395 696l-112 139h222l60 -132zM756 660h191l-180 -660h-215l-59 254q-7 29 -10.5 52t-5.5 45t-3 29h-4q-13 -95 -20 -126l-58 -254h-220l-175 660h191l83 -413q12 -55 16 -81h4q5 29 16 80l86 414h159l85 -414q12 -57 16 -80h4q3 20 16 81z" />
    <glyph glyph-name="wgrave" unicode="&#x1e81;" horiz-adv-x="782" 
d="M476 535l-163 -7l-112 181h215zM593 472h182l-128 -472h-203l-40 163q-9 39 -11 70h-4q-2 -31 -11 -70l-40 -163h-203l-128 472h182l44 -235q4 -19 9 -72h4q6 47 13 72l57 235h150l56 -235q11 -49 14 -72h4q5 47 11 72z" />
    <glyph glyph-name="Wacute" unicode="&#x1e82;" horiz-adv-x="942" 
d="M548 703l-170 -7l60 139h222zM756 660h191l-180 -660h-215l-59 254q-7 29 -10.5 52t-5.5 45t-3 29h-4q-13 -95 -20 -126l-58 -254h-220l-175 660h191l83 -413q12 -55 16 -81h4q5 29 16 80l86 414h159l85 -414q12 -57 16 -80h4q3 20 16 81z" />
    <glyph glyph-name="wacute" unicode="&#x1e83;" horiz-adv-x="782" 
d="M580 709l-112 -174l-159 -7l60 181h211zM593 472h182l-128 -472h-203l-40 163q-9 39 -11 70h-4q-2 -31 -11 -70l-40 -163h-203l-128 472h182l44 -235q4 -19 9 -72h4q6 47 13 72l57 235h150l56 -235q11 -49 14 -72h4q5 47 11 72z" />
    <glyph glyph-name="Wdieresis" unicode="&#x1e84;" horiz-adv-x="942" 
d="M372 700q-34 0 -58 23.5t-24 57.5t24 58t58 24t57.5 -24t23.5 -58t-23.5 -57.5t-57.5 -23.5zM591 700q-34 0 -58 23.5t-24 57.5t24 58t58 24t57.5 -24t23.5 -58t-23.5 -57.5t-57.5 -23.5zM756 660h191l-180 -660h-215l-59 254q-7 29 -10.5 52t-5.5 45t-3 29h-4
q-13 -95 -20 -126l-58 -254h-220l-175 660h191l83 -413q12 -55 16 -81h4q5 29 16 80l86 414h159l85 -414q12 -57 16 -80h4q3 20 16 81z" />
    <glyph glyph-name="wdieresis" unicode="&#x1e85;" horiz-adv-x="782" 
d="M286 530q-35 0 -60 24.5t-25 58.5q0 35 25 59.5t60 24.5q34 0 58.5 -24.5t24.5 -59.5t-24.5 -59t-58.5 -24zM503 530q-35 0 -59.5 24.5t-24.5 58.5q0 35 24.5 59.5t59.5 24.5t59.5 -24.5t24.5 -59.5t-24.5 -59t-59.5 -24zM593 472h182l-128 -472h-203l-40 163
q-9 39 -11 70h-4q-2 -31 -11 -70l-40 -163h-203l-128 472h182l44 -235q4 -19 9 -72h4q6 47 13 72l57 235h150l56 -235q11 -49 14 -72h4q5 47 11 72z" />
    <glyph glyph-name="Ygrave" unicode="&#x1ef2;" horiz-adv-x="611" 
d="M395 703l-170 -7l-112 139h222zM617 660l-218 -422v-238h-187v237l-219 423h202l81 -187q23 -55 30 -81h4q8 32 29 81l80 187h198z" />
    <glyph glyph-name="ygrave" unicode="&#x1ef3;" horiz-adv-x="533" 
d="M193 528l-112 181h215l60 -174zM351 -44q-28 -75 -83.5 -120.5t-138.5 -45.5q-28 0 -53.5 5.5t-37.5 10.5l-11 6l24 132q29 -15 62 -15q55 0 78 40l2 3l-191 500h190l67 -235q8 -31 14 -72h4q10 56 14 72l60 235h180z" />
    <glyph glyph-name="uni1EF8" unicode="&#x1ef8;" horiz-adv-x="611" 
d="M232 694h-110q-6 19 -6 49q0 52 33 82.5t87 30.5q48 0 99 -23.5t60 -23.5q22 0 22 25l-5 36h108q6 -25 6 -56q0 -51 -33.5 -83t-87.5 -32q-33 0 -80 25.5t-63 25.5t-25.5 -9.5t-9.5 -25.5zM617 660l-218 -422v-238h-187v237l-219 423h202l81 -187q23 -55 30 -81h4
q8 32 29 81l80 187h198z" />
    <glyph glyph-name="uni1EF9" unicode="&#x1ef9;" horiz-adv-x="533" 
d="M459 704q6 -25 6 -56q0 -51 -33.5 -83t-87.5 -32q-33 0 -80 25.5t-63 25.5t-25.5 -10t-9.5 -26l5 -30h-110q-6 25 -6 56q0 51 33.5 83.5t86.5 32.5q45 0 97 -23.5t62 -23.5q22 0 22 25l-5 36h108zM351 -44q-28 -75 -83.5 -120.5t-138.5 -45.5q-28 0 -53.5 5.5t-37.5 10.5
l-11 6l24 132q29 -15 62 -15q55 0 78 40l2 3l-191 500h190l67 -235q8 -31 14 -72h4q10 56 14 72l60 235h180z" />
    <glyph glyph-name="endash" unicode="&#x2013;" horiz-adv-x="490" 
d="M50 211v120h390v-120h-390z" />
    <glyph glyph-name="emdash" unicode="&#x2014;" horiz-adv-x="765" 
d="M50 211v120h665v-120h-665z" />
    <glyph glyph-name="quoteleft" unicode="&#x2018;" horiz-adv-x="257" 
d="M230 398q0 -41 -26.5 -67.5t-68.5 -26.5q-45 0 -77.5 30t-32.5 92q0 51 14.5 94.5t35 68.5t41 43t34.5 24l15 7l54 -69q-10 -5 -25 -13.5t-40 -36t-25 -54.5q44 0 72.5 -26t28.5 -66z" />
    <glyph glyph-name="quoteright" unicode="&#x2019;" horiz-adv-x="255" 
d="M27 574q0 41 26.5 67.5t68.5 26.5q45 0 77.5 -30t32.5 -92q0 -51 -14.5 -94.5t-35 -68.5t-41 -43t-35.5 -24l-14 -7l-54 69q10 5 25 13.5t40 36t25 54.5q-44 0 -72.5 26t-28.5 66z" />
    <glyph glyph-name="quotesinglbase" unicode="&#x201a;" horiz-adv-x="262" 
d="M27 86q0 41 26.5 67.5t68.5 26.5q45 0 77.5 -30t32.5 -92q0 -51 -14.5 -94.5t-35 -68.5t-41 -43t-35.5 -24l-14 -7l-54 69q10 5 25 13.5t40 36t25 54.5q-44 0 -72.5 26t-28.5 66z" />
    <glyph glyph-name="quotedblleft" unicode="&#x201c;" horiz-adv-x="485" 
d="M230 403q0 -41 -26.5 -67.5t-68.5 -26.5q-45 0 -77.5 30t-32.5 92q0 51 14.5 94.5t35 68.5t41 43t34.5 25l15 6l54 -69q-10 -5 -25 -13.5t-40 -36t-25 -54.5q44 0 72.5 -26t28.5 -66zM458 403q0 -41 -26.5 -67.5t-68.5 -26.5q-45 0 -77.5 30t-32.5 92q0 51 14.5 94.5
t35 68.5t41 43t34.5 25l15 6l54 -69q-10 -5 -25 -13.5t-40 -36t-25 -54.5q44 0 72.5 -26t28.5 -66z" />
    <glyph glyph-name="quotedblright" unicode="&#x201d;" horiz-adv-x="483" 
d="M122 668q45 0 77.5 -30t32.5 -92q0 -51 -14.5 -94.5t-35 -68.5t-41 -43t-35.5 -24l-14 -7l-54 69q10 5 25 13.5t40 36t25 54.5q-44 0 -72.5 26t-28.5 66q0 41 26.5 67.5t68.5 26.5zM350 668q45 0 77.5 -30t32.5 -92q0 -51 -14.5 -94.5t-35 -68.5t-41 -43t-35.5 -24
l-14 -7l-54 69q10 5 25 13.5t40 36t25 54.5q-44 0 -72.5 26t-28.5 66q0 41 26.5 67.5t68.5 26.5z" />
    <glyph glyph-name="quotedblbase" unicode="&#x201e;" horiz-adv-x="500" 
d="M27 86q0 41 26.5 67.5t68.5 26.5q45 0 77.5 -30t32.5 -92q0 -51 -14.5 -94.5t-35 -68.5t-41 -43t-35.5 -24l-14 -7l-54 69q10 5 25 13.5t40 36t25 54.5q-44 0 -72.5 26t-28.5 66zM265 86q0 41 26.5 67.5t68.5 26.5q45 0 77.5 -30t32.5 -92q0 -51 -14.5 -94.5t-35 -68.5
t-41 -43t-35.5 -24l-14 -7l-54 69q10 5 25 13.5t40 36t25 54.5q-44 0 -72.5 26t-28.5 66z" />
    <glyph glyph-name="dagger" unicode="&#x2020;" horiz-adv-x="410" 
d="M375 362l-110 4l-4 -143l13 -427h-137l12 427l-4 144l-110 -5v110l107 -4l-5 192h137l-6 -192l107 4v-110z" />
    <glyph glyph-name="daggerdbl" unicode="&#x2021;" horiz-adv-x="410" 
d="M375 362l-112 5l-3 -135l3 -125l112 5v-110l-112 5l10 -211h-137l10 211l-111 -5v110l111 -5l2 125l-1 135l-112 -5v110l112 -5l-11 193h137l-10 -193l112 5v-110z" />
    <glyph glyph-name="bullet" unicode="&#x2022;" horiz-adv-x="405" 
d="M358 290q0 -64 -45.5 -109.5t-110.5 -45.5q-64 0 -109.5 45.5t-45.5 109.5q0 65 45.5 110.5t109.5 45.5t110 -46t46 -110z" />
    <glyph glyph-name="ellipsis" unicode="&#x2026;" horiz-adv-x="727" 
d="M27 89q0 40 27.5 68t67.5 28t68 -28t28 -68t-28 -67.5t-68 -27.5t-67.5 27.5t-27.5 67.5zM268 89q0 40 27.5 68t67.5 28t68 -28t28 -68t-28 -67.5t-68 -27.5t-67.5 27.5t-27.5 67.5zM509 89q0 40 27.5 68t67.5 28t68 -28t28 -68t-28 -67.5t-68 -27.5t-67.5 27.5
t-27.5 67.5z" />
    <glyph glyph-name="perthousand" unicode="&#x2030;" horiz-adv-x="1371" 
d="M254 0l306 668h133l-305 -668h-134zM213 290q-85 0 -137.5 51.5t-52.5 135.5q0 85 52.5 137t137.5 52t137.5 -52t52.5 -137q0 -84 -52.5 -135.5t-137.5 -51.5zM213 406q26 0 42.5 19.5t16.5 51.5q0 33 -16.5 52.5t-42.5 19.5t-42.5 -19.5t-16.5 -52.5q0 -32 16.5 -51.5
t42.5 -19.5zM737 -4q-85 0 -137.5 51.5t-52.5 135.5q0 85 52.5 137t137.5 52t137.5 -52t52.5 -137q0 -84 -52.5 -135.5t-137.5 -51.5zM1157 -4q-85 0 -137.5 51.5t-52.5 135.5q0 85 52.5 137t137.5 52t137.5 -52t52.5 -137q0 -84 -52.5 -135.5t-137.5 -51.5zM737 112
q26 0 42.5 19.5t16.5 51.5q0 33 -16.5 52.5t-42.5 19.5t-42.5 -19.5t-16.5 -52.5q0 -32 16.5 -51.5t42.5 -19.5zM1157 112q26 0 42.5 19.5t16.5 51.5q0 33 -16.5 52.5t-42.5 19.5t-42.5 -19.5t-16.5 -52.5q0 -32 16.5 -51.5t42.5 -19.5z" />
    <glyph glyph-name="guilsinglleft" unicode="&#x2039;" horiz-adv-x="310" 
d="M30 197v135l172 143l83 -93l-137 -118l137 -117l-83 -93z" />
    <glyph glyph-name="guilsinglright" unicode="&#x203a;" horiz-adv-x="310" 
d="M108 54l-83 93l137 117l-137 118l83 93l172 -143v-135z" />
    <glyph glyph-name="fraction" unicode="&#x2044;" horiz-adv-x="377" 
d="M-3 0l220 727h165l-219 -727h-166z" />
    <glyph glyph-name="Euro" unicode="&#x20ac;" horiz-adv-x="740" 
d="M447 153q93 0 156 88l110 -116q-38 -53 -105 -93t-166 -40q-118 0 -202.5 60t-114.5 166h-100l20 94h65v18v8h-85l20 94h77q28 110 113.5 173t206.5 63q100 0 167.5 -38t103.5 -88l-110 -116q-58 81 -152 81q-40 0 -74.5 -19t-54.5 -56h207l-20 -94h-210v-8q0 -12 1 -18
h203l-20 -94h-155q40 -65 119 -65z" />
    <glyph glyph-name="trademark" unicode="&#x2122;" horiz-adv-x="727" 
d="M27 569v91h261v-91h-83v-187h-96v187h-82zM555 660h120v-278h-98l4 140l-52 -140h-75l-50 140l4 -140h-97v278h119l63 -161z" />
    <glyph glyph-name="minus" unicode="&#x2212;" horiz-adv-x="481" 
d="M47 181v110h387v-110h-387z" />
    <glyph glyph-name="uni2215" unicode="&#x2215;" horiz-adv-x="446" 
d="M-9 0l302 726h165l-301 -726h-166z" />
    <glyph glyph-name="uni2219" unicode="&#x2219;" horiz-adv-x="343" 
d="M172 197q-34 0 -58 23.5t-24 57.5t24 58t58 24t57.5 -24t23.5 -58t-23.5 -57.5t-57.5 -23.5z" />
    <glyph glyph-name="approxequal" unicode="&#x2248;" horiz-adv-x="534" 
d="M50 249v117q45 33 110 33q43 0 107.5 -20t106.5 -20q67 0 110 30v-117q-50 -33 -110 -33q-42 0 -106.5 20t-107.5 20q-67 0 -110 -30zM50 72v117q45 33 110 33q43 0 107.5 -20t106.5 -20q67 0 110 30v-117q-50 -33 -110 -33q-42 0 -106.5 20t-107.5 20q-67 0 -110 -30z
" />
    <glyph glyph-name="notequal" unicode="&#x2260;" horiz-adv-x="506" 
d="M460 279h-153l-29 -98h182v-110h-215l-21 -71h-86l21 71h-113v110h146l30 98h-176v110h209l25 83h85l-25 -83h120v-110z" />
    <glyph glyph-name="uniF8FF" unicode="&#xf8ff;" horiz-adv-x="1451" 
d="M691 583q0 26 17.5 44t43.5 18t44 -18t18 -44t-18 -43.5t-44 -17.5t-43.5 18t-17.5 43zM219 270h-119q0 134 9 314h100q10 -200 10 -314zM694 270q0 92 3 147h-61l3 -65q4 -4 15 -4q13 0 18 5v-74q-14 -15 -68 -15q-82 0 -82 66q0 12 2 49t2 38h-22v79l119 30l1 -17h178
q10 -64 10 -239h-118zM328 265q-92 0 -92 114q0 135 134 135q124 0 124 -117v-127h-83l-8 61q-6 -33 -23.5 -49.5t-51.5 -16.5zM1090 270h-114q0 26 1 56t1 37q0 29 -15 29q-18 0 -18 -29q0 -7 1.5 -37t1.5 -56h-114q0 175 10 239h80q6 -44 6 -76q2 15 6.5 30t24 33t49.5 18
q42 0 58.5 -25t18.5 -81zM1351 391q0 -126 -123 -126q-122 0 -122 124q0 125 124 125q121 0 121 -123zM390 375q0 26 -24 26q-22 0 -22 -26q0 -30 22 -30q24 0 24 30zM1251 375q0 26 -23 26q-21 0 -21 -26q0 -30 21 -30q23 0 23 30zM428 238h104q10 -52 10 -138
q0 -81 -33.5 -115.5t-118.5 -34.5q-61 0 -88 17v83q24 -16 70 -16q21 0 34 6t16.5 11.5t3.5 10.5q-16 -11 -49 -11q-90 0 -90 83v13h-55l3 -65q6 -4 15 -4q13 0 18 5v-73q-19 -15 -68 -15q-45 0 -63 17t-18 54q0 39 3 81h-18v80l117 29l-1 -18h177v-119q0 -16 3 -21.5
t12 -5.5q16 0 16 27v119zM733 243q37 0 58.5 -29t21.5 -84q0 -135 -137 -135q1 -15 1 -39h-119q0 142 10 282h78q7 -42 7 -76q17 81 80 81zM1070 127q0 -21 -3 -35h-124q11 -18 50 -18q34 0 55 12v-75q-23 -16 -78 -16q-141 0 -141 122q0 59 32.5 92.5t92.5 33.5
q55 0 85.5 -30t30.5 -86zM978 109q3 27 -17 27q-23 0 -23 -27h40zM670 72q5 0 12.5 2.5t16 11.5t8.5 23q0 23 -20 23q-22 0 -22 -31q0 -14 5 -29zM1074 13q0 -23 24 -23t24 23t-24 23t-24 -23zM1080 13q0 18 18 18t18 -18t-18 -18t-18 18zM1108 2l-6 9q7 0 7 7t-10 7h-11
v-23h5v9h5l4 -9h6zM1100 15h-7v6h7q4 0 4 -3t-4 -3z" />
    <glyph glyph-name="i.loclTRK" horiz-adv-x="266" 
d="M237 621q0 -47 -32.5 -77t-80.5 -30t-80 30t-32 77t32 77.5t80 30.5t80.5 -30.5t32.5 -77.5zM43 0v472l180 5v-477h-180z" />
    <glyph glyph-name="uni0306.case.001" 
d="M-17 680q0 -68 -47.5 -112t-122.5 -44q-76 0 -124 44t-48 112h125q0 -50 46 -50q45 0 45 50h126z" />
    <glyph glyph-name="caroncomb.alt" 
d="M-198 373q0 31 21.5 53t52.5 22q34 0 59 -23t25 -68q0 -39 -10 -73.5t-25 -55.5t-29.5 -36t-24.5 -22l-10 -6l-39 56q57 45 57 78q-33 0 -55 21.5t-22 53.5z" />
    <glyph glyph-name="acutecomb.case" 
d="M-122 535l-170 -7l60 139h222z" />
    <glyph glyph-name="uni0306.case" 
d="M-17 680q0 -68 -47.5 -112t-122.5 -44q-76 0 -124 44t-48 112h125q0 -50 46 -50q45 0 45 50h126z" />
    <glyph glyph-name="uni030C.case" 
d="M-387 682l125 -5l57 -50l57 50l125 5l-90 -149h-184z" />
    <glyph glyph-name="uni0302.case" 
d="M-113 677l90 -149l-125 5l-57 50l-57 -50l-125 -5l90 149h184z" />
    <glyph glyph-name="uni0308.case" 
d="M-314 532q-34 0 -58 23.5t-24 57.5t24 58t58 24t57.5 -24t23.5 -58t-23.5 -57.5t-57.5 -23.5zM-95 532q-34 0 -58 23.5t-24 57.5t24 58t58 24t57.5 -24t23.5 -58t-23.5 -57.5t-57.5 -23.5z" />
    <glyph glyph-name="uni0307.case" 
d="M-128 525q-43 0 -72.5 27.5t-29.5 69.5t29.5 70t72.5 28t73 -28t30 -70t-30 -69.5t-73 -27.5z" />
    <glyph glyph-name="gravecomb.case" 
d="M-200 528l-112 139h222l60 -132z" />
    <glyph glyph-name="uni030B.case" 
d="M-331 535l-140 -7l60 139h192zM-111 535l-140 -7l60 139h192z" />
    <glyph glyph-name="uni0304.case" 
d="M-398 541v119h358v-119h-358z" />
    <glyph glyph-name="uni030A.case" 
d="M-149 515q-43 0 -75.5 30t-32.5 72t32.5 72t75.5 30t75.5 -30t32.5 -72t-32.5 -72t-75.5 -30zM-119 617q0 13 -8.5 21.5t-21.5 8.5t-21.5 -8.5t-8.5 -21.5t8.5 -21.5t21.5 -8.5t21.5 8.5t8.5 21.5z" />
    <glyph glyph-name="uni0338.case" 
d="M63 716l-472 -732h-136l473 732h135z" />
    <glyph glyph-name="uni0337.case" 
d="M-494 339l409 228l58 -98l-409 -228z" />
    <glyph glyph-name="tildecomb.case" 
d="M-38 694q6 -25 6 -56q0 -51 -33.5 -83t-87.5 -32q-33 0 -80 25.5t-63 25.5t-25.5 -9.5t-9.5 -25.5l5 -21h-110q-6 19 -6 49q0 52 33 82.5t87 30.5q48 0 99 -23.5t60 -23.5q22 0 22 25l-5 36h108z" />
    <glyph glyph-name="caron.alt" horiz-adv-x="239" 
d="M196 363q0 -38 -11 -69t-27 -48.5t-32.5 -30t-27.5 -17.5l-11 -4l-34 54q61 24 62 50q-31 0 -52.5 22t-21.5 53t21.5 53t52.5 22q33 0 57 -22t24 -63z" />
    <glyph glyph-name="acute.case" horiz-adv-x="322" 
d="M200 535l-170 -7l60 139h222z" />
    <glyph glyph-name="breve.case" horiz-adv-x="376" 
d="M359 680q0 -68 -47.5 -112t-122.5 -44q-76 0 -124 44t-48 112h125q0 -50 46 -50q45 0 45 50h126z" />
    <glyph glyph-name="caron.case" horiz-adv-x="407" 
d="M20 682l125 -5l57 -50l57 50l125 5l-90 -149h-184z" />
    <glyph glyph-name="circumflex.case" horiz-adv-x="407" 
d="M294 677l90 -149l-125 5l-57 50l-57 -50l-125 -5l90 149h184z" />
    <glyph glyph-name="dieresis.case" horiz-adv-x="416" 
d="M102 532q-34 0 -58 23.5t-24 57.5t24 58t58 24t57.5 -24t23.5 -58t-23.5 -57.5t-57.5 -23.5zM321 532q-34 0 -58 23.5t-24 57.5t24 58t58 24t57.5 -24t23.5 -58t-23.5 -57.5t-57.5 -23.5z" />
    <glyph glyph-name="dotaccent.case" horiz-adv-x="255" 
d="M127 525q-43 0 -72.5 27.5t-29.5 69.5t29.5 70t72.5 28t73 -28t30 -70t-30 -69.5t-73 -27.5z" />
    <glyph glyph-name="grave.case" horiz-adv-x="322" 
d="M122 528l-112 139h222l60 -132z" />
    <glyph glyph-name="hungarumlaut.case" horiz-adv-x="501" 
d="M170 535l-140 -7l60 139h192zM390 535l-140 -7l60 139h192z" />
    <glyph glyph-name="macron.case" horiz-adv-x="438" 
d="M40 541v119h358v-119h-358z" />
    <glyph glyph-name="ring.case" horiz-adv-x="298" 
d="M149 515q-43 0 -75.5 30t-32.5 72t32.5 72t75.5 30t75.5 -30t32.5 -72t-32.5 -72t-75.5 -30zM179 617q0 13 -8.5 21.5t-21.5 8.5t-21.5 -8.5t-8.5 -21.5t8.5 -21.5t21.5 -8.5t21.5 8.5t8.5 21.5z" />
    <glyph glyph-name="tilde.case" horiz-adv-x="467" 
d="M429 694q6 -25 6 -56q0 -51 -33.5 -83t-87.5 -32q-33 0 -80 25.5t-63 25.5t-25.5 -9.5t-9.5 -25.5l5 -21h-110q-6 19 -6 49q0 52 33 82.5t87 30.5q48 0 99 -23.5t60 -23.5q22 0 22 25l-5 36h108z" />
    <glyph glyph-name="Rem" horiz-adv-x="533" 
 />
    <glyph glyph-name="IJacute" horiz-adv-x="795" 
d="M225 703l-170 -7l60 139h222zM701 703l-170 -7l60 139h222zM56 0v660h182v-660h-182zM390 193q27 -38 72 -38q39 0 57 19t18 62v424h187v-425q0 -116 -68.5 -178.5t-189.5 -62.5q-106 0 -183 71z" />
    <glyph glyph-name="ijacute" horiz-adv-x="550" 
d="M217 533l-159 -7l60 181h211zM516 533l-159 -7l60 181h211zM43 0v472l180 5v-477h-180zM232 -50q13 -8 34 -8q61 0 61 86v444l180 5v-457q0 -106 -52 -168t-160 -62q-37 0 -65 8.5t-38 17.5l-10 8z" />
    <glyph glyph-name="commaccent" horiz-adv-x="600" 
 />
    </font>
</defs>
</svg>
