<?xml version="1.0" standalone="no"?>
<!DOCTYPE svg PUBLIC "-//W3C//DTD SVG 1.1//EN" "http://www.w3.org/Graphics/SVG/1.1/DTD/svg11.dtd" >
<svg xmlns="http://www.w3.org/2000/svg" xmlns:xlink="http://www.w3.org/1999/xlink" version="1.1">
<metadata>
Created by FontForge 20170731 at Mon Jul 18 17:13:05 2016
 By Aleksey,,,
Copyright (c) 2016 by Daniel Hernandez. All rights reserved.
</metadata>
<defs>
<font id="BasicSans-Regular" horiz-adv-x="0" >
  <font-face 
    font-family="BasicSans-Regular"
    font-weight="400"
    font-stretch="normal"
    units-per-em="1000"
    panose-1="0 0 5 0 0 0 0 0 0 0"
    ascent="773"
    descent="-227"
    x-height="472"
    cap-height="660"
    bbox="-541 -250 1351 932"
    underline-thickness="50"
    underline-position="-150"
    unicode-range="U+0020-FB02"
  />
<missing-glyph horiz-adv-x="414" 
 />
    <glyph glyph-name="fi" unicode="fi" horiz-adv-x="597" 
d="M194 472h229l89 3v-475h-89v401h-229v-401h-88v401h-70v71h70v58q0 82 48.5 132t127.5 50q64 0 106 -25l-31 -70q-38 21 -67 21q-46 0 -71 -28.5t-25 -77.5v-60zM470 685q26 0 44 -17.5t18 -42.5t-18 -42t-44 -17t-43.5 17t-17.5 42t17.5 42.5t43.5 17.5z" />
    <glyph glyph-name="fl" unicode="fl" horiz-adv-x="598" 
d="M106 530q0 82 48.5 132t127.5 50q64 0 106 -25l-31 -70q-38 21 -67 21q-46 0 -71 -28.5t-25 -77.5v-60h161v-71h-161v-401h-88v401h-70v71h70v58zM439 706h88v-706h-88v706z" />
    <glyph glyph-name=".notdef" horiz-adv-x="414" 
 />
    <glyph glyph-name=".null" 
 />
    <glyph glyph-name="nonmarkingreturn" horiz-adv-x="333" 
 />
    <glyph glyph-name="space" unicode=" " horiz-adv-x="227" 
 />
    <glyph glyph-name="exclam" unicode="!" horiz-adv-x="248" 
d="M175 668l-13 -471l-76 -3l-10 474h99zM123 98q23 0 39.5 -16t16.5 -39t-16.5 -39.5t-39.5 -16.5t-39.5 16.5t-16.5 39.5q0 22 16.5 38.5t39.5 16.5z" />
    <glyph glyph-name="quotedbl" unicode="&#x22;" horiz-adv-x="295" 
d="M61 526l-3 180h64l-4 -180h-57zM177 526l-3 180h64l-4 -180h-57z" />
    <glyph glyph-name="numbersign" unicode="#" horiz-adv-x="656" 
d="M609 303h-137l-24 -111h138l-14 -60h-137l-29 -132h-77l29 132h-116l-28 -132h-77l29 132h-133l14 60h132l24 111h-133l14 60h132l28 128h76l-28 -128h116l28 128h77l-28 -128h138zM371 192l24 111h-116l-24 -111h116z" />
    <glyph glyph-name="dollar" unicode="$" horiz-adv-x="546" 
d="M507 170q0 -73 -54.5 -120t-146.5 -55v-99h-67v99q-131 9 -210 77l57 71q78 -69 186 -69q68 0 106.5 26t38.5 70q0 48 -37.5 77.5t-90.5 45.5t-106.5 34t-91 57t-37.5 101q0 73 50.5 122t134.5 57v95h67v-94q160 -14 197 -160l-85 -21q-6 36 -41.5 69t-103.5 33
q-58 0 -92.5 -26.5t-34.5 -73.5q0 -28 20 -48t51.5 -33t70.5 -24.5t77.5 -27t70 -37t51.5 -59t20 -87.5z" />
    <glyph glyph-name="percent" unicode="%" horiz-adv-x="872" 
d="M245 0l302 666h85l-301 -666h-86zM202 290q-77 0 -124.5 50.5t-47.5 132.5q0 85 47.5 136.5t124.5 51.5q79 0 126.5 -51.5t47.5 -136.5q0 -83 -47.5 -133t-126.5 -50zM202 367q40 0 64.5 29t24.5 77q0 50 -24.5 80.5t-64.5 30.5q-38 0 -62.5 -31t-24.5 -80q0 -48 24 -77
t63 -29zM668 -4q-77 0 -124.5 50.5t-47.5 132.5q0 85 47.5 136.5t124.5 51.5q79 0 126.5 -51.5t47.5 -136.5q0 -83 -47.5 -133t-126.5 -50zM668 73q40 0 64.5 29t24.5 77q0 50 -24.5 80.5t-64.5 30.5q-38 0 -62.5 -31t-24.5 -80q0 -48 24 -77t63 -29z" />
    <glyph glyph-name="ampersand" unicode="&#x26;" horiz-adv-x="605" 
d="M569 293q0 -117 -65 -196l61 -70l-68 -48l-55 64q-74 -47 -174 -47q-101 0 -163 51.5t-62 132.5q0 119 133 169q-61 69 -61 143q0 71 50 117.5t125 46.5t120.5 -42.5t45.5 -106.5q0 -115 -153 -177l147 -170q39 58 39 159zM290 584q-40 0 -64 -24t-24 -63q0 -53 58 -118
q66 26 90 52.5t24 65.5t-23 63t-61 24zM268 78q71 0 121 26l-168 195q-84 -33 -84 -109q0 -49 36 -80.5t95 -31.5z" />
    <glyph glyph-name="quotesingle" unicode="'" horiz-adv-x="179" 
d="M61 526l-3 180h64l-4 -180h-57z" />
    <glyph glyph-name="parenleft" unicode="(" horiz-adv-x="289" 
d="M196 -244q-6 7 -16 20.5t-36 59.5t-45.5 98t-35.5 135.5t-16 171.5t15.5 170.5t37.5 137t43.5 96.5t36.5 61l16 20l75 -35q-6 -6 -15 -18.5t-32.5 -55t-41.5 -90.5t-33 -125.5t-15 -160.5t14 -159.5t34 -127t40.5 -89.5t34.5 -57l14 -17z" />
    <glyph glyph-name="parenright" unicode=")" horiz-adv-x="288" 
d="M242 241q0 -88 -15.5 -170.5t-37.5 -137t-43.5 -96.5t-37.5 -61l-15 -20l-75 35q6 6 15 18.5t32.5 55t41.5 90.5t32.5 125.5t14.5 160.5t-14 159.5t-34 127t-40 89.5t-34 57l-14 17l75 35q6 -7 16 -20.5t36 -59.5t45.5 -98t35.5 -135.5t16 -171.5z" />
    <glyph glyph-name="asterisk" unicode="*" horiz-adv-x="422" 
d="M251 355l-47 127l-78 -107l-43 31l93 103l-135 15l6 51l132 -29l-55 121l47 21l46 -128l81 114l42 -32l-93 -105l136 -14l-6 -51l-136 27l58 -122z" />
    <glyph glyph-name="plus" unicode="+" horiz-adv-x="463" 
d="M423 278v-65h-158v-173h-67v173h-158v65h158v151h67v-151h158z" />
    <glyph glyph-name="comma" unicode="," horiz-adv-x="237" 
d="M52 49q0 26 17 41t46 15q31 0 50 -21.5t19 -55.5q0 -35 -10.5 -67t-25 -52.5t-29.5 -36.5t-25 -23l-11 -7l-39 48q8 5 19 14.5t29.5 37t18.5 52.5q-25 0 -42 15.5t-17 39.5z" />
    <glyph glyph-name="hyphen" unicode="-" horiz-adv-x="388" 
d="M62 292v66h264v-66h-264z" />
    <glyph glyph-name="period" unicode="." horiz-adv-x="221" 
d="M52 52q0 24 17 41.5t42 17.5q24 0 41 -17.5t17 -41.5t-17 -41t-41 -17q-25 0 -42 17t-17 41z" />
    <glyph glyph-name="slash" unicode="/" horiz-adv-x="414" 
d="M24 -204l279 910h87l-278 -910h-88z" />
    <glyph glyph-name="zero" unicode="0" horiz-adv-x="624" 
d="M310 -6q-124 0 -191 87t-67 248q0 162 67 249.5t191 87.5q126 0 194 -87.5t68 -249.5q0 -161 -68 -248t-194 -87zM310 74q81 0 125.5 66t44.5 189t-44.5 190t-125.5 67q-80 0 -123 -66.5t-43 -190.5q0 -123 43 -189t123 -66z" />
    <glyph glyph-name="one" unicode="1" horiz-adv-x="370" 
d="M194 0v562l-171 -46v87l250 57h12v-660h-91z" />
    <glyph glyph-name="two" unicode="2" horiz-adv-x="556" 
d="M189 74q24 3 58 3h268v-77h-461v73q25 18 78.5 54t82.5 56.5t70 56t62 64.5t37.5 68.5t16.5 81.5q0 60 -36 96t-96 36q-59 0 -95.5 -29.5t-36.5 -78.5q0 -19 5 -31l-89 -14q-6 12 -6 49q0 82 61.5 133t159.5 51q102 0 163.5 -57t61.5 -151q0 -174 -249 -346
q-37 -26 -57 -34z" />
    <glyph glyph-name="three" unicode="3" horiz-adv-x="564" 
d="M273 666q99 0 159 -51.5t60 -135.5q0 -60 -42 -102t-93 -42v-2q57 0 108 -42.5t51 -115.5q0 -79 -64.5 -130t-176.5 -51q-52 0 -96 13t-69 31t-43 36t-25 31l-6 13l73 43q2 -4 6.5 -9.5t19.5 -20.5t32.5 -26.5t46.5 -21t61 -9.5q70 0 109 29t40 80q1 49 -40.5 75
t-123.5 31l-36 2v81l37 2q65 4 102 28.5t37 69.5q0 50 -35 82t-92 32q-56 0 -90.5 -26.5t-34.5 -66.5q0 -19 5 -31l-89 -14q-6 12 -6 49q0 74 59.5 121.5t155.5 47.5z" />
    <glyph glyph-name="four" unicode="4" horiz-adv-x="591" 
d="M460 660v-427h102v-77h-102v-156h-90v156h-345v77l306 427h129zM369 233v290q0 46 2 54l-3 2q-4 -11 -34 -53l-165 -223q-6 -8 -17.5 -24.5t-19.5 -28t-12 -15.5l2 -3q11 1 64 1h183z" />
    <glyph glyph-name="five" unicode="5" horiz-adv-x="559" 
d="M98 660h377v-77h-298l-18 -188l3 -2q45 47 132 47q101 0 163 -61.5t62 -160.5q0 -100 -70 -162t-181 -62q-47 0 -88.5 12.5t-67 30t-44.5 35t-27 30.5l-8 12l75 48q2 -4 6 -9.5t19 -21t32 -27t45 -21t58 -9.5q69 0 114 40t45 104q0 63 -41 102t-107 39q-35 0 -65 -12.5
t-42 -24.5l-12 -13h-90z" />
    <glyph glyph-name="six" unicode="6" horiz-adv-x="583" 
d="M329 421q91 0 151 -58t60 -151q0 -98 -63.5 -158t-165.5 -60q-118 0 -189 85t-71 245q0 154 76 248t200 94t193 -77l-50 -58q-46 55 -137 55q-85 0 -137.5 -71t-52.5 -187v-21l4 -1q2 14 12.5 31t30 37t56 33.5t83.5 13.5zM310 74q61 0 99.5 38t38.5 100q0 58 -38 93
t-100 35q-69 0 -111 -38t-43 -100q32 -128 154 -128z" />
    <glyph glyph-name="seven" unicode="7" horiz-adv-x="501" 
d="M477 660v-77l-254 -583h-94l238 531q20 46 25 51l-2 3q-18 -2 -59 -2h-218v-91h-81v168h445z" />
    <glyph glyph-name="eight" unicode="8" horiz-adv-x="600" 
d="M434 349q55 -19 87.5 -62t32.5 -100q0 -87 -70 -140t-184 -53t-184 53t-70 140q0 57 32.5 100t87.5 62v2q-37 14 -60.5 52t-23.5 86q0 78 60 127.5t158 49.5t158 -49.5t60 -127.5q0 -48 -23.5 -86t-60.5 -52v-2zM300 587q-56 0 -90 -26t-34 -73q0 -44 34 -72t90 -28
t90 28t34 72q0 47 -34 73t-90 26zM300 73q73 0 117 34t44 90q0 51 -44 80.5t-117 29.5t-117 -29.5t-44 -80.5q0 -56 44 -90t117 -34z" />
    <glyph glyph-name="nine" unicode="9" horiz-adv-x="582" 
d="M272 666q118 0 188.5 -85t70.5 -245q0 -154 -75 -248t-199 -94q-127 0 -194 77l51 57q45 -54 136 -54q85 0 137 71t52 187v19l-4 1q-2 -13 -12 -30t-29.5 -36.5t-56.5 -33t-83 -13.5q-91 0 -151 58t-60 151q0 98 63.5 158t165.5 60zM273 319q68 0 110 38.5t43 100.5
q-32 128 -153 128q-60 0 -99 -38.5t-39 -99.5q0 -57 38.5 -93t99.5 -36z" />
    <glyph glyph-name="colon" unicode=":" horiz-adv-x="243" 
d="M63 419q0 24 17 41.5t42 17.5q24 0 41 -17.5t17 -41.5t-17 -41t-41 -17q-25 0 -42 17t-17 41zM63 52q0 24 17 41.5t42 17.5q24 0 41 -17.5t17 -41.5t-17 -41t-41 -17q-25 0 -42 17t-17 41z" />
    <glyph glyph-name="semicolon" unicode=";" horiz-adv-x="265" 
d="M77 419q0 24 17 41.5t42 17.5q24 0 41 -17.5t17 -41.5t-17 -41t-41 -17q-25 0 -42 17t-17 41zM66 49q0 26 17 41t46 15q31 0 50 -21.5t19 -55.5q0 -35 -10.5 -67t-25 -52.5t-29.5 -36.5t-25 -23l-11 -7l-39 48q8 5 19 14.5t29.5 37t18.5 52.5q-25 0 -42 15.5t-17 39.5z
" />
    <glyph glyph-name="less" unicode="&#x3c;" horiz-adv-x="408" 
d="M31 238v71l323 198v-78l-246 -156l246 -155v-78z" />
    <glyph glyph-name="equal" unicode="=" horiz-adv-x="511" 
d="M66 314v65h379v-65h-379zM66 117v64h379v-64h-379z" />
    <glyph glyph-name="greater" unicode="&#x3e;" horiz-adv-x="408" 
d="M54 40v78l245 155l-245 156v78l323 -198v-71z" />
    <glyph glyph-name="question" unicode="?" horiz-adv-x="466" 
d="M227 688q93 0 151 -51t58 -132q0 -41 -19 -75t-46 -58t-53.5 -47.5t-45.5 -54.5t-19 -69v-14l-83 -3v18q-1 49 17 87.5t43.5 62t51.5 44t44 46.5t18 58q0 47 -33 78t-84 31q-48 0 -77.5 -26t-29.5 -68q0 -12 5 -24l-90 -14q-6 18 -6 41q0 77 54.5 123.5t143.5 46.5z
M208 98q23 0 39.5 -16.5t16.5 -39.5t-16.5 -39t-39.5 -16q-22 0 -38.5 16.5t-16.5 38.5q0 23 16 39.5t39 16.5z" />
    <glyph glyph-name="at" unicode="@" horiz-adv-x="870" 
d="M640 42q-45 0 -72.5 24.5t-27.5 64.5v3h-1q-37 -93 -141 -93q-81 0 -130.5 56.5t-49.5 146.5q0 93 51.5 148.5t133.5 55.5q85 0 127 -64v58h87v-301q0 -22 14 -35.5t36 -13.5q47 0 82.5 55t35.5 144q0 139 -92.5 226t-242.5 87q-164 0 -266.5 -100.5t-102.5 -266.5
q0 -154 99.5 -252t258.5 -98q31 0 60 3.5t52 9t44 13t36.5 15.5t28.5 16t22 15.5t15 13.5l9 9l4 4l21 -24q-106 -106 -292 -106q-175 0 -284 107t-109 274q0 179 112 288.5t292 109.5q165 0 267.5 -96t102.5 -248q0 -118 -53 -183.5t-127 -65.5zM418 115q51 0 81.5 37
t30.5 83v19q0 46 -30.5 83t-85.5 37q-48 0 -77 -35.5t-29 -94.5q0 -58 30 -93.5t80 -35.5z" />
    <glyph glyph-name="A" unicode="A" horiz-adv-x="615" 
d="M507 0l-61 164h-277l-61 -164h-94l248 660h91l248 -660h-94zM197 239h221l-89 239q-9 24 -21 69h-2q-12 -45 -21 -69z" />
    <glyph glyph-name="B" unicode="B" horiz-adv-x="608" 
d="M427 347q20 -4 40.5 -14t43.5 -28.5t37.5 -51t14.5 -73.5q0 -85 -58 -132.5t-166 -47.5h-254v660h222q105 0 163.5 -45t58.5 -131q0 -63 -32.5 -95.5t-69.5 -39.5v-2zM437 479q0 104 -142 104h-119v-208h132q62 0 95.5 29t33.5 75zM328 77q65 0 104.5 28.5t39.5 83.5
q0 59 -43 88.5t-113 29.5h-140v-230h152z" />
    <glyph glyph-name="C" unicode="C" horiz-adv-x="637" 
d="M347 666q66 0 116.5 -22.5t78 -57.5t41.5 -71.5t14 -71.5l-86 -14q0 57 -41 107t-122 50q-89 0 -148 -69t-59 -187q0 -128 64 -192t159 -64q111 0 184 100l55 -56q-89 -124 -241 -124q-142 0 -227.5 89.5t-85.5 246.5q0 151 83 243.5t215 92.5z" />
    <glyph glyph-name="D" unicode="D" horiz-adv-x="672" 
d="M285 660q161 0 249.5 -87t88.5 -243q0 -167 -81 -248.5t-223 -81.5h-234v660h200zM318 77q97 0 155 63t58 190q0 125 -63.5 189t-183.5 64h-108v-506h142z" />
    <glyph glyph-name="E" unicode="E" horiz-adv-x="546" 
d="M494 583h-318v-202h283v-77h-283v-227h318v-77h-409v660h409v-77z" />
    <glyph glyph-name="F" unicode="F" horiz-adv-x="512" 
d="M484 583h-308v-210h263v-79h-263v-294h-91v660h399v-77z" />
    <glyph glyph-name="G" unicode="G" horiz-adv-x="665" 
d="M608 326v-326h-55q-8 28 -14 93q-54 -99 -199 -99q-131 0 -211 92.5t-80 243.5t83 243.5t214 92.5q66 0 116.5 -21t78.5 -54t41.5 -68.5t13.5 -69.5l-84 -14q0 56 -41.5 101.5t-123.5 45.5q-88 0 -147 -68.5t-59 -187.5q0 -116 57 -186t155 -70q86 0 133 46.5t47 115.5
v14h-211v76h286z" />
    <glyph glyph-name="H" unicode="H" horiz-adv-x="707" 
d="M531 660h91v-660h-91v304h-355v-304h-91v660h91v-279h355v279z" />
    <glyph glyph-name="I" unicode="I" horiz-adv-x="261" 
d="M85 0v660h91v-660h-91z" />
    <glyph glyph-name="J" unicode="J" horiz-adv-x="464" 
d="M61 130q56 -56 117 -56q57 0 86 27t29 88v471h91v-466q0 -98 -55.5 -149t-150.5 -51q-97 0 -173 69z" />
    <glyph glyph-name="K" unicode="K" horiz-adv-x="585" 
d="M478 1l-228 283h-74v-284h-91v660h91v-299h74l228 299h97l-260 -338l263 -321h-100z" />
    <glyph glyph-name="L" unicode="L" horiz-adv-x="518" 
d="M176 77h329v-77h-420v660h91v-583z" />
    <glyph glyph-name="M" unicode="M" horiz-adv-x="840" 
d="M755 660v-660h-91l2 406q0 66 4 86l-4 1q-14 -52 -25 -75l-191 -420h-56l-198 427q-15 31 -22 68l-4 -1q4 -20 4 -86l2 -406h-91v660h99l200 -438q22 -50 37 -92h2q6 19 38 92l200 438h94z" />
    <glyph glyph-name="N" unicode="N" horiz-adv-x="689" 
d="M604 660v-660h-99l-262 414q-55 88 -70 122l-5 -3q6 -18 6 -118l2 -415h-91v660h101l262 -418q36 -58 67 -120l6 3q-6 84 -6 119l-2 416h91z" />
    <glyph glyph-name="O" unicode="O" horiz-adv-x="716" 
d="M358 666q137 0 223.5 -91.5t86.5 -244.5t-86.5 -244.5t-223.5 -91.5t-223.5 91.5t-86.5 244.5t86.5 244.5t223.5 91.5zM358 74q97 0 157.5 69.5t60.5 186.5t-60.5 186.5t-157.5 69.5q-96 0 -157 -70t-61 -186t61 -186t157 -70z" />
    <glyph glyph-name="P" unicode="P" horiz-adv-x="584" 
d="M293 660q124 0 191.5 -58t67.5 -165t-64.5 -165.5t-183.5 -58.5h-128v-213h-91v660h208zM290 290q82 0 126 38t44 109q0 70 -45 108t-128 38h-111v-293h114z" />
    <glyph glyph-name="Q" unicode="Q" horiz-adv-x="716" 
d="M668 330q0 -120 -55 -204.5t-150 -115.5q95 -20 185 -25l-17 -71q-170 14 -305 81q-124 11 -201 101.5t-77 233.5q0 153 86.5 244.5t223.5 91.5t223.5 -91.5t86.5 -244.5zM140 330q0 -116 61 -186t157 -70q97 0 157.5 69.5t60.5 186.5t-60.5 186.5t-157.5 69.5
q-96 0 -157 -70t-61 -186z" />
    <glyph glyph-name="R" unicode="R" horiz-adv-x="599" 
d="M578 69l7 -70q-25 -5 -54 -5q-51 0 -85 27t-52.5 65t-36.5 76t-49.5 65t-78.5 27h-53v-254h-91v660h199q242 0 242 -205q0 -67 -40 -114.5t-108 -70.5q28 -16 51 -52t36 -68t37 -57.5t56 -25.5zM176 325h95q72 0 117.5 34.5t45.5 95.5q0 128 -154 128h-104v-258z" />
    <glyph glyph-name="S" unicode="S" horiz-adv-x="556" 
d="M421 484q-6 36 -41.5 69t-103.5 33q-58 0 -92.5 -26.5t-34.5 -73.5q0 -28 20 -48t51.5 -33t70.5 -24.5t77.5 -27t70 -37t51.5 -59t20 -87.5q0 -80 -64.5 -128t-170.5 -48q-80 0 -143.5 23.5t-99.5 54.5l57 71q78 -69 186 -69q68 0 106.5 26t38.5 70q0 48 -37.5 77.5
t-91 45.5t-106.5 34t-90.5 57t-37.5 101q0 81 61 131t158 50q189 0 230 -161z" />
    <glyph glyph-name="T" unicode="T" horiz-adv-x="541" 
d="M225 0v583h-212v77h515v-77h-212v-583h-91z" />
    <glyph glyph-name="U" unicode="U" horiz-adv-x="683" 
d="M513 660h91v-405q0 -117 -72.5 -189t-189.5 -72q-118 0 -190.5 71.5t-72.5 189.5v405h91v-403q0 -86 47 -134.5t125 -48.5q77 0 124 48.5t47 132.5v405z" />
    <glyph glyph-name="V" unicode="V" horiz-adv-x="607" 
d="M112 660l170 -478q9 -24 21 -69h2q9 33 22 69l172 478h94l-246 -660h-89l-242 660h96z" />
    <glyph glyph-name="W" unicode="W" horiz-adv-x="904" 
d="M795 660h91l-189 -660h-100l-122 437q-15 52 -21 95h-2q-5 -37 -22 -95l-128 -437h-96l-188 660h94l124 -478l19 -79h2q16 67 19 79l135 478h85l135 -478q5 -17 19 -79h2l19 79z" />
    <glyph glyph-name="X" unicode="X" horiz-adv-x="596" 
d="M582 660l-223 -334l223 -326h-104l-133 195q-26 39 -46 83h-2q-21 -45 -47 -83l-135 -195h-100l221 325l-221 335h109l130 -205q33 -55 43 -78h2q12 29 44 78l134 205h105z" />
    <glyph glyph-name="Y" unicode="Y" horiz-adv-x="579" 
d="M564 660l-228 -418v-242h-91v237l-231 423h98l145 -261q27 -49 34 -83h2q4 31 33 83l144 261h94z" />
    <glyph glyph-name="Z" unicode="Z" horiz-adv-x="567" 
d="M35 0v77l344 454q26 34 42 52l-2 3q-39 -3 -71 -3h-303v77h484v-77l-341 -454q-3 -4 -45 -52l2 -3q11 3 71 3h309v-77h-490z" />
    <glyph glyph-name="bracketleft" unicode="[" horiz-adv-x="322" 
d="M80 -204v910h212v-77h-124v-756h124v-77h-212z" />
    <glyph glyph-name="backslash" unicode="\" horiz-adv-x="414" 
d="M390 -204h-88l-278 910h87z" />
    <glyph glyph-name="bracketright" unicode="]" horiz-adv-x="322" 
d="M30 -204v77h124v756h-124v77h212v-910h-212z" />
    <glyph glyph-name="asciicircum" unicode="^" horiz-adv-x="373" 
d="M41 518l96 205h99l96 -205h-79l-67 138l-66 -138h-79z" />
    <glyph glyph-name="underscore" unicode="_" horiz-adv-x="368" 
d="M0 -125v65h368v-65h-368z" />
    <glyph glyph-name="grave" unicode="`" horiz-adv-x="272" 
d="M151 543l-92 155h114l57 -150z" />
    <glyph glyph-name="a" unicode="a" horiz-adv-x="534" 
d="M497 75l5 -74q-23 -6 -48 -6q-39 0 -62 19.5t-23 58.5v1h-2q-43 -80 -164 -80q-76 0 -118 36t-42 95q0 76 74 110t232 34h14v30q0 49 -30 77t-87 28q-51 0 -79.5 -20t-28.5 -56q0 -12 5 -24l-83 -14q-6 18 -6 41q0 65 52.5 106t141.5 41q95 0 149 -48t54 -130v-191
q0 -20 6.5 -28t22.5 -8q9 0 17 2zM221 68q65 0 103.5 29.5t38.5 65.5v45h-14q-117 0 -166.5 -20t-49.5 -61q0 -59 88 -59z" />
    <glyph glyph-name="b" unicode="b" horiz-adv-x="591" 
d="M324 478q100 0 162.5 -67t62.5 -176t-63 -175t-167 -66q-67 0 -111.5 31t-63.5 82q2 -42 -12 -107h-62v706h88v-315q53 87 166 87zM314 68q66 0 105.5 46t39.5 121q0 76 -41 122.5t-110 46.5q-70 0 -110 -50t-40 -109v-19q0 -61 40.5 -109.5t115.5 -48.5z" />
    <glyph glyph-name="c" unicode="c" horiz-adv-x="520" 
d="M278 478q89 0 143.5 -46t54.5 -115l-3 -32l-82 -6q2 10 2 25q0 44 -30.5 72t-82.5 28q-67 0 -108 -46.5t-41 -122.5t41.5 -121.5t115.5 -45.5q93 0 145 63l52 -56q-67 -81 -200 -81q-110 0 -177 66t-67 173q0 108 66.5 176.5t170.5 68.5z" />
    <glyph glyph-name="d" unicode="d" horiz-adv-x="591" 
d="M433 706h88v-706l-65 -3q-11 72 -9 110h-3q-22 -51 -67 -82t-110 -31q-100 0 -162.5 67t-62.5 176t63 175t167 66q107 0 161 -80v308zM283 68q70 0 110 50t40 109v19q0 61 -40.5 109.5t-115.5 48.5q-66 0 -105.5 -46t-39.5 -121q0 -76 41 -122.5t110 -46.5z" />
    <glyph glyph-name="e" unicode="e" horiz-adv-x="531" 
d="M487 212h-354q7 -66 49.5 -105t112.5 -39q87 0 134 62l54 -49q-66 -87 -195 -87q-113 0 -179.5 66t-66.5 175q0 107 64 175t170 68q101 0 158 -62.5t57 -158.5zM276 404q-56 0 -93.5 -35.5t-47.5 -93.5h266q-1 59 -35 94t-90 35z" />
    <glyph glyph-name="f" unicode="f" horiz-adv-x="368" 
d="M290 638q-46 0 -71 -28.5t-25 -77.5v-60h161v-71h-161v-401h-88v401h-70v71h70v58q0 82 48.5 132t127.5 50q64 0 106 -25l-31 -70q-38 21 -67 21z" />
    <glyph glyph-name="g" unicode="g" horiz-adv-x="530" 
d="M332 71q85 0 132 -34t47 -99q0 -66 -59.5 -106.5t-186.5 -40.5q-124 0 -186 34t-62 96q0 71 80 100q-46 26 -46 80q0 55 62 79q-56 47 -56 125q0 77 55 124.5t146 47.5q84 0 139 -41q49 23 49 113l75 -16q0 -60 -30 -92.5t-61 -37.5q31 -42 31 -98q0 -77 -55.5 -124.5
t-146.5 -47.5q-44 0 -85 13q-43 -7 -43 -34q0 -23 25.5 -32t77.5 -9h98zM259 404q-51 0 -82 -27t-31 -72t30.5 -72t81.5 -27q52 0 83 27t31 72t-31 72t-82 27zM265 -135q85 0 122 17t37 56q0 34 -26 46t-83 12h-105q-106 0 -106 -62q0 -36 37.5 -52.5t123.5 -16.5z" />
    <glyph glyph-name="h" unicode="h" horiz-adv-x="565" 
d="M316 478q84 0 134 -52t50 -137v-289h-89v289q0 53 -29 84t-81 31q-68 0 -105 -48.5t-37 -109.5v-246h-89v706h87v-317h2q51 89 157 89z" />
    <glyph glyph-name="i" unicode="i" horiz-adv-x="231" 
d="M180 625q0 -25 -18 -42t-44 -17t-43.5 17t-17.5 42t17.5 42.5t43.5 17.5t44 -17.5t18 -42.5zM71 0v472l89 3v-475h-89z" />
    <glyph glyph-name="j" unicode="j" horiz-adv-x="238" 
d="M186 625q0 -25 -18 -42t-44 -17t-43.5 17t-17.5 42t17.5 42.5t43.5 17.5t44 -17.5t18 -42.5zM-61 -119q20 -15 55 -15q84 0 84 93v513l89 3v-499q0 -184 -165 -184q-27 0 -49.5 7t-31.5 14l-9 7z" />
    <glyph glyph-name="k" unicode="k" horiz-adv-x="505" 
d="M395 0l-186 217h-51v-217h-88v706h88v-418h65l162 184h101l-200 -221l220 -251h-111z" />
    <glyph glyph-name="l" unicode="l" horiz-adv-x="230" 
d="M71 0v706h88v-706h-88z" />
    <glyph glyph-name="m" unicode="m" horiz-adv-x="887" 
d="M638 476q84 0 134 -52t50 -137v-287h-89v287q0 53 -29 84t-81 31q-62 0 -97.5 -48.5t-35.5 -106.5v-247h-89v287q0 53 -29 84t-81 31q-62 0 -97.5 -48.5t-35.5 -106.5v-247h-88v472l62 3q12 -54 12 -110q20 49 60.5 80t101.5 31q62 0 106.5 -29t63.5 -81q46 110 162 110z
" />
    <glyph glyph-name="n" unicode="n" horiz-adv-x="564" 
d="M315 478q84 0 134 -52t50 -137v-289h-89v289q0 53 -29 84t-81 31q-68 0 -105 -49t-37 -108v-247h-88v472l62 3q12 -54 12 -110h3q21 49 63 81t105 32z" />
    <glyph glyph-name="o" unicode="o" horiz-adv-x="568" 
d="M284 478q109 0 176 -68t67 -176q0 -107 -67 -173.5t-176 -66.5t-176 66.5t-67 173.5q0 108 67 176t176 68zM284 68q69 0 111 46t42 120t-42.5 122t-110.5 48t-110.5 -48t-42.5 -122t42 -120t111 -46z" />
    <glyph glyph-name="p" unicode="p" horiz-adv-x="591" 
d="M324 478q100 0 162.5 -67t62.5 -176t-63 -175t-167 -66q-106 0 -161 84v-282h-88v676l62 3q14 -66 12 -110h1q21 50 66 81.5t113 31.5zM314 68q66 0 105.5 46t39.5 121q0 76 -41 122.5t-110 46.5q-70 0 -110 -50t-40 -109v-19q0 -61 40.5 -109.5t115.5 -48.5z" />
    <glyph glyph-name="q" unicode="q" horiz-adv-x="591" 
d="M459 472h62v-676h-88v287q-53 -89 -166 -89q-100 0 -162.5 67t-62.5 176t63 175t167 66q65 0 109.5 -31t64.5 -82h1q-2 42 12 107zM283 68q70 0 110 50t40 109v19q0 61 -40.5 109.5t-115.5 48.5q-66 0 -105.5 -46t-39.5 -121q0 -76 41 -122.5t110 -46.5z" />
    <glyph glyph-name="r" unicode="r" horiz-adv-x="345" 
d="M276 478q32 0 61 -8l-22 -89q-18 11 -44 11q-44 0 -78.5 -38t-34.5 -107v-247h-88v472l62 3q12 -54 12 -110h4q33 113 128 113z" />
    <glyph glyph-name="s" unicode="s" horiz-adv-x="471" 
d="M336 303q3 10 3 23q0 36 -29 57t-76 21q-44 0 -68.5 -18t-24.5 -48t29.5 -46.5t71 -24.5t83.5 -19t72 -40.5t31 -79.5q1 -63 -53 -98.5t-142 -35.5q-117 0 -204 71l54 60q21 -20 62 -38.5t89 -18.5q51 0 77.5 16.5t26.5 44.5q0 26 -29.5 41.5t-71.5 24.5t-84.5 21.5
t-72 43t-29.5 79.5q0 59 51.5 99t133.5 40t133.5 -38.5t51.5 -97.5l-4 -33z" />
    <glyph glyph-name="t" unicode="t" horiz-adv-x="404" 
d="M368 96l28 -71q-47 -31 -124 -31q-90 0 -130.5 46.5t-40.5 139.5v221h-75v71h75v140l89 5v-145h183v-71h-183v-218q0 -114 91 -114q24 0 46 6.5t31 13.5z" />
    <glyph glyph-name="u" unicode="u" horiz-adv-x="553" 
d="M395 472h88v-472l-64 -3q-12 54 -12 100h-1q-47 -103 -157 -103q-84 0 -134 52t-50 137v289h89v-289q0 -53 29 -84t81 -31q60 0 95.5 49.5t35.5 107.5v247z" />
    <glyph glyph-name="v" unicode="v" horiz-adv-x="518" 
d="M410 472h90l-193 -472h-96l-195 472h99l130 -330q11 -26 16 -52h2q4 24 15 52z" />
    <glyph glyph-name="w" unicode="w" horiz-adv-x="765" 
d="M653 472h90l-145 -472h-105l-99 327q-5 19 -7 33h-2q-2 -14 -7 -33l-103 -327h-103l-154 472h99l94 -330q4 -15 9.5 -32t6.5 -20h2q1 4 6.5 22t8.5 30l97 330h91l97 -327q3 -10 5.5 -21.5t4.5 -21.5t3 -12h2q8 33 15 55z" />
    <glyph glyph-name="x" unicode="x" horiz-adv-x="483" 
d="M293 238l175 -238h-104l-106 148q-14 18 -15 28h-2q-3 -11 -16 -28l-106 -148h-100l173 233l-177 239h104l99 -141q22 -33 24 -40h2q4 12 22 40l99 141h100z" />
    <glyph glyph-name="y" unicode="y" horiz-adv-x="518" 
d="M279 -84q-48 -125 -158 -125q-20 0 -38.5 3.5t-26.5 7.5l-8 4l16 73q22 -12 51 -12q34 0 53 19t33 55l18 47l-200 484h99l130 -330q11 -26 16 -52h1q3 19 16 52l132 330h90z" />
    <glyph glyph-name="z" unicode="z" horiz-adv-x="462" 
d="M36 0v71l259 302q20 23 25 28l-1 2q-11 -2 -39 -2h-239v71h379v-71l-243 -287q-25 -30 -38 -43l1 -2q10 2 43 2h245v-71h-392z" />
    <glyph glyph-name="braceleft" unicode="{" horiz-adv-x="325" 
d="M294 -210q-80 0 -132.5 40.5t-52.5 135.5v172q0 33 -19 50t-45 17h-10v72h10q26 0 45 17t19 50v191q0 50 15.5 86t42.5 54.5t58 27t69 8.5v-78q-102 0 -102 -112v-196q0 -69 -49 -84q14 -4 31.5 -25.5t17.5 -58.5v-177q0 -112 102 -112v-78z" />
    <glyph glyph-name="bar" unicode="|" horiz-adv-x="236" 
d="M80 -204v901h76v-901h-76z" />
    <glyph glyph-name="braceright" unicode="}" horiz-adv-x="324" 
d="M31 -132q102 0 102 112v177q0 29 11.5 49.5t18 24.5t18.5 10q-6 2 -12.5 6t-15.5 12.5t-14.5 25.5t-5.5 40v197q0 112 -102 112v78q37 0 68 -8.5t58.5 -27t43 -54.5t15.5 -86v-192q0 -33 19 -50t45 -17h10v-72h-10q-26 0 -45 -17t-19 -50v-172q0 -95 -52.5 -135.5
t-132.5 -40.5v78z" />
    <glyph glyph-name="asciitilde" unicode="~" horiz-adv-x="568" 
d="M68 245v62q45 33 110 33q42 0 107 -20t107 -20q67 0 110 30v-62q-50 -33 -110 -33q-42 0 -107 20t-107 20q-67 0 -110 -30z" />
    <glyph glyph-name="exclamdown" unicode="&#xa1;" horiz-adv-x="236" 
d="M119 367q-23 0 -39.5 16t-16.5 39t16.5 39.5t39.5 16.5t39.5 -16.5t16.5 -39.5q0 -22 -16.5 -38.5t-39.5 -16.5zM67 -203l13 468l76 3l10 -471h-99z" />
    <glyph glyph-name="cent" unicode="&#xa2;" horiz-adv-x="527" 
d="M292 68q93 0 145 63l52 -56q-60 -72 -174 -80v-99h-67v101q-93 12 -148 77t-55 161t55 161t148 77v95h67v-93q114 -8 174 -80l-52 -56q-52 63 -145 63q-74 0 -115.5 -45.5t-41.5 -121.5t41.5 -121.5t115.5 -45.5z" />
    <glyph glyph-name="sterling" unicode="&#xa3;" horiz-adv-x="590" 
d="M199 73q18 3 49 3h289v-76h-464v56q4 2 10.5 6.5t24 19t30.5 30.5t23.5 41t10.5 50q0 24 -8 48h-122v61h91q-17 28 -24.5 42t-16.5 42.5t-9 57.5q0 92 67 152t174 60q51 0 93.5 -13.5t66.5 -32.5t41 -38t23 -32l6 -14l-79 -35q-1 3 -4 9t-15 21t-27 26t-43 20.5t-62 9.5
q-66 0 -107.5 -37.5t-41.5 -94.5q0 -16 2.5 -30.5t10.5 -32t11.5 -25t16 -30t14.5 -25.5h218v-61h-191q7 -26 7 -48q0 -33 -16.5 -64.5t-30.5 -45t-20 -17.5z" />
    <glyph glyph-name="currency" unicode="&#xa4;" horiz-adv-x="597" 
d="M113 348q0 53 26 94l-83 82l45 46l82 -81q51 44 117 44t115 -44l82 81l46 -46l-83 -82q28 -46 28 -94q0 -52 -28 -94l81 -79l-46 -46l-80 78q-46 -43 -115 -43q-68 0 -117 44l-83 -83l-46 46l85 84q-26 41 -26 93zM182 348q0 -47 34.5 -81t83.5 -34t83.5 34t34.5 81
q0 48 -34.5 81.5t-83.5 33.5t-83.5 -33.5t-34.5 -81.5z" />
    <glyph glyph-name="yen" unicode="&#xa5;" horiz-adv-x="603" 
d="M576 660l-193 -353h131v-64h-166v-66h166v-64h-166v-113h-91v113h-168v64h168v60l-3 6h-165v64h130l-193 353h98l145 -261q27 -49 34 -83h2q4 31 33 83l144 261h94z" />
    <glyph glyph-name="brokenbar" unicode="&#xa6;" horiz-adv-x="234" 
d="M79 317v380h76v-380h-76zM79 -204v380h76v-380h-76z" />
    <glyph glyph-name="section" unicode="&#xa7;" horiz-adv-x="567" 
d="M456 85q58 -43 58 -123q0 -79 -64.5 -125.5t-171.5 -46.5q-81 0 -143.5 23.5t-99.5 54.5l58 71q72 -69 185 -69q66 0 105 25t39 67q0 44 -36.5 69t-89 37t-105 26t-89 49t-36.5 93q0 74 75 111q-77 46 -80 144q-2 79 59 127t160 48q190 0 231 -160l-85 -23
q-7 38 -42.5 70.5t-103.5 32.5q-57 0 -92 -25.5t-35 -68.5q0 -45 37.5 -71.5t90.5 -39.5t106 -29.5t90.5 -55t37.5 -101.5q0 -75 -59 -110zM152 240q0 -23 13 -39t38.5 -27t50.5 -17.5t63 -16t62 -17.5q44 21 44 72q0 21 -9 37t-21 26t-35 19t-40.5 13.5t-48 11.5t-47.5 12
q-32 -3 -51 -23t-19 -51z" />
    <glyph glyph-name="dieresis" unicode="&#xa8;" horiz-adv-x="359" 
d="M84 573q-22 0 -37.5 15.5t-15.5 37.5t15.5 37.5t37.5 15.5t37 -15.5t15 -37.5t-15 -37.5t-37 -15.5zM276 573q-22 0 -37.5 15.5t-15.5 37.5t15.5 37.5t37.5 15.5t37.5 -15.5t15.5 -37.5t-15.5 -37.5t-37.5 -15.5z" />
    <glyph glyph-name="copyright" unicode="&#xa9;" horiz-adv-x="768" 
d="M383 -5q-151 0 -243 92.5t-92 243.5q0 150 92 242t243 92t244 -92t93 -242q0 -151 -92.5 -243.5t-244.5 -92.5zM383 24q137 0 220.5 84.5t83.5 222.5q0 137 -83.5 221t-220.5 84q-136 0 -219 -84t-83 -221q0 -138 83 -222.5t219 -84.5zM549 176q-2 -3 -5.5 -7.5
t-18 -15.5t-31.5 -20t-46.5 -16t-63.5 -7q-89 0 -144 57.5t-55 151.5q0 102 55 164t145 62q76 0 122 -37t46 -97l-67 -11q0 3 -1 8.5t-6.5 19t-15.5 23.5t-30.5 18.5t-47.5 8.5q-55 0 -88 -42.5t-33 -112.5q0 -66 35.5 -106t93.5 -40q38 0 68.5 12.5t42.5 24.5l11 13z" />
    <glyph glyph-name="ordfeminine" unicode="&#xaa;" horiz-adv-x="471" 
d="M422 355l4 -70q-20 -5 -45 -5q-72 0 -76 61h-1q-34 -62 -127 -62q-61 0 -94.5 28.5t-33.5 76.5q0 63 60.5 90t181.5 27h9v21q0 35 -21.5 55t-61.5 20q-36 0 -56.5 -14.5t-20.5 -39.5q0 -8 4 -16l-80 -14q-5 15 -5 35q0 53 43.5 85.5t117.5 32.5q79 0 122.5 -38.5
t43.5 -107.5v-140q0 -26 22 -26q10 0 14 1zM199 348q46 0 73.5 20.5t27.5 47.5v33h-9q-155 0 -155 -58q0 -43 63 -43z" />
    <glyph glyph-name="guillemotleft" unicode="&#xab;" horiz-adv-x="473" 
d="M42 228v72l147 136l45 -50l-134 -122l134 -121l-45 -51zM232 228v72l147 136l45 -50l-134 -122l134 -121l-45 -51z" />
    <glyph glyph-name="registered" unicode="&#xae;" horiz-adv-x="443" 
d="M221 316q-77 0 -125.5 48.5t-48.5 125.5q0 78 48.5 127t125.5 49t126 -49t49 -127q0 -77 -49 -125.5t-126 -48.5zM221 340q67 0 108 42t41 108q0 68 -41 110t-108 42t-107.5 -41.5t-40.5 -110.5q0 -67 41 -108.5t107 -41.5zM313 384q-5 -1 -12 -1q-17 0 -28.5 12.5
t-17.5 28t-19.5 28t-33.5 12.5h-21v-80h-30v214h75q30 0 48 -17t18 -46q0 -22 -11.5 -36.5t-21.5 -19t-15 -4.5q13 -5 22 -16.5t13 -22t11 -19t17 -8.5h4zM221 491q18 0 30.5 13t12.5 31q0 17 -11.5 27t-30.5 10h-41v-81h40z" />
    <glyph glyph-name="macron" unicode="&#xaf;" horiz-adv-x="386" 
d="M53 592v65h280v-65h-280z" />
    <glyph glyph-name="degree" unicode="&#xb0;" horiz-adv-x="342" 
d="M298 538q0 -56 -35.5 -90.5t-92.5 -34.5q-56 0 -91 34.5t-35 90.5q0 57 35 91.5t91 34.5q57 0 92.5 -34.5t35.5 -91.5zM247 538q0 34 -21.5 55.5t-55.5 21.5t-54.5 -21t-20.5 -56q0 -34 20.5 -55t54.5 -21q35 0 56 21t21 55z" />
    <glyph glyph-name="plusminus" unicode="&#xb1;" horiz-adv-x="509" 
d="M288 359h158v-65h-158v-134h-67v134h-158v65h158v130h67v-130zM63 40v65h383v-65h-383z" />
    <glyph glyph-name="acute" unicode="&#xb4;" horiz-adv-x="272" 
d="M119 548l-80 -5l57 155h114z" />
    <glyph glyph-name="paragraph" unicode="&#xb6;" horiz-adv-x="570" 
d="M423 -199v814h-90v-814h-55v502h-40q-95 0 -153.5 48.5t-58.5 128.5q0 81 58.5 130.5t153.5 49.5h241v-859h-56z" />
    <glyph glyph-name="periodcentered" unicode="&#xb7;" horiz-adv-x="229" 
d="M56 356q0 24 17 41.5t42 17.5q24 0 41 -17.5t17 -41.5t-17 -41t-41 -17q-25 0 -42 17t-17 41z" />
    <glyph glyph-name="cedilla" unicode="&#xb8;" horiz-adv-x="273" 
d="M158 -29q31 -4 55 -24.5t24 -57.5q0 -41 -30 -64.5t-76 -23.5q-27 0 -50.5 9.5t-33.5 19.5l-10 9l25 50q26 -27 68 -27q43 0 43 30q0 40 -92 40l36 83h61z" />
    <glyph glyph-name="ordmasculine" unicode="&#xba;" horiz-adv-x="477" 
d="M238 666q88 0 142.5 -54t54.5 -140t-54.5 -139.5t-142.5 -53.5t-142 53.5t-54 139.5t54 140t142 54zM238 352q48 0 77.5 33t29.5 87t-29.5 88t-77.5 34t-77.5 -34t-29.5 -88t29.5 -87t77.5 -33z" />
    <glyph glyph-name="guillemotright" unicode="&#xbb;" horiz-adv-x="473" 
d="M94 92l-45 51l134 121l-134 122l45 50l147 -136v-72zM284 92l-45 51l134 121l-134 122l45 50l147 -136v-72z" />
    <glyph glyph-name="onequarter" unicode="&#xbc;" horiz-adv-x="836" 
d="M194 0l302 666h85l-301 -666h-86zM151 296v274l-123 -24v79l194 34h14v-363h-85zM735 363v-219h71v-71h-71v-73h-87v73h-204l1 82l197 208h93zM651 144v104q0 28 2 32l-3 2q-2 -5 -21 -26l-78 -85q-13 -16 -29 -26l2 -2q7 1 43 1h84z" />
    <glyph glyph-name="onehalf" unicode="&#xbd;" horiz-adv-x="828" 
d="M194 0l302 666h85l-301 -666h-86zM151 296v274l-123 -24v79l194 34h14v-363h-85zM611 71q4 1 36 1h146v-72h-318v57q16 10 46 28t45.5 27.5t39 25t36 26t26 23.5t19 25.5t5.5 24.5q0 24 -18.5 39t-47.5 15q-30 0 -48.5 -14t-18.5 -36q0 -8 3 -11l-85 -16q-5 13 -5 30
q0 52 41 87.5t113 35.5q71 0 113 -33.5t42 -94.5q0 -27 -11 -49.5t-34 -42t-39.5 -30.5t-46.5 -28q-21 -12 -40 -16z" />
    <glyph glyph-name="threequarters" unicode="&#xbe;" horiz-adv-x="928" 
d="M287 0l302 666h85l-301 -666h-86zM207 663q69 0 111.5 -30.5t42.5 -79.5q0 -33 -22.5 -54t-58.5 -21v-1q38 0 66 -23.5t28 -59.5q0 -46 -44.5 -74t-121.5 -28q-39 0 -72 7.5t-51.5 19t-31.5 22.5t-18 19l-5 7l67 45q4 -5 12 -12.5t36.5 -19.5t60.5 -12q78 0 78 38
q0 15 -20.5 24.5t-56.5 9.5h-45v67h31q79 0 79 35q0 20 -17.5 32.5t-49.5 12.5q-31 0 -50.5 -9.5t-19.5 -22.5q0 -6 2 -10l-86 -14l-1 2q0 2 -0.5 4.5t-1 6.5t-1 8.5t-0.5 9.5q0 45 44 73t116 28zM828 363v-219h71v-71h-71v-73h-87v73h-204l1 82l197 208h93zM744 144v104
q0 28 2 32l-3 2q-2 -5 -21 -26l-78 -85q-13 -16 -29 -26l2 -2q7 1 43 1h84z" />
    <glyph glyph-name="questiondown" unicode="&#xbf;" horiz-adv-x="461" 
d="M255 367q-23 0 -39.5 16.5t-16.5 39.5t16.5 39t39.5 16t39 -16t16 -39t-16 -39.5t-39 -16.5zM236 -223q-93 0 -151 51t-58 132q0 41 19 75t45.5 58t53.5 47.5t46 54.5t19 69v14l83 3v-18q1 -49 -17 -87.5t-43.5 -62t-51.5 -44t-44 -46.5t-18 -58q0 -47 33 -78t84 -31
q48 0 77.5 26t29.5 68q0 12 -5 24l90 14q6 -18 6 -41q0 -77 -54.5 -123.5t-143.5 -46.5z" />
    <glyph glyph-name="Agrave" unicode="&#xc0;" horiz-adv-x="615" 
d="M352 696l-79 -5l-92 125h114zM507 0l-61 164h-277l-61 -164h-94l248 660h91l248 -660h-94zM197 239h221l-89 239q-9 24 -21 69h-2q-12 -45 -21 -69z" />
    <glyph glyph-name="Aacute" unicode="&#xc1;" horiz-adv-x="615" 
d="M435 816l-92 -120l-79 -5l57 125h114zM507 0l-61 164h-277l-61 -164h-94l248 660h91l248 -660h-94zM197 239h221l-89 239q-9 24 -21 69h-2q-12 -45 -21 -69z" />
    <glyph glyph-name="Acircumflex" unicode="&#xc2;" horiz-adv-x="615" 
d="M308 758l-68 -64l-79 -3l98 134h99l98 -134l-79 3zM507 0l-61 164h-277l-61 -164h-94l248 660h91l248 -660h-94zM197 239h221l-89 239q-9 24 -21 69h-2q-12 -45 -21 -69z" />
    <glyph glyph-name="Atilde" unicode="&#xc3;" horiz-adv-x="615" 
d="M206 678h-69q-5 17 -5 39q0 38 25.5 61.5t66.5 23.5q38 0 82 -27.5t55 -27.5q29 0 29 35l-4 29h70q4 -15 4 -41q0 -36 -22.5 -62.5t-64.5 -26.5q-36 0 -82.5 27.5t-58.5 27.5q-14 0 -22 -8.5t-8 -22.5zM507 0l-61 164h-277l-61 -164h-94l248 660h91l248 -660h-94z
M197 239h221l-89 239q-9 24 -21 69h-2q-12 -45 -21 -69z" />
    <glyph glyph-name="Adieresis" unicode="&#xc4;" horiz-adv-x="615" 
d="M216 704q-22 0 -37 15t-15 37q0 21 15 36.5t37 15.5q21 0 36 -15.5t15 -36.5q0 -22 -15 -37t-36 -15zM408 704q-21 0 -36.5 15t-15.5 37q0 21 15.5 36.5t36.5 15.5q22 0 37 -15.5t15 -36.5q0 -22 -15 -37t-37 -15zM507 0l-61 164h-277l-61 -164h-94l248 660h91l248 -660
h-94zM197 239h221l-89 239q-9 24 -21 69h-2q-12 -45 -21 -69z" />
    <glyph glyph-name="Aring" unicode="&#xc5;" horiz-adv-x="615" 
d="M307 677q-35 0 -59 23.5t-24 57.5t24 58t59 24q34 0 58 -24t24 -58t-24 -57.5t-58 -23.5zM307 789q-13 0 -22 -9t-9 -22t9 -22t22 -9q12 0 21.5 9t9.5 22t-9.5 22t-21.5 9zM507 0l-61 164h-277l-61 -164h-94l248 660h91l248 -660h-94zM197 239h221l-89 239q-9 24 -21 69
h-2q-12 -45 -21 -69z" />
    <glyph glyph-name="AE" unicode="&#xc6;" horiz-adv-x="941" 
d="M889 583h-318v-202h283v-77h-283v-227h318v-77h-409v164h-277l-121 -164h-94l488 660h413v-77zM259 239h221v299z" />
    <glyph glyph-name="Ccedilla" unicode="&#xc7;" horiz-adv-x="637" 
d="M603 118q-82 -113 -217 -123l-11 -24q31 -4 55 -24.5t24 -57.5q0 -41 -30 -64.5t-76 -23.5q-27 0 -50.5 9.5t-33.5 19.5l-10 9l25 50q26 -27 68 -27q43 0 43 30q0 40 -92 40l28 64q-127 11 -202 99.5t-75 234.5q0 151 83 243.5t215 92.5q66 0 116.5 -22.5t78 -57.5
t41.5 -71.5t14 -71.5l-86 -14q0 57 -41 107t-122 50q-89 0 -148 -69t-59 -187q0 -128 64 -192t159 -64q111 0 184 100z" />
    <glyph glyph-name="Egrave" unicode="&#xc8;" horiz-adv-x="546" 
d="M355 696l-79 -5l-92 125h114zM494 583h-318v-202h283v-77h-283v-227h318v-77h-409v660h409v-77z" />
    <glyph glyph-name="Eacute" unicode="&#xc9;" horiz-adv-x="546" 
d="M438 816l-92 -120l-79 -5l57 125h114zM494 583h-318v-202h283v-77h-283v-227h318v-77h-409v660h409v-77z" />
    <glyph glyph-name="Ecircumflex" unicode="&#xca;" horiz-adv-x="546" 
d="M311 758l-68 -64l-79 -3l98 134h99l98 -134l-79 3zM494 583h-318v-202h283v-77h-283v-227h318v-77h-409v660h409v-77z" />
    <glyph glyph-name="Edieresis" unicode="&#xcb;" horiz-adv-x="546" 
d="M219 704q-22 0 -37 15t-15 37q0 21 15 36.5t37 15.5q21 0 36 -15.5t15 -36.5q0 -22 -15 -37t-36 -15zM411 704q-21 0 -36.5 15t-15.5 37q0 21 15.5 36.5t36.5 15.5q22 0 37 -15.5t15 -36.5q0 -22 -15 -37t-37 -15zM494 583h-318v-202h283v-77h-283v-227h318v-77h-409v660
h409v-77z" />
    <glyph glyph-name="Igrave" unicode="&#xcc;" horiz-adv-x="261" 
d="M97 691l-92 125h114l57 -120zM85 0v660h91v-660h-91z" />
    <glyph glyph-name="Iacute" unicode="&#xcd;" horiz-adv-x="261" 
d="M167 696l-79 -5l57 125h114zM85 0v660h91v-660h-91z" />
    <glyph glyph-name="Icircumflex" unicode="&#xce;" horiz-adv-x="261" 
d="M182 825l98 -134l-79 3l-69 64l-68 -64l-79 -3l98 134h99zM85 0v660h91v-660h-91z" />
    <glyph glyph-name="Idieresis" unicode="&#xcf;" horiz-adv-x="261" 
d="M40 704q-22 0 -37 15t-15 37q0 21 15 36.5t37 15.5q21 0 36 -15.5t15 -36.5q0 -22 -15 -37t-36 -15zM232 704q-21 0 -36.5 15t-15.5 37q0 21 15.5 36.5t36.5 15.5q22 0 37 -15.5t15 -36.5q0 -22 -15 -37t-37 -15zM85 0v660h91v-660h-91z" />
    <glyph glyph-name="Eth" unicode="&#xd0;" horiz-adv-x="672" 
d="M285 660q161 0 249.5 -87t88.5 -243q0 -167 -81 -248.5t-223 -81.5h-234v290h-90v74h90v296h200zM318 77q97 0 155 63t58 190q0 125 -63.5 189t-183.5 64h-108v-219h179v-74h-179v-213h142z" />
    <glyph glyph-name="Ntilde" unicode="&#xd1;" horiz-adv-x="689" 
d="M525 811q4 -15 4 -41q0 -36 -22.5 -62.5t-64.5 -26.5q-36 0 -82.5 27.5t-58.5 27.5q-14 0 -22 -8.5t-8 -22.5l4 -27h-69q-5 17 -5 39q0 38 25.5 61.5t66.5 23.5q38 0 82 -27.5t55 -27.5q29 0 29 35l-4 29h70zM604 660v-660h-99l-262 414q-55 88 -70 122l-5 -3
q6 -18 6 -118l2 -415h-91v660h101l262 -418q36 -58 67 -120l6 3q-6 84 -6 119l-2 416h91z" />
    <glyph glyph-name="Ograve" unicode="&#xd2;" horiz-adv-x="716" 
d="M324 691l-92 125h114l57 -120zM358 666q137 0 223.5 -91.5t86.5 -244.5t-86.5 -244.5t-223.5 -91.5t-223.5 91.5t-86.5 244.5t86.5 244.5t223.5 91.5zM358 74q97 0 157.5 69.5t60.5 186.5t-60.5 186.5t-157.5 69.5q-96 0 -157 -70t-61 -186t61 -186t157 -70z" />
    <glyph glyph-name="Oacute" unicode="&#xd3;" horiz-adv-x="716" 
d="M394 696l-79 -5l57 125h114zM358 666q137 0 223.5 -91.5t86.5 -244.5t-86.5 -244.5t-223.5 -91.5t-223.5 91.5t-86.5 244.5t86.5 244.5t223.5 91.5zM358 74q97 0 157.5 69.5t60.5 186.5t-60.5 186.5t-157.5 69.5q-96 0 -157 -70t-61 -186t61 -186t157 -70z" />
    <glyph glyph-name="Ocircumflex" unicode="&#xd4;" horiz-adv-x="716" 
d="M409 825l98 -134l-79 3l-69 64l-68 -64l-79 -3l98 134h99zM358 666q137 0 223.5 -91.5t86.5 -244.5t-86.5 -244.5t-223.5 -91.5t-223.5 91.5t-86.5 244.5t86.5 244.5t223.5 91.5zM358 74q97 0 157.5 69.5t60.5 186.5t-60.5 186.5t-157.5 69.5q-96 0 -157 -70t-61 -186
t61 -186t157 -70z" />
    <glyph glyph-name="Otilde" unicode="&#xd5;" horiz-adv-x="716" 
d="M507 811q4 -15 4 -41q0 -36 -22.5 -62.5t-64.5 -26.5q-36 0 -82.5 27.5t-58.5 27.5q-14 0 -22 -8.5t-8 -22.5l4 -27h-69q-5 17 -5 39q0 38 25.5 61.5t66.5 23.5q38 0 82 -27.5t55 -27.5q29 0 29 35l-4 29h70zM358 666q137 0 223.5 -91.5t86.5 -244.5t-86.5 -244.5
t-223.5 -91.5t-223.5 91.5t-86.5 244.5t86.5 244.5t223.5 91.5zM358 74q97 0 157.5 69.5t60.5 186.5t-60.5 186.5t-157.5 69.5q-96 0 -157 -70t-61 -186t61 -186t157 -70z" />
    <glyph glyph-name="Odieresis" unicode="&#xd6;" horiz-adv-x="716" 
d="M267 704q-22 0 -37 15t-15 37q0 21 15 36.5t37 15.5q21 0 36 -15.5t15 -36.5q0 -22 -15 -37t-36 -15zM459 704q-21 0 -36.5 15t-15.5 37q0 21 15.5 36.5t36.5 15.5q22 0 37 -15.5t15 -36.5q0 -22 -15 -37t-37 -15zM358 666q137 0 223.5 -91.5t86.5 -244.5t-86.5 -244.5
t-223.5 -91.5t-223.5 91.5t-86.5 244.5t86.5 244.5t223.5 91.5zM358 74q97 0 157.5 69.5t60.5 186.5t-60.5 186.5t-157.5 69.5q-96 0 -157 -70t-61 -186t61 -186t157 -70z" />
    <glyph glyph-name="multiply" unicode="&#xd7;" horiz-adv-x="451" 
d="M396 362l-124 -124l124 -124l-47 -46l-123 124l-124 -124l-47 46l124 124l-124 124l47 46l124 -123l123 123z" />
    <glyph glyph-name="Oslash" unicode="&#xd8;" horiz-adv-x="716" 
d="M573 583q95 -92 95 -253q0 -153 -86.5 -244.5t-223.5 -91.5q-82 0 -151 36l-49 -74h-93l79 120q-96 93 -96 254q0 153 86.5 244.5t223.5 91.5q85 0 153 -37l39 59h92zM140 330q0 -109 54 -179l270 408q-45 27 -106 27q-96 0 -157 -70t-61 -186zM358 74q97 0 157.5 69.5
t60.5 186.5q0 107 -53 178l-270 -408q47 -26 105 -26z" />
    <glyph glyph-name="Ugrave" unicode="&#xd9;" horiz-adv-x="683" 
d="M308 691l-92 125h114l57 -120zM513 660h91v-405q0 -117 -72.5 -189t-189.5 -72q-118 0 -190.5 71.5t-72.5 189.5v405h91v-403q0 -86 47 -134.5t125 -48.5q77 0 124 48.5t47 132.5v405z" />
    <glyph glyph-name="Uacute" unicode="&#xda;" horiz-adv-x="683" 
d="M378 696l-79 -5l57 125h114zM513 660h91v-405q0 -117 -72.5 -189t-189.5 -72q-118 0 -190.5 71.5t-72.5 189.5v405h91v-403q0 -86 47 -134.5t125 -48.5q77 0 124 48.5t47 132.5v405z" />
    <glyph glyph-name="Ucircumflex" unicode="&#xdb;" horiz-adv-x="683" 
d="M393 825l98 -134l-79 3l-69 64l-68 -64l-79 -3l98 134h99zM513 660h91v-405q0 -117 -72.5 -189t-189.5 -72q-118 0 -190.5 71.5t-72.5 189.5v405h91v-403q0 -86 47 -134.5t125 -48.5q77 0 124 48.5t47 132.5v405z" />
    <glyph glyph-name="Udieresis" unicode="&#xdc;" horiz-adv-x="683" 
d="M251 704q-22 0 -37 15t-15 37q0 21 15 36.5t37 15.5q21 0 36 -15.5t15 -36.5q0 -22 -15 -37t-36 -15zM443 704q-21 0 -36.5 15t-15.5 37q0 21 15.5 36.5t36.5 15.5q22 0 37 -15.5t15 -36.5q0 -22 -15 -37t-37 -15zM513 660h91v-405q0 -117 -72.5 -189t-189.5 -72
q-118 0 -190.5 71.5t-72.5 189.5v405h91v-403q0 -86 47 -134.5t125 -48.5q77 0 124 48.5t47 132.5v405z" />
    <glyph glyph-name="Yacute" unicode="&#xdd;" horiz-adv-x="579" 
d="M419 816l-92 -120l-79 -5l57 125h114zM564 660l-228 -418v-242h-91v237l-231 423h98l145 -261q27 -49 34 -83h2q4 31 33 83l144 261h94z" />
    <glyph glyph-name="Thorn" unicode="&#xde;" horiz-adv-x="595" 
d="M298 558q125 0 193 -58t68 -165t-65 -165.5t-185 -58.5h-133v-111h-91v660h91v-102h122zM295 188q82 0 126 38t44 109q0 70 -45 108t-128 38h-116v-293h119z" />
    <glyph glyph-name="germandbls" unicode="&#xdf;" horiz-adv-x="560" 
d="M379 358q69 -19 105 -65t36 -113q0 -84 -53.5 -135t-156.5 -51q-28 0 -53.5 2.5t-36.5 5.5l-12 2l15 74q35 -10 89 -10q53 0 85.5 31t32.5 83q0 61 -40.5 96.5t-123.5 35.5h-32v72h15q53 0 89 40t36 99q0 50 -31 81.5t-78 31.5q-107 0 -107 -123v-515h-88v530
q0 82 52 132t141 50q88 0 144.5 -52.5t56.5 -136.5q0 -101 -85 -165z" />
    <glyph glyph-name="agrave" unicode="&#xe0;" horiz-adv-x="534" 
d="M289 548l-79 -5l-92 155h114zM497 75l5 -74q-23 -6 -48 -6q-39 0 -62 19.5t-23 58.5v1h-2q-43 -80 -164 -80q-76 0 -118 36t-42 95q0 76 74 110t232 34h14v30q0 49 -30 77t-87 28q-51 0 -79.5 -20t-28.5 -56q0 -12 5 -24l-83 -14q-6 18 -6 41q0 65 52.5 106t141.5 41
q95 0 149 -48t54 -130v-191q0 -20 6.5 -28t22.5 -8q9 0 17 2zM221 68q65 0 103.5 29.5t38.5 65.5v45h-14q-117 0 -166.5 -20t-49.5 -61q0 -59 88 -59z" />
    <glyph glyph-name="aacute" unicode="&#xe1;" horiz-adv-x="534" 
d="M358 698l-91 -150l-80 -5l57 155h114zM497 75l5 -74q-23 -6 -48 -6q-39 0 -62 19.5t-23 58.5v1h-2q-43 -80 -164 -80q-76 0 -118 36t-42 95q0 76 74 110t232 34h14v30q0 49 -30 77t-87 28q-51 0 -79.5 -20t-28.5 -56q0 -12 5 -24l-83 -14q-6 18 -6 41q0 65 52.5 106
t141.5 41q95 0 149 -48t54 -130v-191q0 -20 6.5 -28t22.5 -8q9 0 17 2zM221 68q65 0 103.5 29.5t38.5 65.5v45h-14q-117 0 -166.5 -20t-49.5 -61q0 -59 88 -59z" />
    <glyph glyph-name="acircumflex" unicode="&#xe2;" horiz-adv-x="534" 
d="M249 630l-68 -84l-79 -3l98 154h99l98 -154l-79 3zM497 75l5 -74q-23 -6 -48 -6q-39 0 -62 19.5t-23 58.5v1h-2q-43 -80 -164 -80q-76 0 -118 36t-42 95q0 76 74 110t232 34h14v30q0 49 -30 77t-87 28q-51 0 -79.5 -20t-28.5 -56q0 -12 5 -24l-83 -14q-6 18 -6 41
q0 65 52.5 106t141.5 41q95 0 149 -48t54 -130v-191q0 -20 6.5 -28t22.5 -8q9 0 17 2zM221 68q65 0 103.5 29.5t38.5 65.5v45h-14q-117 0 -166.5 -20t-49.5 -61q0 -59 88 -59z" />
    <glyph glyph-name="atilde" unicode="&#xe3;" horiz-adv-x="534" 
d="M148 549h-69q-5 17 -5 41q0 35 25.5 62t66.5 27q38 0 82 -27.5t55 -27.5q29 0 29 35l-4 29h70q4 -15 4 -41q0 -36 -23.5 -62.5t-68.5 -26.5q-33 0 -77.5 27.5t-55.5 27.5q-33 0 -33 -35zM497 75l5 -74q-23 -6 -48 -6q-39 0 -62 19.5t-23 58.5v1h-2q-43 -80 -164 -80
q-76 0 -118 36t-42 95q0 76 74 110t232 34h14v30q0 49 -30 77t-87 28q-51 0 -79.5 -20t-28.5 -56q0 -12 5 -24l-83 -14q-6 18 -6 41q0 65 52.5 106t141.5 41q95 0 149 -48t54 -130v-191q0 -20 6.5 -28t22.5 -8q9 0 17 2zM221 68q65 0 103.5 29.5t38.5 65.5v45h-14
q-117 0 -166.5 -20t-49.5 -61q0 -59 88 -59z" />
    <glyph glyph-name="adieresis" unicode="&#xe4;" horiz-adv-x="534" 
d="M158 573q-22 0 -37.5 15.5t-15.5 37.5t15.5 37.5t37.5 15.5t37 -15.5t15 -37.5t-15 -37.5t-37 -15.5zM350 573q-22 0 -37.5 15.5t-15.5 37.5t15.5 37.5t37.5 15.5t37.5 -15.5t15.5 -37.5t-15.5 -37.5t-37.5 -15.5zM497 75l5 -74q-23 -6 -48 -6q-39 0 -62 19.5t-23 58.5v1
h-2q-43 -80 -164 -80q-76 0 -118 36t-42 95q0 76 74 110t232 34h14v30q0 49 -30 77t-87 28q-51 0 -79.5 -20t-28.5 -56q0 -12 5 -24l-83 -14q-6 18 -6 41q0 65 52.5 106t141.5 41q95 0 149 -48t54 -130v-191q0 -20 6.5 -28t22.5 -8q9 0 17 2zM221 68q65 0 103.5 29.5
t38.5 65.5v45h-14q-117 0 -166.5 -20t-49.5 -61q0 -59 88 -59z" />
    <glyph glyph-name="aring" unicode="&#xe5;" horiz-adv-x="534" 
d="M249 531q-38 0 -65 26t-27 63q0 38 27 64t65 26t64.5 -26t26.5 -64q0 -37 -26.5 -63t-64.5 -26zM249 654q-14 0 -24 -10t-10 -24t10 -24t24 -10t24 10t10 24t-10 24t-24 10zM497 75l5 -74q-23 -6 -48 -6q-39 0 -62 19.5t-23 58.5v1h-2q-43 -80 -164 -80q-76 0 -118 36
t-42 95q0 76 74 110t232 34h14v30q0 49 -30 77t-87 28q-51 0 -79.5 -20t-28.5 -56q0 -12 5 -24l-83 -14q-6 18 -6 41q0 65 52.5 106t141.5 41q95 0 149 -48t54 -130v-191q0 -20 6.5 -28t22.5 -8q9 0 17 2zM221 68q65 0 103.5 29.5t38.5 65.5v45h-14q-117 0 -166.5 -20
t-49.5 -61q0 -59 88 -59z" />
    <glyph glyph-name="ae" unicode="&#xe6;" horiz-adv-x="851" 
d="M807 212h-354q7 -66 49.5 -105t112.5 -39q87 0 134 62l54 -49q-66 -87 -195 -87q-144 0 -209 103h-7q-56 -103 -189 -103q-76 0 -118 36t-42 95q0 76 74 110t232 34h14v30q0 49 -30 77t-87 28q-51 0 -79.5 -20t-28.5 -56q0 -13 6 -27l-83 -14q-7 18 -7 44q0 65 52.5 106
t141.5 41q113 0 170 -80q67 80 178 80q101 0 158 -62.5t57 -158.5zM596 404q-56 0 -93.5 -35.5t-47.5 -93.5h266q-1 59 -35 94t-90 35zM221 68q65 0 103.5 29.5t38.5 65.5v45h-14q-117 0 -166.5 -20t-49.5 -61q0 -59 88 -59z" />
    <glyph glyph-name="ccedilla" unicode="&#xe7;" horiz-adv-x="520" 
d="M485 75q-64 -76 -187 -81l-11 -23q31 -4 55 -24.5t24 -57.5q0 -41 -30 -64.5t-76 -23.5q-27 0 -50.5 9.5t-33.5 19.5l-10 9l25 50q26 -27 68 -27q43 0 43 30q0 40 -92 40l28 65q-90 14 -143.5 78t-53.5 158q0 108 66.5 176.5t170.5 68.5q89 0 143.5 -46t54.5 -115l-3 -32
l-82 -6q2 10 2 25q0 44 -30.5 72t-82.5 28q-67 0 -108 -46.5t-41 -122.5t41.5 -121.5t115.5 -45.5q93 0 145 63z" />
    <glyph glyph-name="egrave" unicode="&#xe8;" horiz-adv-x="531" 
d="M314 548l-79 -5l-92 155h114zM487 212h-354q7 -66 49.5 -105t112.5 -39q87 0 134 62l54 -49q-66 -87 -195 -87q-113 0 -179.5 66t-66.5 175q0 107 64 175t170 68q101 0 158 -62.5t57 -158.5zM276 404q-56 0 -93.5 -35.5t-47.5 -93.5h266q-1 59 -35 94t-90 35z" />
    <glyph glyph-name="eacute" unicode="&#xe9;" horiz-adv-x="531" 
d="M383 698l-91 -150l-80 -5l57 155h114zM487 212h-354q7 -66 49.5 -105t112.5 -39q87 0 134 62l54 -49q-66 -87 -195 -87q-113 0 -179.5 66t-66.5 175q0 107 64 175t170 68q101 0 158 -62.5t57 -158.5zM276 404q-56 0 -93.5 -35.5t-47.5 -93.5h266q-1 59 -35 94t-90 35z
" />
    <glyph glyph-name="ecircumflex" unicode="&#xea;" horiz-adv-x="531" 
d="M274 630l-68 -84l-79 -3l98 154h99l98 -154l-79 3zM487 212h-354q7 -66 49.5 -105t112.5 -39q87 0 134 62l54 -49q-66 -87 -195 -87q-113 0 -179.5 66t-66.5 175q0 107 64 175t170 68q101 0 158 -62.5t57 -158.5zM276 404q-56 0 -93.5 -35.5t-47.5 -93.5h266
q-1 59 -35 94t-90 35z" />
    <glyph glyph-name="edieresis" unicode="&#xeb;" horiz-adv-x="531" 
d="M183 573q-23 0 -38 15.5t-15 37.5t15.5 37.5t37.5 15.5t37 -15.5t15 -37.5t-15 -37.5t-37 -15.5zM375 573q-22 0 -37.5 15.5t-15.5 37.5t15.5 37.5t37.5 15.5t37.5 -15.5t15.5 -37.5t-15 -37.5t-38 -15.5zM487 212h-354q7 -66 49.5 -105t112.5 -39q87 0 134 62l54 -49
q-66 -87 -195 -87q-113 0 -179.5 66t-66.5 175q0 107 64 175t170 68q101 0 158 -62.5t57 -158.5zM276 404q-56 0 -93.5 -35.5t-47.5 -93.5h266q-1 59 -35 94t-90 35z" />
    <glyph glyph-name="igrave" unicode="&#xec;" horiz-adv-x="231" 
d="M76 543l-92 155h114l57 -150zM71 0v472l89 3v-475h-89z" />
    <glyph glyph-name="iacute" unicode="&#xed;" horiz-adv-x="231" 
d="M151 548l-80 -5l57 155h114zM71 0v472l89 3v-475h-89z" />
    <glyph glyph-name="icircumflex" unicode="&#xee;" horiz-adv-x="231" 
d="M-33 543l98 154h99l98 -154l-79 3l-69 84l-68 -84zM71 0v472l89 3v-475h-89z" />
    <glyph glyph-name="idieresis" unicode="&#xef;" horiz-adv-x="231" 
d="M23 573q-23 0 -38 15.5t-15 37.5t15.5 37.5t37.5 15.5t37 -15.5t15 -37.5t-15 -37.5t-37 -15.5zM215 573q-22 0 -37.5 15.5t-15.5 37.5t15.5 37.5t37.5 15.5t37.5 -15.5t15.5 -37.5t-15 -37.5t-38 -15.5zM71 0v472l89 3v-475h-89z" />
    <glyph glyph-name="eth" unicode="&#xf0;" horiz-adv-x="566" 
d="M404 591q113 -126 113 -341q0 -116 -67.5 -186t-178.5 -70q-97 0 -163 60.5t-66 159.5q0 104 62 165.5t157 61.5q67 0 109 -27.5t57 -59.5q-14 106 -100 192l-103 -60l-32 58l81 47q-52 33 -107 38l51 75q75 -19 137 -66l98 57l33 -57zM277 68q70 0 111.5 42.5
t41.5 107.5v4q-1 67 -44 106t-109 39q-65 0 -106.5 -42t-41.5 -109q0 -66 43 -107t105 -41z" />
    <glyph glyph-name="ntilde" unicode="&#xf1;" horiz-adv-x="564" 
d="M184 549h-69q-5 17 -5 41q0 35 25.5 62t66.5 27q38 0 82 -27.5t55 -27.5q29 0 29 35l-4 29h70q4 -15 4 -41q0 -36 -23.5 -62.5t-68.5 -26.5q-33 0 -77.5 27.5t-55.5 27.5q-33 0 -33 -35zM315 478q84 0 134 -52t50 -137v-289h-89v289q0 53 -29 84t-81 31q-68 0 -105 -49
t-37 -108v-247h-88v472l62 3q12 -54 12 -110h3q21 49 63 81t105 32z" />
    <glyph glyph-name="ograve" unicode="&#xf2;" horiz-adv-x="568" 
d="M245 543l-92 155h114l57 -150zM284 478q109 0 176 -68t67 -176q0 -107 -67 -173.5t-176 -66.5t-176 66.5t-67 173.5q0 108 67 176t176 68zM284 68q69 0 111 46t42 120t-42.5 122t-110.5 48t-110.5 -48t-42.5 -122t42 -120t111 -46z" />
    <glyph glyph-name="oacute" unicode="&#xf3;" horiz-adv-x="568" 
d="M302 548l-80 -5l57 155h114zM284 478q109 0 176 -68t67 -176q0 -107 -67 -173.5t-176 -66.5t-176 66.5t-67 173.5q0 108 67 176t176 68zM284 68q69 0 111 46t42 120t-42.5 122t-110.5 48t-110.5 -48t-42.5 -122t42 -120t111 -46z" />
    <glyph glyph-name="ocircumflex" unicode="&#xf4;" horiz-adv-x="568" 
d="M137 543l98 154h99l98 -154l-79 3l-69 84l-68 -84zM284 478q109 0 176 -68t67 -176q0 -107 -67 -173.5t-176 -66.5t-176 66.5t-67 173.5q0 108 67 176t176 68zM284 68q69 0 111 46t42 120t-42.5 122t-110.5 48t-110.5 -48t-42.5 -122t42 -120t111 -46z" />
    <glyph glyph-name="otilde" unicode="&#xf5;" horiz-adv-x="568" 
d="M433 688q4 -15 4 -41q0 -36 -23.5 -62.5t-68.5 -26.5q-33 0 -77.5 27.5t-55.5 27.5q-33 0 -33 -35l4 -29h-69q-5 17 -5 41q0 35 25.5 62t66.5 27q38 0 82 -27.5t55 -27.5q29 0 29 35l-4 29h70zM284 478q109 0 176 -68t67 -176q0 -107 -67 -173.5t-176 -66.5t-176 66.5
t-67 173.5q0 108 67 176t176 68zM284 68q69 0 111 46t42 120t-42.5 122t-110.5 48t-110.5 -48t-42.5 -122t42 -120t111 -46z" />
    <glyph glyph-name="odieresis" unicode="&#xf6;" horiz-adv-x="568" 
d="M193 573q-23 0 -38 15.5t-15 37.5t15.5 37.5t37.5 15.5t37 -15.5t15 -37.5t-15 -37.5t-37 -15.5zM385 573q-22 0 -37.5 15.5t-15.5 37.5t15.5 37.5t37.5 15.5t37.5 -15.5t15.5 -37.5t-15 -37.5t-38 -15.5zM284 478q109 0 176 -68t67 -176q0 -107 -67 -173.5t-176 -66.5
t-176 66.5t-67 173.5q0 108 67 176t176 68zM284 68q69 0 111 46t42 120t-42.5 122t-110.5 48t-110.5 -48t-42.5 -122t42 -120t111 -46z" />
    <glyph glyph-name="divide" unicode="&#xf7;" horiz-adv-x="489" 
d="M198 431q0 19 13.5 33t33.5 14q19 0 32.5 -14t13.5 -33t-13.5 -33t-32.5 -14q-20 0 -33.5 13.5t-13.5 33.5zM58 213v65h373v-65h-373zM198 40q0 19 13.5 33t33.5 14q19 0 32.5 -14t13.5 -33t-13.5 -33t-32.5 -14q-20 0 -33.5 13.5t-13.5 33.5z" />
    <glyph glyph-name="oslash" unicode="&#xf8;" horiz-adv-x="568" 
d="M442 426q85 -68 85 -192q0 -107 -67 -173.5t-176 -66.5q-60 0 -108 21l-26 -41h-71l46 71q-84 67 -84 189q0 108 67 176t176 68q59 0 109 -22l26 41h69zM131 234q0 -72 40 -118l178 274q-30 14 -65 14q-68 0 -110.5 -48t-42.5 -122zM284 68q69 0 111 46t42 120
q0 72 -41 121l-177 -274q31 -13 65 -13z" />
    <glyph glyph-name="ugrave" unicode="&#xf9;" horiz-adv-x="553" 
d="M314 548l-79 -5l-92 155h114zM395 472h88v-472l-64 -3q-12 54 -12 100h-1q-47 -103 -157 -103q-84 0 -134 52t-50 137v289h89v-289q0 -53 29 -84t81 -31q60 0 95.5 49.5t35.5 107.5v247z" />
    <glyph glyph-name="uacute" unicode="&#xfa;" horiz-adv-x="553" 
d="M383 698l-91 -150l-80 -5l57 155h114zM395 472h88v-472l-64 -3q-12 54 -12 100h-1q-47 -103 -157 -103q-84 0 -134 52t-50 137v289h89v-289q0 -53 29 -84t81 -31q60 0 95.5 49.5t35.5 107.5v247z" />
    <glyph glyph-name="ucircumflex" unicode="&#xfb;" horiz-adv-x="553" 
d="M274 630l-68 -84l-79 -3l98 154h99l98 -154l-79 3zM395 472h88v-472l-64 -3q-12 54 -12 100h-1q-47 -103 -157 -103q-84 0 -134 52t-50 137v289h89v-289q0 -53 29 -84t81 -31q60 0 95.5 49.5t35.5 107.5v247z" />
    <glyph glyph-name="udieresis" unicode="&#xfc;" horiz-adv-x="553" 
d="M183 573q-23 0 -38 15.5t-15 37.5t15.5 37.5t37.5 15.5t37 -15.5t15 -37.5t-15 -37.5t-37 -15.5zM375 573q-22 0 -37.5 15.5t-15.5 37.5t15.5 37.5t37.5 15.5t37.5 -15.5t15.5 -37.5t-15 -37.5t-38 -15.5zM395 472h88v-472l-64 -3q-12 54 -12 100h-1q-47 -103 -157 -103
q-84 0 -134 52t-50 137v289h89v-289q0 -53 29 -84t81 -31q60 0 95.5 49.5t35.5 107.5v247z" />
    <glyph glyph-name="yacute" unicode="&#xfd;" horiz-adv-x="518" 
d="M273 548l-80 -5l57 155h114zM279 -84q-48 -125 -158 -125q-20 0 -38.5 3.5t-26.5 7.5l-8 4l16 73q22 -12 51 -12q34 0 53 19t33 55l18 47l-200 484h99l130 -330q11 -26 16 -52h1q3 19 16 52l132 330h90z" />
    <glyph glyph-name="thorn" unicode="&#xfe;" horiz-adv-x="591" 
d="M324 478q100 0 162.5 -67t62.5 -176t-63 -175t-167 -66q-106 0 -161 84v-282h-88v901h86v-308h1q52 89 167 89zM314 68q66 0 105.5 46t39.5 121q0 76 -41 122.5t-110 46.5q-70 0 -110 -50t-40 -109v-19q0 -61 40.5 -109.5t115.5 -48.5z" />
    <glyph glyph-name="ydieresis" unicode="&#xff;" horiz-adv-x="518" 
d="M164 573q-22 0 -37.5 15.5t-15.5 37.5t15.5 37.5t37.5 15.5t37 -15.5t15 -37.5t-15 -37.5t-37 -15.5zM356 573q-22 0 -37.5 15.5t-15.5 37.5t15.5 37.5t37.5 15.5t37.5 -15.5t15.5 -37.5t-15.5 -37.5t-37.5 -15.5zM279 -84q-48 -125 -158 -125q-20 0 -38.5 3.5t-26.5 7.5
l-8 4l16 73q22 -12 51 -12q34 0 53 19t33 55l18 47l-200 484h99l130 -330q11 -26 16 -52h1q3 19 16 52l132 330h90z" />
    <glyph glyph-name="Amacron" unicode="&#x100;" horiz-adv-x="615" 
d="M454 775v-65h-284v65h284zM507 0l-61 164h-277l-61 -164h-94l248 660h91l248 -660h-94zM197 239h221l-89 239q-9 24 -21 69h-2q-12 -45 -21 -69z" />
    <glyph glyph-name="amacron" unicode="&#x101;" horiz-adv-x="534" 
d="M390 657v-65h-280v65h280zM497 75l5 -74q-23 -6 -48 -6q-39 0 -62 19.5t-23 58.5v1h-2q-43 -80 -164 -80q-76 0 -118 36t-42 95q0 76 74 110t232 34h14v30q0 49 -30 77t-87 28q-51 0 -79.5 -20t-28.5 -56q0 -12 5 -24l-83 -14q-6 18 -6 41q0 65 52.5 106t141.5 41
q95 0 149 -48t54 -130v-191q0 -20 6.5 -28t22.5 -8q9 0 17 2zM221 68q65 0 103.5 29.5t38.5 65.5v45h-14q-117 0 -166.5 -20t-49.5 -61q0 -59 88 -59z" />
    <glyph glyph-name="Abreve" unicode="&#x102;" horiz-adv-x="615" 
d="M307 691q-59 0 -92 35t-33 88h68q0 -59 56 -61q57 0 57 61h68q0 -53 -33 -88t-91 -35zM507 0l-61 164h-277l-61 -164h-94l248 660h91l248 -660h-94zM197 239h221l-89 239q-9 24 -21 69h-2q-12 -45 -21 -69z" />
    <glyph glyph-name="abreve" unicode="&#x103;" horiz-adv-x="534" 
d="M249 543q-65 0 -100.5 40.5t-35.5 102.5h74q0 -38 16.5 -59t44.5 -22q29 0 45.5 21.5t16.5 59.5h74q0 -61 -35 -102t-100 -41zM497 75l5 -74q-23 -6 -48 -6q-39 0 -62 19.5t-23 58.5v1h-2q-43 -80 -164 -80q-76 0 -118 36t-42 95q0 76 74 110t232 34h14v30q0 49 -30 77
t-87 28q-51 0 -79.5 -20t-28.5 -56q0 -12 5 -24l-83 -14q-6 18 -6 41q0 65 52.5 106t141.5 41q95 0 149 -48t54 -130v-191q0 -20 6.5 -28t22.5 -8q9 0 17 2zM221 68q65 0 103.5 29.5t38.5 65.5v45h-14q-117 0 -166.5 -20t-49.5 -61q0 -59 88 -59z" />
    <glyph glyph-name="Aogonek" unicode="&#x104;" horiz-adv-x="615" 
d="M617 -112l25 -51q-3 -4 -9.5 -10t-29.5 -16.5t-48 -10.5q-45 0 -73 25t-28 65q0 66 59 110h-6l-61 164h-277l-61 -164h-94l248 660h91l248 -660q-3 -1 -8.5 -3t-19 -10t-23.5 -18t-18.5 -27t-8.5 -37q0 -21 12 -32.5t31 -11.5q14 0 27 6.5t19 13.5zM197 239h221l-89 239
q-9 24 -21 69h-2q-12 -45 -21 -69z" />
    <glyph glyph-name="aogonek" unicode="&#x105;" horiz-adv-x="534" 
d="M518 -111l25 -51q-3 -4 -9.5 -10t-29.5 -16.5t-48 -10.5q-45 0 -73 25t-28 65q0 67 59 110q-45 18 -45 72v1h-2q-43 -80 -164 -80q-76 0 -118 36t-42 95q0 76 74 110t232 34h14v30q0 49 -30 77t-87 28q-51 0 -79.5 -20t-28.5 -56q0 -12 5 -24l-83 -14q-6 18 -6 41
q0 65 52.5 106t141.5 41q95 0 149 -48t54 -130v-191q0 -20 6.5 -28t22.5 -8q9 0 17 2l5 -74q-3 -1 -8.5 -3t-19 -10t-23.5 -18t-18.5 -27t-8.5 -37q0 -21 12 -32.5t31 -11.5q14 0 27 7t18 13zM221 68q65 0 103.5 29.5t38.5 65.5v45h-14q-117 0 -166.5 -20t-49.5 -61
q0 -59 88 -59z" />
    <glyph glyph-name="Cacute" unicode="&#x106;" horiz-adv-x="637" 
d="M384 696l-79 -5l57 125h114zM347 666q66 0 116.5 -22.5t78 -57.5t41.5 -71.5t14 -71.5l-86 -14q0 57 -41 107t-122 50q-89 0 -148 -69t-59 -187q0 -128 64 -192t159 -64q111 0 184 100l55 -56q-89 -124 -241 -124q-142 0 -227.5 89.5t-85.5 246.5q0 151 83 243.5
t215 92.5z" />
    <glyph glyph-name="cacute" unicode="&#x107;" horiz-adv-x="520" 
d="M296 548l-80 -5l57 155h114zM278 478q89 0 143.5 -46t54.5 -115l-3 -32l-82 -6q2 10 2 25q0 44 -30.5 72t-82.5 28q-67 0 -108 -46.5t-41 -122.5t41.5 -121.5t115.5 -45.5q93 0 145 63l52 -56q-67 -81 -200 -81q-110 0 -177 66t-67 173q0 108 66.5 176.5t170.5 68.5z" />
    <glyph glyph-name="Ccircumflex" unicode="&#x108;" horiz-adv-x="637" 
d="M399 825l98 -134l-79 3l-69 64l-68 -64l-79 -3l98 134h99zM347 666q66 0 116.5 -22.5t78 -57.5t41.5 -71.5t14 -71.5l-86 -14q0 57 -41 107t-122 50q-89 0 -148 -69t-59 -187q0 -128 64 -192t159 -64q111 0 184 100l55 -56q-89 -124 -241 -124q-142 0 -227.5 89.5
t-85.5 246.5q0 151 83 243.5t215 92.5z" />
    <glyph glyph-name="ccircumflex" unicode="&#x109;" horiz-adv-x="520" 
d="M131 543l98 154h99l98 -154l-79 3l-69 84l-68 -84zM278 478q89 0 143.5 -46t54.5 -115l-3 -32l-82 -6q2 10 2 25q0 44 -30.5 72t-82.5 28q-67 0 -108 -46.5t-41 -122.5t41.5 -121.5t115.5 -45.5q93 0 145 63l52 -56q-67 -81 -200 -81q-110 0 -177 66t-67 173
q0 108 66.5 176.5t170.5 68.5z" />
    <glyph glyph-name="Cdotaccent" unicode="&#x10a;" horiz-adv-x="637" 
d="M347 694q-26 0 -43.5 17t-17.5 42t17.5 42.5t43.5 17.5t44 -17.5t18 -42.5t-18 -42t-44 -17zM347 666q66 0 116.5 -22.5t78 -57.5t41.5 -71.5t14 -71.5l-86 -14q0 57 -41 107t-122 50q-89 0 -148 -69t-59 -187q0 -128 64 -192t159 -64q111 0 184 100l55 -56
q-89 -124 -241 -124q-142 0 -227.5 89.5t-85.5 246.5q0 151 83 243.5t215 92.5z" />
    <glyph glyph-name="cdotaccent" unicode="&#x10b;" horiz-adv-x="520" 
d="M340 625q0 -25 -18 -42t-44 -17t-43.5 17t-17.5 42t17.5 42.5t43.5 17.5t44 -17.5t18 -42.5zM278 478q89 0 143.5 -46t54.5 -115l-3 -32l-82 -6q2 10 2 25q0 44 -30.5 72t-82.5 28q-67 0 -108 -46.5t-41 -122.5t41.5 -121.5t115.5 -45.5q93 0 145 63l52 -56
q-67 -81 -200 -81q-110 0 -177 66t-67 173q0 108 66.5 176.5t170.5 68.5z" />
    <glyph glyph-name="Ccaron" unicode="&#x10c;" horiz-adv-x="637" 
d="M202 830l79 -3l68 -64l69 64l79 3l-98 -134h-99zM347 666q66 0 116.5 -22.5t78 -57.5t41.5 -71.5t14 -71.5l-86 -14q0 57 -41 107t-122 50q-89 0 -148 -69t-59 -187q0 -128 64 -192t159 -64q111 0 184 100l55 -56q-89 -124 -241 -124q-142 0 -227.5 89.5t-85.5 246.5
q0 151 83 243.5t215 92.5z" />
    <glyph glyph-name="ccaron" unicode="&#x10d;" horiz-adv-x="520" 
d="M131 697l79 -3l68 -84l69 84l79 3l-98 -154h-99zM278 478q89 0 143.5 -46t54.5 -115l-3 -32l-82 -6q2 10 2 25q0 44 -30.5 72t-82.5 28q-67 0 -108 -46.5t-41 -122.5t41.5 -121.5t115.5 -45.5q93 0 145 63l52 -56q-67 -81 -200 -81q-110 0 -177 66t-67 173
q0 108 66.5 176.5t170.5 68.5z" />
    <glyph glyph-name="Dcaron" unicode="&#x10e;" horiz-adv-x="672" 
d="M337 696h-99l-98 134l79 -3l68 -64l69 64l79 3zM285 660q161 0 249.5 -87t88.5 -243q0 -167 -81 -248.5t-223 -81.5h-234v660h200zM318 77q97 0 155 63t58 190q0 125 -63.5 189t-183.5 64h-108v-506h142z" />
    <glyph glyph-name="dcaron" unicode="&#x10f;" horiz-adv-x="603" 
d="M626 717q26 0 44 -17.5t18 -49.5q0 -33 -9 -63.5t-21 -50t-24.5 -34.5t-21.5 -22l-9 -6l-33 45q6 4 15.5 11.5t25 28.5t15.5 41q-24 0 -41.5 17t-17.5 41q0 25 17 42t42 17zM433 398v308h88v-706l-65 -3q-11 72 -9 110h-3q-22 -51 -67 -82t-110 -31q-100 0 -162.5 67
t-62.5 176t63 175t167 66q107 0 161 -80zM283 68q70 0 110 50t40 109v19q0 61 -40.5 109.5t-115.5 48.5q-66 0 -105.5 -46t-39.5 -121q0 -76 41 -122.5t110 -46.5z" />
    <glyph glyph-name="Dcroat" unicode="&#x110;" horiz-adv-x="672" 
d="M285 660q161 0 249.5 -87t88.5 -243q0 -167 -81 -248.5t-223 -81.5h-234v290h-90v74h90v296h200zM318 77q97 0 155 63t58 190q0 125 -63.5 189t-183.5 64h-108v-219h179v-74h-179v-213h142z" />
    <glyph glyph-name="dcroat" unicode="&#x111;" horiz-adv-x="591" 
d="M579 613v-64h-58v-549l-65 -3q-11 72 -9 110h-3q-22 -51 -67 -82t-110 -31q-100 0 -162.5 67t-62.5 176t63 175t167 66q107 0 161 -80v151h-154v64h154v93h88v-93h58zM283 68q70 0 110 50t40 109v19q0 61 -40.5 109.5t-115.5 48.5q-66 0 -105.5 -46t-39.5 -121
q0 -76 41 -122.5t110 -46.5z" />
    <glyph glyph-name="Emacron" unicode="&#x112;" horiz-adv-x="546" 
d="M457 775v-65h-284v65h284zM494 583h-318v-202h283v-77h-283v-227h318v-77h-409v660h409v-77z" />
    <glyph glyph-name="emacron" unicode="&#x113;" horiz-adv-x="531" 
d="M415 657v-65h-280v65h280zM487 212h-354q7 -66 49.5 -105t112.5 -39q87 0 134 62l54 -49q-66 -87 -195 -87q-113 0 -179.5 66t-66.5 175q0 107 64 175t170 68q101 0 158 -62.5t57 -158.5zM276 404q-56 0 -93.5 -35.5t-47.5 -93.5h266q-1 59 -35 94t-90 35z" />
    <glyph glyph-name="Ebreve" unicode="&#x114;" horiz-adv-x="546" 
d="M310 691q-59 0 -92 35t-33 88h68q0 -59 56 -61q57 0 57 61h68q0 -53 -33 -88t-91 -35zM494 583h-318v-202h283v-77h-283v-227h318v-77h-409v660h409v-77z" />
    <glyph glyph-name="ebreve" unicode="&#x115;" horiz-adv-x="531" 
d="M274 543q-65 0 -100.5 40.5t-35.5 102.5h74q0 -38 16.5 -59t44.5 -22q29 0 45.5 21.5t16.5 59.5h74q0 -61 -35 -102t-100 -41zM487 212h-354q7 -66 49.5 -105t112.5 -39q87 0 134 62l54 -49q-66 -87 -195 -87q-113 0 -179.5 66t-66.5 175q0 107 64 175t170 68
q101 0 158 -62.5t57 -158.5zM276 404q-56 0 -93.5 -35.5t-47.5 -93.5h266q-1 59 -35 94t-90 35z" />
    <glyph glyph-name="Edotaccent" unicode="&#x116;" horiz-adv-x="546" 
d="M309 694q-26 0 -43.5 17t-17.5 42t17.5 42.5t43.5 17.5t44 -17.5t18 -42.5t-18 -42t-44 -17zM494 583h-318v-202h283v-77h-283v-227h318v-77h-409v660h409v-77z" />
    <glyph glyph-name="edotaccent" unicode="&#x117;" horiz-adv-x="531" 
d="M274 566q-26 0 -43.5 17t-17.5 42t17.5 42.5t43.5 17.5t44 -17.5t18 -42.5t-18 -42t-44 -17zM487 212h-354q7 -66 49.5 -105t112.5 -39q87 0 134 62l54 -49q-66 -87 -195 -87q-113 0 -179.5 66t-66.5 175q0 107 64 175t170 68q101 0 158 -62.5t57 -158.5zM276 404
q-56 0 -93.5 -35.5t-47.5 -93.5h266q-1 59 -35 94t-90 35z" />
    <glyph glyph-name="Eogonek" unicode="&#x118;" horiz-adv-x="546" 
d="M510 -112l25 -51q-3 -4 -9.5 -10t-29.5 -16.5t-48 -10.5q-45 0 -73 25t-28 65q0 66 59 110h-321v660h409v-77h-318v-202h283v-77h-283v-227h318v-77q-3 -1 -8.5 -3t-19 -10t-23.5 -18t-18.5 -27t-8.5 -37q0 -21 12 -32.5t31 -11.5q14 0 27 6.5t18 13.5z" />
    <glyph glyph-name="eogonek" unicode="&#x119;" horiz-adv-x="531" 
d="M487 212h-354q7 -66 49.5 -105t112.5 -39q87 0 134 62l54 -49q-38 -51 -103 -73q-60 -31 -60 -87q0 -21 12 -32.5t31 -11.5q14 0 27 6.5t18 13.5l6 7l25 -51q-3 -4 -9.5 -10t-29.5 -16.5t-48 -10.5q-45 0 -73 25t-28 65q0 49 34 88q-111 1 -177 67t-66 174q0 107 64 175
t170 68q101 0 158 -62.5t57 -158.5zM276 404q-56 0 -93.5 -35.5t-47.5 -93.5h266q-1 59 -35 94t-90 35z" />
    <glyph glyph-name="Ecaron" unicode="&#x11a;" horiz-adv-x="546" 
d="M361 696h-99l-98 134l79 -3l68 -64l69 64l79 3zM494 583h-318v-202h283v-77h-283v-227h318v-77h-409v660h409v-77z" />
    <glyph glyph-name="ecaron" unicode="&#x11b;" horiz-adv-x="531" 
d="M324 543h-99l-98 154l79 -3l68 -84l69 84l79 3zM487 212h-354q7 -66 49.5 -105t112.5 -39q87 0 134 62l54 -49q-66 -87 -195 -87q-113 0 -179.5 66t-66.5 175q0 107 64 175t170 68q101 0 158 -62.5t57 -158.5zM276 404q-56 0 -93.5 -35.5t-47.5 -93.5h266q-1 59 -35 94
t-90 35z" />
    <glyph glyph-name="Gcircumflex" unicode="&#x11c;" horiz-adv-x="665" 
d="M347 758l-68 -64l-79 -3l98 134h99l98 -134l-79 3zM608 326v-326h-55q-8 28 -14 93q-54 -99 -199 -99q-131 0 -211 92.5t-80 243.5t83 243.5t214 92.5q66 0 116.5 -21t78.5 -54t41.5 -68.5t13.5 -69.5l-84 -14q0 56 -41.5 101.5t-123.5 45.5q-88 0 -147 -68.5t-59 -187.5
q0 -116 57 -186t155 -70q86 0 133 46.5t47 115.5v14h-211v76h286z" />
    <glyph glyph-name="gcircumflex" unicode="&#x11d;" horiz-adv-x="530" 
d="M265 630l-68 -84l-79 -3l98 154h99l98 -154l-79 3zM332 71q85 0 132 -34t47 -99q0 -66 -59.5 -106.5t-186.5 -40.5q-124 0 -186 34t-62 96q0 71 80 100q-46 26 -46 80q0 55 62 79q-56 47 -56 125q0 77 55 124.5t146 47.5q84 0 139 -41q49 23 49 113l75 -16
q0 -60 -30 -92.5t-61 -37.5q31 -42 31 -98q0 -77 -55.5 -124.5t-146.5 -47.5q-44 0 -85 13q-43 -7 -43 -34q0 -23 25.5 -32t77.5 -9h98zM259 404q-51 0 -82 -27t-31 -72t30.5 -72t81.5 -27q52 0 83 27t31 72t-31 72t-82 27zM265 -135q85 0 122 17t37 56q0 34 -26 46t-83 12
h-96h-9q-106 0 -106 -62q0 -36 37.5 -52.5t123.5 -16.5z" />
    <glyph glyph-name="Gbreve" unicode="&#x11e;" horiz-adv-x="665" 
d="M346 691q-59 0 -92 35t-33 88h68q0 -59 56 -61q57 0 57 61h68q0 -53 -33 -88t-91 -35zM608 326v-326h-55q-8 28 -14 93q-54 -99 -199 -99q-131 0 -211 92.5t-80 243.5t83 243.5t214 92.5q66 0 116.5 -21t78.5 -54t41.5 -68.5t13.5 -69.5l-84 -14q0 56 -41.5 101.5
t-123.5 45.5q-88 0 -147 -68.5t-59 -187.5q0 -116 57 -186t155 -70q86 0 133 46.5t47 115.5v14h-211v76h286z" />
    <glyph glyph-name="gbreve" unicode="&#x11f;" horiz-adv-x="530" 
d="M265 543q-65 0 -100.5 40.5t-35.5 102.5h74q0 -38 16.5 -59t44.5 -22q29 0 45.5 21.5t16.5 59.5h74q0 -61 -35 -102t-100 -41zM332 71q85 0 132 -34t47 -99q0 -66 -59.5 -106.5t-186.5 -40.5q-124 0 -186 34t-62 96q0 71 80 100q-46 26 -46 80q0 55 62 79q-56 47 -56 125
q0 77 55 124.5t146 47.5q84 0 139 -41q49 23 49 113l75 -16q0 -60 -30 -92.5t-61 -37.5q31 -42 31 -98q0 -77 -55.5 -124.5t-146.5 -47.5q-44 0 -85 13q-43 -7 -43 -34q0 -23 25.5 -32t77.5 -9h98zM259 404q-51 0 -82 -27t-31 -72t30.5 -72t81.5 -27q52 0 83 27t31 72
t-31 72t-82 27zM265 -135q85 0 122 17t37 56q0 34 -26 46t-83 12h-105q-106 0 -106 -62q0 -36 37.5 -52.5t123.5 -16.5z" />
    <glyph glyph-name="Gdotaccent" unicode="&#x120;" horiz-adv-x="665" 
d="M345 694q-26 0 -43.5 17t-17.5 42t17.5 42.5t43.5 17.5t44 -17.5t18 -42.5t-18 -42t-44 -17zM608 326v-326h-55q-8 28 -14 93q-54 -99 -199 -99q-131 0 -211 92.5t-80 243.5t83 243.5t214 92.5q66 0 116.5 -21t78.5 -54t41.5 -68.5t13.5 -69.5l-84 -14q0 56 -41.5 101.5
t-123.5 45.5q-88 0 -147 -68.5t-59 -187.5q0 -116 57 -186t155 -70q86 0 133 46.5t47 115.5v14h-211v76h286z" />
    <glyph glyph-name="gdotaccent" unicode="&#x121;" horiz-adv-x="530" 
d="M265 566q-26 0 -43.5 17t-17.5 42t17.5 42.5t43.5 17.5t44 -17.5t18 -42.5t-18 -42t-44 -17zM332 71q85 0 132 -34t47 -99q0 -66 -59.5 -106.5t-186.5 -40.5q-124 0 -186 34t-62 96q0 71 80 100q-46 26 -46 80q0 55 62 79q-56 47 -56 125q0 77 55 124.5t146 47.5
q84 0 139 -41q49 23 49 113l75 -16q0 -60 -30 -92.5t-61 -37.5q31 -42 31 -98q0 -77 -55.5 -124.5t-146.5 -47.5q-44 0 -85 13q-43 -7 -43 -34q0 -23 25.5 -32t77.5 -9h98zM259 404q-51 0 -82 -27t-31 -72t30.5 -72t81.5 -27q52 0 83 27t31 72t-31 72t-82 27zM265 -135
q85 0 122 17t37 56q0 34 -26 46t-83 12h-105q-106 0 -106 -62q0 -36 37.5 -52.5t123.5 -16.5z" />
    <glyph glyph-name="Gcommaaccent" unicode="&#x122;" horiz-adv-x="665" 
d="M608 326v-326h-55q-8 28 -14 93q-54 -99 -199 -99q-131 0 -211 92.5t-80 243.5t83 243.5t214 92.5q66 0 116.5 -21t78.5 -54t41.5 -68.5t13.5 -69.5l-84 -14q0 56 -41.5 101.5t-123.5 45.5q-88 0 -147 -68.5t-59 -187.5q0 -116 57 -186t155 -70q86 0 133 46.5t47 115.5
v14h-211v76h286zM340 -39q26 0 44 -17.5t18 -49.5q0 -31 -9 -57t-22 -41.5t-26.5 -26.5t-22.5 -15l-9 -4l-26 41q6 3 14.5 8t23.5 19t15 26q-24 0 -41.5 17t-17.5 41q0 25 17 42t42 17z" />
    <glyph glyph-name="gcommaaccent" unicode="&#x123;" horiz-adv-x="530" 
d="M265 511q-26 0 -44 17.5t-18 49.5q0 31 9 57t22 41.5t26.5 26.5t22.5 15l9 4l26 -41q-6 -3 -14.5 -8t-23.5 -19t-15 -26q24 0 41.5 -17t17.5 -41q0 -25 -17 -42t-42 -17zM332 71q85 0 132 -34t47 -99q0 -66 -59.5 -106.5t-186.5 -40.5q-124 0 -186 34t-62 96q0 71 80 100
q-46 26 -46 80q0 55 62 79q-56 47 -56 125q0 77 55 124.5t146 47.5q84 0 139 -41q49 23 49 113l75 -16q0 -60 -30 -92.5t-61 -37.5q31 -42 31 -98q0 -77 -55.5 -124.5t-146.5 -47.5q-44 0 -85 13q-43 -7 -43 -34q0 -23 25.5 -32t77.5 -9h98zM259 404q-51 0 -82 -27t-31 -72
t30.5 -72t81.5 -27q52 0 83 27t31 72t-31 72t-82 27zM265 -135q85 0 122 17t37 56q0 34 -26 46t-83 12h-105q-106 0 -106 -62q0 -36 37.5 -52.5t123.5 -16.5z" />
    <glyph glyph-name="Hcircumflex" unicode="&#x124;" horiz-adv-x="707" 
d="M363 758l-68 -64l-79 -3l98 134h99l98 -134l-79 3zM531 660h91v-660h-91v304h-355v-304h-91v660h91v-279h355v279z" />
    <glyph glyph-name="Hbar" unicode="&#x126;" horiz-adv-x="707" 
d="M677 577v-74h-55v-503h-91v304h-355v-304h-91v503h-56v74h56v83h91v-83h355v83h91v-83h55zM531 381v122h-355v-122h355z" />
    <glyph glyph-name="hbar" unicode="&#x127;" horiz-adv-x="565" 
d="M316 478q84 0 134 -52t50 -137v-289h-89v289q0 53 -29 84t-81 31q-68 0 -105 -48.5t-37 -109.5v-246h-89v549h-59v64h59v93h87v-93h154v-64h-154v-160h2q51 89 157 89z" />
    <glyph glyph-name="Itilde" unicode="&#x128;" horiz-adv-x="261" 
d="M280 811q4 -15 4 -41q0 -36 -22.5 -62.5t-64.5 -26.5q-36 0 -82.5 27.5t-58.5 27.5q-14 0 -22 -8.5t-8 -22.5l4 -27h-69q-5 17 -5 39q0 38 25.5 61.5t66.5 23.5q38 0 82 -27.5t55 -27.5q29 0 29 35l-4 29h70zM85 0v660h91v-660h-91z" />
    <glyph glyph-name="itilde" unicode="&#x129;" horiz-adv-x="231" 
d="M263 688q4 -15 4 -41q0 -36 -23.5 -62.5t-68.5 -26.5q-33 0 -77.5 27.5t-55.5 27.5q-33 0 -33 -35l4 -29h-69q-5 17 -5 41q0 35 25.5 62t66.5 27q38 0 82 -27.5t55 -27.5q29 0 29 35l-4 29h70zM71 0v472l89 3v-475h-89z" />
    <glyph glyph-name="Imacron" unicode="&#x12a;" horiz-adv-x="261" 
d="M-6 710v65h284v-65h-284zM85 0v660h91v-660h-91z" />
    <glyph glyph-name="imacron" unicode="&#x12b;" horiz-adv-x="231" 
d="M-25 592v65h280v-65h-280zM71 0v472l89 3v-475h-89z" />
    <glyph glyph-name="Ibreve" unicode="&#x12c;" horiz-adv-x="261" 
d="M255 814q0 -53 -33 -88t-91 -35q-59 0 -92 35t-33 88h68q0 -59 56 -61q57 0 57 61h68zM85 0v660h91v-660h-91z" />
    <glyph glyph-name="ibreve" unicode="&#x12d;" horiz-adv-x="231" 
d="M249 686q0 -61 -35 -102t-100 -41t-100.5 40.5t-35.5 102.5h74q0 -38 16.5 -59t44.5 -22q29 0 45.5 21.5t16.5 59.5h74zM71 0v472l89 3v-475h-89z" />
    <glyph glyph-name="Iogonek" unicode="&#x12e;" horiz-adv-x="261" 
d="M192 -112l25 -51q-3 -4 -9.5 -10t-29.5 -16.5t-48 -10.5q-45 0 -73 25t-28 65q0 66 59 110h-3v660h91v-660q-3 -1 -8.5 -3t-19 -10t-23.5 -18t-18.5 -27t-8.5 -37q0 -21 12 -32.5t31 -11.5q14 0 27 6.5t18 13.5z" />
    <glyph glyph-name="iogonek" unicode="&#x12f;" horiz-adv-x="231" 
d="M118 566q-26 0 -43.5 17t-17.5 42t17.5 42.5t43.5 17.5t44 -17.5t18 -42.5t-18 -42t-44 -17zM176 -112l25 -51q-3 -4 -9.5 -10t-29.5 -16.5t-48 -10.5q-45 0 -73 25t-28 65q0 66 59 110h-1v472l89 3v-475q-3 -1 -8.5 -3t-19 -10t-23.5 -18t-18.5 -27t-8.5 -37
q0 -21 12 -32.5t31 -11.5q14 0 27 6.5t18 13.5z" />
    <glyph glyph-name="Idotaccent" unicode="&#x130;" horiz-adv-x="261" 
d="M130 694q-26 0 -43.5 17t-17.5 42t17.5 42.5t43.5 17.5t44 -17.5t18 -42.5t-18 -42t-44 -17zM85 0v660h91v-660h-91z" />
    <glyph glyph-name="dotlessi" unicode="&#x131;" horiz-adv-x="231" 
d="M71 0v472l89 3v-475h-89z" />
    <glyph glyph-name="IJ" unicode="&#x132;" horiz-adv-x="725" 
d="M85 0v660h91v-660h-91zM322 130q56 -56 117 -56q57 0 86 27t29 88v471h91v-466q0 -98 -55.5 -149t-150.5 -51q-97 0 -173 69z" />
    <glyph glyph-name="ij" unicode="&#x133;" horiz-adv-x="461" 
d="M115 685q26 0 44 -17.5t18 -42.5t-18 -42t-44 -17t-43.5 17t-17.5 42t17.5 42.5t43.5 17.5zM354 685q26 0 44 -17.5t18 -42.5t-18 -42t-44 -17t-43.5 17t-17.5 42t17.5 42.5t43.5 17.5zM71 0v472l89 3v-475h-89zM162 -119q20 -15 55 -15q84 0 84 93v513l89 3v-499
q0 -184 -165 -184q-27 0 -49.5 7t-31.5 14l-9 7z" />
    <glyph glyph-name="Jcircumflex" unicode="&#x134;" horiz-adv-x="464" 
d="M387 825l98 -134l-79 3l-69 64l-68 -64l-79 -3l98 134h99zM61 130q56 -56 117 -56q57 0 86 27t29 88v471h91v-466q0 -98 -55.5 -149t-150.5 -51q-97 0 -173 69z" />
    <glyph glyph-name="jcircumflex" unicode="&#x135;" horiz-adv-x="238" 
d="M-24 553l98 154h99l98 -154l-79 3l-69 84l-68 -84zM-61 -119q20 -15 55 -15q84 0 84 93v513l89 3v-499q0 -184 -165 -184q-27 0 -49.5 7t-31.5 14l-9 7z" />
    <glyph glyph-name="Kcommaaccent" unicode="&#x136;" horiz-adv-x="585" 
d="M315 322l263 -321h-100l-228 283h-74v-284h-91v660h91v-299h74l228 299h97zM312 -39q26 0 44 -17.5t18 -49.5q0 -31 -9 -57t-22 -41.5t-26.5 -26.5t-22.5 -15l-9 -4l-26 41q6 3 14.5 8t23.5 19t15 26q-24 0 -41.5 17t-17.5 41q0 25 17 42t42 17z" />
    <glyph glyph-name="kcommaaccent" unicode="&#x137;" horiz-adv-x="505" 
d="M286 251l220 -251h-111l-186 217h-51v-217h-88v706h88v-418h65l162 184h101zM263 -39q26 0 44 -17.5t18 -49.5q0 -31 -9 -57t-22 -41.5t-26.5 -26.5t-22.5 -15l-9 -4l-26 41q6 3 14.5 8t23.5 19t15 26q-24 0 -41.5 17t-17.5 41q0 25 17 42t42 17z" />
    <glyph glyph-name="kgreenlandic" unicode="&#x138;" horiz-adv-x="504" 
d="M395 0l-183 197h-54v-197h-88v472h88v-204h62l165 204h101l-200 -241l220 -231h-111z" />
    <glyph glyph-name="Lacute" unicode="&#x139;" horiz-adv-x="518" 
d="M261 816l-92 -120l-79 -5l57 125h114zM176 77h329v-77h-420v660h91v-583z" />
    <glyph glyph-name="lacute" unicode="&#x13a;" horiz-adv-x="230" 
d="M152 782l-80 -5l57 155h114zM71 0v706h88v-706h-88z" />
    <glyph glyph-name="Lcommaaccent" unicode="&#x13b;" horiz-adv-x="518" 
d="M176 77h329v-77h-420v660h91v-583zM314 -39q26 0 44 -17.5t18 -49.5q0 -31 -9 -57t-22 -41.5t-26.5 -26.5t-22.5 -15l-9 -4l-26 41q6 3 14.5 8t23.5 19t15 26q-24 0 -41.5 17t-17.5 41q0 25 17 42t42 17z" />
    <glyph glyph-name="lcommaaccent" unicode="&#x13c;" horiz-adv-x="230" 
d="M71 0v706h88v-706h-88zM56 -98q0 25 17 42t42 17q26 0 44 -17.5t18 -49.5q0 -31 -9 -57t-22.5 -41.5t-26.5 -26.5t-22 -15l-9 -4l-26 41q6 3 14.5 8t23.5 19t15 26q-24 0 -41.5 17t-17.5 41z" />
    <glyph glyph-name="Lcaron" unicode="&#x13d;" horiz-adv-x="518" 
d="M400 580q-24 0 -41.5 17t-17.5 41q0 25 17 42t42 17q26 0 44 -17.5t18 -49.5q0 -53 -21.5 -97t-42.5 -61l-21 -18l-33 45q6 4 15.5 11.5t25 28.5t15.5 41zM176 77h329v-77h-420v660h91v-583z" />
    <glyph glyph-name="lcaron" unicode="&#x13e;" horiz-adv-x="241" 
d="M202 658q0 25 17 42t42 17q26 0 44 -17.5t18 -49.5q0 -53 -21.5 -97t-42.5 -61l-21 -18l-33 45q6 4 15.5 11.5t25 28.5t15.5 41q-24 0 -41.5 17t-17.5 41zM71 0v706h88v-706h-88z" />
    <glyph glyph-name="Ldot" unicode="&#x13f;" horiz-adv-x="518" 
d="M176 77h329v-77h-420v660h91v-583zM337 255q-25 0 -42 17t-17 41t17 41.5t42 17.5q24 0 41 -17.5t17 -41.5t-17 -41t-41 -17z" />
    <glyph glyph-name="ldot" unicode="&#x140;" horiz-adv-x="323" 
d="M71 0v706h88v-706h-88zM339 350q0 -25 -18 -42t-44 -17t-43.5 17t-17.5 42t17.5 42.5t43.5 17.5t44 -17.5t18 -42.5z" />
    <glyph glyph-name="Lslash" unicode="&#x141;" horiz-adv-x="518" 
d="M176 77h329v-77h-420v230l-75 -44l-32 58l107 62v354h91v-301l141 82l33 -57l-174 -101v-206z" />
    <glyph glyph-name="lslash" unicode="&#x142;" horiz-adv-x="318" 
d="M309 429l-104 -61v-368h-88v317l-69 -40l-32 58l101 59v312h88v-261l71 41z" />
    <glyph glyph-name="Nacute" unicode="&#x143;" horiz-adv-x="689" 
d="M378 696l-79 -5l57 125h114zM604 660v-660h-99l-262 414q-55 88 -70 122l-5 -3q6 -18 6 -118l2 -415h-91v660h101l262 -418q36 -58 67 -120l6 3q-6 84 -6 119l-2 416h91z" />
    <glyph glyph-name="nacute" unicode="&#x144;" horiz-adv-x="564" 
d="M394 698l-91 -150l-80 -5l57 155h114zM315 478q84 0 134 -52t50 -137v-289h-89v289q0 53 -29 84t-81 31q-68 0 -105 -49t-37 -108v-247h-88v472l62 3q12 -54 12 -110h3q21 49 63 81t105 32z" />
    <glyph glyph-name="Ncommaaccent" unicode="&#x145;" horiz-adv-x="689" 
d="M604 660v-660h-99l-262 414q-55 88 -70 122l-5 -3q6 -18 6 -118l2 -415h-91v660h101l262 -418q36 -58 67 -120l6 3q-6 84 -6 119l-2 416h91zM283 -98q0 25 17 42t42 17q26 0 44 -17.5t18 -49.5q0 -31 -9 -57t-22 -41.5t-26.5 -26.5t-22.5 -15l-9 -4l-26 41q6 3 14.5 8
t23.5 19t15 26q-24 0 -41.5 17t-17.5 41z" />
    <glyph glyph-name="ncommaaccent" unicode="&#x146;" horiz-adv-x="564" 
d="M315 478q84 0 134 -52t50 -137v-289h-89v289q0 53 -29 84t-81 31q-68 0 -105 -49t-37 -108v-247h-88v472l62 3q12 -54 12 -110h3q21 49 63 81t105 32zM285 -39q26 0 44 -17.5t18 -49.5q0 -31 -9 -57t-22 -41.5t-26.5 -26.5t-22.5 -15l-9 -4l-26 41q6 3 14.5 8t23.5 19
t15 26q-24 0 -41.5 17t-17.5 41q0 25 17 42t42 17z" />
    <glyph glyph-name="Ncaron" unicode="&#x147;" horiz-adv-x="689" 
d="M196 830l79 -3l68 -64l69 64l79 3l-98 -134h-99zM604 660v-660h-99l-262 414q-55 88 -70 122l-5 -3q6 -18 6 -118l2 -415h-91v660h101l262 -418q36 -58 67 -120l6 3q-6 84 -6 119l-2 416h91z" />
    <glyph glyph-name="ncaron" unicode="&#x148;" horiz-adv-x="564" 
d="M335 543h-99l-98 154l79 -3l68 -84l69 84l79 3zM315 478q84 0 134 -52t50 -137v-289h-89v289q0 53 -29 84t-81 31q-68 0 -105 -49t-37 -108v-247h-88v472l62 3q12 -54 12 -110h3q21 49 63 81t105 32z" />
    <glyph glyph-name="napostrophe" unicode="&#x149;" horiz-adv-x="564" 
d="M16 720q26 0 44 -17.5t18 -49.5q0 -53 -21.5 -97t-42.5 -62l-21 -17l-33 45q6 4 15.5 11.5t25 28.5t15.5 41q-24 0 -41.5 17t-17.5 41q0 25 17 42t42 17zM315 478q84 0 134 -52t50 -137v-289h-89v289q0 53 -29 84t-81 31q-68 0 -105 -49t-37 -108v-247h-88v472l62 3
q12 -54 12 -110h3q21 49 63 81t105 32z" />
    <glyph glyph-name="Eng" unicode="&#x14a;" horiz-adv-x="689" 
d="M513 660h91v-686q0 -108 -58.5 -164t-150.5 -56q-51 0 -94 18t-61 36l-17 18l58 63q5 -6 14 -15.5t38.5 -25.5t61.5 -16q57 0 87.5 34t30.5 102v32h-8l-262 414q-55 88 -70 122l-5 -3q6 -18 6 -118l2 -415h-91v660h101l262 -418q36 -58 67 -120l6 3q-6 84 -6 119z" />
    <glyph glyph-name="eng" unicode="&#x14b;" horiz-adv-x="564" 
d="M315 478q84 0 134 -52t50 -137v-313q0 -184 -165 -184q-27 0 -49.5 7t-31.5 14l-9 7l27 61q20 -15 55 -15q84 0 84 93v330q0 53 -29 84t-81 31q-68 0 -105 -49t-37 -108v-247h-88v472l62 3q12 -54 12 -110h3q21 49 63 81t105 32z" />
    <glyph glyph-name="Omacron" unicode="&#x14c;" horiz-adv-x="716" 
d="M221 710v65h284v-65h-284zM358 666q137 0 223.5 -91.5t86.5 -244.5t-86.5 -244.5t-223.5 -91.5t-223.5 91.5t-86.5 244.5t86.5 244.5t223.5 91.5zM358 74q97 0 157.5 69.5t60.5 186.5t-60.5 186.5t-157.5 69.5q-96 0 -157 -70t-61 -186t61 -186t157 -70z" />
    <glyph glyph-name="omacron" unicode="&#x14d;" horiz-adv-x="568" 
d="M145 592v65h280v-65h-280zM284 478q109 0 176 -68t67 -176q0 -107 -67 -173.5t-176 -66.5t-176 66.5t-67 173.5q0 108 67 176t176 68zM284 68q69 0 111 46t42 120t-42.5 122t-110.5 48t-110.5 -48t-42.5 -122t42 -120t111 -46z" />
    <glyph glyph-name="Obreve" unicode="&#x14e;" horiz-adv-x="716" 
d="M482 814q0 -53 -33 -88t-91 -35q-59 0 -92 35t-33 88h68q0 -59 56 -61q57 0 57 61h68zM358 666q137 0 223.5 -91.5t86.5 -244.5t-86.5 -244.5t-223.5 -91.5t-223.5 91.5t-86.5 244.5t86.5 244.5t223.5 91.5zM358 74q97 0 157.5 69.5t60.5 186.5t-60.5 186.5t-157.5 69.5
q-96 0 -157 -70t-61 -186t61 -186t157 -70z" />
    <glyph glyph-name="obreve" unicode="&#x14f;" horiz-adv-x="568" 
d="M419 686q0 -61 -35 -102t-100 -41t-100.5 40.5t-35.5 102.5h74q0 -38 16.5 -59t44.5 -22q29 0 45.5 21.5t16.5 59.5h74zM284 478q109 0 176 -68t67 -176q0 -107 -67 -173.5t-176 -66.5t-176 66.5t-67 173.5q0 108 67 176t176 68zM284 68q69 0 111 46t42 120t-42.5 122
t-110.5 48t-110.5 -48t-42.5 -122t42 -120t111 -46z" />
    <glyph glyph-name="Ohungarumlaut" unicode="&#x150;" horiz-adv-x="716" 
d="M291 696l-79 -5l57 125h114zM467 696l-79 -5l57 125h114zM358 666q137 0 223.5 -91.5t86.5 -244.5t-86.5 -244.5t-223.5 -91.5t-223.5 91.5t-86.5 244.5t86.5 244.5t223.5 91.5zM358 74q97 0 157.5 69.5t60.5 186.5t-60.5 186.5t-157.5 69.5q-96 0 -157 -70t-61 -186
t61 -186t157 -70z" />
    <glyph glyph-name="ohungarumlaut" unicode="&#x151;" horiz-adv-x="568" 
d="M237 548l-79 -5l57 155h114zM395 548l-79 -5l57 155h114zM284 478q109 0 176 -68t67 -176q0 -107 -67 -173.5t-176 -66.5t-176 66.5t-67 173.5q0 108 67 176t176 68zM284 68q69 0 111 46t42 120t-42.5 122t-110.5 48t-110.5 -48t-42.5 -122t42 -120t111 -46z" />
    <glyph glyph-name="OE" unicode="&#x152;" horiz-adv-x="1041" 
d="M989 583h-318v-202h283v-77h-283v-227h318v-77h-409v84q-85 -90 -222 -90t-223.5 91.5t-86.5 244.5t86.5 244.5t223.5 91.5t222 -90v84h409v-77zM358 74q97 0 157.5 69.5t60.5 186.5t-60.5 186.5t-157.5 69.5q-96 0 -157 -70t-61 -186t61 -186t157 -70z" />
    <glyph glyph-name="oe" unicode="&#x153;" horiz-adv-x="927" 
d="M883 212h-354q7 -66 49.5 -105t112.5 -39q87 0 134 62l54 -49q-66 -87 -195 -87q-135 0 -202 92q-67 -92 -198 -92q-109 0 -176 66.5t-67 173.5q0 108 67 176t176 68q130 0 197 -93q66 93 191 93q101 0 158 -62.5t57 -158.5zM284 68q69 0 111 46t42 120t-42.5 122
t-110.5 48t-110.5 -48t-42.5 -122t42 -120t111 -46zM672 404q-56 0 -93.5 -35.5t-47.5 -93.5h266q-1 59 -35 94t-90 35z" />
    <glyph glyph-name="Racute" unicode="&#x154;" horiz-adv-x="599" 
d="M412 816l-92 -120l-79 -5l57 125h114zM578 69l7 -70q-25 -5 -54 -5q-51 0 -85 27t-52.5 65t-36.5 76t-49.5 65t-78.5 27h-53v-254h-91v660h199q242 0 242 -205q0 -67 -40 -114.5t-108 -70.5q28 -16 51 -52t36 -68t37 -57.5t56 -25.5zM176 325h95q72 0 117.5 34.5
t45.5 95.5q0 128 -154 128h-104v-258z" />
    <glyph glyph-name="racute" unicode="&#x155;" horiz-adv-x="345" 
d="M304 698l-91 -150l-80 -5l57 155h114zM276 478q32 0 61 -8l-22 -89q-18 11 -44 11q-44 0 -78.5 -38t-34.5 -107v-247h-88v472l62 3q12 -54 12 -110h4q33 113 128 113z" />
    <glyph glyph-name="Rcommaaccent" unicode="&#x156;" horiz-adv-x="599" 
d="M578 69l7 -70q-25 -5 -54 -5q-51 0 -85 27t-52.5 65t-36.5 76t-49.5 65t-78.5 27h-53v-254h-91v660h199q242 0 242 -205q0 -67 -40 -114.5t-108 -70.5q28 -16 51 -52t36 -68t37 -57.5t56 -25.5zM176 325h95q72 0 117.5 34.5t45.5 95.5q0 128 -154 128h-104v-258zM314 -39
q26 0 44 -17.5t18 -49.5q0 -31 -9 -57t-22 -41.5t-26.5 -26.5t-22.5 -15l-9 -4l-26 41q6 3 14.5 8t23.5 19t15 26q-24 0 -41.5 17t-17.5 41q0 25 17 42t42 17z" />
    <glyph glyph-name="rcommaaccent" unicode="&#x157;" horiz-adv-x="345" 
d="M276 478q32 0 61 -8l-22 -89q-18 11 -44 11q-44 0 -78.5 -38t-34.5 -107v-247h-88v472l62 3q12 -54 12 -110h4q33 113 128 113zM120 -39q26 0 44 -17.5t18 -49.5q0 -31 -9 -57t-22 -41.5t-26.5 -26.5t-22.5 -15l-9 -4l-26 41q6 3 14.5 8t23.5 19t15 26q-24 0 -41.5 17
t-17.5 41q0 25 17 42t42 17z" />
    <glyph glyph-name="Rcaron" unicode="&#x158;" horiz-adv-x="599" 
d="M335 696h-99l-98 134l79 -3l68 -64l69 64l79 3zM578 69l7 -70q-25 -5 -54 -5q-51 0 -85 27t-52.5 65t-36.5 76t-49.5 65t-78.5 27h-53v-254h-91v660h199q242 0 242 -205q0 -67 -40 -114.5t-108 -70.5q28 -16 51 -52t36 -68t37 -57.5t56 -25.5zM176 325h95
q72 0 117.5 34.5t45.5 95.5q0 128 -154 128h-104v-258z" />
    <glyph glyph-name="rcaron" unicode="&#x159;" horiz-adv-x="345" 
d="M245 543h-99l-98 154l79 -3l68 -84l69 84l79 3zM148 365q33 113 128 113q32 0 61 -8l-22 -89q-18 11 -44 11q-44 0 -78.5 -38t-34.5 -107v-247h-88v472l62 3q12 -54 12 -110h4z" />
    <glyph glyph-name="Sacute" unicode="&#x15a;" horiz-adv-x="556" 
d="M297 696l-79 -5l57 125h114zM421 484q-6 36 -41.5 69t-103.5 33q-58 0 -92.5 -26.5t-34.5 -73.5q0 -28 20 -48t51.5 -33t70.5 -24.5t77.5 -27t70 -37t51.5 -59t20 -87.5q0 -80 -64.5 -128t-170.5 -48q-80 0 -143.5 23.5t-99.5 54.5l57 71q78 -69 186 -69q68 0 106.5 26
t38.5 70q0 48 -37.5 77.5t-91 45.5t-106.5 34t-90.5 57t-37.5 101q0 81 61 131t158 50q189 0 230 -161z" />
    <glyph glyph-name="sacute" unicode="&#x15b;" horiz-adv-x="471" 
d="M252 548l-80 -5l57 155h114zM336 303q3 10 3 23q0 36 -29 57t-76 21q-44 0 -68.5 -18t-24.5 -48t29.5 -46.5t71 -24.5t83.5 -19t72 -40.5t31 -79.5q1 -63 -53 -98.5t-142 -35.5q-117 0 -204 71l54 60q21 -20 62 -38.5t89 -18.5q51 0 77.5 16.5t26.5 44.5q0 26 -29.5 41.5
t-71.5 24.5t-84.5 21.5t-72 43t-29.5 79.5q0 59 51.5 99t133.5 40t133.5 -38.5t51.5 -97.5l-4 -33z" />
    <glyph glyph-name="Scircumflex" unicode="&#x15c;" horiz-adv-x="556" 
d="M312 825l98 -134l-79 3l-69 64l-68 -64l-79 -3l98 134h99zM421 484q-6 36 -41.5 69t-103.5 33q-58 0 -92.5 -26.5t-34.5 -73.5q0 -28 20 -48t51.5 -33t70.5 -24.5t77.5 -27t70 -37t51.5 -59t20 -87.5q0 -80 -64.5 -128t-170.5 -48q-80 0 -143.5 23.5t-99.5 54.5l57 71
q78 -69 186 -69q68 0 106.5 26t38.5 70q0 48 -37.5 77.5t-91 45.5t-106.5 34t-90.5 57t-37.5 101q0 81 61 131t158 50q189 0 230 -161z" />
    <glyph glyph-name="scircumflex" unicode="&#x15d;" horiz-adv-x="471" 
d="M87 543l98 154h99l98 -154l-79 3l-69 84l-68 -84zM336 303q3 10 3 23q0 36 -29 57t-76 21q-44 0 -68.5 -18t-24.5 -48t29.5 -46.5t71 -24.5t83.5 -19t72 -40.5t31 -79.5q1 -63 -53 -98.5t-142 -35.5q-117 0 -204 71l54 60q21 -20 62 -38.5t89 -18.5q51 0 77.5 16.5
t26.5 44.5q0 26 -29.5 41.5t-71.5 24.5t-84.5 21.5t-72 43t-29.5 79.5q0 59 51.5 99t133.5 40t133.5 -38.5t51.5 -97.5l-4 -33z" />
    <glyph glyph-name="Scedilla" unicode="&#x15e;" horiz-adv-x="556" 
d="M510 170q0 -74 -56.5 -121.5t-151.5 -53.5l-11 -24q31 -4 55 -24.5t24 -57.5q0 -41 -30 -64.5t-76 -23.5q-27 0 -50.5 9.5t-33.5 19.5l-10 9l25 50q26 -27 68 -27q43 0 43 30q0 40 -92 40l27 63q-130 9 -209 77l57 71q78 -69 186 -69q68 0 106.5 26t38.5 70
q0 48 -37.5 77.5t-91 45.5t-106.5 34t-90.5 57t-37.5 101q0 81 61 131t158 50q189 0 230 -161l-85 -21q-6 36 -41.5 69t-103.5 33q-58 0 -92.5 -26.5t-34.5 -73.5q0 -28 20 -48t51.5 -33t70.5 -24.5t77.5 -27t70 -37t51.5 -59t20 -87.5z" />
    <glyph glyph-name="scedilla" unicode="&#x15f;" horiz-adv-x="471" 
d="M428 128q1 -57 -44 -92t-120 -41l-11 -24q31 -4 55 -24.5t24 -57.5q0 -41 -30 -64.5t-76 -23.5q-27 0 -50.5 9.5t-33.5 19.5l-10 9l25 50q26 -27 68 -27q43 0 43 30q0 40 -92 40l27 63q-95 7 -174 70l54 60q21 -20 62 -38.5t89 -18.5q51 0 77.5 16.5t26.5 44.5
q0 26 -29.5 41.5t-71.5 24.5t-84.5 21.5t-72 43t-29.5 79.5q0 59 51.5 99t133.5 40t133.5 -38.5t51.5 -97.5l-4 -33l-81 -6q3 10 3 23q0 36 -29 57t-76 21q-44 0 -68.5 -18t-24.5 -48t29.5 -46.5t71 -24.5t83.5 -19t72 -40.5t31 -79.5z" />
    <glyph glyph-name="Scaron" unicode="&#x160;" horiz-adv-x="556" 
d="M115 830l79 -3l68 -64l69 64l79 3l-98 -134h-99zM421 484q-6 36 -41.5 69t-103.5 33q-58 0 -92.5 -26.5t-34.5 -73.5q0 -28 20 -48t51.5 -33t70.5 -24.5t77.5 -27t70 -37t51.5 -59t20 -87.5q0 -80 -64.5 -128t-170.5 -48q-80 0 -143.5 23.5t-99.5 54.5l57 71
q78 -69 186 -69q68 0 106.5 26t38.5 70q0 48 -37.5 77.5t-91 45.5t-106.5 34t-90.5 57t-37.5 101q0 81 61 131t158 50q189 0 230 -161z" />
    <glyph glyph-name="scaron" unicode="&#x161;" horiz-adv-x="471" 
d="M87 697l79 -3l68 -84l69 84l79 3l-98 -154h-99zM336 303q3 10 3 23q0 36 -29 57t-76 21q-44 0 -68.5 -18t-24.5 -48t29.5 -46.5t71 -24.5t83.5 -19t72 -40.5t31 -79.5q1 -63 -53 -98.5t-142 -35.5q-117 0 -204 71l54 60q21 -20 62 -38.5t89 -18.5q51 0 77.5 16.5
t26.5 44.5q0 26 -29.5 41.5t-71.5 24.5t-84.5 21.5t-72 43t-29.5 79.5q0 59 51.5 99t133.5 40t133.5 -38.5t51.5 -97.5l-4 -33z" />
    <glyph glyph-name="uni0162" unicode="&#x162;" horiz-adv-x="541" 
d="M316 0h-18l-13 -29q31 -4 55 -24.5t24 -57.5q0 -41 -30 -64.5t-76 -23.5q-27 0 -50.5 9.5t-33.5 19.5l-10 9l25 50q26 -27 68 -27q43 0 43 30q0 40 -92 40l29 68h-12v583h-212v77h515v-77h-212v-583z" />
    <glyph glyph-name="uni0163" unicode="&#x163;" horiz-adv-x="404" 
d="M260 -29q31 -4 55 -24.5t24 -57.5q0 -41 -30 -64.5t-76 -23.5q-27 0 -50.5 9.5t-33.5 19.5l-10 9l25 50q26 -27 68 -27q43 0 43 30q0 40 -92 40l30 68q-112 27 -112 180v221h-75v71h75v140l89 5v-145h183v-71h-183v-218q0 -114 91 -114q24 0 46 6.5t31 13.5l10 7l28 -71
q-47 -31 -124 -31h-2z" />
    <glyph glyph-name="Tcaron" unicode="&#x164;" horiz-adv-x="541" 
d="M127 830l79 -3l68 -64l69 64l79 3l-98 -134h-99zM225 0v583h-212v77h515v-77h-212v-583h-91z" />
    <glyph glyph-name="tcaron" unicode="&#x165;" horiz-adv-x="404" 
d="M294 583q-24 0 -41.5 17t-17.5 41q0 25 17 42t42 17q26 0 44 -17.5t18 -49.5q0 -31 -9 -56t-22 -39t-26.5 -23.5t-22.5 -12.5l-9 -3l-26 41q52 16 53 43zM368 96l28 -71q-47 -31 -124 -31q-90 0 -130.5 46.5t-40.5 139.5v221h-75v71h75v140l89 5v-145h183v-71h-183v-218
q0 -114 91 -114q24 0 46 6.5t31 13.5z" />
    <glyph glyph-name="Tbar" unicode="&#x166;" horiz-adv-x="541" 
d="M528 583h-212v-201h130v-74h-130v-308h-91v308h-139v74h139v201h-212v77h515v-77z" />
    <glyph glyph-name="tbar" unicode="&#x167;" horiz-adv-x="404" 
d="M368 96l28 -71q-47 -31 -124 -31q-90 0 -130.5 46.5t-40.5 139.5v37h-67v64h67v120h-75v71h75v140l89 5v-145h183v-71h-183v-120h144v-64h-144v-34q0 -114 91 -114q24 0 46 6.5t31 13.5z" />
    <glyph glyph-name="Utilde" unicode="&#x168;" horiz-adv-x="683" 
d="M513 811q4 -15 4 -41q0 -36 -22.5 -62.5t-64.5 -26.5q-36 0 -82.5 27.5t-58.5 27.5q-14 0 -22 -8.5t-8 -22.5l4 -27h-69q-5 17 -5 39q0 38 25.5 61.5t66.5 23.5q38 0 82 -27.5t55 -27.5q29 0 29 35l-4 29h70zM513 660h91v-405q0 -117 -72.5 -189t-189.5 -72
q-118 0 -190.5 71.5t-72.5 189.5v405h91v-403q0 -86 47 -134.5t125 -48.5q77 0 124 48.5t47 132.5v405z" />
    <glyph glyph-name="utilde" unicode="&#x169;" horiz-adv-x="553" 
d="M173 549h-69q-5 17 -5 41q0 35 25.5 62t66.5 27q38 0 82 -27.5t55 -27.5q29 0 29 35l-4 29h70q4 -15 4 -41q0 -36 -23.5 -62.5t-68.5 -26.5q-33 0 -77.5 27.5t-55.5 27.5q-33 0 -33 -35zM395 472h88v-472l-64 -3q-12 54 -12 100h-1q-47 -103 -157 -103q-84 0 -134 52
t-50 137v289h89v-289q0 -53 29 -84t81 -31q60 0 95.5 49.5t35.5 107.5v247z" />
    <glyph glyph-name="Umacron" unicode="&#x16a;" horiz-adv-x="683" 
d="M205 710v65h284v-65h-284zM513 660h91v-405q0 -117 -72.5 -189t-189.5 -72q-118 0 -190.5 71.5t-72.5 189.5v405h91v-403q0 -86 47 -134.5t125 -48.5q77 0 124 48.5t47 132.5v405z" />
    <glyph glyph-name="umacron" unicode="&#x16b;" horiz-adv-x="553" 
d="M415 657v-65h-280v65h280zM395 472h88v-472l-64 -3q-12 54 -12 100h-1q-47 -103 -157 -103q-84 0 -134 52t-50 137v289h89v-289q0 -53 29 -84t81 -31q60 0 95.5 49.5t35.5 107.5v247z" />
    <glyph glyph-name="Ubreve" unicode="&#x16c;" horiz-adv-x="683" 
d="M466 814q0 -53 -33 -88t-91 -35q-59 0 -92 35t-33 88h68q0 -59 56 -61q57 0 57 61h68zM513 660h91v-405q0 -117 -72.5 -189t-189.5 -72q-118 0 -190.5 71.5t-72.5 189.5v405h91v-403q0 -86 47 -134.5t125 -48.5q77 0 124 48.5t47 132.5v405z" />
    <glyph glyph-name="ubreve" unicode="&#x16d;" horiz-adv-x="553" 
d="M274 543q-65 0 -100.5 40.5t-35.5 102.5h74q0 -38 16.5 -59t44.5 -22q29 0 45.5 21.5t16.5 59.5h74q0 -61 -35 -102t-100 -41zM395 472h88v-472l-64 -3q-12 54 -12 100h-1q-47 -103 -157 -103q-84 0 -134 52t-50 137v289h89v-289q0 -53 29 -84t81 -31q60 0 95.5 49.5
t35.5 107.5v247z" />
    <glyph glyph-name="Uring" unicode="&#x16e;" horiz-adv-x="683" 
d="M342 677q-35 0 -59 23.5t-24 57.5t24 58t59 24q34 0 58 -24t24 -58t-24 -57.5t-58 -23.5zM373 758q0 13 -9.5 22t-21.5 9q-13 0 -22 -9t-9 -22t9 -22t22 -9q12 0 21.5 9t9.5 22zM513 660h91v-405q0 -117 -72.5 -189t-189.5 -72q-118 0 -190.5 71.5t-72.5 189.5v405h91
v-403q0 -86 47 -134.5t125 -48.5q77 0 124 48.5t47 132.5v405z" />
    <glyph glyph-name="uring" unicode="&#x16f;" horiz-adv-x="553" 
d="M274 531q-38 0 -65 26t-27 63q0 38 27 64t65 26t64.5 -26t26.5 -64q0 -37 -26.5 -63t-64.5 -26zM274 654q-14 0 -24 -10t-10 -24t10 -24t24 -10t24 10t10 24t-10 24t-24 10zM395 472h88v-472l-64 -3q-12 54 -12 100h-1q-47 -103 -157 -103q-84 0 -134 52t-50 137v289h89
v-289q0 -53 29 -84t81 -31q60 0 95.5 49.5t35.5 107.5v247z" />
    <glyph glyph-name="Uhungarumlaut" unicode="&#x170;" horiz-adv-x="683" 
d="M275 696l-79 -5l57 125h114zM451 696l-79 -5l57 125h114zM513 660h91v-405q0 -117 -72.5 -189t-189.5 -72q-118 0 -190.5 71.5t-72.5 189.5v405h91v-403q0 -86 47 -134.5t125 -48.5q77 0 124 48.5t47 132.5v405z" />
    <glyph glyph-name="uhungarumlaut" unicode="&#x171;" horiz-adv-x="553" 
d="M319 698l-92 -150l-79 -5l57 155h114zM385 548l-79 -5l57 155h114zM395 472h88v-472l-64 -3q-12 54 -12 100h-1q-47 -103 -157 -103q-84 0 -134 52t-50 137v289h89v-289q0 -53 29 -84t81 -31q60 0 95.5 49.5t35.5 107.5v247z" />
    <glyph glyph-name="Uogonek" unicode="&#x172;" horiz-adv-x="683" 
d="M513 660h91v-405q0 -92 -45.5 -157t-124.5 -90q-69 -30 -69 -92q0 -21 12 -32.5t31 -11.5q14 0 27 7t19 13l5 7l25 -51q-3 -4 -9.5 -10t-29.5 -16.5t-48 -10.5q-45 0 -73 25t-28 65q0 54 39 93q-115 2 -185.5 73.5t-70.5 187.5v405h91v-403q0 -86 47 -134.5t125 -48.5
q77 0 124 48.5t47 132.5v405z" />
    <glyph glyph-name="uogonek" unicode="&#x173;" horiz-adv-x="553" 
d="M499 -112l25 -51q-3 -4 -9.5 -10t-29.5 -16.5t-48 -10.5q-45 0 -73 25t-28 65q0 76 80 124q-9 51 -9 83h-1q-47 -103 -157 -103q-84 0 -134 52t-50 137v289h89v-289q0 -53 29 -84t81 -31q60 0 95.5 49.5t35.5 107.5v247h88v-472q-3 -1 -8.5 -3t-19 -10t-23.5 -18
t-18.5 -27t-8.5 -37q0 -21 12 -32.5t31 -11.5q14 0 27 6.5t19 13.5z" />
    <glyph glyph-name="Wcircumflex" unicode="&#x174;" horiz-adv-x="904" 
d="M503 825l98 -134l-79 3l-69 64l-68 -64l-79 -3l98 134h99zM795 660h91l-189 -660h-100l-122 437q-15 52 -21 95h-2q-5 -37 -22 -95l-128 -437h-96l-188 660h94l124 -478l19 -79h2q16 67 19 79l135 478h85l135 -478q5 -17 19 -79h2l19 79z" />
    <glyph glyph-name="wcircumflex" unicode="&#x175;" horiz-adv-x="765" 
d="M385 630l-68 -84l-79 -3l98 154h99l98 -154l-79 3zM653 472h90l-145 -472h-105l-99 327q-5 19 -7 33h-2q-2 -14 -7 -33l-103 -327h-103l-154 472h99l94 -330q4 -15 9.5 -32t6.5 -20h2q1 4 6.5 22t8.5 30l97 330h91l97 -327q3 -10 5.5 -21.5t4.5 -21.5t3 -12h2q8 33 15 55
z" />
    <glyph glyph-name="Ycircumflex" unicode="&#x176;" horiz-adv-x="579" 
d="M292 758l-68 -64l-79 -3l98 134h99l98 -134l-79 3zM564 660l-228 -418v-242h-91v237l-231 423h98l145 -261q27 -49 34 -83h2q4 31 33 83l144 261h94z" />
    <glyph glyph-name="ycircumflex" unicode="&#x177;" horiz-adv-x="518" 
d="M108 543l98 154h99l98 -154l-79 3l-69 84l-68 -84zM279 -84q-48 -125 -158 -125q-20 0 -38.5 3.5t-26.5 7.5l-8 4l16 73q22 -12 51 -12q34 0 53 19t33 55l18 47l-200 484h99l130 -330q11 -26 16 -52h1q3 19 16 52l132 330h90z" />
    <glyph glyph-name="Ydieresis" unicode="&#x178;" horiz-adv-x="579" 
d="M200 704q-22 0 -37 15t-15 37q0 21 15 36.5t37 15.5q21 0 36 -15.5t15 -36.5q0 -22 -15 -37t-36 -15zM392 704q-21 0 -36.5 15t-15.5 37q0 21 15.5 36.5t36.5 15.5q22 0 37 -15.5t15 -36.5q0 -22 -15 -37t-37 -15zM564 660l-228 -418v-242h-91v237l-231 423h98l145 -261
q27 -49 34 -83h2q4 31 33 83l144 261h94z" />
    <glyph glyph-name="Zacute" unicode="&#x179;" horiz-adv-x="567" 
d="M318 696l-79 -5l57 125h114zM35 0v77l344 454q26 34 42 52l-2 3q-39 -3 -71 -3h-303v77h484v-77l-341 -454q-3 -4 -45 -52l2 -3q11 3 71 3h309v-77h-490z" />
    <glyph glyph-name="zacute" unicode="&#x17a;" horiz-adv-x="462" 
d="M259 548l-80 -5l57 155h114zM36 0v71l259 302q20 23 25 28l-1 2q-11 -2 -39 -2h-239v71h379v-71l-243 -287q-25 -30 -38 -43l1 -2q10 2 43 2h245v-71h-392z" />
    <glyph glyph-name="Zdotaccent" unicode="&#x17b;" horiz-adv-x="567" 
d="M281 694q-26 0 -43.5 17t-17.5 42t17.5 42.5t43.5 17.5t44 -17.5t18 -42.5t-18 -42t-44 -17zM35 0v77l344 454q26 34 42 52l-2 3q-39 -3 -71 -3h-303v77h484v-77l-341 -454q-3 -4 -45 -52l2 -3q11 3 71 3h309v-77h-490z" />
    <glyph glyph-name="zdotaccent" unicode="&#x17c;" horiz-adv-x="462" 
d="M303 625q0 -25 -18 -42t-44 -17t-43.5 17t-17.5 42t17.5 42.5t43.5 17.5t44 -17.5t18 -42.5zM36 0v71l259 302q20 23 25 28l-1 2q-11 -2 -39 -2h-239v71h379v-71l-243 -287q-25 -30 -38 -43l1 -2q10 2 43 2h245v-71h-392z" />
    <glyph glyph-name="Zcaron" unicode="&#x17d;" horiz-adv-x="567" 
d="M136 830l79 -3l68 -64l69 64l79 3l-98 -134h-99zM35 0v77l344 454q26 34 42 52l-2 3q-39 -3 -71 -3h-303v77h484v-77l-341 -454q-3 -4 -45 -52l2 -3q11 3 71 3h309v-77h-490z" />
    <glyph glyph-name="zcaron" unicode="&#x17e;" horiz-adv-x="462" 
d="M94 697l79 -3l68 -84l69 84l79 3l-98 -154h-99zM36 0v71l259 302q20 23 25 28l-1 2q-11 -2 -39 -2h-239v71h379v-71l-243 -287q-25 -30 -38 -43l1 -2q10 2 43 2h245v-71h-392z" />
    <glyph glyph-name="uni01EA" unicode="&#x1ea;" horiz-adv-x="716" 
d="M424 0q-68 -29 -68 -91q0 -21 12 -32.5t31 -11.5q14 0 27 6.5t18 13.5l6 7l25 -51q-3 -4 -9.5 -10t-29.5 -16.5t-48 -10.5q-45 0 -73 25t-28 65q0 58 47 101q-127 8 -206.5 98.5t-79.5 236.5q0 153 86.5 244.5t223.5 91.5t223.5 -91.5t86.5 -244.5q0 -133 -66.5 -221
t-177.5 -109zM140 330q0 -116 61 -186t157 -70q97 0 157.5 69.5t60.5 186.5t-60.5 186.5t-157.5 69.5q-96 0 -157 -70t-61 -186z" />
    <glyph glyph-name="uni01EB" unicode="&#x1eb;" horiz-adv-x="568" 
d="M353 2q-54 -31 -54 -84q0 -21 12 -32.5t31 -11.5q14 0 27 7t19 13l5 7l25 -51q-3 -4 -9.5 -10t-29.5 -16.5t-48 -10.5q-45 0 -73 25t-28 65q0 53 38 91q-103 5 -165 71t-62 169q0 108 67 176t176 68t176 -68t67 -176q0 -89 -46.5 -150.5t-127.5 -81.5zM131 234
q0 -74 42 -120t111 -46t111 46t42 120t-42.5 122t-110.5 48t-110.5 -48t-42.5 -122z" />
    <glyph glyph-name="AEacute" unicode="&#x1fc;" horiz-adv-x="941" 
d="M664 816l-92 -120l-79 -5l57 125h114zM889 583h-318v-202h283v-77h-283v-227h318v-77h-409v164h-277l-121 -164h-94l488 660h413v-77zM259 239h221v299z" />
    <glyph glyph-name="aeacute" unicode="&#x1fd;" horiz-adv-x="851" 
d="M527 698l-91 -150l-80 -5l57 155h114zM807 212h-354q7 -66 49.5 -105t112.5 -39q87 0 134 62l54 -49q-66 -87 -195 -87q-144 0 -209 103h-7q-56 -103 -189 -103q-76 0 -118 36t-42 95q0 76 74 110t232 34h14v30q0 49 -30 77t-87 28q-51 0 -79.5 -20t-28.5 -56
q0 -13 6 -27l-83 -14q-7 18 -7 44q0 65 52.5 106t141.5 41q113 0 170 -80q67 80 178 80q101 0 158 -62.5t57 -158.5zM596 404q-56 0 -93.5 -35.5t-47.5 -93.5h266q-1 59 -35 94t-90 35zM221 68q65 0 103.5 29.5t38.5 65.5v45h-14q-117 0 -166.5 -20t-49.5 -61q0 -59 88 -59z
" />
    <glyph glyph-name="Oslashacute" unicode="&#x1fe;" horiz-adv-x="716" 
d="M481 814l-92 -120l-79 -5l57 125h114zM573 583q95 -92 95 -253q0 -153 -86.5 -244.5t-223.5 -91.5q-82 0 -151 36l-49 -74h-93l79 120q-96 93 -96 254q0 153 86.5 244.5t223.5 91.5q85 0 153 -37l39 59h92zM140 330q0 -109 54 -179l270 408q-45 27 -106 27
q-96 0 -157 -70t-61 -186zM358 74q97 0 157.5 69.5t60.5 186.5q0 107 -53 178l-270 -408q47 -26 105 -26z" />
    <glyph glyph-name="oslashacute" unicode="&#x1ff;" horiz-adv-x="568" 
d="M393 698l-91 -150l-80 -5l57 155h114zM442 426q85 -68 85 -192q0 -107 -67 -173.5t-176 -66.5q-60 0 -108 21l-26 -41h-71l46 71q-84 67 -84 189q0 108 67 176t176 68q59 0 109 -22l26 41h69zM131 234q0 -72 40 -118l178 274q-30 14 -65 14q-68 0 -110.5 -48t-42.5 -122z
M284 68q69 0 111 46t42 120q0 72 -41 121l-177 -274q31 -13 65 -13z" />
    <glyph glyph-name="Scommaaccent" unicode="&#x218;" horiz-adv-x="556" 
d="M421 484q-6 36 -41.5 69t-103.5 33q-58 0 -92.5 -26.5t-34.5 -73.5q0 -28 20 -48t51.5 -33t70.5 -24.5t77.5 -27t70 -37t51.5 -59t20 -87.5q0 -80 -64.5 -128t-170.5 -48q-80 0 -143.5 23.5t-99.5 54.5l57 71q78 -69 186 -69q68 0 106.5 26t38.5 70q0 48 -37.5 77.5
t-91 45.5t-106.5 34t-90.5 57t-37.5 101q0 81 61 131t158 50q189 0 230 -161zM215 -98q0 25 17 42t42 17q26 0 44 -17.5t18 -49.5q0 -31 -9 -57t-22 -41.5t-26.5 -26.5t-22.5 -15l-9 -4l-26 41q6 3 14.5 8t23.5 19t15 26q-24 0 -41.5 17t-17.5 41z" />
    <glyph glyph-name="scommaaccent" unicode="&#x219;" horiz-adv-x="471" 
d="M336 303q3 10 3 23q0 36 -29 57t-76 21q-44 0 -68.5 -18t-24.5 -48t29.5 -46.5t71 -24.5t83.5 -19t72 -40.5t31 -79.5q1 -63 -53 -98.5t-142 -35.5q-117 0 -204 71l54 60q21 -20 62 -38.5t89 -18.5q51 0 77.5 16.5t26.5 44.5q0 26 -29.5 41.5t-71.5 24.5t-84.5 21.5
t-72 43t-29.5 79.5q0 59 51.5 99t133.5 40t133.5 -38.5t51.5 -97.5l-4 -33zM177 -98q0 25 17 42t42 17q26 0 44 -17.5t18 -49.5q0 -31 -9 -57t-22 -41.5t-26.5 -26.5t-22.5 -15l-9 -4l-26 41q6 3 14.5 8t23.5 19t15 26q-24 0 -41.5 17t-17.5 41z" />
    <glyph glyph-name="uni021A" unicode="&#x21a;" horiz-adv-x="541" 
d="M225 0v583h-212v77h515v-77h-212v-583h-91zM209 -98q0 25 17 42t42 17q26 0 44 -17.5t18 -49.5q0 -31 -9 -57t-22 -41.5t-26.5 -26.5t-22.5 -15l-9 -4l-26 41q6 3 14.5 8t23.5 19t15 26q-24 0 -41.5 17t-17.5 41z" />
    <glyph glyph-name="uni021B" unicode="&#x21b;" horiz-adv-x="404" 
d="M396 25q-47 -31 -124 -31q-90 0 -130.5 46.5t-40.5 139.5v221h-75v71h75v140l89 5v-145h183v-71h-183v-218q0 -114 91 -114q24 0 46 6.5t31 13.5l10 7zM243 -39q26 0 44 -17.5t18 -49.5q0 -31 -9 -57t-22.5 -41.5t-26.5 -26.5t-22 -15l-9 -4l-26 41q6 3 14.5 8t23.5 19
t15 26q-24 0 -41.5 17t-17.5 41q0 25 17 42t42 17z" />
    <glyph glyph-name="uni0237" unicode="&#x237;" horiz-adv-x="238" 
d="M-61 -119q20 -15 55 -15q84 0 84 93v513l89 3v-499q0 -184 -165 -184q-27 0 -49.5 7t-31.5 14l-9 7z" />
    <glyph glyph-name="circumflex" unicode="&#x2c6;" horiz-adv-x="353" 
d="M28 543l98 154h99l98 -154l-79 3l-69 84l-68 -84z" />
    <glyph glyph-name="caron" unicode="&#x2c7;" horiz-adv-x="339" 
d="M28 697l79 -3l68 -84l69 84l79 3l-98 -154h-99z" />
    <glyph glyph-name="breve" unicode="&#x2d8;" horiz-adv-x="327" 
d="M299 686q0 -61 -35 -102t-100 -41t-100.5 40.5t-35.5 102.5h74q0 -38 16.5 -59t44.5 -22q29 0 45.5 21.5t16.5 59.5h74z" />
    <glyph glyph-name="dotaccent" unicode="&#x2d9;" horiz-adv-x="205" 
d="M164 625q0 -25 -18 -42t-44 -17t-43.5 17t-17.5 42t17.5 42.5t43.5 17.5t44 -17.5t18 -42.5z" />
    <glyph glyph-name="ring" unicode="&#x2da;" horiz-adv-x="264" 
d="M132 531q-38 0 -65 26t-27 63q0 38 27 64t65 26t64.5 -26t26.5 -64q0 -37 -26.5 -63t-64.5 -26zM166 620q0 14 -10 24t-24 10t-24 -10t-10 -24t10 -24t24 -10t24 10t10 24z" />
    <glyph glyph-name="ogonek" unicode="&#x2db;" horiz-adv-x="264" 
d="M219 -162q-3 -4 -9.5 -10t-29.5 -16.5t-48 -10.5q-45 0 -73 25t-28 65q0 32 13.5 58.5t33 42t39.5 26.5t33 15l14 4l14 -36q-3 -1 -8.5 -3t-19 -10t-23.5 -18t-18.5 -27t-8.5 -37q0 -21 12 -32.5t31 -11.5q14 0 27 7t18 13l6 7z" />
    <glyph glyph-name="tilde" unicode="&#x2dc;" horiz-adv-x="406" 
d="M359 688q4 -15 4 -41q0 -36 -23.5 -62.5t-68.5 -26.5q-33 0 -77.5 27.5t-55.5 27.5q-33 0 -33 -35l4 -29h-69q-5 17 -5 41q0 35 25.5 62t66.5 27q38 0 82 -27.5t55 -27.5q29 0 29 35l-4 29h70z" />
    <glyph glyph-name="hungarumlaut" unicode="&#x2dd;" horiz-adv-x="408" 
d="M118 548l-79 -5l57 155h114zM276 548l-79 -5l57 155h114z" />
    <glyph glyph-name="gravecomb" unicode="&#x300;" 
d="M-121 543l-92 155h114l57 -150z" />
    <glyph glyph-name="acutecomb" unicode="&#x301;" 
d="M-153 548l-80 -5l57 155h114z" />
    <glyph glyph-name="uni0302" unicode="&#x302;" 
d="M-325 543l98 154h99l98 -154l-79 3l-69 84l-68 -84z" />
    <glyph glyph-name="tildecomb" unicode="&#x303;" 
d="M-47 688q4 -15 4 -41q0 -36 -23.5 -62.5t-68.5 -26.5q-33 0 -77.5 27.5t-55.5 27.5q-33 0 -33 -35l4 -29h-69q-5 17 -5 41q0 35 25.5 62t66.5 27q38 0 82 -27.5t55 -27.5q29 0 29 35l-4 29h70z" />
    <glyph glyph-name="uni0304" unicode="&#x304;" 
d="M-333 592v65h280v-65h-280z" />
    <glyph glyph-name="uni0306" unicode="&#x306;" 
d="M-28 686q0 -61 -35 -102t-100 -41t-100.5 40.5t-35.5 102.5h74q0 -38 16.5 -59t44.5 -22q29 0 45.5 21.5t16.5 59.5h74z" />
    <glyph glyph-name="uni0307" unicode="&#x307;" 
d="M-41 625q0 -25 -18 -42t-44 -17t-43.5 17t-17.5 42t17.5 42.5t43.5 17.5t44 -17.5t18 -42.5z" />
    <glyph glyph-name="uni0308" unicode="&#x308;" 
d="M-275 573q-23 0 -38 15.5t-15 37.5t15.5 37.5t37.5 15.5t37 -15.5t15 -37.5t-15 -37.5t-37 -15.5zM-83 573q-22 0 -37.5 15.5t-15.5 37.5t15.5 37.5t37.5 15.5t37.5 -15.5t15.5 -37.5t-15 -37.5t-38 -15.5z" />
    <glyph glyph-name="uni030A" unicode="&#x30a;" 
d="M-132 531q-38 0 -65 26t-27 63q0 38 27 64t65 26t64.5 -26t26.5 -64q0 -37 -26.5 -63t-64.5 -26zM-98 620q0 14 -10 24t-24 10t-24 -10t-10 -24t10 -24t24 -10t24 10t10 24z" />
    <glyph glyph-name="uni030B" unicode="&#x30b;" 
d="M-290 548l-79 -5l57 155h114zM-132 548l-79 -5l57 155h114z" />
    <glyph glyph-name="uni030C" unicode="&#x30c;" 
d="M-311 697l79 -3l68 -84l69 84l79 3l-98 -154h-99z" />
    <glyph glyph-name="uni0326" unicode="&#x326;" 
d="M-161 -98q0 25 17 42t42 17q26 0 44 -17.5t18 -49.5q0 -31 -9 -57t-22 -41.5t-26.5 -26.5t-22.5 -15l-9 -4l-26 41q6 3 14.5 8t23.5 19t15 26q-24 0 -41.5 17t-17.5 41z" />
    <glyph glyph-name="uni0327" unicode="&#x327;" 
d="M-115 -29q31 -4 55 -24.5t24 -57.5q0 -41 -30 -64.5t-76 -23.5q-27 0 -50.5 9.5t-33.5 19.5l-10 9l25 50q26 -27 68 -27q43 0 43 30q0 40 -92 40l36 83h61z" />
    <glyph glyph-name="uni0328" unicode="&#x328;" 
d="M-45 -162q-3 -4 -9.5 -10t-29.5 -16.5t-48 -10.5q-45 0 -73 25t-28 65q0 32 13.5 58.5t33 42t39.5 26.5t33 15l14 4l14 -36q-3 -1 -8.5 -3t-19 -10t-23.5 -18t-18.5 -27t-8.5 -37q0 -21 12 -32.5t31 -11.5q14 0 27 7t18 13l6 7z" />
    <glyph glyph-name="uni0335" unicode="&#x335;" 
d="M-320 222h300v-64h-300v64z" />
    <glyph glyph-name="uni0336" unicode="&#x336;" 
d="M-380 232h360v-74h-360v74z" />
    <glyph glyph-name="uni0337" unicode="&#x337;" 
d="M-313 341l260 151l33 -57l-261 -152z" />
    <glyph glyph-name="uni0338" unicode="&#x338;" 
d="M-201 503h69l-338 -523h-71z" />
    <glyph glyph-name="Wgrave" unicode="&#x1e80;" horiz-adv-x="904" 
d="M418 691l-92 125h114l57 -120zM795 660h91l-189 -660h-100l-122 437q-15 52 -21 95h-2q-5 -37 -22 -95l-128 -437h-96l-188 660h94l124 -478l19 -79h2q16 67 19 79l135 478h85l135 -478q5 -17 19 -79h2l19 79z" />
    <glyph glyph-name="wgrave" unicode="&#x1e81;" horiz-adv-x="765" 
d="M425 548l-79 -5l-92 155h114zM653 472h90l-145 -472h-105l-99 327q-5 19 -7 33h-2q-2 -14 -7 -33l-103 -327h-103l-154 472h99l94 -330q4 -15 9.5 -32t6.5 -20h2q1 4 6.5 22t8.5 30l97 330h91l97 -327q3 -10 5.5 -21.5t4.5 -21.5t3 -12h2q8 33 15 55z" />
    <glyph glyph-name="Wacute" unicode="&#x1e82;" horiz-adv-x="904" 
d="M488 696l-79 -5l57 125h114zM795 660h91l-189 -660h-100l-122 437q-15 52 -21 95h-2q-5 -37 -22 -95l-128 -437h-96l-188 660h94l124 -478l19 -79h2q16 67 19 79l135 478h85l135 -478q5 -17 19 -79h2l19 79z" />
    <glyph glyph-name="wacute" unicode="&#x1e83;" horiz-adv-x="765" 
d="M521 698l-91 -150l-80 -5l57 155h114zM653 472h90l-145 -472h-105l-99 327q-5 19 -7 33h-2q-2 -14 -7 -33l-103 -327h-103l-154 472h99l94 -330q4 -15 9.5 -32t6.5 -20h2q1 4 6.5 22t8.5 30l97 330h91l97 -327q3 -10 5.5 -21.5t4.5 -21.5t3 -12h2q8 33 15 55z" />
    <glyph glyph-name="Wdieresis" unicode="&#x1e84;" horiz-adv-x="904" 
d="M361 704q-22 0 -37 15t-15 37q0 21 15 36.5t37 15.5q21 0 36 -15.5t15 -36.5q0 -22 -15 -37t-36 -15zM553 704q-21 0 -36.5 15t-15.5 37q0 21 15.5 36.5t36.5 15.5q22 0 37 -15.5t15 -36.5q0 -22 -15 -37t-37 -15zM795 660h91l-189 -660h-100l-122 437q-15 52 -21 95h-2
q-5 -37 -22 -95l-128 -437h-96l-188 660h94l124 -478l19 -79h2q16 67 19 79l135 478h85l135 -478q5 -17 19 -79h2l19 79z" />
    <glyph glyph-name="wdieresis" unicode="&#x1e85;" horiz-adv-x="765" 
d="M294 573q-22 0 -37.5 15.5t-15.5 37.5t15.5 37.5t37.5 15.5t37 -15.5t15 -37.5t-15 -37.5t-37 -15.5zM486 573q-22 0 -37.5 15.5t-15.5 37.5t15.5 37.5t37.5 15.5t37.5 -15.5t15.5 -37.5t-15.5 -37.5t-37.5 -15.5zM653 472h90l-145 -472h-105l-99 327q-5 19 -7 33h-2
q-2 -14 -7 -33l-103 -327h-103l-154 472h99l94 -330q4 -15 9.5 -32t6.5 -20h2q1 4 6.5 22t8.5 30l97 330h91l97 -327q3 -10 5.5 -21.5t4.5 -21.5t3 -12h2q8 33 15 55z" />
    <glyph glyph-name="Ygrave" unicode="&#x1ef2;" horiz-adv-x="579" 
d="M336 696l-79 -5l-92 125h114zM564 660l-228 -418v-242h-91v237l-231 423h98l145 -261q27 -49 34 -83h2q4 31 33 83l144 261h94z" />
    <glyph glyph-name="ygrave" unicode="&#x1ef3;" horiz-adv-x="518" 
d="M216 543l-92 155h114l57 -150zM279 -84q-48 -125 -158 -125q-20 0 -38.5 3.5t-26.5 7.5l-8 4l16 73q22 -12 51 -12q34 0 53 19t33 55l18 47l-200 484h99l130 -330q11 -26 16 -52h1q3 19 16 52l132 330h90z" />
    <glyph glyph-name="uni1EF8" unicode="&#x1ef8;" horiz-adv-x="579" 
d="M200 678h-69q-5 17 -5 39q0 38 25.5 61.5t66.5 23.5q38 0 82 -27.5t55 -27.5q29 0 29 35l-4 29h70q4 -15 4 -41q0 -36 -22.5 -62.5t-64.5 -26.5q-36 0 -82.5 27.5t-58.5 27.5q-14 0 -22 -8.5t-8 -22.5zM564 660l-228 -418v-242h-91v237l-231 423h98l145 -261
q27 -49 34 -83h2q4 31 33 83l144 261h94z" />
    <glyph glyph-name="uni1EF9" unicode="&#x1ef9;" horiz-adv-x="518" 
d="M404 688q4 -15 4 -41q0 -36 -23.5 -62.5t-68.5 -26.5q-33 0 -77.5 27.5t-55.5 27.5q-33 0 -33 -35l4 -29h-69q-5 17 -5 41q0 35 25.5 62t66.5 27q38 0 82 -27.5t55 -27.5q29 0 29 35l-4 29h70zM279 -84q-48 -125 -158 -125q-20 0 -38.5 3.5t-26.5 7.5l-8 4l16 73
q22 -12 51 -12q34 0 53 19t33 55l18 47l-200 484h99l130 -330q11 -26 16 -52h1q3 19 16 52l132 330h90z" />
    <glyph glyph-name="endash" unicode="&#x2013;" horiz-adv-x="462" 
d="M47 240v66h368v-66h-368z" />
    <glyph glyph-name="emdash" unicode="&#x2014;" horiz-adv-x="706" 
d="M47 240v66h612v-66h-612z" />
    <glyph glyph-name="quoteleft" unicode="&#x2018;" horiz-adv-x="233" 
d="M178 460q0 -26 -17 -41t-46 -15q-31 0 -50 21.5t-19 55.5q0 35 10.5 67t25 52.5t29.5 36.5t25 23l11 7l39 -48q-8 -5 -19 -14.5t-29.5 -37t-18.5 -52.5q25 0 42 -15.5t17 -39.5z" />
    <glyph glyph-name="quoteright" unicode="&#x2019;" horiz-adv-x="230" 
d="M56 611q0 26 17 41t46 15q31 0 50 -21.5t19 -55.5q0 -35 -10.5 -67t-25 -52.5t-29.5 -36.5t-25 -23l-11 -7l-39 48q8 5 19 14.5t29.5 37t18.5 52.5q-25 0 -42 15.5t-17 39.5z" />
    <glyph glyph-name="quotesinglbase" unicode="&#x201a;" horiz-adv-x="237" 
d="M52 49q0 26 17 41t46 15q31 0 50 -21.5t19 -55.5q0 -35 -10.5 -67t-25 -52.5t-29.5 -36.5t-25 -23l-11 -7l-39 48q8 5 19 14.5t29.5 37t18.5 52.5q-25 0 -42 15.5t-17 39.5z" />
    <glyph glyph-name="quotedblleft" unicode="&#x201c;" horiz-adv-x="403" 
d="M178 460q0 -26 -17 -41t-46 -15q-31 0 -50 21.5t-19 55.5q0 35 10.5 67t25 52.5t29.5 36.5t25 23l11 7l39 -48q-8 -5 -19 -14.5t-29.5 -37t-18.5 -52.5q25 0 42 -15.5t17 -39.5zM348 460q0 -26 -17 -41t-46 -15q-31 0 -50 21.5t-19 55.5q0 35 10.5 67t25 52.5t29.5 36.5
t25 23l11 7l39 -48q-8 -5 -19 -14.5t-29.5 -37t-18.5 -52.5q25 0 42 -15.5t17 -39.5z" />
    <glyph glyph-name="quotedblright" unicode="&#x201d;" horiz-adv-x="400" 
d="M119 667q31 0 50 -21.5t19 -55.5q0 -35 -10.5 -67t-25 -52.5t-29.5 -36.5t-25 -23l-11 -7l-39 48q8 5 19 14.5t29.5 37t18.5 52.5q-25 0 -42 15.5t-17 39.5q0 26 17 41t46 15zM289 667q31 0 50 -21.5t19 -55.5q0 -35 -10.5 -67t-25 -52.5t-29.5 -36.5t-25 -23l-11 -7
l-39 48q8 5 19 14.5t29.5 37t18.5 52.5q-25 0 -42 15.5t-17 39.5q0 26 17 41t46 15z" />
    <glyph glyph-name="quotedblbase" unicode="&#x201e;" horiz-adv-x="407" 
d="M52 49q0 26 17 41t46 15q31 0 50 -21.5t19 -55.5q0 -35 -10.5 -67t-25 -52.5t-29.5 -36.5t-25 -23l-11 -7l-39 48q8 5 19 14.5t29.5 37t18.5 52.5q-25 0 -42 15.5t-17 39.5zM222 49q0 26 17 41t46 15q31 0 50 -21.5t19 -55.5q0 -35 -10.5 -67t-25 -52.5t-29.5 -36.5
t-25 -23l-11 -7l-39 48q8 5 19 14.5t29.5 37t18.5 52.5q-25 0 -42 15.5t-17 39.5z" />
    <glyph glyph-name="dagger" unicode="&#x2020;" horiz-adv-x="412" 
d="M362 402l-121 3l-3 -183l7 -426h-79l7 426l-3 183l-120 -3v70l119 -3l-3 188h79l-3 -188l120 3v-70z" />
    <glyph glyph-name="daggerdbl" unicode="&#x2021;" horiz-adv-x="412" 
d="M362 395l-120 3l-4 -156l5 -169l119 4v-67l-120 3l3 -217h-79l3 217l-119 -3v67l118 -4l5 169l-5 156l-118 -3v70l119 -3l-3 198h79l-3 -198l120 3v-70z" />
    <glyph glyph-name="bullet" unicode="&#x2022;" horiz-adv-x="354" 
d="M279 289q0 -42 -30 -72t-72 -30q-43 0 -72.5 30t-29.5 72q0 43 29.5 73t72.5 30q42 0 72 -30t30 -73z" />
    <glyph glyph-name="ellipsis" unicode="&#x2026;" horiz-adv-x="583" 
d="M52 52q0 24 17 41.5t42 17.5q24 0 41 -17.5t17 -41.5t-17 -41t-41 -17q-25 0 -42 17t-17 41zM233 52q0 24 17 41.5t42 17.5q24 0 41 -17.5t17 -41.5t-17 -41t-41 -17q-25 0 -42 17t-17 41zM414 52q0 24 17 41.5t42 17.5q24 0 41 -17.5t17 -41.5t-17 -41t-41 -17
q-25 0 -42 17t-17 41z" />
    <glyph glyph-name="perthousand" unicode="&#x2030;" horiz-adv-x="1264" 
d="M256 0l302 666h85l-301 -666h-86zM202 290q-77 0 -124.5 50.5t-47.5 132.5q0 85 47.5 136.5t124.5 51.5q79 0 126.5 -51.5t47.5 -136.5q0 -83 -47.5 -133t-126.5 -50zM202 367q40 0 64.5 29t24.5 77q0 50 -24.5 80.5t-64.5 30.5q-38 0 -62.5 -31t-24.5 -80q0 -48 24 -77
t63 -29zM679 -4q-77 0 -124.5 50.5t-47.5 132.5q0 85 47.5 136.5t124.5 51.5q79 0 126.5 -51.5t47.5 -136.5q0 -83 -47.5 -133t-126.5 -50zM1061 -4q-77 0 -124.5 50.5t-47.5 132.5q0 85 47.5 136.5t124.5 51.5q79 0 126.5 -51.5t47.5 -136.5q0 -83 -47.5 -133t-126.5 -50z
M679 73q40 0 64.5 29t24.5 77q0 50 -24.5 80.5t-64.5 30.5q-38 0 -62.5 -31t-24.5 -80q0 -48 24 -77t63 -29zM1061 73q40 0 64.5 29t24.5 77q0 50 -24.5 80.5t-64.5 30.5q-38 0 -62.5 -31t-24.5 -80q0 -48 24 -77t63 -29z" />
    <glyph glyph-name="guilsinglleft" unicode="&#x2039;" horiz-adv-x="283" 
d="M42 228v72l147 136l45 -50l-134 -122l134 -121l-45 -51z" />
    <glyph glyph-name="guilsinglright" unicode="&#x203a;" horiz-adv-x="283" 
d="M94 92l-45 51l134 121l-134 122l45 50l147 -136v-72z" />
    <glyph glyph-name="fraction" unicode="&#x2044;" horiz-adv-x="333" 
d="M13 0l220 726h88l-220 -726h-88z" />
    <glyph glyph-name="Euro" unicode="&#x20ac;" horiz-adv-x="711" 
d="M432 74q120 0 184 88l55 -56q-9 -14 -26 -30t-45.5 -36t-73.5 -33t-96 -13q-108 0 -185 61t-103 171h-107l15 64h83q-2 26 -2 40q0 16 2 44h-98l15 64h93q27 108 104 168t184 60q51 0 95.5 -13.5t73.5 -35t45.5 -38t25.5 -30.5l-55 -56q-29 40 -76.5 66.5t-106.5 26.5
q-63 0 -117 -37t-77 -111h275l-15 -64h-274q-2 -28 -2 -44q0 -14 2 -40h259l-15 -64h-232q23 -76 77 -114t118 -38z" />
    <glyph glyph-name="trademark" unicode="&#x2122;" horiz-adv-x="706" 
d="M34 608v52h257v-52h-96v-225h-65v225h-96zM577 660h58v-277h-55v159l-77 -159h-40l-75 159v-159h-57v277h63l90 -189z" />
    <glyph glyph-name="minus" unicode="&#x2212;" horiz-adv-x="505" 
d="M66 213v65h373v-65h-373z" />
    <glyph glyph-name="uni2215" unicode="&#x2215;" horiz-adv-x="408" 
d="M5 0l313 726h87l-312 -726h-88z" />
    <glyph glyph-name="uni2219" unicode="&#x2219;" horiz-adv-x="331" 
d="M166 227q-21 0 -35 14t-14 34q0 21 14 35t35 14q20 0 34 -14t14 -35q0 -20 -14 -34t-34 -14z" />
    <glyph glyph-name="approxequal" unicode="&#x2248;" horiz-adv-x="567" 
d="M67 289v62q45 33 110 33q43 0 107 -20t107 -20q67 0 110 30v-62q-49 -33 -110 -33q-43 0 -107 20t-107 20q-67 0 -110 -30zM67 119v62q45 33 110 33q43 0 107 -20t107 -20q67 0 110 30v-62q-49 -33 -110 -33q-43 0 -107 20t-107 20q-67 0 -110 -30z" />
    <glyph glyph-name="notequal" unicode="&#x2260;" horiz-adv-x="511" 
d="M445 314h-130l-40 -133h170v-64h-189l-35 -117h-72l35 117h-118v64h137l40 133h-177v65h197l28 93h71l-28 -93h111v-65z" />
    <glyph glyph-name="uniF8FF" unicode="&#xf8ff;" horiz-adv-x="1451" 
d="M691 583q0 26 17.5 44t43.5 18t44 -18t18 -44t-18 -43.5t-44 -17.5t-43.5 18t-17.5 43zM219 270h-119q0 134 9 314h100q10 -200 10 -314zM694 270q0 92 3 147h-61l3 -65q4 -4 15 -4q13 0 18 5v-74q-14 -15 -68 -15q-82 0 -82 66q0 12 2 49t2 38h-22v79l119 30l1 -17h178
q10 -64 10 -239h-118zM328 265q-92 0 -92 114q0 135 134 135q124 0 124 -117v-127h-83l-8 61q-6 -33 -23.5 -49.5t-51.5 -16.5zM1090 270h-114q0 26 1 56t1 37q0 29 -15 29q-18 0 -18 -29q0 -7 1.5 -37t1.5 -56h-114q0 175 10 239h80q6 -44 6 -76q2 15 6.5 30t24 33t49.5 18
q42 0 58.5 -25t18.5 -81zM1351 391q0 -126 -123 -126q-122 0 -122 124q0 125 124 125q121 0 121 -123zM390 375q0 26 -24 26q-22 0 -22 -26q0 -30 22 -30q24 0 24 30zM1251 375q0 26 -23 26q-21 0 -21 -26q0 -30 21 -30q23 0 23 30zM428 238h104q10 -52 10 -138
q0 -81 -33.5 -115.5t-118.5 -34.5q-61 0 -88 17v83q24 -16 70 -16q21 0 34 6t16.5 11.5t3.5 10.5q-16 -11 -49 -11q-90 0 -90 83v13h-55l3 -65q6 -4 15 -4q13 0 18 5v-73q-19 -15 -68 -15q-45 0 -63 17t-18 54q0 39 3 81h-18v80l117 29l-1 -18h177v-119q0 -16 3 -21.5
t12 -5.5q16 0 16 27v119zM733 243q37 0 58.5 -29t21.5 -84q0 -135 -137 -135q1 -15 1 -39h-119q0 142 10 282h78q7 -42 7 -76q17 81 80 81zM1070 127q0 -21 -3 -35h-124q11 -18 50 -18q34 0 55 12v-75q-23 -16 -78 -16q-141 0 -141 122q0 59 32.5 92.5t92.5 33.5
q55 0 85.5 -30t30.5 -86zM978 109q3 27 -17 27q-23 0 -23 -27h40zM670 72q5 0 12.5 2.5t16 11.5t8.5 23q0 23 -20 23q-22 0 -22 -31q0 -14 5 -29zM1074 13q0 -23 24 -23t24 23t-24 23t-24 -23zM1080 13q0 18 18 18t18 -18t-18 -18t-18 18zM1108 2l-6 9q7 0 7 7t-10 7h-11
v-23h5v9h5l4 -9h6zM1100 15h-7v6h7q4 0 4 -3t-4 -3z" />
    <glyph glyph-name="i.loclTRK" horiz-adv-x="231" 
d="M176 625q0 -25 -18 -42t-44 -17t-43.5 17t-17.5 42t17.5 42.5t43.5 17.5t44 -17.5t18 -42.5zM71 0v472l89 3v-475h-89z" />
    <glyph glyph-name="uni0306.case.001" 
d="M-39 666q0 -53 -33 -88t-91 -35q-59 0 -92 35t-33 88h68q0 -59 56 -61q57 0 57 61h68z" />
    <glyph glyph-name="caroncomb.alt" 
d="M-141 388q0 25 17 42t42 17q26 0 44 -17.5t18 -49.5q0 -33 -9 -63.5t-21 -50t-24.5 -34.5t-21.5 -22l-9 -6l-33 45q6 4 15.5 11.5t25 28.5t15.5 41q-24 0 -41.5 17t-17.5 41z" />
    <glyph glyph-name="acutecomb.case" 
d="M-154 548l-79 -5l57 125h114z" />
    <glyph glyph-name="uni0306.case" 
d="M-39 666q0 -53 -33 -88t-91 -35q-59 0 -92 35t-33 88h68q0 -59 56 -61q57 0 57 61h68z" />
    <glyph glyph-name="uni030C.case" 
d="M-325 682l79 -3l68 -64l69 64l79 3l-98 -134h-99z" />
    <glyph glyph-name="uni0302.case" 
d="M-128 677l98 -134l-79 3l-69 64l-68 -64l-79 -3l98 134h99z" />
    <glyph glyph-name="uni0308.case" 
d="M-275 556q-22 0 -37 15t-15 37q0 21 15 36.5t37 15.5q21 0 36 -15.5t15 -36.5q0 -22 -15 -37t-36 -15zM-83 556q-21 0 -36.5 15t-15.5 37q0 21 15.5 36.5t36.5 15.5q22 0 37 -15.5t15 -36.5q0 -22 -15 -37t-37 -15z" />
    <glyph glyph-name="uni0307.case" 
d="M-103 546q-26 0 -43.5 17t-17.5 42t17.5 42.5t43.5 17.5t44 -17.5t18 -42.5t-18 -42t-44 -17z" />
    <glyph glyph-name="gravecomb.case" 
d="M-121 543l-92 125h114l57 -120z" />
    <glyph glyph-name="uni030B.case" 
d="M-280 548l-79 -5l57 125h114zM-104 548l-79 -5l57 125h114z" />
    <glyph glyph-name="uni0304.case" 
d="M-335 562v65h284v-65h-284z" />
    <glyph glyph-name="uni030A.case" 
d="M-132 529q-35 0 -59 23.5t-24 57.5t24 58t59 24q34 0 58 -24t24 -58t-24 -57.5t-58 -23.5zM-101 610q0 13 -9.5 22t-21.5 9q-13 0 -22 -9t-9 -22t9 -22t22 -9q12 0 21.5 9t9.5 22z" />
    <glyph glyph-name="uni0338.case" 
d="M39 716l-484 -732h-93l485 732h92z" />
    <glyph glyph-name="uni0337.case" 
d="M-392 341l339 197l33 -57l-340 -198z" />
    <glyph glyph-name="tildecomb.case" 
d="M-47 659q4 -15 4 -41q0 -36 -22.5 -62.5t-64.5 -26.5q-36 0 -82.5 27.5t-58.5 27.5q-14 0 -22 -8.5t-8 -22.5l4 -27h-69q-5 17 -5 39q0 38 25.5 61.5t66.5 23.5q38 0 82 -27.5t55 -27.5q29 0 29 35l-4 29h70z" />
    <glyph glyph-name="caron.alt" horiz-adv-x="161" 
d="M141 380q0 -31 -9 -56t-22 -39t-26.5 -23.5t-22.5 -12.5l-9 -3l-26 41q52 16 53 43q-24 0 -41.5 17t-17.5 41q0 25 17 42t42 17q26 0 44 -17.5t18 -49.5z" />
    <glyph glyph-name="acute.case" horiz-adv-x="272" 
d="M118 548l-79 -5l57 125h114z" />
    <glyph glyph-name="breve.case" horiz-adv-x="327" 
d="M288 666q0 -53 -33 -88t-91 -35q-59 0 -92 35t-33 88h68q0 -59 56 -61q57 0 57 61h68z" />
    <glyph glyph-name="caron.case" horiz-adv-x="339" 
d="M28 682l79 -3l68 -64l69 64l79 3l-98 -134h-99z" />
    <glyph glyph-name="circumflex.case" horiz-adv-x="353" 
d="M225 677l98 -134l-79 3l-69 64l-68 -64l-79 -3l98 134h99z" />
    <glyph glyph-name="dieresis.case" horiz-adv-x="359" 
d="M84 556q-22 0 -37 15t-15 37q0 21 15 36.5t37 15.5q21 0 36 -15.5t15 -36.5q0 -22 -15 -37t-36 -15zM276 556q-21 0 -36.5 15t-15.5 37q0 21 15.5 36.5t36.5 15.5q22 0 37 -15.5t15 -36.5q0 -22 -15 -37t-37 -15z" />
    <glyph glyph-name="dotaccent.case" horiz-adv-x="205" 
d="M102 546q-26 0 -43.5 17t-17.5 42t17.5 42.5t43.5 17.5t44 -17.5t18 -42.5t-18 -42t-44 -17z" />
    <glyph glyph-name="grave.case" horiz-adv-x="272" 
d="M151 543l-92 125h114l57 -120z" />
    <glyph glyph-name="hungarumlaut.case" horiz-adv-x="408" 
d="M128 548l-79 -5l57 125h114zM304 548l-79 -5l57 125h114z" />
    <glyph glyph-name="macron.case" horiz-adv-x="386" 
d="M51 562v65h284v-65h-284z" />
    <glyph glyph-name="ring.case" horiz-adv-x="264" 
d="M132 529q-35 0 -59 23.5t-24 57.5t24 58t59 24q34 0 58 -24t24 -58t-24 -57.5t-58 -23.5zM163 610q0 13 -9.5 22t-21.5 9q-13 0 -22 -9t-9 -22t9 -22t22 -9q12 0 21.5 9t9.5 22z" />
    <glyph glyph-name="tilde.case" horiz-adv-x="406" 
d="M359 659q4 -15 4 -41q0 -36 -22.5 -62.5t-64.5 -26.5q-36 0 -82.5 27.5t-58.5 27.5q-14 0 -22 -8.5t-8 -22.5l4 -27h-69q-5 17 -5 39q0 38 25.5 61.5t66.5 23.5q38 0 82 -27.5t55 -27.5q29 0 29 35l-4 29h70z" />
    <glyph glyph-name="Rem" horiz-adv-x="497" 
 />
    <glyph glyph-name="IJacute" horiz-adv-x="726" 
d="M633 696l-79 -5l57 125h114zM167 695l-79 -5l57 125h114zM85 0v660h91v-660h-91zM322 130q56 -56 117 -56q57 0 86 27t29 88v471h91v-466q0 -98 -55.5 -149t-150.5 -51q-97 0 -173 69z" />
    <glyph glyph-name="ijacute" horiz-adv-x="461" 
d="M391 542l-80 -5l57 155h114zM153 541l-80 -5l57 155h114zM71 0v472l89 3v-475h-89zM162 -119q20 -15 55 -15q84 0 84 93v513l89 3v-499q0 -184 -165 -184q-27 0 -49.5 7t-31.5 14l-9 7z" />
    <glyph glyph-name="commaccent" horiz-adv-x="600" 
 />
    </font>
</defs>
</svg>
