<?xml version="1.0" standalone="no"?>
<!DOCTYPE svg PUBLIC "-//W3C//DTD SVG 1.1//EN" "http://www.w3.org/Graphics/SVG/1.1/DTD/svg11.dtd" >
<svg xmlns="http://www.w3.org/2000/svg" xmlns:xlink="http://www.w3.org/1999/xlink" version="1.1">
<metadata>
Created by FontForge 20170731 at Mon Jul 18 17:13:30 2016
 By Aleksey,,,
Copyright (c) 2016 by Daniel Hernandez. All rights reserved.
</metadata>
<defs>
<font id="BasicSans-LightIt" horiz-adv-x="0" >
  <font-face 
    font-family="BasicSans-LightIt"
    font-weight="400"
    font-style="italic"
    font-stretch="normal"
    units-per-em="1000"
    panose-1="0 0 4 0 0 0 0 0 0 0"
    ascent="772"
    descent="-228"
    x-height="468"
    cap-height="656"
    bbox="-505 -236 1385 929"
    underline-thickness="50"
    underline-position="-150"
    slope="-7"
    unicode-range="U+0020-FB02"
  />
<missing-glyph horiz-adv-x="393" 
 />
    <glyph glyph-name="fi" unicode="fi" horiz-adv-x="560" 
d="M520 470l-50 -393q-3 -28 20 -28q9 0 17 2l-3 -51q-19 -5 -40 -5q-65 0 -56 67l45 356h-236l-52 -418h-61l53 418h-67l6 50h67l9 74q6 51 30 89.5t60.5 59t81.5 20.5q19 0 36.5 -3.5t30 -9t19 -9.5t10.5 -7l-29 -48l-4.5 3.5t-7.5 5.5t-9.5 5.5t-12.5 5.5t-15.5 4
t-19.5 2q-44 0 -73.5 -32t-36.5 -85l-9 -75h236zM516 668q18 0 30 -12t12 -30q0 -21 -16 -36t-38 -15q-17 0 -29 12t-12 30q0 21 16 36t37 15z" />
    <glyph glyph-name="fl" unicode="fl" horiz-adv-x="550" 
d="M342 660q-44 0 -73.5 -32t-36.5 -85l-9 -75h163l-7 -50h-162l-52 -418h-61l53 418h-67l6 50h67l9 74q6 51 30 89.5t60.5 59t81.5 20.5q19 0 36.5 -3.5t30 -9t19 -9.5t10.5 -7l-29 -48l-4.5 3.5t-7.5 5.5t-9.5 5.5t-12.5 5.5t-15.5 4t-19.5 2zM503 706h61l-89 -706h-60z
" />
    <glyph glyph-name=".notdef" horiz-adv-x="393" 
 />
    <glyph glyph-name=".null" 
 />
    <glyph glyph-name="nonmarkingreturn" horiz-adv-x="333" 
 />
    <glyph glyph-name="space" unicode=" " horiz-adv-x="227" 
 />
    <glyph glyph-name="exclam" unicode="!" horiz-adv-x="228" 
d="M232 666l-69 -478l-52 -2l53 480h68zM120 77q17 0 27.5 -12t10.5 -29q0 -19 -13 -32.5t-31 -13.5q-15 0 -26 12t-11 29q0 19 13 32.5t30 13.5z" />
    <glyph glyph-name="quotedbl" unicode="&#x22;" horiz-adv-x="263" 
d="M130 543l18 163h47l-24 -163h-41zM228 543l18 163h47l-24 -163h-41z" />
    <glyph glyph-name="numbersign" unicode="#" horiz-adv-x="609" 
d="M602 308h-127l-41 -123h126l-16 -44h-125l-47 -141h-52l46 141h-133l-47 -141h-52l47 141h-127l16 44h126l41 123h-125l15 43h124l47 140h51l-46 -140h133l46 140h54l-47 -140h128zM381 185l41 123h-134l-40 -123h133z" />
    <glyph glyph-name="dollar" unicode="$" horiz-adv-x="542" 
d="M182 479q0 -30 17.5 -51.5t45.5 -34t62 -24t67.5 -25t61.5 -32t45.5 -50t17.5 -74.5q0 -55 -26.5 -97.5t-75 -66.5t-112.5 -28l-12 -97h-48l12 96q-68 4 -118 26t-77 50l45 49q70 -70 180 -70q77 0 123 35.5t46 93.5q0 27 -10.5 48t-29 34.5t-42.5 24.5t-50.5 19.5
t-53 18t-50 22t-42 28.5t-29.5 41t-11 56q0 53 26 95t72 67t105 28l11 93h48l-12 -93q37 -3 66 -15.5t46 -28t29 -36t17 -36t8 -31.5l-61 -15q-1 15 -8.5 31.5t-22.5 34.5t-43 30t-64 12q-43 0 -78 -15.5t-55 -45t-20 -67.5z" />
    <glyph glyph-name="percent" unicode="%" horiz-adv-x="819" 
d="M243 0l367 662h57l-366 -662h-58zM226 290q-63 0 -99.5 42t-36.5 112q0 95 51.5 155t130.5 60q63 0 100 -43t37 -115q0 -94 -51.5 -152.5t-131.5 -58.5zM233 344q51 0 84 42t33 110q0 33 -10 57.5t-29 38t-45 13.5q-50 0 -83.5 -43.5t-33.5 -111.5q0 -49 22.5 -77.5
t61.5 -28.5zM627 -4q-63 0 -99.5 42t-36.5 113q0 62 23.5 111t65 76t93.5 27q63 0 99.5 -43t36.5 -115q0 -94 -51 -152.5t-131 -58.5zM634 50q50 0 83.5 42t33.5 109q0 33 -10 58t-29 38.5t-45 13.5q-51 0 -84 -43.5t-33 -111.5q0 -19 3.5 -35.5t10.5 -29.5t17.5 -22.5
t23.5 -14t29 -4.5z" />
    <glyph glyph-name="ampersand" unicode="&#x26;" horiz-adv-x="571" 
d="M571 293q-17 -128 -92 -206l47 -67l-50 -33l-42 61q-77 -52 -182 -52q-57 0 -99.5 20.5t-65 56.5t-22.5 83q0 75 43 120.5t116 71.5q-47 67 -47 131q0 76 52 126.5t128 50.5q62 0 96.5 -35.5t34.5 -91.5q0 -69 -45.5 -114.5t-135.5 -79.5l142 -204q54 65 69 180zM350 606
q-49 0 -81 -33.5t-32 -85.5q0 -54 45 -117q86 33 117.5 65.5t31.5 84.5q0 26 -9.5 45t-28 30t-43.5 11zM259 52q86 0 145 39l-154 221v1q-58 -22 -89 -56.5t-31 -89.5q0 -51 35 -83t94 -32z" />
    <glyph glyph-name="quotesingle" unicode="'" horiz-adv-x="164" 
d="M130 543l18 163h47l-24 -163h-41z" />
    <glyph glyph-name="parenleft" unicode="(" horiz-adv-x="262" 
d="M162 -232q-3 6 -9 16.5t-21.5 48t-27.5 78.5t-21.5 106t-9.5 132q0 75 11.5 147t29.5 127t40.5 104t44.5 83t40.5 59t29.5 37l12 12l47 -26q-8 -7 -21 -22t-47 -66.5t-60 -109t-47 -150.5t-21 -191q0 -64 8.5 -125t21 -101.5t25 -72t20.5 -45.5l9 -15z" />
    <glyph glyph-name="parenright" unicode=")" horiz-adv-x="262" 
d="M251 343q0 -58 -7 -115t-19 -104.5t-27.5 -91.5t-33 -79t-34.5 -65t-32.5 -52t-27.5 -37.5t-19 -23.5l-8 -7l-48 26q8 8 21 23t47 68t60 112t47.5 152t21.5 190q0 65 -9 124.5t-21 99.5t-24.5 70.5t-20.5 44.5l-9 14l54 26q4 -5 10 -15.5t21.5 -46.5t27 -76.5t21 -104.5
t9.5 -132z" />
    <glyph glyph-name="asterisk" unicode="*" horiz-adv-x="399" 
d="M288 369l-31 127l-91 -107l-28 24l99 103l-125 17l10 39l121 -27l-36 120l36 16l30 -126l94 114l28 -25l-102 -106l129 -17l-9 -38l-128 26l40 -123z" />
    <glyph glyph-name="plus" unicode="+" horiz-adv-x="426" 
d="M416 271l-5 -47h-146l-21 -170h-48l21 170h-145l5 47h146l19 152h49l-20 -152h145z" />
    <glyph glyph-name="comma" unicode="," horiz-adv-x="214" 
d="M62 32q0 22 14.5 35.5t37.5 13.5q11 0 19.5 -4t14 -11t9 -16.5t3.5 -21.5q0 -29 -10.5 -57.5t-25 -47.5t-29 -34t-25.5 -22l-10 -7l-25 36q7 5 17 13.5t29.5 34.5t22.5 50q-18 0 -30 10.5t-12 27.5z" />
    <glyph glyph-name="hyphen" unicode="-" horiz-adv-x="373" 
d="M102 301l6 48h244l-5 -48h-245z" />
    <glyph glyph-name="period" unicode="." horiz-adv-x="204" 
d="M61 35q0 13 7.5 25t19 18.5t25.5 6.5q16 0 27.5 -12t11.5 -29q0 -20 -15.5 -35t-35.5 -15q-17 0 -28.5 12t-11.5 29z" />
    <glyph glyph-name="slash" unicode="/" horiz-adv-x="380" 
d="M2 -204l379 910h60l-378 -910h-61z" />
    <glyph glyph-name="zero" unicode="0" horiz-adv-x="583" 
d="M289 -6q-96 0 -148 67t-52 194q0 189 76 298t208 109q98 0 150 -68t52 -197q0 -188 -76 -295.5t-210 -107.5zM296 50q100 0 157.5 91t57.5 251q0 105 -37.5 160t-107.5 55q-65 0 -113.5 -42.5t-73.5 -121t-25 -184.5q0 -102 36.5 -155.5t105.5 -53.5z" />
    <glyph glyph-name="one" unicode="1" horiz-adv-x="332" 
d="M182 0l74 588l-166 -45l8 60l220 53h9l-82 -656h-63z" />
    <glyph glyph-name="two" unicode="2" horiz-adv-x="515" 
d="M149 51q16 3 47 3h280l-6 -54h-419l6 52q21 14 62 41t67 44.5t64.5 45.5t63.5 50t53 52.5t44.5 59t27.5 63.5t11 70q0 60 -33.5 94.5t-92.5 34.5q-66 0 -109 -38t-43 -96q0 -13 2 -20l-63 -11q-2 4 -2 25q0 86 63 140.5t159 54.5q86 0 134.5 -47.5t48.5 -128.5
q0 -50 -20.5 -100.5t-50.5 -90.5t-75 -81.5t-84 -70t-87 -60.5q-25 -16 -49 -29z" />
    <glyph glyph-name="three" unicode="3" horiz-adv-x="530" 
d="M341 662q82 0 130 -43.5t48 -116.5q0 -49 -24.5 -88.5t-60 -60t-72.5 -20.5l-1 -2q24 0 48 -8.5t45 -25t34 -44t13 -62.5q0 -86 -66.5 -141t-175.5 -55q-48 0 -86.5 12t-60 29.5t-36 34.5t-19.5 29l-5 12l54 30q2 -3 5.5 -9.5t17 -22.5t30 -28t45 -22t62.5 -10
q49 0 87 16.5t59.5 47t24.5 71.5q3 38 -15.5 63.5t-53.5 38t-86 14.5l-34 1l8 57l33 1q75 2 121 36t46 96q0 51 -33.5 83t-88.5 32q-65 0 -106.5 -34.5t-41.5 -87.5q0 -16 2 -19l-63 -10q-1 3 -1 24q0 79 61 130.5t156 51.5z" />
    <glyph glyph-name="four" unicode="4" horiz-adv-x="542" 
d="M499 656l-55 -440h95l-6 -54h-96l-20 -162h-62l20 162h-330l7 54l361 440h86zM381 216l42 335q4 36 8 45l-3 1q-8 -13 -31 -43l-238 -286q-40 -50 -41 -50l1 -3q8 1 48 1h214z" />
    <glyph glyph-name="five" unicode="5" horiz-adv-x="522" 
d="M179 656h342l-6 -54h-288l-49 -226l3 -1q20 21 58.5 36.5t84.5 15.5q84 0 134 -51.5t50 -136.5q0 -108 -72.5 -176t-184.5 -68q-42 0 -78 11t-57.5 27t-36.5 32t-21 27l-6 11l55 35q2 -3 5 -9t16 -21.5t29 -27t43 -21t58 -9.5q80 0 133 51t53 131q0 63 -37 101t-99 38
q-39 0 -73 -13.5t-49 -27.5l-15 -13h-61z" />
    <glyph glyph-name="six" unicode="6" horiz-adv-x="549" 
d="M354 415q80 0 128.5 -48.5t48.5 -129.5q0 -106 -68.5 -174.5t-173.5 -68.5q-93 0 -147 68.5t-54 194.5q0 183 86 294t219 111q110 0 164 -74l-41 -41q-5 7 -12.5 15t-22 19t-39 18.5t-53.5 7.5q-99 0 -166 -88.5t-72 -237.5l5 -1q13 50 66 92.5t132 42.5zM295 50
q75 0 124 51t49 129q0 59 -35.5 94.5t-96.5 35.5q-71 0 -121.5 -44.5t-61.5 -112.5q9 -75 45 -114t97 -39z" />
    <glyph glyph-name="seven" unicode="7" horiz-adv-x="471" 
d="M530 656l-6 -54l-326 -602h-65l304 555q21 37 27 46v3q-16 -2 -55 -2h-245l-12 -95h-56l19 149h415z" />
    <glyph glyph-name="eight" unicode="8" horiz-adv-x="561" 
d="M431 349q51 -15 78 -52.5t27 -91.5q0 -94 -71.5 -152t-184.5 -58q-96 0 -153 46t-57 122q0 69 39 117.5t110 68.5v2q-35 12 -55 45t-20 77q0 55 28 98t78.5 67t113.5 24q81 0 129.5 -42t48.5 -109q0 -57 -31 -101t-80 -59v-2zM208 479q0 -47 32 -75.5t88 -27.5
q66 -1 107.5 35.5t41.5 94.5q0 47 -32.5 74.5t-87.5 27.5q-66 0 -107.5 -35.5t-41.5 -93.5zM287 50q82 0 134 43t52 111q0 55 -40 85.5t-112 30.5q-85 0 -135.5 -39t-50.5 -107q0 -56 41.5 -90t110.5 -34z" />
    <glyph glyph-name="nine" unicode="9" horiz-adv-x="548" 
d="M341 662q62 0 106.5 -30t69 -89.5t24.5 -143.5q0 -183 -83.5 -294t-216.5 -111q-111 0 -165 75l42 40q40 -59 126 -59q98 0 163 87.5t71 237.5l-4 1q-13 -50 -66 -92.5t-132.5 -42.5t-128 49t-48.5 129q0 70 31.5 126t86.5 86.5t124 30.5zM294 296q70 0 120 44.5
t62 111.5q-18 155 -142 155q-73 0 -122.5 -51.5t-49.5 -129.5q0 -59 36 -94.5t96 -35.5z" />
    <glyph glyph-name="colon" unicode=":" horiz-adv-x="219" 
d="M118 422q0 21 15.5 36t35.5 15q16 0 27.5 -12t11.5 -29q0 -13 -7 -25t-19 -18.5t-25 -6.5q-17 0 -28 11.5t-11 28.5zM69 35q0 13 7.5 25t19 18.5t25.5 6.5q16 0 27.5 -12t11.5 -29q0 -20 -15.5 -35t-35.5 -15q-17 0 -28.5 12t-11.5 29z" />
    <glyph glyph-name="semicolon" unicode=";" horiz-adv-x="241" 
d="M131 422q0 21 15.5 36t35.5 15q17 0 28 -12t11 -29q0 -13 -7 -25t-18.5 -18.5t-24.5 -6.5q-18 0 -29 11.5t-11 28.5zM78 32q0 14 6 25t18 17.5t28 6.5q10 0 18.5 -4t14.5 -11t9.5 -16.5t3.5 -21.5q0 -29 -10.5 -57.5t-25 -47.5t-29.5 -34t-25 -22l-10 -7l-26 36q3 2 7 5
t15 13.5t20 21.5t17 27t11 31q-19 0 -30.5 10.5t-11.5 27.5z" />
    <glyph glyph-name="less" unicode="&#x3c;" horiz-adv-x="383" 
d="M64 249l6 50l320 199l-7 -55l-262 -169l219 -169l-6 -55z" />
    <glyph glyph-name="equal" unicode="=" horiz-adv-x="501" 
d="M108 323l6 46h366l-6 -46h-366zM84 132l6 46h365l-6 -46h-365z" />
    <glyph glyph-name="greater" unicode="&#x3e;" horiz-adv-x="382" 
d="M62 50l6 55l263 169l-220 169l7 55l269 -199l-6 -50z" />
    <glyph glyph-name="question" unicode="?" horiz-adv-x="435" 
d="M295 681q52 0 91 -19.5t59.5 -55t20.5 -81.5q0 -40 -15 -73t-37 -55t-49 -46t-50.5 -44t-41.5 -50.5t-22 -64.5q0 -2 -0.5 -3.5t-0.5 -3.5t-1 -3l-56 -2q0 5 1 12q6 41 24.5 75.5t41 56t48 44.5t46.5 41.5t34.5 46.5t13.5 60q0 49 -31 80t-82 31q-56 0 -93.5 -34.5
t-37.5 -84.5q0 -12 2 -19l-62 -10q-1 11 -1 25q0 76 56 126.5t142 50.5zM207 78q16 0 27 -11.5t11 -28.5q0 -19 -15 -33.5t-34 -14.5q-16 0 -27 11.5t-11 27.5q0 20 15 34.5t34 14.5z" />
    <glyph glyph-name="at" unicode="@" horiz-adv-x="826" 
d="M618 44q-41 0 -62.5 24.5t-16.5 66.5v9q-20 -45 -59 -72.5t-91 -27.5q-67 0 -105.5 46.5t-38.5 123.5q0 102 56.5 166t140.5 64q46 0 76 -21t43 -56l9 71h59l-37 -297q-3 -28 9.5 -44t37.5 -16q55 0 100 69.5t45 174.5q0 127 -77 204t-208 77q-112 0 -202.5 -52
t-142 -147t-51.5 -215q0 -138 81.5 -222.5t219.5 -84.5q37 0 72 5.5t61.5 14.5t49 20t38.5 22t27.5 20t17.5 15l6 6l14 -21l-6.5 -6t-18.5 -15.5t-29.5 -21t-41.5 -23t-52 -21t-65 -15t-76 -5.5q-149 0 -237.5 91t-88.5 238q0 128 55.5 229.5t153 157t218.5 55.5
q142 0 226 -83t84 -220q0 -128 -58 -206t-136 -78zM408 95q53 0 90 39.5t45 87.5l6 47q3 48 -24.5 86t-80.5 38q-60 0 -99 -48.5t-39 -123.5q0 -57 27.5 -91.5t74.5 -34.5z" />
    <glyph glyph-name="A" unicode="A" horiz-adv-x="576" 
d="M492 0l-41 178h-281l-86 -178h-64l317 656h65l154 -656h-64zM195 231h244l-69 299q-6 22 -9 50h-2q-8 -22 -20 -50z" />
    <glyph glyph-name="B" unicode="B" horiz-adv-x="580" 
d="M441 344q19 -3 37 -12t36 -25t29 -44t11 -63q0 -95 -62 -147.5t-175 -52.5h-229l82 656h211q88 0 136 -38.5t48 -111.5q0 -40 -13 -71.5t-34 -49t-40 -26.5t-37 -13v-2zM501 497q0 105 -135 105h-140l-30 -237h159q68 0 107 37.5t39 94.5zM316 54q81 0 128 37t47 108
q0 38 -17 64.5t-47.5 39.5t-72.5 13h-164l-33 -262h159z" />
    <glyph glyph-name="C" unicode="C" horiz-adv-x="604" 
d="M414 662q49 0 88 -15t61.5 -38t36 -52t17.5 -55t2 -49l-60 -10q1 17 -1.5 36.5t-12.5 42.5t-26 41.5t-45.5 31t-66.5 12.5q-51 0 -97 -23t-81 -64t-55.5 -102.5t-20.5 -135.5q0 -112 54.5 -172t143.5 -60q64 0 114 31t82 71l34 -39q-13 -17 -30 -32.5t-47 -37t-72.5 -35
t-88.5 -13.5q-118 0 -186 74.5t-68 206.5q0 172 93 279t232 107z" />
    <glyph glyph-name="D" unicode="D" horiz-adv-x="628" 
d="M342 656q88 0 150.5 -33t95.5 -96t33 -149q0 -179 -88.5 -278.5t-238.5 -99.5h-206l82 656h172zM298 54q117 0 188 84.5t71 234.5q0 111 -58 170t-165 59h-108l-69 -548h141z" />
    <glyph glyph-name="E" unicode="E" horiz-adv-x="517" 
d="M542 602h-316l-30 -234h285l-7 -53h-284l-33 -261h316l-7 -54h-378l82 656h379z" />
    <glyph glyph-name="F" unicode="F" horiz-adv-x="482" 
d="M531 602h-305l-30 -238h264l-7 -55h-264l-39 -309h-62l82 656h368z" />
    <glyph glyph-name="G" unicode="G" horiz-adv-x="626" 
d="M619 459l-61 -10q2 16 -0.5 35.5t-12.5 41.5t-26.5 39.5t-46.5 29.5t-68 12q-105 0 -178 -90t-73 -235q0 -106 48.5 -169t135.5 -63q86 0 139.5 50t62.5 114l6 47h-218l6 53h271l-39 -314h-39q-2 35 2 100q-31 -50 -84 -77.5t-122 -27.5q-108 0 -170.5 76.5t-62.5 203.5
q0 170 92 278.5t230 108.5q50 0 89 -14.5t61.5 -36.5t36.5 -50t18.5 -53.5t2.5 -48.5z" />
    <glyph glyph-name="H" unicode="H" horiz-adv-x="669" 
d="M601 656h63l-82 -656h-63l40 315h-369l-40 -315h-62l82 656h62l-36 -288h369z" />
    <glyph glyph-name="I" unicode="I" horiz-adv-x="238" 
d="M88 0l82 656h62l-82 -656h-62z" />
    <glyph glyph-name="J" unicode="J" horiz-adv-x="425" 
d="M61 106q45 -56 108 -56q116 0 132 127l60 479h63l-60 -475q-12 -93 -65 -139.5t-137 -46.5q-90 0 -145 64z" />
    <glyph glyph-name="K" unicode="K" horiz-adv-x="609" 
d="M602 1q-1 0 -7.5 -1t-16 -1.5t-18.5 -0.5q-38 0 -65.5 22t-41 54.5t-28.5 70.5t-27.5 71t-37 54.5t-58.5 21.5h-114l-37 -292h-63l82 656h63l-39 -311h110q26 0 52.5 8.5t55.5 31t52.5 56.5t42.5 89.5t28 125.5h63q-33 -264 -205 -336q27 -12 47.5 -45t33.5 -70.5
t26.5 -73.5t33.5 -59.5t48 -23.5h25z" />
    <glyph glyph-name="L" unicode="L" horiz-adv-x="485" 
d="M157 54h322l-6 -54h-385l82 656h62z" />
    <glyph glyph-name="M" unicode="M" horiz-adv-x="786" 
d="M780 656l-82 -656h-62l62 479q6 52 9 66l-2 1q-18 -45 -26 -59l-264 -489h-40l-147 493q-7 24 -10 55l-3 -1q1 -11 -5 -66l-60 -479h-62l82 656h71l145 -498q14 -47 18 -72h2q7 18 37 72l269 498h68z" />
    <glyph glyph-name="N" unicode="N" horiz-adv-x="654" 
d="M649 656l-82 -656h-72l-232 476q-25 53 -42 97l-5 -2q3 -13 -6 -89l-59 -482h-63l82 656h71l232 -479q15 -33 42 -96l4 2q3 52 7 90l60 483h63z" />
    <glyph glyph-name="O" unicode="O" horiz-adv-x="677" 
d="M422 662q113 0 181 -76.5t68 -207.5q0 -86 -26 -158.5t-71 -121.5t-106 -76t-130 -27q-113 0 -181 76.5t-68 206.5q0 87 26 159.5t71 121.5t106 76t130 27zM345 50q73 0 132.5 39.5t95 113.5t35.5 169q0 108 -53 171.5t-141 63.5q-72 0 -131.5 -39.5t-95 -113.5
t-35.5 -170q0 -71 24 -124t68 -81.5t101 -28.5z" />
    <glyph glyph-name="P" unicode="P" horiz-adv-x="553" 
d="M367 656q100 0 154.5 -49t54.5 -137q0 -110 -69.5 -175.5t-185.5 -65.5h-142l-29 -229h-62l82 656h197zM319 283q89 0 141 48.5t52 131.5q0 65 -40.5 102t-113.5 37h-132l-40 -319h133z" />
    <glyph glyph-name="Q" unicode="Q" horiz-adv-x="712" 
d="M671 378q0 -148 -72 -248.5t-188 -126.5q91 -27 185 -34l-20 -51q-136 13 -259 78q-104 7 -166 82.5t-62 199.5q0 87 26 159.5t71 121.5t106 76t130 27q74 0 130.5 -34t87.5 -98.5t31 -151.5zM152 284q0 -107 53 -170.5t140 -63.5q111 0 187 89.5t76 232.5
q0 108 -53 171.5t-141 63.5q-72 0 -131.5 -39.5t-95 -113.5t-35.5 -170z" />
    <glyph glyph-name="R" unicode="R" horiz-adv-x="566" 
d="M538 46l15 2l-1 -50q-17 -3 -38 -3q-28 0 -49.5 11.5t-34 30t-23 42t-17.5 48.5t-18 49t-24 42.5t-36 30t-54 11.5h-75l-33 -260h-62l82 656h184q94 0 145.5 -44t51.5 -128q0 -83 -48.5 -138.5t-128.5 -75.5q24 -11 41.5 -38t28 -57.5t21.5 -60t29 -49t44 -19.5zM189 310
h111q80 0 133.5 44t53.5 122q0 60 -37 93t-105 33h-119z" />
    <glyph glyph-name="S" unicode="S" horiz-adv-x="526" 
d="M474 499q-1 15 -8.5 31.5t-22 34.5t-42.5 30t-64 12q-44 0 -78.5 -15.5t-54.5 -45t-20 -67.5q0 -30 17.5 -51.5t45.5 -34t61.5 -24t67.5 -25t62 -32t45.5 -50t17.5 -74.5q0 -88 -66 -140.5t-174 -52.5q-77 0 -132 23t-85 53l45 49q69 -70 179 -70q77 0 123.5 35.5
t46.5 93.5q0 27 -11 48t-29.5 34.5t-42 24.5t-50 19.5t-53 18t-50.5 22t-42.5 28.5t-29 41t-10.5 56q0 85 62.5 138t160.5 53q36 0 66 -7.5t49.5 -20.5t34 -28t23 -33t13 -31.5t7.5 -27.5z" />
    <glyph glyph-name="T" unicode="T" horiz-adv-x="507" 
d="M221 0l76 602h-209l7 54h481l-6 -54h-210l-76 -602h-63z" />
    <glyph glyph-name="U" unicode="U" horiz-adv-x="647" 
d="M585 656h62l-49 -397q-16 -123 -90 -193.5t-185 -70.5t-168 70.5t-41 193.5l49 397h63l-49 -395q-12 -101 29 -156t124 -55t137.5 54.5t67.5 154.5z" />
    <glyph glyph-name="V" unicode="V" horiz-adv-x="569" 
d="M169 656l116 -530q6 -27 8 -50h2q9 23 21 50l252 530h64l-316 -656h-63l-151 656h67z" />
    <glyph glyph-name="W" unicode="W" horiz-adv-x="850" 
d="M847 656h62l-263 -656h-70l-72 497q-6 44 -6 73h-2q-12 -41 -24 -73l-199 -497h-70l-98 656h65l71 -530q4 -34 6 -56h2q8 24 20 56l210 530h59l77 -530q2 -15 6 -56h2q4 11 20 56z" />
    <glyph glyph-name="X" unicode="X" horiz-adv-x="549" 
d="M612 656l-256 -333l175 -323h-72l-122 226q-18 34 -25 64h-2q-24 -40 -42 -63l-179 -227h-70l253 323l-171 333h74l119 -236q19 -41 24 -61h2q10 21 40 61l181 236h71z" />
    <glyph glyph-name="Y" unicode="Y" horiz-adv-x="545" 
d="M608 656l-272 -405l-31 -251h-63l31 248l-172 408h69l121 -288q16 -40 20 -67h2q9 28 35 67l195 288h65z" />
    <glyph glyph-name="Z" unicode="Z" horiz-adv-x="526" 
d="M33 0l6 54l418 507q17 21 37 41l-1 3q-22 -3 -58 -3h-317l6 54h450l-6 -54l-415 -507q-16 -19 -40 -41l2 -2q10 2 58 2h320l-6 -54h-454z" />
    <glyph glyph-name="bracketleft" unicode="[" horiz-adv-x="281" 
d="M58 -204l114 910h167l-7 -53h-107l-101 -804h107l-7 -53h-166z" />
    <glyph glyph-name="backslash" unicode="\" horiz-adv-x="379" 
d="M326 -204h-60l-150 910h60z" />
    <glyph glyph-name="bracketright" unicode="]" horiz-adv-x="281" 
d="M5 -204l7 53h106l101 804h-107l8 53h166l-114 -910h-167z" />
    <glyph glyph-name="asciicircum" unicode="^" horiz-adv-x="346" 
d="M111 524l117 194h70l69 -194h-56l-54 145l-90 -145h-56z" />
    <glyph glyph-name="underscore" unicode="_" horiz-adv-x="333" 
d="M-14 -110l6 46h333l-5 -46h-334z" />
    <glyph glyph-name="grave" unicode="`" horiz-adv-x="244" 
d="M211 544l-65 147h78l41 -143z" />
    <glyph glyph-name="a" unicode="a" horiz-adv-x="564" 
d="M490 87q-4 -38 26 -38q7 0 15 2l-2 -51q-15 -5 -38 -5q-32 0 -48.5 17t-11.5 53l5 40h-1q-17 -32 -43 -56.5t-62 -39t-77 -14.5q-55 0 -96 25.5t-63.5 71.5t-22.5 108q0 120 69 196.5t175 76.5q65 0 105.5 -34t50.5 -88h1q6 58 23 117h43zM269 46q68 0 115.5 49t59.5 109
l3 25l5 27l-1 -2q5 39 -6.5 76t-46 64.5t-85.5 27.5q-77 0 -128 -61t-51 -156q0 -72 36 -115.5t99 -43.5z" />
    <glyph glyph-name="b" unicode="b" horiz-adv-x="553" 
d="M359 474q82 0 131 -56t49 -149q0 -121 -68.5 -197.5t-174.5 -76.5q-66 0 -106 34t-51 88q-4 -46 -22 -117h-44l88 704h61l-42 -332q28 45 73.5 73.5t105.5 28.5zM298 47q79 0 129 60.5t50 155.5q0 73 -36 116t-99 43q-46 0 -85 -25t-61 -60t-29 -72l-7 -60
q-3 -38 9.5 -72.5t46 -60t82.5 -25.5z" />
    <glyph glyph-name="c" unicode="c" horiz-adv-x="487" 
d="M322 473q74 0 117 -39.5t43 -101.5q0 -12 -2 -23.5t-4 -17.5l-1 -6l-57 -4q6 16 6 39q0 45 -29 73.5t-79 28.5q-79 0 -131 -61.5t-52 -156.5q0 -72 37.5 -115t105.5 -43q86 0 146 61l31 -38q-69 -74 -184 -74q-92 0 -145 55.5t-53 148.5q0 119 72 196.5t179 77.5z" />
    <glyph glyph-name="d" unicode="d" horiz-adv-x="564" 
d="M490 87q-4 -38 26 -38q7 0 15 2l-2 -51q-15 -5 -38 -5q-69 0 -60 70l5 41h-2q-26 -50 -73 -80.5t-109 -30.5q-55 0 -96 25.5t-62.5 71.5t-21.5 108q0 120 69 197t174 77q58 0 96.5 -26.5t54.5 -70.5l41 327h60zM269 47q49 0 89.5 27.5t61.5 64.5t26 75l6 44
q3 27 -3.5 55.5t-22.5 53t-45.5 40t-67.5 15.5q-51 0 -92 -27.5t-64 -77t-23 -111.5q0 -73 36 -116t99 -43z" />
    <glyph glyph-name="e" unicode="e" horiz-adv-x="494" 
d="M317 473q79 0 124 -50t45 -132q0 -17 -2.5 -34.5t-5.5 -26.5l-2 -9h-342q-1 -7 -1 -16q0 -48 17 -83.5t50.5 -55.5t79.5 -20q84 0 139 61l32 -35q-67 -77 -182 -77q-61 0 -106 25.5t-68.5 71.5t-23.5 107q0 120 70.5 197t175.5 77zM312 422q-41 0 -76.5 -19.5
t-60.5 -54.5t-35 -82h284q2 12 2 28q0 59 -30.5 93.5t-83.5 34.5z" />
    <glyph glyph-name="f" unicode="f" horiz-adv-x="340" 
d="M342 660q-44 0 -73.5 -32t-36.5 -85l-9 -75h163l-7 -50h-162l-52 -418h-61l53 418h-67l6 50h67l9 74q6 51 30 89.5t60.5 59t81.5 20.5q19 0 36.5 -3.5t30 -9t19 -9.5t10.5 -7l-29 -48l-4.5 3.5t-7.5 5.5t-9.5 5.5t-12.5 5.5t-15.5 4t-19.5 2z" />
    <glyph glyph-name="g" unicode="g" horiz-adv-x="553" 
d="M495 468h43l-60 -476q-11 -93 -76.5 -147t-167.5 -54q-111 0 -182 56l34 49q23 -22 64 -38t91 -16q37 0 67.5 10t53.5 28.5t37 46.5t19 64l13 106q-28 -46 -74 -74t-104 -28q-55 0 -96 25.5t-63.5 71.5t-22.5 108q0 120 69 196.5t175 76.5q65 0 105.5 -34t50.5 -88h1
q6 58 23 117zM270 46q68 0 116 50.5t59 110.5l7 56q2 38 -10 73t-45.5 60.5t-83.5 25.5q-51 0 -92 -27.5t-64 -77t-23 -112.5q0 -72 36.5 -115.5t99.5 -43.5z" />
    <glyph glyph-name="h" unicode="h" horiz-adv-x="548" 
d="M502 49q11 0 18 2l-3 -51q-18 -5 -43 -5q-32 0 -47.5 20t-10.5 54l26 218q7 61 -20.5 98t-83.5 37q-45 0 -82.5 -24.5t-59 -58.5t-28.5 -72l-34 -267h-61l89 706h59l-43 -341h1q17 31 41.5 54.5t59.5 38.5t75 15q79 0 118.5 -51t29.5 -135l-25 -206q-2 -15 4.5 -23.5
t19.5 -8.5z" />
    <glyph glyph-name="i" unicode="i" horiz-adv-x="215" 
d="M230 626q0 -14 -7 -25.5t-19.5 -18.5t-26.5 -7q-18 0 -29.5 12t-11.5 30q0 21 16 36t36 15q19 0 30.5 -12t11.5 -30zM193 470l-50 -393q-4 -28 20 -28q8 0 16 2l-3 -51q-18 -5 -39 -5q-66 0 -57 67l52 406z" />
    <glyph glyph-name="j" unicode="j" horiz-adv-x="217" 
d="M239 626q0 -14 -7.5 -25.5t-20 -18.5t-26.5 -7q-17 0 -29 12t-12 30q0 21 16 36t37 15q18 0 30 -12t12 -30zM-82 -139q20 -17 57 -17q45 0 69 26t31 81l65 517l61 2l-64 -509q-21 -169 -164 -169q-24 0 -44 6.5t-27 13.5l-8 6z" />
    <glyph glyph-name="k" unicode="k" horiz-adv-x="497" 
d="M489 428q-9 -68 -41 -119.5t-87 -75.5l114 -233h-72l-103 216q-17 -2 -35 -2h-104l-27 -214h-61l89 706h60l-55 -442h94q72 0 119.5 48t49.5 133q1 4 1 12v11h61q-1 -3 -1 -6v-6t-0.5 -6.5t-0.5 -6.5t-0.5 -7t-0.5 -8z" />
    <glyph glyph-name="l" unicode="l" horiz-adv-x="210" 
d="M75 0l88 706h61l-89 -706h-60z" />
    <glyph glyph-name="m" unicode="m" horiz-adv-x="855" 
d="M809 49q10 0 17 2l-2 -51q-20 -5 -43 -5q-32 0 -47.5 20t-11.5 54l27 216q5 41 -5 71t-35 47.5t-62 17.5q-33 0 -62 -15.5t-48.5 -39.5t-32.5 -51.5t-17 -54.5l-33 -260h-61l36 285q8 62 -19.5 99t-83.5 37q-63 0 -106.5 -50.5t-53.5 -111.5l-32 -259h-61l59 468l43 2
q2 -53 -6 -119h2q23 53 67.5 87t105.5 34q60 0 98 -32t47 -88q25 53 69.5 86.5t104.5 33.5q78 0 118 -51.5t29 -135.5l-26 -204q-1 -10 1.5 -17.5t8.5 -11t15 -3.5z" />
    <glyph glyph-name="n" unicode="n" horiz-adv-x="548" 
d="M502 49q10 0 17 2l-2 -51q-19 -5 -43 -5q-33 0 -48 20t-11 54l27 218q7 61 -20.5 98t-84.5 37q-68 0 -114.5 -50.5t-56.5 -111.5l-32 -260h-61l59 468l43 2q2 -53 -6 -119h2q16 33 41 60t62.5 44.5t79.5 17.5q79 0 119 -51t30 -135l-26 -206q-1 -10 1.5 -17.5t8.5 -11
t15 -3.5z" />
    <glyph glyph-name="o" unicode="o" horiz-adv-x="533" 
d="M326 473q89 0 141.5 -57t52.5 -151q0 -118 -72 -194t-182 -76q-90 0 -142.5 56t-52.5 149q0 119 72 196t183 77zM272 46q81 0 134 60.5t53 153.5q0 36 -10 66t-27.5 51t-44 33t-58.5 12q-52 0 -95 -28t-67 -77.5t-24 -111.5q0 -72 37.5 -115.5t101.5 -43.5z" />
    <glyph glyph-name="p" unicode="p" horiz-adv-x="553" 
d="M359 473q83 0 132 -55.5t49 -148.5q0 -121 -69 -197.5t-175 -76.5q-56 0 -95 27.5t-56 71.5l-37 -298h-60l84 672l43 2q2 -73 -6 -119h2q24 54 72 88t116 34zM298 46q52 0 93 27.5t63.5 77t22.5 112.5q0 72 -36 115.5t-99 43.5q-69 0 -117 -50.5t-59 -112.5l-7 -52
q-1 -23 3 -45t14.5 -43t26.5 -37t40.5 -26t54.5 -10z" />
    <glyph glyph-name="q" unicode="q" horiz-adv-x="553" 
d="M495 468h43l-84 -672h-61l38 301q-28 -46 -73.5 -74t-104.5 -28q-83 0 -132.5 56t-49.5 149q0 120 69 196.5t175 76.5q44 0 77.5 -16.5t52.5 -43.5t25 -62h2q6 58 23 117zM269 46q69 0 117 50t59 111l7 56q2 38 -10 73t-45.5 60.5t-83.5 25.5q-51 0 -92 -27.5t-64 -77
t-23 -112.5q0 -72 36 -115.5t99 -43.5z" />
    <glyph glyph-name="r" unicode="r" horiz-adv-x="315" 
d="M313 473q26 0 50 -7l-22 -60q-14 8 -39 8q-31 0 -60.5 -22t-49.5 -57.5t-26 -74.5l-32 -260h-61l59 468l43 2q2 -53 -6 -119h2q21 53 57.5 87.5t84.5 34.5z" />
    <glyph glyph-name="s" unicode="s" horiz-adv-x="438" 
d="M363 310q7 14 7 34q0 24 -12.5 42t-35 27t-51.5 9q-52 0 -83 -24.5t-31 -63.5q0 -29 26 -46.5t63.5 -26t74.5 -19t63 -36.5t26 -68q0 -44 -24.5 -76.5t-68 -49.5t-100.5 -17q-110 0 -175 69l42 40q6 -6 15.5 -14t26.5 -19t43 -18t55 -7q58 0 91 23.5t33 62.5q0 24 -19 40
t-47 23.5t-60.5 18t-60.5 21.5t-46.5 35t-18.5 58q0 31 13.5 58t37.5 46t58 30t73 11q68 0 109 -31.5t41 -83.5q0 -7 -1 -13.5t-2 -11.5t-2 -9.5t-2 -6.5l-1 -2z" />
    <glyph glyph-name="t" unicode="t" horiz-adv-x="369" 
d="M213 418l-31 -253q-8 -60 10.5 -89t67.5 -29q15 0 29.5 3t25.5 7t19 8.5t13 7.5l4 3l13 -49q-2 -1 -5.5 -3t-15.5 -8t-24.5 -10t-32 -8t-39.5 -4q-77 0 -107 42.5t-19 126.5l31 255h-72l6 50h73l18 142l60 4l-18 -146h180l-6 -50h-180z" />
    <glyph glyph-name="u" unicode="u" horiz-adv-x="535" 
d="M462 87q-5 -38 25 -38q9 0 15 2l-2 -51q-15 -5 -37 -5q-32 0 -48.5 17t-11.5 53l4 36h-2q-25 -47 -69 -76.5t-100 -29.5q-79 0 -117.5 50.5t-27.5 134.5l36 288h61l-36 -288q-8 -61 18.5 -97.5t82.5 -36.5q65 0 110 52.5t54 113.5l32 256h61z" />
    <glyph glyph-name="v" unicode="v" horiz-adv-x="479" 
d="M455 468h62l-242 -468h-69l-127 468h68l95 -373q6 -20 6 -34h2q4 11 14 34z" />
    <glyph glyph-name="w" unicode="w" horiz-adv-x="699" 
d="M671 468h62l-196 -468h-74l-57 356q-4 21 -4 34h-2q-6 -20 -12 -34l-149 -356h-73l-84 468h66l57 -370q1 -9 4 -22t3 -15h2q9 25 14 37l152 370h62l59 -368q1 -7 2 -15.5t1.5 -15.5t0.5 -8h2l15 39z" />
    <glyph glyph-name="x" unicode="x" horiz-adv-x="442" 
d="M479 468l-193 -233l136 -235h-71l-96 171q-8 15 -8 21h-2q-2 -8 -14 -21l-139 -171h-69l194 232l-137 236h71l92 -167q13 -25 13 -28h2q3 8 18 28l133 167h70z" />
    <glyph glyph-name="y" unicode="y" horiz-adv-x="524" 
d="M449 468h61l-60 -477q-12 -93 -72 -146.5t-163 -53.5q-92 0 -164 50l34 49q53 -48 137 -48q152 0 171 149l15 112h-1q-26 -48 -70 -78t-101 -30q-79 0 -117.5 50.5t-27.5 134.5l36 288h61l-36 -288q-8 -61 18.5 -97.5t82.5 -36.5q63 0 107.5 50t55.5 109z" />
    <glyph glyph-name="z" unicode="z" horiz-adv-x="425" 
d="M35 0l6 50l308 347q5 5 11 12t9 9l-1 2q-7 -2 -30 -2h-245l6 50h345l-6 -50l-298 -338q-14 -16 -28 -30v-2q8 2 34 2h250l-6 -50h-355z" />
    <glyph glyph-name="braceleft" unicode="{" horiz-adv-x="290" 
d="M233 -209q-31 0 -56 7.5t-45.5 24.5t-29.5 49t-3 77l25 200q4 33 -12 50t-40 17h-10l6 50h10q24 0 44 17t25 50l28 220q5 44 22 76.5t42 49.5t51.5 24.5t57.5 7.5l-6 -55q-46 0 -75 -27.5t-36 -84.5l-28 -223q-4 -27 -16 -46t-22 -25.5t-19 -8.5q8 -3 16 -9.5t15.5 -26
t4.5 -44.5l-25 -204q-13 -112 83 -112z" />
    <glyph glyph-name="bar" unicode="|" horiz-adv-x="220" 
d="M58 -204l113 901h53l-113 -901h-53z" />
    <glyph glyph-name="braceright" unicode="}" horiz-adv-x="290" 
d="M11 -155q97 0 110 112l26 204q7 59 57 80q-6 1 -11.5 5t-13 12.5t-11 25t-0.5 37.5l28 224q6 56 -15.5 84t-67.5 28l6 54q31 0 56 -7.5t45.5 -24.5t29.5 -49t3 -77l-27 -220q-5 -33 11.5 -50t41.5 -17h9l-6 -50h-10q-24 0 -44.5 -17t-24.5 -50l-25 -200q-6 -45 -23 -77
t-42 -49t-51.5 -24.5t-57.5 -7.5z" />
    <glyph glyph-name="asciitilde" unicode="~" horiz-adv-x="537" 
d="M101 253l6 45q47 31 105 31q38 0 96.5 -20t96.5 -20q61 0 104 31l-6 -46q-48 -31 -105 -31q-37 0 -95.5 20t-95.5 20q-25 0 -54.5 -8t-51.5 -22z" />
    <glyph glyph-name="exclamdown" unicode="&#xa1;" horiz-adv-x="212" 
d="M155 386q-17 0 -27.5 11t-10.5 27q0 20 14.5 34.5t34.5 14.5q16 0 27 -11.5t11 -27.5q0 -20 -15 -34t-34 -14zM46 -203l68 476l53 2l-54 -478h-67z" />
    <glyph glyph-name="cent" unicode="&#xa2;" horiz-adv-x="492" 
d="M327 420q-86 0 -138 -60t-52 -156q0 -72 37.5 -115t105.5 -43q86 0 145 61l31 -38q-63 -68 -165 -74l-12 -95h-47l13 96q-80 9 -125.5 64t-45.5 140q0 111 64 185.5t166 84.5l12 93h46l-12 -92q102 -6 147 -74l-40 -38q-44 61 -130 61z" />
    <glyph glyph-name="sterling" unicode="&#xa3;" horiz-adv-x="547" 
d="M375 608q-77 0 -127 -48.5t-50 -122.5q0 -14 2 -27.5t7 -29.5t7.5 -23.5t11 -27.5t9.5 -24h220l-5 -44h-200q7 -27 7 -52q0 -33 -13 -63.5t-31 -49.5t-30 -29.5t-18 -13.5l1 -2q12 2 34 2h297l-7 -53h-418l5 41q5 2 12.5 7t28 21t36 33.5t28 46t12.5 58.5q0 26 -9 54
h-107l5 44h85q-12 27 -17 39.5t-11 37.5t-6 49q0 100 70 165.5t178 65.5q45 0 81.5 -11.5t56.5 -28.5t33 -33.5t17 -28.5l4 -12l-56 -25q-1 4 -3.5 9.5t-13 20t-25 25.5t-41.5 20.5t-60 9.5z" />
    <glyph glyph-name="currency" unicode="&#xa4;" horiz-adv-x="565" 
d="M158 328q0 57 37 111l-69 83l36 33l67 -82q54 50 120 50q64 0 106 -50l87 82l29 -33l-90 -83q16 -38 16 -75q0 -56 -39 -107l68 -82l-36 -32l-67 79q-50 -48 -117 -48q-68 0 -108 50l-88 -84l-28 33l90 85q-14 31 -14 70zM207 334q0 -47 29.5 -79t75.5 -32q54 0 95 41
t41 98q0 47 -30 79t-75 32q-54 0 -95 -41t-41 -98z" />
    <glyph glyph-name="yen" unicode="&#xa5;" horiz-adv-x="586" 
d="M614 656l-243 -363h141l-5 -46h-164l-10 -76h164l-6 -45h-164l-15 -126h-63l15 126h-164l5 45h165l10 76h-165l5 46h141l-153 363h69l121 -288q16 -40 20 -67h2q9 28 35 67l194 288h65z" />
    <glyph glyph-name="brokenbar" unicode="&#xa6;" horiz-adv-x="218" 
d="M123 324l47 373h53l-47 -373h-53zM57 -204l47 372h53l-47 -372h-53z" />
    <glyph glyph-name="section" unicode="&#xa7;" horiz-adv-x="537" 
d="M509 211q0 -92 -82 -129q52 -38 52 -107q0 -85 -66 -134.5t-173 -49.5q-79 0 -133 23t-85 54l45 48q70 -70 180 -70q76 0 122 32.5t46 88.5q0 29 -14 49.5t-36 32t-50.5 21.5t-58.5 16.5t-58.5 17.5t-51 24t-36 37t-13.5 57q0 45 25.5 79t67.5 51q-65 41 -65 122
q0 85 64 136.5t161 51.5q165 0 192 -148l-62 -16q-2 16 -9 32.5t-21.5 35t-42 30t-64.5 11.5q-67 0 -110.5 -34.5t-43.5 -91.5q0 -29 14 -50.5t36.5 -33.5t51 -22.5t58.5 -18t59 -19.5t51 -26.5t36 -40t14 -59.5zM373 109q73 24 73 95q0 21 -9 37.5t-22.5 26.5t-36 18.5
t-41.5 14t-47 13t-47 14.5q-38 -6 -62 -32.5t-24 -64.5q0 -24 12.5 -41.5t37 -28.5t49 -18t60 -16t57.5 -18z" />
    <glyph glyph-name="dieresis" unicode="&#xa8;" horiz-adv-x="324" 
d="M148 579q-16 0 -26.5 11t-10.5 26q0 13 7 24t17.5 17.5t22.5 6.5q11 0 19 -5.5t12.5 -14t4.5 -19.5q0 -19 -14 -32.5t-32 -13.5zM321 579q-10 0 -18 5t-13 13.5t-5 18.5q0 19 14.5 33.5t32.5 14.5q16 0 26.5 -11t10.5 -27q0 -20 -14 -33.5t-34 -13.5z" />
    <glyph glyph-name="copyright" unicode="&#xa9;" horiz-adv-x="733" 
d="M365 -4q-128 0 -202.5 78.5t-74.5 209.5q0 166 102 271.5t258 105.5q85 0 148 -36t97 -101t34 -151q0 -166 -102.5 -271.5t-259.5 -105.5zM368 20q145 0 238 98.5t93 252.5q0 121 -68.5 193t-185.5 72q-94 0 -169 -44t-117.5 -124t-42.5 -181q0 -121 68 -194t184 -73z
M543 176q-2 -3 -6.5 -7.5t-19 -16t-31.5 -20t-45 -15.5t-58 -7q-76 0 -120 48t-44 129q0 109 61.5 180.5t155.5 71.5q38 0 67.5 -12t45 -31.5t22 -40.5t4.5 -40l-48 -9q0 4 -0.5 9.5t-5 20.5t-13.5 26t-29.5 20t-48.5 9q-67 0 -111.5 -55.5t-44.5 -141.5q0 -41 14.5 -72
t41.5 -48t65 -17q17 0 33.5 3t29 8t23.5 10.5t18.5 11.5t13 10.5t7.5 7.5l3 3z" />
    <glyph glyph-name="ordfeminine" unicode="&#xaa;" horiz-adv-x="440" 
d="M418 335q7 0 14 1l-3 -49h-2.5t-5 -1t-7.5 -1.5t-9.5 -0.5h-10.5q-61 0 -54 61l2 11h-1q-16 -29 -49.5 -51t-87.5 -22q-34 0 -57.5 11t-35.5 30t-12 45q0 69 60.5 97.5t179.5 29.5l19 1l3 27q6 41 -15.5 65.5t-64.5 24.5t-70 -21t-27 -55q0 -7 2 -14l-55 -10q-2 9 -2 21
q0 56 44.5 91.5t115.5 35.5q70 0 104.5 -37t26.5 -103l-20 -159q-2 -15 2.5 -21.5t15.5 -6.5zM225 331q35 0 63 15.5t41.5 32.5t17.5 33l6 47l-19 -1q-88 0 -131 -18.5t-43 -59.5q0 -23 16.5 -36t48.5 -13z" />
    <glyph glyph-name="guillemotleft" unicode="&#xab;" horiz-adv-x="421" 
d="M73 239l7 50l148 134l27 -36l-139 -123l109 -123l-37 -36zM232 239l7 50l149 134l26 -36l-139 -123l109 -123l-37 -36z" />
    <glyph glyph-name="registered" unicode="&#xae;" horiz-adv-x="433" 
d="M255 312q-66 0 -106 42t-40 110q0 85 54.5 141.5t135.5 56.5q33 0 60 -11t46 -31.5t30 -49t11 -62.5q0 -84 -55 -140t-136 -56zM258 333q70 0 117.5 49.5t47.5 123.5q0 39 -15.5 70t-44.5 48.5t-67 17.5q-71 0 -118 -49.5t-47 -126.5q0 -60 34.5 -96.5t92.5 -36.5z
M349 382q-4 -1 -11 -1q-11 0 -18.5 6t-11 15t-7.5 20t-8 20t-12.5 15.5t-20.5 6.5h-28l-11 -82h-25l28 213h69q25 0 40.5 -15t15.5 -39q0 -13 -3.5 -24t-9.5 -18.5t-12 -12.5t-12.5 -8t-10.5 -4.5t-6 -1.5q12 -5 19 -16.5t9 -23t7.5 -20.5t14.5 -9h5zM273 486q15 0 26.5 7
t18 18.5t6.5 25.5q0 8 -2.5 15t-7.5 11.5t-12 7.5t-16 3h-40l-12 -88h39z" />
    <glyph glyph-name="macron" unicode="&#xaf;" horiz-adv-x="351" 
d="M124 597l5 47h254l-6 -47h-253z" />
    <glyph glyph-name="degree" unicode="&#xb0;" horiz-adv-x="328" 
d="M349 555q0 -40 -17 -71t-47.5 -48t-68.5 -17q-47 0 -74.5 28.5t-27.5 75.5q0 40 17.5 71.5t47.5 49t67 17.5q24 0 43 -7.5t32 -21.5t20.5 -33.5t7.5 -43.5zM313 551q0 33 -19.5 53.5t-51.5 20.5q-26 0 -47 -12.5t-33 -34.5t-12 -51q0 -33 19 -53t51 -20q26 0 47.5 12
t33.5 34.5t12 50.5z" />
    <glyph glyph-name="plusminus" unicode="&#xb1;" horiz-adv-x="471" 
d="M303 348h146l-6 -47h-145l-17 -131h-48l16 131h-146l6 47h146l16 127h48zM73 59l6 47h339l-6 -47h-339z" />
    <glyph glyph-name="acute" unicode="&#xb4;" horiz-adv-x="244" 
d="M171 548l-55 -4l77 147h79z" />
    <glyph glyph-name="paragraph" unicode="&#xb6;" horiz-adv-x="515" 
d="M358 -201l103 823h-86l-103 -823h-40l64 515h-34q-53 0 -93.5 18.5t-62 53t-21.5 78.5q0 56 28.5 100t78.5 68t113 24h200l-107 -857h-40z" />
    <glyph glyph-name="periodcentered" unicode="&#xb7;" horiz-adv-x="210" 
d="M105 355q0 21 15.5 36t35.5 15q17 0 28 -12t11 -29q0 -21 -15 -35.5t-36 -14.5q-17 0 -28 11.5t-11 28.5z" />
    <glyph glyph-name="cedilla" unicode="&#xb8;" horiz-adv-x="253" 
d="M133 -33q27 -3 46.5 -20.5t19.5 -48.5q0 -27 -13.5 -47.5t-37 -30.5t-52.5 -10q-14 0 -27 3t-21.5 8t-15 9.5t-8.5 7.5l-3 4l23 36q20 -25 57 -25q24 0 39 11.5t15 30.5q0 18 -18.5 30.5t-60.5 12.5l38 72l42 -1z" />
    <glyph glyph-name="ordmasculine" unicode="&#xba;" horiz-adv-x="448" 
d="M307 662q47 0 82.5 -21t54.5 -58t19 -85q0 -94 -57.5 -154.5t-146.5 -60.5q-72 0 -114 45t-42 118q0 62 26 111.5t73 77t105 27.5zM266 334q59 0 97 44.5t38 114.5q0 21 -4 39.5t-13 33t-21 25t-28 16t-35 5.5q-59 0 -97 -45.5t-38 -115.5q0 -53 27 -85t74 -32z" />
    <glyph glyph-name="guillemotright" unicode="&#xbb;" horiz-adv-x="421" 
d="M100 105l-27 36l138 123l-108 123l37 36l115 -134l-6 -50zM259 105l-27 36l138 123l-108 123l37 36l115 -134l-7 -50z" />
    <glyph glyph-name="onequarter" unicode="&#xbc;" horiz-adv-x="775" 
d="M182 0l367 662h58l-367 -662h-58zM179 294l38 299l-119 -24l7 56l167 31h11l-45 -362h-59zM722 361l-29 -230h68l-6 -50h-68l-11 -81h-59l10 81h-206l8 57l229 223h64zM635 131l19 145q2 18 4 26l-1 2q-9 -12 -20 -23l-130 -129q-8 -7 -25 -20l1 -2q5 1 33 1h119z" />
    <glyph glyph-name="onehalf" unicode="&#xbd;" horiz-adv-x="771" 
d="M182 0l367 662h58l-367 -662h-58zM179 294l38 299l-119 -24l7 56l167 31h11l-45 -362h-59zM537 49q4 1 30 1h173l-6 -50h-294l5 44q19 10 48 26.5t49.5 28t46 27t42.5 29.5t33 29.5t23.5 32t7.5 33.5q0 28 -20.5 45t-56.5 17q-26 0 -46.5 -9t-31.5 -25t-11 -35q0 -7 1 -8
l-60 -12q-1 6 -1 17q0 53 43 89t112 36q62 0 97 -28t35 -78q0 -16 -3.5 -31t-12 -29t-16 -24.5t-22.5 -23.5t-23.5 -20t-28 -19t-26.5 -16.5t-28.5 -16t-25.5 -13.5q-17 -10 -34 -15z" />
    <glyph glyph-name="threequarters" unicode="&#xbe;" horiz-adv-x="859" 
d="M273 0l367 662h58l-366 -662h-59zM273 659q40 0 69.5 -12t45 -33.5t15.5 -49.5q0 -25 -14 -45.5t-36.5 -31.5t-48.5 -11v-1q23 0 43.5 -8.5t34 -26.5t13.5 -42q0 -47 -45.5 -77t-120.5 -30q-25 0 -47 4t-36.5 10t-27 13.5t-19.5 15t-12 13.5t-7 10l-1 4l49 31
q1 -2 3.5 -5.5t12 -11.5t20.5 -14.5t30 -11.5t40 -5q19 0 35.5 3t28 8t20 12t13 16t4.5 19q0 16 -12 26.5t-32 15.5t-48 5h-35l5 48h27q101 0 101 56q0 16 -8.5 28t-26 18.5t-40.5 6.5q-37 0 -61 -14t-24 -36q0 -7 1 -9l-60 -10l-0.5 2t-0.5 6v7q0 48 43 77.5t109 29.5z
M808 361l-29 -230h68l-7 -50h-68l-10 -81h-60l11 81h-207l8 57l230 223h64zM720 131l19 145q2 19 5 26l-1 2q-9 -11 -20 -23l-131 -129q-12 -11 -25 -20l1 -2q5 1 34 1h118z" />
    <glyph glyph-name="questiondown" unicode="&#xbf;" horiz-adv-x="429" 
d="M283 386q-16 0 -27 11t-11 28q0 13 6.5 24t18 17.5t24.5 6.5q16 0 26.5 -11.5t10.5 -27.5q0 -13 -7 -24t-18 -17.5t-23 -6.5zM194 -218q-78 0 -124 43t-46 113q0 40 14.5 73.5t36.5 55t49 45.5t50.5 44t41.5 50.5t22 65.5q2 6 2 9l57 2q0 -1 -0.5 -6t-1.5 -6
q-5 -36 -19.5 -66t-33 -51t-40 -40.5t-42 -36.5t-37 -35.5t-26.5 -42.5t-10 -52q0 -24 8 -44.5t22.5 -35t36 -23t46.5 -8.5q58 0 95 35t37 86q0 9 -2 17l61 10q2 -12 2 -26q0 -49 -25.5 -89.5t-71 -63.5t-102.5 -23z" />
    <glyph glyph-name="Agrave" unicode="&#xc0;" horiz-adv-x="576" 
d="M405 690l-55 -4l-69 121h80zM492 0l-41 178h-281l-86 -178h-64l317 656h65l154 -656h-64zM195 231h244l-69 299q-6 22 -9 50h-2q-8 -22 -20 -50z" />
    <glyph glyph-name="Aacute" unicode="&#xc1;" horiz-adv-x="576" 
d="M495 807l-99 -117l-55 -4l74 121h80zM492 0l-41 178h-281l-86 -178h-64l317 656h65l154 -656h-64zM195 231h244l-69 299q-6 22 -9 50h-2q-8 -22 -20 -50z" />
    <glyph glyph-name="Acircumflex" unicode="&#xc2;" horiz-adv-x="576" 
d="M384 764l-81 -76l-55 -2l107 126h70l77 -126l-56 2zM492 0l-41 178h-281l-86 -178h-65l318 656h65l154 -656h-64zM195 231h244l-69 299q-6 22 -9 50h-2q-8 -22 -20 -50z" />
    <glyph glyph-name="Atilde" unicode="&#xc3;" horiz-adv-x="576" 
d="M274 676h-48q-2 8 -2 17q0 42 24.5 66.5t63.5 24.5q26 0 49.5 -14.5t42 -29.5t31.5 -15q37 0 37 51v14h49l-1 -18q-1 -42 -23.5 -68t-60.5 -26q-24 0 -48 14.5t-43.5 29.5t-33.5 15q-17 0 -28 -12t-11 -35zM492 0l-41 178h-281l-86 -178h-64l317 656h65l154 -656h-64z
M195 231h244l-69 299q-6 22 -9 50h-2q-8 -22 -20 -50z" />
    <glyph glyph-name="Adieresis" unicode="&#xc4;" horiz-adv-x="576" 
d="M291 705q-16 0 -26 10.5t-10 26.5q0 18 14.5 32t32.5 14q10 0 18 -5t12.5 -13.5t4.5 -18.5q0 -12 -6.5 -23t-17.5 -17t-22 -6zM465 705q-15 0 -25.5 10.5t-10.5 26.5q0 18 14.5 32t32.5 14q15 0 25 -11t10 -26q0 -19 -14 -32.5t-32 -13.5zM492 0l-41 178h-281l-86 -178
h-64l317 656h65l154 -656h-64zM195 231h244l-69 299q-6 22 -9 50h-2q-8 -22 -20 -50z" />
    <glyph glyph-name="Aring" unicode="&#xc5;" horiz-adv-x="576" 
d="M372 675q-18 0 -33 8.5t-23 24t-8 33.5q0 35 25 59t58 24q27 0 45.5 -19t18.5 -47q0 -34 -25 -58.5t-58 -24.5zM386 787q-16 0 -27.5 -12t-11.5 -30q0 -15 8 -24t22 -9q16 0 28 12t12 30q0 9 -4 16.5t-11 12t-16 4.5zM492 0l-41 178h-281l-86 -178h-64l317 656h65
l154 -656h-64zM195 231h244l-69 299q-6 22 -9 50h-2q-8 -22 -20 -50z" />
    <glyph glyph-name="AE" unicode="&#xc6;" horiz-adv-x="946" 
d="M925 602h-317l-29 -234h284l-7 -53h-284l-33 -261h316l-6 -54h-379l22 178h-282l-151 -178h-66l556 656h382zM254 231h245l42 339z" />
    <glyph glyph-name="Ccedilla" unicode="&#xc7;" horiz-adv-x="604" 
d="M619 453l-60 -10q1 17 -1.5 36.5t-12.5 42.5t-26 41.5t-45.5 31t-66.5 12.5q-106 0 -180 -89t-74 -236q0 -112 54.5 -172t143.5 -60q64 0 114 31t82 71l34 -39q-13 -16 -28.5 -30.5t-43.5 -35.5t-67 -35t-82 -17l-15 -28q27 -3 46.5 -20.5t19.5 -48.5q0 -27 -14 -47.5
t-37 -30.5t-52 -10q-23 0 -42 8t-26 16l-8 8l24 36q19 -25 57 -25q24 0 38.5 11.5t14.5 30.5q0 11 -6.5 20t-25 16t-47.5 7l31 58q-107 8 -168 82t-61 198q0 172 93 279t232 107q49 0 88 -15t61.5 -38t36 -52t17.5 -55t2 -49z" />
    <glyph glyph-name="Egrave" unicode="&#xc8;" horiz-adv-x="517" 
d="M408 690l-56 -4l-68 121h80zM542 602h-316l-30 -234h285l-7 -53h-284l-33 -261h316l-7 -54h-378l82 656h379z" />
    <glyph glyph-name="Eacute" unicode="&#xc9;" horiz-adv-x="517" 
d="M498 807l-99 -117l-55 -4l74 121h80zM542 602h-316l-30 -234h285l-7 -53h-284l-33 -261h316l-7 -54h-378l82 656h379z" />
    <glyph glyph-name="Ecircumflex" unicode="&#xca;" horiz-adv-x="517" 
d="M387 764l-81 -76l-55 -2l107 126h70l77 -126l-56 2zM542 602h-316l-30 -234h285l-7 -53h-284l-33 -261h316l-7 -54h-378l82 656h379z" />
    <glyph glyph-name="Edieresis" unicode="&#xcb;" horiz-adv-x="517" 
d="M294 705q-16 0 -26 10.5t-10 26.5q0 12 6.5 23t17.5 17t23 6q15 0 25 -11t10 -26q0 -12 -6.5 -23t-17.5 -17t-22 -6zM468 705q-15 0 -25.5 10.5t-10.5 26.5q0 18 14.5 32t32.5 14q15 0 25 -11t10 -26q0 -19 -14 -32.5t-32 -13.5zM542 602h-316l-30 -234h285l-7 -53h-284
l-33 -261h316l-7 -54h-378l82 656h379z" />
    <glyph glyph-name="Igrave" unicode="&#xcc;" horiz-adv-x="238" 
d="M182 686l-69 121h80l44 -117zM88 0l82 656h62l-82 -656h-62z" />
    <glyph glyph-name="Iacute" unicode="&#xcd;" horiz-adv-x="238" 
d="M228 690l-55 -4l74 121h80zM88 0l82 656h62l-82 -656h-62z" />
    <glyph glyph-name="Icircumflex" unicode="&#xce;" horiz-adv-x="238" 
d="M258 812l76 -126l-56 2l-62 76l-81 -76l-55 -2l108 126h70zM88 0l82 656h62l-82 -656h-62z" />
    <glyph glyph-name="Idieresis" unicode="&#xcf;" horiz-adv-x="238" 
d="M123 705q-10 0 -18.5 5t-13 13.5t-4.5 18.5q0 18 14.5 32t32.5 14q15 0 25 -11t10 -26q0 -19 -14 -32.5t-32 -13.5zM297 705q-15 0 -25.5 10.5t-10.5 26.5q0 18 14.5 32t32.5 14q15 0 25 -11t10 -26q0 -19 -13.5 -32.5t-32.5 -13.5zM88 0l82 656h62l-82 -656h-62z" />
    <glyph glyph-name="Eth" unicode="&#xd0;" horiz-adv-x="628" 
d="M342 656q132 0 205.5 -73.5t73.5 -204.5q0 -179 -88.5 -278.5t-238.5 -99.5h-206l37 301h-79l6 51h80l38 304h172zM298 54q77 0 135.5 37t91 109.5t32.5 172.5q0 111 -58 170t-165 59h-108l-32 -250h176l-6 -51h-176l-31 -247h141z" />
    <glyph glyph-name="Ntilde" unicode="&#xd1;" horiz-adv-x="654" 
d="M584 790l-1 -18q-2 -42 -24 -68t-61 -26q-24 0 -47.5 14.5t-43 29.5t-34.5 15q-16 0 -27 -12t-11 -35l1 -14h-48q-1 8 -1 17q0 42 24.5 66.5t63.5 24.5q25 0 48.5 -14.5t42 -29.5t32.5 -15q37 0 37 51l-1 14h50zM649 656l-82 -656h-72l-232 476q-25 53 -42 97l-5 -2
q3 -13 -6 -89l-59 -482h-63l82 656h71l232 -479q15 -33 42 -96l4 2q3 52 7 90l60 483h63z" />
    <glyph glyph-name="Ograve" unicode="&#xd2;" horiz-adv-x="677" 
d="M401 686l-69 121h80l44 -117zM422 662q113 0 181 -76.5t68 -207.5q0 -86 -26 -158.5t-71 -121.5t-106 -76t-130 -27q-113 0 -181 76.5t-68 206.5q0 87 26 159.5t71 121.5t106 76t130 27zM345 50q73 0 132.5 39.5t95 113.5t35.5 169q0 108 -53 171.5t-141 63.5
q-72 0 -131.5 -39.5t-95 -113.5t-35.5 -170q0 -71 24 -124t68 -81.5t101 -28.5z" />
    <glyph glyph-name="Oacute" unicode="&#xd3;" horiz-adv-x="677" 
d="M447 690l-55 -4l74 121h80zM422 662q113 0 181 -76.5t68 -207.5q0 -86 -26 -158.5t-71 -121.5t-106 -76t-130 -27q-113 0 -181 76.5t-68 206.5q0 87 26 159.5t71 121.5t106 76t130 27zM345 50q73 0 132.5 39.5t95 113.5t35.5 169q0 108 -53 171.5t-141 63.5
q-72 0 -131.5 -39.5t-95 -113.5t-35.5 -170q0 -71 24 -124t68 -81.5t101 -28.5z" />
    <glyph glyph-name="Ocircumflex" unicode="&#xd4;" horiz-adv-x="677" 
d="M477 812l76 -126l-56 2l-62 76l-81 -76l-55 -2l108 126h70zM422 662q113 0 181 -76.5t68 -207.5q0 -86 -26 -158.5t-71 -121.5t-106 -76t-130 -27q-113 0 -181 76.5t-68 206.5q0 87 26 159.5t71 121.5t106 76t130 27zM345 50q73 0 132.5 39.5t95 113.5t35.5 169
q0 108 -53 171.5t-141 63.5q-110 0 -186 -89.5t-76 -233.5q0 -71 24 -124t68 -81.5t101 -28.5z" />
    <glyph glyph-name="Otilde" unicode="&#xd5;" horiz-adv-x="677" 
d="M572 790l-1 -18q-1 -42 -23.5 -68t-60.5 -26q-24 0 -48 14.5t-43.5 29.5t-33.5 15q-17 0 -27.5 -12t-10.5 -35l1 -14h-48q-1 8 -1 17q0 42 24 66.5t63 24.5q26 0 49.5 -14.5t42 -29.5t31.5 -15q38 0 38 51l-1 14h49zM422 662q113 0 181 -76.5t68 -207.5q0 -86 -26 -158.5
t-71 -121.5t-106 -76t-130 -27q-113 0 -181 76.5t-68 206.5q0 87 26 159.5t71 121.5t106 76t130 27zM345 50q73 0 132.5 39.5t95 113.5t35.5 169q0 108 -53 171.5t-141 63.5q-72 0 -131.5 -39.5t-95 -113.5t-35.5 -170q0 -71 24 -124t68 -81.5t101 -28.5z" />
    <glyph glyph-name="Odieresis" unicode="&#xd6;" horiz-adv-x="677" 
d="M342 705q-15 0 -25.5 10.5t-10.5 26.5q0 12 7 23t17.5 17t22.5 6q10 0 18 -5t12.5 -13.5t4.5 -18.5q0 -12 -6.5 -23t-17 -17t-22.5 -6zM516 705q-15 0 -25.5 10.5t-10.5 26.5q0 18 14.5 32t32.5 14q15 0 25 -11t10 -26q0 -19 -13.5 -32.5t-32.5 -13.5zM422 662
q113 0 181 -76.5t68 -207.5q0 -86 -26 -158.5t-71 -121.5t-106 -76t-130 -27q-113 0 -181 76.5t-68 206.5q0 87 26 159.5t71 121.5t106 76t130 27zM345 50q73 0 132.5 39.5t95 113.5t35.5 169q0 108 -53 171.5t-141 63.5q-72 0 -131.5 -39.5t-95 -113.5t-35.5 -170
q0 -107 53 -170.5t140 -63.5z" />
    <glyph glyph-name="multiply" unicode="&#xd7;" horiz-adv-x="419" 
d="M404 364l-132 -122l102 -122l-38 -33l-101 121l-130 -121l-29 33l131 122l-101 122l37 33l101 -121l130 121z" />
    <glyph glyph-name="Oslash" unicode="&#xd8;" horiz-adv-x="677" 
d="M686 688l-80 -106q65 -76 65 -204q0 -86 -26 -158.5t-71 -121.5t-106 -76t-130 -27q-84 0 -145 44l-63 -83h-64l90 117q-67 77 -67 205q0 87 26 159.5t71 121.5t106 76t130 27q86 0 147 -45l54 71h63zM152 284q0 -96 44 -158l335 441q-48 40 -117 40q-72 0 -131.5 -39.5
t-95 -113.5t-35.5 -170zM608 372q0 95 -42 157l-336 -441q48 -38 115 -38q111 0 187 89.5t76 232.5z" />
    <glyph glyph-name="Ugrave" unicode="&#xd9;" horiz-adv-x="647" 
d="M386 686l-69 121h80l44 -117zM585 656h62l-49 -397q-16 -123 -90 -193.5t-185 -70.5t-168 70.5t-41 193.5l49 397h63l-49 -395q-12 -101 29 -156t124 -55t137.5 54.5t67.5 154.5z" />
    <glyph glyph-name="Uacute" unicode="&#xda;" horiz-adv-x="647" 
d="M432 690l-54 -4l73 121h81zM585 656h62l-49 -397q-16 -123 -90 -193.5t-185 -70.5t-168 70.5t-41 193.5l49 397h63l-49 -395q-12 -101 29 -156t124 -55t137.5 54.5t67.5 154.5z" />
    <glyph glyph-name="Ucircumflex" unicode="&#xdb;" horiz-adv-x="647" 
d="M462 812l77 -126l-56 2l-63 76l-81 -76l-55 -2l108 126h70zM585 656h62l-49 -397q-16 -123 -90 -193.5t-185 -70.5t-168 70.5t-41 193.5l49 397h63l-49 -395q-12 -101 29 -156t124 -55t137.5 54.5t67.5 154.5z" />
    <glyph glyph-name="Udieresis" unicode="&#xdc;" horiz-adv-x="647" 
d="M328 705q-16 0 -26 10.5t-10 26.5q0 12 6.5 23t17 17t22.5 6q10 0 18 -5t13 -13.5t5 -18.5q0 -12 -7 -23t-17.5 -17t-21.5 -6zM502 705q-16 0 -26 10.5t-10 26.5q0 18 14 32t32 14q16 0 26 -11t10 -26q0 -19 -14 -32.5t-32 -13.5zM585 656h62l-49 -397
q-16 -123 -90 -193.5t-185 -70.5t-168 70.5t-41 193.5l49 397h63l-49 -395q-12 -101 29 -156t124 -55t137.5 54.5t67.5 154.5z" />
    <glyph glyph-name="Yacute" unicode="&#xdd;" horiz-adv-x="545" 
d="M481 807l-99 -117l-55 -4l74 121h80zM608 656l-272 -405l-31 -251h-63l31 248l-172 408h69l121 -288q16 -40 20 -67h2q9 28 35 67l195 288h65z" />
    <glyph glyph-name="Thorn" unicode="&#xde;" horiz-adv-x="558" 
d="M355 547q99 0 154 -49.5t55 -136.5q0 -111 -69.5 -176t-186.5 -65h-143l-15 -120h-62l82 656h62l-13 -109h136zM306 173q88 0 140.5 48.5t52.5 131.5q0 65 -40.5 102.5t-114.5 37.5h-132l-40 -320h134z" />
    <glyph glyph-name="germandbls" unicode="&#xdf;" horiz-adv-x="520" 
d="M385 364q56 -16 86 -57t30 -100q0 -95 -56 -153.5t-161 -58.5q-26 0 -49.5 3t-34.5 6l-11 3l19 52q30 -13 82 -13q45 0 79 20t52.5 56t18.5 82q0 39 -16.5 68t-49.5 45.5t-79 16.5h-25l5 50h10q39 0 72 22t52 60.5t19 83.5q0 50 -28 80t-74 30q-51 0 -84.5 -35t-41.5 -98
l-66 -527h-60l67 536q9 79 61 127t129 48q36 0 65.5 -11.5t50 -31.5t32 -49.5t11.5 -63.5q0 -60 -28.5 -110.5t-76.5 -80.5z" />
    <glyph glyph-name="agrave" unicode="&#xe0;" horiz-adv-x="564" 
d="M382 548l-54 -4l-65 147h79zM490 87q-4 -38 26 -38q7 0 15 2l-2 -51q-15 -5 -38 -5q-32 0 -48.5 17t-11.5 53l5 40h-1q-26 -49 -73.5 -79.5t-108.5 -30.5q-55 0 -96 25.5t-63.5 71.5t-22.5 108q0 120 69 196.5t175 76.5q65 0 105.5 -34t50.5 -88h1q6 58 23 117h43z
M269 46q68 0 115.5 49t59.5 109l3 25l5 27l-1 -2q5 39 -6.5 76t-46 64.5t-85.5 27.5q-77 0 -128 -61t-51 -156q0 -72 36 -115.5t99 -43.5z" />
    <glyph glyph-name="aacute" unicode="&#xe1;" horiz-adv-x="564" 
d="M452 691l-100 -143l-55 -4l76 147h79zM490 87q-4 -38 26 -38q7 0 15 2l-2 -51q-15 -5 -38 -5q-32 0 -48.5 17t-11.5 53l5 40h-1q-26 -49 -73.5 -79.5t-108.5 -30.5q-83 0 -132.5 56t-49.5 149q0 120 69 196.5t175 76.5q65 0 105.5 -34t50.5 -88h1q6 58 23 117h43zM269 46
q68 0 115.5 49t59.5 109l3 25l5 27l-1 -2q5 39 -6.5 76t-46 64.5t-85.5 27.5q-77 0 -128 -61t-51 -156q0 -72 36 -115.5t99 -43.5z" />
    <glyph glyph-name="acircumflex" unicode="&#xe2;" horiz-adv-x="564" 
d="M359 642l-84 -96l-55 -2l110 146h68l77 -146l-56 2zM490 87q-4 -38 26 -38q7 0 15 2l-2 -51q-15 -5 -38 -5q-32 0 -48.5 17t-11.5 53l5 40h-1q-26 -49 -73.5 -79.5t-108.5 -30.5q-83 0 -132.5 56t-49.5 149q0 120 69 196.5t175 76.5q65 0 105.5 -34t50.5 -88h1
q6 58 23 117h43zM269 46q68 0 115.5 49t59.5 109l3 25l5 27l-1 -2q5 39 -6.5 76t-46 64.5t-85.5 27.5t-92 -27.5t-64 -77t-23 -112.5q0 -72 36 -115.5t99 -43.5z" />
    <glyph glyph-name="atilde" unicode="&#xe3;" horiz-adv-x="564" 
d="M250 557h-48v17q0 40 24.5 67.5t62.5 27.5q20 0 39.5 -9.5t32 -20.5t27 -20t25.5 -9q37 0 37 51l-1 13h49v-18q-1 -27 -11 -48t-29.5 -33.5t-46.5 -12.5q-23 0 -46 15t-42.5 29.5t-32.5 14.5q-17 0 -28.5 -12t-11.5 -38v-14zM490 87q-4 -38 26 -38q7 0 15 2l-2 -51
q-15 -5 -38 -5q-32 0 -48.5 17t-11.5 53l5 40h-1q-26 -49 -73.5 -79.5t-108.5 -30.5q-55 0 -96 25.5t-63.5 71.5t-22.5 108q0 120 69 196.5t175 76.5q65 0 105.5 -34t50.5 -88h1q6 58 23 117h43zM269 46q68 0 115.5 49t59.5 109l3 25l5 27l-1 -2q5 39 -6.5 76t-46 64.5
t-85.5 27.5q-77 0 -128 -61t-51 -156q0 -72 36 -115.5t99 -43.5z" />
    <glyph glyph-name="adieresis" unicode="&#xe4;" horiz-adv-x="564" 
d="M268 579q-16 0 -26.5 11t-10.5 26q0 7 2 13t5 11t7.5 9.5t10 7.5t11.5 5t12 2q7 0 13.5 -3t11.5 -8.5t7.5 -12.5t2.5 -15q0 -19 -14 -32.5t-32 -13.5zM441 579q-15 0 -25 11t-10 26q0 19 14 33.5t32 14.5q16 0 26.5 -11t10.5 -27q0 -20 -14 -33.5t-34 -13.5zM490 87
q-4 -38 26 -38q7 0 15 2l-2 -51q-15 -5 -38 -5q-32 0 -48.5 17t-11.5 53l5 40h-1q-26 -49 -73.5 -79.5t-108.5 -30.5q-55 0 -96 25.5t-63.5 71.5t-22.5 108q0 120 69 196.5t175 76.5q65 0 105.5 -34t50.5 -88h1q6 58 23 117h43zM269 46q68 0 115.5 49t59.5 109l3 25l5 27
l-1 -2q5 39 -6.5 76t-46 64.5t-85.5 27.5t-92 -27.5t-64 -77t-23 -112.5q0 -72 36 -115.5t99 -43.5z" />
    <glyph glyph-name="aring" unicode="&#xe5;" horiz-adv-x="564" 
d="M347 538q-30 0 -49.5 20t-19.5 51q0 24 12.5 44.5t32.5 32t44 11.5q29 0 48.5 -20t19.5 -51q0 -37 -26 -62.5t-62 -25.5zM361 656q-17 0 -29 -12.5t-12 -31.5q0 -10 3.5 -17.5t11 -12t17.5 -4.5q11 0 20.5 6t15.5 16t6 22q0 15 -9 24.5t-24 9.5zM490 87q-4 -38 26 -38
q7 0 15 2l-2 -51q-15 -5 -38 -5q-32 0 -48.5 17t-11.5 53l5 40h-1q-26 -49 -73.5 -79.5t-108.5 -30.5q-83 0 -132.5 56t-49.5 149q0 120 69 196.5t175 76.5q65 0 105.5 -34t50.5 -88h1q6 58 23 117h43zM269 46q68 0 115.5 49t59.5 109l3 25l5 27l-1 -2q5 39 -6.5 76
t-46 64.5t-85.5 27.5t-92 -27.5t-64 -77t-23 -112.5q0 -72 36 -115.5t99 -43.5z" />
    <glyph glyph-name="ae" unicode="&#xe6;" horiz-adv-x="806" 
d="M629 473q79 0 123.5 -50t44.5 -132q0 -17 -2.5 -34.5t-4.5 -26.5l-3 -9h-342v-16q0 -35 9.5 -64.5t28 -50.5t46.5 -32.5t62 -11.5q84 0 139 61l32 -35q-67 -77 -182 -77q-68 0 -114.5 31.5t-65.5 88.5h-2q-8 -18 -21.5 -36t-37 -38.5t-62 -33t-85.5 -12.5q-64 0 -98.5 29
t-34.5 79q0 85 75.5 121t227.5 38l28 1l5 36q7 57 -21.5 90t-88.5 33q-58 0 -94.5 -29t-36.5 -77q0 -15 2 -20l-58 -10q-2 10 -2 25q0 72 55 117t142 45q57 0 96 -24.5t56 -65.5q33 43 80.5 66.5t103.5 23.5zM623 422q-41 0 -76.5 -19.5t-60.5 -54.5t-35 -82h285q1 12 1 28
q0 59 -30.5 93.5t-83.5 34.5zM210 46q39 0 71.5 13t52 32t30.5 37.5t13 32.5l7 58l-27 -1q-121 -2 -178.5 -26.5t-57.5 -79.5q0 -31 22.5 -48.5t66.5 -17.5z" />
    <glyph glyph-name="ccedilla" unicode="&#xe7;" horiz-adv-x="487" 
d="M475 285l-57 -4q6 16 6 39q0 45 -29 73.5t-79 28.5q-79 0 -131 -61.5t-52 -156.5q0 -72 37.5 -115t105.5 -43q86 0 146 61l31 -38q-67 -71 -176 -74l-15 -28q27 -3 46.5 -20.5t19.5 -48.5q0 -27 -14 -47.5t-37 -30.5t-52 -10q-9 0 -16.5 1t-14 3t-12.5 4t-10 5t-8 5.5
t-6.5 5l-4.5 4.5l-3 3l-1 1l24 36q19 -25 57 -25q24 0 38.5 11.5t14.5 30.5q0 18 -18.5 30.5t-60.5 12.5l31 59q-51 7 -88.5 33.5t-56.5 70t-19 98.5q0 119 72 196.5t179 77.5q74 0 117 -39.5t43 -101.5q0 -12 -2 -23.5t-4 -17.5z" />
    <glyph glyph-name="egrave" unicode="&#xe8;" horiz-adv-x="494" 
d="M360 548l-54 -4l-66 147h79zM317 473q79 0 124 -50t45 -132q0 -17 -2.5 -34.5t-5.5 -26.5l-2 -9h-342q-1 -7 -1 -16q0 -48 17 -83.5t50.5 -55.5t79.5 -20q84 0 139 61l32 -35q-67 -77 -182 -77q-61 0 -106 25.5t-68.5 71.5t-23.5 107q0 120 70.5 197t175.5 77zM312 422
q-41 0 -76.5 -19.5t-60.5 -54.5t-35 -82h284q2 12 2 28q0 59 -30.5 93.5t-83.5 34.5z" />
    <glyph glyph-name="eacute" unicode="&#xe9;" horiz-adv-x="494" 
d="M430 691l-101 -143l-55 -4l77 147h79zM317 473q79 0 124 -50t45 -132q0 -17 -2.5 -34.5t-5.5 -26.5l-2 -9h-342q-1 -7 -1 -16q0 -48 17 -83.5t50.5 -55.5t79.5 -20q84 0 139 61l32 -35q-67 -77 -182 -77q-92 0 -145 55.5t-53 148.5q0 120 70.5 197t175.5 77zM312 422
q-41 0 -76.5 -19.5t-60.5 -54.5t-35 -82h284q2 12 2 28q0 59 -30.5 93.5t-83.5 34.5z" />
    <glyph glyph-name="ecircumflex" unicode="&#xea;" horiz-adv-x="494" 
d="M336 642l-83 -96l-55 -2l110 146h68l76 -146l-55 2zM317 473q79 0 124 -50t45 -132q0 -17 -2.5 -34.5t-5.5 -26.5l-2 -9h-342q-1 -7 -1 -16q0 -48 17 -83.5t50.5 -55.5t79.5 -20q84 0 139 61l32 -35q-67 -77 -182 -77q-61 0 -106 25.5t-68.5 71.5t-23.5 107
q0 120 70.5 197t175.5 77zM312 422q-41 0 -76.5 -19.5t-60.5 -54.5t-35 -82h284q2 12 2 28q0 59 -30.5 93.5t-83.5 34.5z" />
    <glyph glyph-name="edieresis" unicode="&#xeb;" horiz-adv-x="494" 
d="M245 579q-15 0 -25.5 11t-10.5 26q0 13 6.5 24t17.5 17.5t23 6.5q15 0 25.5 -11.5t10.5 -27.5q0 -19 -14 -32.5t-33 -13.5zM419 579q-10 0 -18.5 5t-13 13.5t-4.5 18.5q0 19 14 33.5t33 14.5q16 0 26 -11t10 -27q0 -20 -14 -33.5t-33 -13.5zM317 473q79 0 124 -50
t45 -132q0 -17 -2.5 -34.5t-5.5 -26.5l-2 -9h-342q-1 -7 -1 -16q0 -48 17 -83.5t50.5 -55.5t79.5 -20q84 0 139 61l32 -35q-67 -77 -182 -77q-46 0 -83 14.5t-62.5 41.5t-39 65t-13.5 83q0 120 70.5 197t175.5 77zM312 422q-41 0 -76.5 -19.5t-60.5 -54.5t-35 -82h284
q2 12 2 28q0 59 -30.5 93.5t-83.5 34.5z" />
    <glyph glyph-name="igrave" unicode="&#xec;" horiz-adv-x="216" 
d="M143 544l-66 147h79l40 -143zM193 470l-50 -393q-4 -28 20 -28q8 0 16 2l-3 -51q-18 -5 -39 -5q-66 0 -57 67l52 406z" />
    <glyph glyph-name="iacute" unicode="&#xed;" horiz-adv-x="216" 
d="M197 548l-55 -4l76 147h79zM193 470l-50 -393q-3 -28 20 -28q8 0 16 2l-3 -51q-18 -5 -39 -5q-66 0 -57 67l52 406z" />
    <glyph glyph-name="icircumflex" unicode="&#xee;" horiz-adv-x="216" 
d="M43 544l110 146h68l77 -146l-56 2l-60 96l-84 -96zM193 470l-50 -393q-3 -28 20 -28q8 0 16 2l-3 -51q-18 -5 -39 -5q-66 0 -57 67l52 406z" />
    <glyph glyph-name="idieresis" unicode="&#xef;" horiz-adv-x="216" 
d="M91 579q-16 0 -26.5 11t-10.5 26q0 13 7 24t18 17.5t23 6.5q10 0 18 -5.5t13 -14t5 -19.5q0 -19 -14.5 -32.5t-32.5 -13.5zM264 579q-9 0 -17.5 5t-13 13.5t-4.5 18.5q0 19 14 33.5t32 14.5q11 0 19.5 -5.5t13 -14t4.5 -18.5q0 -20 -14 -33.5t-34 -13.5zM193 470
l-50 -393q-4 -28 20 -28q8 0 16 2l-3 -51q-18 -5 -39 -5q-66 0 -57 67l52 406z" />
    <glyph glyph-name="eth" unicode="&#xf0;" horiz-adv-x="533" 
d="M524 647l-85 -48q76 -102 76 -270q0 -162 -72.5 -248.5t-190.5 -86.5q-81 0 -131.5 51.5t-50.5 136.5q0 116 67.5 185.5t165.5 69.5q68 0 107 -33t47 -74q4 68 -15.5 130t-56.5 109l-89 -50l-17 40l75 43q-51 45 -113 53l41 50q74 -18 128 -72l97 55zM263 46q72 0 122 49
t61 129l1 10q3 65 -35.5 108.5t-104.5 43.5q-49 0 -89 -24t-64 -69.5t-24 -102.5q0 -65 37 -104.5t96 -39.5z" />
    <glyph glyph-name="ntilde" unicode="&#xf1;" horiz-adv-x="548" 
d="M243 557h-48q-1 8 -1 17q0 40 24.5 67.5t62.5 27.5q26 0 49.5 -15t42.5 -29.5t32 -14.5q37 0 37 51l-1 13h49q1 -9 0 -18q-1 -27 -11 -48t-29 -33.5t-46 -12.5q-23 0 -46.5 15t-42.5 29.5t-33 14.5q-17 0 -28.5 -12t-11.5 -38zM502 49q10 0 17 2l-2 -51q-19 -5 -43 -5
q-33 0 -48 20t-11 54l27 218q7 61 -20.5 98t-84.5 37q-68 0 -114.5 -50.5t-56.5 -111.5l-32 -260h-61l59 468l43 2q2 -53 -6 -119h2q26 52 73.5 87t109.5 35q79 0 119 -51t30 -135l-26 -206q-2 -15 5 -23.5t20 -8.5z" />
    <glyph glyph-name="ograve" unicode="&#xf2;" horiz-adv-x="533" 
d="M315 544l-65 147h78l41 -143zM326 473q89 0 141.5 -57t52.5 -151q0 -118 -72 -194t-182 -76q-90 0 -142.5 56t-52.5 149q0 119 72 196t183 77zM272 46q81 0 134 60.5t53 153.5q0 73 -37.5 117.5t-102.5 44.5q-52 0 -95 -28t-67 -77.5t-24 -111.5q0 -72 37.5 -115.5
t101.5 -43.5z" />
    <glyph glyph-name="oacute" unicode="&#xf3;" horiz-adv-x="533" 
d="M339 548l-56 -4l77 147h79zM326 473q89 0 141.5 -57t52.5 -151q0 -118 -72 -194t-182 -76q-90 0 -142.5 56t-52.5 149q0 119 72 196t183 77zM272 46q81 0 134 60.5t53 153.5q0 73 -37.5 117.5t-102.5 44.5q-52 0 -95 -28t-67 -77.5t-24 -111.5q0 -72 37.5 -115.5
t101.5 -43.5z" />
    <glyph glyph-name="ocircumflex" unicode="&#xf4;" horiz-adv-x="533" 
d="M207 544l110 146h68l77 -146l-56 2l-60 96l-84 -96zM326 473q89 0 141.5 -57t52.5 -151q0 -118 -72 -194t-182 -76q-90 0 -142.5 56t-52.5 149q0 119 72 196t183 77zM272 46q81 0 134 60.5t53 153.5q0 36 -10 66t-27.5 51t-44 33t-58.5 12q-80 0 -133 -61.5t-53 -155.5
q0 -72 37.5 -115.5t101.5 -43.5z" />
    <glyph glyph-name="otilde" unicode="&#xf5;" horiz-adv-x="533" 
d="M485 674v-18q-1 -27 -11 -48t-29.5 -33.5t-46.5 -12.5q-23 0 -46 15t-42.5 29.5t-32.5 14.5q-17 0 -28.5 -12t-11.5 -38v-14h-48v17q0 40 24 67.5t63 27.5q25 0 49 -15t42.5 -29.5t32.5 -14.5q37 0 37 51l-2 13h50zM326 473q89 0 141.5 -57t52.5 -151q0 -118 -72 -194
t-182 -76q-90 0 -142.5 56t-52.5 149q0 119 72 196t183 77zM272 46q81 0 134 60.5t53 153.5q0 73 -37.5 117.5t-102.5 44.5q-52 0 -95 -28t-67 -77.5t-24 -111.5q0 -72 37.5 -115.5t101.5 -43.5z" />
    <glyph glyph-name="odieresis" unicode="&#xf6;" horiz-adv-x="533" 
d="M255 579q-16 0 -26.5 11t-10.5 26q0 13 7 24t17.5 17.5t22.5 6.5q16 0 26 -11.5t10 -27.5q0 -12 -6.5 -23t-17 -17t-22.5 -6zM428 579q-10 0 -18 5t-13 13.5t-5 18.5q0 19 14.5 33.5t32.5 14.5q16 0 26 -11t10 -27q0 -13 -6 -24t-17 -17t-24 -6zM326 473q89 0 141.5 -57
t52.5 -151q0 -118 -72 -194t-182 -76q-90 0 -142.5 56t-52.5 149q0 119 72 196t183 77zM272 46q81 0 134 60.5t53 153.5q0 36 -10 66t-27.5 51t-44 33t-58.5 12q-52 0 -95 -28t-67 -77.5t-24 -111.5q0 -72 37.5 -115.5t101.5 -43.5z" />
    <glyph glyph-name="divide" unicode="&#xf7;" horiz-adv-x="463" 
d="M245 431q0 19 14.5 33.5t34.5 14.5q15 0 25.5 -11.5t10.5 -27.5q0 -19 -14.5 -33t-32.5 -14q-11 0 -19.5 5t-13.5 13.5t-5 19.5zM91 222l6 46h337l-6 -46h-337zM193 35q0 19 14.5 33.5t33.5 14.5q16 0 26.5 -11.5t10.5 -27.5q0 -19 -14.5 -33t-33.5 -14q-16 0 -26.5 11
t-10.5 27z" />
    <glyph glyph-name="oslash" unicode="&#xf8;" horiz-adv-x="533" 
d="M460 424q60 -58 60 -159q0 -118 -72 -194t-182 -76q-59 0 -104 25l-35 -48h-49l53 72q-60 56 -60 156q0 119 72 196t183 77q58 0 103 -26l35 48h49zM133 205q0 -69 34 -111l228 307q-33 21 -76 21q-52 0 -95 -28t-67 -77.5t-24 -111.5zM272 46q81 0 134 60.5t53 153.5
q0 71 -35 114l-227 -307q32 -21 75 -21z" />
    <glyph glyph-name="ugrave" unicode="&#xf9;" horiz-adv-x="535" 
d="M361 548l-53 -4l-66 147h79zM462 87q-5 -38 25 -38q9 0 15 2l-2 -51q-15 -5 -37 -5q-32 0 -48.5 17t-11.5 53l4 36h-2q-25 -47 -69 -76.5t-100 -29.5q-79 0 -117.5 50.5t-27.5 134.5l36 288h61l-36 -288q-8 -61 18.5 -97.5t82.5 -36.5q65 0 110 52.5t54 113.5l32 256h61z
" />
    <glyph glyph-name="uacute" unicode="&#xfa;" horiz-adv-x="535" 
d="M432 691l-101 -143l-55 -4l76 147h80zM462 87q-5 -38 25 -38q9 0 15 2l-2 -51q-15 -5 -37 -5q-32 0 -48.5 17t-11.5 53l4 36h-2q-25 -47 -69 -76.5t-100 -29.5q-79 0 -117.5 50.5t-27.5 134.5l36 288h61l-36 -288q-8 -61 18.5 -97.5t82.5 -36.5q65 0 110 52.5t54 113.5
l32 256h61z" />
    <glyph glyph-name="ucircumflex" unicode="&#xfb;" horiz-adv-x="535" 
d="M338 642l-83 -96l-55 -2l110 146h68l76 -146l-55 2zM462 87q-5 -38 25 -38q9 0 15 2l-2 -51q-15 -5 -37 -5q-32 0 -48.5 17t-11.5 53l4 36h-2q-25 -47 -69 -76.5t-100 -29.5q-79 0 -117.5 50.5t-27.5 134.5l36 288h61l-36 -288q-8 -61 18.5 -97.5t82.5 -36.5
q65 0 110 52.5t54 113.5l32 256h61z" />
    <glyph glyph-name="udieresis" unicode="&#xfc;" horiz-adv-x="535" 
d="M247 579q-15 0 -25.5 11t-10.5 26q0 13 6.5 24t17.5 17.5t23 6.5q15 0 25.5 -11.5t10.5 -27.5q0 -19 -14 -32.5t-33 -13.5zM421 579q-10 0 -18.5 5t-13 13.5t-4.5 18.5q0 19 14 33.5t32 14.5q16 0 26.5 -11t10.5 -27q0 -20 -14 -33.5t-33 -13.5zM462 87q-5 -38 25 -38
q9 0 15 2l-2 -51q-15 -5 -37 -5q-32 0 -48.5 17t-11.5 53l4 36h-2q-25 -47 -69 -76.5t-100 -29.5q-79 0 -117.5 50.5t-27.5 134.5l36 288h61l-36 -288q-8 -61 18.5 -97.5t82.5 -36.5q65 0 110 52.5t54 113.5l32 256h61z" />
    <glyph glyph-name="yacute" unicode="&#xfd;" horiz-adv-x="524" 
d="M424 691l-101 -143l-55 -4l77 147h79zM449 468h61l-60 -477q-12 -93 -72 -146.5t-163 -53.5q-92 0 -164 50l34 49q53 -48 137 -48q152 0 171 149l15 112h-1q-26 -48 -70 -78t-101 -30q-79 0 -117.5 50.5t-27.5 134.5l36 288h61l-36 -288q-8 -61 18.5 -97.5t82.5 -36.5
q63 0 107.5 50t55.5 109z" />
    <glyph glyph-name="thorn" unicode="&#xfe;" horiz-adv-x="583" 
d="M359 473q83 0 132 -55.5t49 -148.5q0 -121 -69 -197.5t-175 -76.5q-57 0 -96.5 28.5t-53.5 75.5l-38 -303h-60l113 901h59l-42 -331h1q25 48 71.5 77.5t108.5 29.5zM298 46q79 0 129 61t50 156q0 35 -9 64.5t-26 50.5t-42.5 32.5t-57.5 11.5q-47 0 -86.5 -26t-61 -62
t-28.5 -75l-7 -52q-2 -39 10.5 -74t45.5 -61t83 -26z" />
    <glyph glyph-name="ydieresis" unicode="&#xff;" horiz-adv-x="524" 
d="M239 579q-15 0 -25.5 11t-10.5 26q0 13 6.5 24t17.5 17.5t23 6.5q15 0 25.5 -11.5t10.5 -27.5q0 -19 -14 -32.5t-33 -13.5zM413 579q-10 0 -18.5 5t-13 13.5t-4.5 18.5q0 19 14 33.5t32 14.5q16 0 26.5 -11t10.5 -27q0 -13 -6.5 -24t-17.5 -17t-23 -6zM449 468h61
l-60 -477q-8 -62 -36.5 -106t-79 -69t-119.5 -25q-92 0 -164 50l34 49q53 -48 137 -48q152 0 171 149l15 112h-1q-26 -48 -70 -78t-101 -30q-79 0 -117.5 50.5t-27.5 134.5l36 288h61l-36 -288q-8 -61 18.5 -97.5t82.5 -36.5q63 0 107.5 50t55.5 109z" />
    <glyph glyph-name="Amacron" unicode="&#x100;" horiz-adv-x="576" 
d="M515 756l-6 -46h-256l6 46h256zM492 0l-41 178h-281l-86 -178h-64l317 656h65l154 -656h-64zM195 231h244l-69 299q-6 22 -9 50h-2q-8 -22 -20 -50z" />
    <glyph glyph-name="amacron" unicode="&#x101;" horiz-adv-x="564" 
d="M489 644l-5 -47h-254l6 47h253zM490 87q-4 -38 26 -38q7 0 15 2l-2 -51q-15 -5 -38 -5q-32 0 -48.5 17t-11.5 53l5 40h-1q-17 -32 -43 -56.5t-62 -39t-77 -14.5q-55 0 -96 25.5t-63.5 71.5t-22.5 108q0 120 69 196.5t175 76.5q65 0 105.5 -34t50.5 -88h1q6 58 23 117h43z
M269 46q46 0 85 25t61 60t29 73l3 25l5 27l-1 -2q5 39 -6.5 76t-46 64.5t-85.5 27.5q-77 0 -128 -61t-51 -156q0 -72 36 -115.5t99 -43.5z" />
    <glyph glyph-name="Abreve" unicode="&#x102;" horiz-adv-x="576" 
d="M374 685q-52 0 -78 33t-20 84h48q-5 -33 9.5 -53t44.5 -19q31 0 50 19.5t24 52.5h47q-6 -51 -40 -84t-85 -33zM492 0l-41 178h-281l-86 -178h-65l318 656h65l154 -656h-64zM195 231h244l-69 299q-6 22 -9 50h-2q-8 -22 -20 -50z" />
    <glyph glyph-name="abreve" unicode="&#x103;" horiz-adv-x="564" 
d="M348 543q-57 0 -84.5 37.5t-20.5 99.5h51q-2 -18 -0.5 -32.5t6 -25.5t12 -18.5t18 -11.5t22.5 -4q22 0 39 10.5t28.5 31.5t14.5 50h51q-7 -61 -43.5 -99t-93.5 -38zM490 87q-4 -38 26 -38q7 0 15 2l-2 -51q-15 -5 -38 -5q-32 0 -48.5 17t-11.5 53l5 40h-1
q-17 -32 -43 -56.5t-62 -39t-77 -14.5q-55 0 -96 25.5t-63.5 71.5t-22.5 108q0 120 69 196.5t175 76.5q65 0 105.5 -34t50.5 -88h1q6 58 23 117h43zM269 46q68 0 115.5 49t59.5 109l3 25l5 27l-1 -2q5 39 -6.5 76t-46 64.5t-85.5 27.5t-92 -27.5t-64 -77t-23 -112.5
q0 -72 36 -115.5t99 -43.5z" />
    <glyph glyph-name="Aogonek" unicode="&#x104;" horiz-adv-x="576" 
d="M553 -124l14 -36q-3 -4 -9 -9t-25.5 -13.5t-41.5 -8.5q-35 0 -56 20t-21 53q0 74 77 120l-40 176h-281l-86 -178h-64l317 656h65l154 -656q-3 -1 -9.5 -3.5t-22.5 -11.5t-28 -20t-22 -30t-10 -41q0 -9 2.5 -17t8 -13.5t12.5 -8t16 -2.5q6 0 12 1t11 3t9.5 4.5t7.5 5
t5.5 4.5t3.5 3zM195 231h244l-69 299q-6 22 -9 50h-2q-8 -22 -20 -50z" />
    <glyph glyph-name="aogonek" unicode="&#x105;" horiz-adv-x="564" 
d="M526 -124l14 -36q-4 -3 -10 -8.5t-25.5 -14t-40.5 -8.5q-35 0 -56 20.5t-21 52.5q0 73 74 118q-37 14 -30 65l5 40h-1q-26 -49 -73.5 -79.5t-108.5 -30.5q-83 0 -132.5 56t-49.5 149q0 120 69 196.5t175 76.5q65 0 105.5 -34t50.5 -88q7 58 24 117h43l-48 -381
q-4 -38 26 -38q7 0 15 2l-2 -51q-4 -1 -11 -3.5t-22.5 -12t-27.5 -20.5t-22 -29.5t-10 -40.5q0 -19 11 -30t29 -11q6 0 12 1t10.5 3.5t9 4.5t8 4.5t6 4.5t3.5 4zM269 46q68 0 115.5 49t59.5 109l3 25l5 27l-1 -2q5 39 -6.5 76t-46 64.5t-85.5 27.5t-92 -27.5t-64 -77
t-23 -112.5q0 -72 36 -115.5t99 -43.5z" />
    <glyph glyph-name="Cacute" unicode="&#x106;" horiz-adv-x="604" 
d="M440 690l-55 -4l73 121h81zM414 662q49 0 88 -15t61.5 -38t36 -52t17.5 -55t2 -49l-60 -10q1 17 -1.5 36.5t-12.5 42.5t-26 41.5t-45.5 31t-66.5 12.5q-106 0 -180 -89t-74 -236q0 -112 54.5 -172t143.5 -60q64 0 114 31t82 71l34 -39q-13 -17 -30 -32.5t-47 -37
t-72.5 -35t-88.5 -13.5q-118 0 -186 74.5t-68 206.5q0 172 93 279t232 107z" />
    <glyph glyph-name="cacute" unicode="&#x107;" horiz-adv-x="487" 
d="M335 548l-55 -4l76 147h79zM322 473q49 0 85.5 -18.5t55.5 -50t19 -72.5q0 -12 -2 -23.5t-4 -17.5l-1 -6l-57 -4q6 16 6 39q0 45 -29 73.5t-79 28.5q-79 0 -131 -61.5t-52 -156.5q0 -72 37.5 -115t105.5 -43q86 0 146 61l31 -38q-69 -74 -184 -74q-92 0 -145 55.5
t-53 148.5q0 119 72 196.5t179 77.5z" />
    <glyph glyph-name="Ccircumflex" unicode="&#x108;" horiz-adv-x="604" 
d="M469 812l77 -126l-56 2l-63 76l-80 -76l-56 -2l108 126h70zM414 662q49 0 88 -15t61.5 -38t36 -52t17.5 -55t2 -49l-60 -10q1 17 -1.5 36.5t-12.5 42.5t-26 41.5t-45.5 31t-66.5 12.5q-106 0 -180 -89t-74 -236q0 -112 54.5 -172t143.5 -60q64 0 114 31t82 71l34 -39
q-13 -17 -30 -32.5t-47 -37t-72.5 -35t-88.5 -13.5q-118 0 -186 74.5t-68 206.5q0 172 93 279t232 107z" />
    <glyph glyph-name="ccircumflex" unicode="&#x109;" horiz-adv-x="487" 
d="M203 544l110 146h68l77 -146l-56 2l-60 96l-84 -96zM322 473q49 0 85.5 -18.5t55.5 -50t19 -72.5q0 -12 -2 -23.5t-4 -17.5l-1 -6l-57 -4q6 16 6 39q0 22 -7.5 41t-21 32.5t-34 21t-45.5 7.5q-79 0 -131 -61.5t-52 -156.5q0 -72 37.5 -115t105.5 -43q86 0 146 61l31 -38
q-69 -74 -184 -74q-92 0 -145 55.5t-53 148.5q0 119 72 196.5t179 77.5z" />
    <glyph glyph-name="Cdotaccent" unicode="&#x10a;" horiz-adv-x="604" 
d="M418 698q-12 0 -21 5.5t-14.5 15t-5.5 21.5q0 21 16 36t37 15q17 0 29 -12t12 -30q0 -21 -16 -36t-37 -15zM414 662q49 0 88 -15t61.5 -38t36 -52t17.5 -55t2 -49l-60 -10q1 17 -1.5 36.5t-12.5 42.5t-26 41.5t-45.5 31t-66.5 12.5q-51 0 -97 -23t-81 -64t-55.5 -102.5
t-20.5 -135.5q0 -112 54.5 -172t143.5 -60q64 0 114 31t82 71l34 -39q-13 -17 -30 -32.5t-47 -37t-72.5 -35t-88.5 -13.5q-118 0 -186 74.5t-68 206.5q0 172 93 279t232 107z" />
    <glyph glyph-name="cdotaccent" unicode="&#x10b;" horiz-adv-x="487" 
d="M388 626q0 -14 -7.5 -25.5t-20 -18.5t-26.5 -7q-17 0 -29 12t-12 30q0 21 16.5 36t36.5 15q18 0 30 -12t12 -30zM322 473q74 0 117 -39.5t43 -101.5q0 -12 -2 -23.5t-4 -17.5l-1 -6l-57 -4q6 16 6 39q0 45 -29 73.5t-79 28.5q-79 0 -131 -61.5t-52 -156.5
q0 -72 37.5 -115t105.5 -43q86 0 146 61l31 -38q-69 -74 -184 -74q-92 0 -145 55.5t-53 148.5q0 119 72 196.5t179 77.5z" />
    <glyph glyph-name="Ccaron" unicode="&#x10c;" horiz-adv-x="604" 
d="M308 817l54 -2l63 -75l80 75l57 2l-108 -126h-70zM414 662q49 0 88 -15t61.5 -38t36 -52t17.5 -55t2 -49l-60 -10q1 17 -1.5 36.5t-12.5 42.5t-26 41.5t-45.5 31t-66.5 12.5q-106 0 -180 -89t-74 -236q0 -112 54.5 -172t143.5 -60q64 0 114 31t82 71l34 -39
q-13 -17 -30 -32.5t-47 -37t-72.5 -35t-88.5 -13.5q-118 0 -186 74.5t-68 206.5q0 172 93 279t232 107z" />
    <glyph glyph-name="ccaron" unicode="&#x10d;" horiz-adv-x="487" 
d="M222 690l55 -2l60 -95l84 95l56 2l-111 -146h-68zM322 473q74 0 117 -39.5t43 -101.5q0 -12 -2 -23.5t-4 -17.5l-1 -6l-57 -4q6 16 6 39q0 45 -29 73.5t-79 28.5q-79 0 -131 -61.5t-52 -156.5q0 -72 37.5 -115t105.5 -43q86 0 146 61l31 -38q-69 -74 -184 -74
q-92 0 -145 55.5t-53 148.5q0 119 72 196.5t179 77.5z" />
    <glyph glyph-name="Dcaron" unicode="&#x10e;" horiz-adv-x="628" 
d="M396 689h-69l-77 126l55 -2l62 -75l81 75l57 2zM342 656q88 0 150.5 -33t95.5 -96t33 -149q0 -179 -88.5 -278.5t-238.5 -99.5h-206l82 656h172zM298 54q117 0 188 84.5t71 234.5q0 111 -58 170t-165 59h-108l-69 -548h141z" />
    <glyph glyph-name="dcaron" unicode="&#x10f;" horiz-adv-x="563" 
d="M667 717q18 0 30 -12t12 -33q0 -28 -9 -53.5t-21.5 -42t-25 -29.5t-21.5 -19l-8 -5l-20 33q5 4 13.5 10t23 24t17.5 36q-18 0 -29.5 11.5t-11.5 29.5q0 13 7 24.5t18.5 18.5t24.5 7zM567 704l-77 -617q-4 -38 26 -38q7 0 15 2l-2 -51q-15 -5 -38 -5q-69 0 -60 70l5 41h-2
q-26 -50 -73 -80.5t-109 -30.5q-83 0 -131.5 56t-48.5 149q0 120 69 197t174 77q39 0 70 -13t51 -34.5t30 -49.5l41 327h60zM269 47q49 0 89.5 27.5t61.5 64.5t26 75l6 44q4 38 -8 74.5t-46.5 63t-84.5 26.5q-51 0 -92 -27.5t-64 -77t-23 -111.5q0 -73 36 -116t99 -43z" />
    <glyph glyph-name="Dcroat" unicode="&#x110;" horiz-adv-x="628" 
d="M342 656q132 0 205.5 -73.5t73.5 -204.5q0 -179 -88.5 -278.5t-238.5 -99.5h-206l37 301h-79l6 51h80l38 304h172zM298 54q77 0 135.5 37t91 109.5t32.5 172.5q0 111 -58 170t-165 59h-108l-32 -250h176l-6 -51h-176l-31 -247h141z" />
    <glyph glyph-name="dcroat" unicode="&#x111;" horiz-adv-x="564" 
d="M549 559l-59 -472q-4 -38 26 -38q7 0 15 2l-2 -51q-15 -5 -38 -5q-69 0 -60 70l5 41h-2q-26 -50 -73 -80.5t-109 -30.5q-54 0 -95.5 25.5t-63 71.5t-21.5 108q0 79 31.5 142t87 97.5t124.5 34.5q39 0 70 -13t51 -34.5t31 -49.5l22 182h-140l6 45h140l12 100h60l-12 -100
h57l-5 -45h-58zM269 47q49 0 89.5 27.5t61.5 64.5t26 75l6 43q2 23 -1.5 45.5t-13.5 44t-26.5 38.5t-41.5 27t-56 10q-77 0 -128 -60.5t-51 -155.5q0 -73 36 -116t99 -43z" />
    <glyph glyph-name="Emacron" unicode="&#x112;" horiz-adv-x="517" 
d="M518 756l-6 -46h-256l6 46h256zM542 602h-316l-30 -234h285l-7 -53h-284l-33 -261h316l-7 -54h-378l82 656h379z" />
    <glyph glyph-name="Ebreve" unicode="&#x114;" horiz-adv-x="517" 
d="M377 685q-52 0 -78 33t-20 84h48q-5 -33 9.5 -53t44.5 -19q31 0 50 19.5t24 52.5h47q-6 -51 -40 -84t-85 -33zM542 602h-316l-30 -234h285l-7 -53h-284l-33 -261h316l-7 -54h-378l82 656h379z" />
    <glyph glyph-name="ebreve" unicode="&#x115;" horiz-adv-x="494" 
d="M325 543q-57 0 -84.5 37.5t-20.5 99.5h52q-6 -44 10 -68t48 -24q21 0 38 10.5t28.5 31.5t15.5 50h51q-8 -61 -44.5 -99t-93.5 -38zM317 473q79 0 124 -50t45 -132q0 -17 -2.5 -34.5t-5.5 -26.5l-2 -9h-342q-1 -7 -1 -16q0 -48 17 -83.5t50.5 -55.5t79.5 -20q84 0 139 61
l32 -35q-67 -77 -182 -77q-92 0 -145 55.5t-53 148.5q0 120 70.5 197t175.5 77zM312 422q-41 0 -76.5 -19.5t-60.5 -54.5t-35 -82h284q2 12 2 28q0 59 -30.5 93.5t-83.5 34.5z" />
    <glyph glyph-name="Edotaccent" unicode="&#x116;" horiz-adv-x="517" 
d="M377 698q-11 0 -20.5 5.5t-15 15t-5.5 21.5q0 21 16 36t37 15q17 0 29 -12t12 -30q0 -21 -16 -36t-37 -15zM542 602h-316l-30 -234h285l-7 -53h-284l-33 -261h316l-7 -54h-378l82 656h379z" />
    <glyph glyph-name="edotaccent" unicode="&#x117;" horiz-adv-x="494" 
d="M329 575q-18 0 -29.5 12t-11.5 30q0 21 16 36t36 15q19 0 30.5 -12t11.5 -30q0 -21 -16 -36t-37 -15zM317 473q79 0 124 -50t45 -132q0 -17 -2.5 -34.5t-5.5 -26.5l-2 -9h-342q-1 -7 -1 -16q0 -48 17 -83.5t50.5 -55.5t79.5 -20q84 0 139 61l32 -35q-67 -77 -182 -77
q-61 0 -106 25.5t-68.5 71.5t-23.5 107q0 120 70.5 197t175.5 77zM312 422q-41 0 -76.5 -19.5t-60.5 -54.5t-35 -82h284q2 12 2 28q0 59 -30.5 93.5t-83.5 34.5z" />
    <glyph glyph-name="Eogonek" unicode="&#x118;" horiz-adv-x="517" 
d="M542 602h-316l-30 -234h285l-7 -53h-284l-33 -261h316l-7 -54q-1 -1 -4.5 -2t-13 -5.5t-18.5 -10t-19.5 -14.5t-18.5 -19t-13 -24.5t-5 -30.5q0 -9 2.5 -17t8 -13.5t12.5 -8t16 -2.5q13 0 25.5 5.5t18.5 11.5l7 6l13 -36q-3 -4 -9 -9t-25.5 -13.5t-41.5 -8.5
q-35 0 -56 20t-21 53q0 73 74 118h-310l82 656h379z" />
    <glyph glyph-name="eogonek" unicode="&#x119;" horiz-adv-x="494" 
d="M317 473q79 0 124 -50t45 -132q0 -17 -2.5 -34.5t-5.5 -26.5l-2 -9h-342q-1 -7 -1 -16q0 -48 17 -83.5t50.5 -55.5t79.5 -20q84 0 139 61l32 -35q-39 -44 -96 -64q-67 -35 -67 -94q0 -10 2.5 -17.5t8 -13t12.5 -8.5t16 -3q13 0 25.5 6t18.5 12l6 5l14 -36q-3 -3 -9 -8
t-26 -13.5t-41 -8.5q-35 0 -56 20t-21 53q0 53 42 93h-11q-61 0 -106 25.5t-68.5 71.5t-23.5 107q0 120 70.5 197t175.5 77zM312 422q-41 0 -76.5 -19.5t-60.5 -54.5t-35 -82h284q2 12 2 28q0 59 -30.5 93.5t-83.5 34.5z" />
    <glyph glyph-name="Ecaron" unicode="&#x11a;" horiz-adv-x="517" 
d="M413 691h-69l-77 126l55 -2l62 -75l81 75l57 2zM542 602h-316l-30 -234h285l-7 -53h-284l-33 -261h316l-7 -54h-378l82 656h379z" />
    <glyph glyph-name="ecaron" unicode="&#x11b;" horiz-adv-x="494" 
d="M360 544h-67l-76 146l54 -2l60 -95l84 95l56 2zM317 473q79 0 124 -50t45 -132q0 -17 -2.5 -34.5t-5.5 -26.5l-2 -9h-342q-1 -7 -1 -16q0 -48 17 -83.5t50.5 -55.5t79.5 -20q84 0 139 61l32 -35q-67 -77 -182 -77q-92 0 -145 55.5t-53 148.5q0 120 70.5 197t175.5 77z
M312 422q-41 0 -76.5 -19.5t-60.5 -54.5t-35 -82h284q2 12 2 28q0 59 -30.5 93.5t-83.5 34.5z" />
    <glyph glyph-name="Gcircumflex" unicode="&#x11c;" horiz-adv-x="626" 
d="M424 764l-81 -76l-55 -2l108 126h70l76 -126l-56 2zM619 459l-61 -10q2 16 -0.5 35.5t-12.5 41.5t-26.5 39.5t-46.5 29.5t-68 12q-105 0 -178 -90t-73 -235q0 -106 48.5 -169t135.5 -63q86 0 139.5 50t62.5 114l6 47h-218l6 53h271l-39 -314h-39q-2 35 2 100
q-21 -33 -51 -56.5t-69.5 -36t-85.5 -12.5q-108 0 -170.5 76.5t-62.5 203.5q0 170 92 278.5t230 108.5q50 0 89 -14.5t61.5 -36.5t36.5 -50t18.5 -53.5t2.5 -48.5z" />
    <glyph glyph-name="gcircumflex" unicode="&#x11d;" horiz-adv-x="553" 
d="M354 642l-84 -96l-55 -2l110 146h68l77 -146l-56 2zM495 468h43l-60 -476q-7 -61 -39 -106.5t-84.5 -70t-120.5 -24.5q-111 0 -182 56l34 49q23 -22 64 -38t91 -16t87.5 17t60.5 51t29 81l13 106q-18 -30 -43.5 -52.5t-60.5 -36t-74 -13.5q-55 0 -96 25.5t-63.5 71.5
t-22.5 108q0 120 69 196.5t175 76.5q65 0 105.5 -34t50.5 -88h1q6 58 23 117zM270 46q46 0 85.5 26t61 61.5t28.5 73.5l7 56q2 38 -10 73t-45.5 60.5t-83.5 25.5q-51 0 -92 -27.5t-64 -77t-23 -112.5q0 -72 36.5 -115.5t99.5 -43.5z" />
    <glyph glyph-name="Gbreve" unicode="&#x11e;" horiz-adv-x="626" 
d="M414 685q-52 0 -78 33t-20 84h48q-5 -33 9.5 -53t44.5 -19q31 0 50.5 19.5t23.5 52.5h48q-7 -51 -41 -84t-85 -33zM619 459l-61 -10q2 16 -0.5 35.5t-12.5 41.5t-26.5 39.5t-46.5 29.5t-68 12q-105 0 -178 -90t-73 -235q0 -106 48.5 -169t135.5 -63q86 0 139.5 50
t62.5 114l6 47h-218l6 53h271l-39 -314h-39q-2 35 2 100q-32 -50 -84.5 -77.5t-121.5 -27.5q-108 0 -170.5 76.5t-62.5 203.5q0 170 92 278.5t230 108.5q50 0 89 -14.5t61.5 -36.5t36.5 -50t18.5 -53.5t2.5 -48.5z" />
    <glyph glyph-name="gbreve" unicode="&#x11f;" horiz-adv-x="553" 
d="M343 543q-57 0 -84.5 37.5t-20.5 99.5h51q-5 -44 10.5 -68t47.5 -24q22 0 39 10.5t28.5 31.5t14.5 50h51q-5 -40 -22.5 -70.5t-47 -48.5t-67.5 -18zM495 468h43l-60 -476q-6 -46 -25.5 -83.5t-50.5 -63.5t-74 -40t-94 -14q-111 0 -182 56l34 49q23 -22 64 -38t91 -16
t87.5 17t60.5 51t29 81l13 106q-18 -30 -43.5 -52.5t-60.5 -36t-74 -13.5q-55 0 -96 25.5t-63.5 71.5t-22.5 108q0 120 69 196.5t175 76.5q65 0 105.5 -34t50.5 -88h1q6 58 23 117zM270 46q68 0 116 50.5t59 110.5l7 56q2 38 -10 73t-45.5 60.5t-83.5 25.5q-77 0 -128 -61
t-51 -156q0 -72 36.5 -115.5t99.5 -43.5z" />
    <glyph glyph-name="Gdotaccent" unicode="&#x120;" horiz-adv-x="626" 
d="M414 698q-11 0 -20.5 5.5t-15 15t-5.5 21.5q0 21 16 36t37 15q18 0 29.5 -12t11.5 -30q0 -21 -16 -36t-37 -15zM619 459l-61 -10q2 16 -0.5 35.5t-12.5 41.5t-26.5 40t-46.5 29.5t-68 11.5q-105 0 -178 -90t-73 -235q0 -106 48.5 -169t135.5 -63q86 0 139.5 50t62.5 114
l6 47h-218l6 53h271l-39 -314h-39q-2 35 2 100q-31 -50 -84 -77.5t-122 -27.5q-108 0 -170.5 76.5t-62.5 203.5q0 171 92 279t230 108q50 0 89 -14.5t61.5 -36.5t36.5 -50t18.5 -53.5t2.5 -48.5z" />
    <glyph glyph-name="gdotaccent" unicode="&#x121;" horiz-adv-x="553" 
d="M346 575q-17 0 -29 12t-12 30q0 21 16.5 36t36.5 15q18 0 30 -12t12 -30q0 -21 -16 -36t-38 -15zM495 468h43l-60 -476q-6 -46 -25.5 -83.5t-50.5 -63.5t-74 -40t-94 -14q-111 0 -182 56l34 49q23 -22 64 -38t91 -16t87.5 17t60.5 51t29 81l13 106q-18 -30 -43.5 -52.5
t-60.5 -36t-74 -13.5q-55 0 -96 25.5t-63.5 71.5t-22.5 108q0 120 69 196.5t175 76.5q65 0 105.5 -34t50.5 -88h1q6 58 23 117zM270 46q68 0 116 50.5t59 110.5l7 56q2 38 -10 73t-45.5 60.5t-83.5 25.5q-51 0 -92 -27.5t-64 -77t-23 -112.5q0 -72 36.5 -115.5t99.5 -43.5z
" />
    <glyph glyph-name="Gcommaaccent" unicode="&#x122;" horiz-adv-x="626" 
d="M619 459l-61 -10q2 16 -0.5 35.5t-12.5 41.5t-26.5 39.5t-46.5 29.5t-68 12q-105 0 -178 -90t-73 -235q0 -106 48.5 -169t135.5 -63q86 0 139.5 50t62.5 114l6 47h-218l6 53h271l-39 -314h-39q-2 35 2 100q-31 -50 -84 -77.5t-122 -27.5q-108 0 -170.5 76.5t-62.5 203.5
q0 170 92 278.5t230 108.5q50 0 89 -14.5t61.5 -36.5t36.5 -50t18.5 -53.5t2.5 -48.5zM317 -43q19 0 30.5 -12t11.5 -34q0 -27 -9 -50t-21.5 -37t-25 -24t-21.5 -14l-9 -4l-16 31q6 3 13.5 7.5t22 18.5t16.5 27q-18 0 -29.5 11.5t-11.5 29.5q0 20 15 35t34 15z" />
    <glyph glyph-name="gcommaaccent" unicode="&#x123;" horiz-adv-x="553" 
d="M339 511q-12 0 -21 5.5t-14.5 16t-5.5 24.5q0 27 8.5 50t21 37t25.5 24t21 14l9 4l16 -31q-5 -3 -13 -7.5t-22 -18.5t-16 -27q18 0 29.5 -11.5t11.5 -29.5q0 -20 -15 -35t-35 -15zM495 468h43l-60 -476q-6 -46 -25.5 -83.5t-50.5 -63.5t-74 -40t-94 -14q-111 0 -182 56
l34 49q23 -22 64 -38t91 -16t87.5 17t60.5 51t29 81l13 106q-18 -30 -43.5 -52.5t-60.5 -36t-74 -13.5q-55 0 -96 25.5t-63.5 71.5t-22.5 108q0 120 69 196.5t175 76.5q65 0 105.5 -34t50.5 -88h1q6 58 23 117zM270 46q68 0 116 50.5t59 110.5l7 56q2 38 -10 73t-45.5 60.5
t-83.5 25.5q-51 0 -92 -27.5t-64 -77t-23 -112.5q0 -72 36.5 -115.5t99.5 -43.5z" />
    <glyph glyph-name="Hcircumflex" unicode="&#x124;" horiz-adv-x="669" 
d="M437 764l-81 -76l-55 -2l107 126h70l77 -126l-56 2zM601 656h63l-82 -656h-63l40 315h-369l-40 -315h-62l82 656h62l-36 -288h369z" />
    <glyph glyph-name="Hbar" unicode="&#x126;" horiz-adv-x="669" 
d="M701 568l-7 -51h-47l-65 -517h-63l40 315h-369l-40 -315h-62l64 517h-57l7 51h57l11 88h62l-11 -88h369l11 88h63l-11 -88h48zM565 368l19 149h-369l-19 -149h369z" />
    <glyph glyph-name="hbar" unicode="&#x127;" horiz-adv-x="548" 
d="M502 49q11 0 18 2l-3 -51q-18 -5 -43 -5q-32 0 -47.5 20t-10.5 54l26 218q4 30 -1.5 55t-18.5 42.5t-34.5 27.5t-49.5 10q-45 0 -82.5 -24.5t-59 -58.5t-28.5 -72l-34 -267h-61l70 559h-57l6 45h57l13 102h59l-13 -102h141l-5 -45h-141l-25 -194h1q17 31 41.5 54.5
t59.5 38.5t75 15q79 0 118.5 -51t29.5 -135l-25 -206q-2 -15 4.5 -23.5t19.5 -8.5z" />
    <glyph glyph-name="Itilde" unicode="&#x128;" horiz-adv-x="238" 
d="M353 790l-1 -18q-1 -42 -23.5 -68t-60.5 -26q-24 0 -48 14.5t-43.5 29.5t-33.5 15q-17 0 -27.5 -12t-10.5 -35l1 -14h-48q-1 8 -1 17q0 42 24.5 66.5t62.5 24.5q26 0 49.5 -14.5t42 -29.5t31.5 -15q38 0 38 51l-1 14h49zM88 0l82 656h62l-82 -656h-62z" />
    <glyph glyph-name="itilde" unicode="&#x129;" horiz-adv-x="216" 
d="M321 674v-18q-1 -27 -11 -48t-29.5 -33.5t-46.5 -12.5q-23 0 -46 15t-42.5 29.5t-32.5 14.5q-17 0 -28.5 -12t-11.5 -38v-14h-48v17q0 40 24.5 67.5t62.5 27.5q20 0 39.5 -9.5t32 -20.5t27 -20t25.5 -9q37 0 37 51l-1 13h49zM193 470l-50 -393q-4 -28 20 -28q8 0 16 2
l-3 -51q-18 -5 -39 -5q-66 0 -57 67l52 406z" />
    <glyph glyph-name="Imacron" unicode="&#x12a;" horiz-adv-x="238" 
d="M86 710l5 46h256l-6 -46h-255zM88 0l82 656h62l-82 -656h-62z" />
    <glyph glyph-name="imacron" unicode="&#x12b;" horiz-adv-x="216" 
d="M53 597l6 47h253l-5 -47h-254zM193 470l-50 -393q-4 -28 20 -28q8 0 16 2l-3 -51q-18 -5 -39 -5q-66 0 -57 67l52 406z" />
    <glyph glyph-name="Ibreve" unicode="&#x12c;" horiz-adv-x="238" 
d="M332 802q-7 -51 -41 -84t-85 -33q-52 0 -78 33t-20 84h48q-3 -22 2.5 -38.5t19 -25t32.5 -8.5q31 0 50.5 19.5t23.5 52.5h48zM88 0l82 656h62l-82 -656h-62z" />
    <glyph glyph-name="ibreve" unicode="&#x12d;" horiz-adv-x="216" 
d="M308 680q-7 -61 -43.5 -99t-93.5 -38t-84.5 37.5t-20.5 99.5h51q-5 -44 10.5 -68t47.5 -24q22 0 39 10.5t28.5 31.5t14.5 50h51zM193 470l-50 -393q-4 -28 20 -28q8 0 16 2l-3 -51q-18 -5 -39 -5q-66 0 -57 67l52 406z" />
    <glyph glyph-name="Iogonek" unicode="&#x12e;" horiz-adv-x="238" 
d="M97 -147q13 0 25.5 5.5t18.5 11.5l6 6l14 -36l-3.5 -3.5t-9.5 -7.5t-15.5 -9t-21 -7.5t-26.5 -3.5q-23 0 -40.5 9t-27 26t-9.5 38q0 76 80 121l82 653h62l-82 -656q-3 -1 -9.5 -3.5t-22.5 -11.5t-28 -20t-22 -30t-10 -41q0 -13 4.5 -22t13.5 -14t21 -5z" />
    <glyph glyph-name="iogonek" unicode="&#x12f;" horiz-adv-x="215" 
d="M188 668q19 0 30.5 -12t11.5 -30q0 -21 -16 -36t-37 -15q-18 0 -29.5 12t-11.5 30q0 21 16 36t36 15zM193 470l-50 -393q-4 -28 20 -28q8 0 16 2l-3 -51q-4 -2 -10 -4t-22 -11.5t-28 -20.5t-22 -30t-10 -40q0 -19 10.5 -30.5t28.5 -11.5q13 0 25.5 6t18.5 12l6 5l14 -36
q-1 -1 -3.5 -3t-9.5 -7.5t-15.5 -9.5t-21.5 -7t-26 -3q-35 0 -56 20t-21 53q0 72 74 118q-34 13 -28 62l52 406z" />
    <glyph glyph-name="Idotaccent" unicode="&#x130;" horiz-adv-x="238" 
d="M206 698q-11 0 -20.5 5.5t-15 15t-5.5 21.5q0 21 16 36t37 15q18 0 29.5 -12t11.5 -30q0 -21 -16 -36t-37 -15zM88 0l82 656h62l-82 -656h-62z" />
    <glyph glyph-name="IJ" unicode="&#x132;" horiz-adv-x="663" 
d="M88 0l82 656h62l-82 -656h-62zM299 106q45 -56 107 -56q117 0 133 127l60 479h63l-60 -475q-12 -93 -65 -139.5t-137 -46.5q-90 0 -145 64z" />
    <glyph glyph-name="ij" unicode="&#x133;" horiz-adv-x="415" 
d="M230 626q0 -14 -7 -25.5t-19.5 -18.5t-26.5 -7q-18 0 -29.5 12t-11.5 30q0 21 16 36t36 15q19 0 30.5 -12t11.5 -30zM437 626q0 -21 -16 -36t-37 -15q-18 0 -29.5 12t-11.5 30q0 21 15.5 36t37.5 15q17 0 29 -12t12 -30zM193 470l-50 -393q-4 -28 20 -28q8 0 16 2l-3 -51
q-18 -5 -39 -5q-66 0 -57 67l52 406zM116 -139q20 -17 57 -17q45 0 69 26t30 81l65 517l61 2l-63 -509q-21 -169 -164 -169q-25 0 -44.5 6.5t-26.5 13.5l-8 6z" />
    <glyph glyph-name="Jcircumflex" unicode="&#x134;" horiz-adv-x="425" 
d="M447 812l77 -126l-56 2l-63 76l-81 -76l-55 -2l108 126h70zM61 106q45 -56 108 -56q116 0 132 127l60 479h63l-60 -475q-12 -93 -65 -139.5t-137 -46.5q-90 0 -145 64z" />
    <glyph glyph-name="jcircumflex" unicode="&#x135;" horiz-adv-x="217" 
d="M54 558l110 146h70l74 -146l-55 2l-60 95l-83 -95zM-82 -139q20 -17 57 -17q45 0 69 26t31 81l65 517l61 2l-64 -509q-21 -169 -164 -169q-24 0 -44 6.5t-27 13.5l-8 6z" />
    <glyph glyph-name="Kcommaaccent" unicode="&#x136;" horiz-adv-x="609" 
d="M602 1q-1 0 -7.5 -1t-16 -1.5t-18.5 -0.5q-38 0 -65.5 22t-41 54.5t-28.5 70.5t-27.5 71t-37 54.5t-58.5 21.5h-114l-37 -292h-63l82 656h63l-39 -311h110q26 0 52.5 8.5t55.5 31t52.5 56.5t42.5 89.5t28 125.5h63q-33 -264 -205 -336q27 -12 47.5 -45t33.5 -70.5
t26.5 -73.5t33.5 -59.5t48 -23.5h25zM261 -93q0 20 15.5 35t34.5 15q18 0 29.5 -12t11.5 -34q0 -27 -8.5 -50t-21 -37t-25 -24t-21.5 -14l-9 -4l-16 31q5 3 13 7.5t22 18.5t16 27q-18 0 -29.5 11.5t-11.5 29.5z" />
    <glyph glyph-name="kcommaaccent" unicode="&#x137;" horiz-adv-x="522" 
d="M489 428q-9 -68 -41 -119.5t-87 -75.5l114 -233h-72l-103 216q-17 -2 -35 -2h-104l-27 -214h-61l89 706h60l-55 -442h94q72 0 119.5 48t49.5 133q1 4 1 12v11h61q-1 -3 -1 -6v-6t-0.5 -6.5t-0.5 -6.5t-0.5 -7t-0.5 -8zM247 -43q18 0 29.5 -12t11.5 -34q0 -27 -8.5 -50
t-21 -37t-25 -24t-21.5 -14l-9 -4l-16 31q5 3 13 7.5t22 18.5t16 27q-18 0 -29.5 11.5t-11.5 29.5q0 20 15 35t35 15z" />
    <glyph glyph-name="kgreenlandic" unicode="&#x138;" horiz-adv-x="465" 
d="M502 468l-228 -235l188 -233h-77l-165 209h-60l-26 -209h-61l59 468h60l-26 -209h65l200 209h71z" />
    <glyph glyph-name="Lacute" unicode="&#x139;" horiz-adv-x="485" 
d="M330 807l-99 -117l-55 -4l74 121h80zM157 54h322l-6 -54h-385l82 656h62z" />
    <glyph glyph-name="lacute" unicode="&#x13a;" horiz-adv-x="210" 
d="M224 786l-55 -4l76 147h80zM75 0l88 706h61l-89 -706h-60z" />
    <glyph glyph-name="Lcommaaccent" unicode="&#x13b;" horiz-adv-x="485" 
d="M157 54h322l-6 -54h-385l82 656h62zM288 -43q19 0 30.5 -12t11.5 -34q0 -27 -9 -50t-21.5 -37t-25 -24t-21.5 -14l-9 -4l-16 31q2 1 5.5 3t11.5 7.5t14.5 11.5t12.5 14.5t8 16.5q-18 0 -29.5 11.5t-11.5 29.5q0 20 15 35t34 15z" />
    <glyph glyph-name="lcommaaccent" unicode="&#x13c;" horiz-adv-x="210" 
d="M75 0l88 706h61l-89 -706h-60zM48 -93q0 20 15.5 35t34.5 15t30 -12t11 -34q0 -27 -8.5 -50t-21 -37t-25 -24t-21.5 -14l-9 -4l-16 31q5 3 13 7.5t22 18.5t16 27q-11 0 -20.5 5.5t-15 14.5t-5.5 21z" />
    <glyph glyph-name="Lcaron" unicode="&#x13d;" horiz-adv-x="485" 
d="M393 536q5 4 13.5 10t23.5 24t17 36q-18 0 -29.5 11.5t-11.5 29.5q0 20 15 35t35 15q18 0 29.5 -12t11.5 -33q0 -20 -4.5 -39.5t-12 -33.5t-16.5 -27t-18 -22t-16.5 -15t-12.5 -9l-5 -3zM232 656l-75 -602h322l-6 -54h-385l82 656h62z" />
    <glyph glyph-name="lcaron" unicode="&#x13e;" horiz-adv-x="221" 
d="M271 667q0 20 15.5 35t34.5 15q18 0 30 -12t12 -33q0 -20 -5 -39.5t-12.5 -33.5t-16.5 -27t-18 -22t-16.5 -15t-12.5 -9l-4 -4l-20 34q6 4 14 10t23 24t17 36q-18 0 -29.5 11.5t-11.5 29.5zM75 0l88 706h61l-89 -706h-60z" />
    <glyph glyph-name="Ldot" unicode="&#x13f;" horiz-adv-x="485" 
d="M157 54h322l-6 -54h-385l82 656h62zM344 256q-17 0 -28.5 11.5t-11.5 28.5q0 21 15.5 36t36.5 15q11 0 20 -5.5t14 -15t5 -20.5q0 -20 -15.5 -35t-35.5 -15z" />
    <glyph glyph-name="ldot" unicode="&#x140;" horiz-adv-x="273" 
d="M75 0l88 706h61l-89 -706h-60zM333 354q0 -21 -16 -35.5t-38 -14.5q-17 0 -28.5 12t-11.5 30q0 21 15.5 36t36.5 15q18 0 30 -12.5t12 -30.5z" />
    <glyph glyph-name="Lslash" unicode="&#x141;" horiz-adv-x="485" 
d="M157 54h322l-6 -54h-385l31 251l-84 -48l-18 41l109 61l44 351h62l-39 -312l153 86l19 -40l-179 -101z" />
    <glyph glyph-name="lslash" unicode="&#x142;" horiz-adv-x="275" 
d="M310 416l-95 -54l-46 -362h-60l41 326l-69 -39l-17 41l92 52l41 326h61l-37 -290l71 40z" />
    <glyph glyph-name="Nacute" unicode="&#x143;" horiz-adv-x="654" 
d="M435 690l-55 -4l74 121h80zM649 656l-82 -656h-72l-232 476q-25 53 -42 97l-5 -2q3 -13 -6 -89l-59 -482h-63l82 656h71l232 -479q15 -33 42 -96l4 2q3 52 7 90l60 483h63z" />
    <glyph glyph-name="nacute" unicode="&#x144;" horiz-adv-x="548" 
d="M445 691l-101 -143l-55 -4l77 147h79zM502 49q10 0 17 2l-2 -51q-19 -5 -43 -5q-33 0 -48 20t-11 54l27 218q7 61 -20.5 98t-84.5 37q-68 0 -114.5 -50.5t-56.5 -111.5l-32 -260h-61l59 468l43 2q2 -53 -6 -119h2q26 52 73.5 87t109.5 35q79 0 119 -51t30 -135l-26 -206
q-1 -10 1.5 -17.5t8.5 -11t15 -3.5z" />
    <glyph glyph-name="Ncommaaccent" unicode="&#x145;" horiz-adv-x="654" 
d="M649 656l-82 -656h-72l-232 476q-25 53 -42 97l-5 -2q3 -13 -6 -89l-59 -482h-63l82 656h71l232 -479q15 -33 42 -96l4 2q3 52 7 90l60 483h63zM271 -93q0 20 15 35t34 15t30.5 -12t11.5 -34q0 -27 -9 -50t-21.5 -37t-25 -24t-21.5 -14l-9 -4l-16 31q6 3 13.5 7.5
t22 18.5t16.5 27q-18 0 -29.5 11.5t-11.5 29.5z" />
    <glyph glyph-name="Ncaron" unicode="&#x147;" horiz-adv-x="654" 
d="M303 817l54 -2l63 -75l81 75l57 2l-109 -126h-69zM649 656l-82 -656h-72l-232 476q-25 53 -42 97l-5 -2q3 -13 -6 -89l-59 -482h-63l82 656h71l232 -479q15 -33 42 -96l4 2q3 52 7 90l60 483h63z" />
    <glyph glyph-name="ncaron" unicode="&#x148;" horiz-adv-x="548" 
d="M375 544h-67l-76 146l54 -2l60 -95l84 95l56 2zM502 49q10 0 17 2l-3 -51q-18 -5 -42 -5q-33 0 -48 20t-11 54l27 218q7 61 -20.5 98t-84.5 37q-68 0 -114.5 -50.5t-56.5 -111.5l-32 -260h-61l59 468l43 2q2 -53 -6 -119h2q26 52 73.5 87t109.5 35q79 0 119 -51t30 -135
l-26 -206q-1 -10 1.5 -17.5t8.5 -11t15 -3.5z" />
    <glyph glyph-name="Eng" unicode="&#x14a;" horiz-adv-x="689" 
d="M586 656h63l-89 -708q-7 -59 -33 -101t-65.5 -62.5t-88.5 -20.5q-25 0 -47 6t-36 15t-24 17.5t-14 14.5l-5 7l45 44q3 -6 9.5 -14t29.5 -22t49 -14q48 0 78.5 32t37.5 94l8 56h-9l-232 476q-25 53 -42 97l-5 -2q3 -13 -6 -89l-59 -482h-63l82 656h71l232 -479
q15 -33 42 -96l4 2q3 52 7 90z" />
    <glyph glyph-name="eng" unicode="&#x14b;" horiz-adv-x="547" 
d="M354 473q79 0 119 -51.5t30 -134.5l-41 -326q-20 -169 -164 -169q-24 0 -44 6.5t-27 13.5l-8 6l24 43q20 -17 57 -17q45 0 69 26t31 81l41 336q8 61 -19.5 98t-84.5 37q-68 0 -115.5 -52t-55.5 -112l-32 -258h-61l59 468l43 2q2 -53 -6 -119h2q25 53 72.5 87.5
t110.5 34.5z" />
    <glyph glyph-name="Omacron" unicode="&#x14c;" horiz-adv-x="677" 
d="M304 710l6 46h256l-6 -46h-256zM422 662q113 0 181 -76.5t68 -207.5q0 -86 -26 -158.5t-71 -121.5t-106 -76t-130 -27q-113 0 -181 76.5t-68 206.5q0 87 26 159.5t71 121.5t106 76t130 27zM345 50q73 0 132.5 39.5t95 113.5t35.5 169q0 108 -53 171.5t-141 63.5
q-72 0 -131.5 -39.5t-95 -113.5t-35.5 -170q0 -71 24 -124t68 -81.5t101 -28.5z" />
    <glyph glyph-name="omacron" unicode="&#x14d;" horiz-adv-x="533" 
d="M217 597l6 47h253l-5 -47h-254zM326 473q89 0 141.5 -57t52.5 -151q0 -118 -72 -194t-182 -76q-90 0 -142.5 56t-52.5 149q0 119 72 196t183 77zM272 46q81 0 134 60.5t53 153.5q0 36 -10 66t-27.5 51t-44 33t-58.5 12q-52 0 -95 -28t-67 -77.5t-24 -111.5
q0 -72 37.5 -115.5t101.5 -43.5z" />
    <glyph glyph-name="Obreve" unicode="&#x14e;" horiz-adv-x="677" 
d="M551 802q-3 -25 -13.5 -46t-26.5 -37t-38 -25t-48 -9q-52 0 -78 33t-20 84h48q-5 -33 9.5 -53t44.5 -19q31 0 50.5 19.5t23.5 52.5h48zM422 662q113 0 181 -76.5t68 -207.5q0 -86 -26 -158.5t-71 -121.5t-106 -76t-130 -27q-113 0 -181 76.5t-68 206.5q0 87 26 159.5
t71 121.5t106 76t130 27zM345 50q111 0 187 89.5t76 232.5q0 108 -53 171.5t-141 63.5q-72 0 -131.5 -39.5t-95 -113.5t-35.5 -170q0 -71 24 -124t67.5 -81.5t101.5 -28.5z" />
    <glyph glyph-name="obreve" unicode="&#x14f;" horiz-adv-x="533" 
d="M472 680q-5 -40 -22.5 -70.5t-47 -48.5t-67.5 -18q-57 0 -85 37.5t-20 99.5h51q-5 -44 10.5 -68t47.5 -24q22 0 39 10.5t28.5 31.5t14.5 50h51zM326 473q89 0 141.5 -57t52.5 -151q0 -118 -72 -194t-182 -76q-90 0 -142.5 56t-52.5 149q0 119 72 196t183 77zM272 46
q81 0 134 60.5t53 153.5q0 36 -10 66t-27.5 51t-44 33t-58.5 12q-80 0 -133 -61.5t-53 -155.5q0 -72 37.5 -115.5t101.5 -43.5z" />
    <glyph glyph-name="Ohungarumlaut" unicode="&#x150;" horiz-adv-x="677" 
d="M362 690l-54 -4l74 121h79zM511 690l-54 -4l74 121h79zM422 662q113 0 181 -76.5t68 -207.5q0 -86 -26 -158.5t-71 -121.5t-106 -76t-130 -27q-113 0 -181 76.5t-68 206.5q0 87 26 159.5t71 121.5t106 76t130 27zM345 50q73 0 132.5 39.5t95 113.5t35.5 169
q0 108 -53 171.5t-141 63.5q-72 0 -131.5 -39.5t-95 -113.5t-35.5 -170q0 -71 24 -124t68 -81.5t101 -28.5z" />
    <glyph glyph-name="ohungarumlaut" unicode="&#x151;" horiz-adv-x="533" 
d="M289 548l-53 -4l76 147h80zM426 548l-53 -4l76 147h79zM326 473q89 0 141.5 -57t52.5 -151q0 -118 -72 -194t-182 -76q-90 0 -142.5 56t-52.5 149q0 119 72 196t183 77zM272 46q81 0 134 60.5t53 153.5q0 36 -10 66t-27.5 51t-44 33t-58.5 12q-80 0 -133 -61.5
t-53 -155.5q0 -72 37.5 -115.5t101.5 -43.5z" />
    <glyph glyph-name="OE" unicode="&#x152;" horiz-adv-x="1000" 
d="M1026 602h-317l-29 -234h284l-7 -53h-284l-33 -261h316l-6 -54h-379l14 111q-46 -56 -109.5 -86t-137.5 -30q-113 0 -181 76.5t-68 206.5q0 87 26 159.5t71 121.5t106 76t130 27q48 0 90 -15t73.5 -44t52.5 -69l15 122h379zM345 50q72 0 132 39.5t95.5 113.5t35.5 169
q0 108 -53 171.5t-141 63.5q-72 0 -131.5 -39.5t-95 -113.5t-35.5 -170q0 -107 53 -170.5t140 -63.5z" />
    <glyph glyph-name="oe" unicode="&#x153;" horiz-adv-x="879" 
d="M702 473q79 0 124 -50t45 -132q0 -17 -2.5 -34.5t-5.5 -26.5l-2 -9h-342q-1 -7 -1 -16q0 -48 17 -83.5t50.5 -55.5t79.5 -20q84 0 139 61l32 -35q-67 -77 -182 -77q-65 0 -111 28.5t-69 79.5q-34 -51 -88 -79.5t-120 -28.5q-90 0 -142.5 56t-52.5 149q0 119 72 196
t183 77q25 0 48 -5t42 -14t35.5 -22.5t29 -30.5t21.5 -38q33 52 85.5 81t114.5 29zM272 46q81 0 134 60.5t53 153.5q0 73 -37.5 117.5t-101.5 44.5q-53 0 -95.5 -28t-66.5 -77.5t-24 -111.5q0 -72 37 -115.5t101 -43.5zM696 422q-62 0 -109 -42.5t-62 -113.5h284q2 12 2 28
q0 59 -31 93.5t-84 34.5z" />
    <glyph glyph-name="Racute" unicode="&#x154;" horiz-adv-x="566" 
d="M475 807l-99 -117l-55 -4l74 121h80zM538 46l15 2l-1 -50q-17 -3 -38 -3q-28 0 -49.5 11.5t-34 30t-23 42t-17.5 48.5t-18 49t-24 42.5t-36 30t-54 11.5h-75l-33 -260h-62l82 656h184q94 0 145.5 -44t51.5 -128q0 -83 -48.5 -138.5t-128.5 -75.5q24 -11 41.5 -38
t28 -57.5t21.5 -60t29 -49t44 -19.5zM189 310h111q80 0 133.5 44t53.5 122q0 60 -37 93t-105 33h-119z" />
    <glyph glyph-name="racute" unicode="&#x155;" horiz-adv-x="315" 
d="M349 691l-100 -143l-55 -4l76 147h79zM313 473q26 0 50 -7l-22 -60q-14 8 -39 8q-31 0 -60.5 -22t-49.5 -57.5t-26 -74.5l-32 -260h-61l59 468l43 2q2 -53 -6 -119h2q21 53 57.5 87.5t84.5 34.5z" />
    <glyph glyph-name="Rcommaaccent" unicode="&#x156;" horiz-adv-x="566" 
d="M538 46l15 2l-1 -50q-17 -3 -38 -3q-28 0 -49.5 11.5t-34 30t-23 42t-17.5 48.5t-18 49t-24 42.5t-36 30t-54 11.5h-75l-33 -260h-62l82 656h184q94 0 145.5 -44t51.5 -128q0 -83 -48.5 -138.5t-128.5 -75.5q24 -11 41.5 -38t28 -57.5t21.5 -60t29 -49t44 -19.5zM189 310
h111q80 0 133.5 44t53.5 122q0 60 -37 93t-105 33h-119zM293 -43q18 0 29.5 -12t11.5 -34q0 -27 -8.5 -50t-21 -37t-25 -24t-21.5 -14l-9 -4l-16 31q5 3 13 7.5t22 18.5t16 27q-18 0 -29.5 11.5t-11.5 29.5q0 13 7.5 25t18.5 18.5t24 6.5z" />
    <glyph glyph-name="rcommaaccent" unicode="&#x157;" horiz-adv-x="315" 
d="M313 473q26 0 50 -7l-22 -60q-14 8 -39 8q-31 0 -60.5 -22t-49.5 -57.5t-26 -74.5l-32 -260h-61l59 468l43 2q2 -53 -6 -119h2q21 53 57.5 87.5t84.5 34.5zM101 -43q12 0 21.5 -5.5t14.5 -16t5 -24.5q0 -27 -8.5 -50t-21 -37t-25 -24t-21.5 -14l-9 -4l-16 31q5 3 13 7.5
t22 18.5t16 27q-18 0 -29 11.5t-11 29.5q0 13 7 25t18.5 18.5t23.5 6.5z" />
    <glyph glyph-name="Rcaron" unicode="&#x158;" horiz-adv-x="566" 
d="M390 691h-69l-77 126l55 -2l62 -75l81 75l57 2zM538 46l15 2l-1 -50q-17 -3 -38 -3q-28 0 -49.5 11.5t-34 30t-23 42t-17.5 48.5t-18 49t-24 42.5t-36 30t-54 11.5h-75l-33 -260h-62l82 656h184q94 0 145.5 -44t51.5 -128q0 -83 -48.5 -138.5t-128.5 -75.5
q24 -11 41.5 -38t28 -57.5t21.5 -60t29 -49t44 -19.5zM189 310h111q80 0 133.5 44t53.5 122q0 60 -37 93t-105 33h-119z" />
    <glyph glyph-name="rcaron" unicode="&#x159;" horiz-adv-x="315" 
d="M280 544h-67l-76 146l54 -2l60 -95l84 95l56 2zM171 351q21 53 57.5 87.5t84.5 34.5q26 0 50 -7l-22 -60q-14 8 -39 8q-47 0 -86.5 -47t-49.5 -107l-32 -260h-61l59 468l43 2q2 -53 -6 -119h2z" />
    <glyph glyph-name="Sacute" unicode="&#x15a;" horiz-adv-x="526" 
d="M360 690l-54 -4l73 121h81zM474 499q-1 15 -8.5 31.5t-22 34.5t-42.5 30t-64 12q-44 0 -78.5 -15.5t-54.5 -45t-20 -67.5q0 -30 17.5 -51.5t45.5 -34t61.5 -24t67.5 -25t62 -32t45.5 -50t17.5 -74.5q0 -88 -66 -140.5t-174 -52.5q-77 0 -132 23t-85 53l45 49
q69 -70 179 -70q77 0 123.5 35.5t46.5 93.5q0 27 -11 48t-29.5 34.5t-42 24.5t-50 19.5t-53 18t-50.5 22t-42.5 28.5t-29 41t-10.5 56q0 85 62.5 138t160.5 53q36 0 66 -7.5t49.5 -20.5t34 -28t23 -33t13 -31.5t7.5 -27.5z" />
    <glyph glyph-name="sacute" unicode="&#x15b;" horiz-adv-x="438" 
d="M289 548l-55 -4l76 147h79zM363 310q7 14 7 34q0 24 -12.5 42t-35 27t-51.5 9q-35 0 -60.5 -11t-39 -31t-13.5 -46q0 -29 25.5 -46.5t63 -26t74.5 -19t63 -36.5t26 -68q0 -66 -53 -104.5t-140 -38.5q-110 0 -175 69l42 40q6 -6 15.5 -14t26.5 -19t43 -18t55 -7
q58 0 91 23.5t33 62.5q0 24 -19 40t-47 23.5t-60.5 18t-60.5 21.5t-46.5 35t-18.5 58q0 31 13.5 58t37.5 46t58 30t73 11q68 0 109 -31.5t41 -83.5q0 -7 -1 -13.5t-2 -11.5t-2 -9.5t-2 -6.5l-1 -2z" />
    <glyph glyph-name="Scircumflex" unicode="&#x15c;" horiz-adv-x="526" 
d="M390 812l77 -126l-56 2l-63 76l-81 -76l-55 -2l108 126h70zM474 499q-1 15 -8.5 31.5t-22 34.5t-42.5 30t-64 12q-44 0 -78.5 -15.5t-54.5 -45t-20 -67.5q0 -30 17.5 -51.5t45.5 -34t61.5 -24t67.5 -25t62 -32t45.5 -50t17.5 -74.5q0 -88 -66 -140.5t-174 -52.5
q-77 0 -132 23t-85 53l45 49q69 -70 179 -70q77 0 123.5 35.5t46.5 93.5q0 27 -11 48t-29.5 34.5t-42 24.5t-50 19.5t-53 18t-50.5 22t-42.5 28.5t-29 41t-10.5 56q0 85 62.5 138t160.5 53q31 0 57.5 -6t45 -15t34 -22.5t24.5 -26.5t16 -28.5t10.5 -26.5t5.5 -23z" />
    <glyph glyph-name="scircumflex" unicode="&#x15d;" horiz-adv-x="438" 
d="M157 544l110 146h68l77 -146l-56 2l-60 96l-84 -96zM363 310q7 14 7 34q0 24 -12.5 42t-35 27t-51.5 9q-35 0 -60.5 -11t-39.5 -31t-14 -46q0 -29 26 -46.5t63.5 -26t74.5 -19t63 -36.5t26 -68q0 -66 -53 -104.5t-140 -38.5q-111 0 -175 69l42 40q6 -6 15.5 -14t26.5 -19
t43 -18t55 -7q58 0 91 23.5t33 62.5q0 24 -19 40t-47 23.5t-60.5 18t-60.5 21.5t-46.5 35t-18.5 58q0 31 13.5 58t37.5 46t58 30t73 11q68 0 109 -31.5t41 -83.5q0 -7 -1 -13.5t-2 -11.5t-2 -9.5t-2 -6.5l-1 -2z" />
    <glyph glyph-name="Scedilla" unicode="&#x15e;" horiz-adv-x="526" 
d="M184 479q0 -30 17.5 -51.5t45.5 -34t61.5 -24t67.5 -25t62 -32t45.5 -50t17.5 -74.5q0 -84 -59.5 -135.5t-159.5 -57.5l-15 -28q27 -3 46.5 -20.5t19.5 -48.5q0 -27 -14 -47.5t-37 -30.5t-52 -10q-23 0 -42 8t-26 16l-8 8l24 36q19 -25 57 -25q24 0 38.5 11.5t14.5 30.5
q0 11 -6.5 20t-25 16t-47.5 7l30 57q-68 4 -118 26t-77 50l45 49q69 -70 179 -70q77 0 123.5 35.5t46.5 93.5q0 27 -11 48t-29.5 34.5t-42 24.5t-50 19.5t-53 18t-50.5 22t-42.5 28.5t-29 41t-10.5 56q0 85 62.5 138t160.5 53q27 0 51 -4.5t41.5 -12t32.5 -17.5t25 -22.5
t17.5 -24t12.5 -24.5t8 -23t5 -20l-62 -15q-1 15 -8.5 31.5t-22 34.5t-42.5 30t-64 12q-44 0 -78.5 -15.5t-54.5 -45t-20 -67.5z" />
    <glyph glyph-name="scedilla" unicode="&#x15f;" horiz-adv-x="438" 
d="M420 315l-57 -4q7 13 7 33q0 37 -27 57.5t-72 20.5q-35 0 -60.5 -11t-39 -31t-13.5 -46q0 -29 25.5 -46.5t63 -26t74.5 -19t63 -36.5t26 -68q0 -62 -46.5 -100t-124.5 -43l-15 -28q27 -3 46.5 -20.5t19.5 -48.5q0 -27 -14 -47.5t-37 -30.5t-52 -10q-23 0 -42 8t-26 16
l-8 8l23 36q20 -25 57 -25q25 0 39.5 11.5t14.5 30.5q0 18 -18.5 30.5t-60.5 12.5l30 57q-96 6 -154 69l42 40q8 -10 22 -21t47 -24t71 -13q58 0 91 23.5t33 62.5q0 24 -19 40t-47 23.5t-60.5 18t-60.5 21.5t-46.5 35t-18.5 58q0 31 13.5 58t37.5 46t58 30t73 11
q68 0 109 -31.5t41 -83.5q0 -7 -1 -13.5t-2 -11.5t-2 -9.5t-2 -6.5z" />
    <glyph glyph-name="Scaron" unicode="&#x160;" horiz-adv-x="526" 
d="M229 817l54 -2l63 -75l80 75l57 2l-108 -126h-70zM474 499q-1 15 -8.5 31.5t-22 34.5t-42.5 30t-64 12q-44 0 -78.5 -15.5t-54.5 -45t-20 -67.5q0 -30 17.5 -51.5t45.5 -34t61.5 -24t67.5 -25t62 -32t45.5 -50t17.5 -74.5q0 -88 -66 -140.5t-174 -52.5q-77 0 -132 23
t-85 53l45 49q69 -70 179 -70q77 0 123.5 35.5t46.5 93.5q0 27 -11 48t-29.5 34.5t-42 24.5t-50 19.5t-53 18t-50.5 22t-42.5 28.5t-29 41t-10.5 56q0 85 62.5 138t160.5 53q27 0 51 -4.5t41.5 -12t32.5 -17.5t25 -22.5t17.5 -24t12.5 -24.5t8 -23t5 -20z" />
    <glyph glyph-name="scaron" unicode="&#x161;" horiz-adv-x="438" 
d="M176 690l55 -2l59 -95l85 95l56 2l-111 -146h-68zM363 310q7 15 7 34q0 24 -12.5 42t-35 27t-51.5 9q-52 0 -83 -24.5t-31 -63.5q0 -29 26 -46.5t63.5 -26t74.5 -19t63 -36.5t26 -68q0 -44 -24.5 -76.5t-68 -49.5t-100.5 -17q-110 0 -175 69l42 40q8 -10 22 -21t47 -24
t71 -13q58 0 91 23.5t33 62.5q0 24 -19 40t-47 23.5t-60.5 18t-60.5 21.5t-46.5 35t-18.5 58q0 31 13.5 58t37.5 46t58 30t73 11q68 0 109 -31.5t41 -83.5q0 -7 -1 -13.5t-2 -11.5t-2 -9.5t-2 -6.5l-1 -2z" />
    <glyph glyph-name="uni0162" unicode="&#x162;" horiz-adv-x="507" 
d="M95 656h481l-6 -54h-210l-76 -602h-11l-18 -33q27 -3 46.5 -20.5t19.5 -48.5q0 -27 -14 -47.5t-37 -30.5t-52 -10q-23 0 -42 8t-26 16l-8 8l24 36q20 -25 57 -25q24 0 38.5 11.5t14.5 30.5q0 18 -18.5 30.5t-59.5 12.5l32 62h-9l76 602h-209z" />
    <glyph glyph-name="uni0163" unicode="&#x163;" horiz-adv-x="369" 
d="M213 418l-31 -253q-8 -60 10.5 -89t67.5 -29q15 0 29.5 3t25.5 7t19 8.5t13 7.5l4 3l13 -49q-2 -1 -5.5 -3t-15.5 -8t-24.5 -10t-32 -8t-39.5 -4h-7l-14 -27q26 -3 46 -20.5t20 -48.5q0 -40 -29.5 -64t-73.5 -24q-23 0 -42 8t-26 16l-8 8l23 36q20 -25 57 -25
q24 0 39 11.5t15 30.5q0 18 -18.5 30.5t-60.5 12.5l32 61q-97 23 -79 164l31 255h-72l6 50h73l18 142l60 4l-18 -146h180l-6 -50h-180z" />
    <glyph glyph-name="Tcaron" unicode="&#x164;" horiz-adv-x="507" 
d="M231 817l54 -2l63 -75l81 75l56 2l-108 -126h-70zM221 0l76 602h-209l7 54h481l-6 -54h-210l-76 -602h-63z" />
    <glyph glyph-name="tcaron" unicode="&#x165;" horiz-adv-x="369" 
d="M300 543q5 2 12.5 5.5t21.5 16t16 25.5q-18 0 -29.5 11.5t-11.5 28.5q0 21 15 35.5t35 14.5q18 0 29.5 -12t11.5 -33q0 -27 -8.5 -49.5t-21 -35.5t-25 -22.5t-21.5 -12.5l-8 -3zM237 614l-18 -146h180l-6 -50h-180l-31 -253q-8 -60 10.5 -89t67.5 -29q15 0 29.5 3t25.5 7
t19 8.5t13 7.5l4 3l13 -49q-5 -3 -15 -8.5t-40.5 -15t-61.5 -9.5q-77 0 -107 42.5t-19 126.5l31 255h-72l6 50h73l18 142z" />
    <glyph glyph-name="Tbar" unicode="&#x166;" horiz-adv-x="507" 
d="M570 602h-210l-29 -229h127l-6 -51h-127l-41 -322h-63l41 322h-129l6 51h129l29 229h-209l7 54h481z" />
    <glyph glyph-name="tbar" unicode="&#x167;" horiz-adv-x="369" 
d="M393 418h-180l-18 -141h135l-6 -45h-134l-8 -67q-8 -60 10.5 -89t67.5 -29q15 0 29.5 3t25.5 7t19 8.5t13 7.5l4 3l13 -49q-1 -1 -5 -3l-16 -8t-24.5 -10t-32 -8t-39.5 -4q-77 0 -107 42.5t-19 126.5l8 69h-62l5 45h63l17 141h-72l6 50h73l18 142l60 4l-18 -146h180z" />
    <glyph glyph-name="Utilde" unicode="&#x168;" horiz-adv-x="647" 
d="M572 790l-1 -18q-1 -42 -23.5 -68t-60.5 -26q-24 0 -48 14.5t-43.5 29.5t-33.5 15q-17 0 -27.5 -12t-10.5 -35l1 -14h-48q-2 8 -2 17q0 42 24.5 66.5t63.5 24.5q26 0 49.5 -14.5t42 -29.5t31.5 -15q37 0 37 51v14h49zM585 656h62l-49 -397q-16 -123 -90 -193.5
t-185 -70.5t-168 70.5t-41 193.5l49 397h63l-49 -395q-8 -68 8 -115.5t53 -71.5t92 -24q83 0 137.5 54.5t67.5 154.5z" />
    <glyph glyph-name="utilde" unicode="&#x169;" horiz-adv-x="535" 
d="M230 557h-48q-1 8 -1 17q0 40 24.5 67.5t62.5 27.5q26 0 49.5 -15t42.5 -29.5t32 -14.5q37 0 37 51l-1 13h49v-18q-1 -27 -11 -48t-29.5 -33.5t-45.5 -12.5q-24 0 -47 15t-42 29.5t-33 14.5q-17 0 -28.5 -12t-11.5 -38zM462 87q-5 -38 25 -38q9 0 15 2l-2 -51
q-15 -5 -37 -5q-32 0 -48.5 17t-11.5 53l4 36h-2q-25 -47 -69 -76.5t-100 -29.5q-79 0 -117.5 50.5t-27.5 134.5l36 288h61l-36 -288q-8 -61 18.5 -97.5t82.5 -36.5q65 0 110 52.5t54 113.5l32 256h61z" />
    <glyph glyph-name="Umacron" unicode="&#x16a;" horiz-adv-x="647" 
d="M290 710l5 46h256l-5 -46h-256zM585 656h62l-49 -397q-16 -123 -90 -193.5t-185 -70.5t-168 70.5t-41 193.5l49 397h63l-49 -395q-8 -68 8 -115.5t53 -71.5t92 -24q83 0 137.5 54.5t67.5 154.5z" />
    <glyph glyph-name="umacron" unicode="&#x16b;" horiz-adv-x="535" 
d="M469 644l-6 -47h-253l5 47h254zM462 87q-5 -38 25 -38q9 0 15 2l-2 -51q-15 -5 -37 -5q-32 0 -48.5 17t-11.5 53l4 36h-2q-25 -47 -69 -76.5t-100 -29.5q-79 0 -117.5 50.5t-27.5 134.5l36 288h61l-36 -288q-8 -61 18.5 -97.5t82.5 -36.5q65 0 110 52.5t54 113.5l32 256
h61z" />
    <glyph glyph-name="Ubreve" unicode="&#x16c;" horiz-adv-x="647" 
d="M536 802q-6 -51 -40 -84t-86 -33q-51 0 -77.5 33t-19.5 84h47q-3 -22 2.5 -38.5t19 -25t33.5 -8.5q30 0 49.5 19.5t24.5 52.5h47zM585 656h62l-49 -397q-16 -123 -90 -193.5t-185 -70.5t-168 70.5t-41 193.5l49 397h63l-49 -395q-12 -101 29 -156t124 -55t137.5 54.5
t67.5 154.5z" />
    <glyph glyph-name="ubreve" unicode="&#x16d;" horiz-adv-x="535" 
d="M327 543q-57 0 -84.5 37.5t-20.5 99.5h52q-3 -22 -0.5 -39.5t10.5 -29t20 -17.5t28 -6q21 0 38 10.5t28.5 31.5t14.5 50h51q-7 -61 -43.5 -99t-93.5 -38zM462 87q-5 -38 25 -38q9 0 15 2l-2 -51q-15 -5 -37 -5q-32 0 -48.5 17t-11.5 53l4 36h-2q-25 -47 -69 -76.5
t-100 -29.5q-79 0 -117.5 50.5t-27.5 134.5l36 288h61l-36 -288q-8 -61 18.5 -97.5t82.5 -36.5q65 0 110 52.5t54 113.5l32 256h61z" />
    <glyph glyph-name="Uring" unicode="&#x16e;" horiz-adv-x="647" 
d="M409 675q-19 0 -33.5 8.5t-23 24t-8.5 33.5q0 35 25 59t58 24q28 0 46 -19t18 -47q0 -34 -24.5 -58.5t-57.5 -24.5zM453 754q0 14 -8.5 23.5t-21.5 9.5q-11 0 -20 -5.5t-14.5 -15t-5.5 -21.5q0 -15 8 -24t22 -9q16 0 28 12t12 30zM585 656h62l-49 -397
q-16 -123 -90 -193.5t-185 -70.5t-168 70.5t-41 193.5l49 397h63l-49 -395q-8 -68 8 -115.5t53 -71.5t92 -24q83 0 137.5 54.5t67.5 154.5z" />
    <glyph glyph-name="uring" unicode="&#x16f;" horiz-adv-x="535" 
d="M326 538q-15 0 -27.5 5.5t-21.5 15t-14.5 22.5t-5.5 28q0 37 26.5 62.5t62.5 25.5q29 0 48.5 -20t19.5 -51q0 -37 -26 -62.5t-62 -25.5zM341 656q-18 0 -30 -12.5t-12 -31.5q0 -10 4 -17.5t11 -12t17 -4.5q11 0 21 6t15.5 16t5.5 22q0 15 -9 24.5t-23 9.5zM462 87
q-5 -38 25 -38q9 0 15 2l-2 -51q-15 -5 -37 -5q-32 0 -48.5 17t-11.5 53l4 36h-2q-25 -47 -69 -76.5t-100 -29.5q-79 0 -117.5 50.5t-27.5 134.5l36 288h61l-36 -288q-8 -61 18.5 -97.5t82.5 -36.5q65 0 110 52.5t54 113.5l32 256h61z" />
    <glyph glyph-name="Uhungarumlaut" unicode="&#x170;" horiz-adv-x="647" 
d="M348 690l-54 -4l73 121h79zM497 690l-54 -4l74 121h79zM585 656h62l-49 -397q-16 -123 -90 -193.5t-185 -70.5t-168 70.5t-41 193.5l49 397h63l-49 -395q-12 -101 29 -156t124 -55t137.5 54.5t67.5 154.5z" />
    <glyph glyph-name="uhungarumlaut" unicode="&#x171;" horiz-adv-x="535" 
d="M384 691l-102 -143l-54 -4l77 147h79zM418 548l-53 -4l77 147h78zM510 468l-48 -381q-5 -38 25 -38q9 0 15 2l-2 -51q-15 -5 -37 -5q-32 0 -48.5 17t-11.5 53l4 36h-2q-25 -47 -69 -76.5t-100 -29.5q-79 0 -117.5 50.5t-27.5 134.5l36 288h61l-36 -288q-8 -61 18.5 -97.5
t82.5 -36.5q65 0 110 52.5t54 113.5l32 256h61z" />
    <glyph glyph-name="Uogonek" unicode="&#x172;" horiz-adv-x="647" 
d="M585 656h62l-49 -397q-13 -98 -64 -164t-130 -89q-12 -5 -23.5 -12.5t-26 -19.5t-23.5 -30.5t-9 -39.5q0 -13 5 -22t14 -14t21 -5q13 0 25.5 5.5t18.5 11.5l6 6l14 -36q-3 -4 -9 -9t-26 -13.5t-41 -8.5q-35 0 -56 20t-21 53q0 61 52 103h-2q-111 0 -168 70.5t-41 193.5
l49 397h63l-49 -395q-12 -101 29 -156t124 -55t137.5 54.5t67.5 154.5z" />
    <glyph glyph-name="uogonek" unicode="&#x173;" horiz-adv-x="535" 
d="M497 -124l14 -36q-2 -1 -4 -3t-9.5 -7.5t-15.5 -9.5t-21 -7.5t-26 -3.5q-35 0 -56 20.5t-21 52.5q0 73 74 118q-36 15 -29 65l4 36h-3q-24 -47 -68 -76.5t-100 -29.5q-79 0 -117.5 50.5t-27.5 134.5l36 288h61l-36 -288q-8 -61 18.5 -97.5t82.5 -36.5q65 0 110 52.5
t54 113.5l32 256h61l-48 -381q-5 -38 25 -38q9 0 15 2l-2 -51q-3 -1 -6.5 -2t-13 -6t-18.5 -10t-19 -14.5t-18 -19.5t-13 -24t-5 -30q0 -9 3 -17t8 -13t12.5 -8t16.5 -3q13 0 25.5 5.5t18.5 11.5z" />
    <glyph glyph-name="Wcircumflex" unicode="&#x174;" horiz-adv-x="850" 
d="M564 812l77 -126l-56 2l-63 76l-80 -76l-56 -2l108 126h70zM847 656h62l-263 -656h-70l-72 497q-6 44 -6 73h-2q-12 -41 -24 -73l-199 -497h-70l-98 656h65l71 -530q4 -34 6 -56h2q8 24 20 56l210 530h59l77 -530q2 -15 6 -56h2q4 11 20 56z" />
    <glyph glyph-name="wcircumflex" unicode="&#x175;" horiz-adv-x="699" 
d="M431 642l-84 -96l-55 -2l110 146h68l77 -146l-56 2zM671 468h62l-196 -468h-74l-57 356q-4 21 -4 34h-2q-6 -20 -12 -34l-149 -356h-73l-84 468h66l57 -370l2 -10t1.5 -9t1.5 -7.5t1.5 -6.5t0.5 -4h2q9 25 14 37l152 370h62l59 -368q1 -7 2 -15.5t1.5 -15.5t0.5 -8h2
l15 39z" />
    <glyph glyph-name="Ycircumflex" unicode="&#x176;" horiz-adv-x="545" 
d="M370 764l-81 -76l-55 -2l108 126h70l76 -126l-56 2zM608 656l-272 -405l-31 -251h-63l31 248l-172 408h69l121 -288q16 -40 20 -67h2q9 28 35 67l195 288h65z" />
    <glyph glyph-name="ycircumflex" unicode="&#x177;" horiz-adv-x="524" 
d="M330 642l-83 -96l-55 -2l110 146h68l76 -146l-55 2zM449 468h61l-60 -477q-12 -93 -72 -146.5t-163 -53.5q-92 0 -164 50l34 49q53 -48 137 -48q152 0 171 149l15 112h-1q-26 -48 -70 -78t-101 -30q-79 0 -117.5 50.5t-27.5 134.5l36 288h61l-36 -288q-8 -61 18.5 -97.5
t82.5 -36.5q63 0 107.5 50t55.5 109z" />
    <glyph glyph-name="Ydieresis" unicode="&#x178;" horiz-adv-x="545" 
d="M277 705q-15 0 -25.5 10.5t-10.5 26.5q0 12 7 23t17.5 17t22.5 6q15 0 25 -11t10 -26q0 -12 -6.5 -23t-17 -17t-22.5 -6zM451 705q-15 0 -25.5 10.5t-10.5 26.5q0 12 7 23t17.5 17t22.5 6q15 0 25 -11t10 -26q0 -19 -13.5 -32.5t-32.5 -13.5zM608 656l-272 -405l-31 -251
h-63l31 248l-172 408h69l121 -288q16 -40 20 -67h2q9 28 35 67l195 288h65z" />
    <glyph glyph-name="Zacute" unicode="&#x179;" horiz-adv-x="526" 
d="M372 690l-55 -4l74 121h80zM33 0l6 54l418 507q17 21 37 41l-1 3q-22 -3 -58 -3h-317l6 54h450l-6 -54l-416 -507q-15 -19 -39 -41l2 -2q10 2 58 2h320l-6 -54h-454z" />
    <glyph glyph-name="zacute" unicode="&#x17a;" horiz-adv-x="425" 
d="M294 548l-56 -4l77 147h79zM35 0l6 50l308 347q5 5 11 12t9 9l-1 2q-7 -2 -30 -2h-245l6 50h345l-6 -50l-298 -338q-14 -16 -28 -30v-2q8 2 34 2h251l-7 -50h-355z" />
    <glyph glyph-name="Zdotaccent" unicode="&#x17b;" horiz-adv-x="526" 
d="M350 698q-11 0 -20.5 5.5t-15 15t-5.5 21.5q0 21 16 36t37 15q18 0 29.5 -12t11.5 -30q0 -21 -16 -36t-37 -15zM33 0l6 54l418 507q17 21 37 41l-1 3q-22 -3 -58 -3h-317l6 54h450l-6 -54l-415 -507q-16 -19 -40 -41l2 -2q10 2 58 2h320l-6 -54h-454z" />
    <glyph glyph-name="zdotaccent" unicode="&#x17c;" horiz-adv-x="425" 
d="M347 626q0 -14 -7.5 -25.5t-20 -18.5t-26.5 -7q-17 0 -29 12t-12 30q0 21 16 36t37 15q18 0 30 -12t12 -30zM35 0l6 50l308 347q5 5 11 12t9 9l-1 2q-7 -2 -30 -2h-245l6 50h345l-6 -50l-298 -338q-14 -16 -28 -30v-2q8 2 34 2h250l-6 -50h-355z" />
    <glyph glyph-name="Zcaron" unicode="&#x17d;" horiz-adv-x="526" 
d="M240 817l55 -2l62 -75l81 75l57 2l-109 -126h-69zM33 0l6 54l418 507q17 21 37 41l-1 3q-22 -3 -58 -3h-317l6 54h450l-6 -54l-416 -507q-15 -19 -39 -41l2 -2q10 2 58 2h320l-6 -54h-454z" />
    <glyph glyph-name="zcaron" unicode="&#x17e;" horiz-adv-x="425" 
d="M181 690l54 -2l60 -95l84 95l57 2l-111 -146h-68zM35 0l6 50l308 347q5 5 11 12t9 9l-1 2q-7 -2 -30 -2h-245l6 50h345l-6 -50l-298 -338q-14 -16 -28 -30v-2q8 2 34 2h250l-6 -50h-355z" />
    <glyph glyph-name="uni01EA" unicode="&#x1ea;" horiz-adv-x="677" 
d="M400 1q-12 -5 -23.5 -12t-26.5 -19.5t-24 -31t-9 -40.5q0 -13 4.5 -22t13.5 -14t21 -5q13 0 25.5 5.5t18.5 11.5l6 6l14 -36l-3.5 -3.5t-9.5 -7.5t-15.5 -9t-21 -7.5t-26.5 -3.5q-35 0 -56 20t-21 53q0 65 61 109q-109 4 -174 80t-65 203q0 87 26 159.5t71 121.5t106 76
t130 27q74 0 130.5 -34t87.5 -98.5t31 -151.5q0 -152 -75.5 -253.5t-195.5 -123.5zM152 284q0 -107 53 -170.5t140 -63.5q111 0 187 89.5t76 232.5q0 108 -53 171.5t-141 63.5q-72 0 -131.5 -39.5t-95 -113.5t-35.5 -170z" />
    <glyph glyph-name="uni01EB" unicode="&#x1eb;" horiz-adv-x="533" 
d="M343 6q-11 -5 -22.5 -11.5t-27 -19t-25.5 -31.5t-10 -41q0 -10 3 -17.5t8 -13t12.5 -8t16.5 -2.5q13 0 25.5 5.5t18.5 11.5l6 6l14 -36q-1 -2 -3.5 -4t-10 -7t-15.5 -9t-21 -7.5t-26 -3.5q-35 0 -56 20t-21 53q0 61 54 104q-89 1 -140.5 57t-51.5 148q0 119 72 196
t183 77q89 0 141.5 -57t52.5 -151q0 -95 -48 -165t-129 -94zM133 205q0 -72 37.5 -115.5t101.5 -43.5q53 0 95.5 27.5t67 76.5t24.5 110q0 73 -37.5 117.5t-102.5 44.5q-52 0 -95 -28t-67 -77.5t-24 -111.5z" />
    <glyph glyph-name="AEacute" unicode="&#x1fc;" horiz-adv-x="946" 
d="M728 807l-99 -117l-55 -4l73 121h81zM925 602h-317l-29 -234h284l-7 -53h-284l-33 -261h316l-6 -54h-379l22 178h-282l-151 -178h-66l556 656h382zM254 231h245l42 339z" />
    <glyph glyph-name="aeacute" unicode="&#x1fd;" horiz-adv-x="806" 
d="M564 691l-100 -143l-55 -4l76 147h79zM629 473q79 0 123.5 -50t44.5 -132q0 -17 -2.5 -34.5t-4.5 -26.5l-3 -9h-342v-16q0 -35 9.5 -64.5t28 -50.5t46.5 -32.5t62 -11.5q84 0 139 61l32 -35q-67 -77 -182 -77q-68 0 -114.5 31.5t-65.5 88.5h-2q-8 -18 -21.5 -36
t-37 -38.5t-62 -33t-85.5 -12.5q-64 0 -98.5 29t-34.5 79q0 85 75.5 121t227.5 38l28 1l5 36q7 57 -21.5 90t-88.5 33q-58 0 -94.5 -29t-36.5 -77q0 -15 2 -20l-58 -10q-2 10 -2 25q0 72 55 117t142 45q57 0 96 -24.5t56 -65.5q33 43 80.5 66.5t103.5 23.5zM623 422
q-41 0 -76.5 -19.5t-60.5 -54.5t-35 -82h285q1 12 1 28q0 39 -13.5 68t-39.5 44.5t-61 15.5zM210 46q39 0 71.5 13t52 32t30.5 37.5t13 32.5l7 58l-27 -1q-80 -1 -131 -11.5t-78 -34t-27 -60.5q0 -31 22.5 -48.5t66.5 -17.5z" />
    <glyph glyph-name="Oslashacute" unicode="&#x1fe;" horiz-adv-x="677" 
d="M538 806l-99 -117l-55 -4l73 121h81zM686 688l-80 -106q65 -76 65 -204q0 -86 -26 -158.5t-71 -121.5t-106 -76t-130 -27q-84 0 -145 44l-63 -83h-64l90 117q-67 77 -67 205q0 87 26 159.5t71 121.5t106 76t130 27q86 0 147 -45l54 71h63zM152 284q0 -96 44 -158l335 441
q-48 40 -117 40q-72 0 -131.5 -39.5t-95 -113.5t-35.5 -170zM608 372q0 95 -42 157l-336 -441q48 -38 115 -38q111 0 187 89.5t76 232.5z" />
    <glyph glyph-name="oslashacute" unicode="&#x1ff;" horiz-adv-x="533" 
d="M440 691l-101 -143l-55 -4l77 147h79zM460 424q60 -58 60 -159q0 -118 -72 -194t-182 -76q-59 0 -104 25l-35 -48h-49l53 72q-60 56 -60 156q0 119 72 196t183 77q58 0 103 -26l35 48h49zM133 205q0 -69 34 -111l228 307q-33 21 -76 21q-52 0 -95 -28t-67 -77.5
t-24 -111.5zM272 46q81 0 134 60.5t53 153.5q0 71 -35 114l-227 -307q32 -21 75 -21z" />
    <glyph glyph-name="Scommaaccent" unicode="&#x218;" horiz-adv-x="526" 
d="M474 499q-1 15 -8.5 31.5t-22 34.5t-42.5 30t-64 12q-44 0 -78.5 -15.5t-54.5 -45t-20 -67.5q0 -30 17.5 -51.5t45.5 -34t61.5 -24t67.5 -25t62 -32t45.5 -50t17.5 -74.5q0 -88 -66 -140.5t-174 -52.5q-77 0 -132 23t-85 53l45 49q69 -70 179 -70q77 0 123.5 35.5
t46.5 93.5q0 27 -11 48t-29.5 34.5t-42 24.5t-50 19.5t-53 18t-50.5 22t-42.5 28.5t-29 41t-10.5 56q0 85 62.5 138t160.5 53q36 0 66 -7.5t49.5 -20.5t34 -28t23 -33t13 -31.5t7.5 -27.5zM207 -93q0 20 15.5 35t34.5 15q18 0 29.5 -12t11.5 -34q0 -27 -8.5 -50t-21 -37
t-25 -24t-21.5 -14l-9 -4l-16 31q5 3 13 7.5t22 18.5t16 27q-18 0 -29.5 11.5t-11.5 29.5z" />
    <glyph glyph-name="scommaaccent" unicode="&#x219;" horiz-adv-x="438" 
d="M363 310q7 14 7 34q0 24 -12.5 42t-35 27t-51.5 9q-52 0 -83 -24.5t-31 -63.5q0 -29 26 -46.5t63.5 -26t74.5 -19t63 -36.5t26 -68q0 -44 -24.5 -76.5t-68 -49.5t-100.5 -17q-110 0 -175 69l42 40q6 -6 15.5 -14t26.5 -19t43 -18t55 -7q58 0 91 23.5t33 62.5q0 24 -19 40
t-47 23.5t-60.5 18t-60.5 21.5t-46.5 35t-18.5 58q0 31 13.5 58t37.5 46t58 30t73 11q68 0 109 -31.5t41 -83.5q0 -7 -1 -13.5t-2 -11.5t-2 -9.5t-2 -6.5l-1 -2zM164 -93q0 13 7 25t18.5 18.5t24.5 6.5q18 0 29.5 -12t11.5 -34q0 -27 -8.5 -50t-21 -37t-25 -24t-21.5 -14
l-9 -4l-16 31q2 1 5 3t11.5 7.5t15 11.5t12.5 14.5t7 16.5q-18 0 -29.5 11.5t-11.5 29.5z" />
    <glyph glyph-name="uni021A" unicode="&#x21a;" horiz-adv-x="507" 
d="M221 0l76 602h-209l7 54h481l-6 -54h-210l-76 -602h-63zM195 -93q0 20 15.5 35t34.5 15q18 0 29.5 -12t11.5 -34q0 -27 -8.5 -50t-21 -37t-25 -24t-21.5 -14l-9 -4l-16 31q5 3 13 7.5t22 18.5t16 27q-18 0 -29.5 11.5t-11.5 29.5z" />
    <glyph glyph-name="uni021B" unicode="&#x21b;" horiz-adv-x="369" 
d="M213 418l-31 -253q-8 -60 10.5 -89t67.5 -29q15 0 29.5 3t25.5 7t19 8.5t13 7.5l4 3l13 -49q-2 -1 -5.5 -3t-15.5 -8t-24.5 -10t-32 -8t-39.5 -4q-77 0 -107 42.5t-19 126.5l31 255h-72l6 50h73l18 142l60 4l-18 -146h180l-6 -50h-180zM216 -43q18 0 29.5 -12t11.5 -34
q0 -27 -8.5 -50t-21.5 -37t-25.5 -24t-20.5 -14l-9 -4l-16 31q5 3 13 7.5t22 18.5t16 27q-18 0 -29.5 11.5t-11.5 29.5q0 20 15 35t35 15z" />
    <glyph glyph-name="uni0237" unicode="&#x237;" horiz-adv-x="217" 
d="M-82 -139q20 -17 57 -17q45 0 69 26t31 81l65 517l61 2l-64 -509q-21 -169 -164 -169q-24 0 -44 6.5t-27 13.5l-8 6z" />
    <glyph glyph-name="circumflex" unicode="&#x2c6;" horiz-adv-x="319" 
d="M100 544l111 146h68l76 -146l-56 2l-60 96l-84 -96z" />
    <glyph glyph-name="caron" unicode="&#x2c7;" horiz-adv-x="311" 
d="M119 690l54 -2l60 -95l84 95l56 2l-111 -146h-67z" />
    <glyph glyph-name="breve" unicode="&#x2d8;" horiz-adv-x="296" 
d="M354 680q-3 -30 -14.5 -55t-28.5 -43t-41.5 -28.5t-52.5 -10.5q-57 0 -85 37.5t-20 99.5h51q-5 -44 10.5 -68t47.5 -24q22 0 39 10.5t28.5 31.5t14.5 50h51z" />
    <glyph glyph-name="dotaccent" unicode="&#x2d9;" horiz-adv-x="180" 
d="M215 626q0 -14 -7.5 -25.5t-19.5 -18.5t-27 -7q-17 0 -28.5 12t-11.5 30q0 21 16 36t36 15q19 0 30.5 -12t11.5 -30z" />
    <glyph glyph-name="ring" unicode="&#x2da;" horiz-adv-x="241" 
d="M187 538q-29 0 -48.5 20t-19.5 51q0 37 26 62.5t62 25.5q30 0 49 -20t19 -51q0 -37 -25.5 -62.5t-62.5 -25.5zM235 622q0 10 -4 18t-11.5 12t-17.5 4q-17 0 -29 -12.5t-12 -31.5q0 -10 3.5 -17.5t11 -12t16.5 -4.5q18 0 30.5 13t12.5 31z" />
    <glyph glyph-name="ogonek" unicode="&#x2db;" horiz-adv-x="241" 
d="M174 -160q-3 -3 -9 -8t-25.5 -13.5t-41.5 -8.5q-35 0 -55.5 20t-20.5 53q0 22 7 42.5t19 34.5t26.5 26t29 19.5t26 12.5t19.5 7l7 2l8 -26q-2 -1 -4 -1.5t-8 -3.5t-12.5 -6t-14.5 -8.5t-15.5 -11t-14.5 -14t-12.5 -17.5t-8.5 -20.5t-3 -23.5q0 -8 1.5 -14.5t5 -11.5
t8.5 -8.5t11 -5.5t14 -2q12 0 24.5 6t18.5 12l7 5z" />
    <glyph glyph-name="tilde" unicode="&#x2dc;" horiz-adv-x="368" 
d="M405 674q1 -9 0 -18q-1 -27 -11 -48t-29 -33.5t-46 -12.5q-23 0 -46.5 15t-42.5 29.5t-33 14.5q-17 0 -28.5 -12t-11.5 -38l1 -14h-48q-1 8 -1 17q0 40 24.5 67.5t62.5 27.5q26 0 49.5 -15t42.5 -29.5t32 -14.5q37 0 37 51l-1 13h49z" />
    <glyph glyph-name="hungarumlaut" unicode="&#x2dd;" horiz-adv-x="364" 
d="M166 548l-53 -4l76 147h80zM303 548l-53 -4l76 147h79z" />
    <glyph glyph-name="gravecomb" unicode="&#x300;" 
d="M-33 544l-66 147h79l41 -143z" />
    <glyph glyph-name="acutecomb" unicode="&#x301;" 
d="M-72 548l-55 -4l77 147h79z" />
    <glyph glyph-name="uni0302" unicode="&#x302;" 
d="M-219 544l110 146h68l76 -146l-55 2l-61 96l-83 -96z" />
    <glyph glyph-name="tildecomb" unicode="&#x303;" 
d="M38 674v-18q-1 -27 -11 -48t-29.5 -33.5t-46.5 -12.5q-23 0 -46 15t-42.5 29.5t-32.5 14.5q-17 0 -28.5 -12t-11.5 -38v-14h-48v17q0 40 24.5 67.5t62.5 27.5q25 0 49 -15t42.5 -29.5t32.5 -14.5q37 0 37 51l-1 13h49z" />
    <glyph glyph-name="uni0304" unicode="&#x304;" 
d="M-227 597l5 47h253l-5 -47h-253z" />
    <glyph glyph-name="uni0306" unicode="&#x306;" 
d="M58 680q-7 -61 -43.5 -99t-93.5 -38t-85 37.5t-20 99.5h51q-5 -44 10.5 -68t47.5 -24q22 0 39 10.5t28.5 31.5t14.5 50h51z" />
    <glyph glyph-name="uni0307" unicode="&#x307;" 
d="M35 626q0 -14 -7.5 -25.5t-20 -18.5t-26.5 -7q-17 0 -29 12t-12 30q0 21 16 36t37 15q18 0 30 -12t12 -30z" />
    <glyph glyph-name="uni0308" unicode="&#x308;" 
d="M-176 579q-16 0 -26.5 11t-10.5 26q0 13 6.5 24t17.5 17.5t23 6.5q10 0 18.5 -5.5t13 -14t4.5 -19.5q0 -19 -14 -32.5t-32 -13.5zM-3 579q-15 0 -25.5 11t-10.5 26q0 19 14.5 33.5t32.5 14.5q16 0 26 -11t10 -27q0 -20 -14 -33.5t-33 -13.5z" />
    <glyph glyph-name="uni030A" unicode="&#x30a;" 
d="M-53 538q-30 0 -49 20t-19 51q0 37 26 62.5t62 25.5q30 0 49 -20t19 -51q0 -37 -26 -62.5t-62 -25.5zM-5 622q0 15 -9.5 24.5t-23.5 9.5q-17 0 -29.5 -12.5t-12.5 -31.5q0 -10 4 -17.5t11.5 -12t16.5 -4.5q17 0 30 13t13 31z" />
    <glyph glyph-name="uni030B" unicode="&#x30b;" 
d="M-198 548l-53 -4l76 147h80zM-61 548l-53 -4l76 147h79z" />
    <glyph glyph-name="uni030C" unicode="&#x30c;" 
d="M-192 690l54 -2l60 -95l84 95l56 2l-111 -146h-67z" />
    <glyph glyph-name="uni0326" unicode="&#x326;" 
d="M-146 -93q0 20 15 35t35 15q18 0 29.5 -12t11.5 -34q0 -27 -8.5 -50t-21 -37t-25 -24t-21.5 -14l-9 -4l-16 31q5 3 13 7.5t22 18.5t16 27q-18 0 -29.5 11.5t-11.5 29.5z" />
    <glyph glyph-name="uni0327" unicode="&#x327;" 
d="M-120 -33q27 -3 46.5 -20.5t19.5 -48.5q0 -27 -14 -47.5t-37 -30.5t-52 -10q-8 0 -16 1t-14.5 3t-12 4t-10 5t-8.5 5.5t-6.5 5t-4 4.5t-2.5 3l-1 1l23 36q20 -25 57 -25q24 0 39 11.5t15 30.5q0 18 -19 30.5t-60 12.5l37 72l43 -1z" />
    <glyph glyph-name="uni0328" unicode="&#x328;" 
d="M-67 -160q-3 -3 -9 -8t-25.5 -13.5t-40.5 -8.5q-36 0 -56.5 20t-20.5 53q0 31 13.5 57t33.5 41.5t39.5 26.5t33.5 15l14 4l8 -26q-4 -2 -10.5 -4t-22.5 -11.5t-28 -20.5t-22 -30t-10 -40q0 -8 1.5 -14.5t5 -11.5t8.5 -8.5t11 -5.5t14 -2q12 0 24.5 6t18.5 12l7 5z" />
    <glyph glyph-name="uni0335" unicode="&#x335;" 
d="M-251 211h258l-6 -45h-257z" />
    <glyph glyph-name="uni0336" unicode="&#x336;" 
d="M-308 217h319l-7 -51h-318z" />
    <glyph glyph-name="uni0337" unicode="&#x337;" 
d="M-211 339l228 129l17 -40l-228 -129z" />
    <glyph glyph-name="uni0338" unicode="&#x338;" 
d="M-66 503h49l-386 -523h-49z" />
    <glyph glyph-name="Wgrave" unicode="&#x1e80;" horiz-adv-x="850" 
d="M488 686l-69 121h80l44 -117zM847 656h62l-263 -656h-70l-72 497q-6 44 -6 73h-2q-12 -41 -24 -73l-199 -497h-70l-98 656h65l71 -530q4 -34 6 -56h2q8 24 20 56l210 530h59l77 -530q2 -15 6 -56h2q4 11 20 56z" />
    <glyph glyph-name="wgrave" unicode="&#x1e81;" horiz-adv-x="699" 
d="M454 548l-54 -4l-65 147h79zM671 468h62l-196 -468h-74l-57 356q-4 21 -4 34h-2q-6 -20 -12 -34l-149 -356h-73l-84 468h66l57 -370q1 -10 4 -22.5t3 -14.5h2q9 25 14 37l152 370h62l59 -368q1 -7 2 -15.5t1.5 -15.5t0.5 -8h2l15 39z" />
    <glyph glyph-name="Wacute" unicode="&#x1e82;" horiz-adv-x="850" 
d="M534 690l-54 -4l73 121h81zM847 656h62l-263 -656h-70l-72 497q-6 44 -6 73h-2q-12 -41 -24 -73l-199 -497h-70l-98 656h65l71 -530q4 -34 6 -56h2q8 24 20 56l210 530h59l77 -530q2 -15 6 -56h2q4 11 20 56z" />
    <glyph glyph-name="wacute" unicode="&#x1e83;" horiz-adv-x="699" 
d="M550 691l-101 -143l-55 -4l77 147h79zM671 468h62l-196 -468h-74l-57 356q-4 21 -4 34h-2q-6 -20 -12 -34l-149 -356h-73l-84 468h66l57 -370q1 -6 2 -12.5t2 -11t2 -8.5t1 -5h2q9 25 14 37l152 370h62l59 -368q1 -7 2 -15.5t1.5 -15.5t0.5 -8h2l15 39z" />
    <glyph glyph-name="Wdieresis" unicode="&#x1e84;" horiz-adv-x="850" 
d="M430 705q-16 0 -26 10.5t-10 26.5q0 12 6.5 23t17.5 17t22 6q15 0 25.5 -11t10.5 -26q0 -12 -7 -23t-17.5 -17t-21.5 -6zM604 705q-11 0 -19 5t-12.5 13.5t-4.5 18.5q0 12 6.5 23t17.5 17t22 6q16 0 26 -11t10 -26q0 -19 -14 -32.5t-32 -13.5zM847 656h62l-263 -656h-70
l-72 497q-6 44 -6 73h-2q-12 -41 -24 -73l-199 -497h-70l-98 656h65l71 -530q4 -34 6 -56h2q8 24 20 56l210 530h59l77 -530q2 -15 6 -56h2q4 11 20 56z" />
    <glyph glyph-name="wdieresis" unicode="&#x1e85;" horiz-adv-x="699" 
d="M340 579q-16 0 -26.5 11t-10.5 26q0 19 14.5 33.5t33.5 14.5q15 0 25 -11.5t10 -27.5q0 -19 -14 -32.5t-32 -13.5zM513 579q-7 0 -13.5 3t-11.5 8t-7.5 12t-2.5 14q0 19 14 33.5t32 14.5q16 0 26.5 -11t10.5 -27q0 -20 -14 -33.5t-34 -13.5zM671 468h62l-196 -468h-74
l-57 356q-4 21 -4 34h-2q-6 -20 -12 -34l-149 -356h-73l-84 468h66l57 -370q2 -9 4.5 -22t2.5 -15h2q9 25 14 37l152 370h62l59 -368q1 -7 2 -15.5t1.5 -15.5t0.5 -8h2l15 39z" />
    <glyph glyph-name="Ygrave" unicode="&#x1ef2;" horiz-adv-x="545" 
d="M391 690l-55 -4l-69 121h80zM608 656l-272 -405l-31 -251h-63l31 248l-172 408h69l121 -288q16 -40 20 -67h2q9 28 35 67l195 288h65z" />
    <glyph glyph-name="ygrave" unicode="&#x1ef3;" horiz-adv-x="524" 
d="M353 548l-53 -4l-66 147h79zM449 468h61l-60 -477q-8 -62 -36.5 -106t-79 -69t-119.5 -25q-92 0 -164 50l34 49q53 -48 137 -48q152 0 171 149l15 112h-1q-26 -48 -70 -78t-101 -30q-79 0 -117.5 50.5t-27.5 134.5l36 288h61l-36 -288q-8 -61 18.5 -97.5t82.5 -36.5
q63 0 107.5 50t55.5 109z" />
    <glyph glyph-name="uni1EF8" unicode="&#x1ef8;" horiz-adv-x="545" 
d="M269 676h-48q-1 8 -1 17q0 42 24.5 66.5t63.5 24.5q25 0 48.5 -14.5t42.5 -29.5t32 -15q37 0 37 51v14h49l-1 -18q-2 -42 -24 -68t-60 -26q-24 0 -48 14.5t-43.5 29.5t-33.5 15q-17 0 -28 -12t-11 -35zM608 656l-272 -405l-31 -251h-63l31 248l-172 408h69l121 -288
q16 -40 20 -67h2q9 28 35 67l195 288h65z" />
    <glyph glyph-name="uni1EF9" unicode="&#x1ef9;" horiz-adv-x="524" 
d="M222 557h-48q-1 8 -1 17q0 40 24.5 67.5t62.5 27.5q26 0 49.5 -15t42.5 -29.5t32 -14.5q37 0 37 51l-1 13h49q1 -9 0 -18q-1 -27 -11 -48t-29 -33.5t-46 -12.5q-23 0 -46.5 15t-42.5 29.5t-33 14.5q-17 0 -28.5 -12t-11.5 -38zM449 468h61l-60 -477q-12 -93 -72 -146.5
t-163 -53.5q-92 0 -164 50l34 49q53 -48 137 -48q152 0 171 149l15 112h-1q-26 -48 -70 -78t-101 -30q-79 0 -117.5 50.5t-27.5 134.5l36 288h61l-36 -288q-8 -61 18.5 -97.5t82.5 -36.5q63 0 107.5 50t55.5 109z" />
    <glyph glyph-name="endash" unicode="&#x2013;" horiz-adv-x="449" 
d="M87 250l6 47h338l-6 -47h-338z" />
    <glyph glyph-name="emdash" unicode="&#x2014;" horiz-adv-x="684" 
d="M87 250l6 47h572l-6 -47h-572z" />
    <glyph glyph-name="quoteleft" unicode="&#x2018;" horiz-adv-x="206" 
d="M209 490q0 -14 -6.5 -25t-18 -17t-27.5 -6q-21 0 -33.5 14t-12.5 38q0 30 10.5 58.5t25 47.5t29.5 34t25 22l10 7l26 -37q-7 -4 -17.5 -13t-29.5 -34.5t-23 -50.5q19 0 30.5 -10.5t11.5 -27.5z" />
    <glyph glyph-name="quoteright" unicode="&#x2019;" horiz-adv-x="203" 
d="M137 614q0 14 6.5 25t18.5 17.5t27 6.5q14 0 24.5 -6.5t16 -18.5t5.5 -28q0 -29 -10.5 -57.5t-25 -47.5t-29 -34t-25.5 -22l-10 -7l-25 36q7 5 17 14t29.5 34.5t22.5 49.5q-18 0 -30 10.5t-12 27.5z" />
    <glyph glyph-name="quotesinglbase" unicode="&#x201a;" horiz-adv-x="214" 
d="M62 32q0 22 14.5 35.5t37.5 13.5q11 0 19.5 -4t14 -11t9 -16.5t3.5 -21.5q0 -29 -10.5 -57.5t-25 -47.5t-29 -34t-25.5 -22l-10 -7l-25 36q7 5 17 13.5t29.5 34.5t22.5 50q-18 0 -30 10.5t-12 27.5z" />
    <glyph glyph-name="quotedblleft" unicode="&#x201c;" horiz-adv-x="344" 
d="M154 490q0 -21 -14.5 -34.5t-38.5 -13.5q-20 0 -32.5 14t-12.5 38q0 30 10 58.5t25 47.5t29.5 34t24.5 22l11 7l25 -37q-7 -4 -17.5 -13t-29.5 -34.5t-22 -50.5q18 0 30 -10.5t12 -27.5zM282 490q0 -21 -14 -34.5t-38 -13.5q-13 0 -23.5 6.5t-16 18t-5.5 27.5
q0 30 10 58.5t25 47.5t29.5 34t24.5 22l10 7l26 -37q-7 -4 -17.5 -13t-29.5 -34.5t-22 -50.5q18 0 29.5 -10.5t11.5 -27.5z" />
    <glyph glyph-name="quotedblright" unicode="&#x201d;" horiz-adv-x="341" 
d="M189 663q21 0 33.5 -14.5t12.5 -38.5q0 -29 -10.5 -57.5t-25 -47.5t-29.5 -34t-25 -22l-10 -7l-26 36q7 5 17.5 14t29.5 34.5t23 49.5q-19 0 -31 10.5t-12 27.5q0 22 14.5 35.5t38.5 13.5zM326 663q21 0 33.5 -14.5t12.5 -38.5q0 -29 -10.5 -57.5t-25 -47.5t-29.5 -34
t-25 -22l-10 -7l-25 36q7 5 17 14t29 34.5t23 49.5q-19 0 -30.5 10.5t-11.5 27.5q0 14 6 25t18 17.5t28 6.5z" />
    <glyph glyph-name="quotedblbase" unicode="&#x201e;" horiz-adv-x="352" 
d="M62 32q0 22 14.5 35.5t37.5 13.5q11 0 19.5 -4t14 -11t9 -16.5t3.5 -21.5q0 -29 -10.5 -57.5t-25 -47.5t-29 -34t-25.5 -22l-10 -7l-25 36q7 5 17 13.5t29.5 34.5t22.5 50q-18 0 -30 10.5t-12 27.5zM204 32q0 22 14.5 35.5t38.5 13.5q20 0 32.5 -14.5t12.5 -38.5
q0 -29 -10 -57.5t-25 -47.5t-29.5 -34t-24.5 -22l-10 -7l-26 36q7 5 17.5 13.5t29.5 34.5t22 50q-18 0 -30 10.5t-12 27.5z" />
    <glyph glyph-name="dagger" unicode="&#x2020;" horiz-adv-x="385" 
d="M393 468l-6 -49l-118 2l-27 -198l-48 -427h-54l57 427l23 198l-118 -2l6 49l117 -3l22 189h54l-26 -189z" />
    <glyph glyph-name="daggerdbl" unicode="&#x2021;" horiz-adv-x="385" 
d="M386 414l-116 2l-25 -177l-21 -186l118 3l-6 -47l-117 2l-25 -215h-55l30 215l-118 -2l6 47l116 -3l27 186l19 177l-117 -2l6 49l117 -2l22 195h54l-26 -195l118 2z" />
    <glyph glyph-name="bullet" unicode="&#x2022;" horiz-adv-x="328" 
d="M284 298q0 -38 -29 -66.5t-66 -28.5q-32 0 -52.5 22.5t-20.5 54.5q0 39 28.5 67.5t65.5 28.5q32 0 53 -22.5t21 -55.5z" />
    <glyph glyph-name="ellipsis" unicode="&#x2026;" horiz-adv-x="518" 
d="M61 35q0 13 7.5 25t19 18.5t25.5 6.5q16 0 27.5 -12t11.5 -29q0 -20 -15.5 -35t-35.5 -15q-17 0 -28.5 12t-11.5 29zM217 35q0 20 15.5 35t35.5 15q17 0 28 -12t11 -29q0 -20 -15.5 -35t-35.5 -15q-17 0 -28 12t-11 29zM376 35q0 20 15.5 35t35.5 15q17 0 28 -12t11 -29
q0 -20 -15 -35t-35 -15q-18 0 -29 12t-11 29z" />
    <glyph glyph-name="perthousand" unicode="&#x2030;" horiz-adv-x="1185" 
d="M245 0l367 662h58l-367 -662h-58zM226 290q-63 0 -99.5 42t-36.5 112q0 95 51.5 155t130.5 60q63 0 100 -43t37 -115q0 -94 -51.5 -152.5t-131.5 -58.5zM233 344q51 0 84 42t33 110q0 33 -10 57.5t-29 38t-45 13.5q-50 0 -83.5 -43.5t-33.5 -111.5q0 -49 22.5 -77.5
t61.5 -28.5zM626 -4q-63 0 -100 42t-37 112q0 47 14 87t38 68t57.5 44t72.5 16q64 0 100.5 -43t36.5 -115q0 -62 -23.5 -110t-65 -74.5t-93.5 -26.5zM994 -4q-63 0 -99.5 42t-36.5 112q0 95 51.5 155t130.5 60q63 0 100 -42.5t37 -115.5q0 -94 -51.5 -152.5t-131.5 -58.5z
M632 50q51 0 84 42t33 109q0 51 -22.5 80.5t-61.5 29.5q-50 0 -83.5 -43.5t-33.5 -110.5q0 -50 22.5 -78.5t61.5 -28.5zM1000 50q52 0 85 42t33 110q0 50 -22.5 79.5t-62.5 29.5q-49 0 -82.5 -43.5t-33.5 -110.5q0 -50 22.5 -78.5t60.5 -28.5z" />
    <glyph glyph-name="guilsinglleft" unicode="&#x2039;" horiz-adv-x="262" 
d="M73 239l7 50l148 134l27 -36l-139 -123l109 -123l-37 -36z" />
    <glyph glyph-name="guilsinglright" unicode="&#x203a;" horiz-adv-x="262" 
d="M100 105l-27 36l138 123l-108 123l37 36l115 -134l-6 -50z" />
    <glyph glyph-name="fraction" unicode="&#x2044;" horiz-adv-x="302" 
d="M17 0l300 726h61l-300 -726h-61z" />
    <glyph glyph-name="Euro" unicode="&#x20ac;" horiz-adv-x="675" 
d="M485 607q-75 0 -138.5 -47.5t-94.5 -134.5h279l-16 -45h-276q-10 -46 -10 -98v-1h256l-17 -46h-236q12 -89 62 -137t121 -48q65 0 114 28t80 66l34 -38q-12 -15 -29 -31t-46.5 -35.5t-71.5 -32t-89 -12.5q-101 0 -164.5 64t-74.5 176h-100l16 46h82q0 51 10 99h-90l16 45
h86q34 111 115.5 174t187.5 63q46 0 84.5 -13t63 -33.5t38 -36.5t21.5 -31l-43 -38q-22 38 -64.5 67.5t-105.5 29.5z" />
    <glyph glyph-name="trademark" unicode="&#x2122;" horiz-adv-x="667" 
d="M111 618l5 38h242l-5 -38h-98l-30 -238h-45l30 238h-99zM630 656h46l-35 -276h-39l24 196l-108 -196h-32l-57 196l-25 -196h-40l34 276h49l64 -211z" />
    <glyph glyph-name="minus" unicode="&#x2212;" horiz-adv-x="472" 
d="M96 224l6 47h336l-6 -47h-336z" />
    <glyph glyph-name="uni2215" unicode="&#x2215;" horiz-adv-x="376" 
d="M9 0l391 726h60l-391 -726h-60z" />
    <glyph glyph-name="uni2219" unicode="&#x2219;" horiz-adv-x="304" 
d="M182 237q-14 0 -23.5 9.5t-9.5 23.5q0 18 12.5 30t30.5 12q14 0 22.5 -9.5t8.5 -23.5q0 -12 -5.5 -21.5t-15 -15t-20.5 -5.5z" />
    <glyph glyph-name="approxequal" unicode="&#x2248;" horiz-adv-x="536" 
d="M106 302l6 45q47 31 105 31q38 0 96.5 -20t95.5 -20q62 0 105 31l-6 -46q-47 -31 -105 -31q-37 0 -95.5 20t-96.5 20q-24 0 -54 -8t-51 -22zM85 130l5 45q48 32 106 32q37 0 95.5 -20t96.5 -20q61 0 104 30l-6 -46q-47 -31 -104 -31q-38 0 -96 20t-96 20q-24 0 -54 -8
t-51 -22z" />
    <glyph glyph-name="notequal" unicode="&#x2260;" horiz-adv-x="501" 
d="M474 323h-135l-59 -145h175l-6 -46h-188l-54 -132h-50l54 132h-127l6 46h140l60 145h-182l6 46h195l42 103h49l-42 -103h122z" />
    <glyph glyph-name="uniF8FF" unicode="&#xf8ff;" horiz-adv-x="1468" 
d="M725 583q0 26 17.5 44t43.5 18t44 -18t18 -44t-18 -43.5t-44 -17.5t-43.5 18t-17.5 43zM253 270h-119q0 134 9 314h100q10 -200 10 -314zM728 270q0 92 3 147h-61l3 -65q4 -4 15 -4q13 0 18 5v-74q-14 -15 -68 -15q-82 0 -82 66q0 12 2 49t2 38h-22v79l119 30l1 -17h178
q10 -64 10 -239h-118zM362 265q-92 0 -92 114q0 135 134 135q124 0 124 -117v-127h-83l-8 61q-6 -33 -23.5 -49.5t-51.5 -16.5zM1124 270h-114q0 26 1 56t1 37q0 29 -15 29q-18 0 -18 -29q0 -7 1.5 -37t1.5 -56h-114q0 175 10 239h80q6 -44 6 -76q2 15 6.5 30t24 33t49.5 18
q42 0 58.5 -25t18.5 -81zM1385 391q0 -126 -123 -126q-122 0 -122 124q0 125 124 125q121 0 121 -123zM424 375q0 26 -24 26q-22 0 -22 -26q0 -30 22 -30q24 0 24 30zM1285 375q0 26 -23 26q-21 0 -21 -26q0 -30 21 -30q23 0 23 30zM462 238h104q10 -52 10 -138
q0 -81 -33.5 -115.5t-118.5 -34.5q-61 0 -88 17v83q24 -16 70 -16q21 0 34 6t16.5 11.5t3.5 10.5q-17 -11 -49 -11q-90 0 -90 83v13h-55l3 -65q6 -4 15 -4q13 0 18 5v-73q-19 -15 -68 -15q-45 0 -63 17t-18 54q0 39 3 81h-18v80l117 29l-1 -18h177v-119q0 -16 3 -21.5
t12 -5.5q16 0 16 27v119zM767 243q37 0 58.5 -29t21.5 -84q0 -135 -137 -135q1 -15 1 -39h-119q0 142 10 282h78q7 -42 7 -76q17 81 80 81zM1104 127q0 -21 -3 -35h-124q11 -18 50 -18q34 0 55 12v-75q-23 -16 -78 -16q-141 0 -141 122q0 59 32.5 92.5t92.5 33.5
q55 0 85.5 -30t30.5 -86zM1012 109q3 27 -17 27q-23 0 -23 -27h40zM704 72q5 0 12.5 2.5t16 11.5t8.5 23q0 23 -20 23q-22 0 -22 -31q0 -14 5 -29zM1108 13q0 -23 24 -23t24 23t-24 23t-24 -23zM1114 13q0 18 18 18t18 -18t-18 -18t-18 18zM1142 2l-6 9q7 0 7 7t-10 7h-11
v-23h5v9h5l4 -9h6zM1134 15h-7v6h7q4 0 4 -3t-4 -3z" />
    <glyph glyph-name="napostrophe.s001" horiz-adv-x="548" 
d="M155 675q0 -28 -8.5 -53t-21 -42t-25 -29.5t-21.5 -18.5l-8 -6l-20 34q6 3 14 9t23 24.5t18 36.5q-19 0 -30.5 11.5t-11.5 28.5q0 21 15 35.5t35 14.5q18 0 29.5 -12t11.5 -33zM502 49q10 0 17 2l-2 -51q-19 -5 -43 -5q-33 0 -48 20t-11 54l27 218q7 61 -20.5 98
t-84.5 37q-68 0 -114.5 -50.5t-56.5 -111.5l-32 -260h-61l59 468l43 2q2 -53 -6 -119h2q16 33 41 60t62.5 44.5t79.5 17.5q79 0 119 -51t30 -135l-26 -206q-2 -15 5 -23.5t20 -8.5z" />
    <glyph glyph-name="ncommaaccent.s001" horiz-adv-x="548" 
d="M502 49q10 0 17 2l-2 -51q-19 -5 -43 -5q-33 0 -48 20t-11 54l27 218q7 61 -20.5 98t-84.5 37q-68 0 -114.5 -50.5t-56.5 -111.5l-32 -260h-61l59 468l43 2q2 -53 -6 -119h2q16 33 41 60t62.5 44.5t79.5 17.5q79 0 119 -51t30 -135l-26 -206q-1 -10 1.5 -17.5t8.5 -11
t15 -3.5zM264 -43q18 0 29.5 -12t11.5 -34q0 -27 -8.5 -50t-21 -37t-25.5 -24t-21 -14l-9 -4l-16 31q2 1 5 3t11.5 7.5t15 11.5t12.5 14.5t7 16.5q-18 0 -29.5 11.5t-11.5 29.5q0 20 15 35t35 15z" />
    <glyph glyph-name="uni0306.case.001" 
d="M46 660q-6 -51 -40 -84t-85 -33q-52 0 -78 33t-20 84h48q-5 -33 9.5 -53t44.5 -19q31 0 50 19t24 53h47z" />
    <glyph glyph-name="caroncomb.alt" 
d="M-60 397q0 21 15 35.5t35 14.5q18 0 29.5 -12t11.5 -33q0 -28 -8.5 -53t-21 -42t-25 -29.5t-21.5 -18.5l-9 -6l-19 34q2 1 5 3.5t12 9.5t16 14.5t13.5 19t7.5 23.5q-12 0 -21.5 5t-14.5 14.5t-5 20.5z" />
    <glyph glyph-name="acutecomb.case" 
d="M-73 548l-54 -4l73 121h80z" />
    <glyph glyph-name="uni0306.case" 
d="M46 660q-6 -51 -40 -84t-85 -33q-52 0 -78 33t-20 84h48q-5 -33 9.5 -53t44.5 -19q31 0 50 19t24 53h47z" />
    <glyph glyph-name="uni030C.case" 
d="M-203 675l55 -2l62 -75l81 75l57 2l-109 -126h-69z" />
    <glyph glyph-name="uni0302.case" 
d="M-41 670l76 -126l-55 2l-63 75l-81 -75l-55 -2l108 126h70z" />
    <glyph glyph-name="uni0308.case" 
d="M-178 563q-16 0 -26 10.5t-10 26.5q0 18 14 32t32 14q15 0 25.5 -11t10.5 -26q0 -13 -7 -23.5t-17.5 -16.5t-21.5 -6zM-4 563q-16 0 -26 10.5t-10 26.5q0 18 14 32t32 14q16 0 26 -11t10 -26q0 -19 -14 -32.5t-32 -13.5z" />
    <glyph glyph-name="uni0307.case" 
d="M-21 556q-17 0 -28.5 12t-11.5 30q0 21 15.5 36t36.5 15q18 0 30 -12t12 -30q0 -21 -16 -36t-38 -15z" />
    <glyph glyph-name="gravecomb.case" 
d="M-33 544l-68 121h80l43 -117z" />
    <glyph glyph-name="uni030B.case" 
d="M-185 548l-54 -4l73 121h79zM-37 548l-53 -4l73 121h79z" />
    <glyph glyph-name="uni0304.case" 
d="M-232 568l5 46h256l-6 -46h-255z" />
    <glyph glyph-name="uni030A.case" 
d="M-54 533q-28 0 -46 19t-18 47q0 35 25 59t58 24q28 0 46 -19t18 -47q0 -23 -11.5 -42t-30.5 -30t-41 -11zM-9 611q0 15 -8.5 24.5t-21.5 9.5q-9 0 -16 -3.5t-12.5 -9t-8.5 -13t-3 -16.5q0 -15 8 -24t22 -9q16 0 28 12t12 29z" />
    <glyph glyph-name="uni0338.case" 
d="M115 716l-556 -732h-64l557 732h63z" />
    <glyph glyph-name="uni0337.case" 
d="M-306 339l329 187l19 -40l-330 -187z" />
    <glyph glyph-name="tildecomb.case" 
d="M34 645v-18q-2 -41 -24 -67.5t-61 -26.5q-24 0 -47.5 15t-43.5 29.5t-34 14.5q-11 0 -19.5 -5t-13.5 -15.5t-5 -25.5l1 -14h-48q-1 8 -1 17q0 42 24.5 66.5t62.5 24.5q26 0 49.5 -15t42 -29.5t32.5 -14.5q37 0 37 51l-1 13h49z" />
    <glyph glyph-name="caron.alt" horiz-adv-x="131" 
d="M162 402q0 -20 -4.5 -37t-12 -29.5t-16.5 -22.5t-18 -16t-16.5 -10.5t-12.5 -6.5l-5 -2l-16 32q6 2 13.5 5.5t21.5 15.5t16 26q-18 0 -29.5 11.5t-11.5 28.5q0 21 15 35.5t35 14.5q18 0 29.5 -12t11.5 -33z" />
    <glyph glyph-name="acute.case" horiz-adv-x="244" 
d="M171 548l-55 -4l74 121h80z" />
    <glyph glyph-name="breve.case" horiz-adv-x="296" 
d="M342 660q-6 -51 -40 -84t-85 -33q-52 0 -78 33t-20 84h48q-3 -22 2.5 -38.5t18.5 -25.5t33 -8q20 0 36 8.5t25.5 25t12.5 38.5h47z" />
    <glyph glyph-name="caron.case" horiz-adv-x="312" 
d="M117 675l54 -2l63 -75l81 75l57 2l-109 -126h-70z" />
    <glyph glyph-name="circumflex.case" horiz-adv-x="319" 
d="M278 670l77 -126l-56 2l-63 75l-80 -75l-56 -2l108 126h70z" />
    <glyph glyph-name="dieresis.case" horiz-adv-x="324" 
d="M146 563q-10 0 -18.5 5t-13 13.5t-4.5 18.5q0 18 14.5 32t31.5 14q16 0 26 -11t10 -26q0 -13 -7 -23.5t-17.5 -16.5t-21.5 -6zM320 563q-16 0 -26 10.5t-10 26.5q0 18 14.5 32t32.5 14q15 0 25 -11t10 -26q0 -19 -14 -32.5t-32 -13.5z" />
    <glyph glyph-name="dotaccent.case" horiz-adv-x="180" 
d="M159 556q-17 0 -28.5 12t-11.5 30q0 21 16 36t36 15q18 0 30 -12t12 -30q0 -21 -16 -36t-38 -15z" />
    <glyph glyph-name="grave.case" horiz-adv-x="244" 
d="M211 544l-69 121h80l44 -117z" />
    <glyph glyph-name="hungarumlaut.case" horiz-adv-x="361" 
d="M176 548l-54 -4l73 121h80zM325 548l-54 -4l74 121h79z" />
    <glyph glyph-name="macron.case" horiz-adv-x="351" 
d="M119 568l6 46h255l-5 -46h-256z" />
    <glyph glyph-name="ring.case" horiz-adv-x="241" 
d="M187 533q-28 0 -46.5 19t-18.5 47q0 35 25 59t58 24q28 0 46.5 -19t18.5 -47q0 -23 -12 -42t-31 -30t-40 -11zM232 611q0 15 -8.5 24.5t-22.5 9.5q-17 0 -28.5 -12.5t-11.5 -29.5q0 -15 8.5 -24t21.5 -9q11 0 20 5.5t15 15t6 20.5z" />
    <glyph glyph-name="tilde.case" horiz-adv-x="368" 
d="M402 645v-18q-2 -41 -24 -67.5t-61 -26.5q-24 0 -47.5 15t-43.5 29.5t-34 14.5q-11 0 -19.5 -5t-13.5 -15.5t-5 -25.5l1 -14h-48q-1 8 -1 17q0 42 24.5 66.5t62.5 24.5q26 0 49.5 -15t42 -29.5t32.5 -14.5q37 0 37 51l-1 13h49z" />
    <glyph glyph-name="Rem" horiz-adv-x="462" 
 />
    <glyph glyph-name="IJacute" horiz-adv-x="684" 
d="M655 690l-54 -4l73 121h81zM224 689l-55 -3l74 120h80zM88 0l82 656h62l-82 -656h-62zM299 106q45 -56 107 -56q117 0 133 127l60 479h63l-60 -475q-12 -93 -65 -139.5t-137 -46.5q-90 0 -145 64z" />
    <glyph glyph-name="ijacute" horiz-adv-x="414" 
d="M407 540l-55 -3l76 146h80zM200 540l-55 -4l77 147h79zM193 470l-50 -393q-3 -28 20 -28q8 0 16 2l-3 -51q-18 -5 -39 -5q-66 0 -57 67l52 406zM116 -139q20 -17 57 -17q45 0 69 26t31 81l65 517l61 2l-64 -509q-21 -169 -164 -169q-25 0 -44.5 6.5t-26.5 13.5l-8 6z" />
    <glyph glyph-name="commaccent" horiz-adv-x="570" 
 />
    </font>
</defs>
</svg>
