<?xml version="1.0" standalone="no"?>
<!DOCTYPE svg PUBLIC "-//W3C//DTD SVG 1.1//EN" "http://www.w3.org/Graphics/SVG/1.1/DTD/svg11.dtd" >
<svg xmlns="http://www.w3.org/2000/svg" xmlns:xlink="http://www.w3.org/1999/xlink" version="1.1">
<metadata>
Created by FontForge 20170731 at Mon Jul 18 17:13:32 2016
 By Aleksey,,,
Copyright (c) 2016 by Daniel Hernandez. All rights reserved.
</metadata>
<defs>
<font id="BasicSans-ThinIt" horiz-adv-x="0" >
  <font-face 
    font-family="BasicSans-ThinIt"
    font-weight="400"
    font-style="italic"
    font-stretch="normal"
    units-per-em="1000"
    panose-1="0 0 3 0 0 0 0 0 0 0"
    ascent="773"
    descent="-227"
    x-height="462"
    cap-height="650"
    bbox="-491 -222 1385 924"
    underline-thickness="50"
    underline-position="-150"
    slope="-7"
    unicode-range="U+0020-FB02"
  />
<missing-glyph horiz-adv-x="393" 
 />
    <glyph glyph-name="fi" unicode="fi" horiz-adv-x="507" 
d="M481 463l-54 -410q-5 -38 26 -38q7 0 15 2v-18q-10 -3 -21 -3q-48 0 -40 56l51 392h-270l-56 -444h-21l57 444h-67l3 18h66l12 98q9 69 49 109.5t96 40.5q57 0 92 -35l-15 -15q-2 3 -7 7t-14.5 10t-25 10t-33.5 4q-46 0 -79.5 -36t-41.5 -95l-12 -98h270zM495 643
q7 0 12 -3.5t8 -8.5t3 -12q0 -12 -9 -21t-21 -9q-10 0 -16.5 7.5t-6.5 17.5q0 12 9.5 20.5t20.5 8.5z" />
    <glyph glyph-name="fl" unicode="fl" horiz-adv-x="519" 
d="M327 710q57 0 92 -35l-15 -15q-2 3 -7 7t-14.5 10t-25 10t-33.5 4q-46 0 -79.5 -36t-41.5 -95l-12 -98h178l-2 -18h-179l-56 -444h-21l57 444h-67l3 18h66l12 98q9 69 49 109.5t96 40.5zM502 706h20l-91 -706h-20z" />
    <glyph glyph-name=".notdef" horiz-adv-x="393" 
 />
    <glyph glyph-name=".null" 
 />
    <glyph glyph-name="nonmarkingreturn" horiz-adv-x="333" 
 />
    <glyph glyph-name="space" unicode=" " horiz-adv-x="246" 
 />
    <glyph glyph-name="exclam" unicode="!" horiz-adv-x="214" 
d="M203 663l-65 -488l-17 -1l60 489h22zM113 47q10 0 16.5 -7t6.5 -16q0 -8 -4 -15t-11 -11t-15 -4q-9 0 -15.5 7t-6.5 17q0 12 9 20.5t20 8.5z" />
    <glyph glyph-name="quotedbl" unicode="&#x22;" horiz-adv-x="234" 
d="M142 569l17 137h22l-20 -137h-19zM220 569l16 137h23l-20 -137h-19z" />
    <glyph glyph-name="numbersign" unicode="#" horiz-adv-x="591" 
d="M583 315h-126l-48 -140h120l-6 -20h-120l-53 -155h-20l53 155h-170l-53 -155h-19l53 155h-130l7 20h129l48 140h-124l7 19h123l54 156h18l-53 -156h170l53 156h20l-53 -156h126zM390 175l47 140h-170l-48 -140h171z" />
    <glyph glyph-name="dollar" unicode="$" horiz-adv-x="537" 
d="M338 638q-78 0 -131.5 -44t-53.5 -113q0 -37 18.5 -63t48 -40.5t65 -26t70.5 -24t64.5 -29t48 -47t18.5 -73.5q0 -54 -26.5 -94.5t-74.5 -63t-113 -24.5l-11 -93h-22l13 93q-74 2 -124 24t-77 50l14 16q21 -20 40.5 -32.5t62 -25.5t95.5 -13q89 0 145.5 45t56.5 115
q0 39 -18.5 66.5t-48 42.5t-65 27l-71 24t-65 28.5t-48 46t-18.5 71.5q0 78 57 126.5t149 48.5l11 91h21l-12 -91q32 -2 58.5 -12t44 -23.5t30.5 -31t20.5 -32.5t11.5 -31l-23 -5q-3 14 -12.5 32t-27.5 38t-50 33.5t-71 13.5z" />
    <glyph glyph-name="percent" unicode="%" horiz-adv-x="799" 
d="M257 0l363 656h21l-363 -656h-21zM224 291q-58 0 -91.5 40t-33.5 109q0 96 49 156t123 60q57 0 90.5 -41t33.5 -112q0 -63 -22.5 -111.5t-61 -74.5t-87.5 -26zM226 310q42 0 75 23.5t52 67.5t19 101q0 62 -27.5 98t-76.5 36q-64 0 -106 -54t-42 -140q0 -61 28.5 -96.5
t77.5 -35.5zM612 -3q-58 0 -92 40t-34 110q0 95 48.5 155t123.5 60q58 0 91 -41t33 -112q0 -95 -48 -153.5t-122 -58.5zM614 16q63 0 105 52.5t42 138.5q0 63 -28 99t-77 36q-64 0 -106 -54t-42 -140q0 -61 28.5 -96.5t77.5 -35.5z" />
    <glyph glyph-name="ampersand" unicode="&#x26;" horiz-adv-x="565" 
d="M560 293q-19 -145 -99 -221l42 -62l-17 -11l-41 59q-77 -62 -198 -62q-53 0 -93 19.5t-61 54t-21 79.5q0 42 13.5 74.5t39.5 55.5t53.5 38.5t65.5 30.5q-53 75 -53 140q0 73 47.5 120.5t119.5 47.5q55 0 85 -32t30 -86q0 -39 -13 -68.5t-42 -52t-60.5 -39t-82.5 -36.5
l4 -5l170 -248q72 71 90 211zM354 637q-40 0 -72.5 -18.5t-51 -52t-18.5 -75.5q0 -61 53 -135q50 20 79.5 34.5t56.5 36t39 47.5t12 61q0 48 -25 75t-73 27zM250 15q113 0 184 59l-172 250l-7 10q-38 -15 -62.5 -29t-49.5 -35t-37.5 -50.5t-12.5 -67.5q0 -41 19 -72
t54.5 -48t83.5 -17z" />
    <glyph glyph-name="quotesingle" unicode="'" horiz-adv-x="156" 
d="M142 569l17 137h22l-20 -137h-19z" />
    <glyph glyph-name="parenleft" unicode="(" horiz-adv-x="241" 
d="M172 -215q-4 6 -10 17t-21.5 48.5t-27 78.5t-21 104.5t-9.5 127.5q0 72 11 140.5t29.5 121t40.5 100t44 80t40.5 56.5t29.5 36l12 12l14 -13q-8 -8 -21.5 -22.5t-48.5 -65t-61.5 -107.5t-48.5 -148.5t-22 -187.5q0 -47 5 -92t12.5 -80t17 -67t18.5 -54.5t17 -39t13 -24.5
l4 -8z" />
    <glyph glyph-name="parenright" unicode=")" horiz-adv-x="242" 
d="M224 345q0 -96 -21.5 -189t-52 -157t-61 -114.5t-51.5 -74.5l-22 -25l-15 13q8 8 21.5 24t49 70t62 113t48.5 151t22 187q0 64 -9 123.5t-22 99t-25.5 70t-21.5 44.5l-9 14l18 13q4 -6 10 -16t21.5 -45t27 -73.5t21 -100.5t9.5 -127z" />
    <glyph glyph-name="asterisk" unicode="*" horiz-adv-x="396" 
d="M297 390l-35 126l-95 -107l-14 14l98 103l-125 21l7 20l121 -23l-35 118l19 9l33 -123l97 113l15 -14l-102 -107l131 -21l-6 -19l-129 23l40 -124z" />
    <glyph glyph-name="plus" unicode="+" horiz-adv-x="407" 
d="M387 261l-2 -20h-140l-22 -167h-20l21 167h-140l3 20h140l20 153h21l-20 -153h139z" />
    <glyph glyph-name="comma" unicode="," horiz-adv-x="196" 
d="M72 16q0 8 4 14.5t10.5 10.5t15.5 4q12 0 19 -8.5t7 -23.5q0 -22 -7.5 -43t-17.5 -35.5t-20 -26t-17 -17.5l-7 -5l-14 19q5 4 13 12t23.5 31.5t19.5 45.5q-13 0 -21 6t-8 16z" />
    <glyph glyph-name="hyphen" unicode="-" horiz-adv-x="381" 
d="M114 315l3 20h233l-2 -20h-234z" />
    <glyph glyph-name="period" unicode="." horiz-adv-x="193" 
d="M72 18q0 12 9.5 21t21.5 9q6 0 11.5 -3.5t8 -9t2.5 -11.5q0 -12 -9 -21t-21 -9q-10 0 -16.5 7t-6.5 17z" />
    <glyph glyph-name="slash" unicode="/" horiz-adv-x="354" 
d="M8 -204l382 910h21l-381 -910h-22z" />
    <glyph glyph-name="zero" unicode="0" horiz-adv-x="567" 
d="M282 -6q-88 0 -135.5 62t-47.5 187q0 80 12 146.5t35 116t56 83.5t75 50.5t91 16.5q88 0 135.5 -64.5t47.5 -191.5q0 -199 -71.5 -302.5t-197.5 -103.5zM285 14q115 0 179.5 97.5t64.5 287.5q0 119 -42.5 178.5t-121.5 59.5q-115 0 -179.5 -101.5t-64.5 -291.5
q0 -116 42 -173t122 -57z" />
    <glyph glyph-name="one" unicode="1" horiz-adv-x="302" 
d="M181 0l81 626l-162 -43l2 21l179 46h6l-84 -650h-22z" />
    <glyph glyph-name="two" unicode="2" horiz-adv-x="494" 
d="M82 18q11 2 36 2h324l-3 -20h-389l2 22q11 7 46 29t53 34t53.5 37t56.5 42t52.5 44t51 49t41.5 51.5t34.5 56.5t21 59t8.5 64q0 69 -39.5 109.5t-112.5 40.5q-49 0 -89 -20.5t-63.5 -56t-23.5 -79.5q0 -14 2 -21l-21 -5q-2 0 -2 25q0 75 57.5 125t142.5 50
q82 0 126.5 -44.5t44.5 -121.5q0 -58 -26.5 -117t-64.5 -105t-92 -92.5t-98.5 -76.5t-93.5 -59l-36 -20z" />
    <glyph glyph-name="three" unicode="3" horiz-adv-x="519" 
d="M339 656q76 0 120.5 -41.5t44.5 -109.5q0 -77 -54 -126t-119 -49l-1 -1q26 0 51 -7.5t48 -23.5t37 -44.5t14 -65.5q0 -86 -63 -139t-162 -53q-44 0 -80 11t-56.5 27t-34.5 32t-19 27l-5 12l18 11q1 -3 3 -6.5t9.5 -14t16 -20t24 -21t32.5 -20t42 -14t52 -5.5q58 0 104 21
t72 60.5t26 90.5q0 68 -49.5 100t-130.5 32h-30l3 20h30q86 0 143.5 43.5t57.5 119.5q0 40 -18 71t-51.5 48t-77.5 17q-50 0 -90 -19t-63 -53t-23 -77q0 -16 1 -18l-21 -4q-1 0 -1 23q0 70 56.5 118t143.5 48z" />
    <glyph glyph-name="four" unicode="4" horiz-adv-x="512" 
d="M468 650l-60 -459h94l-2 -19h-94l-22 -172h-22l22 172h-334l2 19l390 459h26zM387 191l51 401q3 25 6 31l-2 1q-1 -2 -10 -12.5t-12 -15.5l-320 -380q-16 -19 -23 -24l1 -2q3 1 29 1h280z" />
    <glyph glyph-name="five" unicode="5" horiz-adv-x="507" 
d="M189 650h313l-2 -19h-295l-62 -282l2 -1q22 23 65.5 41.5t96.5 18.5q54 0 94 -22.5t61.5 -63t21.5 -94.5q0 -103 -66 -167.5t-172 -64.5q-38 0 -70.5 9.5t-52.5 23t-34 27t-20 22.5l-6 10l19 16q2 -4 5.5 -10t17.5 -21.5t31.5 -27t47.5 -21t64 -9.5q95 0 155 59t60 152
q0 74 -43 118.5t-116 44.5q-30 0 -57.5 -6t-46 -15t-33 -18t-21.5 -15l-6 -7h-22z" />
    <glyph glyph-name="six" unicode="6" horiz-adv-x="541" 
d="M391 638q-118 0 -196 -104.5t-78 -284.5v-7l3 -1q12 48 43.5 86t77 59t98.5 21q81 0 128.5 -46.5t47.5 -124.5q0 -105 -66 -173t-168 -68q-86 0 -135 66.5t-49 187.5q0 96 22.5 173.5t62.5 128t94.5 78t117.5 27.5q30 0 56.5 -7t41.5 -15.5t28 -20.5t16.5 -17t6.5 -10
l-17 -15q-3 3 -5.5 7t-15 16t-26.5 20.5t-37.5 16t-50.5 7.5zM335 389q-83 0 -143.5 -56.5t-72.5 -135.5q10 -89 53 -136t112 -47q90 0 150 62t60 158q0 70 -43 112.5t-116 42.5z" />
    <glyph glyph-name="seven" unicode="7" horiz-adv-x="460" 
d="M520 650l-2 -19l-344 -631h-21l322 589l23 41v2q-13 -1 -55 -1h-305l-14 -101h-20l16 120h400z" />
    <glyph glyph-name="eight" unicode="8" horiz-adv-x="549" 
d="M391 349q124 -27 124 -146q0 -92 -67.5 -149.5t-173.5 -57.5q-89 0 -141.5 44.5t-52.5 116.5q0 158 168 192v1q-45 12 -69 46t-24 82q0 79 58 128.5t146 49.5q74 0 118.5 -38.5t44.5 -101.5q0 -61 -35 -106t-96 -60v-1zM177 481q0 -58 38.5 -92t104.5 -31q79 -3 129.5 41
t50.5 115q0 27 -10.5 50t-29 39.5t-45.5 25.5t-59 9q-51 0 -91.5 -19.5t-64 -55.5t-23.5 -82zM276 16q95 0 155.5 51t60.5 132q0 67 -45 103.5t-129 36.5q-101 0 -158.5 -47.5t-57.5 -131.5q0 -42 20.5 -75t60.5 -51t93 -18z" />
    <glyph glyph-name="nine" unicode="9" horiz-adv-x="539" 
d="M341 656q86 0 135.5 -66.5t49.5 -187.5q0 -190 -79 -298.5t-210 -108.5q-30 0 -56 7t-41.5 16t-28 20.5t-16.5 17t-6 9.5h-1l18 15q46 -66 133 -66q118 0 191.5 102.5t73.5 282.5v11h-1q-19 -73 -79.5 -119.5t-139.5 -46.5q-82 0 -129 46.5t-47 124.5q0 105 66 173
t167 68zM287 263q82 0 141.5 54.5t72.5 132.5q-9 91 -51.5 139.5t-111.5 48.5q-90 0 -149.5 -62.5t-59.5 -158.5q0 -70 42.5 -112t115.5 -42z" />
    <glyph glyph-name="colon" unicode=":" horiz-adv-x="199" 
d="M130 436q0 12 9.5 21t20.5 9q10 0 16.5 -7t6.5 -17q0 -12 -9 -21t-21 -9q-6 0 -11.5 3.5t-8.5 9t-3 11.5zM76 18q0 12 9 21t21 9q6 0 11.5 -3.5t8.5 -9t3 -11.5q0 -12 -9.5 -21t-20.5 -9q-10 0 -16.5 7t-6.5 17z" />
    <glyph glyph-name="semicolon" unicode=";" horiz-adv-x="224" 
d="M144 436q0 12 9.5 21t20.5 9q10 0 16.5 -7t6.5 -17q0 -12 -9 -21t-21 -9q-10 0 -16.5 7.5t-6.5 16.5zM90 16q0 8 4 14.5t10.5 10.5t15.5 4q11 0 18 -8.5t7 -23.5q0 -16 -3.5 -31.5t-9.5 -27.5t-13.5 -23t-14.5 -19t-13 -14t-10 -9l-4 -3l-15 19q6 4 14 12t23.5 31.5
t19.5 45.5q-13 0 -21 6t-8 16z" />
    <glyph glyph-name="less" unicode="&#x3c;" horiz-adv-x="373" 
d="M73 265l2 20l300 201l-4 -22l-279 -189l230 -189l-2 -22z" />
    <glyph glyph-name="equal" unicode="=" horiz-adv-x="524" 
d="M119 335l3 20h370l-3 -20h-370zM96 155l3 19h369l-2 -19h-370z" />
    <glyph glyph-name="greater" unicode="&#x3e;" horiz-adv-x="372" 
d="M70 64l2 22l280 189l-231 189l4 22l247 -201l-3 -20z" />
    <glyph glyph-name="question" unicode="?" horiz-adv-x="423" 
d="M287 671q73 0 116 -40.5t43 -107.5q0 -39 -15.5 -72.5t-39 -56t-51 -47t-51.5 -46.5t-41 -54t-19 -69q0 -1 -0.5 -2t-0.5 -2l-20 -1q0 1 1 3v2q2 39 19 72.5t41 56t51.5 47.5t51 46.5t39 53t15.5 67.5q0 59 -38.5 95.5t-102.5 36.5q-68 0 -113 -43t-45 -103q0 -12 2 -21
l-21 -4q-1 10 -1 23q0 69 52 117.5t128 48.5zM202 47q10 0 16.5 -7t6.5 -16q0 -6 -2.5 -11.5t-7 -9.5t-10 -6.5t-10.5 -2.5q-10 0 -16.5 7t-6.5 17q0 12 9.5 20.5t20.5 8.5z" />
    <glyph glyph-name="at" unicode="@" horiz-adv-x="827" 
d="M629 48q-38 0 -57.5 23.5t-14.5 70.5l2 14q-10 -23 -25 -42.5t-34.5 -34t-45 -23t-54.5 -8.5q-64 0 -102 45t-38 120q0 99 54.5 162.5t137.5 63.5q53 0 87.5 -30t41.5 -76l13 99h20l-37 -290q-10 -76 55 -76q59 0 106 72t47 182q0 132 -77 210.5t-211 78.5
q-112 0 -202.5 -53t-142 -149t-51.5 -217q0 -92 37 -162t106 -108t162 -38q51 0 98 11t76 25t55 32.5t33.5 26l13.5 13.5l10 -15v-1q-2 -2 -5 -4.5t-11.5 -10.5t-18 -15t-25 -17t-32 -18t-39 -16.5t-46 -14.5t-53 -9.5t-59.5 -3.5q-147 0 -233 88t-86 234q0 127 54 227.5
t149 156t212 55.5q94 0 163.5 -37.5t105.5 -106t36 -159.5q0 -120 -52 -197.5t-123 -77.5zM404 66q64 0 108 45.5t53 98.5l9 72q3 51 -29.5 95t-93.5 44q-74 0 -122 -57.5t-48 -147.5q0 -68 33 -109t90 -41z" />
    <glyph glyph-name="A" unicode="A" horiz-adv-x="563" 
d="M510 0l-47 199h-313l-97 -199h-23l322 650h24l156 -650h-22zM160 219h298l-92 388q-3 18 -4 22h-2q-1 -5 -9 -22z" />
    <glyph glyph-name="B" unicode="B" horiz-adv-x="582" 
d="M428 340q22 -3 41.5 -12t37.5 -25t28 -43.5t10 -63.5q0 -95 -62 -145.5t-176 -50.5h-207l84 650h207q82 0 127 -37.5t45 -107.5q0 -42 -14.5 -74.5t-37.5 -50t-43.5 -26.5t-39.5 -12v-2zM204 631l-36 -281h212q75 0 118 43.5t43 108.5q0 59 -38 94t-116 35h-183zM309 20
q103 0 158 43.5t55 127.5q0 65 -37 102t-107 37h-213l-40 -310h184z" />
    <glyph glyph-name="C" unicode="C" horiz-adv-x="600" 
d="M416 656q48 0 85.5 -15t58 -37t33.5 -49t17 -48.5t3 -38.5l-23 -5q1 8 0 20t-5.5 28.5t-12 33.5t-21.5 34t-32 29.5t-45.5 21t-60.5 8.5q-125 0 -209 -100.5t-84 -262.5q0 -121 60 -190.5t163 -69.5q41 0 78.5 11.5t64 30t42.5 33t28 29.5l14 -14q-14 -16 -31 -31.5
t-45.5 -34.5t-68.5 -31t-84 -12q-112 0 -177 73t-65 202q0 175 90 280t227 105z" />
    <glyph glyph-name="D" unicode="D" horiz-adv-x="613" 
d="M325 650q127 0 200 -73.5t73 -202.5q0 -166 -87 -270t-232 -104h-179l84 650h141zM281 20q136 0 216 98t80 254q0 122 -68 190.5t-186 68.5h-120l-79 -611h157z" />
    <glyph glyph-name="E" unicode="E" horiz-adv-x="513" 
d="M543 631h-340l-36 -281h311l-2 -20h-312l-40 -310h340l-3 -20h-361l84 650h361z" />
    <glyph glyph-name="F" unicode="F" horiz-adv-x="475" 
d="M529 631h-326l-36 -281h287l-2 -20h-288l-43 -330h-21l84 650h347z" />
    <glyph glyph-name="G" unicode="G" horiz-adv-x="616" 
d="M410 656q49 0 87 -15t58.5 -36.5t33.5 -49.5t17 -48.5t3 -37.5l-22 -6q1 12 -1.5 30.5t-13 44.5t-29 47.5t-54 37t-82.5 15.5q-123 0 -205 -103t-82 -263q0 -117 54.5 -187t150.5 -70q40 0 76 11.5t60.5 30t43 42t29 45t13.5 41.5l12 92h-248l2 20h268l-38 -297h-13
q3 62 10 124q-28 -55 -84 -91.5t-134 -36.5q-105 0 -164 74.5t-59 199.5q0 67 15 127.5t43 107t66.5 81t86 52.5t100.5 18z" />
    <glyph glyph-name="H" unicode="H" horiz-adv-x="667" 
d="M630 650h21l-84 -650h-21l42 330h-424l-43 -330h-21l84 650h21l-38 -300h424z" />
    <glyph glyph-name="I" unicode="I" horiz-adv-x="222" 
d="M100 0l84 650h21l-84 -650h-21z" />
    <glyph glyph-name="J" unicode="J" horiz-adv-x="399" 
d="M40 72q45 -57 115 -57q129 0 148 144l64 491h21l-63 -487q-21 -167 -173 -167q-82 0 -128 58z" />
    <glyph glyph-name="K" unicode="K" horiz-adv-x="601" 
d="M597 0h-11.5h-13.5q-32 0 -56.5 22.5t-38.5 57t-30 74t-31 74t-42 57t-62 22.5h-150l-40 -307h-22l84 650h22l-42 -323h150q22 0 48 8.5t58 32t59 58t49.5 93t32.5 131.5h22q-8 -56 -21.5 -103.5t-31.5 -81t-38 -59t-43.5 -43t-43.5 -28.5t-43 -19q29 -9 52.5 -42.5
t39.5 -75.5t32.5 -83t39 -68.5t50.5 -27.5h23z" />
    <glyph glyph-name="L" unicode="L" horiz-adv-x="475" 
d="M124 20h341l-3 -20h-362l84 650h21z" />
    <glyph glyph-name="M" unicode="M" horiz-adv-x="767" 
d="M750 650l-83 -650h-21l76 587l5 36l-2 1q-3 -12 -16 -36l-315 -590h-18l-166 589q-3 10 -4.5 18t-2 13t-0.5 6l-2 -1q0 -8 -3 -36l-77 -587h-21l84 650h31l162 -586q7 -23 10 -42h2q4 13 20 42l311 586h30z" />
    <glyph glyph-name="N" unicode="N" horiz-adv-x="653" 
d="M637 650l-84 -650h-33l-288 568l-29 59l-2 -1q1 -8 -3 -46l-76 -580h-22l84 650h29l290 -569q3 -7 14 -28.5t16 -32.5l2 1l5 48l76 581h21z" />
    <glyph glyph-name="O" unicode="O" horiz-adv-x="672" 
d="M421 656q107 0 172 -74t65 -203q0 -87 -25.5 -160t-69.5 -121.5t-102.5 -75t-124.5 -26.5q-107 0 -172 74t-65 203q0 88 25 160.5t69 121t103 75t125 26.5zM338 15q48 0 93 16t82 47.5t65 74.5t43.5 100.5t15.5 122.5q0 80 -28 139.5t-77.5 91t-113.5 31.5
q-61 0 -115 -26t-95 -72t-64.5 -114.5t-23.5 -149.5q0 -120 60 -190.5t158 -70.5z" />
    <glyph glyph-name="P" unicode="P" horiz-adv-x="546" 
d="M378 650q87 0 137.5 -48t50.5 -128q0 -98 -67 -159.5t-171 -61.5h-174l-33 -253h-21l84 650h194zM329 273q62 0 111 24.5t76.5 69.5t27.5 104q0 72 -45.5 116t-122.5 44h-173l-46 -358h172z" />
    <glyph glyph-name="Q" unicode="Q" horiz-adv-x="706" 
d="M658 379q0 -164 -82.5 -266.5t-208.5 -115.5q110 -44 199 -52l-8 -21q-15 1 -29 3.5t-25.5 4.5t-26 6.5t-23 6.5t-23 7.5t-20.5 8t-22 9t-20 8t-21 9.5t-19 9q-104 3 -167 76.5t-63 200.5q0 88 25 160.5t69 121t103 75t125 26.5q107 0 172 -74t65 -203zM120 276
q0 -120 60 -190.5t158 -70.5q61 0 115 25.5t95 71.5t65 114.5t24 149.5q0 80 -28 139.5t-77.5 91t-113.5 31.5q-60 0 -114.5 -26t-95.5 -72t-64.5 -114.5t-23.5 -149.5z" />
    <glyph glyph-name="R" unicode="R" horiz-adv-x="559" 
d="M534 15l10 2v-20q-5 -1 -15 -1q-31 0 -53 20t-32.5 50.5t-24.5 65.5t-28.5 65t-45 50.5t-74.5 20.5h-115l-35 -268h-21l84 650h175q82 0 130 -45.5t48 -122.5q0 -92 -55 -146.5t-147 -65.5q33 -4 56 -32.5t37 -65t27 -72t32.5 -60.5t46.5 -25zM159 287h145q90 0 151 52
t61 140q0 69 -44 110.5t-118 41.5h-151z" />
    <glyph glyph-name="S" unicode="S" horiz-adv-x="520" 
d="M500 521q-3 14 -12.5 32t-27.5 38t-50 33t-71 13q-78 0 -131.5 -43.5t-53.5 -112.5q0 -37 18.5 -63t48 -40.5t65 -26t70.5 -24t64.5 -29.5t48 -47t18.5 -73q0 -83 -61 -132.5t-164 -49.5q-77 0 -129.5 22.5t-80.5 51.5l14 16q21 -20 40.5 -32.5t62 -25.5t95.5 -13
q89 0 145.5 45t56.5 115q0 39 -18.5 66.5t-48 42.5t-65 27l-71 24t-65 28.5t-48 46t-18.5 71.5q0 79 57.5 127t150.5 48q30 0 55.5 -6t44 -16.5t33 -23.5t24.5 -28.5t16 -28.5t10 -27z" />
    <glyph glyph-name="T" unicode="T" horiz-adv-x="493" 
d="M235 0l82 631h-222l2 19h467l-3 -19h-223l-82 -631h-21z" />
    <glyph glyph-name="U" unicode="U" horiz-adv-x="643" 
d="M614 650h21l-49 -384q-17 -132 -86 -201t-178 -69t-161 69t-35 201l49 384h22l-49 -384q-16 -124 30.5 -187.5t146 -63.5t161.5 63.5t79 187.5z" />
    <glyph glyph-name="V" unicode="V" horiz-adv-x="558" 
d="M136 650l141 -607q4 -16 4 -21h1q2 6 9 21l299 607h21l-319 -650h-25l-154 650h23z" />
    <glyph glyph-name="W" unicode="W" horiz-adv-x="836" 
d="M865 650h21l-267 -650h-28l-89 585q-3 19 -3 40h-1q0 -1 -5.5 -17t-9.5 -23l-237 -585h-29l-100 650h22l91 -607q3 -15 3 -22h2q2 7 8 22l247 607h22l93 -607q2 -15 2 -22h2q6 18 8 22z" />
    <glyph glyph-name="X" unicode="X" horiz-adv-x="520" 
d="M578 650l-265 -330l181 -320h-24l-154 272q-11 18 -15 35h-1q-1 -1 -5.5 -7.5t-10 -14t-9.5 -12.5l-222 -273h-24l260 320l-178 330h24l152 -282q8 -16 16 -36h1q4 11 25 36l223 282h26z" />
    <glyph glyph-name="Y" unicode="Y" horiz-adv-x="536" 
d="M591 650l-278 -388l-34 -262h-22l34 263l-178 387h25l149 -328q3 -7 6.5 -16t6.5 -17t4 -10h1q17 30 27 43l235 328h24z" />
    <glyph glyph-name="Z" unicode="Z" horiz-adv-x="506" 
d="M32 0l2 20l476 586q13 16 20 24v2q-5 -1 -41 -1h-365l2 19h433l-2 -19l-476 -587q-17 -20 -21 -23l1 -2q7 1 41 1h366l-2 -20h-434z" />
    <glyph glyph-name="bracketleft" unicode="[" horiz-adv-x="238" 
d="M69 -204l118 910h107l-2 -19h-87l-113 -872h87l-3 -19h-107z" />
    <glyph glyph-name="backslash" unicode="\" horiz-adv-x="352" 
d="M293 -204h-21l-147 910h21z" />
    <glyph glyph-name="bracketright" unicode="]" horiz-adv-x="238" 
d="M9 -204l2 19h87l112 872h-87l4 19h107l-118 -910h-107z" />
    <glyph glyph-name="asciicircum" unicode="^" horiz-adv-x="332" 
d="M124 533l119 177h29l72 -177h-22l-67 155l-107 -155h-24z" />
    <glyph glyph-name="underscore" unicode="_" horiz-adv-x="305" 
d="M-12 -89l2 19h306l-2 -19h-306z" />
    <glyph glyph-name="grave" unicode="`" horiz-adv-x="218" 
d="M214 546l-60 135h28l49 -133z" />
    <glyph glyph-name="a" unicode="a" horiz-adv-x="547" 
d="M464 55q-5 -40 28 -40q7 0 15 2v-18q-9 -3 -22 -3q-50 0 -42 58l11 74h-2q-23 -57 -76 -94.5t-120 -37.5q-54 0 -93.5 24.5t-60.5 69.5t-21 105q0 119 67 195t168 76q47 0 83.5 -18.5t56 -49t23.5 -68.5h1q17 108 22 132h15zM258 15q41 0 77.5 16t61.5 41.5t41 54.5
t22 58l12 92q2 29 -6.5 58t-26.5 54.5t-50.5 42t-74.5 16.5q-92 0 -152 -70.5t-60 -180.5q0 -83 42 -132.5t114 -49.5z" />
    <glyph glyph-name="b" unicode="b" horiz-adv-x="543" 
d="M346 467q80 0 127 -54t47 -145q0 -119 -66.5 -195t-167.5 -76q-71 0 -114 38.5t-50 97.5h-1q-8 -67 -21 -132h-15l90 699h20l-46 -364q23 57 76 94t121 37zM288 16q92 0 152 70t60 180q0 83 -42 133t-115 50q-77 0 -132.5 -52.5t-68.5 -114.5l-12 -98q-2 -28 6.5 -57
t27 -54.5t50.5 -41t74 -15.5z" />
    <glyph glyph-name="c" unicode="c" horiz-adv-x="477" 
d="M320 466q68 0 108 -37.5t40 -97.5q0 -11 -2 -22.5t-4 -17.5l-1 -6l-20 -2q6 15 6 43q0 54 -35 88t-95 34t-109 -32t-77.5 -89.5t-28.5 -129.5q0 -83 44 -132.5t122 -49.5q88 0 147 58l12 -14q-64 -63 -160 -63q-88 0 -137 54t-49 145q0 119 68 195t171 76z" />
    <glyph glyph-name="d" unicode="d" horiz-adv-x="547" 
d="M464 55q-5 -40 28 -40q7 0 15 2v-18q-9 -3 -22 -3q-48 0 -41 58l10 74h-2q-24 -57 -75.5 -94t-120.5 -37q-81 0 -127.5 54t-46.5 145q0 119 66.5 195t167.5 76q45 0 81 -18t56.5 -47.5t26.5 -67.5l47 366h20zM259 16q43 0 81 17t63 44.5t40 58t19 59.5l10 79q4 39 -11 78
t-53.5 68t-93.5 29q-91 0 -151.5 -70.5t-60.5 -180.5q0 -83 42 -132.5t115 -49.5z" />
    <glyph glyph-name="e" unicode="e" horiz-adv-x="481" 
d="M312 466q69 0 111 -45.5t42 -123.5q0 -16 -2 -31.5t-4 -22.5l-2 -8h-353q-2 -18 -2 -38q0 -83 43.5 -132.5t121.5 -49.5q87 0 145 58l12 -13q-62 -64 -160 -64q-85 0 -134 54t-49 144q0 122 68 197t163 75zM311 448q-74 0 -132 -53t-73 -141h335q4 12 4 42q0 72 -36 112
t-98 40z" />
    <glyph glyph-name="f" unicode="f" horiz-adv-x="324" 
d="M327 710q57 0 92 -35l-15 -15q-2 3 -7 7t-14.5 10t-25 10t-33.5 4q-46 0 -79.5 -36t-41.5 -95l-12 -98h178l-2 -18h-179l-56 -444h-21l57 444h-67l3 18h66l12 98q9 69 49 109.5t96 40.5z" />
    <glyph glyph-name="g" unicode="g" horiz-adv-x="543" 
d="M502 462h14l-63 -485q-11 -88 -71 -136.5t-151 -48.5q-64 0 -112 20.5t-63 36.5l12 18q16 -18 63 -37t103 -19q82 0 135.5 43t63.5 122l20 152q-16 -38 -44 -67.5t-68 -47t-85 -17.5q-54 0 -93.5 24.5t-60.5 69.5t-21 105q0 119 67 195t168 76q71 0 113.5 -38.5
t49.5 -97.5h1q17 108 22 132zM259 15q41 0 78.5 17t62.5 43.5t41 57t20 59.5l11 87q1 28 -7.5 57t-26.5 54.5t-50.5 41.5t-73.5 16q-92 0 -152 -70.5t-60 -180.5q0 -83 42 -132.5t115 -49.5z" />
    <glyph glyph-name="h" unicode="h" horiz-adv-x="541" 
d="M490 15q8 0 16 2v-18q-10 -3 -22 -3q-48 0 -41 58l29 229q9 74 -26.5 119.5t-103.5 45.5q-40 0 -76 -16.5t-61.5 -42t-42 -55.5t-21.5 -59l-36 -275h-20l91 706h19l-48 -375h1q23 58 76.5 96.5t120.5 38.5q78 0 117 -50.5t30 -132.5l-29 -229q-6 -39 27 -39z" />
    <glyph glyph-name="i" unicode="i" horiz-adv-x="197" 
d="M203 619q0 -8 -4 -15t-11 -11t-15 -4q-9 0 -16 7.5t-7 17.5q0 12 9.5 20.5t20.5 8.5q10 0 16.5 -7t6.5 -17zM166 463l-54 -410q-4 -38 26 -38q7 0 15 2v-18q-9 -3 -21 -3q-47 0 -40 56l54 410z" />
    <glyph glyph-name="j" unicode="j" horiz-adv-x="201" 
d="M212 618q0 -11 -9.5 -20t-21.5 -9q-9 0 -16 7.5t-7 17.5q0 12 9.5 20.5t21.5 8.5q7 0 12 -3.5t8 -9t3 -12.5zM-96 -168q24 -21 66 -21q51 0 78.5 29.5t36.5 99.5l67 522l20 1l-67 -523q-5 -38 -15.5 -65.5t-27.5 -46t-40.5 -27.5t-54.5 -9q-22 0 -40 6t-25 11l-7 6z" />
    <glyph glyph-name="k" unicode="k" horiz-adv-x="485" 
d="M473 428q-8 -63 -42.5 -113.5t-88.5 -72.5l106 -242h-25l-102 236q-25 -7 -51 -7h-135l-30 -229h-20l91 706h20l-59 -458h134q72 0 123.5 50.5t58.5 130.5q0 6 0.5 16.5t1.5 16.5h20q-1 -6 -1.5 -17t-0.5 -17z" />
    <glyph glyph-name="l" unicode="l" horiz-adv-x="195" 
d="M87 0l91 706h20l-91 -706h-20z" />
    <glyph glyph-name="m" unicode="m" horiz-adv-x="851" 
d="M799 15q9 0 16 2l-1 -18q-9 -3 -21 -3q-48 0 -41 58l29 229q10 74 -23.5 119.5t-100.5 45.5q-48 0 -90 -28.5t-65.5 -67t-30.5 -77.5l-36 -275h-20l37 283q9 74 -24 119.5t-100 45.5q-73 0 -125 -55.5t-63 -122.5l-35 -270h-20l60 462l15 1q-4 -62 -14 -133h1
q22 59 72 97.5t114 38.5q65 0 102 -39t39 -105q20 62 71 103t116 41q76 0 113.5 -50.5t26.5 -132.5l-29 -229q-6 -39 27 -39z" />
    <glyph glyph-name="n" unicode="n" horiz-adv-x="541" 
d="M490 15q8 0 16 2v-18q-10 -3 -23 -3q-47 0 -40 58l29 229q9 74 -26.5 119.5t-103.5 45.5q-33 0 -63.5 -11t-53 -29t-40.5 -41t-29 -47t-15 -47l-36 -273h-20l60 462l15 1q-4 -62 -14 -133h1q23 58 77.5 97t120.5 39q78 0 117 -50.5t30 -132.5l-29 -229q-6 -39 27 -39z
" />
    <glyph glyph-name="o" unicode="o" horiz-adv-x="524" 
d="M322 466q84 0 132.5 -54.5t48.5 -145.5q0 -119 -68 -194.5t-173 -75.5q-83 0 -131.5 54.5t-48.5 145.5q0 119 68 194.5t172 75.5zM264 15q47 0 87.5 18t69.5 50.5t45.5 79.5t16.5 101q0 84 -44 134t-119 50q-62 0 -112 -31.5t-78 -88.5t-28 -130q0 -84 43.5 -133.5
t118.5 -49.5z" />
    <glyph glyph-name="p" unicode="p" horiz-adv-x="543" 
d="M346 466q80 0 127 -54t47 -145q0 -119 -66.5 -195t-167.5 -76q-68 0 -112 37.5t-52 95.5l-43 -333h-20l86 666l15 1q-5 -80 -14 -133h1q22 60 74.5 98t124.5 38zM288 15q60 0 108.5 31.5t76 88.5t27.5 130q0 83 -42 133t-115 50q-42 0 -79 -16.5t-61.5 -42.5t-40.5 -56
t-22 -59l-10 -84q-3 -41 12 -80t53 -67t93 -28z" />
    <glyph glyph-name="q" unicode="q" horiz-adv-x="542" 
d="M502 462h14l-86 -666h-20l43 331q-24 -57 -77 -94t-120 -37q-54 0 -93.5 24.5t-60.5 69.5t-21 105q0 119 67 195t168 76q71 0 113.5 -38.5t49.5 -97.5h1q17 108 22 132zM258 15q41 0 78 16.5t62 42.5t41.5 56t20.5 59l12 90q1 19 -2.5 38t-11 38t-21 35.5t-30.5 29.5
t-41 20.5t-52 7.5q-92 0 -152 -70.5t-60 -180.5q0 -83 42 -132.5t114 -49.5z" />
    <glyph glyph-name="r" unicode="r" horiz-adv-x="292" 
d="M297 466q24 0 39 -5l-6 -19q-15 5 -36 5q-25 0 -49 -13t-41 -34t-31 -46t-22 -47.5t-11 -40.5l-35 -266h-20l60 462l15 1q-4 -62 -14 -133h1q19 55 59.5 95.5t90.5 40.5z" />
    <glyph glyph-name="s" unicode="s" horiz-adv-x="423" 
d="M377 321q5 12 5 36q0 43 -31.5 67t-83.5 24q-62 0 -101 -30.5t-39 -79.5q0 -29 19.5 -48.5t48.5 -28t62.5 -18.5t62.5 -20t48 -33t19 -57q0 -41 -21 -72t-61 -48t-94 -17q-107 0 -159 66l17 12l1 -1q47 -58 143 -58q46 0 80.5 13.5t53.5 39.5t19 60q0 35 -26.5 56.5
t-64.5 32t-76 21.5t-65 34.5t-27 62.5q0 58 45 94.5t117 36.5q60 0 97 -27.5t37 -75.5q0 -6 -0.5 -12t-1.5 -10.5t-2 -8.5t-1 -6l-1 -2z" />
    <glyph glyph-name="t" unicode="t" horiz-adv-x="345" 
d="M184 444l-38 -305q-9 -63 12 -94t76 -31q25 0 49.5 8t37.5 16l12 8l7 -15q-5 -4 -14.5 -10t-38 -16t-55.5 -10q-65 0 -90.5 35.5t-15.5 108.5l39 305h-75l2 18h75l20 145l19 2l-19 -147h190l-2 -18h-191z" />
    <glyph glyph-name="u" unicode="u" horiz-adv-x="526" 
d="M444 55q-6 -40 28 -40q7 0 15 2v-18q-10 -3 -22 -3q-48 0 -41 58l8 75q-24 -58 -76.5 -95.5t-117.5 -37.5q-75 0 -110.5 48.5t-25.5 130.5l37 287h20l-37 -287q-6 -48 5.5 -84.5t41 -56t74.5 -19.5q39 0 74.5 16t60 42t40.5 55.5t22 58.5l36 275h21z" />
    <glyph glyph-name="v" unicode="v" horiz-adv-x="459" 
d="M468 462h22l-245 -462h-30l-126 462h23l118 -435q1 -4 1 -9h2l4 9z" />
    <glyph glyph-name="w" unicode="w" horiz-adv-x="657" 
d="M664 462h21l-198 -462h-29l-66 398q-5 27 -5 36h-1q-1 -2 -3.5 -8.5t-6 -15t-5.5 -12.5l-169 -398h-30l-80 462h23l71 -428q0 -1 2 -16h2q2 6 7 16l181 428h22l72 -428q1 -5 2 -16h2q1 0 2 2.5t2.5 6.5t3.5 7z" />
    <glyph glyph-name="x" unicode="x" horiz-adv-x="415" 
d="M444 462l-195 -231l135 -231h-25l-118 205q-5 9 -5 10h-1q-3 -6 -7 -10l-171 -205h-25l194 231l-135 231h25l118 -205q5 -10 6 -11h1q1 3 7 11l171 205h25z" />
    <glyph glyph-name="y" unicode="y" horiz-adv-x="522" 
d="M476 462h20l-63 -485q-8 -59 -33.5 -99.5t-71 -63t-107.5 -22.5q-84 0 -150 42l12 19q18 -16 54.5 -29t86.5 -13q168 0 190 165l21 156h-2q-23 -60 -74.5 -98t-120.5 -38q-75 0 -110.5 48.5t-25.5 130.5l37 287h20l-37 -287q-6 -48 5.5 -84.5t41 -56t73.5 -19.5
q53 0 97.5 28.5t69 67.5t31.5 78z" />
    <glyph glyph-name="z" unicode="z" horiz-adv-x="404" 
d="M37 0l2 19l348 414q2 2 4 4.5t3.5 4t3.5 2.5l-1 1q-5 -1 -20 -1h-276l2 18h320l-2 -18l-349 -415q-3 -4 -10 -10l1 -2q5 2 20 2h283l-2 -19h-327z" />
    <glyph glyph-name="braceleft" unicode="{" horiz-adv-x="259" 
d="M200 -208q-51 0 -80 30.5t-20 100.5l31 242q4 34 -12 50.5t-39 16.5h-10l2 18h10q24 0 44 16.5t25 50.5l34 262q9 71 45.5 101t86.5 30l-2 -20q-46 0 -74.5 -27.5t-36.5 -84.5l-33 -262q-6 -37 -24 -54.5t-32 -20.5q43 -19 36 -75l-31 -242q-14 -112 83 -112z" />
    <glyph glyph-name="bar" unicode="|" horiz-adv-x="212" 
d="M69 -204l116 900h21l-115 -900h-22z" />
    <glyph glyph-name="braceright" unicode="}" horiz-adv-x="259" 
d="M8 -188q97 0 111 112l31 242q7 57 57 75q-5 1 -11.5 4.5t-14 11.5t-11 23.5t-0.5 35.5l34 262q7 57 -15 84.5t-67 27.5l2 20q23 0 42 -6.5t34 -20.5t21.5 -40.5t1.5 -63.5l-33 -262q-4 -34 12 -50.5t41 -16.5h9l-2 -18h-10q-25 0 -45.5 -17t-24.5 -50l-31 -242
q-9 -70 -46.5 -100.5t-87.5 -30.5z" />
    <glyph glyph-name="asciitilde" unicode="~" horiz-adv-x="535" 
d="M112 264l3 21q47 29 99 29q35 0 93 -20t91 -20q58 0 100 31l-3 -21q-43 -30 -101 -30q-33 0 -90 20t-92 20q-53 0 -100 -30z" />
    <glyph glyph-name="exclamdown" unicode="&#xa1;" horiz-adv-x="191" 
d="M149 413q-10 0 -16 7t-6 16q0 13 8.5 21.5t20.5 8.5q9 0 15.5 -7t6.5 -16q0 -13 -8.5 -21.5t-20.5 -8.5zM58 -203l66 487l17 1l-60 -488h-23z" />
    <glyph glyph-name="cent" unicode="&#xa2;" horiz-adv-x="481" 
d="M338 464q91 -3 136 -63l-15 -13q-45 58 -132 58q-66 0 -116.5 -32t-78 -88.5t-27.5 -128.5q0 -83 44 -132.5t122 -49.5q88 0 147 58l12 -14q-31 -30 -69.5 -45.5t-81.5 -17.5l-12 -91h-18l12 91q-83 3 -130 56.5t-47 142.5q0 116 65.5 191t171.5 78l12 92h18z" />
    <glyph glyph-name="sterling" unicode="&#xa3;" horiz-adv-x="525" 
d="M369 657q29 0 55 -5t43.5 -13t31.5 -17.5t22.5 -19.5t14 -18t7.5 -13l2 -5l-19 -10q-2 4 -4.5 9.5t-15 19.5t-29 24.5t-46.5 19.5t-66 9q-90 0 -148.5 -57.5t-58.5 -145.5q0 -11 1 -22t4 -22.5t5 -20t6.5 -20t7.5 -18t8.5 -19.5t7.5 -19h241l-2 -19h-231q18 -45 18 -84
q0 -103 -110 -171l1 -2q4 2 15 2h331l-2 -20h-383l2 19l35 21q89 62 89 149q0 38 -21 86h-93l2 19h83q-10 23 -13.5 32.5t-11 29.5t-10 38t-2.5 38q0 99 65.5 162t167.5 63z" />
    <glyph glyph-name="currency" unicode="&#xa4;" horiz-adv-x="563" 
d="M174 327q0 55 35 107l-68 85l14 13l67 -83q54 59 125 59q68 0 109 -59l88 83l12 -13l-91 -85q15 -35 15 -71q0 -53 -37 -102l69 -85l-15 -13l-67 82q-51 -56 -123 -56q-73 0 -111 58l-88 -84l-11 13l90 86q-13 26 -13 65zM193 332q0 -52 32.5 -88t83.5 -36q60 0 105.5 46
t45.5 110q0 21 -5.5 40t-15.5 34t-24 26.5t-32.5 17.5t-38.5 6q-29 0 -57 -12.5t-48.5 -33.5t-33 -50t-12.5 -60z" />
    <glyph glyph-name="yen" unicode="&#xa5;" horiz-adv-x="561" 
d="M590 650l-271 -378h167l-2 -19h-173l-11 -90h172l-2 -19h-173l-18 -144h-22l18 144h-173l2 19h174l11 90h-173l2 19h168l-173 378h24l150 -328q3 -7 6.5 -16t6.5 -17t4 -10h1q16 30 26 43l235 328h24z" />
    <glyph glyph-name="brokenbar" unicode="&#xa6;" horiz-adv-x="210" 
d="M137 335l47 361h21l-46 -361h-22zM68 -204l46 361h22l-46 -361h-22z" />
    <glyph glyph-name="section" unicode="&#xa7;" horiz-adv-x="530" 
d="M347 638q-80 0 -134 -44t-54 -114q0 -33 14.5 -58t38.5 -38.5t54 -25t61.5 -18.5t61.5 -18t54 -24t38.5 -36.5t14.5 -55.5q0 -33 -13.5 -59t-36 -43t-53.5 -27q71 -37 71 -113q0 -81 -61 -126t-163 -45q-139 0 -210 74l14 16q21 -20 40.5 -32.5t62 -25.5t95.5 -13
q91 0 145.5 39.5t54.5 108.5q0 33 -14.5 57t-38 37t-54 24t-62 17.5t-61.5 17t-54 23.5t-38 36t-14 55q0 48 29.5 83t74.5 49q-73 39 -73 118t61 129t153 50q145 0 177 -130l-24 -6q-4 16 -12 33t-24.5 37.5t-48 34t-72.5 13.5zM474 203q0 30 -15 51t-42.5 33.5t-55.5 21
t-66.5 19t-62.5 20.5q-45 -9 -75.5 -41.5t-30.5 -77.5q0 -30 15 -51t42.5 -33.5t55.5 -20t66.5 -17t62.5 -19.5q106 23 106 115z" />
    <glyph glyph-name="dieresis" unicode="&#xa8;" horiz-adv-x="295" 
d="M143 588q-10 0 -16 7t-6 16q0 12 9 21t20 9q4 0 7.5 -1t6.5 -3.5t5 -5.5t3 -6.5t1 -7.5q0 -12 -9.5 -20.5t-20.5 -8.5zM303 588q-10 0 -16.5 7t-6.5 16q0 12 9.5 21t20.5 9q9 0 16 -7t7 -17q0 -12 -9.5 -20.5t-20.5 -8.5z" />
    <glyph glyph-name="copyright" unicode="&#xa9;" horiz-adv-x="740" 
d="M369 -3q-125 0 -198 77.5t-73 205.5q0 165 100.5 270t254.5 105q125 0 199 -77.5t74 -206.5q0 -164 -101 -269t-256 -105zM371 15q146 0 240.5 99t94.5 256q0 80 -30.5 140.5t-88.5 93.5t-136 33q-146 0 -239.5 -99t-93.5 -256q0 -121 68 -194t185 -73zM542 175
q-2 -3 -6 -7.5t-18 -15.5t-30.5 -20t-43 -16t-54.5 -7q-74 0 -117.5 47.5t-43.5 125.5q0 108 60 178t153 70q35 0 61 -11t39 -25.5t21 -32t9.5 -27.5t1.5 -14l-21 -4q0 3 -1 9.5t-7 23t-17 29t-34 23t-54 10.5q-54 0 -97.5 -29t-68 -81t-24.5 -117q0 -70 38.5 -113
t105.5 -43q27 0 51 6.5t39 15t26.5 17.5t16.5 15l6 6z" />
    <glyph glyph-name="ordfeminine" unicode="&#xaa;" horiz-adv-x="430" 
d="M400 307q2 0 4 0.5t4.5 0.5h3.5v-17l-7.5 -1t-12.5 -1q-40 0 -35 46l5 42h-1q-17 -36 -56.5 -62t-96.5 -26q-47 0 -72.5 20.5t-25.5 57.5q0 34 16.5 58t49 37.5t72 19.5t93.5 7l36 1l5 36q7 51 -20 81.5t-79 30.5q-53 0 -87.5 -29t-34.5 -75q0 -14 1 -14l-20 -4
q-1 8 -1 18q0 54 41 88t105 34q61 0 91.5 -35t23.5 -95l-25 -188q-4 -31 23 -31zM215 307q36 0 66 13.5t47.5 33t26.5 34t12 24.5l8 61l-36 -1q-48 -1 -83.5 -6t-64.5 -16t-44.5 -30.5t-15.5 -47.5q0 -30 21.5 -47.5t62.5 -17.5z" />
    <glyph glyph-name="guillemotleft" unicode="&#xab;" horiz-adv-x="373" 
d="M82 254l3 20l135 130l12 -15l-135 -125l102 -125l-15 -15zM204 254l4 20l135 130l11 -15l-134 -125l102 -125l-15 -15z" />
    <glyph glyph-name="registered" unicode="&#xae;" horiz-adv-x="451" 
d="M265 306q-44 0 -77 19.5t-51 53.5t-18 78q0 86 55 142.5t135 56.5q66 0 106.5 -42t40.5 -111q0 -85 -55 -141t-136 -56zM266 322q72 0 122 51.5t50 126.5q0 61 -36.5 101t-94.5 40q-47 0 -86.5 -23.5t-62 -65t-22.5 -93.5q0 -61 35.5 -99t94.5 -38zM357 378q-4 -1 -9 -1
q-16 0 -25 13.5t-11.5 29.5t-11 29.5t-25.5 13.5h-39l-12 -85h-18l28 213h67q24 0 39.5 -15t15.5 -39q0 -19 -7.5 -33.5t-18 -21.5t-17.5 -10.5t-10 -4.5q10 -4 16.5 -16.5t9 -25t8 -22.5t15.5 -10h5v-15zM280 479q17 0 30 7.5t19.5 20t6.5 28.5q0 12 -5 21t-14.5 14.5
t-21.5 5.5h-44l-13 -97h42z" />
    <glyph glyph-name="macron" unicode="&#xaf;" horiz-adv-x="325" 
d="M125 605l2 19h230l-2 -19h-230z" />
    <glyph glyph-name="degree" unicode="&#xb0;" horiz-adv-x="333" 
d="M347 557q0 -58 -35.5 -94t-90.5 -36q-44 0 -70 27t-26 71q0 38 16.5 68t45 46.5t64.5 16.5q29 0 51 -12.5t33.5 -35t11.5 -51.5zM331 555q0 38 -22.5 61.5t-59.5 23.5q-47 0 -77.5 -31.5t-30.5 -81.5q0 -38 22 -61t60 -23q47 0 77.5 31t30.5 81z" />
    <glyph glyph-name="plusminus" unicode="&#xb1;" horiz-adv-x="454" 
d="M280 331h140l-3 -19h-139l-17 -128h-21l16 128h-141l4 19h140l16 124h21zM87 88l2 19h301l-2 -19h-301z" />
    <glyph glyph-name="acute" unicode="&#xb4;" horiz-adv-x="218" 
d="M153 548l-19 -2l82 135h29z" />
    <glyph glyph-name="paragraph" unicode="&#xb6;" horiz-adv-x="470" 
d="M324 -204l107 836h-86l-107 -836h-18l68 533h-29q-77 0 -123 39t-46 103q0 80 59 129.5t151 49.5h153l-111 -854h-18z" />
    <glyph glyph-name="periodcentered" unicode="&#xb7;" horiz-adv-x="199" 
d="M119 363q0 12 9.5 21t20.5 9q10 0 16.5 -7.5t6.5 -16.5q0 -12 -9 -21t-21 -9q-10 0 -16.5 7t-6.5 17z" />
    <glyph glyph-name="cedilla" unicode="&#xb8;" horiz-adv-x="242" 
d="M112 -40q17 -1 31.5 -8t24.5 -21.5t10 -33.5q0 -33 -24.5 -54t-64.5 -21q-19 0 -33.5 6t-20.5 12l-5 6l11 15q18 -20 51 -20q30 0 48.5 15t18.5 39q0 21 -17.5 36.5t-56.5 15.5l28 55l19 -2z" />
    <glyph glyph-name="ordmasculine" unicode="&#xba;" horiz-adv-x="441" 
d="M306 656q65 0 103.5 -43t38.5 -114q0 -92 -54 -151t-136 -59q-66 0 -104.5 42.5t-38.5 113.5q0 92 54 151.5t137 59.5zM261 307q47 0 84.5 24t59.5 67.5t22 98.5q0 65 -33.5 103t-91.5 38q-72 0 -119 -53.5t-47 -137.5q0 -64 33.5 -102t91.5 -38z" />
    <glyph glyph-name="guillemotright" unicode="&#xbb;" horiz-adv-x="373" 
d="M98 124l-11 15l134 125l-101 125l13 15l105 -130l-3 -20zM220 124l-10 15l133 125l-101 125l14 15l104 -130l-4 -20z" />
    <glyph glyph-name="onequarter" unicode="&#xbc;" horiz-adv-x="743" 
d="M178 0l363 656h21l-364 -656h-20zM180 292l43 335l-118 -25l3 22l134 27h6l-46 -359h-22zM685 359l-31 -248h70l-3 -19h-70l-12 -92h-22l12 92h-225l3 21l255 246h23zM631 111l27 205q0 2 0.5 6.5t1 8t1.5 4.5v1q-1 0 -3 -2.5t-5.5 -6.5t-8.5 -9l-199 -193q-3 -2 -17 -13
v-2q3 1 24 1h179z" />
    <glyph glyph-name="onehalf" unicode="&#xbd;" horiz-adv-x="742" 
d="M178 0l363 656h21l-364 -656h-20zM180 292l43 335l-118 -25l3 22l134 27h6l-46 -359h-22zM452 18q4 1 25 1h225l-2 -19h-279l3 24q19 11 54.5 29.5t62 32.5t59 35.5t54 41t36 45.5t14.5 52q0 39 -29 60.5t-80 21.5q-53 0 -86 -25.5t-33 -66.5q0 -7 1 -8l-22 -5
q0 1 -0.5 2.5t-0.5 4.5v5q0 51 40 82t103 31q61 0 94.5 -26t33.5 -72q0 -28 -13.5 -54.5t-30 -45.5t-48 -41t-51.5 -33.5t-56.5 -31t-48.5 -26.5q-13 -7 -25 -12v-2z" />
    <glyph glyph-name="threequarters" unicode="&#xbe;" horiz-adv-x="823" 
d="M275 0l363 656h21l-363 -656h-21zM267 654q56 0 89 -24t33 -64t-36.5 -66t-80.5 -26v-1q41 0 74.5 -20t33.5 -60q0 -30 -20 -53.5t-56 -36.5t-82 -13q-29 0 -54 6.5t-39 15.5t-24.5 18t-14.5 15l-3 6l18 11q2 -2 4.5 -5.5t13 -13t23 -16.5t34 -12.5t44.5 -5.5
q60 0 97.5 23t37.5 61q0 36 -35 53t-92 17h-23l2 20h22q59 0 96.5 21t37.5 59q0 32 -27.5 52t-74.5 20q-30 0 -55 -9t-40 -26t-15 -37q0 -10 3 -13l-22 -4l-0.5 2t-1 6t-0.5 8q0 39 38.5 65.5t94.5 26.5zM769 359l-32 -248h70l-3 -19h-70l-12 -92h-22l12 92h-225l4 21
l255 246h23zM714 111l27 205q2 14 4 19v1q-1 -1 -3 -2.5t-6.5 -6.5t-8.5 -9l-199 -193q-1 -1 -17 -13v-2q3 1 24 1h179z" />
    <glyph glyph-name="questiondown" unicode="&#xbf;" horiz-adv-x="415" 
d="M276 413q-9 0 -15.5 7t-6.5 16t4 15.5t10.5 10.5t14.5 4q9 0 15.5 -7t6.5 -16q0 -8 -4 -15t-10.5 -11t-14.5 -4zM190 -211q-72 0 -115 40.5t-43 107.5q0 39 15.5 72.5t39 56t51 47t51.5 46.5t41 54t19 69q1 3 1 4l19 1v-2.5v-2.5q-2 -38 -19 -72t-41 -56.5t-51.5 -47.5
t-51 -46.5t-39 -53t-15.5 -67.5q0 -59 38 -95.5t102 -36.5q69 0 114.5 43t45.5 103q0 14 -2 21l19 4q3 -11 3 -25q0 -67 -52.5 -115.5t-129.5 -48.5z" />
    <glyph glyph-name="Agrave" unicode="&#xc0;" horiz-adv-x="563" 
d="M379 681l-19 -2l-62 115h32zM510 0l-47 199h-313l-97 -199h-23l322 650h24l156 -650h-22zM160 219h298l-92 388q-3 18 -4 22h-2q-1 -5 -9 -22z" />
    <glyph glyph-name="Aacute" unicode="&#xc1;" horiz-adv-x="563" 
d="M464 794l-92 -113l-19 -2l80 115h31zM510 0l-47 199h-313l-97 -199h-23l322 650h24l156 -650h-22zM160 219h298l-92 388q-3 18 -4 22h-2q-1 -5 -9 -22z" />
    <glyph glyph-name="Acircumflex" unicode="&#xc2;" horiz-adv-x="563" 
d="M380 772l-93 -92l-24 -1l106 115h29l76 -115l-23 1zM510 0l-47 199h-313l-97 -199h-23l322 650h24l156 -650h-22zM160 219h298l-92 388q-3 18 -4 22h-2q-1 -5 -9 -22z" />
    <glyph glyph-name="Atilde" unicode="&#xc3;" horiz-adv-x="563" 
d="M264 673h-20v9q0 36 18.5 56t49.5 20q23 0 45 -16t41.5 -32t35.5 -16q45 0 45 57v8h20q-1 -13 -2 -24q-3 -30 -20.5 -46t-45.5 -16q-21 0 -43 16.5t-42 32.5t-37 16q-20 0 -32.5 -14.5t-12.5 -43.5v-7zM510 0l-47 199h-313l-97 -199h-23l322 650h24l156 -650h-22z
M160 219h298l-92 388q-3 18 -4 22h-2q-1 -5 -9 -22z" />
    <glyph glyph-name="Adieresis" unicode="&#xc4;" horiz-adv-x="563" 
d="M291 706q-10 0 -16.5 7t-6.5 17q0 12 9.5 20.5t20.5 8.5q7 0 12 -3t8 -8.5t3 -11.5q0 -12 -9.5 -21t-20.5 -9zM451 706q-10 0 -16.5 7t-6.5 17q0 12 9.5 20.5t20.5 8.5q10 0 16 -7t6 -16q0 -12 -9 -21t-20 -9zM510 0l-47 199h-313l-97 -199h-23l322 650h24l156 -650h-22z
M160 219h298l-92 388q-3 18 -4 22h-2q-1 -5 -9 -22z" />
    <glyph glyph-name="Aring" unicode="&#xc5;" horiz-adv-x="563" 
d="M368 672q-24 0 -39.5 16t-15.5 41q0 30 21 51t50 21q25 0 40.5 -16t15.5 -40q0 -31 -21.5 -52t-50.5 -21zM382 783q-14 0 -25.5 -6.5t-17.5 -18.5t-6 -27q0 -19 10 -30t27 -11q15 0 26.5 6.5t18 18.5t6.5 28q0 18 -10.5 29t-28.5 11zM510 0l-47 199h-313l-97 -199h-23
l322 650h24l156 -650h-22zM160 219h298l-92 388q-3 18 -4 22h-2q-1 -5 -9 -22z" />
    <glyph glyph-name="AE" unicode="&#xc6;" horiz-adv-x="954" 
d="M935 631h-340l-37 -281h312l-3 -20h-311l-41 -310h341l-3 -20h-361l26 199h-316l-176 -199h-26l576 650h361zM219 219h301l52 398z" />
    <glyph glyph-name="Ccedilla" unicode="&#xc7;" horiz-adv-x="600" 
d="M416 656q48 0 85.5 -15t58 -37t33.5 -49t17 -48.5t3 -38.5l-23 -5q1 8 0 20t-5.5 28.5t-12 33.5t-21.5 34t-32 29.5t-45.5 21t-60.5 8.5q-125 0 -209 -100.5t-84 -262.5q0 -121 60 -190.5t163 -69.5q41 0 78.5 11.5t64 30t42.5 33t28 29.5l14 -14q-13 -15 -30 -30.5
t-44.5 -34t-65.5 -31t-80 -13.5l-18 -36q27 -2 46.5 -18.5t19.5 -44.5q0 -22 -11 -39t-31.5 -26.5t-46.5 -9.5q-19 0 -34 6t-20 12l-6 6l12 15q18 -20 51 -20q29 0 47.5 15t18.5 39q0 21 -17.5 36.5t-56.5 15.5l25 49q-107 4 -168.5 76.5t-61.5 198.5q0 175 90 280t227 105z
" />
    <glyph glyph-name="Egrave" unicode="&#xc8;" horiz-adv-x="513" 
d="M385 681l-19 -2l-62 115h31zM543 631h-340l-36 -281h311l-2 -20h-312l-40 -310h340l-3 -20h-361l84 650h361z" />
    <glyph glyph-name="Eacute" unicode="&#xc9;" horiz-adv-x="513" 
d="M470 794l-92 -113l-19 -2l80 115h31zM543 631h-340l-36 -281h311l-2 -20h-312l-40 -310h340l-3 -20h-361l84 650h361z" />
    <glyph glyph-name="Ecircumflex" unicode="&#xca;" horiz-adv-x="513" 
d="M386 772l-93 -92l-24 -1l106 115h29l76 -115l-23 1zM543 631h-340l-36 -281h311l-2 -20h-312l-40 -310h340l-3 -20h-361l84 650h361z" />
    <glyph glyph-name="Edieresis" unicode="&#xcb;" horiz-adv-x="513" 
d="M297 706q-10 0 -16.5 7t-6.5 17q0 12 9.5 20.5t20.5 8.5q7 0 12 -3t8 -8.5t3 -11.5q0 -8 -4.5 -15t-11.5 -11t-14 -4zM457 706q-10 0 -16.5 7t-6.5 17q0 12 9.5 20.5t20.5 8.5q9 0 15.5 -7t6.5 -16q0 -12 -9 -21t-20 -9zM543 631h-340l-36 -281h311l-2 -20h-312l-40 -310
h340l-3 -20h-361l84 650h361z" />
    <glyph glyph-name="Igrave" unicode="&#xcc;" horiz-adv-x="222" 
d="M192 679l-63 115h32l49 -113zM100 0l84 650h21l-84 -650h-21z" />
    <glyph glyph-name="Iacute" unicode="&#xcd;" horiz-adv-x="222" 
d="M203 681l-19 -2l80 115h32zM100 0l84 650h21l-84 -650h-21z" />
    <glyph glyph-name="Icircumflex" unicode="&#xce;" horiz-adv-x="222" 
d="M229 794l76 -115l-23 1l-71 92l-93 -92l-24 -1l106 115h29zM100 0l84 650h21l-84 -650h-21z" />
    <glyph glyph-name="Idieresis" unicode="&#xcf;" horiz-adv-x="222" 
d="M122 706q-10 0 -16.5 7t-6.5 17q0 12 9.5 20.5t20.5 8.5q10 0 16.5 -7t6.5 -16q0 -12 -9.5 -21t-20.5 -9zM282 706q-10 0 -16.5 7t-6.5 17q0 12 9.5 20.5t20.5 8.5q10 0 16.5 -7t6.5 -16q0 -12 -9.5 -21t-20.5 -9zM100 0l84 650h21l-84 -650h-21z" />
    <glyph glyph-name="Eth" unicode="&#xd0;" horiz-adv-x="613" 
d="M325 650q127 0 200 -73.5t73 -202.5q0 -166 -87 -270t-232 -104h-179l41 317h-71l2 18h72l40 315h141zM281 20q136 0 216 98t80 254q0 122 -68 190.5t-186 68.5h-120l-38 -296h187l-2 -18h-188l-38 -297h157z" />
    <glyph glyph-name="Ntilde" unicode="&#xd1;" horiz-adv-x="653" 
d="M558 759q-1 -13 -2 -24q-3 -30 -20.5 -46t-45.5 -16q-21 0 -43 16.5t-42 32.5t-37 16q-13 0 -22.5 -6t-15.5 -19t-6 -33v-7h-21v9q0 36 19 56t49 20q23 0 45 -16t41.5 -32t35.5 -16q45 0 45 57v8h20zM637 650l-84 -650h-33l-288 568l-29 59l-2 -1q1 -8 -3 -46l-76 -580
h-22l84 650h29l290 -569q3 -7 14 -28.5t16 -32.5l2 1l5 48l76 581h21z" />
    <glyph glyph-name="Ograve" unicode="&#xd2;" horiz-adv-x="672" 
d="M416 679l-62 115h31l50 -113zM421 656q107 0 172 -74t65 -203q0 -87 -25.5 -160t-69.5 -121.5t-102.5 -75t-124.5 -26.5q-107 0 -172 74t-65 203q0 88 25 160.5t69 121t103 75t125 26.5zM338 15q48 0 93 16t82 47.5t65 74.5t43.5 100.5t15.5 122.5q0 80 -28 139.5
t-77.5 91t-113.5 31.5q-61 0 -115 -26t-95 -72t-64.5 -114.5t-23.5 -149.5q0 -120 60 -190.5t158 -70.5z" />
    <glyph glyph-name="Oacute" unicode="&#xd3;" horiz-adv-x="672" 
d="M428 681l-19 -2l80 115h31zM421 656q107 0 172 -74t65 -203q0 -87 -25.5 -160t-69.5 -121.5t-102.5 -75t-124.5 -26.5q-107 0 -172 74t-65 203q0 88 25 160.5t69 121t103 75t125 26.5zM338 15q48 0 93 16t82 47.5t65 74.5t43.5 100.5t15.5 122.5q0 80 -28 139.5t-77.5 91
t-113.5 31.5q-61 0 -115 -26t-95 -72t-64.5 -114.5t-23.5 -149.5q0 -120 60 -190.5t158 -70.5z" />
    <glyph glyph-name="Ocircumflex" unicode="&#xd4;" horiz-adv-x="672" 
d="M454 794l76 -115l-23 1l-71 92l-93 -92l-24 -1l106 115h29zM421 656q107 0 172 -74t65 -203q0 -87 -25.5 -160t-69.5 -121.5t-102.5 -75t-124.5 -26.5q-107 0 -172 74t-65 203q0 88 25 160.5t69 121t103 75t125 26.5zM338 15q48 0 93 16t82 47.5t65 74.5t43.5 100.5
t15.5 122.5q0 80 -28 139.5t-77.5 91t-113.5 31.5q-61 0 -115 -26t-95 -72t-64.5 -114.5t-23.5 -149.5q0 -120 60 -190.5t158 -70.5z" />
    <glyph glyph-name="Otilde" unicode="&#xd5;" horiz-adv-x="672" 
d="M555 759q-1 -13 -2 -24q-2 -20 -11 -34t-23 -21t-32 -7q-22 0 -43.5 16.5t-41.5 32.5t-37 16q-13 0 -23 -6t-16 -19t-6 -33v-7h-20v9q0 36 18.5 56t49.5 20q22 0 44.5 -16t42 -32t35.5 -16q44 0 44 57v8h21zM421 656q107 0 172 -74t65 -203q0 -87 -25.5 -160
t-69.5 -121.5t-102.5 -75t-124.5 -26.5q-107 0 -172 74t-65 203q0 88 25 160.5t69 121t102.5 75t125.5 26.5zM338 15q48 0 93 16t82 47.5t65 74.5t43.5 100.5t15.5 122.5q0 80 -28 139.5t-77.5 91t-113.5 31.5q-61 0 -115 -26t-95 -72t-64.5 -114.5t-23.5 -149.5
q0 -120 60 -190.5t158 -70.5z" />
    <glyph glyph-name="Odieresis" unicode="&#xd6;" horiz-adv-x="672" 
d="M347 706q-10 0 -16.5 7t-6.5 17q0 12 9.5 20.5t20.5 8.5q6 0 11.5 -3t8.5 -8.5t3 -11.5q0 -12 -9.5 -21t-20.5 -9zM506 706q-9 0 -15.5 7t-6.5 17q0 12 9 20.5t21 8.5q9 0 15.5 -7t6.5 -16q0 -8 -4.5 -15t-11 -11t-14.5 -4zM421 656q107 0 172 -74t65 -203
q0 -87 -25.5 -160t-69.5 -121.5t-102.5 -75t-124.5 -26.5q-107 0 -172 74t-65 203q0 88 25 160.5t69 121t103 75t125 26.5zM338 15q40 0 78 11.5t71 33t60.5 53.5t47.5 71t31 88.5t11 103.5q0 80 -28 139.5t-77.5 91t-113.5 31.5q-61 0 -115 -26t-95 -72t-64.5 -114.5
t-23.5 -149.5q0 -120 60 -190.5t158 -70.5z" />
    <glyph glyph-name="multiply" unicode="&#xd7;" horiz-adv-x="407" 
d="M378 368l-129 -120l99 -120l-16 -14l-99 119l-129 -119l-12 14l130 120l-100 120l16 14l99 -120l129 120z" />
    <glyph glyph-name="Oslash" unicode="&#xd8;" horiz-adv-x="672" 
d="M671 688l-80 -103q67 -75 67 -206q0 -87 -25.5 -160t-69.5 -121.5t-102.5 -75t-124.5 -26.5q-94 0 -156 58l-76 -98h-24l86 111q-67 75 -67 206q0 88 25 160.5t69 121t103 75t125 26.5q94 0 156 -58l70 90h24zM120 276q0 -120 60 -191l384 495q-58 57 -146 57
q-60 0 -114.5 -25.5t-95.5 -71.5t-64.5 -114.5t-23.5 -149.5zM637 376q0 119 -60 190l-384 -495q58 -56 145 -56q61 0 115 25.5t95 71.5t65 114.5t24 149.5z" />
    <glyph glyph-name="Ugrave" unicode="&#xd9;" horiz-adv-x="643" 
d="M402 679l-62 115h31l50 -113zM614 650h21l-49 -384q-17 -132 -86 -201t-178 -69t-161 69t-35 201l49 384h22l-49 -384q-16 -124 30.5 -187.5t146 -63.5t161.5 63.5t79 187.5z" />
    <glyph glyph-name="Uacute" unicode="&#xda;" horiz-adv-x="643" 
d="M414 681l-19 -2l80 115h31zM614 650h21l-49 -384q-17 -132 -86 -201t-178 -69t-161 69t-35 201l49 384h22l-49 -384q-16 -124 30.5 -187.5t146 -63.5t161.5 63.5t79 187.5z" />
    <glyph glyph-name="Ucircumflex" unicode="&#xdb;" horiz-adv-x="643" 
d="M440 794l76 -115l-23 1l-71 92l-93 -92l-24 -1l106 115h29zM614 650h21l-49 -384q-17 -132 -86 -201t-178 -69t-161 69t-35 201l49 384h22l-49 -384q-16 -124 30.5 -187.5t146 -63.5t161.5 63.5t79 187.5z" />
    <glyph glyph-name="Udieresis" unicode="&#xdc;" horiz-adv-x="643" 
d="M333 706q-10 0 -16.5 7t-6.5 17q0 12 9.5 20.5t20.5 8.5q6 0 11.5 -3t8.5 -8.5t3 -11.5q0 -12 -9.5 -21t-20.5 -9zM492 706q-9 0 -15.5 7t-6.5 17q0 12 9 20.5t21 8.5q9 0 15.5 -7t6.5 -16q0 -12 -9 -21t-21 -9zM614 650h21l-49 -384q-17 -132 -86 -201t-178 -69t-161 69
t-35 201l49 384h22l-49 -384q-16 -123 30.5 -187t146 -64t161.5 63.5t79 187.5z" />
    <glyph glyph-name="Yacute" unicode="&#xdd;" horiz-adv-x="536" 
d="M452 794l-92 -113l-19 -2l80 115h31zM591 650l-278 -388l-34 -262h-22l34 263l-178 387h25l149 -328q3 -7 6.5 -16t6.5 -17t4 -10h1q17 30 27 43l235 328h24z" />
    <glyph glyph-name="Thorn" unicode="&#xde;" horiz-adv-x="546" 
d="M358 530q87 0 137.5 -48t50.5 -129q0 -97 -67 -159t-172 -62h-169l-17 -132h-21l84 650h21l-15 -120h168zM310 152q94 0 154.5 55t60.5 143q0 48 -20.5 84t-59 56t-90.5 20h-168l-46 -358h169z" />
    <glyph glyph-name="germandbls" unicode="&#xdf;" horiz-adv-x="500" 
d="M349 375q39 -9 66.5 -31t42 -55.5t14.5 -75.5q0 -99 -54 -158t-152 -59q-11 0 -22.5 1t-20.5 2t-17 3l-14 3.5t-10.5 3t-6.5 2.5l-2 1l9 19q31 -16 87 -16q86 0 134.5 54t48.5 141q0 45 -19.5 80t-55 54t-81.5 19h-16l2 18h4q66 0 110.5 53.5t44.5 130.5q0 57 -32.5 91.5
t-88.5 34.5t-95.5 -40t-48.5 -107l-70 -544h-20l70 545q3 24 11 46t19 40.5t25.5 33t32 24.5t37.5 15.5t41 5.5q64 0 101.5 -39t37.5 -104q0 -46 -14 -84.5t-39 -66t-59 -41.5z" />
    <glyph glyph-name="agrave" unicode="&#xe0;" horiz-adv-x="547" 
d="M376 548l-17 -2l-60 135h29zM464 55q-5 -40 28 -40q7 0 15 2v-18q-9 -3 -22 -3q-50 0 -42 58l11 74h-2q-23 -57 -76 -94.5t-120 -37.5q-54 0 -93.5 24.5t-60.5 69.5t-21 105q0 119 67 195t168 76q47 0 83.5 -18.5t56 -49t23.5 -68.5h1q17 108 22 132h15zM258 15
q41 0 77.5 16t61.5 41.5t41 54.5t22 58l12 92q2 29 -6.5 58t-26.5 54.5t-50.5 42t-74.5 16.5q-92 0 -152 -70.5t-60 -180.5q0 -83 42 -132.5t114 -49.5z" />
    <glyph glyph-name="aacute" unicode="&#xe1;" horiz-adv-x="547" 
d="M423 681l-92 -133l-19 -2l82 135h29zM464 55q-5 -40 28 -40q7 0 15 2v-18q-9 -3 -22 -3q-50 0 -42 58l11 74h-2q-23 -57 -76 -94.5t-120 -37.5q-54 0 -93.5 24.5t-60.5 69.5t-21 105q0 119 67 195t168 76q71 0 113.5 -38.5t49.5 -97.5h1q17 108 22 132h15zM258 15
q41 0 77.5 16t61.5 41.5t41 54.5t22 58l12 92q2 29 -6.5 58t-26.5 54.5t-50.5 42t-74.5 16.5q-92 0 -152 -70.5t-60 -180.5q0 -83 42 -132.5t114 -49.5z" />
    <glyph glyph-name="acircumflex" unicode="&#xe2;" horiz-adv-x="547" 
d="M363 660l-98 -113l-22 -1l107 134h27l77 -134l-23 1zM464 55q-5 -40 28 -40q7 0 15 2v-18q-9 -3 -22 -3q-50 0 -42 58l11 74h-2q-23 -57 -76 -94.5t-120 -37.5q-40 0 -73 14.5t-55.5 40t-34.5 62.5t-12 82q0 119 67 195t168 76q47 0 83.5 -18.5t56 -49t23.5 -68.5h1
q17 108 22 132h15zM258 15q41 0 77.5 16t61.5 41.5t41 54.5t22 58l12 92q2 29 -6.5 58t-26.5 54.5t-50.5 42t-74.5 16.5q-92 0 -152 -70.5t-60 -180.5q0 -83 42 -132.5t114 -49.5z" />
    <glyph glyph-name="atilde" unicode="&#xe3;" horiz-adv-x="547" 
d="M251 568h-20v9q0 37 18 57t49 20q22 0 44 -16.5t41.5 -32.5t36.5 -16q44 0 44 58v7h21q-1 -13 -2 -24q-4 -30 -21 -45.5t-44 -15.5q-22 0 -43.5 16t-41.5 32t-37 16q-21 0 -33 -14.5t-12 -42.5v-8zM464 55q-5 -40 28 -40q7 0 15 2v-18q-9 -3 -22 -3q-50 0 -42 58l11 74
h-2q-23 -57 -76 -94.5t-120 -37.5q-40 0 -73 14.5t-55.5 40t-34.5 62.5t-12 82q0 119 67 195t168 76q47 0 83.5 -18.5t56 -49t23.5 -68.5h1q17 108 22 132h15zM258 15q41 0 77.5 16t61.5 41.5t41 54.5t22 58l12 92q2 29 -6.5 58t-26.5 54.5t-50.5 42t-74.5 16.5
q-92 0 -152 -70.5t-60 -180.5q0 -83 42 -132.5t114 -49.5z" />
    <glyph glyph-name="adieresis" unicode="&#xe4;" horiz-adv-x="547" 
d="M277 588q-7 0 -12 3t-8 8.5t-3 11.5q0 12 9.5 21t20.5 9q6 0 11 -3.5t8 -8.5t3 -12q0 -12 -9 -20.5t-20 -8.5zM436 588q-9 0 -15.5 7t-6.5 16q0 12 9 21t20 9q7 0 12 -3.5t8 -8.5t3 -12q0 -12 -9 -20.5t-21 -8.5zM464 55q-5 -40 28 -40q7 0 15 2v-18q-9 -3 -22 -3
q-50 0 -42 58l11 74h-2q-23 -57 -76 -94.5t-120 -37.5q-54 0 -93.5 24.5t-60.5 69.5t-21 105q0 119 67 195t168 76q47 0 83.5 -18.5t56 -49t23.5 -68.5h1q17 108 22 132h15zM258 15q41 0 77.5 16t61.5 41.5t41 54.5t22 58l12 92q2 29 -6.5 58t-26.5 54.5t-50.5 42
t-74.5 16.5q-92 0 -152 -70.5t-60 -180.5q0 -83 42 -132.5t114 -49.5z" />
    <glyph glyph-name="aring" unicode="&#xe5;" horiz-adv-x="547" 
d="M351 548q-16 0 -28.5 7.5t-19.5 20.5t-7 30q0 31 21 51.5t51 20.5q24 0 39.5 -16t15.5 -41q0 -15 -5.5 -29t-15 -23.5t-23 -15t-28.5 -5.5zM365 660q-22 0 -36 -15t-14 -38q0 -18 10 -29t28 -11q22 0 37 14.5t15 37.5q0 19 -11 30t-29 11zM464 55q-5 -40 28 -40q7 0 15 2
v-18q-9 -3 -22 -3q-50 0 -42 58l11 74h-2q-23 -57 -76 -94.5t-120 -37.5q-81 0 -128 54.5t-47 144.5q0 119 67 195t168 76q36 0 65.5 -10.5t50 -29t32.5 -43t15 -53.5h1q17 108 22 132h15zM259 15q40 0 76.5 16t61.5 41.5t41 54.5t22 58l12 92q2 29 -6.5 58t-26.5 54.5
t-50.5 42t-74.5 16.5q-92 0 -152 -70.5t-60 -180.5q0 -83 42 -132.5t115 -49.5z" />
    <glyph glyph-name="ae" unicode="&#xe6;" horiz-adv-x="805" 
d="M638 466q45 0 79.5 -20t53.5 -58.5t19 -90.5q0 -16 -2 -31.5t-4 -22.5l-2 -8h-353q-2 -18 -2 -38q0 -83 43.5 -132.5t121.5 -49.5q88 0 146 58l12 -13q-62 -64 -160 -64q-73 0 -119.5 39t-59.5 107h-3q-7 -25 -24.5 -49.5t-43.5 -47t-65 -36t-84 -13.5q-60 0 -92.5 26.5
t-32.5 72.5q0 36 14.5 62.5t39.5 43.5t64 28t80.5 16t96.5 6l49 2l6 47q9 67 -26 107.5t-103 40.5q-46 0 -82.5 -17.5t-58 -49.5t-21.5 -74q0 -16 1 -19l-18 -4q-2 9 -2 23q0 70 52.5 114.5t130.5 44.5q67 0 106.5 -34.5t42.5 -94.5q30 61 83.5 95t116.5 34zM636 448
q-48 0 -90.5 -23t-73 -67.5t-40.5 -103.5h335q3 12 3 42q0 72 -36 112t-98 40zM198 15q40 0 75 13t56.5 31t37.5 39.5t22.5 36.5t7.5 23l10 77l-48 -2q-63 -2 -108 -8.5t-84.5 -20.5t-59.5 -40.5t-20 -63.5q0 -40 28 -62.5t83 -22.5z" />
    <glyph glyph-name="ccedilla" unicode="&#xe7;" horiz-adv-x="477" 
d="M320 466q68 0 108 -37.5t40 -97.5q0 -11 -2 -22.5t-4 -17.5l-1 -6l-20 -2q6 15 6 43q0 54 -35 88t-95 34t-109 -32t-77.5 -89.5t-28.5 -129.5q0 -83 44 -132.5t122 -49.5q88 0 147 58l12 -14q-64 -62 -158 -63l-17 -36q27 -2 46.5 -18.5t19.5 -44.5q0 -22 -11.5 -39
t-31.5 -26.5t-46 -9.5q-19 0 -34 6t-20 12l-6 6l12 15q18 -20 51 -20q29 0 47.5 15t18.5 39q0 21 -17.5 36.5t-56.5 15.5l26 50q-80 5 -124.5 58.5t-44.5 139.5q0 119 68 195t171 76z" />
    <glyph glyph-name="egrave" unicode="&#xe8;" horiz-adv-x="481" 
d="M349 548l-17 -2l-61 135h29zM312 466q69 0 111 -45.5t42 -123.5q0 -16 -2 -31.5t-4 -22.5l-2 -8h-353q-2 -18 -2 -38q0 -83 43.5 -132.5t121.5 -49.5q87 0 145 58l12 -13q-62 -64 -160 -64q-85 0 -134 54t-49 144q0 122 68 197t163 75zM311 448q-74 0 -132 -53t-73 -141
h335q4 12 4 42q0 72 -36 112t-98 40z" />
    <glyph glyph-name="eacute" unicode="&#xe9;" horiz-adv-x="481" 
d="M396 681l-93 -133l-19 -2l82 135h30zM312 466q69 0 111 -45.5t42 -123.5q0 -16 -2 -31.5t-4 -22.5l-2 -8h-353q-2 -18 -2 -38q0 -83 43.5 -132.5t121.5 -49.5q87 0 145 58l12 -13q-62 -64 -160 -64q-85 0 -134 54t-49 144q0 122 68 197t163 75zM311 448q-74 0 -132 -53
t-73 -141h335q4 12 4 42q0 72 -36 112t-98 40z" />
    <glyph glyph-name="ecircumflex" unicode="&#xea;" horiz-adv-x="481" 
d="M335 660l-97 -113l-23 -1l107 134h27l77 -134l-22 1zM312 466q69 0 111 -45.5t42 -123.5q0 -16 -2 -31.5t-4 -22.5l-2 -8h-353q-2 -18 -2 -38q0 -83 43.5 -132.5t121.5 -49.5q87 0 145 58l12 -13q-62 -64 -160 -64q-85 0 -134 54t-49 144q0 122 68 197t163 75zM311 448
q-74 0 -132 -53t-73 -141h335q4 12 4 42q0 72 -36 112t-98 40z" />
    <glyph glyph-name="edieresis" unicode="&#xeb;" horiz-adv-x="481" 
d="M249 588q-7 0 -12 3t-8 8.5t-3 11.5q0 12 9.5 21t20.5 9q6 0 11.5 -3.5t8.5 -8.5t3 -12q0 -12 -9.5 -20.5t-20.5 -8.5zM409 588q-10 0 -16.5 7t-6.5 16q0 12 9.5 21t20.5 9q9 0 15.5 -7t6.5 -17q0 -12 -9 -20.5t-20 -8.5zM312 466q69 0 111 -45.5t42 -123.5
q0 -16 -2 -31.5t-4 -22.5l-2 -8h-353q-2 -18 -2 -38q0 -83 43.5 -132.5t121.5 -49.5q87 0 145 58l12 -13q-62 -64 -160 -64q-85 0 -134 54t-49 144q0 122 68 197t163 75zM311 448q-74 0 -132 -53t-73 -141h335q4 12 4 42q0 72 -36 112t-98 40z" />
    <glyph glyph-name="igrave" unicode="&#xec;" horiz-adv-x="197" 
d="M155 546l-60 135h29l48 -133zM166 463l-54 -410q-4 -38 26 -38q7 0 15 2v-18q-9 -3 -21 -3q-47 0 -40 56l54 410z" />
    <glyph glyph-name="iacute" unicode="&#xed;" horiz-adv-x="197" 
d="M178 548l-19 -2l82 135h29zM166 463l-54 -410q-4 -38 26 -38q7 0 15 2v-18q-9 -3 -21 -3q-47 0 -40 56l54 410z" />
    <glyph glyph-name="icircumflex" unicode="&#xee;" horiz-adv-x="197" 
d="M60 546l107 134h27l77 -134l-22 1l-69 113l-97 -113zM166 463l-54 -410q-4 -38 26 -38q7 0 15 2v-18q-9 -3 -21 -3q-47 0 -40 56l54 410z" />
    <glyph glyph-name="idieresis" unicode="&#xef;" horiz-adv-x="197" 
d="M94 588q-7 0 -12 3t-8 8.5t-3 11.5q0 8 4.5 15t11.5 11t14 4q6 0 11.5 -3.5t8.5 -8.5t3 -11.5t-3 -12t-7 -9.5t-9.5 -6t-10.5 -2zM254 588q-10 0 -16.5 7t-6.5 16q0 12 9.5 21t20.5 9q9 0 15.5 -7t6.5 -17q0 -12 -9 -20.5t-20 -8.5zM166 463l-54 -410q-4 -38 26 -38
q7 0 15 2v-18q-9 -3 -21 -3q-47 0 -40 56l54 410z" />
    <glyph glyph-name="eth" unicode="&#xf0;" horiz-adv-x="523" 
d="M413 616q81 -102 81 -278q0 -175 -67.5 -259.5t-180.5 -84.5q-75 0 -120.5 49t-45.5 132q0 120 64.5 188t161.5 68q72 0 115.5 -39t51.5 -92q7 92 -13 171.5t-64 134.5l-69 -39l-8 15l66 37q-54 58 -131 73l14 15q79 -17 134 -78l85 48l7 -16zM251 13q83 0 141.5 58
t71.5 158l1 9q4 68 -40 121.5t-121 53.5q-86 0 -145 -63.5t-59 -170.5q0 -50 18 -87.5t52.5 -58t80.5 -20.5z" />
    <glyph glyph-name="ntilde" unicode="&#xf1;" horiz-adv-x="541" 
d="M244 568h-20v9q0 37 18 57t49 20q22 0 44 -16.5t41.5 -32.5t36.5 -16q44 0 44 58v7h21q-1 -13 -2 -24q-4 -30 -21 -45.5t-44 -15.5q-22 0 -43.5 16t-41.5 32t-37 16q-21 0 -33 -14.5t-12 -42.5v-8zM490 15q8 0 16 2v-18q-10 -3 -22 -3q-48 0 -41 58l29 229
q9 74 -26.5 119.5t-103.5 45.5q-41 0 -77.5 -16.5t-61.5 -43t-41 -56.5t-21 -59l-36 -273h-20l60 462l15 1q-4 -62 -14 -133h1q23 58 77.5 97t120.5 39q78 0 117 -50.5t30 -132.5l-29 -229q-6 -39 27 -39z" />
    <glyph glyph-name="ograve" unicode="&#xf2;" horiz-adv-x="524" 
d="M342 546l-61 135h29l48 -133zM322 466q84 0 132.5 -54.5t48.5 -145.5q0 -119 -68 -194.5t-173 -75.5q-83 0 -132 54.5t-49 145.5q0 119 68.5 194.5t172.5 75.5zM264 15q95 0 157 69.5t62 179.5q0 84 -44 134t-119 50q-62 0 -112 -31.5t-78 -88.5t-28 -130
q0 -84 43.5 -133.5t118.5 -49.5z" />
    <glyph glyph-name="oacute" unicode="&#xf3;" horiz-adv-x="524" 
d="M313 548l-19 -2l82 135h30zM322 466q84 0 132.5 -54.5t48.5 -145.5q0 -119 -68 -194.5t-173 -75.5q-83 0 -131.5 54.5t-48.5 145.5q0 119 68 194.5t172 75.5zM264 15q95 0 157 69.5t62 179.5q0 84 -44 134t-119 50q-62 0 -112 -31.5t-78 -88.5t-28 -130
q0 -84 43.5 -133.5t118.5 -49.5z" />
    <glyph glyph-name="ocircumflex" unicode="&#xf4;" horiz-adv-x="524" 
d="M225 546l107 134h27l77 -134l-22 1l-69 113l-97 -113zM322 466q84 0 132.5 -54.5t48.5 -145.5q0 -119 -68 -194.5t-173 -75.5q-83 0 -131.5 54.5t-48.5 145.5q0 119 68 194.5t172 75.5zM264 15q95 0 157 69.5t62 179.5q0 84 -44 134t-119 50q-62 0 -112 -31.5t-78 -88.5
t-28 -130q0 -84 43.5 -133.5t118.5 -49.5z" />
    <glyph glyph-name="otilde" unicode="&#xf5;" horiz-adv-x="524" 
d="M467 654q-1 -13 -2 -24q-4 -30 -21 -45.5t-44 -15.5q-22 0 -43.5 16t-41.5 32t-37 16q-20 0 -32.5 -14.5t-12.5 -42.5v-8h-20v9q0 37 18 57t49 20q22 0 44.5 -16.5t42 -32.5t35.5 -16q45 0 45 58l-1 7h21zM322 466q84 0 132.5 -54.5t48.5 -145.5q0 -119 -68 -194.5
t-173 -75.5q-83 0 -131.5 54.5t-48.5 145.5q0 119 68 194.5t172 75.5zM264 15q95 0 157 69.5t62 179.5q0 84 -44 134t-119 50q-62 0 -112 -31.5t-78 -88.5t-28 -130q0 -84 43.5 -133.5t118.5 -49.5z" />
    <glyph glyph-name="odieresis" unicode="&#xf6;" horiz-adv-x="524" 
d="M259 588q-7 0 -12 3t-8 8.5t-3 11.5q0 12 9.5 21t20.5 9q6 0 11.5 -3.5t8.5 -8.5t3 -12q0 -12 -9.5 -20.5t-20.5 -8.5zM418 588q-9 0 -15.5 7t-6.5 16q0 12 9 21t21 9q6 0 11 -3.5t8 -8.5t3 -12q0 -12 -9 -20.5t-21 -8.5zM322 466q84 0 132.5 -54.5t48.5 -145.5
q0 -119 -68 -194.5t-173 -75.5q-83 0 -131.5 54.5t-48.5 145.5q0 119 68 194.5t172 75.5zM264 15q95 0 157 69.5t62 179.5q0 84 -44 134t-119 50q-62 0 -112 -31.5t-78 -88.5t-28 -130q0 -84 43.5 -133.5t118.5 -49.5z" />
    <glyph glyph-name="divide" unicode="&#xf7;" horiz-adv-x="463" 
d="M258 433q0 13 10.5 23.5t23.5 10.5q11 0 18.5 -8t7.5 -19q0 -14 -10.5 -24.5t-23.5 -10.5q-11 0 -18.5 8.5t-7.5 19.5zM107 234l2 20h311l-3 -20h-310zM201 30q0 14 11 24t24 10q11 0 18.5 -8t7.5 -19q0 -14 -10.5 -24t-24.5 -10q-11 0 -18.5 8t-7.5 19z" />
    <glyph glyph-name="oslash" unicode="&#xf8;" horiz-adv-x="524" 
d="M443 423q60 -55 60 -157q0 -119 -68 -194.5t-173 -75.5q-64 0 -109 34l-44 -60h-21l52 71q-58 54 -58 155q0 119 68 194.5t172 75.5q64 0 108 -32l44 58h21zM102 198q0 -91 50 -141l266 360q-40 31 -98 31q-62 0 -112 -31.5t-78 -88.5t-28 -130zM264 15q95 0 157 69.5
t62 179.5q0 92 -52 142l-266 -360q41 -31 99 -31z" />
    <glyph glyph-name="ugrave" unicode="&#xf9;" horiz-adv-x="526" 
d="M351 548l-16 -2l-61 135h29zM444 55q-6 -40 28 -40q7 0 15 2v-18q-10 -3 -22 -3q-48 0 -41 58l8 75q-24 -58 -76.5 -95.5t-117.5 -37.5q-75 0 -110.5 48.5t-25.5 130.5l37 287h20l-37 -287q-6 -48 5.5 -84.5t41 -56t74.5 -19.5q39 0 74.5 16t60 42t40.5 55.5t22 58.5
l36 275h21z" />
    <glyph glyph-name="uacute" unicode="&#xfa;" horiz-adv-x="526" 
d="M399 681l-93 -133l-19 -2l82 135h30zM444 55q-6 -40 28 -40q7 0 15 2v-18q-10 -3 -22 -3q-48 0 -41 58l8 75q-24 -58 -76.5 -95.5t-117.5 -37.5q-75 0 -110.5 48.5t-25.5 130.5l37 287h20l-37 -287q-9 -74 22.5 -117t98.5 -43q39 0 74.5 16t60 42t40.5 55.5t22 58.5
l36 275h21z" />
    <glyph glyph-name="ucircumflex" unicode="&#xfb;" horiz-adv-x="526" 
d="M338 660l-97 -113l-23 -1l107 134h27l77 -134l-22 1zM444 55q-6 -40 28 -40q7 0 15 2v-18q-10 -3 -22 -3q-48 0 -41 58l8 75q-24 -58 -76.5 -95.5t-117.5 -37.5q-75 0 -110.5 48.5t-25.5 130.5l37 287h20l-37 -287q-9 -74 22.5 -117t98.5 -43q39 0 74.5 16t60 42
t40.5 55.5t22 58.5l36 275h21z" />
    <glyph glyph-name="udieresis" unicode="&#xfc;" horiz-adv-x="526" 
d="M252 588q-7 0 -12 3t-8 8.5t-3 11.5q0 12 9.5 21t20.5 9q6 0 11.5 -3.5t8.5 -8.5t3 -12q0 -12 -9.5 -20.5t-20.5 -8.5zM411 588q-9 0 -15.5 7t-6.5 16q0 12 9 21t21 9q9 0 15.5 -7t6.5 -17q0 -12 -9 -20.5t-21 -8.5zM444 55q-6 -40 28 -40q7 0 15 2v-18q-10 -3 -22 -3
q-48 0 -41 58l8 75q-24 -58 -76.5 -95.5t-117.5 -37.5q-75 0 -110.5 48.5t-25.5 130.5l37 287h20l-37 -287q-6 -48 5.5 -84.5t41 -56t74.5 -19.5q39 0 74.5 16t60 42t40.5 55.5t22 58.5l36 275h21z" />
    <glyph glyph-name="yacute" unicode="&#xfd;" horiz-adv-x="522" 
d="M395 681l-92 -133l-19 -2l82 135h29zM476 462h20l-63 -485q-8 -59 -33.5 -99.5t-71 -63t-107.5 -22.5q-84 0 -150 42l12 19q18 -16 54.5 -29t86.5 -13q168 0 190 165l21 156h-2q-15 -39 -41.5 -69t-67 -48.5t-86.5 -18.5q-75 0 -110.5 48.5t-25.5 130.5l37 287h20
l-37 -287q-9 -74 22.5 -117t97.5 -43q53 0 97.5 28.5t69 67.5t31.5 78z" />
    <glyph glyph-name="thorn" unicode="&#xfe;" horiz-adv-x="572" 
d="M346 466q80 0 127 -54t47 -145q0 -119 -66.5 -195t-167.5 -76q-69 0 -112.5 38t-51.5 96l-43 -334h-20l116 900h19l-46 -364q22 59 74 96.5t124 37.5zM288 15q92 0 152 70t60 180q0 83 -42 133t-115 50q-42 0 -79 -16.5t-61.5 -42.5t-40.5 -56t-22 -60l-10 -83
q-3 -41 12 -80t53 -67t93 -28z" />
    <glyph glyph-name="ydieresis" unicode="&#xff;" horiz-adv-x="522" 
d="M249 588q-10 0 -16.5 7t-6.5 16q0 12 9.5 21t20.5 9q6 0 11 -3.5t8 -8.5t3 -12q0 -12 -9 -20.5t-20 -8.5zM408 588q-10 0 -16 7t-6 16q0 12 9 21t20 9q6 0 11.5 -3.5t8.5 -8.5t3 -12q0 -12 -9.5 -20.5t-20.5 -8.5zM476 462h20l-63 -485q-8 -59 -33.5 -99.5t-71 -63
t-107.5 -22.5q-84 0 -150 42l12 19q18 -16 54.5 -29t86.5 -13q168 0 190 165l21 156h-2q-11 -29 -29 -53.5t-42.5 -43t-56.5 -29t-67 -10.5q-75 0 -110.5 48.5t-25.5 130.5l37 287h20l-37 -287q-6 -48 5.5 -84.5t41 -56t74.5 -19.5q52 0 96.5 28.5t69 67.5t31.5 78z" />
    <glyph glyph-name="Amacron" unicode="&#x100;" horiz-adv-x="563" 
d="M495 728l-2 -19h-230l2 19h230zM510 0l-47 199h-313l-97 -199h-23l322 650h24l156 -650h-22zM160 219h298l-92 388q-3 18 -4 22h-2q-1 -5 -9 -22z" />
    <glyph glyph-name="amacron" unicode="&#x101;" horiz-adv-x="547" 
d="M479 624l-2 -19h-230l2 19h230zM464 55q-5 -40 28 -40q7 0 15 2v-18q-9 -3 -22 -3q-50 0 -42 58l11 74h-2q-23 -57 -76 -94.5t-120 -37.5q-54 0 -93.5 24.5t-60.5 69.5t-21 105q0 119 67 195t168 76q47 0 83.5 -18.5t56 -49t23.5 -68.5h1q17 108 22 132h15zM258 15
q41 0 77.5 16t61.5 41.5t41 54.5t22 58l12 92q2 29 -6.5 58t-26.5 54.5t-50.5 42t-74.5 16.5q-92 0 -152 -70.5t-60 -180.5q0 -83 42 -132.5t114 -49.5z" />
    <glyph glyph-name="Abreve" unicode="&#x102;" horiz-adv-x="563" 
d="M369 677q-22 0 -39.5 8t-28.5 22t-15.5 34t-1.5 44h19q-6 -40 13.5 -65t54.5 -24q24 0 43.5 11.5t32 31.5t15.5 46h19q-6 -48 -36.5 -78t-75.5 -30zM510 0l-47 199h-313l-97 -199h-23l322 650h24l156 -650h-22zM160 219h298l-92 388q-3 18 -4 22h-2q-1 -5 -9 -22z" />
    <glyph glyph-name="abreve" unicode="&#x103;" horiz-adv-x="547" 
d="M350.5 544q-49.5 0 -74.5 33t-17 93h20q-7 -51 13.5 -79t60.5 -29q40 1 67.5 29t34.5 79h19q-8 -60 -41 -93t-82.5 -33zM464 55q-5 -40 28 -40q7 0 15 2v-18q-9 -3 -22 -3q-50 0 -42 58l11 74h-2q-23 -57 -76 -94.5t-120 -37.5q-40 0 -73 14.5t-55.5 40t-34.5 62.5
t-12 82q0 119 67 195t168 76q47 0 83.5 -18.5t56 -49t23.5 -68.5h1q17 108 22 132h15zM258 15q41 0 77.5 16t61.5 41.5t41 54.5t22 58l12 92q2 29 -6.5 58t-26.5 54.5t-50.5 42t-74.5 16.5q-92 0 -152 -70.5t-60 -180.5q0 -83 42 -132.5t114 -49.5z" />
    <glyph glyph-name="Aogonek" unicode="&#x104;" horiz-adv-x="563" 
d="M476 -159q12 0 23.5 4t17.5 9l6 4l8 -14q-22 -22 -58 -22q-19 0 -33.5 8.5t-22.5 23t-8 33.5q0 25 10.5 46t27.5 35.5t31.5 23t30.5 14.5l-46 193h-313l-97 -199h-23l322 650h24l156 -650q-2 -1 -5.5 -2t-14.5 -6.5t-20.5 -11t-21.5 -15.5t-20.5 -21t-14 -26t-5.5 -31
q0 -21 12.5 -33.5t33.5 -12.5zM160 219h298l-92 388q-3 18 -4 22h-2q-1 -5 -9 -22z" />
    <glyph glyph-name="aogonek" unicode="&#x105;" horiz-adv-x="547" 
d="M464 55q-5 -40 28 -40q7 0 15 2v-18q-5 -1 -12 -4t-24.5 -13t-31 -22t-24 -32t-10.5 -42q0 -21 12.5 -33.5t33.5 -12.5q11 0 23 4t18 9l6 4l8 -14q-22 -22 -58 -22q-19 0 -33.5 8.5t-22.5 23t-8 33.5q0 72 84 112q-31 10 -25 56l11 74h-2q-23 -57 -76 -94.5t-120 -37.5
q-54 0 -93.5 24.5t-60.5 69.5t-21 105q0 119 67 195t168 76q47 0 83.5 -18.5t56 -49t23.5 -68.5h1q17 108 22 132h15zM258 15q41 0 77.5 16t61.5 41.5t41 54.5t22 58l12 92q2 29 -6.5 58t-26.5 54.5t-50.5 42t-74.5 16.5q-92 0 -152 -70.5t-60 -180.5q0 -83 42 -132.5
t114 -49.5z" />
    <glyph glyph-name="Cacute" unicode="&#x106;" horiz-adv-x="600" 
d="M423 681l-19 -2l80 115h31zM416 656q48 0 85.5 -15t58 -37t33.5 -49t17 -48.5t3 -38.5l-23 -5q1 8 0 20t-5.5 28.5t-12 33.5t-21.5 34t-32 29.5t-45.5 21t-60.5 8.5q-49 0 -93 -16.5t-80.5 -48t-63.5 -75t-41.5 -101t-14.5 -122.5q0 -121 60 -190.5t163 -69.5
q41 0 78.5 11.5t64 30t42.5 33t28 29.5l14 -14q-14 -16 -31 -31.5t-45.5 -34.5t-68.5 -31t-84 -12q-112 0 -177 73t-65 202q0 175 90 280t227 105z" />
    <glyph glyph-name="cacute" unicode="&#x107;" horiz-adv-x="477" 
d="M311 548l-19 -2l82 135h30zM320 466q68 0 108 -37.5t40 -97.5q0 -11 -2 -22.5t-4 -17.5l-1 -6l-20 -2q6 15 6 43q0 54 -35 88t-95 34t-109.5 -32t-77.5 -89.5t-28 -129.5q0 -83 44 -132.5t122 -49.5q88 0 147 58l12 -14q-64 -63 -160 -63q-88 0 -137 54t-49 145
q0 119 68 195t171 76z" />
    <glyph glyph-name="Ccircumflex" unicode="&#x108;" horiz-adv-x="600" 
d="M449 794l76 -115l-24 1l-70 92l-94 -92l-23 -1l106 115h29zM416 656q48 0 85.5 -15t58 -37t33.5 -49t17 -48.5t3 -38.5l-23 -5q1 8 0 20t-5.5 28.5t-12 33.5t-21.5 34t-32 29.5t-45.5 21t-60.5 8.5q-49 0 -93 -16.5t-80.5 -48t-63.5 -75t-41.5 -101t-14.5 -122.5
q0 -121 60 -190.5t163 -69.5q41 0 78.5 11.5t64 30t42.5 33t28 29.5l14 -14q-14 -16 -31 -31.5t-45.5 -34.5t-68.5 -31t-84 -12q-112 0 -177 73t-65 202q0 175 90 280t227 105z" />
    <glyph glyph-name="ccircumflex" unicode="&#x109;" horiz-adv-x="477" 
d="M223 546l107 134h27l77 -134l-22 1l-69 113l-97 -113zM320 466q68 0 108 -37.5t40 -97.5q0 -11 -2 -22.5t-4 -17.5l-1 -6l-20 -2q6 15 6 43q0 54 -35 88t-95 34t-109 -32t-77.5 -89.5t-28.5 -129.5q0 -83 44 -132.5t122 -49.5q88 0 147 58l12 -14q-64 -63 -160 -63
q-88 0 -137 54t-49 145q0 119 68 195t171 76z" />
    <glyph glyph-name="Cdotaccent" unicode="&#x10a;" horiz-adv-x="600" 
d="M422 705q-10 0 -16.5 7t-6.5 18t9.5 20t20.5 9q10 0 16.5 -7.5t6.5 -16.5q0 -13 -9 -21.5t-21 -8.5zM416 656q48 0 85.5 -15t58 -37t33.5 -49t17 -48.5t3 -38.5l-23 -5q1 8 0 20t-5.5 28.5t-12 33.5t-21.5 34t-32 29.5t-45.5 21t-60.5 8.5q-125 0 -209 -100.5t-84 -262.5
q0 -121 60 -190.5t163 -69.5q41 0 78.5 11.5t64 30t42.5 33t28 29.5l14 -14q-14 -16 -31 -31.5t-45.5 -34.5t-68.5 -31t-84 -12q-112 0 -177 73t-65 202q0 175 90 280t227 105z" />
    <glyph glyph-name="cdotaccent" unicode="&#x10b;" horiz-adv-x="477" 
d="M366 619q0 -8 -4 -15t-11 -11t-15 -4q-9 0 -16 7.5t-7 17.5q0 12 9.5 20.5t20.5 8.5q10 0 16.5 -7t6.5 -17zM320 466q68 0 108 -37.5t40 -97.5q0 -11 -2 -22.5t-4 -17.5l-1 -6l-20 -2q6 15 6 43q0 54 -35 88t-95 34t-109 -32t-77.5 -89.5t-28.5 -129.5q0 -83 44 -132.5
t122 -49.5q88 0 147 58l12 -14q-64 -63 -160 -63q-88 0 -137 54t-49 145q0 119 68 195t171 76z" />
    <glyph glyph-name="Ccaron" unicode="&#x10c;" horiz-adv-x="600" 
d="M330 798l22 -1l71 -91l93 91l25 1l-106 -115h-28zM416 656q48 0 85.5 -15t58 -37t33.5 -49t17 -48.5t3 -38.5l-23 -5q1 8 0 20t-5.5 28.5t-12 33.5t-21.5 34t-32 29.5t-45.5 21t-60.5 8.5q-125 0 -209 -100.5t-84 -262.5q0 -121 60 -190.5t163 -69.5q41 0 78.5 11.5
t64 30t42.5 33t28 29.5l14 -14q-14 -16 -31 -31.5t-45.5 -34.5t-68.5 -31t-84 -12q-112 0 -177 73t-65 202q0 175 90 280t227 105z" />
    <glyph glyph-name="ccaron" unicode="&#x10d;" horiz-adv-x="477" 
d="M242 680l23 -1l68 -112l98 112l22 1l-109 -134h-26zM320 466q68 0 108 -37.5t40 -97.5q0 -11 -2 -22.5t-4 -17.5l-1 -6l-20 -2q6 15 6 43q0 54 -35 88t-95 34t-109 -32t-77.5 -89.5t-28.5 -129.5q0 -83 44 -132.5t122 -49.5q88 0 147 58l12 -14q-64 -63 -160 -63
q-88 0 -137 54t-49 145q0 119 68 195t171 76z" />
    <glyph glyph-name="Dcaron" unicode="&#x10e;" horiz-adv-x="613" 
d="M381 679h-28l-77 114l22 -1l71 -91l93 91l25 1zM325 650q127 0 200 -73.5t73 -202.5q0 -166 -87 -270t-232 -104h-179l84 650h141zM281 20q135 0 215.5 98t80.5 254q0 122 -68 190.5t-186 68.5h-120l-79 -611h157z" />
    <glyph glyph-name="dcaron" unicode="&#x10f;" horiz-adv-x="553" 
d="M644 716q11 0 18 -7t7 -19q0 -19 -6 -35.5t-14.5 -27t-17 -18.5t-13.5 -12l-6 -3l-12 17q2 1 4.5 2.5t9 6.5t11.5 11t10 15t7 19q-27 0 -27 23q0 12 9 20t20 8zM547 700l-83 -645q-5 -40 28 -40q7 0 15 2v-18q-9 -3 -22 -3q-47 0 -41 58l10 74h-2q-24 -57 -75.5 -94
t-120.5 -37q-81 0 -127.5 54t-46.5 145q0 119 66.5 195t167.5 76q68 0 112 -37.5t52 -95.5l47 366h20zM259 16q35 0 66.5 11.5t55 30t41 42.5t27.5 48t13 47l10 79q4 39 -11 78t-53.5 68t-93.5 29q-91 0 -151.5 -70.5t-60.5 -180.5q0 -83 42 -132.5t115 -49.5z" />
    <glyph glyph-name="Dcroat" unicode="&#x110;" horiz-adv-x="613" 
d="M325 650q127 0 200 -73.5t73 -202.5q0 -166 -87 -270t-232 -104h-179l41 317h-71l2 18h72l40 315h141zM281 20q136 0 216 98t80 254q0 122 -68 190.5t-186 68.5h-120l-38 -296h187l-2 -18h-188l-38 -297h157z" />
    <glyph glyph-name="dcroat" unicode="&#x111;" horiz-adv-x="547" 
d="M531 574l-67 -519q-5 -40 28 -40q7 0 15 2v-18q-9 -3 -22 -3q-48 0 -41 58l10 74h-2q-24 -57 -75.5 -94t-120.5 -37q-81 0 -127.5 54t-46.5 145q0 119 66.5 195t167.5 76q68 0 112 -37.5t52 -95.5l31 240h-133l2 18h133l14 108h20l-14 -108h59l-2 -18h-59zM259 16
q35 0 66.5 11.5t54.5 30t41 42.5t28 48t13 47l10 79q4 39 -11 78t-53.5 68t-93.5 29q-92 0 -152 -70.5t-60 -180.5q0 -83 42 -132.5t115 -49.5z" />
    <glyph glyph-name="Emacron" unicode="&#x112;" horiz-adv-x="513" 
d="M501 728l-2 -19h-231l3 19h230zM543 631h-340l-36 -281h311l-2 -20h-312l-40 -310h340l-3 -20h-361l84 650h361z" />
    <glyph glyph-name="Ebreve" unicode="&#x114;" horiz-adv-x="513" 
d="M375 677q-45 0 -68.5 29.5t-16.5 78.5h19q-6 -40 13.5 -65t55 -24.5t60 25t30.5 64.5h19q-6 -48 -36.5 -78t-75.5 -30zM543 631h-340l-36 -281h311l-2 -20h-312l-40 -310h340l-3 -20h-361l84 650h361z" />
    <glyph glyph-name="ebreve" unicode="&#x115;" horiz-adv-x="481" 
d="M323 544q-50 0 -75 33t-17 93h20q-7 -51 13.5 -79t60.5 -29q41 1 68.5 29t33.5 79h19q-8 -60 -40.5 -93t-82.5 -33zM312 466q69 0 111 -45.5t42 -123.5q0 -16 -2 -31.5t-4 -22.5l-2 -8h-353q-2 -18 -2 -38q0 -83 43.5 -132.5t121.5 -49.5q87 0 145 58l12 -13
q-62 -64 -160 -64q-85 0 -134 54t-49 144q0 122 68 197t163 75zM311 448q-74 0 -132 -53t-73 -141h335q4 12 4 42q0 72 -36 112t-98 40z" />
    <glyph glyph-name="Edotaccent" unicode="&#x116;" horiz-adv-x="513" 
d="M377 705q-9 0 -16 7t-7 18t9.5 20t20.5 9q10 0 16.5 -7.5t6.5 -16.5q0 -13 -9 -21.5t-21 -8.5zM543 631h-340l-36 -281h311l-2 -20h-312l-40 -310h340l-3 -20h-361l84 650h361z" />
    <glyph glyph-name="edotaccent" unicode="&#x117;" horiz-adv-x="481" 
d="M328 589q-6 0 -11.5 3.5t-8.5 9t-3 12.5q0 12 9.5 20.5t20.5 8.5q10 0 16.5 -7t6.5 -17q0 -12 -9 -21t-21 -9zM312 466q69 0 111 -45.5t42 -123.5q0 -16 -2 -31.5t-4 -22.5l-2 -8h-353q-2 -18 -2 -38q0 -83 43.5 -132.5t121.5 -49.5q87 0 145 58l12 -13q-62 -64 -160 -64
q-85 0 -134 54t-49 144q0 62 19 114t51 86t73.5 53t87.5 19zM311 448q-48 0 -91 -23t-73.5 -67.5t-40.5 -103.5h335q4 12 4 42q0 72 -36 112t-98 40z" />
    <glyph glyph-name="Eogonek" unicode="&#x118;" horiz-adv-x="513" 
d="M543 631h-340l-36 -281h311l-2 -20h-312l-40 -310h340l-3 -20q-4 -1 -11 -4t-24.5 -13t-31 -22t-24.5 -32t-11 -42q0 -21 12.5 -33.5t33.5 -12.5q12 0 23.5 4t17.5 9l7 4l7 -14q-22 -22 -58 -22q-29 0 -46.5 18t-17.5 47q0 72 85 113h-323l84 650h361z" />
    <glyph glyph-name="eogonek" unicode="&#x119;" horiz-adv-x="481" 
d="M312 466q69 0 111 -45.5t42 -123.5q0 -16 -2 -31.5t-4 -22.5l-2 -8h-353q-2 -18 -2 -38q0 -83 43.5 -132.5t121.5 -49.5q87 0 145 58l12 -13q-34 -36 -81 -52q-67 -39 -67 -96q0 -22 12.5 -34.5t33.5 -12.5q11 0 23 4.5t18 8.5l6 5l8 -14q-22 -22 -58 -22q-29 0 -46.5 18
t-17.5 47q0 50 43 86q-16 -2 -34 -2q-85 0 -134 54t-49 144q0 122 68 197t163 75zM311 448q-48 0 -91 -23t-73.5 -67.5t-40.5 -103.5h335q4 12 4 42q0 72 -36 112t-98 40z" />
    <glyph glyph-name="Ecaron" unicode="&#x11a;" horiz-adv-x="513" 
d="M390 683h-28l-77 115l23 -1l70 -91l94 91l24 1zM543 631h-340l-36 -281h311l-2 -20h-312l-40 -310h340l-3 -20h-361l84 650h361z" />
    <glyph glyph-name="ecaron" unicode="&#x11b;" horiz-adv-x="481" 
d="M336 546h-26l-76 134l23 -1l68 -112l98 112l22 1zM312 466q69 0 111 -45.5t42 -123.5q0 -16 -2 -31.5t-4 -22.5l-2 -8h-353q-2 -18 -2 -38q0 -83 43.5 -132.5t121.5 -49.5q87 0 145 58l12 -13q-62 -64 -160 -64q-85 0 -134 54t-49 144q0 122 68 197t163 75zM311 448
q-74 0 -132 -53t-73 -141h335q4 12 4 42q0 72 -36 112t-98 40z" />
    <glyph glyph-name="Gcircumflex" unicode="&#x11c;" horiz-adv-x="616" 
d="M425 772l-93 -92l-24 -1l106 115h29l76 -115l-23 1zM410 656q49 0 87 -15t58.5 -36.5t33.5 -49.5t17 -48.5t3 -37.5l-22 -6q1 12 -1.5 30.5t-13 44.5t-29 47.5t-54 37t-82.5 15.5q-123 0 -205 -103t-82 -263q0 -117 54.5 -187t150.5 -70q40 0 76 11.5t60.5 30t43 42
t29 45t13.5 41.5l12 92h-248l2 20h268l-38 -297h-13q3 62 10 124q-28 -55 -84 -91.5t-134 -36.5q-105 0 -164 74.5t-59 199.5q0 84 23.5 156t65 122.5t99 79t123.5 28.5z" />
    <glyph glyph-name="gcircumflex" unicode="&#x11d;" horiz-adv-x="543" 
d="M358 660l-98 -113l-22 -1l107 134h27l77 -134l-23 1zM502 462h14l-63 -485q-11 -88 -71 -136.5t-151 -48.5q-64 0 -112 20.5t-63 36.5l12 18q16 -18 63 -37t103 -19q82 0 135.5 43t63.5 122l20 152q-24 -58 -77 -95t-120 -37q-40 0 -73 14.5t-55.5 40t-34.5 62.5t-12 82
q0 119 67 195t168 76q47 0 83.5 -18.5t56 -49t23.5 -68.5h1q17 108 22 132zM259 15q41 0 78.5 17t62.5 43.5t41 57t20 59.5l11 87q1 28 -7.5 57t-26.5 54.5t-50.5 41.5t-73.5 16q-91 0 -151.5 -70.5t-60.5 -180.5q0 -83 42 -132.5t115 -49.5z" />
    <glyph glyph-name="Gbreve" unicode="&#x11e;" horiz-adv-x="616" 
d="M414 677q-22 0 -40 8t-29 22t-15.5 34t-1.5 44h20q-6 -40 13 -65t55 -24q24 0 43 11.5t31.5 31.5t16.5 46h19q-6 -48 -37 -78t-75 -30zM410 656q42 0 75.5 -10t54 -27.5t35.5 -37.5t22 -42.5t10 -39t2 -30.5l-22 -6q1 12 -1.5 30.5t-13 44.5t-29 47.5t-54 37t-82.5 15.5
q-123 0 -205 -103t-82 -263q0 -117 54.5 -187t150.5 -70q40 0 76 11.5t60.5 30t43 42t29 45t13.5 41.5l12 92h-248l2 20h268l-38 -297h-13q3 62 10 124q-28 -55 -84 -91.5t-134 -36.5q-105 0 -164 74.5t-59 199.5q0 84 23.5 156t65 122.5t99 79t123.5 28.5z" />
    <glyph glyph-name="gbreve" unicode="&#x11f;" horiz-adv-x="543" 
d="M345.5 544q-49.5 0 -74.5 33t-17 93h20q-5 -34 3 -58.5t26 -36.5t45 -13q40 1 67.5 29t34.5 79h19q-8 -60 -41 -93t-82.5 -33zM502 462h14l-63 -485q-11 -88 -71 -136.5t-151 -48.5q-64 0 -112 20.5t-63 36.5l12 18q16 -18 63 -37t103 -19q54 0 96 18.5t69 56t34 90.5
l20 152q-24 -58 -77 -95t-120 -37q-40 0 -73 14.5t-55.5 40t-34.5 62.5t-12 82q0 119 67 195t168 76q47 0 83.5 -18.5t56 -49t23.5 -68.5h1q17 108 22 132zM259 15q41 0 78.5 17t62.5 43.5t41 57t20 59.5l11 87q1 28 -7.5 57t-26.5 54.5t-50.5 41.5t-73.5 16
q-92 0 -152 -70.5t-60 -180.5q0 -83 42 -132.5t115 -49.5z" />
    <glyph glyph-name="Gdotaccent" unicode="&#x120;" horiz-adv-x="616" 
d="M416 705q-9 0 -16 7t-7 18t9.5 20t20.5 9q10 0 16.5 -7.5t6.5 -16.5q0 -13 -9 -21.5t-21 -8.5zM410 656q49 0 87 -15t58.5 -36.5t33.5 -49.5t17 -48.5t3 -37.5l-22 -6q1 12 -1.5 30.5t-13 44.5t-29 47.5t-54 37t-82.5 15.5q-123 0 -205 -103t-82 -263q0 -117 54.5 -187
t150.5 -70q40 0 76 11.5t60.5 30t43 42t29 45t13.5 41.5l12 92h-248l2 20h268l-38 -297h-13q3 62 10 124q-28 -55 -84 -91.5t-134 -36.5q-105 0 -164 74.5t-59 199.5q0 84 23.5 156t65 122.5t99 79t123.5 28.5z" />
    <glyph glyph-name="gdotaccent" unicode="&#x121;" horiz-adv-x="543" 
d="M351 589q-6 0 -11.5 3.5t-8.5 9t-3 12.5q0 12 9.5 20.5t20.5 8.5q10 0 16.5 -7t6.5 -17q0 -12 -9 -21t-21 -9zM502 462h14l-63 -485q-11 -88 -71 -136.5t-151 -48.5q-64 0 -112 20.5t-63 36.5l12 18q16 -18 63 -37t103 -19q82 0 135.5 43t63.5 122l20 152
q-24 -58 -77 -95t-120 -37q-54 0 -93.5 24.5t-60.5 69.5t-21 105q0 119 67 195t168 76q71 0 113.5 -38.5t49.5 -97.5h1q17 108 22 132zM259 15q41 0 78.5 17t62.5 43.5t41 57t20 58.5l11 88q1 28 -7.5 57t-26.5 54.5t-50.5 41.5t-73.5 16q-92 0 -152 -70.5t-60 -180.5
q0 -83 42 -132.5t115 -49.5z" />
    <glyph glyph-name="Gcommaaccent" unicode="&#x122;" horiz-adv-x="616" 
d="M410 656q49 0 87 -15t58.5 -36.5t33.5 -49.5t17 -48.5t3 -37.5l-22 -6q1 12 -1.5 30.5t-13 44.5t-29 47.5t-54 37t-82.5 15.5q-123 0 -205 -103t-82 -263q0 -117 54.5 -187t150.5 -70q40 0 76 11.5t60.5 30t43 42t29 45t13.5 41.5l12 92h-248l2 20h268l-38 -297h-13
q3 62 10 124q-28 -55 -84 -91.5t-134 -36.5q-105 0 -164 74.5t-59 199.5q0 67 15 127.5t43 107t66.5 81t86 52.5t100.5 18zM315 -50q24 0 24 -28q0 -18 -6 -34.5t-14 -26.5t-16.5 -18t-14.5 -11l-5 -3l-11 17q4 2 10.5 6t18 18t13.5 29q-9 0 -15 3t-9.5 8.5t-3.5 11.5
q0 12 9 20t20 8z" />
    <glyph glyph-name="gcommaaccent" unicode="&#x123;" horiz-adv-x="543" 
d="M342 512q-24 0 -24 28q0 13 3 25.5t8 21.5t11 17t12 13.5t11 9t8 5.5l3 2l11 -18q-1 -1 -2.5 -1.5t-5 -3t-7.5 -5.5t-8.5 -7.5t-8 -9.5t-6.5 -12t-4 -14q13 0 20.5 -6.5t7.5 -16.5q0 -12 -9 -20t-20 -8zM502 462h14l-63 -485q-11 -88 -71 -136.5t-151 -48.5q-34 0 -67 7
t-54.5 17.5t-35 18.5t-18.5 14l12 18q16 -18 63 -37t103 -19q82 0 135.5 43t63.5 122l20 152q-16 -38 -44 -67.5t-68 -47t-85 -17.5q-54 0 -93.5 24.5t-60.5 69.5t-21 105q0 119 67 195t168 76q71 0 113.5 -38.5t49.5 -97.5h1q17 108 22 132zM259 15q41 0 78.5 17t62.5 43.5
t41 57t20 59.5l11 87q1 28 -7.5 57t-26.5 54.5t-50.5 41.5t-73.5 16q-92 0 -152 -70.5t-60 -180.5q0 -83 42 -132.5t115 -49.5z" />
    <glyph glyph-name="Hcircumflex" unicode="&#x124;" horiz-adv-x="667" 
d="M436 772l-93 -92l-24 -1l106 115h29l76 -115l-23 1zM630 650h21l-84 -650h-21l42 330h-424l-43 -330h-21l84 650h21l-38 -300h424z" />
    <glyph glyph-name="Hbar" unicode="&#x126;" horiz-adv-x="667" 
d="M677 556l-2 -18h-39l-69 -538h-21l42 330h-424l-43 -330h-21l70 538h-54l3 18h53l12 94h21l-12 -94h424l13 94h21l-13 -94h39zM591 350l24 188h-424l-24 -188h424z" />
    <glyph glyph-name="hbar" unicode="&#x127;" horiz-adv-x="541" 
d="M490 15q8 0 16 2v-18q-10 -3 -22 -3q-48 0 -41 58l29 229q9 74 -26.5 119.5t-103.5 45.5q-32 0 -62 -10.5t-53 -28.5t-41.5 -40.5t-29.5 -46.5t-15 -47l-36 -275h-20l74 574h-58l2 18h59l14 114h19l-15 -114h136l-3 -18h-135l-31 -243h1q23 58 76.5 96.5t120.5 38.5
q78 0 117 -50.5t30 -132.5l-29 -229q-6 -39 27 -39z" />
    <glyph glyph-name="Itilde" unicode="&#x128;" horiz-adv-x="222" 
d="M330 759q-1 -13 -2 -24q-3 -30 -20.5 -46t-45.5 -16q-21 0 -43 16.5t-42 32.5t-37 16q-13 0 -22.5 -6t-16 -19t-6.5 -33l1 -7h-21v9q0 36 18.5 56t49.5 20q23 0 45 -16t41.5 -32t35.5 -16q45 0 45 57v8h20zM100 0l84 650h21l-84 -650h-21z" />
    <glyph glyph-name="itilde" unicode="&#x129;" horiz-adv-x="197" 
d="M302 654q-1 -13 -2 -24q-4 -30 -21 -45.5t-44 -15.5q-22 0 -43.5 16t-41.5 32t-37 16q-20 0 -32.5 -14.5t-12.5 -42.5v-8h-20v9q0 37 18 57t49 20q22 0 44.5 -16.5t42 -32.5t35.5 -16q45 0 45 58v7h20zM166 463l-54 -410q-4 -38 26 -38q7 0 15 2v-18q-9 -3 -21 -3
q-47 0 -40 56l54 410z" />
    <glyph glyph-name="Imacron" unicode="&#x12a;" horiz-adv-x="222" 
d="M94 709l2 19h230l-2 -19h-230zM100 0l84 650h21l-84 -650h-21z" />
    <glyph glyph-name="imacron" unicode="&#x12b;" horiz-adv-x="197" 
d="M64 605l3 19h230l-2 -19h-231zM166 463l-54 -410q-4 -38 26 -38q7 0 15 2v-18q-9 -3 -21 -3q-47 0 -40 56l54 410z" />
    <glyph glyph-name="Ibreve" unicode="&#x12c;" horiz-adv-x="222" 
d="M312 785q-6 -48 -36.5 -78t-75.5 -30t-68 29.5t-17 78.5h19q-6 -40 13.5 -65t55 -24.5t60.5 25t31 64.5h18zM100 0l84 650h21l-84 -650h-21z" />
    <glyph glyph-name="ibreve" unicode="&#x12d;" horiz-adv-x="197" 
d="M291 670q-7 -60 -40 -93t-83 -33t-75 33t-17 93h20q-4 -34 4 -58.5t26 -36.5t44 -13q41 1 68.5 29t33.5 79h19zM166 463l-54 -410q-4 -38 26 -38q7 0 15 2v-18q-9 -3 -21 -3q-47 0 -40 56l54 410z" />
    <glyph glyph-name="Iogonek" unicode="&#x12e;" horiz-adv-x="222" 
d="M121 0q-4 -1 -11 -4t-24.5 -13t-31 -22t-24.5 -32t-11 -42q0 -21 12.5 -33.5t34.5 -12.5q7 0 14.5 1.5t13 4t10 5t6.5 4.5l3 2l7 -14q-21 -22 -58 -22q-29 0 -46.5 18t-17.5 47q0 26 11.5 47.5t29.5 36t32.5 23t29.5 14.5l83 642h21z" />
    <glyph glyph-name="iogonek" unicode="&#x12f;" horiz-adv-x="197" 
d="M180 643q10 0 16.5 -7t6.5 -17q0 -8 -4 -15t-11 -11t-15 -4q-9 0 -16 7.5t-7 17.5q0 12 9.5 20.5t20.5 8.5zM166 463l-54 -410q-4 -38 26 -38q7 0 15 2v-18q-4 -1 -11 -4t-24.5 -13t-31 -22t-24.5 -32t-11 -42q0 -21 12.5 -33.5t33.5 -12.5q11 0 23 4t18 9l6 4l8 -14
q-22 -22 -58 -22q-29 0 -46.5 18t-17.5 47q0 72 84 113q-28 10 -22 53l54 410z" />
    <glyph glyph-name="Idotaccent" unicode="&#x130;" horiz-adv-x="222" 
d="M202 705q-9 0 -16 7t-7 18t9.5 20t20.5 9q10 0 16.5 -7.5t6.5 -16.5q0 -13 -9 -21.5t-21 -8.5zM100 0l84 650h21l-84 -650h-21z" />
    <glyph glyph-name="IJ" unicode="&#x132;" horiz-adv-x="621" 
d="M100 0l84 650h21l-84 -650h-21zM262 72q45 -57 114 -57q129 0 149 144l64 491h21l-63 -487q-22 -167 -173 -167q-82 0 -129 58z" />
    <glyph glyph-name="ij" unicode="&#x133;" horiz-adv-x="375" 
d="M203 619q0 -8 -4 -15t-11 -11t-15 -4q-9 0 -16 7.5t-7 17.5q0 12 9.5 20.5t20.5 8.5q10 0 16.5 -7t6.5 -17zM380 618q0 -11 -9.5 -20t-21.5 -9q-5 0 -9 2t-7.5 5.5t-5 8t-1.5 9.5q0 12 9.5 20.5t21.5 8.5q9 0 16 -7t7 -18zM78 -168q23 -21 66 -21q51 0 78.5 29.5
t36.5 99.5l68 522l20 1l-68 -523q-10 -76 -43.5 -112t-94.5 -36q-22 0 -40 6t-25 11l-7 6zM166 463l-54 -410q-4 -38 26 -38q7 0 15 2v-18q-9 -3 -21 -3q-47 0 -40 56l54 410z" />
    <glyph glyph-name="Jcircumflex" unicode="&#x134;" horiz-adv-x="399" 
d="M412 794l76 -115l-24 1l-70 92l-94 -92l-23 -1l106 115h29zM40 72q45 -57 115 -57q129 0 148 144l64 491h21l-63 -487q-21 -167 -173 -167q-81 0 -128 58z" />
    <glyph glyph-name="jcircumflex" unicode="&#x135;" horiz-adv-x="200" 
d="M67 566l109 134h29l73 -134l-21 1l-70 111l-95 -111zM-96 -168q24 -21 66 -21q51 0 78.5 29.5t36.5 99.5l67 522l20 1l-67 -523q-10 -76 -43.5 -112t-94.5 -36q-22 0 -40 6t-25 11l-7 6z" />
    <glyph glyph-name="Kcommaaccent" unicode="&#x136;" horiz-adv-x="601" 
d="M597 0h-11.5h-13.5q-32 0 -56.5 22.5t-38.5 57t-30 74t-31 74t-42 57t-62 22.5h-150l-40 -307h-22l84 650h22l-42 -323h150q22 0 48 8.5t58 32t59 58t49.5 93t32.5 131.5h22q-8 -56 -21.5 -103.5t-31.5 -81t-38 -59t-43.5 -43t-43.5 -28.5t-43 -19q29 -9 52.5 -42.5
t39.5 -75.5t32.5 -83t39 -68.5t50.5 -27.5h23zM284 -78q0 8 4.5 14.5t11 10t13.5 3.5q24 0 24 -28q0 -18 -6 -34.5t-14 -26.5t-16.5 -18t-14.5 -11l-6 -3l-10 17q4 2 10.5 6t17.5 18t14 29q-13 0 -20.5 6.5t-7.5 16.5z" />
    <glyph glyph-name="kcommaaccent" unicode="&#x137;" horiz-adv-x="510" 
d="M473 428q-8 -63 -42.5 -113.5t-88.5 -72.5l106 -242h-25l-102 236q-25 -7 -51 -7h-135l-30 -229h-20l91 706h20l-59 -458h134q72 0 123.5 50.5t58.5 130.5q0 6 0.5 16.5t1.5 16.5h20q-1 -6 -1.5 -17t-0.5 -17zM238 -50q24 0 24 -28q0 -18 -5.5 -34.5t-14 -26.5t-17 -18
t-13.5 -11l-6 -3l-10 17q4 2 10 6t17.5 18t13.5 29q-8 0 -14.5 3t-10 8.5t-3.5 11.5q0 8 4.5 14.5t11.5 10t13 3.5z" />
    <glyph glyph-name="kgreenlandic" unicode="&#x138;" horiz-adv-x="442" 
d="M471 462l-241 -227l200 -235h-28l-192 227h-75l-30 -227h-20l60 462h20l-28 -216h77l228 216h29z" />
    <glyph glyph-name="Lacute" unicode="&#x139;" horiz-adv-x="475" 
d="M299 794l-92 -113l-19 -2l80 115h31zM124 20h341l-3 -20h-362l84 650h21z" />
    <glyph glyph-name="lacute" unicode="&#x13a;" horiz-adv-x="195" 
d="M199 792l-19 -2l82 134h30zM87 0l91 706h20l-91 -706h-20z" />
    <glyph glyph-name="Lcommaaccent" unicode="&#x13b;" horiz-adv-x="475" 
d="M124 20h341l-3 -20h-362l84 650h21zM283 -50q24 0 24 -28q0 -18 -6 -34.5t-14 -26.5t-16.5 -18t-13.5 -11l-6 -3l-11 17q4 2 10.5 6t18 18t13.5 29q-13 0 -20.5 6.5t-7.5 16.5q0 12 9 20t20 8z" />
    <glyph glyph-name="lcommaaccent" unicode="&#x13c;" horiz-adv-x="195" 
d="M87 0l91 706h20l-91 -706h-20zM59 -78q0 6 3 11.5t7 9t9 5.5t10 2q24 0 24 -28q0 -18 -5.5 -34.5t-14 -26.5t-16.5 -18t-14 -11l-6 -3l-10 17q4 2 10 6t17.5 18t13.5 29q-8 0 -14.5 3t-10 8.5t-3.5 11.5z" />
    <glyph glyph-name="Lcaron" unicode="&#x13d;" horiz-adv-x="475" 
d="M399 591q4 2 10 6.5t17.5 18t13.5 29.5q-6 0 -11 1.5t-9 4.5t-5.5 7.5t-1.5 9.5q0 6 2.5 11.5t6.5 9t9.5 5.5t10.5 2q7 0 13 -3t8.5 -9t2.5 -14q0 -19 -5.5 -35.5t-14 -27t-16.5 -18.5t-14 -12l-6 -3zM205 650l-81 -630h341l-2 -20h-363l84 650h21z" />
    <glyph glyph-name="lcaron" unicode="&#x13e;" horiz-adv-x="204" 
d="M266 688q0 12 9 20t20 8q8 0 13.5 -3t8.5 -9t3 -14q0 -19 -6 -35.5t-14.5 -27t-16.5 -18.5t-14 -12l-6 -3l-11 17q2 1 4.5 2.5t9 6.5t12 11t10.5 15t6 19q-13 0 -20.5 6.5t-7.5 16.5zM87 0l91 706h20l-91 -706h-20z" />
    <glyph glyph-name="Ldot" unicode="&#x13f;" horiz-adv-x="475" 
d="M124 20h341l-3 -20h-362l84 650h21zM331 257q-7 0 -12 3.5t-8 9t-3 11.5q0 8 4.5 15t11.5 11t14 4q6 0 11.5 -3.5t8.5 -9t3 -11.5q0 -12 -9.5 -21t-20.5 -9z" />
    <glyph glyph-name="ldot" unicode="&#x140;" horiz-adv-x="212" 
d="M87 0l91 706h20l-91 -706h-20zM275 352q0 -12 -9 -20.5t-21 -8.5q-6 0 -11.5 3.5t-8.5 9t-3 12.5q0 6 2.5 11t6.5 9t9.5 6.5t11.5 2.5q9 0 16 -7.5t7 -17.5z" />
    <glyph glyph-name="Lslash" unicode="&#x141;" horiz-adv-x="475" 
d="M124 20h341l-3 -20h-362l37 285l-98 -56l-8 15l109 62l44 344h21l-43 -331l169 96l7 -15l-178 -102z" />
    <glyph glyph-name="lslash" unicode="&#x142;" horiz-adv-x="232" 
d="M252 397l-80 -45l-45 -352h-20l44 340l-67 -38l-7 16l77 43l44 345h20l-43 -333l69 39z" />
    <glyph glyph-name="Nacute" unicode="&#x143;" horiz-adv-x="653" 
d="M420 681l-19 -2l80 115h31zM637 650l-84 -650h-33l-288 568l-29 59l-2 -1q1 -8 -3 -46l-76 -580h-22l84 650h29l290 -569q3 -7 14 -28.5t16 -32.5l2 1l5 48l76 581h21z" />
    <glyph glyph-name="nacute" unicode="&#x144;" horiz-adv-x="541" 
d="M416 681l-92 -133l-19 -2l82 135h29zM490 15q8 0 16 2v-18q-10 -3 -23 -3q-47 0 -40 58l29 229q9 74 -26.5 119.5t-103.5 45.5q-33 0 -63.5 -11t-53 -29t-40.5 -41t-29 -47t-15 -47l-36 -273h-20l60 462l15 1q-4 -62 -14 -133h1q23 58 77.5 97t120.5 39q78 0 117 -50.5
t30 -132.5l-29 -229q-6 -39 27 -39z" />
    <glyph glyph-name="Ncommaaccent" unicode="&#x145;" horiz-adv-x="653" 
d="M637 650l-84 -650h-33l-288 568l-29 59l-2 -1q1 -8 -3 -46l-76 -580h-22l84 650h29l290 -569q3 -7 14 -28.5t16 -32.5l2 1l5 48l76 581h21zM292 -78q0 8 4.5 14.5t11 10t13.5 3.5q24 0 24 -28q0 -18 -6 -34.5t-14 -26.5t-16.5 -18t-14.5 -11l-6 -3l-10 17q2 1 4.5 2.5
t9 6.5t11.5 10.5t10 15t7 18.5q-9 0 -15.5 3t-9.5 8.5t-3 11.5z" />
    <glyph glyph-name="Ncaron" unicode="&#x147;" horiz-adv-x="653" 
d="M327 798l22 -1l71 -91l93 91l25 1l-106 -115h-28zM637 650l-84 -650h-33l-288 568l-29 59l-2 -1q1 -8 -3 -46l-76 -580h-22l84 650h29l290 -569q3 -7 14 -28.5t16 -32.5l2 1l5 48l76 581h21z" />
    <glyph glyph-name="ncaron" unicode="&#x148;" horiz-adv-x="541" 
d="M357 546h-26l-76 134l22 -1l69 -112l97 112l23 1zM490 15q8 0 16 2v-18q-10 -3 -22 -3q-48 0 -41 58l29 229q9 74 -26.5 119.5t-103.5 45.5q-41 0 -77.5 -16.5t-61.5 -43t-41 -56.5t-21 -59l-36 -273h-20l60 462l15 1q-4 -62 -14 -133h1q23 58 77.5 97t120.5 39
q78 0 117 -50.5t30 -132.5l-29 -229q-6 -39 27 -39z" />
    <glyph glyph-name="Eng" unicode="&#x14a;" horiz-adv-x="688" 
d="M616 650h21l-96 -741q-7 -59 -39.5 -95t-86.5 -36q-26 0 -47 10.5t-29 21.5l-8 10l14 17q3 -5 9 -11.5t24.5 -17t38.5 -10.5q42 0 68 28t34 83l12 91h-11l-288 568l-29 59l-2 -1q1 -8 -3 -46l-76 -580h-22l84 650h29l290 -569q3 -7 14 -28.5t16 -32.5l2 1l5 48z" />
    <glyph glyph-name="eng" unicode="&#x14b;" horiz-adv-x="562" 
d="M345 466q78 0 117.5 -51t29.5 -132l-45 -343q-18 -148 -139 -148q-21 0 -39.5 6t-25.5 11l-7 6l9 17q24 -21 66 -21q50 0 78.5 30t37.5 99l45 343q9 74 -26.5 119.5t-103.5 45.5q-54 0 -100.5 -30t-71.5 -70t-30 -79l-35 -269h-20l60 462l15 1q-4 -62 -14 -133h1
q24 59 77.5 97.5t120.5 38.5z" />
    <glyph glyph-name="Omacron" unicode="&#x14c;" horiz-adv-x="672" 
d="M318 709l2 19h231l-2 -19h-231zM421 656q107 0 172 -74t65 -203q0 -87 -25.5 -160t-69.5 -121.5t-102.5 -75t-124.5 -26.5q-107 0 -172 74t-65 203q0 88 25 160.5t69 121t103 75t125 26.5zM338 15q48 0 93 16t82 47.5t65 74.5t43.5 100.5t15.5 122.5q0 80 -28 139.5
t-77.5 91t-113.5 31.5q-61 0 -115 -26t-95 -72t-64.5 -114.5t-23.5 -149.5q0 -120 60 -190.5t158 -70.5z" />
    <glyph glyph-name="omacron" unicode="&#x14d;" horiz-adv-x="524" 
d="M229 605l3 19h230l-2 -19h-231zM322 466q84 0 132.5 -54.5t48.5 -145.5q0 -119 -68 -194.5t-173 -75.5q-83 0 -131.5 54.5t-48.5 145.5q0 119 68 194.5t172 75.5zM264 15q47 0 87.5 18t69.5 50.5t45.5 79.5t16.5 101q0 84 -44 134t-119 50q-94 0 -156 -70t-62 -180
q0 -84 43.5 -133.5t118.5 -49.5z" />
    <glyph glyph-name="Obreve" unicode="&#x14e;" horiz-adv-x="672" 
d="M537 785q-6 -48 -37 -78t-75 -30q-45 0 -68.5 29.5t-17.5 78.5h20q-6 -40 13 -65t55 -24q24 0 43 11.5t31.5 31.5t16.5 46h19zM421 656q107 0 172 -74t65 -203q0 -87 -25.5 -160t-69.5 -121.5t-102.5 -75t-124.5 -26.5q-107 0 -172 74t-65 203q0 88 25 160.5t69 121
t103 75t125 26.5zM338 15q40 0 78 11.5t71 33t60.5 53.5t47.5 71t31 88.5t11 103.5q0 80 -28 139.5t-77.5 91t-113.5 31.5q-60 0 -114.5 -26t-95.5 -72t-64.5 -114.5t-23.5 -149.5q0 -120 60 -190.5t158 -70.5z" />
    <glyph glyph-name="obreve" unicode="&#x14f;" horiz-adv-x="524" 
d="M456 670q-8 -60 -40.5 -93t-82.5 -33t-75 33t-17 93h20q-7 -51 13.5 -79t60.5 -29q41 1 68.5 29t33.5 79h19zM322 466q84 0 132.5 -54.5t48.5 -145.5q0 -119 -68 -194.5t-173 -75.5q-83 0 -131.5 54.5t-48.5 145.5q0 119 68 194.5t172 75.5zM264 15q95 0 157 69.5
t62 179.5q0 84 -44 134t-119 50q-62 0 -112 -31.5t-78 -88.5t-28 -130q0 -84 43.5 -133.5t118.5 -49.5z" />
    <glyph glyph-name="Ohungarumlaut" unicode="&#x150;" horiz-adv-x="672" 
d="M363 681l-19 -2l80 115h31zM482 681l-18 -2l79 115h31zM421 656q107 0 172 -74t65 -203q0 -87 -25.5 -160t-69.5 -121.5t-102.5 -75t-124.5 -26.5q-107 0 -172 74t-65 203q0 88 25 160.5t69 121t103 75t125 26.5zM338 15q40 0 78 11.5t71 33t60.5 53.5t47.5 71t31 88.5
t11 103.5q0 80 -28 139.5t-77.5 91t-113.5 31.5q-61 0 -115 -26t-95 -72t-64.5 -114.5t-23.5 -149.5q0 -120 60 -190.5t158 -70.5z" />
    <glyph glyph-name="ohungarumlaut" unicode="&#x151;" horiz-adv-x="524" 
d="M288 548l-16 -2l82 135h28zM398 548l-15 -2l81 135h29zM322 466q84 0 132.5 -54.5t48.5 -145.5q0 -119 -68 -194.5t-173 -75.5q-83 0 -131.5 54.5t-48.5 145.5q0 119 68 194.5t172 75.5zM264 15q95 0 157 69.5t62 179.5q0 84 -44 134t-119 50q-62 0 -112 -31.5t-78 -88.5
t-28 -130q0 -84 43.5 -133.5t118.5 -49.5z" />
    <glyph glyph-name="OE" unicode="&#x152;" horiz-adv-x="1009" 
d="M1038 631h-340l-36 -281h312l-3 -20h-312l-40 -310h341l-3 -20h-361l24 187q-40 -90 -115.5 -140.5t-168.5 -50.5q-107 0 -172 74t-65 203q0 88 25 160.5t69 121t103 75t125 26.5q93 0 154.5 -56t77.5 -157l27 207h361zM338 15q48 0 93 16t82 47.5t65 74.5t43.5 100.5
t15.5 122.5q0 80 -28 139.5t-77.5 90.5t-113.5 31q-60 0 -114.5 -25.5t-95.5 -71.5t-64.5 -114.5t-23.5 -149.5q0 -120 60 -190.5t158 -70.5z" />
    <glyph glyph-name="oe" unicode="&#x153;" horiz-adv-x="880" 
d="M712 466q69 0 110.5 -45.5t41.5 -123.5q0 -16 -2 -31.5t-4 -22.5l-2 -8h-353q-2 -18 -2 -38q0 -83 43.5 -132.5t121.5 -49.5q88 0 146 58l12 -13q-62 -64 -160 -64q-75 0 -122.5 42t-58.5 114q-27 -72 -86 -114t-135 -42q-83 0 -131.5 54.5t-48.5 145.5q0 119 68 194.5
t172 75.5q73 0 119.5 -42t58.5 -114q11 29 27.5 54t37 43.5t44 32t49.5 20t54 6.5zM264 15q47 0 87.5 18t69.5 50.5t45.5 79.5t16.5 101q0 84 -44 134t-119 50q-94 0 -156 -70t-62 -180q0 -84 43.5 -133.5t118.5 -49.5zM710 448q-48 0 -90.5 -23t-73 -67.5t-40.5 -103.5h335
q3 12 3 42q0 48 -16.5 82.5t-46.5 52t-71 17.5z" />
    <glyph glyph-name="Racute" unicode="&#x154;" horiz-adv-x="559" 
d="M447 794l-92 -113l-19 -2l80 115h31zM534 16l10 1v-20q-5 -1 -15 -1q-31 0 -53 20t-32.5 50.5t-24.5 65.5t-28.5 65t-45 50.5t-74.5 20.5h-115l-35 -268h-21l84 650h175q54 0 94.5 -20.5t62 -58.5t21.5 -89q0 -92 -55 -146.5t-147 -65.5q33 -4 56 -32.5t37 -65t27 -72
t32.5 -60t46.5 -24.5zM159 287h145q90 0 151 52t61 140q0 69 -44 110.5t-118 41.5h-151z" />
    <glyph glyph-name="racute" unicode="&#x155;" horiz-adv-x="292" 
d="M306 681l-92 -133l-19 -2l82 135h29zM297 466q24 0 39 -5l-6 -19q-15 5 -36 5t-41.5 -9t-36 -25t-29.5 -35t-23.5 -39.5t-15.5 -39t-8 -33.5l-35 -266h-20l60 462l15 1q-4 -62 -14 -133h1q19 55 59.5 95.5t90.5 40.5z" />
    <glyph glyph-name="Rcommaaccent" unicode="&#x156;" horiz-adv-x="559" 
d="M534 15l10 2v-20q-5 -1 -15 -1q-31 0 -53 20t-32.5 50.5t-24.5 65.5t-28.5 65t-45 50.5t-74.5 20.5h-115l-35 -268h-21l84 650h175q82 0 130 -45.5t48 -122.5q0 -92 -55 -146.5t-147 -65.5q33 -4 56 -32.5t37 -65t27 -72t32.5 -60.5t46.5 -25zM159 287h145q90 0 151 52
t61 140q0 69 -44 110.5t-118 41.5h-151zM292 -50q24 0 24 -28q0 -18 -6 -34.5t-14 -26.5t-16.5 -18t-14.5 -11l-6 -3l-10 17q4 2 10.5 6t17.5 18t14 29q-13 0 -20.5 6.5t-7.5 16.5q0 12 9 20t20 8z" />
    <glyph glyph-name="rcommaaccent" unicode="&#x157;" horiz-adv-x="292" 
d="M297 466q24 0 39 -5l-6 -19q-15 5 -36 5q-25 0 -49 -13t-41 -34t-31 -46t-22 -47.5t-11 -40.5l-35 -266h-20l60 462l15 1q-4 -62 -14 -133h1q19 55 59.5 95.5t90.5 40.5zM89 -50q23 0 23 -28q0 -18 -5.5 -34.5t-14 -26.5t-16.5 -18t-14 -11l-6 -3l-10 17q4 2 10 6
t17.5 18t13.5 29q-13 0 -20 6.5t-7 16.5q0 12 9 20t20 8z" />
    <glyph glyph-name="Rcaron" unicode="&#x158;" horiz-adv-x="559" 
d="M367 683h-28l-77 115l23 -1l70 -91l94 91l24 1zM534 16l10 1v-20q-5 -1 -15 -1q-31 0 -53 20t-32.5 50.5t-24.5 65.5t-28.5 65t-45 50.5t-74.5 20.5h-115l-35 -268h-21l84 650h175q82 0 130 -45.5t48 -122.5q0 -92 -55 -146.5t-147 -65.5q33 -4 56 -32.5t37 -65t27 -72
t32.5 -60t46.5 -24.5zM159 287h145q90 0 151 52t61 140q0 69 -44 110.5t-118 41.5h-151z" />
    <glyph glyph-name="rcaron" unicode="&#x159;" horiz-adv-x="292" 
d="M247 546h-26l-76 134l22 -1l69 -112l97 112l23 1zM147 330q19 55 59.5 95.5t90.5 40.5q24 0 39 -5l-6 -19q-15 5 -36 5t-41.5 -9t-36 -25t-29.5 -35t-23.5 -39.5t-15.5 -39t-8 -33.5l-35 -266h-20l60 462l15 1q-4 -62 -14 -133h1z" />
    <glyph glyph-name="Sacute" unicode="&#x15a;" horiz-adv-x="520" 
d="M348 681l-19 -2l80 115h31zM500 521q-2 11 -8 24.5t-19 30t-30.5 30t-44.5 22.5t-59 9q-78 0 -131.5 -43.5t-53.5 -112.5q0 -37 18.5 -63t48 -40.5t65 -26t70.5 -24t64.5 -29.5t48 -47t18.5 -73q0 -83 -61 -132.5t-164 -49.5q-77 0 -129.5 22.5t-80.5 51.5l14 16
q21 -20 40.5 -32.5t62 -25.5t95.5 -13q89 0 145.5 45t56.5 115q0 39 -18.5 66.5t-48 42.5t-65 27l-71 24t-65 28.5t-48 46t-18.5 71.5q0 79 57.5 127t150.5 48q35 0 65 -9t49 -22.5t34 -31.5t22.5 -34t12.5 -33z" />
    <glyph glyph-name="sacute" unicode="&#x15b;" horiz-adv-x="423" 
d="M258 548l-19 -2l81 135h30zM377 321q5 12 5 36q0 43 -31.5 67t-83.5 24q-62 0 -101 -30.5t-39 -79.5q0 -29 19.5 -48.5t48.5 -28t62.5 -18.5t62.5 -20t48 -33t19 -57q0 -41 -21 -72t-61 -48t-94 -17q-107 0 -159 66l17 12l1 -1q47 -58 143 -58q35 0 63.5 8t48 22.5
t30.5 36t11 46.5q0 35 -26.5 56.5t-64.5 32t-76 21.5t-65 34.5t-27 62.5q0 58 45 94.5t117 36.5q60 0 97 -27.5t37 -75.5q0 -6 -0.5 -12t-1.5 -10.5t-2 -8.5t-1 -6l-1 -2z" />
    <glyph glyph-name="Scircumflex" unicode="&#x15c;" horiz-adv-x="520" 
d="M374 794l76 -115l-24 1l-70 92l-94 -92l-23 -1l106 115h29zM500 521q-3 14 -12.5 32t-27.5 38t-50 33t-71 13q-78 0 -131.5 -43.5t-53.5 -112.5q0 -37 18.5 -63t48 -40.5t65 -26t70.5 -24t64.5 -29.5t48 -47t18.5 -73q0 -83 -61 -132.5t-164 -49.5q-77 0 -129.5 22.5
t-80.5 51.5l14 16q21 -20 40.5 -32.5t62 -25.5t95.5 -13q89 0 145.5 45t56.5 115q0 39 -18.5 66.5t-48 42.5t-65 27l-71 24t-65 28.5t-48 46t-18.5 71.5q0 79 57.5 127t150.5 48q30 0 55.5 -6t44 -16.5t33 -23.5t24.5 -28.5t16 -28.5t10 -27z" />
    <glyph glyph-name="scircumflex" unicode="&#x15d;" horiz-adv-x="423" 
d="M169 546l108 134h27l77 -134l-23 1l-69 113l-97 -113zM377 321q5 12 5 36q0 43 -31.5 67t-83.5 24q-62 0 -101 -30.5t-39 -79.5q0 -29 19.5 -48.5t48.5 -28t62.5 -18.5t62.5 -20t48 -33t19 -57q0 -63 -47 -100t-129 -37q-107 0 -158 66l16 12l1 -1q47 -58 144 -58
q45 0 79.5 13.5t53.5 39.5t19 60q0 35 -26.5 56.5t-64.5 32t-76 21.5t-65 34.5t-27 62.5q0 58 45 94.5t117 36.5q60 0 97 -27.5t37 -75.5q0 -6 -0.5 -12t-1.5 -10.5t-2 -8.5t-1 -6l-1 -2z" />
    <glyph glyph-name="Scedilla" unicode="&#x15e;" horiz-adv-x="520" 
d="M339 638q-78 0 -131.5 -44t-53.5 -113q0 -37 18.5 -63t48 -40.5t65 -26t70.5 -24t64.5 -29t48 -47t18.5 -73.5q0 -53 -26 -94t-74 -63.5t-112 -24.5l-18 -36q27 -2 46.5 -18.5t19.5 -44.5q0 -22 -11 -39t-31.5 -26.5t-46.5 -9.5q-19 0 -34 6t-20 12l-6 6l12 15
q18 -20 51 -20q29 0 47.5 15t18.5 39q0 21 -17.5 36.5t-56.5 15.5l25 49q-74 1 -124.5 23.5t-77.5 50.5l14 16q21 -20 40.5 -32.5t62 -25.5t95.5 -13q89 0 145.5 45t56.5 115q0 39 -18.5 66.5t-48 42.5t-65 27l-71 24t-65 28.5t-48 46t-18.5 71.5q0 79 57.5 127t150.5 48
q35 0 65 -9t49 -22.5t34 -31.5t22.5 -34t12.5 -33l-23 -5q-3 14 -12.5 32t-27.5 38t-50 33.5t-71 13.5z" />
    <glyph glyph-name="scedilla" unicode="&#x15f;" horiz-adv-x="423" 
d="M397 324l-20 -3q5 12 5 36q0 43 -31.5 67t-83.5 24q-62 0 -101 -30.5t-39 -79.5q0 -29 19.5 -48.5t48.5 -28t62.5 -18.5t62.5 -20t48 -33t19 -57q0 -61 -44.5 -98t-121.5 -39l-18 -36q27 -2 46.5 -18.5t19.5 -44.5q0 -33 -24.5 -54t-64.5 -21q-19 0 -33.5 6t-20.5 12
l-5 6l11 15q18 -20 51 -20q30 0 48.5 15t18.5 39q0 21 -17.5 36.5t-56.5 15.5l25 49q-100 4 -149 66l17 12l1 -1q47 -58 144 -58q34 0 62.5 8t48 22.5t30.5 36t11 46.5q0 35 -26.5 56.5t-64.5 32t-76 21.5t-65 34.5t-27 62.5q0 58 45 94.5t117 36.5q39 0 69.5 -12
t47.5 -35.5t17 -55.5q0 -6 -0.5 -12t-1.5 -10.5t-2 -8.5t-1 -6z" />
    <glyph glyph-name="Scaron" unicode="&#x160;" horiz-adv-x="520" 
d="M255 798l22 -1l71 -91l93 91l25 1l-106 -115h-28zM500 521q-2 11 -8 24.5t-19 30t-30.5 30t-44.5 22.5t-59 9q-78 0 -131.5 -43.5t-53.5 -112.5q0 -37 18.5 -63t48 -40.5t65 -26t70.5 -24t64.5 -29.5t48 -47t18.5 -73q0 -83 -61 -132.5t-164 -49.5q-77 0 -129.5 22.5
t-80.5 51.5l14 16q21 -20 40.5 -32.5t62 -25.5t95.5 -13q89 0 145.5 45t56.5 115q0 39 -18.5 66.5t-48 42.5t-65 27l-71 24t-65 28.5t-48 46t-18.5 71.5q0 79 57.5 127t150.5 48q30 0 55.5 -6t44 -16.5t33 -23.5t24.5 -28.5t16 -28.5t10 -27z" />
    <glyph glyph-name="scaron" unicode="&#x161;" horiz-adv-x="423" 
d="M188 680l23 -1l69 -112l97 112l23 1l-110 -134h-26zM377 321q5 12 5 36q0 43 -31.5 67t-83.5 24q-62 0 -101 -30.5t-39 -79.5q0 -29 19.5 -48.5t48.5 -28t62.5 -18.5t62.5 -20t48 -33t19 -57q0 -63 -47 -100t-129 -37q-107 0 -159 66l17 12l1 -1q47 -58 144 -58
q45 0 79.5 13.5t53.5 39.5t19 60q0 35 -26.5 56.5t-64.5 32t-76 21.5t-65 34.5t-27 62.5q0 58 45 94.5t117 36.5q39 0 69.5 -12t47.5 -35.5t17 -55.5q0 -6 -0.5 -12t-1.5 -10.5t-2 -8.5t-1 -6l-1 -2z" />
    <glyph glyph-name="uni0162" unicode="&#x162;" horiz-adv-x="493" 
d="M97 650h467l-3 -19h-223l-82 -631l-20 -40q27 -2 46.5 -18.5t19.5 -44.5q0 -33 -24.5 -54t-64.5 -21q-19 0 -34 6t-20 12l-6 6l12 15q18 -20 51 -20q30 0 48.5 15t18.5 39q0 21 -17.5 36.5t-57.5 15.5l28 53h-1l82 631h-222z" />
    <glyph glyph-name="uni0163" unicode="&#x163;" horiz-adv-x="345" 
d="M184 444l-38 -305q-9 -63 12 -94t76 -31q25 0 49.5 8t37.5 16l12 8l7 -15q-5 -4 -14.5 -10t-38 -16t-55.5 -10q-9 0 -17 1l-18 -36q28 -2 47 -18.5t19 -44.5q0 -33 -24 -54t-64 -21q-19 0 -34 6t-21 12l-5 6l11 15q19 -20 52 -20q29 0 47.5 15t18.5 39q0 21 -17.5 36.5
t-56.5 15.5l26 51q-87 18 -70 141l39 305h-75l2 18h75l20 145l19 2l-19 -147h190l-2 -18h-191z" />
    <glyph glyph-name="Tcaron" unicode="&#x164;" horiz-adv-x="493" 
d="M244 798l23 -1l71 -91l93 91l24 1l-106 -115h-28zM235 0l82 631h-222l2 19h467l-3 -19h-223l-82 -631h-21z" />
    <glyph glyph-name="tcaron" unicode="&#x165;" horiz-adv-x="345" 
d="M302 548q4 2 10 6t17.5 17.5t13.5 29.5q-12 0 -19.5 6t-7.5 16q0 8 4.5 14.5t11 10t13.5 3.5q11 0 17.5 -7t6.5 -19q0 -18 -5.5 -34.5t-14 -27t-17 -18.5t-14.5 -12l-6 -3zM184 444l-38 -305q-9 -63 12 -94t76 -31q25 0 49.5 8t37.5 16l12 8l7 -15q-5 -4 -14.5 -10
t-38 -16t-55.5 -10q-65 0 -90.5 35.5t-15.5 108.5l39 305h-75l2 18h75l20 145l19 2l-19 -147h190l-2 -18h-191z" />
    <glyph glyph-name="Tbar" unicode="&#x166;" horiz-adv-x="493" 
d="M561 631h-223l-35 -271h133l-2 -18h-133l-45 -342h-21l45 342h-126l2 18h126l35 271h-222l2 19h467z" />
    <glyph glyph-name="tbar" unicode="&#x167;" horiz-adv-x="345" 
d="M375 444h-191l-22 -174h132l-2 -17h-132l-14 -114q-9 -63 12 -94t76 -31q25 0 49.5 8t37.5 16l12 8l7 -15q-5 -4 -14.5 -10t-38 -16t-55.5 -10q-65 0 -90.5 35.5t-15.5 108.5l14 114h-61l3 17h60l23 174h-75l2 18h75l20 145l19 2l-19 -147h190z" />
    <glyph glyph-name="Utilde" unicode="&#x168;" horiz-adv-x="643" 
d="M547 759q-1 -13 -2 -24q-3 -30 -20.5 -46t-45.5 -16q-21 0 -43 16.5t-42 32.5t-37 16q-13 0 -22.5 -6t-15.5 -19t-6 -33v-7h-21v9q0 36 19 56t49 20q23 0 45 -16t41.5 -32t35.5 -16q45 0 45 57v8h20zM614 650h21l-49 -384q-17 -132 -86 -201t-178 -69t-161 69t-35 201
l49 384h22l-49 -384q-16 -124 30.5 -187.5t146 -63.5t161.5 63.5t79 187.5z" />
    <glyph glyph-name="utilde" unicode="&#x169;" horiz-adv-x="526" 
d="M226 568h-20v9q0 37 18 57t49 20q22 0 44.5 -16.5t42 -32.5t35.5 -16q45 0 45 58l-1 7h21q-1 -13 -2 -24q-4 -30 -21 -45.5t-44 -15.5q-22 0 -43.5 16t-41.5 32t-37 16q-20 0 -32.5 -14.5t-12.5 -42.5v-8zM444 55q-6 -40 28 -40q7 0 15 2v-18q-10 -3 -22 -3q-48 0 -41 58
l8 75q-24 -58 -76.5 -95.5t-117.5 -37.5q-75 0 -110.5 48.5t-25.5 130.5l37 287h20l-37 -287q-9 -74 22.5 -117t98.5 -43q39 0 74.5 16t60 42t40.5 55.5t22 58.5l36 275h21z" />
    <glyph glyph-name="Umacron" unicode="&#x16a;" horiz-adv-x="643" 
d="M304 709l2 19h231l-2 -19h-231zM614 650h21l-49 -384q-17 -132 -86 -201t-178 -69t-161 69t-35 201l49 384h22l-49 -384q-16 -124 30.5 -187.5t146 -63.5t161.5 63.5t79 187.5z" />
    <glyph glyph-name="umacron" unicode="&#x16b;" horiz-adv-x="526" 
d="M455 624l-2 -19h-231l3 19h230zM444 55q-6 -40 28 -40q7 0 15 2v-18q-10 -3 -22 -3q-48 0 -41 58l8 75q-24 -58 -76.5 -95.5t-117.5 -37.5q-75 0 -110.5 48.5t-25.5 130.5l37 287h20l-37 -287q-6 -48 5.5 -84.5t41 -56t74.5 -19.5q39 0 74.5 16t60 42t40.5 55.5t22 58.5
l36 275h21z" />
    <glyph glyph-name="Ubreve" unicode="&#x16c;" horiz-adv-x="643" 
d="M523 785q-6 -48 -37 -78t-75 -30q-45 0 -68.5 29.5t-17.5 78.5h20q-6 -40 13 -65t55 -24.5t60.5 25t30.5 64.5h19zM614 650h21l-49 -384q-17 -132 -86 -201t-178 -69t-161 69t-35 201l49 384h22l-49 -384q-16 -124 30.5 -187.5t146 -63.5t161.5 63.5t79 187.5z" />
    <glyph glyph-name="ubreve" unicode="&#x16d;" horiz-adv-x="526" 
d="M326 544q-50 0 -75 33t-17 93h20q-7 -51 13.5 -79t60.5 -29q41 1 68.5 29t33.5 79h19q-8 -60 -40.5 -93t-82.5 -33zM444 55q-6 -40 28 -40q7 0 15 2v-18q-10 -3 -22 -3q-48 0 -41 58l8 75q-24 -58 -76.5 -95.5t-117.5 -37.5q-75 0 -110.5 48.5t-25.5 130.5l37 287h20
l-37 -287q-6 -48 5.5 -84.5t41 -56t74.5 -19.5q39 0 74.5 16t60 42t40.5 55.5t22 58.5l36 275h21z" />
    <glyph glyph-name="Uring" unicode="&#x16e;" horiz-adv-x="643" 
d="M410 672q-25 0 -40.5 16t-15.5 41q0 30 21.5 51t50.5 21q25 0 40 -16t15 -40q0 -31 -21 -52t-50 -21zM463 743q0 18 -10.5 29t-28.5 11q-14 0 -25.5 -6.5t-18 -18.5t-6.5 -27q0 -19 10 -30t28 -11q14 0 25.5 6.5t18.5 18.5t7 28zM614 650h21l-49 -384q-17 -132 -86 -201
t-178 -69t-161 69t-35 201l49 384h22l-49 -384q-16 -124 30.5 -187.5t146 -63.5t161.5 63.5t79 187.5z" />
    <glyph glyph-name="uring" unicode="&#x16f;" horiz-adv-x="526" 
d="M326 548q-16 0 -28.5 7.5t-19.5 20.5t-7 30q0 31 21 51.5t51 20.5q24 0 39.5 -16t15.5 -41q0 -15 -5.5 -29t-15 -23.5t-23 -15t-28.5 -5.5zM340 660q-22 0 -36 -15t-14 -38q0 -18 10 -29t28 -11q14 0 26 6.5t19 18.5t7 27q0 19 -11 30t-29 11zM444 55q-6 -40 28 -40
q7 0 15 2v-18q-10 -3 -22 -3q-48 0 -41 58l8 75q-24 -58 -76.5 -95.5t-117.5 -37.5q-75 0 -110.5 48.5t-25.5 130.5l37 287h20l-37 -287q-6 -48 5.5 -84.5t41 -56t74.5 -19.5q39 0 74.5 16t60 42t40.5 55.5t22 58.5l36 275h21z" />
    <glyph glyph-name="Uhungarumlaut" unicode="&#x170;" horiz-adv-x="643" 
d="M349 681l-19 -2l80 115h31zM468 681l-18 -2l79 115h31zM614 650h21l-49 -384q-17 -132 -86 -201t-178 -69t-161 69t-35 201l49 384h22l-49 -384q-16 -124 30.5 -187.5t146 -63.5t161.5 63.5t79 187.5z" />
    <glyph glyph-name="uhungarumlaut" unicode="&#x171;" horiz-adv-x="526" 
d="M375 681l-94 -133l-16 -2l82 135h28zM486 681l-95 -133l-16 -2l82 135h29zM444 55q-6 -40 28 -40q7 0 15 2v-18q-10 -3 -22 -3q-48 0 -41 58l8 75q-24 -58 -76.5 -95.5t-117.5 -37.5q-75 0 -110.5 48.5t-25.5 130.5l37 287h20l-37 -287q-6 -48 5.5 -84.5t41 -56
t73.5 -19.5q40 0 75.5 16t60 42t40.5 55.5t22 58.5l36 275h21z" />
    <glyph glyph-name="Uogonek" unicode="&#x172;" horiz-adv-x="643" 
d="M614 650h21l-49 -384q-14 -107 -62.5 -173t-125.5 -87q-13 -6 -25.5 -13.5t-29 -21t-26.5 -33t-10 -41.5q0 -21 12.5 -33.5t33.5 -12.5q12 0 23.5 4t17.5 9l7 4l7 -14q-22 -22 -58 -22q-19 0 -33.5 8.5t-22.5 23t-8 33.5q0 60 62 100q-13 -1 -26 -1q-109 0 -161 69
t-35 201l49 384h22l-49 -384q-16 -124 30.5 -187.5t146 -63.5t161.5 63.5t79 187.5z" />
    <glyph glyph-name="uogonek" unicode="&#x173;" horiz-adv-x="526" 
d="M444 55q-6 -40 28 -40q7 0 15 2v-18q-5 -1 -12 -4t-24.5 -13t-31 -22t-24.5 -32t-11 -42q0 -21 12.5 -33.5t34.5 -12.5q11 0 23 4t18 9l6 4l7 -14q-21 -22 -58 -22q-19 0 -33.5 8.5t-22 23t-7.5 33.5q0 72 84 113q-29 10 -24 55l8 75q-24 -58 -76.5 -95.5t-117.5 -37.5
q-75 0 -110.5 48.5t-25.5 130.5l37 287h20l-37 -287q-6 -48 5.5 -84.5t41 -56t74.5 -19.5q39 0 74.5 16t60 42t40.5 55.5t22 58.5l36 275h21z" />
    <glyph glyph-name="Wcircumflex" unicode="&#x174;" horiz-adv-x="836" 
d="M536 794l76 -115l-23 1l-71 92l-93 -92l-24 -1l106 115h29zM865 650h21l-267 -650h-28l-89 585q-3 19 -3 40h-1q0 -1 -5.5 -17t-9.5 -23l-237 -585h-29l-100 650h23l91 -607q2 -15 2 -22h2q2 7 8 22l247 607h22l93 -607q2 -15 2 -22h2q7 18 8 22z" />
    <glyph glyph-name="wcircumflex" unicode="&#x175;" horiz-adv-x="657" 
d="M413 660l-97 -113l-23 -1l107 134h27l77 -134l-23 1zM664 462h21l-198 -462h-29l-66 398q-5 27 -5 36h-1q-1 -2 -3.5 -8.5t-6 -15t-5.5 -12.5l-169 -398h-30l-80 462h23l71 -428l2 -16h2q2 6 7 16l181 428h22l72 -428q1 -5 2 -16h1h2l1 2.5t2.5 6.5t3.5 7z" />
    <glyph glyph-name="Ycircumflex" unicode="&#x176;" horiz-adv-x="536" 
d="M368 772l-93 -92l-24 -1l106 115h29l76 -115l-23 1zM591 650l-278 -388l-34 -262h-22l34 263l-178 387h25l149 -328q3 -7 6.5 -16t6.5 -17t4 -10h1q17 30 27 43l235 328h24z" />
    <glyph glyph-name="ycircumflex" unicode="&#x177;" horiz-adv-x="522" 
d="M335 660l-98 -113l-22 -1l107 134h27l77 -134l-23 1zM476 462h20l-63 -485q-8 -59 -33.5 -99.5t-71 -63t-107.5 -22.5q-84 0 -150 42l12 19q18 -16 54.5 -29t86.5 -13q168 0 190 165l21 156h-2q-23 -60 -74.5 -98t-120.5 -38q-75 0 -110.5 48.5t-25.5 130.5l37 287h20
l-37 -287q-9 -74 22.5 -117t98.5 -43q52 0 96.5 28.5t69 67.5t31.5 78z" />
    <glyph glyph-name="Ydieresis" unicode="&#x178;" horiz-adv-x="536" 
d="M279 706q-10 0 -16.5 7t-6.5 17q0 12 9.5 20.5t20.5 8.5q7 0 12 -3t8 -8.5t3 -11.5q0 -12 -9.5 -21t-20.5 -9zM439 706q-10 0 -16.5 7t-6.5 17q0 12 9.5 20.5t20.5 8.5q10 0 16 -7t6 -16q0 -12 -9 -21t-20 -9zM591 650l-278 -388l-34 -262h-22l34 263l-178 387h25
l149 -328q3 -7 6.5 -16t6.5 -17t4 -10h1q17 30 27 43l235 328h24z" />
    <glyph glyph-name="Zacute" unicode="&#x179;" horiz-adv-x="506" 
d="M347 681l-19 -2l80 115h32zM32 0l2 20l476 586q13 16 20 24v2q-5 -1 -41 -1h-365l2 19h433l-2 -19l-476 -587q-17 -20 -21 -23l1 -2q7 1 41 1h366l-2 -20h-434z" />
    <glyph glyph-name="zacute" unicode="&#x17a;" horiz-adv-x="404" 
d="M261 548l-19 -2l82 135h29zM37 0l2 19l348 414q1 2 3 3.5t3 3t2.5 2.5t2.5 2l-1 1q-5 -1 -20 -1h-276l2 18h320l-2 -18l-349 -415q-3 -4 -10 -10l1 -2q5 2 20 2h283l-2 -19h-327z" />
    <glyph glyph-name="Zdotaccent" unicode="&#x17b;" horiz-adv-x="506" 
d="M346 705q-9 0 -16 7t-7 18t9.5 20t20.5 9q10 0 16.5 -7.5t6.5 -16.5q0 -13 -9 -21.5t-21 -8.5zM32 0l2 20l476 586q13 16 20 24v2q-5 -1 -41 -1h-365l2 19h433l-2 -19l-476 -587q-17 -20 -21 -23l1 -2q7 1 41 1h366l-2 -20h-434z" />
    <glyph glyph-name="zdotaccent" unicode="&#x17c;" horiz-adv-x="404" 
d="M316 619q0 -8 -4.5 -15t-11 -11t-15.5 -4t-16 7.5t-7 17.5q0 12 9.5 20.5t21.5 8.5q9 0 16 -7t7 -17zM37 0l2 19l348 414q2 2 4 4.5t3.5 4t3.5 2.5l-1 1q-5 -1 -20 -1h-276l2 18h320l-2 -18l-349 -415q-3 -4 -10 -10l1 -2q5 2 20 2h283l-2 -19h-327z" />
    <glyph glyph-name="Zcaron" unicode="&#x17d;" horiz-adv-x="506" 
d="M254 798l23 -1l70 -91l94 91l24 1l-106 -115h-28zM32 0l2 20l476 586q13 16 20 24v2q-5 -1 -41 -1h-365l2 19h433l-2 -19l-476 -587q-17 -20 -21 -23l1 -2q7 1 41 1h366l-2 -20h-434z" />
    <glyph glyph-name="zcaron" unicode="&#x17e;" horiz-adv-x="404" 
d="M191 680l23 -1l69 -112l97 112l23 1l-109 -134h-27zM37 0l2 19l348 414q2 2 4 4.5t3.5 4t3.5 2.5l-1 1q-5 -1 -20 -1h-276l2 18h320l-2 -18l-349 -415q-3 -4 -10 -10l1 -2q5 2 20 2h283l-2 -19h-327z" />
    <glyph glyph-name="uni01EA" unicode="&#x1ea;" horiz-adv-x="672" 
d="M396 2q-12 -5 -25 -12.5t-31 -20.5t-29 -33.5t-11 -44.5q0 -21 12.5 -33.5t33.5 -12.5q12 0 23.5 4t17.5 9l7 4l7 -14q-21 -22 -58 -22q-19 0 -33.5 8.5t-22.5 23t-8 33.5q0 65 71 105h-14q-107 0 -172 74t-65 203q0 88 25 160.5t69 121t103 75t125 26.5q107 0 172 -74
t65 -203q0 -103 -35 -184.5t-93.5 -130t-133.5 -62.5zM120 276q0 -120 60 -190.5t158 -70.5q61 0 115 25.5t95 71.5t65 114.5t24 149.5q0 80 -28 139.5t-77.5 90.5t-113.5 31q-60 0 -114.5 -25.5t-95 -71.5t-64.5 -114.5t-24 -149.5z" />
    <glyph glyph-name="uni01EB" unicode="&#x1eb;" horiz-adv-x="524" 
d="M332 6q-12 -4 -24.5 -11t-31.5 -20.5t-31.5 -34.5t-12.5 -46q0 -21 12.5 -33.5t34.5 -12.5q11 0 23 4t18 9l6 4l7 -14q-21 -22 -57 -22q-29 0 -46.5 18t-17.5 47q0 62 65 102h-15q-83 0 -131.5 54.5t-48.5 145.5q0 119 68 194.5t172 75.5q84 0 132.5 -54.5t48.5 -145.5
q0 -97 -47 -167t-124 -93zM102 198q0 -84 43.5 -133.5t118.5 -49.5q95 0 157 69.5t62 179.5q0 84 -44 134t-119 50q-62 0 -112 -31.5t-78 -88.5t-28 -130z" />
    <glyph glyph-name="AEacute" unicode="&#x1fc;" horiz-adv-x="954" 
d="M720 794l-92 -113l-19 -2l80 115h31zM935 631h-340l-37 -281h312l-3 -20h-311l-41 -310h341l-3 -20h-361l26 199h-316l-176 -199h-26l576 650h361zM219 219h301l52 398z" />
    <glyph glyph-name="aeacute" unicode="&#x1fd;" horiz-adv-x="805" 
d="M527 681l-93 -133l-18 -2l81 135h30zM638 466q45 0 79.5 -20t53.5 -58.5t19 -90.5q0 -16 -2 -31.5t-4 -22.5l-2 -8h-353q-2 -18 -2 -38q0 -83 43.5 -132.5t121.5 -49.5q88 0 146 58l12 -13q-62 -64 -160 -64q-73 0 -119.5 39t-59.5 107h-3q-7 -25 -24.5 -49.5t-43.5 -47
t-65 -36t-84 -13.5q-60 0 -92.5 26.5t-32.5 72.5q0 36 14.5 62.5t39.5 43.5t64 28t80.5 16t96.5 7l49 1l6 47q9 67 -26 107.5t-103 40.5q-46 0 -82.5 -17.5t-58 -49.5t-21.5 -74q0 -16 1 -19l-18 -4q-2 9 -2 23q0 70 52.5 114.5t130.5 44.5q67 0 106.5 -34.5t42.5 -94.5
q30 61 83.5 95t116.5 34zM636 448q-48 0 -90.5 -23t-73 -67.5t-40.5 -103.5h335q3 12 3 42q0 72 -36 112t-98 40zM198 15q40 0 75 13t56.5 31t37.5 39.5t22.5 36.5t7.5 23l10 77l-48 -2q-63 -2 -108 -8.5t-84.5 -20.5t-59.5 -40.5t-20 -63.5q0 -40 28 -62.5t83 -22.5z" />
    <glyph glyph-name="Oslashacute" unicode="&#x1fe;" horiz-adv-x="672" 
d="M506 794l-93 -113l-19 -2l80 115h32zM671 688l-80 -103q67 -75 67 -206q0 -87 -25.5 -160t-69.5 -121.5t-102.5 -75t-124.5 -26.5q-94 0 -156 57l-76 -97h-24l86 111q-67 75 -67 206q0 88 25 160.5t69 121t103 75t125 26.5q95 0 156 -58l70 90h24zM120 276
q0 -120 60 -191l384 495q-58 57 -146 57q-60 0 -114.5 -25.5t-95 -71.5t-64.5 -114.5t-24 -149.5zM637 376q0 119 -60 190l-384 -495q58 -56 145 -56q61 0 115 25.5t95 71.5t65 114.5t24 149.5z" />
    <glyph glyph-name="oslashacute" unicode="&#x1ff;" horiz-adv-x="524" 
d="M406 681l-93 -133l-19 -2l82 135h30zM443 423q60 -55 60 -157q0 -119 -68 -194.5t-173 -75.5q-64 0 -109 34l-44 -60h-21l52 71q-58 54 -58 155q0 119 68 194.5t172 75.5q64 0 108 -32l44 58h21zM102 198q0 -91 50 -141l266 360q-40 31 -98 31q-94 0 -156 -70t-62 -180z
M264 15q95 0 157 69.5t62 179.5q0 92 -52 142l-266 -360q41 -31 99 -31z" />
    <glyph glyph-name="Scommaaccent" unicode="&#x218;" horiz-adv-x="520" 
d="M500 521q-3 14 -12.5 32t-27.5 38t-50 33t-71 13q-78 0 -131.5 -43.5t-53.5 -112.5q0 -37 18.5 -63t48 -40.5t65 -26t70.5 -24t64.5 -29.5t48 -47t18.5 -73q0 -83 -61 -132.5t-164 -49.5q-77 0 -129.5 22.5t-80.5 51.5l14 16q21 -20 40.5 -32.5t62 -25.5t95.5 -13
q89 0 145.5 45t56.5 115q0 39 -18.5 66.5t-48 42.5t-65 27l-71 24t-65 28.5t-48 46t-18.5 71.5q0 79 57.5 127t150.5 48q30 0 55.5 -6t44 -16.5t33 -23.5t24.5 -28.5t16 -28.5t10 -27zM230 -78q0 8 4.5 14.5t11 10t13.5 3.5q24 0 24 -28q0 -18 -6 -34.5t-14 -26.5t-16.5 -18
t-14.5 -11l-6 -3l-10 17q4 2 10.5 6t17.5 18t14 29q-13 0 -20.5 6.5t-7.5 16.5z" />
    <glyph glyph-name="scommaaccent" unicode="&#x219;" horiz-adv-x="423" 
d="M377 321q5 12 5 36q0 43 -31.5 67t-83.5 24q-62 0 -101 -30.5t-39 -79.5q0 -29 19.5 -48.5t48.5 -28t62.5 -18.5t62.5 -20t48 -33t19 -57q0 -41 -21 -72t-61 -48t-94 -17q-107 0 -159 66l17 12l1 -1q47 -58 143 -58q46 0 80.5 13.5t53.5 39.5t19 60q0 35 -26.5 56.5
t-64.5 32t-76 21.5t-65 34.5t-27 62.5q0 58 45 94.5t117 36.5q60 0 97 -27.5t37 -75.5q0 -6 -0.5 -12t-1.5 -10.5t-2 -8.5t-1 -6l-1 -2zM176 -78q0 8 4.5 14.5t11.5 10t13 3.5q24 0 24 -28q0 -18 -5.5 -34.5t-14 -26.5t-17 -18t-13.5 -11l-6 -3l-10 17q4 2 10 6t17.5 18
t13.5 29q-8 0 -14.5 3t-10 8.5t-3.5 11.5z" />
    <glyph glyph-name="uni021A" unicode="&#x21a;" horiz-adv-x="493" 
d="M235 0l82 631h-222l2 19h467l-3 -19h-223l-82 -631h-21zM209 -78q0 6 3 11.5t7 9t9 5.5t10 2q24 0 24 -28q0 -18 -5.5 -34.5t-14 -26.5t-17 -18t-13.5 -11l-6 -3l-11 17q5 2 11 6t17.5 18t13.5 29q-9 0 -15 3t-9.5 8.5t-3.5 11.5z" />
    <glyph glyph-name="uni021B" unicode="&#x21b;" horiz-adv-x="345" 
d="M184 444l-38 -305q-9 -63 12 -94t76 -31q25 0 49.5 8t37.5 16l12 8l7 -15q-5 -4 -14.5 -10t-38 -16t-55.5 -10q-65 0 -90.5 35.5t-15.5 108.5l39 305h-75l2 18h75l20 145l19 2l-19 -147h190l-2 -18h-191zM200 -50q24 0 24 -28q0 -18 -6 -34.5t-14.5 -26.5t-16.5 -18
t-14 -11l-6 -3l-10 17q4 2 10 6t17.5 18t13.5 29q-12 0 -19.5 6.5t-7.5 16.5q0 12 9 20t20 8z" />
    <glyph glyph-name="uni0237" unicode="&#x237;" horiz-adv-x="201" 
d="M-96 -168q24 -21 66 -21q51 0 78.5 29.5t36.5 99.5l67 522l20 1l-67 -523q-5 -38 -15.5 -65.5t-27.5 -46t-40.5 -27.5t-54.5 -9q-22 0 -40 6t-25 11l-7 6z" />
    <glyph glyph-name="circumflex" unicode="&#x2c6;" horiz-adv-x="292" 
d="M111 546l108 134h27l77 -134l-23 1l-69 113l-97 -113z" />
    <glyph glyph-name="caron" unicode="&#x2c7;" horiz-adv-x="292" 
d="M129 680l22 -1l69 -112l97 112l23 1l-109 -134h-26z" />
    <glyph glyph-name="breve" unicode="&#x2d8;" horiz-adv-x="271" 
d="M329 670q-7 -60 -40 -93t-82.5 -33t-74.5 33t-17 93h19q-6 -51 14 -79t61 -29q40 1 67.5 29t34.5 79h18z" />
    <glyph glyph-name="dotaccent" unicode="&#x2d9;" horiz-adv-x="156" 
d="M184 619q0 -8 -4.5 -15t-11 -11t-15.5 -4t-15.5 7.5t-6.5 17.5q0 12 9 20.5t21 8.5q10 0 16.5 -7t6.5 -17z" />
    <glyph glyph-name="ring" unicode="&#x2da;" horiz-adv-x="224" 
d="M182 548q-16 0 -28.5 7.5t-19 20.5t-6.5 30q0 31 20.5 51.5t50.5 20.5q24 0 39.5 -16t15.5 -41q0 -31 -20.5 -52t-51.5 -21zM236 619q0 19 -10.5 30t-29.5 11q-10 0 -19.5 -4t-16 -11t-10 -16.5t-3.5 -21.5q0 -18 10 -29t27 -11q22 0 37 14.5t15 37.5z" />
    <glyph glyph-name="ogonek" unicode="&#x2db;" horiz-adv-x="225" 
d="M151 -156q-21 -22 -58 -22q-28 0 -45.5 18t-17.5 47q0 19 6.5 36.5t16.5 30t23 23t25.5 17t22.5 11t17 6.5l6 2l6 -13q-5 -1 -11.5 -4t-24.5 -13t-31.5 -22t-24.5 -32t-11 -42q0 -21 12.5 -33.5t34.5 -12.5q11 0 22.5 4t18.5 9l6 4z" />
    <glyph glyph-name="tilde" unicode="&#x2dc;" horiz-adv-x="338" 
d="M371 654q-1 -13 -2 -24q-4 -30 -21 -45.5t-44 -15.5q-22 0 -43.5 16t-41.5 32t-37 16q-21 0 -33 -14.5t-12 -42.5v-8h-20v9q0 24 8.5 41.5t23.5 26.5t35 9q22 0 44.5 -16.5t42 -32.5t35.5 -16q44 0 44 58v7h21z" />
    <glyph glyph-name="hungarumlaut" unicode="&#x2dd;" horiz-adv-x="315" 
d="M141 548l-16 -2l82 135h29zM251 548l-15 -2l81 135h29z" />
    <glyph glyph-name="gravecomb" unicode="&#x300;" 
d="M-5 546l-61 135h29l48 -133z" />
    <glyph glyph-name="acutecomb" unicode="&#x301;" 
d="M-65 548l-19 -2l82 135h29z" />
    <glyph glyph-name="uni0302" unicode="&#x302;" 
d="M-181 546l107 134h27l77 -134l-22 1l-69 113l-97 -113z" />
    <glyph glyph-name="tildecomb" unicode="&#x303;" 
d="M33 654q-1 -13 -2 -24q-3 -30 -20 -45.5t-45 -15.5q-21 0 -43 16t-42 32t-37 16q-20 0 -32 -14.5t-12 -42.5v-8h-21v9q0 37 18.5 57t48.5 20q23 0 45 -16.5t41.5 -32.5t35.5 -16q45 0 45 58v7h20z" />
    <glyph glyph-name="uni0304" unicode="&#x304;" 
d="M-200 605l2 19h230l-2 -19h-230z" />
    <glyph glyph-name="uni0306" unicode="&#x306;" 
d="M58 670q-7 -60 -40 -93t-82.5 -33t-74.5 33t-17 93h19q-6 -51 14 -79t60 -29q41 1 68.5 29t33.5 79h19z" />
    <glyph glyph-name="uni0307" unicode="&#x307;" 
d="M28 619q0 -8 -4 -15t-11 -11t-15 -4q-9 0 -16 7.5t-7 17.5q0 12 9.5 20.5t20.5 8.5q10 0 16.5 -7t6.5 -17z" />
    <glyph glyph-name="uni0308" unicode="&#x308;" 
d="M-152 588q-10 0 -16.5 7t-6.5 16q0 12 9.5 21t20.5 9q6 0 11.5 -3.5t8.5 -8.5t3 -12q0 -12 -9.5 -20.5t-20.5 -8.5zM7 588q-9 0 -15.5 7t-6.5 16q0 12 9 21t21 9q9 0 15.5 -7t6.5 -17q0 -12 -9 -20.5t-21 -8.5z" />
    <glyph glyph-name="uni030A" unicode="&#x30a;" 
d="M-41 548q-12 0 -22 4.5t-17 12t-11 18t-4 23.5q0 31 21 51.5t51 20.5q24 0 39 -16t15 -41q0 -31 -20.5 -52t-51.5 -21zM13 619q0 19 -10.5 30t-29.5 11q-21 0 -35 -15t-14 -38q0 -18 10 -29t28 -11q21 0 36 14.5t15 37.5z" />
    <glyph glyph-name="uni030B" unicode="&#x30b;" 
d="M-174 548l-16 -2l82 135h28zM-64 548l-16 -2l82 135h28z" />
    <glyph glyph-name="uni030C" unicode="&#x30c;" 
d="M-163 680l22 -1l69 -112l97 112l23 1l-109 -134h-26z" />
    <glyph glyph-name="uni0326" unicode="&#x326;" 
d="M-115 -78q0 6 3 11.5t7 9t9 5.5t11 2q23 0 23 -28q0 -18 -5.5 -34.5t-14 -26.5t-16.5 -18t-14 -11l-6 -3l-10 17q1 1 3.5 2.5t9 6.5t12 10.5t10.5 15t6 18.5q-5 0 -9.5 1.5t-7.5 3.5t-5.5 4.5t-4 6t-1.5 7.5z" />
    <glyph glyph-name="uni0327" unicode="&#x327;" 
d="M-130 -40q28 -2 47 -18.5t19 -44.5q0 -33 -24 -54t-64 -21q-19 0 -34 6t-20 12l-6 6l12 15q18 -20 51 -20q29 0 47.5 15t18.5 39q0 21 -17.5 36.5t-56.5 15.5l28 55l20 -2z" />
    <glyph glyph-name="uni0328" unicode="&#x328;" 
d="M-74 -156q-21 -22 -58 -22q-28 0 -45.5 18t-17.5 47q0 19 6.5 36.5t17 30t23 23t25 17t23 11t16.5 6.5l7 2l5 -13q-4 -1 -11 -4t-25 -13t-31.5 -22t-24.5 -32t-11 -42q0 -21 12.5 -33.5t34.5 -12.5q7 0 14.5 1.5t13 4t10 5t7.5 4.5l2 2z" />
    <glyph glyph-name="uni0335" unicode="&#x335;" 
d="M-206 196h212l-2 -18h-212z" />
    <glyph glyph-name="uni0336" unicode="&#x336;" 
d="M-267 196h280l-2 -18h-280z" />
    <glyph glyph-name="uni0337" unicode="&#x337;" 
d="M-139 337l167 95l7 -15l-167 -95z" />
    <glyph glyph-name="uni0338" unicode="&#x338;" 
d="M21 502h21l-386 -522h-21z" />
    <glyph glyph-name="Wgrave" unicode="&#x1e80;" horiz-adv-x="836" 
d="M498 679l-62 115h32l49 -113zM865 650h21l-267 -650h-28l-89 585q-3 19 -3 40h-1q0 -1 -5.5 -17t-9.5 -23l-237 -585h-29l-100 650h22l92 -607q2 -15 2 -22h2q2 7 8 22l247 607h22l93 -607q2 -15 2 -22h2q6 18 8 22z" />
    <glyph glyph-name="wgrave" unicode="&#x1e81;" horiz-adv-x="657" 
d="M426 548l-16 -2l-61 135h29zM664 462h21l-198 -462h-29l-66 398q-5 27 -5 36h-1q-1 -2 -3.5 -8.5t-6 -15t-5.5 -12.5l-169 -398h-30l-80 462h23l71 -428l2 -16h2q2 6 7 16l181 428h22l72 -428q1 -5 2 -15v-1h2l1.5 2.5t3 6.5t3.5 7z" />
    <glyph glyph-name="Wacute" unicode="&#x1e82;" horiz-adv-x="836" 
d="M510 681l-19 -2l80 115h32zM865 650h21l-267 -650h-28l-89 585q-3 19 -3 40h-1q0 -1 -5.5 -17t-9.5 -23l-237 -585h-29l-100 650h22l91 -607q3 -15 3 -22h2q2 7 8 22l247 607h22l93 -607q2 -15 2 -22h2q6 18 8 22z" />
    <glyph glyph-name="wacute" unicode="&#x1e83;" horiz-adv-x="657" 
d="M499 681l-92 -133l-19 -2l82 135h29zM664 462h21l-198 -462h-29l-66 398q-5 27 -5 36h-1q-1 -2 -3.5 -8.5t-6 -15t-5.5 -12.5l-169 -398h-30l-80 462h23l71 -428l2 -16h2q2 6 7 16l181 428h22l72 -428q1 -5 2 -15v-1h2l1.5 2.5t3 6.5t3.5 7z" />
    <glyph glyph-name="Wdieresis" unicode="&#x1e84;" horiz-adv-x="836" 
d="M429 706q-10 0 -16.5 7t-6.5 17q0 12 9.5 20.5t20.5 8.5q7 0 12 -3t8 -8.5t3 -11.5q0 -12 -9.5 -21t-20.5 -9zM589 706q-10 0 -16.5 7t-6.5 17q0 12 9.5 20.5t20.5 8.5q10 0 16.5 -7t6.5 -16q0 -8 -4.5 -15t-11.5 -11t-14 -4zM865 650h21l-267 -650h-28l-89 585
q-3 19 -3 40h-1q0 -1 -5.5 -17t-9.5 -23l-237 -585h-29l-100 650h22l92 -607q2 -15 2 -22h2q2 7 8 22l247 607h22l93 -607q2 -15 2 -22h2q6 18 8 22z" />
    <glyph glyph-name="wdieresis" unicode="&#x1e85;" horiz-adv-x="657" 
d="M327 588q-7 0 -12 3t-8 8.5t-3 11.5q0 12 9.5 21t20.5 9q6 0 11 -3.5t8 -8.5t3 -12q0 -12 -9 -20.5t-20 -8.5zM486 588q-9 0 -15.5 7t-6.5 16q0 12 9 21t21 9q9 0 15.5 -7t6.5 -17q0 -12 -9 -20.5t-21 -8.5zM664 462h21l-198 -462h-29l-66 398q-5 27 -5 36h-1l-3 -6
t-4 -9t-4.5 -11t-3.5 -10l-169 -398h-30l-79 462h22l71 -428q0 -1 2 -16h2q2 6 7 16l181 428h22l72 -428q1 -5 2 -16h1h2l1 2.5t2.5 6.5t3.5 7z" />
    <glyph glyph-name="Ygrave" unicode="&#x1ef2;" horiz-adv-x="536" 
d="M367 681l-19 -2l-62 115h31zM591 650l-278 -388l-34 -262h-22l34 263l-178 387h25l149 -328q3 -7 6.5 -16t6.5 -17t4 -10h1q17 30 27 43l235 328h24z" />
    <glyph glyph-name="ygrave" unicode="&#x1ef3;" horiz-adv-x="522" 
d="M348 548l-17 -2l-60 135h29zM476 462h20l-63 -485q-8 -59 -33.5 -99.5t-71 -63t-107.5 -22.5q-84 0 -150 42l12 19q18 -16 54.5 -29t86.5 -13q168 0 190 165l21 156h-2q-23 -60 -74.5 -98t-120.5 -38q-75 0 -110.5 48.5t-25.5 130.5l37 287h20l-37 -287q-9 -74 22.5 -117
t97.5 -43q53 0 97.5 28.5t69 67.5t31.5 78z" />
    <glyph glyph-name="uni1EF8" unicode="&#x1ef8;" horiz-adv-x="536" 
d="M261 673h-20v9q0 36 18.5 56t49.5 20q23 0 45 -16t41.5 -32t35.5 -16q45 0 45 57v8h20q-1 -13 -2 -24q-4 -30 -21 -46t-45 -16q-21 0 -43 16.5t-42 32.5t-37 16q-20 0 -32.5 -14.5t-12.5 -43.5v-7zM591 650l-278 -388l-34 -262h-22l34 263l-178 387h25l149 -328
q3 -7 6.5 -16t6.5 -17t4 -10h1q17 30 27 43l235 328h24z" />
    <glyph glyph-name="uni1EF9" unicode="&#x1ef9;" horiz-adv-x="522" 
d="M223 568h-20v9q0 37 18 57t49 20q22 0 44 -16.5t41.5 -32.5t36.5 -16q44 0 44 58v7h21q-1 -13 -2 -24q-4 -30 -21 -45.5t-44 -15.5q-22 0 -43.5 16t-41.5 32t-37 16q-21 0 -33 -14.5t-12 -42.5v-8zM476 462h20l-63 -485q-8 -59 -33.5 -99.5t-71 -63t-107.5 -22.5
q-84 0 -150 42l12 19q18 -16 54.5 -29t86.5 -13q168 0 190 165l21 156h-2q-23 -60 -74.5 -98t-120.5 -38q-75 0 -110.5 48.5t-25.5 130.5l37 287h20l-37 -287q-9 -74 22.5 -117t98.5 -43q52 0 96.5 28.5t69 67.5t31.5 78z" />
    <glyph glyph-name="endash" unicode="&#x2013;" horiz-adv-x="461" 
d="M106 265l2 20h318l-2 -20h-318z" />
    <glyph glyph-name="emdash" unicode="&#x2014;" horiz-adv-x="698" 
d="M106 265l2 20h555l-2 -20h-555z" />
    <glyph glyph-name="quoteleft" unicode="&#x2018;" horiz-adv-x="182" 
d="M183 526q0 -6 -2 -11.5t-6 -9t-9.5 -6t-11.5 -2.5q-12 0 -19 8.5t-7 23.5q0 16 4 31.5t10 27.5t13 23t14.5 19t13.5 14t10 9l4 3l14 -19q-5 -4 -13 -12t-23.5 -31.5t-19.5 -45.5q13 0 20.5 -6t7.5 -16z" />
    <glyph glyph-name="quoteright" unicode="&#x2019;" horiz-adv-x="179" 
d="M150 627q0 13 8.5 21t20.5 8t19 -8.5t7 -23.5t-3.5 -30.5t-9.5 -28t-13.5 -23.5t-14.5 -19t-13.5 -14t-9.5 -9l-4 -3l-15 19q6 5 14 12.5t23.5 31t19.5 46.5q-13 0 -21 5.5t-8 15.5z" />
    <glyph glyph-name="quotesinglbase" unicode="&#x201a;" horiz-adv-x="196" 
d="M72 16q0 8 4 14.5t10.5 10.5t15.5 4q12 0 19 -8.5t7 -23.5q0 -22 -7.5 -43t-17.5 -35.5t-20 -26t-17 -17.5l-7 -5l-14 19q5 4 13 12t23.5 31.5t19.5 45.5q-13 0 -21 6t-8 16z" />
    <glyph glyph-name="quotedblleft" unicode="&#x201c;" horiz-adv-x="280" 
d="M123 526q0 -6 -2.5 -11.5t-6.5 -9t-9 -6t-12 -2.5q-11 0 -18.5 8.5t-7.5 23.5q0 22 7.5 43t17.5 35.5t20 26t17 17.5l7 5l14 -19q-5 -4 -13 -12t-23.5 -31.5t-19.5 -45.5q13 0 21 -6t8 -16zM214 526q0 -6 -2 -11.5t-6 -9t-9.5 -6t-11.5 -2.5q-12 0 -19 8.5t-7 23.5
q0 16 4 31.5t10 27.5t13 23t14.5 19t13.5 14t10 9l4 3l14 -19q-5 -4 -13 -12t-23.5 -31.5t-19.5 -45.5q13 0 20.5 -6t7.5 -16z" />
    <glyph glyph-name="quotedblright" unicode="&#x201d;" horiz-adv-x="277" 
d="M180 656q8 0 14 -3.5t9 -11t3 -17.5q0 -15 -3.5 -30.5t-10 -28t-13.5 -23.5t-14.5 -19t-13.5 -14t-10 -9l-4 -3l-14 19q6 5 14 12.5t23.5 31t19.5 46.5q-30 0 -30 21q0 9 4 15.5t11 10t15 3.5zM278 656q12 0 19 -8.5t7 -23.5t-3.5 -30.5t-10 -28t-13.5 -23.5t-14.5 -19
t-14 -14t-9.5 -9l-4 -3l-14 19q5 5 13.5 12.5t23.5 31t20 46.5q-30 0 -30 21q0 13 8.5 21t21.5 8z" />
    <glyph glyph-name="quotedblbase" unicode="&#x201e;" horiz-adv-x="294" 
d="M72 16q0 8 4 14.5t10.5 10.5t15.5 4q12 0 19 -8.5t7 -23.5q0 -22 -7.5 -43t-17.5 -35.5t-20 -26t-17 -17.5l-7 -5l-14 19q5 4 13 12t23.5 31.5t19.5 45.5q-13 0 -21 6t-8 16zM174 16q0 12 8.5 20.5t21.5 8.5q11 0 18.5 -8.5t7.5 -23.5q0 -16 -4 -31.5t-10 -27.5
t-13.5 -23t-14.5 -19t-13 -14t-10 -9l-4 -3l-15 19q6 4 14 12t23.5 31.5t19.5 45.5q-13 0 -21 6t-8 16z" />
    <glyph glyph-name="dagger" unicode="&#x2020;" horiz-adv-x="375" 
d="M380 463l-2 -19l-124 2l-29 -222l-54 -427h-20l57 427l28 222l-124 -2l2 19l123 -2l24 189h20l-25 -189z" />
    <glyph glyph-name="daggerdbl" unicode="&#x2021;" horiz-adv-x="375" 
d="M376 442l-121 1l-28 -209l-27 -210l124 1l-2 -18l-124 1l-27 -211h-20l28 211l-123 -1l2 18l123 -1l29 210l25 209l-123 -1l2 18l122 -1l25 191h20l-25 -191l123 1z" />
    <glyph glyph-name="bullet" unicode="&#x2022;" horiz-adv-x="311" 
d="M253 295q0 -18 -9.5 -34t-25.5 -25.5t-34 -9.5q-15 0 -27 7.5t-19 20.5t-7 29q0 18 10 34t26 25.5t33 9.5q15 0 27.5 -7.5t19 -20.5t6.5 -29z" />
    <glyph glyph-name="ellipsis" unicode="&#x2026;" horiz-adv-x="455" 
d="M72 18q0 12 9.5 21t21.5 9q6 0 11.5 -3.5t8 -9t2.5 -11.5q0 -12 -9 -21t-21 -9q-10 0 -16.5 7t-6.5 17zM199 18q0 12 9.5 21t20.5 9q6 0 11.5 -3.5t8.5 -9t3 -11.5t-2.5 -11.5t-7 -9.5t-10 -6.5t-10.5 -2.5q-10 0 -16.5 7t-6.5 17zM335 18q0 12 9.5 21t20.5 9
q7 0 12 -3.5t8 -9t3 -11.5q0 -12 -9 -21t-21 -9q-10 0 -16.5 7t-6.5 17z" />
    <glyph glyph-name="perthousand" unicode="&#x2030;" horiz-adv-x="1155" 
d="M248 0l364 656h21l-364 -656h-21zM224 291q-58 0 -91.5 40t-33.5 109q0 96 48.5 156t123.5 60q57 0 90.5 -41t33.5 -112q0 -63 -22.5 -111.5t-61 -74.5t-87.5 -26zM226 310q42 0 75 23.5t52 67.5t19 101q0 62 -27.5 98t-76.5 36q-64 0 -106 -54t-42 -140
q0 -61 28.5 -96.5t77.5 -35.5zM594 -3q-39 0 -67 18t-43 51.5t-15 79.5q0 96 48 156t123 60q58 0 91.5 -41t33.5 -112q0 -95 -48.5 -153.5t-122.5 -58.5zM968 -3q-38 0 -66 18t-43 51.5t-15 79.5q0 96 48 156t122 60q59 0 92.5 -41t33.5 -112q0 -95 -49 -153.5t-123 -58.5z
M596 16q63 0 104.5 52.5t41.5 138.5q0 63 -28 99t-77 36q-63 0 -105 -54t-42 -140q0 -30 7.5 -55t21 -42t33 -26t44.5 -9zM970 16q64 0 105.5 52.5t41.5 138.5q0 42 -12.5 72.5t-36 46.5t-56.5 16q-64 0 -105 -54t-41 -140q0 -61 28 -96.5t76 -35.5z" />
    <glyph glyph-name="guilsinglleft" unicode="&#x2039;" horiz-adv-x="252" 
d="M82 254l3 20l135 130l12 -15l-135 -125l102 -125l-15 -15z" />
    <glyph glyph-name="guilsinglright" unicode="&#x203a;" horiz-adv-x="252" 
d="M98 124l-11 15l134 125l-101 125l13 15l105 -130l-3 -20z" />
    <glyph glyph-name="fraction" unicode="&#x2044;" horiz-adv-x="278" 
d="M25 0l302 726h22l-302 -726h-22z" />
    <glyph glyph-name="Euro" unicode="&#x20ac;" horiz-adv-x="672" 
d="M490 656q42 0 78 -11.5t59 -31t36 -35t23 -31.5l-17 -13q-9 15 -21 29t-34 33t-55 30.5t-72 11.5q-96 0 -170 -62.5t-105 -168.5h302l-8 -19h-299q-12 -54 -12 -113v-8h272l-9 -20h-262q7 -106 63.5 -169t147.5 -63q123 0 208 103l14 -13q-89 -109 -224 -109
q-101 0 -162.5 68t-68.5 183h-96l8 20h88v6q0 60 12 115h-89l7 19h87q31 114 111.5 181.5t187.5 67.5z" />
    <glyph glyph-name="trademark" unicode="&#x2122;" horiz-adv-x="659" 
d="M118 632l2 18h239l-2 -18h-110l-33 -256h-20l34 256h-110zM633 650h29l-36 -274h-19l31 251l-131 -251h-20l-68 251l-33 -251h-18l35 274h30l67 -248z" />
    <glyph glyph-name="minus" unicode="&#x2212;" horiz-adv-x="462" 
d="M107 241l3 19h310l-3 -19h-310z" />
    <glyph glyph-name="uni2215" unicode="&#x2215;" horiz-adv-x="357" 
d="M16 0l399 726h22l-399 -726h-22z" />
    <glyph glyph-name="uni2219" unicode="&#x2219;" horiz-adv-x="289" 
d="M176 252q-8 0 -12.5 5t-4.5 13q0 11 6.5 17.5t16.5 6.5q8 0 13 -5t5 -13q0 -11 -6.5 -17.5t-17.5 -6.5z" />
    <glyph glyph-name="approxequal" unicode="&#x2248;" horiz-adv-x="534" 
d="M118 321l3 20q47 29 99 29q35 0 93 -20t91 -20q58 0 100 31l-3 -21q-43 -29 -101 -29q-33 0 -90 20t-92 20q-53 0 -100 -30zM96 146l2 20q47 30 100 30q35 0 92.5 -20t90.5 -20q58 0 101 31l-4 -22q-43 -29 -100 -29q-33 0 -90 20t-92 20q-24 0 -52.5 -8.5t-47.5 -21.5z
" />
    <glyph glyph-name="notequal" unicode="&#x2260;" horiz-adv-x="524" 
d="M489 335h-148l-67 -161h194l-2 -19h-200l-64 -155h-22l64 155h-148l3 19h153l67 161h-200l3 20h205l49 117h21l-48 -117h143z" />
    <glyph glyph-name="uniF8FF" unicode="&#xf8ff;" horiz-adv-x="1467" 
d="M725 583q0 26 17.5 44t43.5 18t44 -18t18 -44t-18 -43.5t-44 -17.5t-43.5 18t-17.5 43zM253 270h-119q0 134 9 314h100q10 -200 10 -314zM728 270q0 92 3 147h-61l3 -65q4 -4 15 -4q13 0 18 5v-74q-14 -15 -68 -15q-82 0 -82 66q0 12 2 49t2 38h-22v79l119 30l1 -17h178
q10 -64 10 -239h-118zM362 265q-92 0 -92 114q0 135 134 135q124 0 124 -117v-127h-83l-8 61q-6 -33 -23.5 -49.5t-51.5 -16.5zM1124 270h-114q0 26 1 56t1 37q0 29 -15 29q-18 0 -18 -29q0 -7 1.5 -37t1.5 -56h-114q0 175 10 239h80q6 -44 6 -76q2 15 6.5 30t24 33t49.5 18
q42 0 58.5 -25t18.5 -81zM1385 391q0 -126 -123 -126q-122 0 -122 124q0 125 124 125q121 0 121 -123zM424 375q0 26 -24 26q-22 0 -22 -26q0 -30 22 -30q24 0 24 30zM1285 375q0 26 -23 26q-21 0 -21 -26q0 -30 21 -30q23 0 23 30zM462 238h104q10 -52 10 -138
q0 -81 -33.5 -115.5t-118.5 -34.5q-61 0 -88 17v83q24 -16 70 -16q21 0 34 6t16.5 11.5t3.5 10.5q-17 -11 -49 -11q-90 0 -90 83v13h-55l3 -65q6 -4 15 -4q13 0 18 5v-73q-19 -15 -68 -15q-45 0 -63 17t-18 54q0 39 3 81h-18v80l117 29l-1 -18h177v-119q0 -16 3 -21.5
t12 -5.5q16 0 16 27v119zM767 243q37 0 58.5 -29t21.5 -84q0 -135 -137 -135q1 -15 1 -39h-119q0 142 10 282h78q7 -42 7 -76q17 81 80 81zM1104 127q0 -21 -3 -35h-124q11 -18 50 -18q34 0 55 12v-75q-23 -16 -78 -16q-141 0 -141 122q0 59 32.5 92.5t92.5 33.5
q55 0 85.5 -30t30.5 -86zM1012 109q3 27 -17 27q-23 0 -23 -27h40zM704 72q5 0 12.5 2.5t16 11.5t8.5 23q0 23 -20 23q-22 0 -22 -31q0 -14 5 -29zM1108 13q0 -23 24 -23t24 23t-24 23t-24 -23zM1114 13q0 18 18 18t18 -18t-18 -18t-18 18zM1142 2l-6 9q7 0 7 7t-10 7h-11
v-23h5v9h5l4 -9h6zM1134 15h-7v6h7q4 0 4 -3t-4 -3z" />
    <glyph glyph-name="napostrophe.s001" horiz-adv-x="541" 
d="M91 615q4 2 10.5 6t17.5 18t14 30q-13 0 -20.5 6.5t-7.5 16.5q0 12 9 20t20 8q12 0 18.5 -7t6.5 -19q0 -19 -6 -35.5t-14 -27t-16.5 -19t-14.5 -11.5l-6 -3zM490 15q8 0 16 2v-18q-10 -3 -22 -3q-48 0 -41 58l29 229q5 48 -8.5 85.5t-45 58.5t-76.5 21q-41 0 -77.5 -16.5
t-61.5 -43t-41 -56.5t-21 -59l-36 -273h-20l60 462l15 1q-4 -62 -14 -133h1q23 58 77.5 97t120.5 39q78 0 117 -50.5t30 -132.5l-29 -229q-6 -39 27 -39z" />
    <glyph glyph-name="ncommaaccent.s001" horiz-adv-x="541" 
d="M490 15q8 0 16 2v-18q-10 -3 -23 -3q-47 0 -40 58l29 229q9 74 -26.5 119.5t-103.5 45.5q-33 0 -63.5 -11t-53 -29t-40.5 -41t-29 -47t-15 -47l-36 -273h-20l60 462l15 1q-4 -62 -14 -133h1q23 58 77.5 97t120.5 39q78 0 117 -50.5t30 -132.5l-29 -229q-6 -39 27 -39z
M261 -50q24 0 24 -28q0 -18 -6 -34.5t-14 -26.5t-16.5 -18t-14.5 -11l-5 -3l-11 17q4 2 10.5 6t18 18t13.5 29q-13 0 -20.5 6.5t-7.5 16.5q0 12 9 20t20 8z" />
    <glyph glyph-name="uni0306.case.001" 
d="M47 651q-6 -48 -36.5 -77.5t-75.5 -29.5t-68 29.5t-17 77.5h19q-6 -39 13.5 -64t55 -24.5t60.5 25t31 63.5h18z" />
    <glyph glyph-name="caroncomb.alt" 
d="M-17 419q0 12 9 20t20 8q8 0 13.5 -3t8.5 -9t3 -14q0 -14 -3.5 -26.5t-8 -22t-10.5 -17.5t-12 -13.5t-11 -9.5t-9 -6l-3 -1l-11 17q4 2 10 6t17.5 18t14.5 30q-13 0 -20.5 6.5t-7.5 16.5z" />
    <glyph glyph-name="acutecomb.case" 
d="M-65 548l-19 -2l80 114h31z" />
    <glyph glyph-name="uni0306.case" 
d="M47 651q-6 -48 -36.5 -77.5t-75.5 -29.5t-68 29.5t-17 77.5h19q-6 -39 13.5 -64t55 -24.5t60.5 25t31 63.5h18z" />
    <glyph glyph-name="uni030C.case" 
d="M-166 665l23 -2l70 -91l94 91l24 2l-106 -115h-28z" />
    <glyph glyph-name="uni0302.case" 
d="M-46 660l76 -114l-23 1l-71 91l-93 -91l-24 -1l106 114h29z" />
    <glyph glyph-name="uni0308.case" 
d="M-154 573q-10 0 -16.5 7t-6.5 16q0 12 9.5 21t20.5 9q10 0 16.5 -7t6.5 -17q0 -12 -9.5 -20.5t-20.5 -8.5zM6 573q-10 0 -16.5 7t-6.5 16q0 12 9.5 21t20.5 9q9 0 15.5 -7t6.5 -17q0 -12 -9 -20.5t-20 -8.5z" />
    <glyph glyph-name="uni0307.case" 
d="M-4 571q-9 0 -16 7.5t-7 17.5q0 12 9.5 20.5t20.5 8.5q7 0 12.5 -3.5t8 -8.5t2.5 -12q0 -12 -9 -21t-21 -9z" />
    <glyph glyph-name="gravecomb.case" 
d="M-4 546l-63 114h32l49 -112z" />
    <glyph glyph-name="uni030B.case" 
d="M-161 548l-19 -2l80 114h31zM-42 548l-18 -2l79 114h31z" />
    <glyph glyph-name="uni0304.case" 
d="M-203 576l2 19h230l-2 -19h-230z" />
    <glyph glyph-name="uni030A.case" 
d="M-43 539q-24 0 -39.5 16t-15.5 40q0 31 21 52t51 21q24 0 39.5 -16t15.5 -41q0 -30 -21 -51t-51 -21zM10 609q0 19 -10.5 30t-28.5 11q-10 0 -19.5 -4t-16 -11t-10 -16.5t-3.5 -21.5q0 -18 10 -29t28 -11q21 0 35.5 14.5t14.5 37.5z" />
    <glyph glyph-name="uni0338.case" 
d="M100 716l-567 -732h-24l567 732h24z" />
    <glyph glyph-name="uni0337.case" 
d="M-263 337l299 171l8 -15l-300 -171z" />
    <glyph glyph-name="tildecomb.case" 
d="M29 625q-1 -13 -2 -24q-3 -30 -20.5 -45.5t-45.5 -15.5q-21 0 -43 16t-42 32t-37 16q-9 0 -17 -3.5t-14 -10t-9.5 -18t-3.5 -25.5v-7h-21v8q0 37 19 57t49 20q23 0 45 -16.5t41.5 -32.5t35.5 -16q45 0 45 58v7h20z" />
    <glyph glyph-name="caron.alt" horiz-adv-x="93" 
d="M130 421q0 -19 -6 -35.5t-14.5 -27t-17 -18.5t-14.5 -11l-6 -3l-10 17q1 1 3.5 2.5t9.5 6.5t12 10.5t10 14.5t6 19q-12 0 -19.5 6.5t-7.5 16.5q0 12 9 20t20 8t18 -7t7 -19z" />
    <glyph glyph-name="acute.case" horiz-adv-x="218" 
d="M153 548l-19 -2l80 114h31z" />
    <glyph glyph-name="breve.case" horiz-adv-x="271" 
d="M318 651q-6 -48 -36.5 -77.5t-75.5 -29.5t-68 29.5t-17 77.5h19q-3 -19 1 -36t13 -28.5t23 -18t32 -6.5q35 1 60 25.5t31 63.5h18z" />
    <glyph glyph-name="caron.case" horiz-adv-x="292" 
d="M127 665l23 -2l71 -91l93 91l25 2l-107 -115h-28z" />
    <glyph glyph-name="circumflex.case" horiz-adv-x="292" 
d="M247 660l76 -114l-24 1l-71 91l-93 -91l-24 -1l107 114h29z" />
    <glyph glyph-name="dieresis.case" horiz-adv-x="295" 
d="M141 573q-10 0 -16 7t-6 16q0 12 9 21t20 9q10 0 16.5 -7t6.5 -17q0 -8 -4.5 -15t-11.5 -10.5t-14 -3.5zM301 573q-10 0 -16.5 7t-6.5 16q0 12 9.5 21t20.5 9q10 0 16.5 -7t6.5 -17q0 -12 -9.5 -20.5t-20.5 -8.5z" />
    <glyph glyph-name="dotaccent.case" horiz-adv-x="156" 
d="M151 571q-9 0 -15.5 7.5t-6.5 17.5q0 12 9 20.5t21 8.5q6 0 11.5 -3.5t8.5 -8.5t3 -12q0 -12 -9.5 -21t-21.5 -9z" />
    <glyph glyph-name="grave.case" horiz-adv-x="218" 
d="M213 546l-62 114h31l50 -112z" />
    <glyph glyph-name="hungarumlaut.case" horiz-adv-x="315" 
d="M154 548l-19 -2l80 114h31zM274 548l-19 -2l80 114h30z" />
    <glyph glyph-name="macron.case" horiz-adv-x="325" 
d="M122 576l2 19h230l-2 -19h-230z" />
    <glyph glyph-name="ring.case" horiz-adv-x="224" 
d="M181 539q-24 0 -39.5 16t-15.5 40q0 31 21 52t50 21q25 0 40.5 -16t15.5 -41q0 -30 -21.5 -51t-50.5 -21zM234 609q0 19 -10.5 30t-28.5 11q-14 0 -25.5 -7t-17.5 -19t-6 -27q0 -18 10 -29t27 -11q22 0 36.5 14.5t14.5 37.5z" />
    <glyph glyph-name="tilde.case" horiz-adv-x="338" 
d="M368 625q-1 -13 -2 -24q-4 -30 -21.5 -45.5t-44.5 -15.5q-22 0 -43.5 16t-41.5 32t-37 16q-10 0 -18 -3.5t-14 -10t-9.5 -18t-3.5 -25.5v-7h-20v8q0 37 18.5 57t49.5 20q22 0 44.5 -16.5t42 -32.5t35.5 -16q44 0 44 58v7h21z" />
    <glyph glyph-name="Rem" horiz-adv-x="444" 
 />
    <glyph glyph-name="IJacute" horiz-adv-x="623" 
d="M607 681l-18 -2l79 115h32zM202 681l-19 -2l80 115h31zM100 0l84 650h21l-84 -650h-21zM262 72q45 -57 114 -57q129 0 149 144l64 491h21l-63 -487q-21 -167 -173 -167q-82 0 -129 58z" />
    <glyph glyph-name="ijacute" horiz-adv-x="374" 
d="M363 538l-19 -2l82 135h30zM180 538l-19 -2l82 135h29zM78 -168q23 -21 66 -21q51 0 78.5 29.5t36.5 99.5l68 522l20 1l-68 -523q-10 -76 -43.5 -112t-94.5 -36q-22 0 -40 6t-25 11l-7 6zM166 463l-54 -410q-4 -38 26 -38q7 0 15 2v-18q-9 -3 -21 -3q-47 0 -40 56l54 410
z" />
    <glyph glyph-name="commaccent" horiz-adv-x="570" 
 />
    </font>
</defs>
</svg>
