<?xml version="1.0" standalone="no"?>
<!DOCTYPE svg PUBLIC "-//W3C//DTD SVG 1.1//EN" "http://www.w3.org/Graphics/SVG/1.1/DTD/svg11.dtd" >
<svg xmlns="http://www.w3.org/2000/svg" xmlns:xlink="http://www.w3.org/1999/xlink" version="1.1">
<metadata>
Created by FontForge 20170731 at Mon Jul 18 17:13:12 2016
 By Aleksey,,,
Copyright (c) 2016 by Daniel Hernandez. All rights reserved.
</metadata>
<defs>
<font id="BasicSans-ExtraLightIt" horiz-adv-x="0" >
  <font-face 
    font-family="BasicSans-ExtraLightIt"
    font-weight="400"
    font-style="italic"
    font-stretch="normal"
    units-per-em="1000"
    panose-1="0 0 3 0 0 0 0 0 0 0"
    ascent="773"
    descent="-227"
    x-height="465"
    cap-height="653"
    bbox="-496 -227 1385 926"
    underline-thickness="50"
    underline-position="-150"
    slope="-7"
    unicode-range="U+0020-FB02"
  />
<missing-glyph horiz-adv-x="393" 
 />
    <glyph glyph-name="fi" unicode="fi" horiz-adv-x="528" 
d="M496 466l-52 -404q-4 -34 24 -34q7 0 15 2l-1 -31q-13 -4 -28 -4q-55 0 -47 61l49 378h-257l-55 -434h-36l55 434h-66l4 31h66l11 88q10 72 52.5 115t103.5 43q57 0 93 -33l-20 -28q-31 29 -76 29t-77 -34.5t-39 -90.5l-12 -89h257zM503 653q7 0 12.5 -2.5t9.5 -6.5
t6.5 -10t2.5 -12q0 -16 -12 -27t-28 -11q-12 0 -21 9t-9 22q0 10 6 19t15 14t18 5z" />
    <glyph glyph-name="fl" unicode="fl" horiz-adv-x="531" 
d="M331 679q-45 0 -77 -34.5t-39 -90.5l-12 -89h172l-3 -31h-173l-55 -434h-36l55 434h-66l4 31h66l11 88q10 72 52.5 115t103.5 43q57 0 93 -33l-20 -28q-31 29 -76 29zM502 706h36l-90 -706h-35z" />
    <glyph glyph-name=".notdef" horiz-adv-x="393" 
 />
    <glyph glyph-name=".null" 
 />
    <glyph glyph-name="nonmarkingreturn" horiz-adv-x="333" 
 />
    <glyph glyph-name="space" unicode=" " horiz-adv-x="239" 
 />
    <glyph glyph-name="exclam" unicode="!" horiz-adv-x="219" 
d="M214 664l-66 -484l-31 -2l58 486h39zM116 59q12 0 20.5 -9t8.5 -22q0 -14 -10.5 -25t-24.5 -11q-12 0 -20.5 9t-8.5 22q0 10 5 18.5t13 13t17 4.5z" />
    <glyph glyph-name="quotedbl" unicode="&#x22;" horiz-adv-x="245" 
d="M138 559l16 147h32l-21 -147h-27zM224 559l16 147h32l-22 -147h-26z" />
    <glyph glyph-name="numbersign" unicode="#" horiz-adv-x="598" 
d="M590 312h-126l-45 -133h122l-10 -29h-122l-50 -150h-33l51 150h-156l-51 -150h-32l51 150h-129l11 29h127l45 133h-124l10 29h124l51 149h31l-50 -149h156l50 149h33l-51 -149h127zM386 179l45 133h-156l-45 -133h156z" />
    <glyph glyph-name="dollar" unicode="$" horiz-adv-x="539" 
d="M165 480q0 -34 18 -58t46.5 -38t63.5 -25.5t69.5 -24.5t63.5 -30.5t47 -48t18 -73.5q0 -82 -58 -132t-156 -54l-12 -95h-31l12 95q-71 2 -121 24t-78 50l27 29q20 -19 38.5 -31.5t60 -26t92.5 -13.5q84 0 136.5 41.5t52.5 107.5q0 37 -18.5 63t-47 41t-63.5 26.5t-70 24
t-64 29t-47 46t-18 70.5q0 79 56.5 129t148.5 52l11 92h32l-12 -92q41 -3 73 -18t50 -37t27.5 -41.5t14.5 -40.5l-38 -9q-2 15 -11 32.5t-25.5 36.5t-47 32t-68.5 13q-74 0 -123 -41t-49 -105z" />
    <glyph glyph-name="percent" unicode="%" horiz-adv-x="807" 
d="M252 0l364 659h35l-364 -659h-35zM225 291q-60 0 -95 40.5t-35 110.5q0 47 13.5 87.5t37 68.5t56 43.5t69.5 15.5q60 0 94.5 -41.5t34.5 -113.5q0 -94 -49.5 -152.5t-125.5 -58.5zM229 323q59 0 96.5 49t37.5 127q0 58 -25.5 91.5t-70.5 33.5q-58 0 -97 -50t-39 -128
q0 -57 26.5 -90t71.5 -33zM618 -3q-60 0 -95 41t-35 111q0 47 13.5 87t36.5 68t55.5 43.5t70.5 15.5q60 0 94.5 -41.5t34.5 -113.5q0 -94 -49.5 -152.5t-125.5 -58.5zM622 29q58 0 96.5 48.5t38.5 126.5q0 39 -11.5 67.5t-33.5 43.5t-52 15q-59 0 -97.5 -50t-38.5 -128
q0 -57 26.5 -90t71.5 -33z" />
    <glyph glyph-name="ampersand" unicode="&#x26;" horiz-adv-x="568" 
d="M564 293q-18 -138 -96 -215l44 -64l-30 -19l-41 59q-78 -58 -192 -58q-82 0 -131 43t-49 113q0 40 13 72.5t38 55.5t52.5 38.5t64.5 29.5q-51 71 -51 136q0 75 49 123.5t123 48.5q57 0 89 -33.5t32 -88.5q0 -71 -47 -114t-145 -81l162 -234q65 69 82 199zM352 625
q-56 0 -93 -38t-37 -98q0 -58 50 -128q94 38 133 73t39 95q0 44 -24 70t-68 26zM253 29q103 0 169 52l-165 239l-4 6q-70 -28 -108 -65.5t-38 -102.5q0 -58 40 -93.5t106 -35.5z" />
    <glyph glyph-name="quotesingle" unicode="'" horiz-adv-x="160" 
d="M138 559l16 147h32l-21 -147h-27z" />
    <glyph glyph-name="parenleft" unicode="(" horiz-adv-x="249" 
d="M168 -222q-4 6 -10 17t-21 48.5t-27 78.5t-21.5 105t-9.5 130q0 72 11.5 142t29.5 123.5t40 101.5t44.5 81.5t40.5 58t30 35.5l11 12l28 -18q-8 -7 -21.5 -22t-48 -65.5t-61 -108t-48 -149.5t-21.5 -189q0 -64 9 -124.5t21.5 -102t25 -73.5t21.5 -47l9 -16z" />
    <glyph glyph-name="parenright" unicode=")" horiz-adv-x="250" 
d="M235 344q0 -71 -11.5 -141t-30 -124.5t-40.5 -104t-44 -84.5t-40.5 -60.5t-30.5 -38.5l-11 -13l-29 18q5 4 12 12.5t28 36t40 58.5t42 80t40 100.5t28 120t11 137.5q0 64 -8.5 124t-21.5 99.5t-25.5 70t-21.5 44.5l-9 14l33 18q4 -5 10 -15.5t21 -45.5t27 -74.5
t21.5 -102.5t9.5 -129z" />
    <glyph glyph-name="asterisk" unicode="*" horiz-adv-x="397" 
d="M293 382l-33 126l-93 -107l-20 18l99 103l-125 20l8 27l121 -24l-35 118l25 12l32 -124l95 113l20 -18l-101 -107l130 -19l-7 -26l-128 24l40 -124z" />
    <glyph glyph-name="plus" unicode="+" horiz-adv-x="414" 
d="M399 265l-4 -30h-142l-22 -169h-31l22 169h-143l4 30h142l20 153h32l-20 -153h142z" />
    <glyph glyph-name="comma" unicode="," horiz-adv-x="203" 
d="M68 22q0 16 11 26.5t28 10.5q15 0 24 -11t9 -29q0 -25 -8 -49t-20 -40t-24 -29t-20 -19l-8 -6l-19 25q6 5 15 13t25.5 32.5t20.5 47.5q-15 0 -24.5 7.5t-9.5 20.5z" />
    <glyph glyph-name="hyphen" unicode="-" horiz-adv-x="378" 
d="M110 310l3 30h238l-3 -30h-238z" />
    <glyph glyph-name="period" unicode="." horiz-adv-x="197" 
d="M68 24q0 16 12 27t27 11q12 0 20.5 -9t8.5 -21q0 -16 -11.5 -27t-26.5 -11q-13 0 -21.5 9t-8.5 21z" />
    <glyph glyph-name="slash" unicode="/" horiz-adv-x="364" 
d="M5 -204l381 910h37l-381 -910h-37z" />
    <glyph glyph-name="zero" unicode="0" horiz-adv-x="573" 
d="M285 -6q-92 0 -141 64t-49 189q0 131 33.5 224t95 140.5t146.5 47.5q92 0 141.5 -66t49.5 -194q0 -195 -73.5 -300t-202.5 -105zM289 28q110 0 171.5 95t61.5 273q0 114 -40.5 171.5t-115.5 57.5q-54 0 -97.5 -25t-73 -72.5t-46 -118t-16.5 -159.5q0 -111 40.5 -166.5
t115.5 -55.5z" />
    <glyph glyph-name="one" unicode="1" horiz-adv-x="314" 
d="M182 0l77 611l-163 -43l4 36l195 49h8l-83 -653h-38z" />
    <glyph glyph-name="two" unicode="2" horiz-adv-x="502" 
d="M108 31q13 2 40 2h307l-4 -33h-401l4 33q15 11 50 33q44 28 68 44t67.5 48t69 55t58.5 58t51 66t31 69.5t13 77.5q0 65 -37 103.5t-104 38.5q-72 0 -119.5 -42t-47.5 -106q0 -12 2 -21l-37 -6q-2 4 -2 25q0 79 59 131t149 52q84 0 130 -46t46 -125q0 -214 -353 -431
q-12 -7 -41 -24z" />
    <glyph glyph-name="three" unicode="3" horiz-adv-x="523" 
d="M340 659q78 0 124 -42.5t46 -112.5q0 -76 -52.5 -124.5t-114.5 -48.5l-1 -1q25 0 50 -8t47 -24.5t35.5 -44.5t13.5 -64q0 -86 -64.5 -140t-166.5 -54q-46 0 -83 12t-58 28t-35 32.5t-19 28.5l-5 12l32 18q2 -4 5.5 -10.5t18 -23.5t32.5 -29.5t49 -23.5t67 -11
q82 0 135 43.5t54 114.5q2 64 -44 94.5t-126 31.5l-31 1l5 34h31q81 1 134 40.5t53 110.5q0 38 -16.5 66.5t-48 45t-72.5 16.5q-72 0 -118.5 -39t-46.5 -100q0 -16 2 -18l-38 -7q-1 3 -1 24q0 74 58.5 123.5t148.5 49.5z" />
    <glyph glyph-name="four" unicode="4" horiz-adv-x="524" 
d="M480 653l-58 -452h94l-4 -33h-94l-22 -168h-37l21 168h-332l4 33l379 452h49zM384 201l48 375q3 29 7 36l-2 1q-1 -1 -6 -7.5t-11 -14t-9 -11.5l-288 -344q-25 -30 -30 -34l1 -2q5 1 36 1h254z" />
    <glyph glyph-name="five" unicode="5" horiz-adv-x="513" 
d="M185 653h324l-3 -33h-292l-58 -260l3 -1q21 22 62.5 39t91.5 17q55 0 96 -22.5t62.5 -64t21.5 -95.5q0 -106 -68.5 -171.5t-176.5 -65.5q-40 0 -74 10t-54 24.5t-35 29t-20 24.5l-6 10l33 23q2 -3 5.5 -9t17 -21.5t30 -27t45.5 -21.5t62 -10q59 0 105 25.5t72.5 71
t26.5 104.5q0 46 -18.5 80.5t-52.5 53.5t-79 19q-21 0 -40 -3t-34 -8.5t-28.5 -11.5t-22.5 -12t-16 -11.5t-10 -8.5l-3 -3h-38z" />
    <glyph glyph-name="six" unicode="6" horiz-adv-x="544" 
d="M390 626q-111 0 -185 -99.5t-75 -269.5l4 -1q16 64 73.5 109.5t137.5 45.5t128 -48t48 -127q0 -105 -67 -173t-170 -68q-89 0 -140 67.5t-51 190.5q0 186 84.5 296t216.5 110q102 0 154 -72l-26 -25q-2 3 -5 6.5t-10.5 12t-18 15.5t-24.5 14t-33 11.5t-41 4.5zM335 377
q-78 0 -134.5 -51.5t-67.5 -126.5q9 -83 49 -127t106 -44q85 0 140.5 57.5t55.5 146.5q0 66 -40.5 105.5t-108.5 39.5z" />
    <glyph glyph-name="seven" unicode="7" horiz-adv-x="464" 
d="M524 653l-3 -33l-337 -620h-39l315 576q15 27 25 43v2q-15 -1 -55 -1h-282l-13 -99h-35l18 132h406z" />
    <glyph glyph-name="eight" unicode="8" horiz-adv-x="554" 
d="M406 349q117 -29 117 -145q0 -93 -69 -151t-177 -58q-92 0 -146.5 45.5t-54.5 119t40.5 122.5t119.5 67v1q-40 12 -62.5 45.5t-22.5 80.5q0 40 16 74t43.5 58t66.5 37.5t84 13.5q77 0 123 -40t46 -105q0 -60 -33.5 -104.5t-90.5 -59.5v-1zM189 480q0 -53 36 -85t98 -30
q49 -2 87.5 16.5t59.5 52.5t21 76q0 53 -36.5 84.5t-98.5 31.5q-73 0 -120 -40.5t-47 -105.5zM281 29q90 0 147 48t57 124q0 41 -19.5 70.5t-56.5 45t-90 15.5q-94 0 -149 -44.5t-55 -122.5q0 -61 45 -98.5t121 -37.5z" />
    <glyph glyph-name="nine" unicode="9" horiz-adv-x="543" 
d="M341 659q89 0 140 -67.5t51 -190.5q0 -187 -81 -296.5t-212 -109.5q-103 0 -156 72l27 24q44 -63 131 -63q111 0 181.5 99t71.5 269l-3 1q-16 -64 -73.5 -109t-137.5 -45t-128 47.5t-48 126.5q0 105 67 173.5t170 68.5zM290 276q77 0 133 50.5t68 124.5q-9 85 -48.5 130
t-106.5 45q-83 0 -138.5 -58t-55.5 -147q0 -66 40 -105.5t108 -39.5z" />
    <glyph glyph-name="colon" unicode=":" horiz-adv-x="207" 
d="M125 431q0 15 12 26.5t27 11.5q12 0 20.5 -9t8.5 -22q0 -15 -11.5 -26t-26.5 -11q-9 0 -15.5 4t-10.5 11t-4 15zM73 24q0 16 12 27.5t27 11.5q12 0 20.5 -9.5t8.5 -21.5q0 -16 -11.5 -27t-26.5 -11q-13 0 -21.5 9t-8.5 21z" />
    <glyph glyph-name="semicolon" unicode=";" horiz-adv-x="230" 
d="M139 431q0 10 5.5 19t14.5 14t19 5q12 0 20.5 -9t8.5 -22q0 -15 -11.5 -26t-26.5 -11q-9 0 -15.5 4t-10.5 11t-4 15zM85 22q0 16 11 26.5t28 10.5q10 0 17.5 -5t11.5 -14t4 -21q0 -25 -8 -49t-20 -40t-24 -29t-20 -19l-9 -6l-18 25q6 5 15 13t25.5 32.5t20.5 47.5
q-15 0 -24.5 7.5t-9.5 20.5z" />
    <glyph glyph-name="less" unicode="&#x3c;" horiz-adv-x="377" 
d="M69 259l4 31l308 201l-6 -35l-272 -182l226 -181l-4 -34z" />
    <glyph glyph-name="equal" unicode="=" horiz-adv-x="515" 
d="M115 330l4 30h368l-4 -30h-368zM92 146l3 30h368l-3 -30h-368z" />
    <glyph glyph-name="greater" unicode="&#x3e;" horiz-adv-x="376" 
d="M66 59l4 34l274 182l-227 181l5 35l256 -201l-5 -31z" />
    <glyph glyph-name="question" unicode="?" horiz-adv-x="427" 
d="M290 675q76 0 120 -41.5t44 -109.5q0 -39 -15.5 -72.5t-38 -56t-50 -47t-51.5 -45.5t-41 -52.5t-20 -67.5q0 -1 -0.5 -3t-1.5 -3l-34 -1q0 1 0.5 4l0.5 3q4 40 21.5 74t41 56t50 46t49 44.5t37.5 50.5t15 65q0 55 -35.5 89.5t-94.5 34.5q-64 0 -106 -40t-42 -96
q0 -11 2 -20l-37 -6q-1 10 -1 24q0 71 53.5 120.5t133.5 49.5zM204 59q8 0 15 -4t10.5 -11t3.5 -15q0 -15 -11.5 -26t-26.5 -11q-12 0 -20 9t-8 21q0 10 5.5 18.5t14 13.5t17.5 5z" />
    <glyph glyph-name="at" unicode="@" horiz-adv-x="826" 
d="M625 46q-40 0 -60 24t-15 69l1 12q-20 -46 -60.5 -75.5t-94.5 -29.5q-65 0 -103.5 46t-38.5 121q0 101 55.5 164.5t138.5 63.5q34 0 60.5 -12.5t42.5 -33t22 -47.5l12 87h35l-37 -293q-5 -35 9 -52.5t43 -17.5q37 0 71 30.5t56 89t22 130.5q0 130 -76.5 208t-209.5 78
q-112 0 -202.5 -52.5t-142 -148.5t-51.5 -216q0 -139 82 -223.5t221 -84.5q30 0 58 4t51 10t44 14t37 16.5t30 17.5t24 16.5t16.5 14l10 10l3.5 3.5l12 -17l-1 -1q-8 -9 -17 -17t-37 -26t-58 -31t-77.5 -23.5t-98.5 -10.5q-148 0 -235 89.5t-87 235.5q0 96 32 178t88 139.5
t133.5 90t166.5 32.5q142 0 224.5 -83t82.5 -220q0 -123 -54 -201t-128 -78zM406 78q59 0 100.5 43t50.5 94l8 62q2 50 -28.5 91.5t-88.5 41.5q-68 0 -112.5 -54t-44.5 -138q0 -64 31 -102t84 -38z" />
    <glyph glyph-name="A" unicode="A" horiz-adv-x="568" 
d="M503 0l-45 191h-300l-93 -191h-39l320 653h40l156 -653h-39zM174 223h277l-83 354q-4 17 -7 33h-2q-3 -11 -13 -33z" />
    <glyph glyph-name="B" unicode="B" horiz-adv-x="581" 
d="M433 342q21 -4 39.5 -13t36.5 -25t29 -43.5t11 -63.5q0 -94 -62 -145.5t-176 -51.5h-216l84 653h208q85 0 131 -38t46 -110q0 -41 -14 -73t-36.5 -49.5t-42 -26.5t-38.5 -12v-2zM525 500q0 22 -5 40t-16.5 33t-28.5 25t-41.5 16t-54.5 6h-166l-34 -264h191q73 0 114 41
t41 103zM312 33q94 0 146 41t52 120q0 41 -16.5 70.5t-48.5 45t-76 15.5h-194l-38 -292h175z" />
    <glyph glyph-name="C" unicode="C" horiz-adv-x="602" 
d="M415 659q49 0 86.5 -15.5t59 -37.5t35 -50t17.5 -51t3 -43l-38 -7q1 14 -1.5 33t-13 44t-28 45t-50 34.5t-75.5 14.5q-117 0 -197.5 -96t-80.5 -252q0 -118 58.5 -184t155.5 -66q38 0 73.5 11t61.5 29t42.5 33t28.5 30l22 -23q-10 -12 -22 -24t-34 -29t-46.5 -29.5
t-59 -21.5t-70.5 -9q-115 0 -181 74t-66 204q0 70 16 131t45 107.5t69 79.5t88.5 50.5t101.5 17.5z" />
    <glyph glyph-name="D" unicode="D" horiz-adv-x="619" 
d="M331 653q129 0 202.5 -73.5t73.5 -203.5q0 -171 -87.5 -273.5t-234.5 -102.5h-190l84 653h152zM288 33q128 0 204.5 93t76.5 246q0 118 -64 183t-178 65h-115l-75 -587h151z" />
    <glyph glyph-name="E" unicode="E" horiz-adv-x="515" 
d="M543 620h-331l-34 -263h301l-4 -33h-301l-37 -291h331l-5 -33h-368l84 653h368z" />
    <glyph glyph-name="F" unicode="F" horiz-adv-x="478" 
d="M530 620h-318l-34 -265h279l-5 -33h-278l-41 -322h-38l84 653h355z" />
    <glyph glyph-name="G" unicode="G" horiz-adv-x="620" 
d="M613 465l-37 -7q1 13 -1.5 32t-13 43.5t-28 44.5t-51 34t-76.5 14q-76 0 -138.5 -43.5t-99 -124t-36.5 -182.5q0 -113 52.5 -180.5t144.5 -67.5q39 0 73 11.5t58 29t42 40t28 44.5t14 43l10 75h-237l4 33h269l-38 -304h-24q0 52 6 113q-29 -53 -83.5 -85.5t-128.5 -32.5
q-106 0 -166.5 75.5t-60.5 201.5q0 112 41.5 200.5t113 137.5t160.5 49q42 0 76 -10.5t55.5 -28t36.5 -37.5t22.5 -43t10.5 -41t2 -34z" />
    <glyph glyph-name="H" unicode="H" horiz-adv-x="668" 
d="M619 653h37l-83 -653h-38l42 324h-403l-41 -324h-38l84 653h37l-38 -296h403z" />
    <glyph glyph-name="I" unicode="I" horiz-adv-x="228" 
d="M95 0l84 653h37l-83 -653h-38z" />
    <glyph glyph-name="J" unicode="J" horiz-adv-x="409" 
d="M48 85q45 -57 112 -57q124 0 142 138l62 487h38l-62 -483q-22 -174 -184 -174q-85 0 -135 60z" />
    <glyph glyph-name="K" unicode="K" horiz-adv-x="604" 
d="M599 0q-2 0 -13 -0.5t-19 -0.5q-29 0 -52 17t-37.5 43.5t-27 58.5t-24.5 64.5t-27 59t-38 43t-53 16.5h-136l-39 -301h-38l84 653h38l-41 -319h134q24 0 50 8.5t56.5 31.5t56.5 57.5t47 92t31 129.5h38q-35 -267 -215 -335q28 -10 50.5 -43.5t37.5 -74t30 -79.5t37 -65
t50 -26h24z" />
    <glyph glyph-name="L" unicode="L" horiz-adv-x="479" 
d="M137 33h333l-3 -33h-372l84 653h37z" />
    <glyph glyph-name="M" unicode="M" horiz-adv-x="774" 
d="M762 653l-83 -653h-37l70 545q6 44 7 48l-2 1q-7 -22 -20 -45l-295 -551h-27l-158 552q-1 4 -8 44l-3 -1q0 -10 -4 -48l-69 -545h-38l84 653h46l156 -553q9 -32 13 -53h2q5 15 26 53l295 553h45z" />
    <glyph glyph-name="N" unicode="N" horiz-adv-x="654" 
d="M641 653l-83 -653h-48l-266 532q-16 33 -34 74l-3 -1q2 -11 -4 -63l-70 -542h-38l84 653h45l267 -535l35 -74l3 1q0 17 6 65l69 543h37z" />
    <glyph glyph-name="O" unicode="O" horiz-adv-x="674" 
d="M421 659q110 0 176 -75t66 -205q0 -87 -25.5 -160t-70 -121.5t-104 -75.5t-126.5 -27q-109 0 -175.5 75t-66.5 205q0 87 25.5 160t70 121.5t104 75.5t126.5 27zM341 28q119 0 201.5 96t82.5 250q0 77 -26 134t-73.5 87.5t-109.5 30.5q-57 0 -109 -25t-90.5 -69
t-61.5 -109.5t-23 -142.5q0 -116 57.5 -184t151.5 -68z" />
    <glyph glyph-name="P" unicode="P" horiz-adv-x="549" 
d="M374 653q91 0 143.5 -48.5t52.5 -132.5q0 -102 -68 -165t-177 -63h-161l-31 -244h-38l84 653h195zM325 277q93 0 150 52t57 138q0 70 -44 111.5t-119 41.5h-157l-44 -343h157z" />
    <glyph glyph-name="Q" unicode="Q" horiz-adv-x="709" 
d="M663 379q0 -105 -37 -188.5t-99.5 -131.5t-142.5 -60q101 -37 194 -45l-13 -33q-67 8 -121.5 26t-119.5 49q-104 4 -166.5 78.5t-62.5 200.5q0 87 25.5 160t70 121.5t104 75.5t126.5 27q110 0 176 -75t66 -205zM132 280q0 -116 57.5 -184t151.5 -68q119 0 201.5 96
t82.5 250q0 77 -26 134t-73.5 87.5t-109.5 30.5q-57 0 -109 -25t-90.5 -69t-61.5 -109.5t-23 -142.5z" />
    <glyph glyph-name="R" unicode="R" horiz-adv-x="562" 
d="M536 27l12 2v-32q-11 -2 -25 -2q-25 0 -44.5 12t-31 30.5t-22 43t-18 49.5t-19.5 49.5t-26.5 43t-39 30t-56.5 11.5h-100l-33 -264h-38l84 653h178q87 0 136 -45t49 -125q0 -88 -51.5 -143t-138.5 -70q24 -7 43 -28t29.5 -47.5t22.5 -56t22 -54t27 -41t40 -16.5zM171 296
h131q87 0 145 49t58 133q0 65 -41.5 103.5t-112.5 38.5h-139z" />
    <glyph glyph-name="S" unicode="S" horiz-adv-x="523" 
d="M490 512q-2 15 -11 32.5t-25.5 36.5t-47 32t-68.5 13q-73 0 -122.5 -41t-49.5 -105q0 -34 18 -58t46.5 -38t63.5 -25.5t70 -24.5t63.5 -30.5t46.5 -48t18 -73.5q0 -86 -63 -136.5t-167 -50.5q-77 0 -131 23t-83 52l27 29q20 -19 38.5 -31.5t60 -26t92.5 -13.5
q84 0 136.5 41.5t52.5 107.5q0 37 -18 63t-47 41t-64 26.5t-70 24t-63.5 29t-47 46t-18.5 70.5q0 81 59.5 131.5t154.5 50.5q48 0 84 -14t56.5 -37t31 -44t15.5 -43z" />
    <glyph glyph-name="T" unicode="T" horiz-adv-x="498" 
d="M230 0l79 620h-217l4 33h473l-4 -33h-218l-80 -620h-37z" />
    <glyph glyph-name="U" unicode="U" horiz-adv-x="645" 
d="M602 653h38l-50 -390q-16 -128 -87 -197.5t-180.5 -69.5t-163.5 69.5t-38 197.5l50 390h38l-49 -389q-15 -115 29 -175.5t138 -60.5q93 0 152 60.5t74 174.5z" />
    <glyph glyph-name="V" unicode="V" horiz-adv-x="562" 
d="M148 653l133 -578q4 -20 5 -32h1q5 13 14 32l280 578h38l-317 -653h-40l-153 653h39z" />
    <glyph glyph-name="W" unicode="W" horiz-adv-x="841" 
d="M858 653h37l-265 -653h-45l-82 550q-4 29 -4 54h-2l-18 -54l-222 -550h-45l-99 653h38l84 -578q3 -23 3 -35h2q5 13 13 35l233 578h36l87 -578q2 -18 3 -35h2q5 14 13 35z" />
    <glyph glyph-name="X" unicode="X" horiz-adv-x="531" 
d="M591 653l-261 -332l178 -321h-42l-142 254q-13 24 -19 46h-1q-23 -35 -32 -45l-205 -255h-42l257 321l-175 332h44l139 -265q13 -27 19 -45h1q7 14 31 46l207 264h43z" />
    <glyph glyph-name="Y" unicode="Y" horiz-adv-x="540" 
d="M597 653l-275 -396l-33 -257h-38l33 257l-175 396h41l139 -313q11 -27 18 -52h1q12 27 30 52l219 313h40z" />
    <glyph glyph-name="Z" unicode="Z" horiz-adv-x="514" 
d="M32 0l4 33l453 555q15 19 27 31v2q-11 -1 -48 -1h-347l4 33h440l-4 -33l-452 -556q-18 -22 -28 -30l1 -3q8 2 48 2h348l-4 -33h-442z" />
    <glyph glyph-name="bracketleft" unicode="[" horiz-adv-x="255" 
d="M65 -204l116 910h131l-4 -32h-95l-109 -846h95l-4 -32h-130z" />
    <glyph glyph-name="backslash" unicode="\" horiz-adv-x="363" 
d="M306 -204h-37l-148 910h37z" />
    <glyph glyph-name="bracketright" unicode="]" horiz-adv-x="255" 
d="M7 -204l4 32h95l108 846h-95l5 32h130l-116 -910h-131z" />
    <glyph glyph-name="asciicircum" unicode="^" horiz-adv-x="337" 
d="M119 529l118 184h45l71 -184h-36l-61 152l-101 -152h-36z" />
    <glyph glyph-name="underscore" unicode="_" horiz-adv-x="316" 
d="M-13 -97l4 30h317l-4 -30h-317z" />
    <glyph glyph-name="grave" unicode="`" horiz-adv-x="228" 
d="M213 545l-63 140h49l45 -137z" />
    <glyph glyph-name="a" unicode="a" horiz-adv-x="554" 
d="M474 67q-5 -39 27 -39q8 0 16 2l-1 -30q-12 -4 -28 -4q-27 0 -40.5 15t-9.5 47l9 61h-2q-23 -54 -74 -88.5t-116 -34.5q-82 0 -130 54.5t-48 146.5q0 119 68 195.5t171 76.5q68 0 110 -37t50 -94q12 79 23 127h26zM263 27q74 0 126.5 52t64.5 114l10 71l-1 -1q4 28 -3 58
t-24 56.5t-49 43.5t-73 17q-43 0 -79.5 -18t-63 -49t-42 -75t-15.5 -95q0 -80 40 -127t109 -47z" />
    <glyph glyph-name="b" unicode="b" horiz-adv-x="547" 
d="M351 470q81 0 128.5 -55t47.5 -147q0 -119 -67 -195.5t-170 -76.5q-47 0 -82 18t-54.5 47t-25.5 66q-6 -56 -22 -126h-25l89 701h36l-45 -351q26 53 76 86t114 33zM292 28q86 0 142.5 66.5t56.5 170.5q0 79 -39.5 126t-108.5 47q-74 0 -126.5 -51t-64.5 -112l-11 -83
q-1 -28 7 -56t25 -53t48 -40t71 -15z" />
    <glyph glyph-name="c" unicode="c" horiz-adv-x="481" 
d="M321 469q70 0 111 -38.5t41 -98.5q0 -12 -1.5 -23.5t-3.5 -17.5l-2 -6l-34 -3q6 16 6 41q0 51 -32.5 83t-89.5 32q-86 0 -144 -67.5t-58 -170.5q0 -79 41.5 -126t116.5 -47q86 0 146 59l19 -23q-66 -68 -169 -68q-90 0 -140.5 55t-50.5 147q0 118 69.5 195t174.5 77z" />
    <glyph glyph-name="d" unicode="d" horiz-adv-x="554" 
d="M474 67q-5 -39 27 -39q8 0 16 2l-1 -30q-12 -4 -28 -4q-56 0 -49 62l8 61h-2q-12 -26 -30 -48t-42 -39t-54.5 -26.5t-64.5 -9.5q-81 0 -128.5 55t-47.5 147q0 119 67.5 195.5t170.5 76.5q63 0 104.5 -32.5t54.5 -84.5l44 349h36zM263 28q41 0 77 16.5t59.5 43t38 56.5
t18.5 58l8 65q4 39 -9.5 77t-50.5 66t-90 28q-57 0 -102.5 -30t-71.5 -84t-26 -123q0 -79 40 -126t109 -47z" />
    <glyph glyph-name="e" unicode="e" horiz-adv-x="486" 
d="M314 469q73 0 116 -47.5t43 -127.5q0 -16 -2 -32t-4 -24l-3 -8h-349q-1 -14 -1 -29q0 -80 42 -127t116 -47q86 0 143 59l20 -21q-64 -70 -169 -70q-88 0 -138.5 55t-50.5 146q0 121 69 197t168 76zM311 438q-45 0 -85 -21.5t-68.5 -62.5t-38.5 -95h316q3 13 3 36
q0 67 -34 105t-93 38z" />
    <glyph glyph-name="f" unicode="f" horiz-adv-x="330" 
d="M331 679q-45 0 -77 -34.5t-39 -90.5l-12 -89h172l-3 -31h-173l-55 -434h-36l55 434h-66l4 31h66l11 88q10 72 52.5 115t103.5 43q57 0 93 -33l-20 -28q-31 29 -76 29z" />
    <glyph glyph-name="g" unicode="g" horiz-adv-x="547" 
d="M499 465h26l-62 -482q-11 -90 -73 -140.5t-158 -50.5q-46 0 -87.5 12t-60.5 23t-30 21l21 30q19 -20 63.5 -37.5t98.5 -17.5q79 0 129.5 41.5t60.5 117.5l17 132q-26 -53 -76 -85.5t-113 -32.5q-82 0 -130 54.5t-48 146.5q0 119 68 195.5t171 76.5q68 0 110 -37t50 -94
q12 79 23 127zM263 27q51 0 94.5 28t67 66t29.5 76l10 76q2 39 -11.5 75t-50 63t-88.5 27q-57 0 -102.5 -30t-71.5 -84.5t-26 -122.5q0 -80 40 -127t109 -47z" />
    <glyph glyph-name="h" unicode="h" horiz-adv-x="544" 
d="M495 28q9 0 16 2l-1 -31q-13 -3 -30 -3q-26 0 -39 16t-9 48l28 225q8 68 -24 110.5t-96 42.5q-73 0 -125 -52t-64 -114l-34 -272h-36l90 706h34l-46 -362q17 35 43.5 62.5t65 45t81.5 17.5q78 0 117.5 -51t29.5 -133l-27 -220q-5 -37 26 -37z" />
    <glyph glyph-name="i" unicode="i" horiz-adv-x="204" 
d="M214 622q0 -16 -11.5 -27t-27.5 -11q-13 0 -21.5 9t-8.5 22q0 15 12 26.5t27 11.5q13 0 21.5 -9t8.5 -22zM177 466l-53 -404q-4 -34 24 -34q7 0 15 2l-1 -31q-13 -4 -28 -4q-55 0 -46 61l53 409z" />
    <glyph glyph-name="j" unicode="j" horiz-adv-x="207" 
d="M223 621q0 -15 -12.5 -26t-27.5 -11q-9 0 -15.5 4t-10.5 11.5t-4 15.5q0 10 5.5 19t14.5 14t20 5q12 0 21 -9.5t9 -22.5zM-91 -156q23 -21 63 -21q48 0 74.5 28.5t34.5 92.5l66 521l36 1l-66 -518q-6 -52 -24 -86.5t-49 -52t-74 -17.5q-23 0 -42 6t-26 12l-7 6z" />
    <glyph glyph-name="k" unicode="k" horiz-adv-x="490" 
d="M479 428q-8 -65 -41.5 -116t-88.5 -73l110 -239h-44l-103 228q-21 -5 -44 -5h-123l-29 -223h-35l90 706h35l-57 -452h118q72 0 122 49.5t55 131.5q0 4 0.5 9.5t0.5 10.5t1 10h35q0 -6 -0.5 -18t-1.5 -19z" />
    <glyph glyph-name="l" unicode="l" horiz-adv-x="201" 
d="M82 0l90 706h36l-90 -706h-36z" />
    <glyph glyph-name="m" unicode="m" horiz-adv-x="853" 
d="M803 28q10 0 16 2l-1 -31q-14 -4 -29 -4q-27 0 -40 16.5t-9 48.5l29 224q9 69 -22 111t-94 42q-46 0 -86 -27.5t-62 -65t-28 -76.5l-35 -268h-36l37 284q5 45 -6.5 79.5t-39.5 54t-70 19.5q-69 0 -117.5 -53.5t-59.5 -117.5l-34 -266h-35l59 465l26 1q-2 -59 -11 -128h1
q23 57 71 94t110 37q63 0 100.5 -36t42.5 -98q23 58 71 96t111 38q76 0 114.5 -51.5t28.5 -133.5l-28 -219q-5 -37 26 -37z" />
    <glyph glyph-name="n" unicode="n" horiz-adv-x="544" 
d="M494 28q9 0 17 2l-1 -31q-13 -4 -30 -4q-27 0 -39.5 16.5t-8.5 48.5l28 224q8 69 -24.5 111.5t-95.5 42.5q-51 0 -93.5 -28t-66 -65.5t-29.5 -76.5l-35 -268h-35l59 465l26 1q-2 -59 -11 -128h1q24 56 76 93.5t117 37.5q78 0 117.5 -51t29.5 -133l-28 -220q-5 -37 26 -37
z" />
    <glyph glyph-name="o" unicode="o" horiz-adv-x="528" 
d="M324 469q85 0 135.5 -55.5t50.5 -147.5q0 -119 -70 -195t-176 -76q-86 0 -136.5 55.5t-50.5 147.5q0 118 70 194.5t177 76.5zM267 27q90 0 148 66t58 169q0 80 -41 128t-112 48q-89 0 -147.5 -67t-58.5 -170q0 -79 41 -126.5t112 -47.5z" />
    <glyph glyph-name="p" unicode="p" horiz-adv-x="547" 
d="M351 469q81 0 129 -55t48 -146q0 -120 -67.5 -196.5t-170.5 -76.5q-63 0 -104.5 33t-54.5 85l-40 -317h-36l85 669l26 1q-3 -78 -11 -128h1q23 57 74 94t121 37zM292 27q86 0 142.5 66.5t56.5 170.5q0 79 -39.5 126.5t-108.5 47.5q-77 0 -129.5 -53t-63.5 -117l-9 -72
q-2 -40 12 -77.5t50 -64.5t89 -27z" />
    <glyph glyph-name="q" unicode="q" horiz-adv-x="546" 
d="M499 465h26l-86 -669h-35l40 318q-26 -53 -76 -85.5t-113 -32.5q-82 0 -130 54.5t-48 146.5q0 119 68 195.5t171 76.5q68 0 110 -37t50 -94q12 79 23 127zM263 27q75 0 128 53.5t63 116.5l10 76q2 28 -6 56.5t-25.5 53t-48 40t-70.5 15.5q-43 0 -79.5 -18t-63 -49
t-42 -75t-15.5 -95q0 -80 40 -127t109 -47z" />
    <glyph glyph-name="r" unicode="r" horiz-adv-x="301" 
d="M303 469q24 0 44 -6l-13 -35q-13 7 -37 7q-37 0 -70.5 -30t-52 -68t-24.5 -73l-34 -264h-35l59 465l26 1q-2 -59 -11 -128h1q21 55 59.5 93t87.5 38z" />
    <glyph glyph-name="s" unicode="s" horiz-adv-x="429" 
d="M372 317q5 13 5 35q0 27 -13.5 46.5t-38 29.5t-56.5 10q-59 0 -94.5 -28t-35.5 -74q0 -27 19 -45.5t47.5 -26t62 -17.5t62 -20.5t47.5 -33.5t19 -58q0 -42 -22.5 -74t-63.5 -49t-96 -17q-106 0 -166 68l27 23q52 -59 143 -59q64 0 102.5 28t38.5 75q0 27 -19 45.5
t-47.5 27t-61.5 19t-61.5 21t-47.5 33.5t-19 56q0 60 47.5 98.5t122.5 38.5q63 0 101.5 -29t38.5 -79q0 -9 -1.5 -19.5t-3.5 -15.5l-2 -6z" />
    <glyph glyph-name="t" unicode="t" horiz-adv-x="354" 
d="M196 434l-36 -285q-8 -61 11.5 -92t72.5 -31q25 0 48.5 8t35.5 16l12 8l10 -29q-6 -3 -15.5 -9t-38.5 -15.5t-58 -9.5q-70 0 -97.5 38t-16.5 116l36 285h-74l3 31h75l19 143l35 3l-19 -146h187l-4 -31h-186z" />
    <glyph glyph-name="u" unicode="u" horiz-adv-x="530" 
d="M451 67q-5 -39 27 -39q7 0 15 2l-1 -30q-11 -4 -28 -4q-56 0 -48 62l7 60h-2q-24 -54 -73 -88t-111 -34q-77 0 -113.5 49t-25.5 132l36 288h36l-36 -288q-9 -69 20.5 -109.5t92.5 -40.5q48 0 90 28t64.5 65.5t29.5 76.5l34 268h37z" />
    <glyph glyph-name="v" unicode="v" horiz-adv-x="467" 
d="M463 465h38l-244 -465h-45l-127 465h40l110 -411q2 -11 3 -19h2q1 3 8 19z" />
    <glyph glyph-name="w" unicode="w" horiz-adv-x="674" 
d="M667 465h37l-197 -465h-47l-63 381q-4 25 -4 36h-2q0 -2 -2 -6.5t-3.5 -9t-4 -10.5t-4.5 -10l-161 -381h-47l-81 465h40l65 -406q1 -4 2 -9.5t1.5 -9.5t0.5 -5h2q6 14 10 24l170 406h37l67 -405q1 -4 1.5 -10t1 -10.5l0.5 -4.5h2q1 1 2.5 4.5t4 9.5t4.5 11z" />
    <glyph glyph-name="x" unicode="x" horiz-adv-x="426" 
d="M457 465l-193 -232l135 -233h-43l-110 192q-5 11 -5 14h-2q-3 -7 -10 -14l-159 -192h-42l194 232l-135 233h42l109 -191q8 -16 8 -17h1q3 4 12 17l156 191h42z" />
    <glyph glyph-name="y" unicode="y" horiz-adv-x="523" 
d="M465 465h36l-62 -483q-11 -90 -67.5 -140t-153.5 -50q-87 0 -155 45l21 30q20 -17 56 -30.5t83 -13.5q162 0 183 159l18 138h-1q-24 -55 -72.5 -89.5t-113.5 -34.5q-77 0 -113.5 49t-25.5 132l36 288h36l-36 -288q-9 -69 20.5 -109.5t92.5 -40.5q48 0 89.5 27.5
t64.5 65.5t30 76z" />
    <glyph glyph-name="z" unicode="z" horiz-adv-x="412" 
d="M36 0l4 31l332 388l6 6l5 5l4 4l-1 1q-6 -1 -24 -1h-264l3 31h330l-3 -31l-329 -385q-8 -9 -17 -18l1 -2q5 2 25 2h270l-4 -31h-338z" />
    <glyph glyph-name="braceleft" unicode="{" horiz-adv-x="271" 
d="M213 -209q-57 0 -90 33t-24 109l29 226q4 33 -11.5 50t-39.5 17h-10l3 30h10q15 0 29 6.5t25.5 22t14.5 38.5l32 246q9 76 50.5 108.5t97.5 32.5l-3 -33q-47 0 -75.5 -28t-35.5 -84l-32 -247q-5 -38 -23 -56t-33 -21q8 -3 15.5 -9t15.5 -24.5t5 -43.5l-29 -227
q-14 -112 83 -112z" />
    <glyph glyph-name="bar" unicode="|" horiz-adv-x="215" 
d="M65 -204l115 900h33l-114 -900h-34z" />
    <glyph glyph-name="braceright" unicode="}" horiz-adv-x="271" 
d="M9 -175q97 0 111 112l29 227q7 58 57 77q-6 1 -12 5t-13.5 11.5t-11 23.5t-0.5 37l31 247q8 57 -14 84.5t-68 27.5l4 34q57 0 90 -32.5t23 -109.5l-31 -246q-4 -33 12 -50t41 -17h9l-4 -30h-10q-24 0 -44.5 -17t-25.5 -50l-28 -226q-10 -76 -51.5 -109t-98.5 -33z" />
    <glyph glyph-name="asciitilde" unicode="~" horiz-adv-x="536" 
d="M108 260l4 30q47 30 101 30q36 0 94.5 -20t93.5 -20q59 0 101 31l-3 -31q-46 -30 -103 -30q-35 0 -92.5 20t-93.5 20q-24 0 -53 -8.5t-49 -21.5z" />
    <glyph glyph-name="exclamdown" unicode="&#xa1;" horiz-adv-x="199" 
d="M152 402q-13 0 -21 9t-8 21q0 15 11 26t26 11q12 0 20 -9t8 -21q0 -10 -5 -18.5t-13.5 -13.5t-17.5 -5zM53 -203l67 483l31 1l-58 -484h-40z" />
    <glyph glyph-name="cent" unicode="&#xa2;" horiz-adv-x="485" 
d="M343 467q95 -4 140 -68l-25 -23q-45 60 -131 60q-94 0 -152 -66t-58 -170q0 -79 41.5 -126t116.5 -47q86 0 146 59l19 -23q-62 -63 -156 -67l-13 -93h-28l12 93q-82 5 -128.5 59.5t-46.5 141.5q0 114 65 189t169 81l12 92h29z" />
    <glyph glyph-name="sterling" unicode="&#xa3;" horiz-adv-x="534" 
d="M374 659q42 0 76.5 -10t53.5 -25t31.5 -29.5t17.5 -25.5l4 -10l-35 -15q-1 3 -3.5 8.5t-14 19.5t-27 25t-44.5 20t-64 9q-56 0 -100.5 -24.5t-69.5 -68t-25 -97.5q0 -15 1.5 -29t7.5 -31.5t8 -23.5t11.5 -29.5t10.5 -23.5h232l-3 -29h-218q13 -38 13 -72q0 -36 -14 -68
t-36 -53t-33 -30t-20 -14l1 -3q7 3 23 3h317l-4 -33h-397l3 28q5 2 13.5 6.5t29.5 20.5t36.5 34t29 47t13.5 60q0 34 -16 74h-99l3 29h84q-8 18 -10.5 24t-9 23t-9 27.5t-5 26.5t-2.5 32q0 99 67.5 163t171.5 64z" />
    <glyph glyph-name="currency" unicode="&#xa4;" horiz-adv-x="564" 
d="M168 328q0 55 36 108l-69 84l23 21l67 -83q54 56 123 56q66 0 108 -56l87 83l19 -21l-91 -84q16 -36 16 -73q0 -54 -38 -104l68 -83l-23 -21l-67 81q-51 -53 -120 -53q-72 0 -110 55l-88 -84l-18 21l90 85q-13 28 -13 68zM198 333q0 -20 5.5 -38t15.5 -32.5t23.5 -25.5
t31 -17t36.5 -6q58 0 102 44t44 105q0 51 -32 85t-80 34q-58 0 -102 -44.5t-44 -104.5z" />
    <glyph glyph-name="yen" unicode="&#xa5;" horiz-adv-x="571" 
d="M600 653l-260 -373h156l-3 -30h-170l-10 -83h169l-4 -30h-169l-18 -137h-38l18 137h-170l4 30h170l10 83h-169l3 30h157l-165 373h42l138 -313q11 -27 18 -52h2q12 27 29 52l220 313h40z" />
    <glyph glyph-name="brokenbar" unicode="&#xa6;" horiz-adv-x="213" 
d="M132 331l47 365h33l-46 -365h-34zM64 -204l46 365h34l-46 -365h-34z" />
    <glyph glyph-name="section" unicode="&#xa7;" horiz-adv-x="533" 
d="M501 208q0 -95 -94 -129q63 -37 63 -111q0 -82 -63 -129t-167 -47q-140 0 -213 75l26 29q20 -19 38.5 -32t60 -26t92.5 -13q85 0 136 37t51 101q0 35 -18 59.5t-47 37.5t-64 22.5t-70.5 19t-64.5 23t-47 39t-18 61.5q0 47 28 81.5t72 49.5q-69 40 -69 120q0 81 61.5 132
t156.5 51q152 0 182 -137l-39 -11q-2 16 -10 33t-23.5 36.5t-45.5 32.5t-70 13q-36 0 -68.5 -10.5t-55.5 -29.5t-36.5 -46.5t-13.5 -59.5q0 -31 14.5 -54.5t37.5 -36.5t52.5 -24t60.5 -18.5t60.5 -18.5t53 -25t37.5 -38t14 -57zM370 96q93 23 93 108q0 27 -13.5 47t-39.5 32
t-51.5 20t-62.5 18t-59 19q-43 -8 -71 -38t-28 -72q0 -28 14 -47.5t40.5 -31.5t53 -19t64 -17t60.5 -19z" />
    <glyph glyph-name="dieresis" unicode="&#xa8;" horiz-adv-x="307" 
d="M145 584q-8 0 -14.5 4t-10 10.5t-3.5 14.5q0 15 11.5 26t25.5 11q7 0 13.5 -4t10 -11t3.5 -14q0 -10 -5 -18.5t-13.5 -13.5t-17.5 -5zM310 584q-12 0 -20 8.5t-8 20.5q0 15 11.5 26t25.5 11q12 0 20 -8.5t8 -20.5q0 -15 -11 -26t-26 -11z" />
    <glyph glyph-name="copyright" unicode="&#xa9;" horiz-adv-x="737" 
d="M367 -4q-83 0 -145 35.5t-95 100t-33 150.5q0 165 101 270.5t256 105.5q126 0 200.5 -78t74.5 -208q0 -165 -101.5 -270.5t-257.5 -105.5zM370 17q145 0 239 99t94 255q0 79 -30.5 139.5t-88.5 93.5t-136 33q-144 0 -237.5 -98.5t-93.5 -254.5q0 -121 68 -194t185 -73z
M542 175q-2 -2 -6 -6.5t-18 -16t-30.5 -20t-44 -16t-56.5 -7.5q-75 0 -118.5 48t-43.5 127q0 108 61 179t153 71q34 0 60 -10t40 -24t22.5 -31t11 -30t1.5 -21l-31 -6q0 2 -0.5 5t-2.5 12.5t-5.5 18.5t-11.5 19.5t-19 18t-28.5 12.5t-39.5 5q-76 0 -126.5 -61t-50.5 -154
q0 -67 36.5 -107.5t98.5 -40.5q26 0 49 6t38 14t26.5 16.5t16.5 14.5l5 6z" />
    <glyph glyph-name="ordfeminine" unicode="&#xaa;" horiz-adv-x="434" 
d="M407 318h8l5 1l-2 -30l-4 -0.5t-10 -1t-11 -0.5q-49 0 -42 52l3 30h-1q-17 -33 -54 -58t-93 -25q-48 0 -74 22t-26 60q0 28 11 49t30.5 35t49.5 23t64.5 12.5t78.5 4.5l30 1l4 32q6 47 -18.5 75t-73.5 28q-24 0 -44.5 -6.5t-35.5 -18.5t-23.5 -29.5t-8.5 -37.5
q0 -10 2 -14l-34 -7q-1 9 -1 19q0 56 42 90.5t109 34.5q64 0 96.5 -36.5t24.5 -98.5l-23 -176q-4 -30 21 -30zM219 317q22 0 42 5.5t34.5 14.5t26 19t19 21.5t12 20t6.5 14.5l7 56l-29 -1q-95 -2 -145 -22.5t-50 -68.5q0 -28 20 -43.5t57 -15.5z" />
    <glyph glyph-name="guillemotleft" unicode="&#xab;" horiz-adv-x="392" 
d="M78 248l5 32l141 131l17 -23l-137 -124l105 -124l-23 -23zM215 248l5 32l141 131l16 -23l-136 -124l105 -124l-23 -23z" />
    <glyph glyph-name="registered" unicode="&#xae;" horiz-adv-x="444" 
d="M261 309q-66 0 -106 41.5t-40 109.5q0 86 55 142.5t135 56.5q66 0 106.5 -42.5t40.5 -111.5q0 -85 -55 -140.5t-136 -55.5zM262 326q72 0 121 51t49 126q0 60 -35.5 99t-93.5 39q-72 0 -120.5 -51t-48.5 -128q0 -40 15.5 -71t45 -48t67.5 -17zM354 380q-5 -1 -10 -1
q-16 0 -25 13t-11.5 29t-12 29t-26.5 13h-35l-11 -83h-21l28 213h67q25 0 40.5 -15t15.5 -39q0 -19 -7.5 -33.5t-17.5 -22t-17.5 -10.5t-10.5 -4q11 -4 17.5 -16.5t9 -24.5t8 -21.5t14.5 -9.5h5v-17zM277 482q24 0 39.5 15.5t15.5 38.5q0 17 -11 28t-30 11h-42l-13 -93h41z
" />
    <glyph glyph-name="macron" unicode="&#xaf;" horiz-adv-x="335" 
d="M124 602l4 30h239l-3 -30h-240z" />
    <glyph glyph-name="degree" unicode="&#xb0;" horiz-adv-x="331" 
d="M348 556q0 -38 -16.5 -68.5t-46 -47.5t-66.5 -17q-45 0 -71.5 28t-26.5 73q0 59 36.5 96.5t91.5 37.5q45 0 72 -28t27 -74zM324 553q0 37 -21 59t-57 22q-29 0 -52 -13.5t-36 -38t-13 -55.5q0 -18 5.5 -32.5t15 -25t24 -16.5t32.5 -6q29 0 52.5 13.5t36.5 37.5t13 55z
" />
    <glyph glyph-name="plusminus" unicode="&#xb1;" horiz-adv-x="461" 
d="M289 337h142l-4 -30h-142l-16 -128h-32l16 128h-142l4 30h142l16 126h32zM82 77l3 29h316l-3 -29h-316z" />
    <glyph glyph-name="acute" unicode="&#xb4;" horiz-adv-x="228" 
d="M160 548l-33 -3l80 140h49z" />
    <glyph glyph-name="paragraph" unicode="&#xb6;" horiz-adv-x="488" 
d="M337 -203l106 831h-86l-106 -831h-26l67 526h-32q-79 0 -125.5 40t-46.5 105q0 82 60 133.5t154 51.5h171l-109 -856h-27z" />
    <glyph glyph-name="periodcentered" unicode="&#xb7;" horiz-adv-x="203" 
d="M114 360q0 10 5.5 19t14 14t18.5 5q12 0 20.5 -9t8.5 -22q0 -15 -11.5 -26.5t-26.5 -11.5q-13 0 -21 9t-8 22z" />
    <glyph glyph-name="cedilla" unicode="&#xb8;" horiz-adv-x="246" 
d="M120 -37q27 -3 46.5 -19.5t19.5 -45.5q0 -37 -26 -59t-68 -22q-20 0 -36.5 7t-23.5 14l-6 6l16 23q19 -21 54 -21q27 0 44 13.5t17 35.5q0 20 -18 34t-58 14l32 62l28 -1z" />
    <glyph glyph-name="ordmasculine" unicode="&#xba;" horiz-adv-x="444" 
d="M307 659q44 0 77.5 -20.5t51.5 -56.5t18 -84q0 -92 -55.5 -152t-139.5 -60q-69 0 -108.5 43.5t-39.5 116.5q0 93 55 153t141 60zM263 318q66 0 110 50t44 127q0 61 -31 97t-85 36q-66 0 -110 -50.5t-44 -128.5q0 -60 31 -95.5t85 -35.5z" />
    <glyph glyph-name="guillemotright" unicode="&#xbb;" horiz-adv-x="392" 
d="M99 117l-17 23l135 124l-103 124l22 23l109 -131l-5 -32zM235 117l-16 23l135 124l-104 124l23 23l108 -131l-5 -32z" />
    <glyph glyph-name="onequarter" unicode="&#xbc;" horiz-adv-x="755" 
d="M180 0l364 659h36l-365 -659h-35zM180 293l40 321l-118 -25l5 35l147 29h7l-45 -360h-36zM699 360l-30 -241h69l-4 -31h-69l-12 -88h-36l11 88h-217l5 35l244 237h39zM633 119l23 181q3 19 4 23v1q-1 -1 -6.5 -7.5t-12.5 -12.5l-172 -168q-5 -5 -20 -16v-2q4 1 28 1h156z
" />
    <glyph glyph-name="onehalf" unicode="&#xbd;" horiz-adv-x="753" 
d="M180 0l364 659h36l-365 -659h-35zM180 293l40 321l-118 -25l5 35l147 29h7l-45 -360h-36zM485 30q4 1 28 1h204l-4 -31h-285l4 32q19 11 54.5 30t61 32.5t56.5 34t50 38.5t32.5 41.5t13.5 47.5q0 35 -25.5 55t-70.5 20q-47 0 -77.5 -23.5t-30.5 -60.5q0 -7 2 -8l-37 -7
q-1 7 -1 14q0 51 41 84t107 33q61 0 95 -27t34 -74q0 -23 -7.5 -43.5t-23 -39t-30.5 -33t-40.5 -31t-41 -25.5t-43.5 -24t-38 -21q-14 -8 -28 -13v-2z" />
    <glyph glyph-name="threequarters" unicode="&#xbe;" horiz-adv-x="837" 
d="M274 0l365 659h35l-364 -659h-36zM270 656q57 0 90.5 -25t33.5 -66q0 -26 -16 -47t-41 -32t-53 -11v-1q39 0 70.5 -20.5t31.5 -58.5q0 -46 -45 -75t-116 -29q-23 0 -43 3.5t-34 9t-25.5 12.5t-18.5 14t-12 12.5t-7 8.5l-2 4l31 19q1 -2 4 -5.5t13 -12.5t22 -15.5
t32 -12.5t43 -6q55 0 88 20.5t33 54.5q0 31 -30.5 46t-82.5 15h-28l4 30h24q54 0 87.5 18.5t33.5 52.5q0 29 -24.5 47t-67.5 18q-42 0 -71 -18t-29 -46q0 -9 3 -11l-37 -7l-0.5 2.5t-1 6t-0.5 7.5q0 43 40.5 70.5t100.5 27.5zM784 360l-31 -241h69l-4 -31h-69l-12 -88h-36
l11 88h-218l6 35l245 237h39zM717 119l23 181q2 16 4 23v1q-1 -1 -3.5 -4t-6.5 -7.5t-9 -8.5l-172 -168q-6 -6 -20 -16v-2q4 1 28 1h156z" />
    <glyph glyph-name="questiondown" unicode="&#xbf;" horiz-adv-x="420" 
d="M279 402q-12 0 -20.5 9t-8.5 21q0 15 11 26t26 11q6 0 11.5 -2.5t9 -6.5t5.5 -9.5t2 -11.5q0 -15 -11 -26t-25 -11zM192 -214q-75 0 -119.5 41.5t-44.5 110.5q0 39 15.5 72.5t38.5 55.5t50.5 46.5t51 45.5t41 52.5t20.5 67.5q1 4 1 6l34 1v-3t-1 -4q-3 -40 -20.5 -74
t-41.5 -56t-50.5 -46t-49 -44.5t-37.5 -50.5t-15 -65q0 -36 16 -64t45.5 -43.5t69.5 -15.5q64 0 106 39.5t42 96.5q0 11 -2 19l36 7q2 -12 2 -26q0 -70 -54 -119.5t-134 -49.5z" />
    <glyph glyph-name="Agrave" unicode="&#xc0;" horiz-adv-x="568" 
d="M389 685l-33 -3l-65 117h51zM503 0l-45 191h-300l-93 -191h-39l320 653h40l156 -653h-39zM174 223h277l-83 354q-4 17 -7 33h-2q-3 -11 -13 -33z" />
    <glyph glyph-name="Aacute" unicode="&#xc1;" horiz-adv-x="568" 
d="M476 799l-95 -114l-32 -3l77 117h50zM503 0l-45 191h-300l-93 -191h-39l320 653h40l156 -653h-39zM174 223h277l-83 354q-4 17 -7 33h-2q-3 -11 -13 -33z" />
    <glyph glyph-name="Acircumflex" unicode="&#xc2;" horiz-adv-x="568" 
d="M382 768l-89 -84l-36 -2l107 119h45l76 -119l-36 2zM503 0l-45 191h-300l-93 -191h-39l320 653h40l156 -653h-39zM174 223h277l-83 354q-4 17 -7 33h-2q-3 -11 -13 -33z" />
    <glyph glyph-name="Atilde" unicode="&#xc3;" horiz-adv-x="568" 
d="M268 674h-31q-1 7 -1 12q0 39 21 60.5t55 21.5q24 0 46.5 -15.5t41.5 -31t34 -15.5q42 0 42 55v10h32l-2 -22q-3 -34 -22 -54t-51 -20q-23 0 -45.5 15.5t-42 31.5t-35.5 16q-19 0 -30.5 -14t-11.5 -40v-10zM503 0l-45 191h-300l-93 -191h-39l320 653h40l156 -653h-39z
M174 223h277l-83 354q-4 17 -7 33h-2q-3 -11 -13 -33z" />
    <glyph glyph-name="Adieresis" unicode="&#xc4;" horiz-adv-x="568" 
d="M291 705q-12 0 -20 9t-8 21q0 14 11.5 25t25.5 11q7 0 13.5 -4t10 -11t3.5 -14q0 -10 -5.5 -18.5t-13.5 -13.5t-17 -5zM456 706q-12 0 -20 8.5t-8 20.5q0 14 11.5 25t25.5 11q12 0 19.5 -8.5t7.5 -20.5q0 -15 -11 -25.5t-25 -10.5zM503 0l-45 191h-300l-93 -191h-39
l320 653h40l156 -653h-39zM174 223h277l-83 354q-4 17 -7 33h-2q-3 -11 -13 -33z" />
    <glyph glyph-name="Aring" unicode="&#xc5;" horiz-adv-x="568" 
d="M370 673q-17 0 -31 8t-21 22t-7 31q0 32 22.5 54t53.5 22q26 0 42.5 -17t16.5 -43q0 -32 -23 -54.5t-53 -22.5zM384 785q-20 0 -33 -14t-13 -35q0 -17 9.5 -27t25.5 -10q19 0 32.5 13.5t13.5 34.5q0 11 -4 19.5t-12.5 13.5t-18.5 5zM503 0l-45 191h-300l-93 -191h-39
l320 653h40l156 -653h-39zM174 223h277l-83 354q-4 17 -7 33h-2q-3 -11 -13 -33z" />
    <glyph glyph-name="AE" unicode="&#xc6;" horiz-adv-x="951" 
d="M931 620h-331l-34 -263h301l-4 -33h-301l-37 -291h331l-5 -33h-368l25 191h-303l-166 -191h-42l568 653h369zM233 223h279l48 376z" />
    <glyph glyph-name="Ccedilla" unicode="&#xc7;" horiz-adv-x="602" 
d="M415 659q49 0 86.5 -15.5t59 -37.5t35 -50t17.5 -51t3 -43l-38 -7q1 14 -1.5 33t-13 44t-28 45t-50 34.5t-75.5 14.5q-117 0 -197.5 -96t-80.5 -252q0 -118 58.5 -184t155.5 -66q38 0 73.5 11t61.5 29t42.5 33t28.5 30l22 -23q-13 -15 -29 -30t-44 -35t-66.5 -33
t-80.5 -14l-17 -33q27 -3 46.5 -19.5t19.5 -45.5q0 -37 -26.5 -59t-67.5 -22q-21 0 -37.5 7t-22.5 14l-6 6l16 23q19 -21 53 -21q27 0 44.5 13.5t17.5 35.5q0 20 -18 34t-58 14l27 53q-107 6 -168.5 79t-61.5 198q0 70 16 131t45 107.5t69 79.5t88.5 50.5t101.5 17.5z" />
    <glyph glyph-name="Egrave" unicode="&#xc8;" horiz-adv-x="515" 
d="M394 685l-33 -3l-65 117h50zM543 620h-331l-34 -263h301l-4 -33h-301l-37 -291h331l-5 -33h-368l84 653h368z" />
    <glyph glyph-name="Eacute" unicode="&#xc9;" horiz-adv-x="515" 
d="M481 799l-95 -114l-33 -3l78 117h50zM543 620h-331l-34 -263h301l-4 -33h-301l-37 -291h331l-5 -33h-368l84 653h368z" />
    <glyph glyph-name="Ecircumflex" unicode="&#xca;" horiz-adv-x="515" 
d="M386 768l-88 -84l-36 -2l107 119h45l76 -119l-36 2zM543 620h-331l-34 -263h301l-4 -33h-301l-37 -291h331l-5 -33h-368l84 653h368z" />
    <glyph glyph-name="Edieresis" unicode="&#xcb;" horiz-adv-x="515" 
d="M296 705q-8 0 -14.5 4t-10 11t-3.5 15q0 14 11 25t25 11q8 0 14.5 -4t10 -11t3.5 -14q0 -10 -5.5 -18.5t-13.5 -13.5t-17 -5zM461 706q-12 0 -20 8.5t-8 20.5q0 14 11.5 25t25.5 11q12 0 19.5 -8.5t7.5 -20.5q0 -15 -11 -25.5t-25 -10.5zM543 620h-331l-34 -263h301
l-4 -33h-301l-37 -291h331l-5 -33h-368l84 653h368z" />
    <glyph glyph-name="Igrave" unicode="&#xcc;" horiz-adv-x="228" 
d="M188 682l-65 117h50l48 -114zM95 0l84 653h37l-83 -653h-38z" />
    <glyph glyph-name="Iacute" unicode="&#xcd;" horiz-adv-x="228" 
d="M213 685l-33 -3l77 117h51zM95 0l84 653h37l-83 -653h-38z" />
    <glyph glyph-name="Icircumflex" unicode="&#xce;" horiz-adv-x="228" 
d="M240 801l77 -119l-37 2l-67 84l-88 -84l-36 -2l106 119h45zM95 0l84 653h37l-83 -653h-38z" />
    <glyph glyph-name="Idieresis" unicode="&#xcf;" horiz-adv-x="228" 
d="M123 705q-13 0 -20.5 9t-7.5 21q0 14 11 25t25 11q6 0 11 -2.5t8.5 -6.5t6 -9.5t2.5 -10.5q0 -10 -5.5 -18.5t-14 -13.5t-16.5 -5zM288 706q-12 0 -20 8.5t-8 20.5q0 14 11.5 25t24.5 11q12 0 20 -8.5t8 -20.5q0 -15 -11 -25.5t-25 -10.5zM95 0l84 653h37l-83 -653h-38z
" />
    <glyph glyph-name="Eth" unicode="&#xd0;" horiz-adv-x="619" 
d="M331 653q129 0 202.5 -73.5t73.5 -203.5q0 -171 -87.5 -273.5t-234.5 -102.5h-190l40 311h-75l4 31h75l40 311h152zM288 33q128 0 204.5 93t76.5 246q0 118 -64 183t-178 65h-115l-36 -278h183l-4 -31h-183l-35 -278h151z" />
    <glyph glyph-name="Ntilde" unicode="&#xd1;" horiz-adv-x="654" 
d="M568 771l-1 -22q-2 -23 -11.5 -39.5t-25 -25.5t-36.5 -9q-23 0 -45.5 15.5t-42.5 31t-36 15.5q-18 0 -30 -13.5t-12 -39.5l1 -10h-32v12q0 26 10 45t26.5 28t39.5 9q18 0 36.5 -9.5t31 -21.5t27.5 -21.5t27 -9.5q42 0 42 55l-1 10h32zM641 653l-83 -653h-48l-266 532
q-16 33 -34 74l-3 -1q2 -11 -4 -63l-70 -542h-38l84 653h45l267 -535l35 -74l3 1q0 17 6 65l69 543h37z" />
    <glyph glyph-name="Ograve" unicode="&#xd2;" horiz-adv-x="674" 
d="M410 682l-65 117h51l47 -114zM421 659q110 0 176 -75t66 -205q0 -87 -25.5 -160t-70 -121.5t-104 -75.5t-126.5 -27q-109 0 -175.5 75t-66.5 205q0 87 25.5 160t70 121.5t104 75.5t126.5 27zM341 28q119 0 201.5 96t82.5 250q0 77 -26 134t-73.5 87.5t-109.5 30.5
q-57 0 -109 -25t-90.5 -69t-61.5 -109.5t-23 -142.5q0 -116 57.5 -184t151.5 -68z" />
    <glyph glyph-name="Oacute" unicode="&#xd3;" horiz-adv-x="674" 
d="M435 685l-32 -3l77 117h50zM421 659q110 0 176 -75t66 -205q0 -87 -25.5 -160t-70 -121.5t-104 -75.5t-126.5 -27q-109 0 -175.5 75t-66.5 205q0 87 25.5 160t70 121.5t104 75.5t126.5 27zM341 28q119 0 201.5 96t82.5 250q0 77 -26 134t-73.5 87.5t-109.5 30.5
q-57 0 -109 -25t-90.5 -69t-61.5 -109.5t-23 -142.5q0 -116 57.5 -184t151.5 -68z" />
    <glyph glyph-name="Ocircumflex" unicode="&#xd4;" horiz-adv-x="674" 
d="M463 801l76 -119l-36 2l-68 84l-88 -84l-36 -2l107 119h45zM421 659q110 0 176 -75t66 -205q0 -87 -25.5 -160t-70 -121.5t-104 -75.5t-126.5 -27q-109 0 -175.5 75t-66.5 205q0 87 25.5 160t70 121.5t104 75.5t126.5 27zM341 28q119 0 201.5 96t82.5 250q0 77 -26 134
t-73.5 87.5t-109.5 30.5q-57 0 -109 -25t-90.5 -69t-61.5 -109.5t-23 -142.5q0 -116 57.5 -184t151.5 -68z" />
    <glyph glyph-name="Otilde" unicode="&#xd5;" horiz-adv-x="674" 
d="M562 771l-2 -22q-2 -23 -11 -39.5t-25 -25.5t-37 -9q-23 0 -45.5 15.5t-42 31t-35.5 15.5q-19 0 -30.5 -13.5t-11.5 -39.5v-10h-31q-1 7 -1 12q0 39 21 60.5t55 21.5q24 0 46.5 -15.5t41.5 -31t34 -15.5q42 0 42 55v10h32zM421 659q110 0 176 -75t66 -205
q0 -87 -25.5 -160t-70 -121.5t-104 -75.5t-126.5 -27q-109 0 -175.5 75t-66.5 205q0 87 25.5 160t70 121.5t104 75.5t126.5 27zM341 28q119 0 201.5 96t82.5 250q0 77 -26 134t-73.5 87.5t-109.5 30.5q-57 0 -109 -25t-90.5 -69t-61.5 -109.5t-23 -142.5q0 -116 57.5 -184
t151.5 -68z" />
    <glyph glyph-name="Odieresis" unicode="&#xd6;" horiz-adv-x="674" 
d="M345 705q-12 0 -20 9t-8 21q0 14 11.5 25t24.5 11q8 0 14.5 -4t10 -11t3.5 -14q0 -10 -5.5 -18.5t-13.5 -13.5t-17 -5zM510 706q-12 0 -20 8.5t-8 20.5q0 14 11.5 25t25.5 11q12 0 19.5 -8.5t7.5 -20.5q0 -15 -11 -25.5t-25 -10.5zM421 659q110 0 176 -75t66 -205
q0 -87 -25.5 -160t-70 -121.5t-104 -75t-126.5 -26.5q-109 0 -175.5 75t-66.5 204q0 87 25.5 160t70 121.5t104 75.5t126.5 27zM341 28q119 0 201.5 96t82.5 250q0 77 -26 134t-73.5 87.5t-109.5 30.5q-57 0 -109 -25t-90.5 -69t-61.5 -109.5t-23 -142.5q0 -116 57.5 -184
t151.5 -68z" />
    <glyph glyph-name="multiply" unicode="&#xd7;" horiz-adv-x="412" 
d="M388 366l-130 -120l100 -122l-24 -21l-100 120l-130 -120l-18 21l130 121l-100 121l24 22l100 -121l130 121z" />
    <glyph glyph-name="Oslash" unicode="&#xd8;" horiz-adv-x="674" 
d="M677 688l-80 -104q66 -76 66 -205q0 -87 -25.5 -160t-70 -121.5t-104 -75.5t-126.5 -27q-91 0 -152 53l-71 -92h-39l87 113q-67 76 -67 206q0 87 25.5 160t70 121.5t104 75.5t126.5 27q91 0 153 -53l64 82h39zM132 280q0 -111 54 -179l365 474q-54 51 -135 51
q-57 0 -109 -25t-90.5 -69t-61.5 -109.5t-23 -142.5zM625 374q0 110 -53 178l-364 -474q54 -50 133 -50q119 0 201.5 96t82.5 250z" />
    <glyph glyph-name="Ugrave" unicode="&#xd9;" horiz-adv-x="645" 
d="M396 682l-65 117h50l48 -114zM602 653h38l-50 -390q-16 -128 -87 -197.5t-180.5 -69.5t-163.5 69.5t-38 197.5l50 390h38l-49 -389q-15 -115 29 -175.5t138 -60.5q93 0 152 60.5t74 174.5z" />
    <glyph glyph-name="Uacute" unicode="&#xda;" horiz-adv-x="645" 
d="M421 685l-33 -3l78 117h50zM602 653h38l-50 -390q-16 -128 -87 -197.5t-180.5 -69.5t-163.5 69.5t-38 197.5l50 390h38l-49 -389q-15 -115 29 -175.5t138 -60.5q93 0 152 60.5t74 174.5z" />
    <glyph glyph-name="Ucircumflex" unicode="&#xdb;" horiz-adv-x="645" 
d="M449 801l76 -119l-36 2l-68 84l-88 -84l-36 -2l107 119h45zM602 653h38l-50 -390q-16 -128 -87 -197.5t-180.5 -69.5t-163.5 69.5t-38 197.5l50 390h38l-49 -389q-15 -115 29 -175.5t138 -60.5q93 0 152 60.5t74 174.5z" />
    <glyph glyph-name="Udieresis" unicode="&#xdc;" horiz-adv-x="645" 
d="M331 705q-12 0 -20 9t-8 21q0 14 11 25t25 11q12 0 20 -9t8 -20q0 -10 -5.5 -18.5t-13.5 -13.5t-17 -5zM496 706q-12 0 -20 8.5t-8 20.5q0 14 11.5 25t25.5 11q12 0 19.5 -8.5t7.5 -20.5q0 -15 -11 -25.5t-25 -10.5zM602 653h38l-50 -390q-16 -128 -87 -197.5
t-180.5 -69.5t-163.5 69.5t-38 197.5l50 390h38l-49 -389q-15 -115 29 -175.5t138 -60.5q93 0 152 60.5t74 174.5z" />
    <glyph glyph-name="Yacute" unicode="&#xdd;" horiz-adv-x="540" 
d="M464 799l-95 -114l-33 -3l77 117h51zM597 653l-275 -396l-33 -257h-38l33 257l-175 396h41l139 -313q11 -27 18 -52h1q12 27 30 52l219 313h40z" />
    <glyph glyph-name="Thorn" unicode="&#xde;" horiz-adv-x="550" 
d="M357 536q92 0 144 -48.5t52 -131.5q0 -103 -68 -166t-177 -63h-159l-16 -127h-38l84 653h37l-15 -117h156zM308 160q92 0 149.5 52.5t57.5 138.5q0 70 -44 111t-120 41h-154l-44 -343h155z" />
    <glyph glyph-name="germandbls" unicode="&#xdf;" horiz-adv-x="508" 
d="M364 371q28 -8 50.5 -22.5t38 -35t23.5 -46.5t8 -57q0 -97 -55 -156t-156 -59q-25 0 -48.5 4t-34.5 7l-11 4l13 32q31 -15 85 -15q79 0 124.5 50t45.5 130q0 66 -41 105t-111 39h-19l3 31h7q63 0 106.5 51.5t43.5 125.5q0 54 -31 87t-82 33q-55 0 -92 -38t-46 -104
l-68 -537h-36l69 541q10 76 58 123t118 47q44 0 77.5 -19t51 -52.5t17.5 -77.5q0 -64 -29 -115t-79 -76z" />
    <glyph glyph-name="agrave" unicode="&#xe0;" horiz-adv-x="554" 
d="M379 548l-32 -3l-62 140h48zM474 67q-5 -39 27 -39q8 0 16 2l-1 -30q-12 -4 -28 -4q-27 0 -40.5 15t-9.5 47l9 61h-2q-23 -54 -74 -88.5t-116 -34.5q-82 0 -130 54.5t-48 146.5q0 119 68 195.5t171 76.5q68 0 110 -37t50 -94q12 79 23 127h26zM263 27q74 0 126.5 52
t64.5 114l10 71l-1 -1q4 28 -3 58t-24 56.5t-49 43.5t-73 17q-57 0 -102.5 -30t-71.5 -84.5t-26 -122.5q0 -80 40 -127t109 -47z" />
    <glyph glyph-name="aacute" unicode="&#xe1;" horiz-adv-x="554" 
d="M435 685l-96 -137l-33 -3l80 140h49zM474 67q-5 -39 27 -39q8 0 16 2l-1 -30q-12 -4 -28 -4q-27 0 -40.5 15t-9.5 47l9 61h-2q-23 -54 -74 -88.5t-116 -34.5q-82 0 -130 54.5t-48 146.5q0 119 68 195.5t171 76.5q68 0 110 -37t50 -94q12 79 23 127h26zM263 27
q74 0 126.5 52t64.5 114l10 71l-1 -1q4 28 -3 58t-24 56.5t-49 43.5t-73 17q-57 0 -102.5 -30t-71.5 -84.5t-26 -122.5q0 -80 40 -127t109 -47z" />
    <glyph glyph-name="acircumflex" unicode="&#xe2;" horiz-adv-x="554" 
d="M361 653l-92 -106l-35 -2l108 139h43l77 -139l-35 2zM474 67q-5 -39 27 -39q8 0 16 2l-1 -30q-12 -4 -28 -4q-27 0 -40.5 15t-9.5 47l9 61h-2q-23 -54 -74 -88.5t-116 -34.5q-54 0 -94.5 24.5t-62 70.5t-21.5 106q0 119 68 195.5t171 76.5q68 0 110 -37t50 -94
q12 79 23 127h26zM263 27q74 0 126.5 52t64.5 114l10 71l-1 -1q4 28 -3 58t-24 56.5t-49 43.5t-73 17q-43 0 -79.5 -18t-63 -49t-42 -75t-15.5 -95q0 -80 40 -127t109 -47z" />
    <glyph glyph-name="atilde" unicode="&#xe3;" horiz-adv-x="554" 
d="M251 564h-31q-1 6 -1 12q0 38 21 61t54 23q19 0 37.5 -10t31 -21.5t27.5 -21.5t27 -10q42 0 42 55l-1 10h32q-1 -11 -1 -22q-3 -34 -22.5 -54t-51.5 -20q-22 0 -44.5 15.5t-42 31.5t-35.5 16q-19 0 -31 -14t-12 -41zM474 67q-5 -39 27 -39q8 0 16 2l-1 -30q-12 -4 -28 -4
q-27 0 -40.5 15t-9.5 47l9 61h-2q-23 -54 -74 -88.5t-116 -34.5q-82 0 -130 54.5t-48 146.5q0 119 68 195.5t171 76.5q68 0 110 -37t50 -94q12 79 23 127h26zM263 27q74 0 126.5 52t64.5 114l10 71l-1 -1q4 28 -3 58t-24 56.5t-49 43.5t-73 17q-57 0 -102.5 -30t-71.5 -84.5
t-26 -122.5q0 -80 40 -127t109 -47z" />
    <glyph glyph-name="adieresis" unicode="&#xe4;" horiz-adv-x="554" 
d="M273 584q-12 0 -20 8.5t-8 20.5q0 15 11.5 26t25.5 11q11 0 19.5 -8.5t8.5 -20.5q0 -15 -11.5 -26t-25.5 -11zM438 584q-12 0 -20 8.5t-8 20.5q0 15 11.5 26t25.5 11q12 0 20 -8.5t8 -20.5q0 -15 -11 -26t-26 -11zM474 67q-5 -39 27 -39q8 0 16 2l-1 -30q-12 -4 -28 -4
q-27 0 -40.5 15t-9.5 47l9 61h-2q-23 -54 -74 -88.5t-116 -34.5q-82 0 -130 54.5t-48 146.5q0 119 68 195.5t171 76.5q68 0 110 -36.5t50 -94.5q12 79 23 127h26zM263 27q74 0 126.5 52t64.5 114l10 71l-1 -1q4 28 -3 58t-24 56.5t-49 43.5t-73 17q-57 0 -102.5 -30
t-71.5 -84.5t-26 -122.5q0 -79 40 -126.5t109 -47.5z" />
    <glyph glyph-name="aring" unicode="&#xe5;" horiz-adv-x="554" 
d="M349 544q-26 0 -43 18t-17 45q0 33 23 55.5t56 22.5q26 0 42.5 -17.5t16.5 -44.5q0 -33 -22.5 -56t-55.5 -23zM363 658q-19 0 -32.5 -13.5t-13.5 -35.5q0 -17 9.5 -27.5t26.5 -10.5q19 0 33 14t14 35q0 18 -10 28t-27 10zM474 67q-5 -39 27 -39q8 0 16 2l-1 -30
q-12 -4 -28 -4q-27 0 -40.5 15t-9.5 47l9 61h-2q-23 -54 -74 -88.5t-116 -34.5q-82 0 -130 54.5t-48 146.5q0 119 68 195.5t171 76.5q68 0 110 -37t50 -94q12 79 23 127h26zM263 27q74 0 126.5 52t64.5 114l10 71l-1 -1q4 28 -3 58t-24 56.5t-49 43.5t-73 17
q-43 0 -79.5 -18t-63 -49t-42 -75t-15.5 -95q0 -80 40 -127t109 -47z" />
    <glyph glyph-name="ae" unicode="&#xe6;" horiz-adv-x="805" 
d="M634 469q73 0 116 -47.5t43 -127.5q0 -16 -2 -32t-5 -24l-2 -8h-349q-1 -14 -1 -29q0 -40 10.5 -72t30.5 -54.5t50 -35t67 -12.5q86 0 143 59l20 -21q-64 -69 -169 -69q-47 0 -84.5 16.5t-61 46.5t-34.5 72h-2q-7 -22 -23 -44t-41 -43.5t-64 -34.5t-84 -13
q-62 0 -95.5 27.5t-33.5 75.5q0 43 20.5 73.5t62 48t93 25.5t123.5 10l40 1l6 43q4 31 -2.5 56.5t-22 43.5t-40.5 28t-57 10q-65 0 -107 -35t-42 -92q0 -16 1 -20l-34 -6q-2 9 -2 24q0 71 53.5 115.5t135.5 44.5q62 0 101.5 -29.5t49.5 -80.5q32 52 82.5 81t109.5 29z
M631 438q-69 0 -122.5 -49t-69.5 -130h316q3 13 3 36q0 67 -34 105t-93 38zM203 27q36 0 68 11.5t52.5 27.5t36 35.5t22 34t7.5 23.5l9 70l-40 -2q-62 -1 -106 -7.5t-80 -20t-54 -37.5t-18 -58q0 -35 26 -56t77 -21z" />
    <glyph glyph-name="ccedilla" unicode="&#xe7;" horiz-adv-x="481" 
d="M466 285l-34 -3q6 16 6 41q0 51 -32.5 83t-89.5 32q-86 0 -144 -67.5t-58 -170.5q0 -79 41.5 -126t116.5 -47q86 0 146 59l19 -23q-65 -66 -165 -67l-16 -33q27 -3 46.5 -19.5t19.5 -46.5q0 -36 -26.5 -58t-68.5 -22q-20 0 -36.5 7t-22.5 14l-7 6l16 23q19 -21 54 -21
q27 0 44 13.5t17 35.5q0 20 -17.5 34t-58.5 14l28 54q-79 7 -123 60.5t-44 139.5q0 118 69.5 195t174.5 77q70 0 111 -38.5t41 -98.5q0 -12 -1.5 -23.5t-3.5 -17.5z" />
    <glyph glyph-name="egrave" unicode="&#xe8;" horiz-adv-x="486" 
d="M353 548l-31 -3l-63 140h48zM314 469q73 0 116 -47.5t43 -127.5q0 -16 -2 -32t-4 -24l-3 -8h-349q-1 -14 -1 -29q0 -80 42 -127t116 -47q86 0 143 59l20 -21q-64 -70 -169 -70q-88 0 -138.5 55t-50.5 146q0 121 69 197t168 76zM311 438q-69 0 -122.5 -49t-69.5 -130h316
q3 13 3 36q0 67 -34 105t-93 38z" />
    <glyph glyph-name="eacute" unicode="&#xe9;" horiz-adv-x="486" 
d="M409 685l-96 -137l-33 -3l80 140h49zM314 469q73 0 116 -47.5t43 -127.5q0 -16 -2 -32t-4 -24l-3 -8h-349q-1 -14 -1 -29q0 -80 42 -127t116 -47q86 0 143 59l20 -21q-64 -70 -169 -70q-88 0 -138.5 55t-50.5 146q0 121 69 197t168 76zM311 438q-45 0 -85 -21.5
t-68.5 -62.5t-38.5 -95h316q3 13 3 36q0 67 -34 105t-93 38z" />
    <glyph glyph-name="ecircumflex" unicode="&#xea;" horiz-adv-x="486" 
d="M336 653l-92 -106l-36 -2l109 139h43l76 -139l-35 2zM314 469q73 0 116 -47.5t43 -127.5q0 -16 -2 -32t-4 -24l-3 -8h-349q-1 -14 -1 -29q0 -80 42 -127t116 -47q86 0 143 59l20 -21q-64 -69 -169 -69q-88 0 -138.5 54.5t-50.5 145.5q0 121 69 197t168 76zM311 438
q-69 0 -122.5 -49t-69.5 -130h316q3 13 3 36q0 67 -34 105t-93 38z" />
    <glyph glyph-name="edieresis" unicode="&#xeb;" horiz-adv-x="486" 
d="M247 584q-12 0 -20 8.5t-8 20.5q0 15 11.5 26t25.5 11q12 0 20 -8.5t8 -20.5q0 -15 -11 -26t-26 -11zM413 584q-12 0 -20 8.5t-8 20.5q0 15 11 26t25 11q12 0 20 -8.5t8 -20.5q0 -15 -11 -26t-25 -11zM314 469q73 0 116 -47.5t43 -127.5q0 -16 -2 -32t-4 -24l-3 -8h-349
q-1 -14 -1 -29q0 -80 42 -127t116 -47q86 0 143 59l20 -21q-64 -69 -169 -69q-59 0 -101.5 25t-65 70t-22.5 105q0 121 69 197t168 76zM311 438q-69 0 -122.5 -49t-69.5 -130h316q3 13 3 36q0 67 -34 105t-93 38z" />
    <glyph glyph-name="igrave" unicode="&#xec;" horiz-adv-x="204" 
d="M150 545l-62 140h48l46 -137zM177 466l-53 -404q-4 -34 24 -34q7 0 15 2l-1 -31q-13 -4 -28 -4q-55 0 -46 61l53 409z" />
    <glyph glyph-name="iacute" unicode="&#xed;" horiz-adv-x="204" 
d="M185 548l-33 -3l80 140h49zM177 466l-53 -404q-4 -34 24 -34q7 0 15 2l-1 -31q-13 -4 -28 -4q-55 0 -46 61l53 409z" />
    <glyph glyph-name="icircumflex" unicode="&#xee;" horiz-adv-x="204" 
d="M54 545l108 139h43l77 -139l-36 2l-65 106l-92 -106zM177 466l-53 -404q-4 -34 24 -34q7 0 15 2l-1 -31q-13 -4 -28 -4q-55 0 -46 61l53 409z" />
    <glyph glyph-name="idieresis" unicode="&#xef;" horiz-adv-x="204" 
d="M93 584q-12 0 -20 8.5t-8 20.5q0 15 11 26t25 11q12 0 20 -8.5t8 -20.5q0 -15 -11 -26t-25 -11zM258 584q-12 0 -20 8.5t-8 20.5q0 15 11 26t25 11q12 0 20 -8.5t8 -20.5q0 -15 -11 -26t-25 -11zM177 466l-53 -404q-4 -34 24 -34q7 0 15 2l-1 -31q-13 -3 -28 -3
q-55 0 -46 60l53 409z" />
    <glyph glyph-name="eth" unicode="&#xf0;" horiz-adv-x="527" 
d="M505 656l-82 -47q79 -102 79 -275q0 -169 -69 -254.5t-184 -85.5q-78 0 -125.5 50t-47.5 134q0 118 65.5 187t163.5 69q70 0 112 -37t50 -85q4 54 -4 105.5t-26 95.5t-46 78l-76 -43l-12 25l70 39q-53 53 -124 66l24 28q77 -17 132 -75l90 50zM255 25q80 0 135 55t67 147
l1 10q4 67 -38 116t-115 49q-81 0 -137.5 -60t-56.5 -159q0 -71 39.5 -114.5t104.5 -43.5z" />
    <glyph glyph-name="ntilde" unicode="&#xf1;" horiz-adv-x="544" 
d="M243 564h-31v12q0 38 20.5 61t54.5 23q19 0 37.5 -10t31 -21.5t27 -21.5t27.5 -10q41 0 41 55v10h32l-2 -22q-2 -34 -21.5 -54t-51.5 -20q-22 0 -44.5 15.5t-42 31.5t-35.5 16q-19 0 -31 -14t-12 -41v-10zM494 28q9 0 17 2l-1 -31q-13 -4 -30 -4q-27 0 -39.5 16.5
t-8.5 48.5l28 225q8 68 -24.5 110.5t-95.5 42.5q-51 0 -93.5 -28t-65.5 -65.5t-30 -76.5l-35 -268h-35l59 465l26 1q-2 -59 -11 -128h1q24 56 76 93.5t117 37.5q78 0 117.5 -51t29.5 -133l-28 -220q-5 -37 26 -37z" />
    <glyph glyph-name="ograve" unicode="&#xf2;" horiz-adv-x="528" 
d="M331 545l-62 140h48l46 -137zM324 469q85 0 135.5 -55.5t50.5 -147.5q0 -119 -70 -195t-176 -76q-86 0 -136.5 55.5t-50.5 147.5q0 118 70 194.5t177 76.5zM267 27q90 0 148 66t58 169q0 80 -41 128t-112 48q-89 0 -147.5 -67t-58.5 -170q0 -79 41 -126.5t112 -47.5z" />
    <glyph glyph-name="oacute" unicode="&#xf3;" horiz-adv-x="528" 
d="M323 548l-33 -3l80 140h49zM324 469q85 0 135.5 -55.5t50.5 -147.5q0 -119 -70 -195t-176 -76q-86 0 -136.5 55.5t-50.5 147.5q0 118 70 194.5t177 76.5zM267 27q90 0 148 66t58 169q0 80 -41 128t-112 48q-89 0 -147.5 -67t-58.5 -170q0 -79 41 -126.5t112 -47.5z" />
    <glyph glyph-name="ocircumflex" unicode="&#xf4;" horiz-adv-x="528" 
d="M218 545l108 139h43l77 -139l-35 2l-66 106l-92 -106zM324 469q85 0 135.5 -55.5t50.5 -147.5q0 -119 -70 -195t-176 -76q-86 0 -136.5 55.5t-50.5 147.5q0 118 70 194.5t177 76.5zM267 27q90 0 148 66t58 169q0 80 -41 128t-112 48q-89 0 -147.5 -67t-58.5 -170
q0 -79 41 -126.5t112 -47.5z" />
    <glyph glyph-name="otilde" unicode="&#xf5;" horiz-adv-x="528" 
d="M474 662q-1 -11 -1 -22q-3 -34 -22.5 -54t-51.5 -20q-22 0 -44.5 15.5t-42 31.5t-34.5 16q-20 0 -31.5 -14t-11.5 -41v-10h-31q-1 6 -1 12q0 38 21 61t54 23q19 0 37.5 -10t31 -21.5t27.5 -21.5t27 -10q42 0 42 55l-1 10h32zM324 469q85 0 135.5 -55.5t50.5 -147.5
q0 -119 -70 -195t-176 -76q-86 0 -136.5 55.5t-50.5 147.5q0 118 70 194.5t177 76.5zM267 27q90 0 148 66t58 169q0 80 -41 128t-112 48q-89 0 -147.5 -67t-58.5 -170q0 -79 41 -126.5t112 -47.5z" />
    <glyph glyph-name="odieresis" unicode="&#xf6;" horiz-adv-x="528" 
d="M257 584q-12 0 -20 8.5t-8 20.5q0 15 11.5 26t25.5 11q11 0 19.5 -8.5t8.5 -20.5q0 -15 -11.5 -26t-25.5 -11zM422 584q-12 0 -20 8.5t-8 20.5q0 15 11.5 26t25.5 11q12 0 20 -8.5t8 -20.5q0 -15 -11 -26t-26 -11zM324 469q85 0 135.5 -55.5t50.5 -147.5
q0 -119 -70 -194.5t-176 -75.5q-86 0 -136.5 55t-50.5 147q0 118 70 194.5t177 76.5zM267 27q90 0 148 66t58 170q0 79 -41 127t-112 48q-89 0 -147.5 -67t-58.5 -170q0 -79 41 -126.5t112 -47.5z" />
    <glyph glyph-name="divide" unicode="&#xf7;" horiz-adv-x="463" 
d="M253 433q0 16 12 28t28 12q13 0 22 -9.5t9 -22.5q0 -11 -5.5 -20.5t-15 -14.5t-19.5 -5q-9 0 -16.5 4t-11 11.5t-3.5 16.5zM101 229l3 30h321l-4 -30h-320zM198 33q0 16 12.5 28t27.5 12q14 0 22.5 -9.5t8.5 -22.5q0 -17 -12 -28.5t-28 -11.5q-14 0 -22.5 9.5t-8.5 22.5z
" />
    <glyph glyph-name="oslash" unicode="&#xf8;" horiz-adv-x="528" 
d="M450 423q60 -56 60 -157q0 -119 -70 -194.5t-176 -75.5q-63 0 -108 30l-40 -55h-32l52 71q-59 55 -59 156q0 118 70 194.5t177 76.5q61 0 106 -30l40 54h32zM114 201q0 -82 44 -130l251 340q-37 27 -89 27q-89 0 -147.5 -67t-58.5 -170zM267 27q90 0 148 66t58 169
q0 84 -45 132l-251 -340q38 -27 90 -27z" />
    <glyph glyph-name="ugrave" unicode="&#xf9;" horiz-adv-x="530" 
d="M355 548l-31 -3l-62 140h48zM451 67q-5 -39 27 -39q7 0 15 2l-1 -30q-11 -4 -28 -4q-56 0 -48 62l7 60h-2q-24 -54 -73 -88t-111 -34q-77 0 -113.5 49t-25.5 132l36 288h36l-36 -288q-9 -69 20.5 -109.5t92.5 -40.5q48 0 90 28t64.5 65.5t29.5 76.5l34 268h37z" />
    <glyph glyph-name="uacute" unicode="&#xfa;" horiz-adv-x="530" 
d="M411 685l-95 -137l-33 -3l80 140h48zM451 67q-5 -39 27 -39q7 0 15 2l-1 -30q-11 -4 -28 -4q-56 0 -48 62l7 60h-2q-24 -54 -73 -88t-111 -34q-77 0 -113.5 49t-25.5 132l36 288h36l-36 -288q-9 -69 20.5 -109.5t92.5 -40.5q48 0 90 28t64.5 65.5t29.5 76.5l34 268h37z
" />
    <glyph glyph-name="ucircumflex" unicode="&#xfb;" horiz-adv-x="530" 
d="M338 653l-92 -106l-35 -2l108 139h43l77 -139l-36 2zM451 67q-5 -39 27 -39q7 0 15 2l-1 -30q-11 -4 -28 -4q-56 0 -48 62l7 60h-2q-24 -54 -73 -88t-111 -34q-77 0 -113.5 49t-25.5 132l36 288h36l-36 -288q-9 -69 20.5 -109.5t92.5 -40.5q48 0 90 28t64.5 65.5
t29.5 76.5l34 268h37z" />
    <glyph glyph-name="udieresis" unicode="&#xfc;" horiz-adv-x="530" 
d="M250 584q-12 0 -20 8.5t-8 20.5q0 15 11 26t25 11q12 0 20 -8.5t8 -20.5q0 -15 -11 -26t-25 -11zM415 584q-12 0 -20 8.5t-8 20.5q0 15 11.5 26t25.5 11q11 0 19.5 -8.5t8.5 -20.5q0 -15 -11.5 -26t-25.5 -11zM451 67q-5 -39 27 -39q7 0 15 2l-1 -30q-11 -4 -28 -4
q-56 0 -48 62l6 60h-1q-24 -53 -73 -87.5t-111 -34.5q-77 0 -113.5 49t-25.5 132l36 288h36l-36 -288q-9 -69 20.5 -109.5t92.5 -40.5q48 0 90 28t64.5 65.5t29.5 76.5l34 268h37z" />
    <glyph glyph-name="yacute" unicode="&#xfd;" horiz-adv-x="523" 
d="M406 685l-95 -137l-33 -3l80 140h48zM465 465h36l-62 -483q-11 -90 -67.5 -140t-153.5 -50q-87 0 -155 45l21 30q20 -17 56 -30.5t83 -13.5q162 0 183 159l18 138h-1q-24 -55 -72.5 -89.5t-113.5 -34.5q-77 0 -113.5 49t-25.5 132l36 288h36l-36 -288q-9 -69 20.5 -109.5
t92.5 -40.5q48 0 89.5 27.5t64.5 65.5t30 76z" />
    <glyph glyph-name="thorn" unicode="&#xfe;" horiz-adv-x="576" 
d="M351 469q81 0 129 -55t48 -146q0 -120 -67.5 -196.5t-170.5 -76.5q-64 0 -106 34.5t-53 88.5l-40 -322h-36l115 900h34l-44 -351q24 55 73.5 89.5t117.5 34.5zM292 27q86 0 142.5 66.5t56.5 170.5q0 79 -39.5 126.5t-108.5 47.5q-77 0 -129.5 -53t-63.5 -117l-9 -71
q-2 -41 12 -78t50 -64.5t89 -27.5z" />
    <glyph glyph-name="ydieresis" unicode="&#xff;" horiz-adv-x="523" 
d="M245 584q-12 0 -20 8.5t-8 20.5q0 15 11 26t25 11q12 0 20 -8.5t8 -20.5q0 -15 -11 -26t-25 -11zM410 584q-12 0 -20 8.5t-8 20.5q0 15 11.5 26t25.5 11q11 0 19.5 -8.5t8.5 -20.5q0 -15 -11.5 -26t-25.5 -11zM465 465h36l-62 -483q-11 -90 -67.5 -140t-153.5 -50
q-87 0 -155 45l21 31q20 -18 56 -31.5t83 -13.5q162 0 183 159l18 138h-1q-24 -55 -73 -89.5t-113 -34.5q-77 0 -113.5 49t-25.5 132l36 288h36l-36 -288q-9 -69 20.5 -109.5t92.5 -40.5q48 0 89.5 27.5t64.5 65.5t30 76z" />
    <glyph glyph-name="Amacron" unicode="&#x100;" horiz-adv-x="568" 
d="M503 739l-4 -30h-240l3 30h241zM503 0l-45 191h-300l-93 -191h-39l320 653h40l156 -653h-39zM174 223h277l-83 354q-4 17 -7 33h-2q-3 -11 -13 -33z" />
    <glyph glyph-name="amacron" unicode="&#x101;" horiz-adv-x="554" 
d="M483 632l-3 -30h-239l3 30h239zM474 67q-5 -39 27 -39q8 0 16 2l-1 -30q-12 -4 -28 -4q-27 0 -40.5 15t-9.5 47l9 61h-2q-23 -54 -74 -89t-116 -35q-82 0 -130 55t-48 147q0 119 68 195.5t171 76.5q35 0 63.5 -10t48.5 -28t32 -41.5t16 -51.5q12 79 23 127h26zM263 27
q74 0 126.5 52t64.5 114l10 71l-1 -1q4 28 -3 58t-24 56.5t-49 43.5t-73 17q-57 0 -102.5 -30t-71.5 -84.5t-26 -122.5q0 -80 40 -127t109 -47z" />
    <glyph glyph-name="Abreve" unicode="&#x102;" horiz-adv-x="568" 
d="M371 681q-48 0 -72 30.5t-18 80.5h30q-5 -38 12.5 -61t51 -22t56 23t27.5 60h30q-6 -50 -38 -80.5t-79 -30.5zM503 0l-45 191h-300l-93 -191h-39l320 653h40l156 -653h-39zM174 223h277l-83 354q-4 17 -7 33h-2q-3 -11 -13 -33z" />
    <glyph glyph-name="abreve" unicode="&#x103;" horiz-adv-x="554" 
d="M350 544q-35 0 -58.5 15.5t-33.5 45t-5 69.5h32q-6 -49 12.5 -75t55.5 -27q14 0 27 4.5t24.5 13t20 20.5t14 28.5t8.5 35.5h31q-7 -61 -41.5 -95.5t-86.5 -34.5zM474 67q-5 -39 27 -39q8 0 16 2l-1 -30q-12 -4 -28 -4q-27 0 -40.5 15t-9.5 47l9 61h-2q-23 -54 -74 -89
t-116 -35q-82 0 -130 55t-48 147q0 119 68 195.5t171 76.5q68 0 110 -37t50 -94q12 79 23 127h26zM263 27q74 0 126.5 52t64.5 114l10 71l-1 -1q4 28 -3 58t-24 56.5t-49 43.5t-73 17q-57 0 -102.5 -30t-71.5 -84.5t-26 -122.5q0 -80 40 -127t109 -47z" />
    <glyph glyph-name="Aogonek" unicode="&#x104;" horiz-adv-x="568" 
d="M535 -135l10 -23q-24 -25 -65 -25q-31 0 -50 19t-19 49q0 78 91 120l-44 186h-300l-93 -191h-39l320 653h40l156 -653q-4 -1 -11 -4t-24 -12.5t-30 -21t-23.5 -31t-10.5 -41.5q0 -14 5.5 -24t15.5 -15.5t23 -5.5q12 0 24 5t18 10zM174 223h277l-83 354q-4 17 -7 33h-2
q-3 -11 -13 -33z" />
    <glyph glyph-name="aogonek" unicode="&#x105;" horiz-adv-x="554" 
d="M461 -155q7 0 15 2t13.5 5t10 5.5t7.5 4.5l2 2l10 -22q-24 -25 -65 -25q-31 0 -50 18.5t-19 48.5q0 73 80 115q-33 12 -27 59l9 61h-2q-24 -54 -74.5 -88.5t-115.5 -34.5q-54 0 -94.5 24.5t-62 70.5t-21.5 106q0 119 67.5 195.5t171.5 76.5q68 0 110 -37t50 -94
q12 79 23 127h26l-51 -398q-5 -39 27 -39q8 0 16 2l-1 -30v-1q-3 0 -7 -1.5t-14 -6.5t-19.5 -11t-20.5 -15.5t-19 -20t-13.5 -25t-5.5 -29.5q0 -21 12 -33t32 -12zM263 27q74 0 126 52t65 114l10 71l-1 -1q4 28 -3 58t-24 56.5t-49 43.5t-73 17q-57 0 -102.5 -30
t-71.5 -84.5t-26 -122.5q0 -80 40 -127t109 -47z" />
    <glyph glyph-name="Cacute" unicode="&#x106;" horiz-adv-x="602" 
d="M429 685l-32 -3l77 117h50zM415 659q49 0 86.5 -15.5t59 -37.5t35 -50t17.5 -51t3 -43l-38 -7q1 14 -1.5 33t-13 44t-28 45t-50 34.5t-75.5 14.5q-117 0 -197.5 -96t-80.5 -252q0 -118 58.5 -184t155.5 -66q38 0 73.5 11t61.5 29t42.5 33t28.5 30l22 -23
q-13 -16 -30 -31.5t-46.5 -36t-70 -33t-85.5 -12.5q-115 0 -181 74t-66 204q0 70 16 131t45 107.5t69 79.5t88.5 50.5t101.5 17.5z" />
    <glyph glyph-name="cacute" unicode="&#x107;" horiz-adv-x="481" 
d="M320 548l-33 -3l80 140h49zM321 469q70 0 111 -38.5t41 -98.5q0 -12 -1.5 -23.5t-3.5 -17.5l-2 -6l-34 -3q6 16 6 41q0 51 -32.5 83t-89.5 32q-86 0 -144 -67.5t-58 -170.5q0 -79 41.5 -126t116.5 -47q86 0 146 59l19 -23q-66 -68 -169 -68q-90 0 -140.5 55t-50.5 147
q0 118 69.5 195t174.5 77z" />
    <glyph glyph-name="Ccircumflex" unicode="&#x108;" horiz-adv-x="602" 
d="M457 801l76 -119l-36 2l-68 84l-88 -84l-36 -2l107 119h45zM415 659q49 0 86.5 -15.5t59 -37.5t35 -50t17.5 -51t3 -43l-38 -7q1 14 -1.5 33t-13 44t-28 45t-50 34.5t-75.5 14.5q-117 0 -197.5 -96t-80.5 -252q0 -118 58.5 -184t155.5 -66q38 0 73.5 11t61.5 29t42.5 33
t28.5 30l22 -23q-13 -16 -30 -31.5t-46.5 -36t-70 -33t-85.5 -12.5q-115 0 -181 74t-66 204q0 70 16 131t45 107.5t69 79.5t88.5 50.5t101.5 17.5z" />
    <glyph glyph-name="ccircumflex" unicode="&#x109;" horiz-adv-x="481" 
d="M215 545l109 139h43l76 -139l-35 2l-66 106l-91 -106zM321 469q70 0 111 -38.5t41 -98.5q0 -12 -1.5 -23.5t-3.5 -17.5l-2 -6l-34 -3q6 16 6 41q0 51 -32.5 83t-89.5 32q-86 0 -144 -67.5t-58 -170.5q0 -79 41.5 -126t116.5 -47q86 0 146 59l19 -23q-66 -68 -169 -68
q-90 0 -140.5 55t-50.5 147q0 118 69.5 195t174.5 77z" />
    <glyph glyph-name="Cdotaccent" unicode="&#x10a;" horiz-adv-x="602" 
d="M420 702q-12 0 -21 9t-9 23q0 15 12 26t27 11q13 0 21.5 -9t8.5 -22q0 -15 -11.5 -26.5t-27.5 -11.5zM415 659q49 0 86.5 -15.5t59 -37.5t35 -50t17.5 -51t3 -43l-38 -7q1 14 -1.5 33t-13 44t-28 45t-50 34.5t-75.5 14.5q-117 0 -197.5 -96t-80.5 -252q0 -118 58.5 -184
t155.5 -66q38 0 73.5 11t61.5 29t42.5 33t28.5 30l22 -23q-8 -10 -17.5 -19.5t-25.5 -23.5t-35 -25.5t-42 -22t-52.5 -16.5t-59.5 -6q-115 0 -181 74t-66 204q0 70 16 131t45 107.5t69 79.5t88.5 50.5t101.5 17.5z" />
    <glyph glyph-name="cdotaccent" unicode="&#x10b;" horiz-adv-x="481" 
d="M375 622q0 -10 -5.5 -19t-14.5 -14t-20 -5q-12 0 -21 9t-9 22q0 15 12 26.5t27 11.5q13 0 22 -9t9 -22zM321 469q70 0 111 -38.5t41 -99.5q0 -11 -1.5 -22.5t-3.5 -17.5l-2 -6l-34 -3q6 16 6 41q0 51 -32.5 83t-89.5 32q-86 0 -144 -67.5t-58 -170.5q0 -79 41.5 -126
t116.5 -47q86 0 146 59l19 -23q-66 -68 -169 -68q-90 0 -140.5 55t-50.5 147q0 118 69.5 195t174.5 77z" />
    <glyph glyph-name="Ccaron" unicode="&#x10c;" horiz-adv-x="602" 
d="M321 805l35 -1l68 -85l88 85l37 1l-107 -119h-44zM415 659q49 0 86.5 -15.5t59 -37.5t35 -50t17.5 -51t3 -43l-38 -7q1 14 -1.5 33t-13 44t-28 45t-50 34.5t-75.5 14.5q-117 0 -197.5 -96t-80.5 -252q0 -118 58.5 -184t155.5 -66q38 0 73.5 11t61.5 29t42.5 33t28.5 30
l22 -23q-10 -12 -22 -24t-34 -29t-46.5 -29.5t-59 -21t-70.5 -8.5q-115 0 -181 73.5t-66 203.5q0 70 16 131t45 107.5t69 79.5t88.5 50.5t101.5 17.5z" />
    <glyph glyph-name="ccaron" unicode="&#x10d;" horiz-adv-x="481" 
d="M234 684l35 -1l66 -106l92 106l35 1l-109 -139h-43zM321 469q70 0 111 -38.5t41 -98.5q0 -12 -1.5 -23.5t-3.5 -17.5l-2 -6l-34 -3q6 16 6 41q0 51 -32.5 83t-89.5 32q-86 0 -144 -67.5t-58 -170.5q0 -79 41.5 -126t116.5 -47q86 0 146 59l19 -23q-66 -68 -169 -68
q-90 0 -140.5 55t-50.5 147q0 118 69.5 195t174.5 77z" />
    <glyph glyph-name="Dcaron" unicode="&#x10e;" horiz-adv-x="619" 
d="M387 683h-44l-77 119l35 -2l67 -85l89 85l37 2zM331 653q129 0 202.5 -73.5t73.5 -203.5q0 -171 -87.5 -273.5t-234.5 -102.5h-190l84 653h152zM288 33q128 0 204.5 93t76.5 246q0 118 -64 183t-178 65h-115l-75 -587h151z" />
    <glyph glyph-name="dcaron" unicode="&#x10f;" horiz-adv-x="557" 
d="M653 716q14 0 22.5 -9t8.5 -24q0 -16 -3.5 -31.5t-9.5 -26.5t-13.5 -21t-14.5 -17t-13 -12t-10 -7l-4 -2l-14 24q1 1 4 2.5t10.5 7.5t13.5 12.5t11.5 17t6.5 20.5q-15 0 -23.5 8.5t-8.5 21.5q0 15 11 25.5t26 10.5zM555 702l-81 -635q-5 -39 27 -39q8 0 16 2l-1 -30
q-12 -4 -28 -4q-56 0 -49 62l8 61h-2q-12 -26 -30 -48t-42 -39t-54.5 -26.5t-64.5 -9.5q-81 0 -128.5 55t-47.5 147q0 119 67.5 195.5t170.5 76.5q63 0 104.5 -32.5t54.5 -84.5l44 349h36zM263 28q41 0 77 16.5t59.5 43t38 56.5t18.5 58l8 65q4 39 -9.5 77t-50.5 66t-90 28
q-57 0 -102.5 -30t-71.5 -84t-26 -123q0 -79 40 -126t109 -47z" />
    <glyph glyph-name="Dcroat" unicode="&#x110;" horiz-adv-x="619" 
d="M331 653q129 0 202.5 -73.5t73.5 -203.5q0 -171 -87.5 -273.5t-234.5 -102.5h-190l40 311h-75l4 31h75l40 311h152zM288 33q128 0 204.5 93t76.5 246q0 118 -64 183t-178 65h-115l-36 -278h183l-4 -31h-183l-35 -278h151z" />
    <glyph glyph-name="dcroat" unicode="&#x111;" horiz-adv-x="554" 
d="M538 568l-64 -501q-5 -39 27 -39q8 0 16 2l-1 -30q-12 -4 -28 -4q-56 0 -49 62l8 61h-2q-12 -26 -30 -48t-42 -39t-54.5 -26.5t-64.5 -9.5q-81 0 -128.5 55t-47.5 147q0 119 67.5 195.5t170.5 76.5q63 0 104.5 -32.5t54.5 -84.5l27 215h-135l3 29h136l13 105h36l-13 -105
h58l-4 -29h-58zM263 28q41 0 77 16.5t59.5 43t38 56.5t18.5 58l8 65q4 39 -9.5 77t-50.5 66t-90 28q-57 0 -102.5 -30t-71.5 -84t-26 -123q0 -79 40 -126t109 -47z" />
    <glyph glyph-name="Emacron" unicode="&#x112;" horiz-adv-x="515" 
d="M507 739l-3 -30h-240l3 30h240zM543 620h-331l-34 -263h301l-4 -33h-301l-37 -291h331l-5 -33h-368l84 653h368z" />
    <glyph glyph-name="Ebreve" unicode="&#x114;" horiz-adv-x="515" 
d="M376 681q-48 0 -72.5 30.5t-18.5 80.5h31q-6 -38 11.5 -61t51 -22t56.5 23t28 60h30q-6 -50 -38 -80.5t-79 -30.5zM543 620h-331l-34 -263h301l-4 -33h-301l-37 -291h331l-5 -33h-368l84 653h368z" />
    <glyph glyph-name="ebreve" unicode="&#x115;" horiz-adv-x="486" 
d="M324 544q-53 0 -79 34.5t-18 95.5h32q-6 -49 12.5 -75t55.5 -27q37 1 62.5 27.5t31.5 74.5h31q-7 -61 -41.5 -95.5t-86.5 -34.5zM314 469q73 0 116 -47.5t43 -127.5q0 -16 -2 -32t-4 -24l-3 -8h-349q-1 -14 -1 -29q0 -80 42 -127t116 -47q86 0 143 59l20 -21
q-64 -70 -169 -70q-88 0 -138.5 55t-50.5 146q0 121 69 197t168 76zM311 438q-69 0 -122.5 -49t-69.5 -130h316q3 13 3 36q0 67 -34 105t-93 38z" />
    <glyph glyph-name="Edotaccent" unicode="&#x116;" horiz-adv-x="515" 
d="M377 702q-12 0 -21 9t-9 23q0 15 12 26t27 11q13 0 21.5 -9t8.5 -22q0 -15 -11.5 -26.5t-27.5 -11.5zM543 620h-331l-34 -263h301l-4 -33h-301l-37 -291h331l-5 -33h-368l84 653h368z" />
    <glyph glyph-name="edotaccent" unicode="&#x117;" horiz-adv-x="486" 
d="M328 584q-12 0 -21 9t-9 22q0 10 6 19t15 14t18 5q13 0 22 -9t9 -22q0 -16 -12 -27t-28 -11zM314 469q73 0 116 -47.5t43 -127.5q0 -16 -2 -32t-4 -24l-3 -8h-349q-1 -15 -1 -29q0 -80 42 -127t116 -47q86 0 143 59l20 -21q-64 -70 -169 -70q-88 0 -138.5 55t-50.5 146
q0 121 69 197t168 76zM311 438q-45 0 -85 -21.5t-68.5 -62.5t-38.5 -95h316q3 13 3 36q0 67 -34 105t-93 38z" />
    <glyph glyph-name="Eogonek" unicode="&#x118;" horiz-adv-x="515" 
d="M543 620h-331l-34 -263h301l-4 -33h-301l-37 -291h331l-5 -33q-4 -1 -10.5 -4t-23.5 -12.5t-30 -21t-23.5 -31t-10.5 -41.5q0 -21 11.5 -33t32.5 -12q11 0 23 5t19 10l6 5l10 -23q-25 -25 -65 -25q-31 0 -50 19t-19 49q0 72 80 115h-318l84 653h368z" />
    <glyph glyph-name="eogonek" unicode="&#x119;" horiz-adv-x="486" 
d="M314 469q48 0 84 -21.5t55.5 -61t19.5 -92.5q0 -16 -2 -32t-4 -24l-3 -8h-349q-1 -14 -1 -29q0 -80 42 -127t116 -47q86 0 143 59l20 -21q-19 -20 -41 -34t-46 -23q-68 -37 -68 -95q0 -14 5.5 -24t15.5 -15.5t23 -5.5q8 0 15.5 2t13 5t10.5 6t7 5l3 2l9 -23
q-24 -25 -65 -25q-31 0 -49.5 18.5t-18.5 49.5q0 51 42 89q-13 -2 -25 -2q-88 0 -138.5 55t-50.5 146q0 121 69 197t168 76zM311 438q-69 0 -122.5 -49t-69.5 -130h316q3 13 3 36q0 67 -34 105t-93 38z" />
    <glyph glyph-name="Ecaron" unicode="&#x11a;" horiz-adv-x="515" 
d="M399 686h-44l-77 119l35 -1l68 -85l88 85l37 1zM543 620h-331l-34 -263h301l-4 -33h-301l-37 -291h331l-5 -33h-368l84 653h368z" />
    <glyph glyph-name="ecaron" unicode="&#x11b;" horiz-adv-x="486" 
d="M346 545h-43l-76 139l35 -1l66 -106l92 106l35 1zM314 469q73 0 116 -47.5t43 -127.5q0 -16 -2 -32t-4 -24l-3 -8h-349q-1 -14 -1 -29q0 -80 42 -127t116 -47q86 0 143 59l20 -21q-64 -70 -169 -70q-88 0 -138.5 55t-50.5 146q0 121 69 197t168 76zM311 438
q-69 0 -122.5 -49t-69.5 -130h316q3 13 3 36q0 67 -34 105t-93 38z" />
    <glyph glyph-name="Gcircumflex" unicode="&#x11c;" horiz-adv-x="620" 
d="M424 768l-88 -84l-36 -2l107 119h45l76 -119l-36 2zM613 465l-37 -7q1 11 -0.5 26t-7 34.5t-18.5 38t-31 34t-47.5 25.5t-65.5 10q-116 0 -195 -98t-79 -252q0 -113 52.5 -180.5t144.5 -67.5q39 0 73 11.5t58 29t42 40t28 44.5t14 43l10 75h-237l4 33h269l-38 -304h-24
q0 52 6 113q-29 -53 -83.5 -85t-128.5 -32q-106 0 -166.5 75t-60.5 201q0 112 41.5 200.5t113 137.5t160.5 49q50 0 88.5 -15t59.5 -37t34.5 -49.5t17.5 -50t3 -42.5z" />
    <glyph glyph-name="gcircumflex" unicode="&#x11d;" horiz-adv-x="547" 
d="M356 653l-92 -106l-35 -2l108 139h43l77 -139l-35 2zM499 465h26l-62 -482q-8 -60 -38.5 -103t-80 -65.5t-112.5 -22.5q-46 0 -87.5 12t-60.5 23t-30 21l21 30q19 -20 63.5 -37.5t98.5 -17.5q79 0 129.5 41.5t60.5 117.5l17 132q-26 -53 -76 -85.5t-113 -32.5
q-82 0 -130 54.5t-48 146.5q0 119 68 195.5t171 76.5q68 0 110 -37t50 -94q12 79 23 127zM263 27q51 0 94.5 28t67 66t29.5 76l10 76q2 39 -11.5 75t-50 63t-88.5 27q-57 0 -102.5 -30t-71.5 -84.5t-26 -122.5q0 -80 40 -127t109 -47z" />
    <glyph glyph-name="Gbreve" unicode="&#x11e;" horiz-adv-x="620" 
d="M414 681q-48 0 -72 30.5t-18 80.5h30q-5 -38 12.5 -61t51 -22t56 23t27.5 60h30q-6 -50 -38 -80.5t-79 -30.5zM613 465l-37 -7q1 13 -1.5 32t-13 43.5t-28 44.5t-51 34t-76.5 14q-76 0 -138.5 -43.5t-99 -124t-36.5 -182.5q0 -113 52.5 -180.5t144.5 -67.5q39 0 73 11.5
t58 29t42 40t28 44.5t14 43l10 75h-237l4 33h269l-38 -304h-24q0 52 6 113q-19 -34 -48 -60t-71.5 -42t-92.5 -16q-106 0 -166.5 75.5t-60.5 201.5q0 112 41.5 200.5t113 137.5t160.5 49q50 0 88.5 -15t59.5 -37t34.5 -49.5t17.5 -50t3 -42.5z" />
    <glyph glyph-name="gbreve" unicode="&#x11f;" horiz-adv-x="547" 
d="M345 544q-35 0 -58.5 15.5t-33.5 45t-5 69.5h32q-4 -32 3 -55t23.5 -34.5t41.5 -12.5q18 0 34 7t28 19.5t20.5 32t11.5 43.5h31q-7 -61 -41.5 -95.5t-86.5 -34.5zM499 465h26l-62 -482q-8 -60 -38.5 -103t-80 -66t-112.5 -23q-46 0 -87.5 12.5t-60.5 23.5t-30 21l21 30
q19 -20 63.5 -37.5t98.5 -17.5q79 0 129.5 41.5t60.5 117.5l17 132q-26 -53 -76 -86t-113 -33q-82 0 -130 55t-48 147q0 119 68 195.5t171 76.5q68 0 110 -37t50 -94q12 79 23 127zM263 27q51 0 94.5 28t67 66t29.5 76l10 76q2 39 -11.5 75t-50 63t-88.5 27
q-57 0 -102.5 -30t-71.5 -84.5t-26 -122.5q0 -80 40 -127t109 -47z" />
    <glyph glyph-name="Gdotaccent" unicode="&#x120;" horiz-adv-x="620" 
d="M415 702q-12 0 -21 9t-9 23q0 15 12 26t27 11q13 0 21.5 -9t8.5 -22q0 -15 -11.5 -26.5t-27.5 -11.5zM613 465l-37 -7q1 11 -0.5 26t-7 34.5t-18.5 38t-31 34t-47.5 25.5t-65.5 10q-116 0 -195 -98t-79 -252q0 -113 52.5 -180.5t144.5 -67.5q48 0 88.5 16.5t66 42.5
t40.5 54t20 55l10 75h-237l4 33h269l-38 -304h-24q0 52 6 113q-29 -53 -83.5 -85.5t-128.5 -32.5q-106 0 -166.5 75.5t-60.5 201.5q0 112 41.5 200.5t113 137.5t160.5 49q50 0 88.5 -15t59.5 -37t34.5 -49.5t17.5 -50t3 -42.5z" />
    <glyph glyph-name="gdotaccent" unicode="&#x121;" horiz-adv-x="547" 
d="M349 584q-12 0 -21 9t-9 22q0 15 12 26.5t27 11.5q13 0 21.5 -9t8.5 -22q0 -16 -11.5 -27t-27.5 -11zM499 465h26l-62 -482q-11 -90 -73 -141t-158 -51q-46 0 -87.5 12.5t-60.5 23.5t-30 21l21 30q19 -20 63.5 -37.5t98.5 -17.5q79 0 129.5 41.5t60.5 117.5l17 132
q-26 -53 -76 -86t-113 -33q-82 0 -130 55t-48 147q0 119 68 195.5t171 76.5q68 0 110 -37t50 -94q12 79 23 127zM263 27q51 0 94.5 28t67 66t29.5 76l10 76q2 39 -11.5 75t-50 63t-88.5 27q-57 0 -102.5 -30t-71.5 -84.5t-26 -122.5q0 -80 40 -127t109 -47z" />
    <glyph glyph-name="Gcommaaccent" unicode="&#x122;" horiz-adv-x="620" 
d="M613 465l-37 -7q1 13 -1.5 32t-13 43.5t-28 44.5t-51 34t-76.5 14q-76 0 -138.5 -43.5t-99 -124t-36.5 -182.5q0 -113 52.5 -180.5t144.5 -67.5q39 0 73 11.5t58 29t42 40t28 44.5t14 43l10 75h-237l4 33h269l-38 -304h-24q0 52 6 113q-29 -53 -83.5 -85.5t-128.5 -32.5
q-106 0 -166.5 75.5t-60.5 201.5q0 112 41.5 200.5t113 137.5t160.5 49q42 0 76 -10.5t55.5 -28t36.5 -37.5t22.5 -43t10.5 -41t2 -34zM316 -47q9 0 16 -4t11 -12t4 -19q0 -22 -7 -41t-17 -30.5t-20 -20t-17 -12.5l-7 -4l-13 24q5 2 12 6t19.5 18t14.5 29q-15 0 -24 8t-9 21
q0 10 5.5 18.5t14 13.5t17.5 5z" />
    <glyph glyph-name="gcommaaccent" unicode="&#x123;" horiz-adv-x="547" 
d="M341 512q-14 0 -22.5 9t-8.5 26q0 15 4 29.5t10 25t13 19.5t14 15t13 10t10 6l4 2l12 -23q-4 -2 -11 -6.5t-19.5 -18t-14.5 -28.5q10 0 17.5 -4t11.5 -10.5t4 -15.5q0 -15 -11.5 -25.5t-25.5 -10.5zM499 465h26l-62 -482q-11 -90 -73 -141t-158 -51q-46 0 -87.5 12.5
t-60.5 23.5t-30 21l21 30q19 -20 63.5 -37.5t98.5 -17.5q79 0 129.5 41.5t60.5 117.5l17 132q-26 -53 -76 -86t-113 -33q-82 0 -130 55t-48 147q0 119 68 195.5t171 76.5q68 0 110 -37t50 -94q12 79 23 127zM263 27q51 0 94.5 28t67 66t29.5 76l10 76q2 39 -11.5 75t-50 63
t-88.5 27q-57 0 -102.5 -30t-71.5 -84.5t-26 -122.5q0 -80 40 -127t109 -47z" />
    <glyph glyph-name="Hcircumflex" unicode="&#x124;" horiz-adv-x="668" 
d="M436 768l-88 -84l-36 -2l107 119h45l76 -119l-36 2zM619 653h37l-83 -653h-38l42 324h-403l-41 -324h-38l84 653h37l-38 -296h403z" />
    <glyph glyph-name="Hbar" unicode="&#x126;" horiz-adv-x="668" 
d="M688 561l-5 -31h-43l-67 -530h-38l42 324h-403l-41 -324h-38l68 530h-55l5 31h54l12 92h37l-12 -92h403l12 92h37l-12 -92h44zM581 357l22 173h-403l-22 -173h403z" />
    <glyph glyph-name="hbar" unicode="&#x127;" horiz-adv-x="544" 
d="M495 28q9 0 16 2l-1 -31q-13 -3 -30 -3q-26 0 -39 16t-9 48l28 225q8 68 -24 110.5t-96 42.5q-73 0 -125 -52t-64 -114l-34 -272h-36l72 568h-58l4 29h58l14 109h34l-14 -109h138l-4 -29h-137l-29 -224q17 35 43.5 62.5t65 45t81.5 17.5q78 0 117.5 -51t29.5 -133
l-27 -220q-5 -37 26 -37z" />
    <glyph glyph-name="Itilde" unicode="&#x128;" horiz-adv-x="228" 
d="M339 771l-1 -22q-3 -34 -22.5 -54t-50.5 -20q-23 0 -45.5 15.5t-42.5 31t-36 15.5q-18 0 -30 -13.5t-12 -39.5l1 -10h-32v12q0 39 21 60.5t55 21.5q23 0 46 -15.5t42 -31t34 -15.5q42 0 42 55l-1 10h32zM95 0l84 653h37l-83 -653h-38z" />
    <glyph glyph-name="itilde" unicode="&#x129;" horiz-adv-x="204" 
d="M309 662q0 -11 -1 -22q-3 -34 -22 -54t-51 -20q-22 0 -44.5 15.5t-42 31.5t-35.5 16q-12 0 -21.5 -5.5t-15.5 -18t-6 -31.5v-10h-31v12q0 38 20.5 61t54.5 23q23 0 46 -16t42 -31.5t34 -15.5q42 0 42 55v10h31zM177 466l-53 -404q-4 -34 24 -34q7 0 15 2l-1 -31
q-13 -4 -28 -4q-55 0 -46 61l53 409z" />
    <glyph glyph-name="Imacron" unicode="&#x12a;" horiz-adv-x="228" 
d="M90 709l4 30h240l-3 -30h-241zM95 0l84 653h37l-83 -653h-38z" />
    <glyph glyph-name="imacron" unicode="&#x12b;" horiz-adv-x="204" 
d="M60 602l4 30h239l-4 -30h-239zM177 466l-53 -404q-4 -34 24 -34q7 0 15 2l-1 -31q-13 -4 -28 -4q-55 0 -46 61l53 409z" />
    <glyph glyph-name="Ibreve" unicode="&#x12c;" horiz-adv-x="228" 
d="M320 792q-6 -50 -38 -80.5t-79 -30.5q-48 0 -72.5 30.5t-18.5 80.5h31q-6 -38 11.5 -61t51 -22t56 23t28.5 60h30zM95 0l84 653h37l-83 -653h-38z" />
    <glyph glyph-name="ibreve" unicode="&#x12d;" horiz-adv-x="204" 
d="M298 674q-8 -61 -42 -95.5t-87 -34.5q-52 0 -78 34.5t-19 95.5h32q-3 -24 0.5 -43.5t12.5 -32t23 -19.5t32 -7q38 1 63 27.5t31 74.5h32zM177 466l-53 -404q-4 -34 24 -34q7 0 15 2l-1 -31q-13 -4 -28 -4q-55 0 -46 61l53 409z" />
    <glyph glyph-name="Iogonek" unicode="&#x12e;" horiz-adv-x="228" 
d="M78 -155q5 0 11 1t10.5 3t8.5 4t7.5 4t6 4t3.5 3l1 1l10 -23q-24 -25 -65 -25q-31 0 -50 19t-19 49q0 79 94 122l83 646h37l-83 -653q-4 -1 -11 -4t-24 -12.5t-30 -21t-23.5 -31t-10.5 -41.5q0 -21 12 -33t32 -12z" />
    <glyph glyph-name="iogonek" unicode="&#x12f;" horiz-adv-x="204" 
d="M184 653q13 0 21.5 -9t8.5 -22q0 -8 -3 -15t-8.5 -12t-13 -8t-14.5 -3q-13 0 -21.5 9t-8.5 22q0 15 12 26.5t27 11.5zM177 466l-53 -404q-4 -34 24 -34q7 0 15 2l-1 -31q-4 -1 -10.5 -3.5t-23.5 -12.5t-30 -21.5t-24 -31t-11 -41.5q0 -20 12 -32t32 -12q12 0 24 4.5
t18 9.5l7 5l9 -23q-24 -25 -64 -25q-32 0 -50.5 19t-18.5 49q0 72 80 115q-31 12 -24 57l53 409z" />
    <glyph glyph-name="Idotaccent" unicode="&#x130;" horiz-adv-x="228" 
d="M204 702q-13 0 -21.5 9t-8.5 23q0 15 12 26t27 11q13 0 21.5 -9t8.5 -22q0 -15 -12 -26.5t-27 -11.5zM95 0l84 653h37l-83 -653h-38z" />
    <glyph glyph-name="IJ" unicode="&#x132;" horiz-adv-x="637" 
d="M95 0l84 653h37l-83 -653h-38zM276 85q46 -57 112 -57q124 0 142 138l63 487h37l-62 -483q-22 -174 -184 -174q-85 0 -135 60z" />
    <glyph glyph-name="ij" unicode="&#x133;" horiz-adv-x="390" 
d="M214 622q0 -16 -11.5 -27t-27.5 -11q-13 0 -21.5 9t-8.5 22q0 15 12 26.5t27 11.5q13 0 21.5 -9t8.5 -22zM402 621q0 -15 -12 -26t-28 -11q-12 0 -21 9t-9 22q0 15 12 26.5t28 11.5q13 0 21.5 -9.5t8.5 -22.5zM93 -156q22 -21 62 -21q49 0 75 28.5t34 92.5l67 521l36 1
l-66 -518q-10 -78 -46.5 -117t-101.5 -39q-23 0 -42 6t-26 12l-7 6zM177 466l-53 -404q-4 -34 24 -34q7 0 15 2l-1 -31q-13 -4 -28 -4q-55 0 -46 61l53 408z" />
    <glyph glyph-name="Jcircumflex" unicode="&#x134;" horiz-adv-x="409" 
d="M425 801l77 -119l-36 2l-68 84l-88 -84l-36 -2l106 119h45zM48 85q45 -57 112 -57q124 0 142 138l62 487h38l-62 -483q-22 -174 -184 -174q-85 0 -135 60z" />
    <glyph glyph-name="jcircumflex" unicode="&#x135;" horiz-adv-x="206" 
d="M62 563l110 139h45l73 -139l-35 1l-65 105l-91 -105zM-91 -156q23 -21 63 -21q48 0 74.5 28.5t34.5 92.5l66 521l36 1l-66 -518q-10 -78 -46 -117t-101 -39q-23 0 -42 6t-26 12l-7 6z" />
    <glyph glyph-name="Kcommaaccent" unicode="&#x136;" horiz-adv-x="604" 
d="M599 0q-2 0 -13 -0.5t-19 -0.5q-29 0 -52 17t-37.5 43.5t-27 58.5t-24.5 64.5t-27 59t-38 43t-53 16.5h-136l-39 -301h-38l84 653h38l-41 -319h134q24 0 50 8.5t56.5 31.5t56.5 57.5t47 92t31 129.5h38q-35 -267 -215 -335q28 -10 50.5 -43.5t37.5 -74t30 -79.5t37 -65
t50 -26h24zM275 -84q0 15 11.5 26t25.5 11q10 0 16.5 -4t10.5 -12t4 -19q0 -22 -7 -41t-17 -30.5t-20 -20t-17 -12.5l-7 -4l-12 24q4 2 11 6t19.5 18t14.5 29q-15 0 -24 8t-9 21z" />
    <glyph glyph-name="kcommaaccent" unicode="&#x137;" horiz-adv-x="514" 
d="M479 428q-8 -65 -41.5 -116t-88.5 -73l110 -239h-44l-103 228q-21 -5 -44 -5h-123l-29 -223h-35l90 706h35l-57 -452h118q72 0 122 49.5t55 131.5q0 4 0.5 9.5t0.5 10.5t1 10h35q0 -6 -0.5 -18t-1.5 -19zM242 -47q14 0 22 -9.5t8 -25.5t-3.5 -30.5t-9.5 -25t-13 -19.5
t-14.5 -14.5t-13.5 -10t-10 -6.5l-3 -2l-13 24q5 2 11.5 6t19 18t14.5 29q-14 0 -23 8t-9 21q0 6 2 12t5.5 10.5t8 7.5t10 5t11.5 2z" />
    <glyph glyph-name="kgreenlandic" unicode="&#x138;" horiz-adv-x="451" 
d="M483 465l-235 -231l194 -234h-46l-182 220h-69l-29 -220h-35l59 465h36l-27 -214h72l217 214h45z" />
    <glyph glyph-name="Lacute" unicode="&#x139;" horiz-adv-x="479" 
d="M311 799l-95 -114l-32 -3l77 117h50zM137 33h333l-3 -33h-372l84 653h37z" />
    <glyph glyph-name="lacute" unicode="&#x13a;" horiz-adv-x="201" 
d="M209 789l-33 -2l80 139h48zM82 0l90 706h36l-90 -706h-36z" />
    <glyph glyph-name="Lcommaaccent" unicode="&#x13b;" horiz-adv-x="479" 
d="M137 33h333l-3 -33h-372l84 653h37zM285.5 -47q9.5 0 16 -4t10.5 -12t4 -19q0 -22 -7 -41t-17 -30.5t-20 -20t-17 -12.5l-7 -4l-12 24q4 2 11 6t19.5 18t14.5 29q-15 0 -24 8t-9 21q0 10 5.5 18.5t14 13.5t18 5z" />
    <glyph glyph-name="lcommaaccent" unicode="&#x13c;" horiz-adv-x="201" 
d="M82 0l90 706h36l-90 -706h-36zM55 -84q0 15 11.5 26t25.5 11t22.5 -9.5t8.5 -25.5q0 -22 -7 -41t-17 -30.5t-20 -20t-17 -12.5l-7 -4l-12 24q1 0 4 1.5t10 7t13 11t11.5 14.5t6.5 19q-15 0 -24 8t-9 21z" />
    <glyph glyph-name="Lcaron" unicode="&#x13d;" horiz-adv-x="479" 
d="M396 570l5 2.5t10.5 7.5t13 12.5t11.5 17t7 20.5q-15 0 -24 8.5t-9 21.5q0 15 11.5 25.5t25.5 10.5t22.5 -9t8.5 -24q0 -22 -6.5 -42.5t-16.5 -33.5t-20 -22.5t-17 -14.5l-7 -4zM216 653l-79 -620h333l-3 -33h-372l84 653h37z" />
    <glyph glyph-name="lcaron" unicode="&#x13e;" horiz-adv-x="211" 
d="M268 680q0 15 11.5 25.5t26 10.5t23 -9t8.5 -24q0 -22 -7 -42.5t-17 -33.5t-20 -22.5t-17 -14.5l-7 -4l-14 24q4 2 11 7t20 20.5t15 32.5q-15 0 -24 8.5t-9 21.5zM82 0l90 706h36l-90 -706h-36z" />
    <glyph glyph-name="Ldot" unicode="&#x13f;" horiz-adv-x="479" 
d="M137 33h333l-3 -33h-372l84 653h37zM336 256q-13 0 -21.5 9t-8.5 22q0 15 12 26.5t27 11.5q8 0 15 -4t10.5 -11.5t3.5 -15.5q0 -15 -11.5 -26.5t-26.5 -11.5z" />
    <glyph glyph-name="ldot" unicode="&#x140;" horiz-adv-x="236" 
d="M82 0l90 706h36l-90 -706h-36zM297 353q0 -15 -11.5 -26t-27.5 -11q-12 0 -21 9t-9 22q0 15 12 26.5t27 11.5q13 0 21.5 -9.5t8.5 -22.5z" />
    <glyph glyph-name="Lslash" unicode="&#x141;" horiz-adv-x="479" 
d="M137 33h333l-3 -33h-372l35 272l-93 -53l-11 25l108 62l45 347h37l-42 -325l163 93l12 -25l-179 -102z" />
    <glyph glyph-name="lslash" unicode="&#x142;" horiz-adv-x="249" 
d="M275 404l-86 -48l-45 -356h-36l42 334l-67 -38l-11 26l83 46l43 338h36l-41 -316l70 39z" />
    <glyph glyph-name="Nacute" unicode="&#x143;" horiz-adv-x="654" 
d="M426 685l-33 -3l77 117h51zM641 653l-83 -653h-48l-266 532q-16 33 -34 74l-3 -1q2 -11 -4 -63l-70 -542h-38l84 653h45l267 -535l35 -74l3 1q0 17 6 65l69 543h37z" />
    <glyph glyph-name="nacute" unicode="&#x144;" horiz-adv-x="544" 
d="M427 685l-95 -137l-33 -3l80 140h48zM494 28q9 0 17 2l-1 -31q-13 -4 -30 -4q-27 0 -39.5 16.5t-8.5 48.5l28 224q8 69 -24.5 111.5t-95.5 42.5q-26 0 -50.5 -7.5t-44 -20.5t-36 -29.5t-28 -35.5t-19.5 -38.5t-11 -38.5l-35 -268h-35l59 465l26 1q-2 -59 -11 -128h1
q16 36 43.5 65t66.5 47.5t83 18.5q78 0 117.5 -51t29.5 -133l-28 -220q-5 -37 26 -37z" />
    <glyph glyph-name="Ncommaaccent" unicode="&#x145;" horiz-adv-x="654" 
d="M641 653l-83 -653h-48l-266 532q-16 33 -34 74l-3 -1q2 -11 -4 -63l-70 -542h-38l84 653h45l267 -535l35 -74l3 1q0 17 6 65l69 543h37zM284 -84q0 15 11 26t26 11q9 0 16 -4t10.5 -12t3.5 -19q0 -22 -7 -41t-16.5 -30.5t-19.5 -20t-17 -12.5l-7 -4l-13 24q5 2 11.5 6
t19 18t14.5 29q-14 0 -23 8t-9 21z" />
    <glyph glyph-name="Ncaron" unicode="&#x147;" horiz-adv-x="654" 
d="M318 805l35 -1l67 -85l88 85l38 1l-107 -119h-45zM641 653l-83 -653h-48l-266 532q-16 33 -34 74l-3 -1q2 -11 -4 -63l-70 -542h-38l84 653h45l267 -535l35 -74l3 1q0 17 6 65l69 543h37z" />
    <glyph glyph-name="ncaron" unicode="&#x148;" horiz-adv-x="544" 
d="M364 545h-42l-76 139l35 -1l65 -106l92 106l36 1zM494 28q9 0 17 2l-1 -31q-13 -4 -30 -4q-27 0 -39.5 16.5t-8.5 48.5l28 224q8 69 -24.5 111.5t-95.5 42.5q-51 0 -93.5 -28t-65.5 -65.5t-30 -76.5l-35 -268h-35l59 465l26 1q-2 -59 -11 -128h1q24 56 76 93.5t117 37.5
q78 0 117.5 -51t29.5 -133l-28 -220q-5 -37 26 -37z" />
    <glyph glyph-name="Eng" unicode="&#x14a;" horiz-adv-x="688" 
d="M604 653h37l-93 -729q-4 -35 -16 -63t-31 -47.5t-45 -30t-57 -10.5q-15 0 -28 2.5t-23 7t-18.5 9.5t-14 10.5l-9.5 9.5t-6 7l-2 3l26 27q4 -5 10 -12t26 -19t43 -12q44 0 72 29.5t35 86.5l10 78h-10l-266 532q-16 33 -34 74l-3 -1q2 -11 -4 -63l-70 -542h-38l84 653h45
l267 -535l35 -74l3 1q0 17 6 65z" />
    <glyph glyph-name="eng" unicode="&#x14b;" horiz-adv-x="556" 
d="M349 469q78 0 117.5 -51t29.5 -134l-43 -336q-19 -156 -149 -156q-22 0 -41 6t-26 12l-7 6l14 28q23 -21 63 -21q48 0 74.5 29t34.5 92l44 340q8 69 -24.5 111.5t-95.5 42.5q-51 0 -94.5 -28.5t-67 -67.5t-28.5 -78l-34 -264h-35l59 465l26 1q-2 -59 -11 -128h1
q24 57 75.5 94t117.5 37z" />
    <glyph glyph-name="Omacron" unicode="&#x14c;" horiz-adv-x="674" 
d="M313 709l3 30h241l-4 -30h-240zM421 659q110 0 176 -75t66 -205q0 -87 -25.5 -160t-70 -121.5t-104 -75.5t-126.5 -27q-109 0 -175.5 75t-66.5 205q0 87 25.5 160t70 121.5t104 75.5t126.5 27zM341 28q119 0 201.5 96t82.5 250q0 77 -26 134t-73.5 87.5t-109.5 30.5
q-119 0 -201.5 -96t-82.5 -250q0 -116 57.5 -184t151.5 -68z" />
    <glyph glyph-name="omacron" unicode="&#x14d;" horiz-adv-x="528" 
d="M225 602l3 30h239l-3 -30h-239zM324 469q85 0 135.5 -55.5t50.5 -147.5q0 -119 -70 -195t-176 -76q-86 0 -136.5 55.5t-50.5 147.5q0 118 70 194.5t177 76.5zM267 27q90 0 148 66t58 169q0 80 -41 128t-112 48q-89 0 -147.5 -67t-58.5 -170q0 -79 41 -126.5t112 -47.5z
" />
    <glyph glyph-name="Obreve" unicode="&#x14e;" horiz-adv-x="674" 
d="M542 792q-6 -50 -38 -80.5t-79 -30.5q-48 0 -72 30.5t-18 80.5h30q-5 -38 12.5 -61t51 -22t56 23t27.5 60h30zM421 659q110 0 176 -75t66 -205q0 -87 -25.5 -160t-70 -121.5t-104 -75.5t-126.5 -27q-109 0 -175.5 75t-66.5 205q0 87 25.5 160t70 121.5t104 75.5t126.5 27
zM341 28q119 0 201.5 96t82.5 250q0 77 -26 134t-73.5 87.5t-109.5 30.5q-57 0 -109 -25t-90.5 -69t-61.5 -109.5t-23 -142.5q0 -116 57.5 -184t151.5 -68z" />
    <glyph glyph-name="obreve" unicode="&#x14f;" horiz-adv-x="528" 
d="M462 674q-7 -61 -41.5 -95.5t-86.5 -34.5q-53 0 -79 34.5t-18 95.5h32q-6 -49 12.5 -75t55.5 -27q37 1 62.5 27.5t31.5 74.5h31zM324 469q85 0 135.5 -55.5t50.5 -147.5q0 -119 -70 -195t-176 -76q-86 0 -136.5 55.5t-50.5 147.5q0 118 70 194.5t177 76.5zM267 27
q90 0 148 66t58 169q0 80 -41 128t-112 48q-89 0 -147.5 -67t-58.5 -170q0 -79 41 -126.5t112 -47.5z" />
    <glyph glyph-name="Ohungarumlaut" unicode="&#x150;" horiz-adv-x="674" 
d="M363 685l-33 -3l78 117h50zM494 685l-33 -3l78 117h49zM421 659q110 0 176 -75t66 -205q0 -87 -25.5 -160t-70 -121.5t-104 -75.5t-126.5 -27q-109 0 -175.5 75t-66.5 205q0 87 25.5 160t70 121.5t104 75.5t126.5 27zM341 28q119 0 201.5 96t82.5 250q0 77 -26 134
t-73.5 87.5t-109.5 30.5q-57 0 -109 -25t-90.5 -69t-61.5 -109.5t-23 -142.5q0 -116 57.5 -184t151.5 -68z" />
    <glyph glyph-name="ohungarumlaut" unicode="&#x151;" horiz-adv-x="528" 
d="M289 548l-31 -3l80 140h48zM409 548l-30 -3l79 140h48zM324 469q85 0 135.5 -55.5t50.5 -147.5q0 -119 -70 -195t-176 -76q-86 0 -136.5 55.5t-50.5 147.5q0 118 70 194.5t177 76.5zM267 27q90 0 148 66t58 169q0 80 -41 128t-112 48q-89 0 -147.5 -67t-58.5 -170
q0 -79 41 -126.5t112 -47.5z" />
    <glyph glyph-name="OE" unicode="&#x152;" horiz-adv-x="1005" 
d="M1033 620h-330l-34 -263h301l-4 -33h-301l-38 -291h331l-4 -33h-368l19 150q-44 -74 -114.5 -114t-153.5 -40q-109 0 -175.5 75t-66.5 204q0 87 25.5 160t70 121.5t104 75.5t126.5 27q84 0 143.5 -45t83.5 -127l21 166h368zM341 28q119 0 201.5 96t82.5 250q0 77 -26 134
t-73.5 87.5t-109.5 30.5q-57 0 -109 -25t-90.5 -69t-61.5 -109.5t-23 -142.5q0 -116 57.5 -184t151.5 -68z" />
    <glyph glyph-name="oe" unicode="&#x153;" horiz-adv-x="879" 
d="M708 469q73 0 116 -47.5t43 -127.5q0 -16 -2.5 -32t-4.5 -24l-2 -8h-349q-1 -14 -1 -29q0 -53 18 -92t54 -60.5t85 -21.5q87 0 143 59l20 -21q-64 -70 -168 -70q-70 0 -117 35.5t-64 97.5q-31 -62 -87.5 -97.5t-127.5 -35.5q-86 0 -136 55.5t-50 147.5q0 118 69.5 194.5
t176.5 76.5q67 0 113.5 -35.5t63.5 -98.5q31 63 86 98.5t121 35.5zM267 27q90 0 148 66t58 169q0 80 -41 128t-112 48q-89 0 -147.5 -67t-58.5 -170q0 -79 41 -126.5t112 -47.5zM705 438q-70 0 -123.5 -49t-68.5 -130h316q2 13 2 36q0 67 -34 105t-92 38z" />
    <glyph glyph-name="Racute" unicode="&#x154;" horiz-adv-x="562" 
d="M458 799l-95 -114l-33 -3l78 117h50zM536 27l12 2v-32q-11 -2 -25 -2q-25 0 -44.5 12t-31 30.5t-22 43t-18 49.5t-19.5 49t-26.5 43t-39 30.5t-56.5 11.5h-100l-33 -264h-38l84 653h178q87 0 136 -45t49 -125q0 -88 -51.5 -143t-138.5 -70q24 -7 43 -28t29.5 -47.5
t22.5 -56t22 -54t27 -41t40 -16.5zM171 296h131q87 0 145 49t58 133q0 65 -41.5 103.5t-112.5 38.5h-139z" />
    <glyph glyph-name="racute" unicode="&#x155;" horiz-adv-x="301" 
d="M323 685l-96 -137l-33 -3l80 140h49zM303 469q24 0 44 -6l-13 -35q-13 7 -37 7q-37 0 -70.5 -30t-52 -68t-24.5 -73l-34 -264h-35l59 465l26 1q-2 -59 -11 -128h1q21 55 59.5 93t87.5 38z" />
    <glyph glyph-name="Rcommaaccent" unicode="&#x156;" horiz-adv-x="562" 
d="M536 27l12 2v-32q-11 -2 -25 -2q-25 0 -44.5 12t-31 30.5t-22 43t-18 49.5t-19.5 49.5t-26.5 43t-39 30t-56.5 11.5h-100l-33 -264h-38l84 653h178q87 0 136 -45t49 -125q0 -88 -51.5 -143t-138.5 -70q24 -7 43 -28t29.5 -47.5t22.5 -56t22 -54t27 -41t40 -16.5zM171 296
h131q87 0 145 49t58 133q0 65 -41.5 103.5t-112.5 38.5h-139zM292.5 -47q9.5 0 16.5 -4t10.5 -12t3.5 -19q0 -22 -7 -41t-17 -30.5t-20 -20t-17 -12.5l-7 -4l-12 24q4 2 11 6t19.5 18t14.5 29q-15 0 -24 8t-9 21q0 10 5.5 18.5t14 13.5t18 5z" />
    <glyph glyph-name="rcommaaccent" unicode="&#x157;" horiz-adv-x="301" 
d="M303 469q24 0 44 -6l-13 -35q-13 7 -37 7q-37 0 -70.5 -30t-52 -68t-24.5 -73l-34 -264h-35l59 465l26 1q-2 -59 -11 -128h1q21 55 59.5 93t87.5 38zM94 -47q9 0 16 -4t10.5 -12t3.5 -19q0 -22 -7 -41t-17 -30.5t-20 -20t-16 -12.5l-7 -4l-13 24q5 2 11.5 6t19 18
t14.5 29q-15 0 -24 8t-9 21q0 8 3.5 15t8.5 11.5t12 7.5t14 3z" />
    <glyph glyph-name="Rcaron" unicode="&#x158;" horiz-adv-x="562" 
d="M376 686h-44l-77 119l35 -1l68 -85l88 85l37 1zM536 27l12 2v-32q-11 -2 -25 -2q-25 0 -44.5 12t-31 30.5t-22 43t-18 49.5t-19.5 49.5t-26.5 43t-39 30t-56.5 11.5h-100l-33 -264h-38l84 653h178q87 0 136 -45t49 -125q0 -88 -51.5 -143t-138.5 -70q29 -8 49.5 -36
t33 -62t24.5 -67t31 -55.5t46 -22.5zM171 296h131q87 0 145 49t58 133q0 65 -41.5 103.5t-112.5 38.5h-139z" />
    <glyph glyph-name="rcaron" unicode="&#x159;" horiz-adv-x="301" 
d="M260 545h-43l-76 139l35 -1l66 -106l92 106l35 1zM156 338q10 26 24 48.5t32.5 41.5t42 30t48.5 11q24 0 44 -6l-13 -35q-13 7 -37 7q-37 0 -70.5 -30t-52 -68t-24.5 -73l-34 -264h-35l59 465l26 1q-2 -59 -11 -128h1z" />
    <glyph glyph-name="Sacute" unicode="&#x15a;" horiz-adv-x="523" 
d="M353 685l-33 -3l77 117h51zM490 512q-2 15 -11 32.5t-25.5 36.5t-47 32t-68.5 13q-73 0 -122.5 -41t-49.5 -105q0 -34 18 -58t46.5 -38t63.5 -25.5t70 -24.5t63.5 -30.5t46.5 -48t18 -73.5q0 -86 -63 -136.5t-167 -50.5q-77 0 -131 23t-83 52l27 29q20 -19 38.5 -31.5
t60 -26t92.5 -13.5q84 0 136.5 41.5t52.5 107.5q0 37 -18 63t-47 41t-64 26.5t-70 24t-63.5 29t-47 46t-18.5 70.5q0 81 59.5 131.5t154.5 50.5q48 0 84 -14t56.5 -37t31 -44t15.5 -43z" />
    <glyph glyph-name="sacute" unicode="&#x15b;" horiz-adv-x="429" 
d="M270 548l-33 -3l79 140h49zM372 317q5 13 5 35q0 41 -29.5 63.5t-78.5 22.5q-59 0 -94.5 -28t-35.5 -74q0 -27 19 -45.5t47.5 -26t62 -17.5t62 -20.5t47.5 -33.5t19 -58q0 -42 -22.5 -74t-63.5 -49t-96 -17q-106 0 -166 68l27 23q52 -59 143 -59q64 0 102.5 28t38.5 75
q0 27 -19 45.5t-47.5 27t-61.5 19t-61.5 21t-47.5 33.5t-19 56q0 60 47.5 98.5t122.5 38.5q63 0 101.5 -29t38.5 -79q0 -9 -1.5 -19.5t-3.5 -15.5l-2 -6z" />
    <glyph glyph-name="Scircumflex" unicode="&#x15c;" horiz-adv-x="523" 
d="M380 801l76 -119l-36 2l-67 84l-89 -84l-36 -2l107 119h45zM490 512q-2 11 -7 24.5t-17 29.5t-28.5 29t-42.5 22t-57 9q-48 0 -87 -18t-62 -51.5t-23 -76.5q0 -34 18 -58t46.5 -38t63.5 -25.5t70 -24.5t63.5 -30.5t46.5 -48t18 -73.5q0 -86 -63 -136.5t-167 -50.5
q-77 0 -131 23t-83 52l27 29q20 -19 38.5 -31.5t60 -26t92.5 -13.5q84 0 136.5 41.5t52.5 107.5q0 37 -18 63t-47 41t-64 26.5t-70 24t-63.5 29t-47 46t-18.5 70.5q0 81 59.5 131.5t154.5 50.5q48 0 84 -14t56.5 -37t31 -44t15.5 -43z" />
    <glyph glyph-name="scircumflex" unicode="&#x15d;" horiz-adv-x="429" 
d="M165 545l108 139h43l77 -139l-36 2l-65 106l-92 -106zM372 317q5 13 5 35q0 27 -13.5 46.5t-38 29.5t-56.5 10q-59 0 -94.5 -28t-35.5 -74q0 -23 14 -40t37 -26t50.5 -16t54.5 -15t50 -19.5t37 -33t14 -51.5q0 -42 -22.5 -74t-63.5 -49t-96 -17q-106 0 -166 68l27 23
q52 -59 143 -59q64 0 102.5 28t38.5 75q0 27 -19 45.5t-47.5 27t-61.5 19t-61.5 21t-47.5 33.5t-19 56q0 60 47.5 98.5t122.5 38.5q63 0 101.5 -29t38.5 -79q0 -9 -1.5 -19.5t-3.5 -15.5l-2 -6z" />
    <glyph glyph-name="Scedilla" unicode="&#x15e;" horiz-adv-x="523" 
d="M166 480q0 -30 14 -52.5t37 -35.5t52 -25t60 -20.5t60 -22.5t52 -30.5t37 -45t14 -66.5q0 -82 -58 -132t-156 -54l-17 -33q27 -3 46.5 -19.5t19.5 -46.5q0 -36 -26.5 -58t-68.5 -22q-20 0 -36.5 7t-22.5 14l-7 6l16 23q19 -21 54 -21q27 0 44 13.5t17 35.5q0 20 -17.5 34
t-58.5 14l27 53q-71 2 -121.5 24t-78.5 50l27 29q20 -19 38.5 -31.5t60 -26t92.5 -13.5q84 0 136.5 41.5t52.5 107.5q0 37 -18 63t-47 41t-64 26.5t-70 24t-63.5 29t-47 46t-18.5 70.5q0 81 59.5 131.5t154.5 50.5q48 0 84 -14t56.5 -37t31 -44t15.5 -43l-38 -9
q-2 15 -11 32.5t-25.5 36.5t-47 32t-68.5 13q-48 0 -87 -18t-62 -51.5t-23 -76.5z" />
    <glyph glyph-name="scedilla" unicode="&#x15f;" horiz-adv-x="429" 
d="M406 320l-34 -3q5 13 5 35q0 27 -13.5 46.5t-38 29.5t-57.5 10q-58 0 -93.5 -28t-35.5 -74q0 -23 14 -40t37 -26t50.5 -16t54.5 -15t50 -19.5t37 -33t14 -51.5q0 -61 -45.5 -98.5t-122.5 -40.5l-17 -33q27 -3 46.5 -19.5t19.5 -46.5q0 -36 -26.5 -58t-67.5 -22
q-10 0 -18.5 1.5t-15 4t-12 5.5t-9 6t-6.5 5t-4 4l-1 1l16 23q19 -21 54 -21q27 0 44 13.5t17 35.5q0 20 -18 34t-58 14l27 53q-95 4 -151 67l27 23q52 -59 143 -59q64 0 102.5 28t38.5 75q0 27 -19 45.5t-47.5 27t-61.5 19t-61.5 21t-47.5 33.5t-19 56q0 60 47.5 98.5
t122.5 38.5q63 0 101.5 -29t38.5 -79q0 -9 -1.5 -19.5t-3.5 -15.5z" />
    <glyph glyph-name="Scaron" unicode="&#x160;" horiz-adv-x="523" 
d="M245 805l35 -1l67 -85l88 85l38 1l-107 -119h-45zM490 512q-2 15 -11 32.5t-25.5 36.5t-47 32t-68.5 13q-73 0 -122.5 -41t-49.5 -105q0 -34 18 -58t46.5 -38t63.5 -25.5t70 -24.5t63.5 -30.5t46.5 -48t18 -73.5q0 -86 -63 -136.5t-167 -50.5q-77 0 -131 23t-83 52l27 29
q20 -19 38.5 -31.5t60 -26t92.5 -13.5q84 0 136.5 41.5t52.5 107.5q0 37 -18 63t-47 41t-64 26.5t-70 24t-63.5 29t-47 46t-18.5 70.5q0 81 59.5 131.5t154.5 50.5q48 0 84 -14t56.5 -37t31 -44t15.5 -43z" />
    <glyph glyph-name="scaron" unicode="&#x161;" horiz-adv-x="429" 
d="M184 684l35 -1l65 -106l92 106l36 1l-110 -139h-42zM372 317q5 13 5 35q0 27 -13.5 46.5t-38 29.5t-56.5 10q-59 0 -94.5 -28t-35.5 -74q0 -27 19 -45.5t47.5 -26t62 -17.5t62 -20.5t47.5 -33.5t19 -58q0 -64 -49.5 -102t-132.5 -38q-106 0 -166 68l27 23q52 -59 143 -59
q64 0 102.5 28t38.5 75q0 27 -19 45.5t-47.5 27t-61.5 19t-61.5 21t-47.5 33.5t-19 56q0 60 47.5 98.5t122.5 38.5q63 0 101.5 -29t38.5 -79q0 -9 -1.5 -19.5t-3.5 -15.5l-2 -6z" />
    <glyph glyph-name="uni0162" unicode="&#x162;" horiz-adv-x="498" 
d="M96 653h473l-4 -33h-218l-80 -620h-5l-19 -37q27 -3 46.5 -19.5t19.5 -45.5q0 -37 -26 -59t-68 -22q-20 0 -36.5 7t-23.5 14l-6 6l16 23q19 -21 54 -21q27 0 44 13.5t17 35.5q0 20 -18 34t-58 14l30 57h-4l79 620h-217z" />
    <glyph glyph-name="uni0163" unicode="&#x163;" horiz-adv-x="354" 
d="M196 434l-36 -285q-8 -61 11.5 -92t72.5 -31q25 0 48.5 8t35.5 16l12 8l10 -29q-2 -1 -5.5 -3.5t-15.5 -8.5t-24 -10.5t-30.5 -8t-36.5 -3.5h-13l-17 -32q27 -3 46.5 -19.5t19.5 -45.5q0 -37 -26 -59t-68 -22q-20 0 -36.5 7t-23.5 14l-6 6l16 23q19 -21 54 -21
q27 0 44 13.5t17 35.5q0 20 -18 34t-58 14l29 56q-91 19 -74 150l36 285h-74l3 31h75l19 143l35 3l-19 -146h187l-4 -31h-186z" />
    <glyph glyph-name="Tcaron" unicode="&#x164;" horiz-adv-x="498" 
d="M239 805l35 -1l68 -85l88 85l37 1l-107 -119h-44zM230 0l79 620h-217l4 33h473l-4 -33h-218l-80 -620h-37z" />
    <glyph glyph-name="tcaron" unicode="&#x165;" horiz-adv-x="354" 
d="M301 546q4 2 11 6t19.5 17t14.5 27q-15 0 -24 8.5t-9 21.5q0 15 11.5 26t25.5 11t22.5 -9t8.5 -25q0 -22 -7 -40.5t-17 -30.5t-19.5 -20t-16.5 -12l-7 -3zM196 434l-36 -285q-8 -61 11.5 -92t72.5 -31q25 0 48.5 8t35.5 16l12 8l10 -29q-2 -1 -5.5 -3.5t-15 -8.5
t-24 -10.5t-31 -8t-36.5 -3.5q-70 0 -97.5 38t-16.5 116l36 285h-74l3 31h75l19 143l35 3l-19 -146h187l-4 -31h-186z" />
    <glyph glyph-name="Tbar" unicode="&#x166;" horiz-adv-x="498" 
d="M565 620h-218l-33 -255h131l-4 -31h-131l-43 -334h-37l43 334h-127l4 31h127l32 255h-217l4 33h473z" />
    <glyph glyph-name="tbar" unicode="&#x167;" horiz-adv-x="354" 
d="M382 434h-186l-21 -161h133l-4 -28h-132l-12 -96q-8 -61 11.5 -92t72.5 -31q25 0 48.5 8t35.5 16l12 8l10 -29q-6 -3 -15.5 -9t-38.5 -15.5t-58 -9.5q-70 0 -97.5 38t-16.5 116l12 96h-62l4 28h61l21 161h-74l3 31h75l19 143l35 3l-19 -146h187z" />
    <glyph glyph-name="Utilde" unicode="&#x168;" horiz-adv-x="645" 
d="M557 771l-2 -22q-2 -34 -21.5 -54t-51.5 -20q-22 0 -44.5 15.5t-42.5 31t-36 15.5q-19 0 -30.5 -13.5t-11.5 -39.5v-10h-31v12q0 26 9.5 45t26.5 28t39 9q24 0 46.5 -15.5t42 -31t34.5 -15.5q41 0 41 55v10h32zM602 653h38l-50 -390q-16 -128 -87 -197.5t-180.5 -69.5
t-163.5 69.5t-38 197.5l50 390h38l-49 -389q-15 -115 29 -175.5t138 -60.5q93 0 152 60.5t74 174.5z" />
    <glyph glyph-name="utilde" unicode="&#x169;" horiz-adv-x="530" 
d="M228 564h-32v12q0 38 20.5 61t54.5 23q19 0 37.5 -10t31 -21.5t27 -21.5t27.5 -10q41 0 41 55v10h32l-2 -22q-2 -34 -21.5 -54t-51.5 -20q-22 0 -44.5 15.5t-42 31.5t-35.5 16q-19 0 -31 -14t-12 -41zM451 67q-5 -39 27 -39q7 0 15 2l-1 -30q-11 -4 -28 -4q-56 0 -48 62
l7 60h-2q-24 -54 -73 -88t-111 -34q-77 0 -113.5 49t-25.5 132l36 288h36l-36 -288q-9 -69 20.5 -109.5t92.5 -40.5q49 0 90.5 28t64 65.5t29.5 76.5l34 268h37z" />
    <glyph glyph-name="Umacron" unicode="&#x16a;" horiz-adv-x="645" 
d="M299 709l3 30h240l-3 -30h-240zM602 653h38l-50 -390q-16 -128 -87 -197.5t-180.5 -69.5t-163.5 69.5t-38 197.5l50 390h38l-49 -389q-15 -115 29 -175.5t138 -60.5q93 0 152 60.5t74 174.5z" />
    <glyph glyph-name="umacron" unicode="&#x16b;" horiz-adv-x="530" 
d="M460 632l-3 -30h-240l4 30h239zM451 67q-5 -39 27 -39q7 0 15 2l-1 -30q-11 -4 -28 -4q-56 0 -48 62l7 60h-2q-24 -54 -73 -88t-111 -34q-77 0 -113.5 49t-25.5 132l36 288h36l-36 -288q-9 -69 20.5 -109.5t92.5 -40.5q49 0 90.5 28t64 65.5t29.5 76.5l34 268h37z" />
    <glyph glyph-name="Ubreve" unicode="&#x16c;" horiz-adv-x="645" 
d="M528 792q-6 -50 -38 -80.5t-79 -30.5q-48 0 -72.5 30.5t-18.5 80.5h31q-6 -38 11.5 -61t51 -22t56.5 23t28 60h30zM602 653h38l-50 -390q-16 -128 -87 -197.5t-180.5 -69.5t-163.5 69.5t-38 197.5l50 390h38l-49 -389q-15 -115 29 -175.5t138 -60.5q93 0 152 60.5
t74 174.5z" />
    <glyph glyph-name="ubreve" unicode="&#x16d;" horiz-adv-x="530" 
d="M327 544q-35 0 -58.5 15.5t-34 45t-4.5 69.5h32q-6 -49 12 -75t56 -27q37 1 62.5 27.5t31.5 74.5h31q-7 -61 -41.5 -95.5t-86.5 -34.5zM451 67q-5 -39 27 -39q7 0 15 2l-1 -30q-11 -4 -28 -4q-56 0 -48 62l7 60h-2q-24 -54 -73 -88t-111 -34q-77 0 -113.5 49t-25.5 132
l36 288h36l-36 -288q-9 -69 20.5 -109.5t92.5 -40.5q48 0 90 28t64.5 65.5t29.5 76.5l34 268h37z" />
    <glyph glyph-name="Uring" unicode="&#x16e;" horiz-adv-x="645" 
d="M409 673q-26 0 -42.5 17.5t-16.5 43.5q0 32 23 54t53 22q26 0 42.5 -17t16.5 -43q0 -32 -22.5 -54.5t-53.5 -22.5zM459 747q0 11 -4.5 19.5t-12.5 13.5t-19 5q-19 0 -32 -14t-13 -35q0 -17 9 -27t26 -10q19 0 32.5 13.5t13.5 34.5zM602 653h38l-50 -390
q-16 -128 -87 -197.5t-180.5 -69.5t-163.5 69.5t-38 197.5l50 390h38l-49 -389q-15 -115 29 -175.5t138 -60.5q93 0 152 60.5t74 174.5z" />
    <glyph glyph-name="uring" unicode="&#x16f;" horiz-adv-x="530" 
d="M326 544q-26 0 -43 18t-17 45q0 33 23 55.5t55 22.5q26 0 43 -17.5t17 -44.5q0 -33 -22.5 -56t-55.5 -23zM340 658q-20 0 -33 -13.5t-13 -35.5q0 -17 9.5 -27.5t25.5 -10.5q20 0 34 14t14 35q0 18 -10 28t-27 10zM451 67q-5 -39 27 -39q7 0 15 2l-1 -30q-11 -4 -28 -4
q-56 0 -48 62l7 60h-2q-24 -54 -73 -88t-111 -34q-77 0 -113.5 49t-25.5 132l36 288h36l-36 -288q-9 -69 20.5 -109.5t92.5 -40.5q49 0 90.5 28t64 65.5t29.5 76.5l34 268h37z" />
    <glyph glyph-name="Uhungarumlaut" unicode="&#x170;" horiz-adv-x="645" 
d="M348 685l-32 -3l77 117h50zM479 685l-32 -3l77 117h50zM602 653h38l-50 -390q-16 -128 -87 -197.5t-180.5 -69.5t-163.5 69.5t-38 197.5l50 390h38l-49 -389q-15 -115 29 -175.5t138 -60.5q93 0 152 60.5t74 174.5z" />
    <glyph glyph-name="uhungarumlaut" unicode="&#x171;" horiz-adv-x="530" 
d="M379 685l-98 -137l-30 -3l79 140h49zM402 548l-31 -3l80 140h48zM451 67q-5 -39 27 -39q7 0 15 2l-1 -30q-11 -4 -28 -4q-56 0 -48 62l7 60h-2q-24 -54 -73 -88t-111 -34q-77 0 -113.5 49t-25.5 132l36 288h36l-36 -288q-9 -69 20.5 -109.5t92.5 -40.5q48 0 90 28
t64.5 65.5t29.5 76.5l34 268h37z" />
    <glyph glyph-name="Uogonek" unicode="&#x172;" horiz-adv-x="645" 
d="M602 653h38l-50 -390q-13 -103 -62.5 -169t-126.5 -88q-13 -6 -25.5 -13.5t-28 -20t-25 -31.5t-9.5 -41q0 -21 11.5 -33t32.5 -12q12 0 24 5t18 10l6 5l10 -23q-24 -25 -65 -25q-31 0 -50 19t-19 49q0 60 57 101h-16q-109 0 -163 69.5t-38 197.5l50 390h38l-49 -389
q-15 -115 29 -175.5t138 -60.5q93 0 152 60.5t74 174.5z" />
    <glyph glyph-name="uogonek" unicode="&#x173;" horiz-adv-x="530" 
d="M437 -155q12 0 24 5t18 10l6 4l10 -22q-24 -25 -65 -25q-31 0 -50 18.5t-19 49.5q0 72 80 114q-31 12 -25 59l6 60h-1q-24 -53 -73 -87.5t-111 -34.5q-77 0 -113.5 49t-25.5 132l36 288h36l-36 -288q-9 -69 20.5 -109.5t91.5 -40.5q49 0 90.5 28t64.5 65.5t30 76.5
l34 268h37l-51 -398q-5 -39 27 -39q7 0 15 2l-1 -30v-1q-5 -1 -12 -4t-24 -12.5t-29.5 -21t-23 -31t-10.5 -40.5q0 -14 5.5 -24t15.5 -15.5t23 -5.5z" />
    <glyph glyph-name="Wcircumflex" unicode="&#x174;" horiz-adv-x="841" 
d="M547 801l76 -119l-36 2l-67 84l-89 -84l-36 -2l107 119h45zM858 653h37l-265 -653h-45l-82 550q-4 29 -4 54h-2l-18 -54l-222 -550h-45l-99 653h38l84 -578q3 -23 3 -35h2q4 13 13 35l233 578h36l87 -578q2 -18 3 -35h2q5 14 13 35z" />
    <glyph glyph-name="wcircumflex" unicode="&#x175;" horiz-adv-x="674" 
d="M420 653l-92 -106l-35 -2l108 139h43l77 -139l-36 2zM667 465h37l-197 -465h-47l-63 381q-4 25 -4 36h-2q0 -2 -2 -6.5t-3.5 -9t-4 -10.5t-4.5 -10l-161 -381h-47l-81 465h40l65 -406q1 -4 2 -9.5t1.5 -9.5t0.5 -5h2q6 14 10 24l170 406h37l67 -405q1 -4 1.5 -10t1 -10.5
l0.5 -4.5h2q1 1 2.5 4.5t4 9.5t4.5 11z" />
    <glyph glyph-name="Ycircumflex" unicode="&#x176;" horiz-adv-x="540" 
d="M369 768l-89 -84l-36 -2l107 119h45l76 -119l-36 2zM597 653l-275 -396l-33 -257h-38l33 257l-175 396h41l139 -313q11 -27 18 -52h1q12 27 30 52l219 313h40z" />
    <glyph glyph-name="ycircumflex" unicode="&#x177;" horiz-adv-x="523" 
d="M333 653l-92 -106l-35 -2l108 139h43l77 -139l-36 2zM465 465h36l-62 -483q-11 -90 -67.5 -140t-153.5 -50q-87 0 -155 45l21 30q20 -17 56 -30.5t83 -13.5q162 0 183 159l18 138h-1q-24 -55 -73 -89.5t-113 -34.5q-77 0 -113.5 49t-25.5 132l36 288h36l-36 -288
q-9 -69 20.5 -109.5t92.5 -40.5q48 0 89.5 27.5t64.5 65.5t30 76z" />
    <glyph glyph-name="Ydieresis" unicode="&#x178;" horiz-adv-x="540" 
d="M278 705q-12 0 -20 9t-8 21q0 14 11.5 25t25.5 11q8 0 14 -4t9.5 -11t3.5 -14q0 -10 -5 -18.5t-13.5 -13.5t-17.5 -5zM444 706q-8 0 -14.5 3.5t-10 10.5t-3.5 15q0 14 11 25t25 11q12 0 20 -8.5t8 -20.5q0 -15 -11 -25.5t-25 -10.5zM597 653l-275 -396l-33 -257h-38
l33 257l-175 396h41l139 -313q11 -27 18 -52h1q12 27 30 52l219 313h40z" />
    <glyph glyph-name="Zacute" unicode="&#x179;" horiz-adv-x="514" 
d="M357 685l-33 -3l77 117h51zM32 0l4 33l453 555q15 19 27 31v2q-11 -1 -48 -1h-347l4 33h440l-4 -33l-452 -556q-18 -22 -28 -30l1 -3q8 2 48 2h348l-4 -33h-442z" />
    <glyph glyph-name="zacute" unicode="&#x17a;" horiz-adv-x="412" 
d="M273 548l-33 -3l80 140h49zM36 0l4 31l332 388l6 6l5 5l4 4l-1 1q-6 -1 -24 -1h-264l3 31h330l-3 -31l-329 -385q-8 -9 -17 -18l1 -2q5 2 25 2h270l-4 -31h-338z" />
    <glyph glyph-name="Zdotaccent" unicode="&#x17b;" horiz-adv-x="514" 
d="M348 702q-13 0 -21.5 9t-8.5 23q0 15 12 26t27 11q13 0 21.5 -9t8.5 -22q0 -15 -12 -26.5t-27 -11.5zM32 0l4 33l453 555q15 19 27 31v2q-11 -1 -48 -1h-347l4 33h440l-4 -33l-452 -556q-18 -22 -28 -30l1 -3q8 2 48 2h348l-4 -33h-442z" />
    <glyph glyph-name="zdotaccent" unicode="&#x17c;" horiz-adv-x="412" 
d="M328 622q0 -8 -3.5 -15t-8.5 -12t-12.5 -8t-15.5 -3q-12 0 -21 9t-9 22q0 15 12 26.5t27 11.5q13 0 22 -9t9 -22zM36 0l4 31l332 388l7 7l3 3t2 2.5t3 2.5l-1 1q-6 -1 -24 -1h-264l3 31h330l-3 -31l-329 -385q-8 -9 -17 -18l1 -2q5 2 25 2h270l-4 -31h-338z" />
    <glyph glyph-name="Zcaron" unicode="&#x17d;" horiz-adv-x="514" 
d="M249 805l35 -1l67 -85l89 85l37 1l-107 -119h-44zM32 0l4 33l453 555q15 19 27 31v2q-11 -1 -48 -1h-347l4 33h440l-4 -33l-452 -556q-18 -22 -28 -30l1 -3q8 2 48 2h348l-4 -33h-442z" />
    <glyph glyph-name="zcaron" unicode="&#x17e;" horiz-adv-x="412" 
d="M187 684l35 -1l66 -106l92 106l35 1l-109 -139h-43zM36 0l4 31l332 388l4.5 4.5l4 4t3 3.5t3.5 3l-1 1q-6 -1 -24 -1h-264l3 31h330l-3 -31l-329 -385q-8 -9 -17 -18l1 -2q5 2 25 2h270l-4 -31h-338z" />
    <glyph glyph-name="uni01EA" unicode="&#x1ea;" horiz-adv-x="674" 
d="M398 1q-12 -5 -24.5 -12t-29.5 -20t-27.5 -32.5t-10.5 -42.5q0 -21 12 -33t32 -12q8 0 15.5 2t13.5 5t10.5 6t6.5 5l3 2l9 -23q-24 -25 -65 -25q-31 0 -49.5 19t-18.5 49q0 65 65 106h-3q-109 0 -175.5 75t-66.5 205q0 87 25.5 160t70 121.5t104 75.5t126.5 27
q110 0 176 -75t66 -205q0 -102 -35 -184t-94.5 -130.5t-135.5 -63.5zM132 280q0 -116 57.5 -184t151.5 -68q119 0 201.5 96t82.5 250q0 77 -26 134t-73.5 87.5t-109.5 30.5q-57 0 -109 -25t-90.5 -69t-61.5 -109.5t-23 -142.5z" />
    <glyph glyph-name="uni01EB" unicode="&#x1eb;" horiz-adv-x="528" 
d="M336 6q-11 -4 -23.5 -11t-30 -20t-29 -33.5t-11.5 -43.5q0 -21 12 -33t32 -12q12 0 24 5t18 10l7 5l9 -23q-24 -25 -64 -25q-32 0 -50.5 18.5t-18.5 49.5q0 62 60 103h-7q-86 0 -136.5 55t-50.5 147q0 118 70 194.5t177 76.5q42 0 77 -14.5t59 -41.5t37 -64.5t13 -82.5
q0 -97 -47.5 -166.5t-126.5 -93.5zM114 201q0 -79 41 -126.5t112 -47.5q90 0 148 66t58 169q0 80 -41 128t-112 48q-89 0 -147.5 -67t-58.5 -170z" />
    <glyph glyph-name="AEacute" unicode="&#x1fc;" horiz-adv-x="951" 
d="M723 799l-95 -114l-32 -3l77 117h50zM931 620h-331l-34 -263h301l-4 -33h-301l-37 -291h331l-5 -33h-368l25 191h-303l-166 -191h-42l568 653h369zM233 223h279l48 376z" />
    <glyph glyph-name="aeacute" unicode="&#x1fd;" horiz-adv-x="805" 
d="M541 685l-95 -137l-33 -3l80 140h48zM634 469q73 0 116 -47.5t43 -127.5q0 -16 -2 -32t-5 -24l-2 -8h-349q-1 -14 -1 -29q0 -40 10.5 -72t30.5 -54.5t50 -35t67 -12.5q86 0 143 59l20 -21q-64 -69 -169 -69q-47 0 -84.5 16.5t-61 46.5t-34.5 72h-2q-7 -22 -23 -44
t-41 -43.5t-64 -34.5t-84 -13q-62 0 -95.5 27.5t-33.5 75.5q0 43 20.5 73.5t62 48t93 25.5t123.5 10l40 1l6 43q4 31 -2.5 56.5t-22 43.5t-40.5 28t-57 10q-65 0 -107 -35t-42 -92q0 -16 1 -20l-34 -6q-2 9 -2 24q0 71 53.5 115.5t135.5 44.5q62 0 101.5 -29.5t49.5 -80.5
q32 52 82.5 81t109.5 29zM631 438q-69 0 -122.5 -49t-69.5 -130h316q3 13 3 36q0 67 -34 105t-93 38zM203 27q45 0 82.5 16.5t58.5 40t32.5 43.5t12.5 32l9 70l-40 -2q-62 -1 -106 -7.5t-80 -20t-54 -37.5t-18 -58q0 -35 26 -56t77 -21z" />
    <glyph glyph-name="Oslashacute" unicode="&#x1fe;" horiz-adv-x="674" 
d="M518 798l-95 -114l-33 -2l78 116h50zM677 688l-80 -104q66 -76 66 -205q0 -87 -25.5 -160t-70 -121.5t-104 -75.5t-126.5 -27q-91 0 -152 53l-71 -92h-39l87 113q-67 76 -67 206q0 87 25.5 160t70 121.5t104 75.5t126.5 27q91 0 153 -53l64 82h39zM132 280
q0 -111 54 -179l365 474q-54 51 -135 51q-57 0 -109 -25t-90.5 -69t-61.5 -109.5t-23 -142.5zM625 374q0 110 -53 178l-364 -474q54 -50 133 -50q119 0 201.5 96t82.5 250z" />
    <glyph glyph-name="oslashacute" unicode="&#x1ff;" horiz-adv-x="528" 
d="M419 685l-96 -137l-33 -3l80 140h49zM450 423q60 -56 60 -157q0 -119 -70 -195t-176 -76q-63 0 -108 31l-40 -55h-32l52 71q-59 55 -59 156q0 118 70 194.5t177 76.5q61 0 106 -30l40 54h32zM114 201q0 -82 44 -130l251 340q-37 27 -89 27q-89 0 -147.5 -67t-58.5 -170z
M267 27q90 0 148 66t58 169q0 84 -45 132l-251 -340q38 -27 90 -27z" />
    <glyph glyph-name="Scommaaccent" unicode="&#x218;" horiz-adv-x="523" 
d="M490 512q-2 15 -11 32.5t-25.5 36.5t-47 32t-68.5 13q-73 0 -122.5 -41t-49.5 -105q0 -34 18 -58t46.5 -38t63.5 -25.5t70 -24.5t63.5 -30.5t46.5 -48t18 -73.5q0 -86 -63 -136.5t-167 -50.5q-77 0 -131 23t-83 52l27 29q20 -19 38.5 -31.5t60 -26t92.5 -13.5
q84 0 136.5 41.5t52.5 107.5q0 37 -18 63t-47 41t-64 26.5t-70 24t-63.5 29t-47 46t-18.5 70.5q0 81 59.5 131.5t154.5 50.5q48 0 84 -14t56.5 -37t31 -44t15.5 -43zM221 -84q0 15 11.5 26t25.5 11q10 0 16.5 -4t10.5 -12t4 -19q0 -16 -4 -30.5t-10 -25t-13 -19.5t-14 -14.5
t-13 -10t-10 -6.5l-4 -2l-12 24q1 0 4 1.5t10 7t13 11t11.5 14.5t6.5 19q-15 0 -24 8t-9 21z" />
    <glyph glyph-name="scommaaccent" unicode="&#x219;" horiz-adv-x="429" 
d="M372 317q5 13 5 35q0 27 -13.5 46.5t-38 29.5t-56.5 10q-59 0 -94.5 -28t-35.5 -74q0 -27 19 -45.5t47.5 -26t62 -17.5t62 -20.5t47.5 -33.5t19 -58q0 -42 -22.5 -74t-63.5 -49t-96 -17q-106 0 -166 68l27 23q52 -59 143 -59q64 0 102.5 28t38.5 75q0 27 -19 45.5
t-47.5 27t-61.5 19t-61.5 21t-47.5 33.5t-19 56q0 60 47.5 98.5t122.5 38.5q63 0 101.5 -29t38.5 -79q0 -9 -1.5 -19.5t-3.5 -15.5l-2 -6zM172 -84q0 15 11.5 26t25.5 11t22 -9.5t8 -25.5t-3.5 -30.5t-9.5 -25t-13 -19.5t-14.5 -14.5t-13.5 -10t-10 -6.5l-3 -2l-13 24
q5 2 11.5 6t19 18t15.5 29q-15 0 -24 8t-9 21z" />
    <glyph glyph-name="uni021A" unicode="&#x21a;" horiz-adv-x="498" 
d="M230 0l79 620h-217l4 33h473l-4 -33h-218l-80 -620h-37zM204 -84q0 15 11.5 26t25.5 11q9 0 16 -4t11 -12t4 -19q0 -16 -4 -30.5t-10 -25t-13 -19.5t-14.5 -14.5t-13.5 -10t-9 -6.5l-4 -2l-13 24q5 2 12 6t19.5 18t14.5 29q-15 0 -24 8t-9 21z" />
    <glyph glyph-name="uni021B" unicode="&#x21b;" horiz-adv-x="354" 
d="M196 434l-36 -285q-8 -61 11.5 -92t72.5 -31q25 0 48.5 8t35.5 16l12 8l10 -29q-6 -3 -15.5 -9t-38.5 -15.5t-58 -9.5q-70 0 -97.5 38t-16.5 116l36 285h-74l3 31h75l19 143l35 3l-19 -146h187l-4 -31h-186zM206 -47q7 0 12.5 -2.5t9.5 -7t6.5 -11t2.5 -14.5
q0 -16 -4 -30.5t-10 -25t-13 -19.5t-14.5 -14.5t-13.5 -10t-9 -6.5l-4 -2l-13 24q5 2 12 6t19.5 18t14.5 29q-15 0 -24 8t-9 21q0 15 11.5 26t25.5 11z" />
    <glyph glyph-name="uni0237" unicode="&#x237;" horiz-adv-x="207" 
d="M-91 -156q23 -21 63 -21q48 0 74.5 28.5t34.5 92.5l66 521l36 1l-66 -518q-10 -78 -46 -117t-101 -39q-23 0 -42 6t-26 12l-7 6z" />
    <glyph glyph-name="circumflex" unicode="&#x2c6;" horiz-adv-x="303" 
d="M107 545l108 139h43l77 -139l-35 2l-66 106l-92 -106z" />
    <glyph glyph-name="caron" unicode="&#x2c7;" horiz-adv-x="299" 
d="M125 684l35 -1l65 -106l92 106l36 1l-110 -139h-42z" />
    <glyph glyph-name="breve" unicode="&#x2d8;" horiz-adv-x="281" 
d="M339 674q-7 -61 -41.5 -95.5t-86.5 -34.5q-53 0 -79 34.5t-18 95.5h32q-6 -49 12 -75t56 -27q24 1 43.5 12.5t33 34.5t17.5 55h31z" />
    <glyph glyph-name="dotaccent" unicode="&#x2d9;" horiz-adv-x="166" 
d="M196 622q0 -16 -11.5 -27t-27.5 -11q-13 0 -21.5 9t-8.5 22q0 15 12 26.5t27 11.5q13 0 21.5 -9t8.5 -22z" />
    <glyph glyph-name="ring" unicode="&#x2da;" horiz-adv-x="230" 
d="M184 544q-26 0 -43 18t-17 45q0 33 23 55.5t56 22.5q26 0 42.5 -17.5t16.5 -44.5q0 -33 -22.5 -56t-55.5 -23zM236 620q0 18 -10.5 28t-26.5 10q-14 0 -24.5 -6t-16.5 -17.5t-6 -25.5q0 -17 9.5 -27.5t26.5 -10.5q19 0 33.5 14t14.5 35z" />
    <glyph glyph-name="ogonek" unicode="&#x2db;" horiz-adv-x="231" 
d="M160 -158q-24 -25 -65 -25q-31 0 -50 19t-19 49q0 28 13 52.5t31.5 38.5t36.5 24t31 14l13 4l6 -18q-4 -1 -11 -3.5t-24 -12.5t-30 -21.5t-23.5 -31t-10.5 -41.5q0 -20 12 -32t32 -12q12 0 24 4.5t18 9.5l6 5z" />
    <glyph glyph-name="tilde" unicode="&#x2dc;" horiz-adv-x="350" 
d="M384 662q0 -11 -1 -22q-3 -34 -22 -54t-51 -20q-23 0 -45 15.5t-42 31.5t-35 16q-19 0 -31 -14t-12 -41v-10h-31v12q0 38 20.5 61t54.5 23q23 0 46 -16t42 -31.5t34 -15.5q42 0 42 55v10h31z" />
    <glyph glyph-name="hungarumlaut" unicode="&#x2dd;" horiz-adv-x="334" 
d="M151 548l-31 -3l80 140h48zM272 548l-31 -3l80 140h48z" />
    <glyph glyph-name="gravecomb" unicode="&#x300;" 
d="M-16 545l-62 140h48l45 -137z" />
    <glyph glyph-name="acutecomb" unicode="&#x301;" 
d="M-68 548l-33 -3l80 140h49z" />
    <glyph glyph-name="uni0302" unicode="&#x302;" 
d="M-196 545l109 139h43l76 -139l-35 2l-66 106l-92 -106z" />
    <glyph glyph-name="tildecomb" unicode="&#x303;" 
d="M35 662q0 -11 -1 -22q-3 -34 -22 -54t-52 -20q-22 0 -44 15.5t-42 31.5t-35 16q-19 0 -31 -14t-12 -41v-10h-31v12q0 38 20.5 61t53.5 23q24 0 47 -16t42 -31.5t34 -15.5q42 0 42 55l-1 10h32z" />
    <glyph glyph-name="uni0304" unicode="&#x304;" 
d="M-211 602l4 30h239l-4 -30h-239z" />
    <glyph glyph-name="uni0306" unicode="&#x306;" 
d="M58 674q-7 -61 -41.5 -95.5t-86.5 -34.5q-53 0 -79 34.5t-18 95.5h32q-6 -49 12.5 -75t55.5 -27q37 1 62.5 27.5t31.5 74.5h31z" />
    <glyph glyph-name="uni0307" unicode="&#x307;" 
d="M31 622q0 -16 -11.5 -27t-28.5 -11q-12 0 -20.5 9t-8.5 22q0 15 12 26.5t26 11.5t22.5 -9t8.5 -22z" />
    <glyph glyph-name="uni0308" unicode="&#x308;" 
d="M-162 584q-12 0 -20 8.5t-8 20.5q0 15 11.5 26t25.5 11q7 0 13.5 -4t10.5 -11t4 -14q0 -10 -5.5 -18.5t-14 -13.5t-17.5 -5zM3 584q-11 0 -19 8.5t-8 20.5q0 15 11 26t25 11q12 0 20 -8.5t8 -20.5q0 -15 -11 -26t-26 -11z" />
    <glyph glyph-name="uni030A" unicode="&#x30a;" 
d="M-45 544q-27 0 -43.5 18t-16.5 45q0 33 23 55.5t55 22.5q26 0 43 -17.5t17 -44.5q0 -33 -22.5 -56t-55.5 -23zM6 620q0 18 -10 28t-27 10q-20 0 -33.5 -13.5t-13.5 -35.5q0 -17 9.5 -27.5t26.5 -10.5q20 0 34 14t14 35z" />
    <glyph glyph-name="uni030B" unicode="&#x30b;" 
d="M-183 548l-31 -3l80 140h48zM-63 548l-30 -3l80 140h48z" />
    <glyph glyph-name="uni030C" unicode="&#x30c;" 
d="M-175 684l35 -1l65 -106l93 106l35 1l-109 -139h-43z" />
    <glyph glyph-name="uni0326" unicode="&#x326;" 
d="M-127 -84q0 15 11.5 26t26 11t22.5 -9.5t8 -25.5q0 -22 -7 -41t-17 -30.5t-20 -20t-17 -12.5l-7 -4l-12 24q4 2 11 6t19.5 18t14.5 29q-15 0 -24 8t-9 21z" />
    <glyph glyph-name="uni0327" unicode="&#x327;" 
d="M-126 -37q27 -3 46.5 -19.5t19.5 -45.5q0 -37 -26 -59t-68 -22q-21 0 -37 7t-23 14l-6 6l16 23q19 -21 54 -21q27 0 44 13.5t17 35.5q0 20 -18 34t-58 14l32 62l28 -1z" />
    <glyph glyph-name="uni0328" unicode="&#x328;" 
d="M-71 -158q-24 -25 -65 -25q-31 0 -50 19t-19 49q0 28 13 52.5t31.5 38.5t36.5 24t31 14l13 4l6 -18q-4 -1 -11 -3.5t-24 -12.5t-30 -21.5t-23.5 -31t-10.5 -41.5q0 -20 12 -32t32 -12q12 0 24 4.5t18 9.5l6 5z" />
    <glyph glyph-name="uni0335" unicode="&#x335;" 
d="M-224 202h230l-3 -28h-230z" />
    <glyph glyph-name="uni0336" unicode="&#x336;" 
d="M-283 204h295l-4 -30h-295z" />
    <glyph glyph-name="uni0337" unicode="&#x337;" 
d="M-167 338l191 108l11 -25l-191 -108z" />
    <glyph glyph-name="uni0338" unicode="&#x338;" 
d="M-13 502h32l-386 -522h-32z" />
    <glyph glyph-name="Wgrave" unicode="&#x1e80;" horiz-adv-x="841" 
d="M494 682l-64 117h50l47 -114zM858 653h37l-265 -653h-45l-82 550q-4 29 -4 54h-2l-18 -54l-222 -550h-45l-99 653h38l84 -578q3 -23 3 -35h2q5 13 13 35l233 578h36l87 -578q2 -18 3 -35h2q5 14 13 35z" />
    <glyph glyph-name="wgrave" unicode="&#x1e81;" horiz-adv-x="674" 
d="M437 548l-31 -3l-62 140h48zM667 465h37l-197 -465h-47l-63 381q-4 25 -4 36h-2q0 -1 -3 -8.5l-6 -15l-5 -12.5l-161 -381h-47l-81 465h40l65 -406q1 -4 2 -9.5t1.5 -9.5t0.5 -5h2q6 14 10 24l170 406h37l67 -405q1 -4 1.5 -10t1 -10.5l0.5 -4.5h2q1 1 2.5 4.5t4 9.5
t4.5 11z" />
    <glyph glyph-name="Wacute" unicode="&#x1e82;" horiz-adv-x="841" 
d="M520 685l-33 -3l77 117h51zM858 653h37l-265 -653h-45l-82 550q-4 29 -4 54h-2l-18 -54l-222 -550h-45l-99 653h38l84 -578q3 -23 3 -35h2q5 13 13 35l233 578h36l87 -578q2 -18 3 -35h2q5 14 13 35z" />
    <glyph glyph-name="wacute" unicode="&#x1e83;" horiz-adv-x="674" 
d="M519 685l-95 -137l-33 -3l79 140h49zM667 465h37l-197 -465h-47l-63 381q-4 25 -4 36h-2q0 -1 -3 -8.5t-5.5 -15t-5.5 -12.5l-161 -381h-47l-81 465h40l65 -406q1 -4 2 -9.5t1.5 -9.5t0.5 -5h2q6 14 10 24l170 406h37l67 -405q1 -4 1.5 -10t1 -10.5l0.5 -4.5h2
q1 1 2.5 4.5t4 9.5t4.5 11z" />
    <glyph glyph-name="Wdieresis" unicode="&#x1e84;" horiz-adv-x="841" 
d="M429 705q-12 0 -20 9t-8 21q0 14 11.5 25t25.5 11q8 0 14 -4t9.5 -11t3.5 -14q0 -8 -3 -14.5t-8 -11.5t-11.5 -8t-13.5 -3zM595 706q-12 0 -20 8.5t-8 20.5q0 14 11 25t25 11q12 0 20 -8.5t8 -20.5q0 -15 -11 -25.5t-25 -10.5zM858 653h37l-265 -653h-45l-82 550
q-4 29 -4 54h-2l-18 -54l-222 -550h-45l-99 653h38l84 -578q3 -23 3 -35h2q5 13 13 35l233 578h36l87 -578q2 -18 3 -35h2q5 14 13 35z" />
    <glyph glyph-name="wdieresis" unicode="&#x1e85;" horiz-adv-x="674" 
d="M332 584q-12 0 -20 8.5t-8 20.5q0 15 11 26t25 11q12 0 20 -8.5t8 -20.5q0 -15 -11 -26t-25 -11zM497 584q-12 0 -20 8.5t-8 20.5q0 15 11.5 26t24.5 11q12 0 20.5 -8.5t8.5 -20.5q0 -15 -11.5 -26t-25.5 -11zM667 465h37l-197 -465h-47l-63 382q-4 24 -4 35h-2
q0 -1 -3 -8.5l-6 -15t-5 -11.5l-161 -382h-47l-81 465h40l65 -406q1 -4 2 -9.5t1.5 -9.5t0.5 -5h2q6 14 10 24l170 406h37l67 -405q1 -4 1.5 -10t1 -10.5l0.5 -4.5h2q1 1 2.5 4.5t4 9.5t4.5 11z" />
    <glyph glyph-name="Ygrave" unicode="&#x1ef2;" horiz-adv-x="540" 
d="M376 685l-33 -3l-64 117h50zM597 653l-275 -396l-33 -257h-38l33 257l-175 396h41l139 -313q11 -27 18 -52h1q12 27 30 52l219 313h40z" />
    <glyph glyph-name="ygrave" unicode="&#x1ef3;" horiz-adv-x="523" 
d="M350 548l-31 -3l-62 140h48zM465 465h36l-62 -483q-11 -90 -67.5 -140t-153.5 -50q-87 0 -155 45l21 30q20 -17 56 -30.5t83 -13.5q162 0 183 159l18 138h-1q-24 -55 -73 -89.5t-113 -34.5q-77 0 -113.5 49t-25.5 132l36 288h36l-36 -288q-9 -69 20.5 -109.5t92.5 -40.5
q48 0 89.5 27.5t64.5 65.5t30 76z" />
    <glyph glyph-name="uni1EF8" unicode="&#x1ef8;" horiz-adv-x="540" 
d="M265 674h-32v12q0 26 10 45t26.5 28t38.5 9q24 0 47 -15.5t42 -31t34 -15.5q42 0 42 55l-1 10h32l-1 -22q-3 -34 -22.5 -54t-50.5 -20q-23 0 -45.5 15.5t-42.5 31.5t-36 16q-18 0 -30 -14t-12 -40zM597 653l-275 -396l-33 -257h-38l33 257l-175 396h41l139 -313
q11 -27 18 -52h1q12 27 30 52l219 313h40z" />
    <glyph glyph-name="uni1EF9" unicode="&#x1ef9;" horiz-adv-x="523" 
d="M222 564h-31v12q0 38 20.5 61t54.5 23q19 0 37.5 -10t31 -21.5t27 -21.5t27.5 -10q41 0 41 55v10h32l-2 -22q-2 -34 -21.5 -54t-51.5 -20q-22 0 -44.5 15.5t-42 31.5t-35.5 16q-19 0 -31 -14t-12 -41v-10zM465 465h36l-62 -483q-11 -90 -67.5 -140t-153.5 -50
q-87 0 -155 45l21 30q12 -10 30 -19.5t47.5 -17t61.5 -7.5q162 0 183 159l18 138h-1q-24 -55 -72.5 -89.5t-113.5 -34.5q-77 0 -113.5 49t-25.5 132l36 288h36l-36 -288q-9 -69 20.5 -109.5t92.5 -40.5q48 0 89.5 27.5t64.5 65.5t30 76z" />
    <glyph glyph-name="endash" unicode="&#x2013;" horiz-adv-x="457" 
d="M99 259l3 31h326l-4 -31h-325z" />
    <glyph glyph-name="emdash" unicode="&#x2014;" horiz-adv-x="693" 
d="M99 259l3 31h562l-4 -31h-561z" />
    <glyph glyph-name="quoteleft" unicode="&#x2018;" horiz-adv-x="191" 
d="M193 512q0 -10 -4.5 -18.5t-13.5 -13t-20 -4.5q-15 0 -24 10.5t-9 29.5q0 24 8 48t20 40.5t24 29t20 19.5l8 6l19 -26q-6 -4 -15 -12.5t-26 -33t-20 -47.5q10 0 17.5 -3.5t11.5 -9.5t4 -15z" />
    <glyph glyph-name="quoteright" unicode="&#x2019;" horiz-adv-x="189" 
d="M145 622q0 16 10.5 26.5t27.5 10.5q16 0 25 -11t9 -29q0 -25 -8.5 -48.5t-20 -40t-23.5 -29.5t-20 -19l-9 -6l-19 25q6 5 15 13t26 32.5t21 47.5q-15 0 -24.5 7.5t-9.5 20.5z" />
    <glyph glyph-name="quotesinglbase" unicode="&#x201a;" horiz-adv-x="203" 
d="M68 22q0 16 11 26.5t28 10.5q15 0 24 -11t9 -29q0 -25 -8 -49t-20 -40t-24 -29t-20 -19l-8 -6l-19 25q6 5 15 13t25.5 32.5t20.5 47.5q-15 0 -24.5 7.5t-9.5 20.5z" />
    <glyph glyph-name="quotedblleft" unicode="&#x201c;" horiz-adv-x="305" 
d="M135 512q0 -16 -11 -26t-27 -10t-25 10.5t-9 29.5q0 24 8.5 48t20 40.5t23.5 29t20 19.5l9 6l18 -26q-6 -4 -15 -12.5t-25.5 -33t-20.5 -47.5q15 0 24.5 -7.5t9.5 -20.5zM241 512q0 -16 -10.5 -26t-27.5 -10q-16 0 -25 10.5t-9 29.5q0 24 8.5 48t20 40.5t23.5 29t20 19.5
l9 6l19 -26q-6 -4 -15 -12.5t-26 -33t-21 -47.5q10 0 17.5 -3t12 -9.5t4.5 -15.5z" />
    <glyph glyph-name="quotedblright" unicode="&#x201d;" horiz-adv-x="302" 
d="M184 659q15 0 24 -11t9 -29q0 -25 -8 -48.5t-20 -40t-24 -29.5t-21 -19l-8 -6l-18 25q6 5 15 13t25.5 32.5t20.5 47.5q-10 0 -18 3.5t-12 10t-4 14.5q0 16 10.5 26.5t28.5 10.5zM297 659q10 0 17.5 -5t12 -14t4.5 -21q0 -25 -8.5 -48.5t-20.5 -40t-24 -29.5t-20 -19
l-9 -6l-18 25q6 5 15 13t26 32.5t21 47.5q-16 0 -25.5 7.5t-9.5 20.5q0 16 11 26.5t28 10.5z" />
    <glyph glyph-name="quotedblbase" unicode="&#x201e;" horiz-adv-x="316" 
d="M68 22q0 16 11 26.5t28 10.5q15 0 24 -11t9 -29q0 -25 -8 -49t-20 -40t-24 -29t-20 -19l-8 -6l-19 25q6 5 15 13t25.5 32.5t20.5 47.5q-15 0 -24.5 7.5t-9.5 20.5zM186 22q0 16 10.5 26.5t27.5 10.5q10 0 18 -5t12 -14t4 -21q0 -25 -8.5 -49t-20 -40t-23.5 -29t-20 -19
l-9 -6l-19 25q6 5 15 13t26 32.5t21 47.5q-15 0 -24.5 7.5t-9.5 20.5z" />
    <glyph glyph-name="dagger" unicode="&#x2020;" horiz-adv-x="379" 
d="M385 465l-3 -31l-122 2l-28 -213l-52 -426h-33l56 426l27 213l-122 -2l4 31l121 -3l23 190h33l-25 -190z" />
    <glyph glyph-name="daggerdbl" unicode="&#x2021;" horiz-adv-x="379" 
d="M380 431l-119 1l-27 -196l-24 -200l121 1l-4 -29l-121 1l-26 -212h-33l28 212l-121 -1l3 29l121 -1l28 200l23 196l-121 -1l3 30l121 -1l24 193h33l-26 -193l121 1z" />
    <glyph glyph-name="bullet" unicode="&#x2022;" horiz-adv-x="317" 
d="M265 296q0 -32 -24 -55.5t-55 -23.5q-17 0 -31 8.5t-22 23.5t-8 33q0 32 24 55.5t55 23.5q27 0 44 -18.5t17 -46.5z" />
    <glyph glyph-name="ellipsis" unicode="&#x2026;" horiz-adv-x="480" 
d="M68 24q0 16 12 27t27 11q12 0 20.5 -9t8.5 -21q0 -16 -11.5 -27t-26.5 -11q-13 0 -21.5 9t-8.5 21zM206 24q0 16 11.5 27t26.5 11q8 0 15 -4t10.5 -11t3.5 -15q0 -16 -11.5 -27t-26.5 -11q-6 0 -11.5 2.5t-9.5 6.5t-6 9.5t-2 11.5zM351 24q0 16 11.5 27.5t26.5 11.5
q9 0 15.5 -4.5t10 -11.5t3.5 -15q0 -16 -11.5 -27t-26.5 -11q-12 0 -20.5 9t-8.5 21z" />
    <glyph glyph-name="perthousand" unicode="&#x2030;" horiz-adv-x="1167" 
d="M247 0l365 659h35l-365 -659h-35zM225 291q-60 0 -95 40.5t-35 110.5q0 47 13.5 87.5t37 68.5t56 43.5t69.5 15.5q60 0 94.5 -41.5t34.5 -113.5q0 -94 -49.5 -152.5t-125.5 -58.5zM229 323q59 0 96.5 49t37.5 127q0 58 -25.5 91.5t-70.5 33.5q-58 0 -97 -50t-39 -128
q0 -57 26.5 -90t71.5 -33zM606 -3q-60 0 -94.5 40.5t-34.5 110.5q0 95 49.5 155t125.5 60q60 0 95 -41.5t35 -113.5q0 -94 -50 -152.5t-126 -58.5zM978 -3q-59 0 -94 40.5t-35 110.5q0 95 49.5 155t125.5 60q61 0 95.5 -41.5t34.5 -113.5q0 -94 -49.5 -152.5t-126.5 -58.5z
M610 29q58 0 96.5 48.5t38.5 126.5q0 39 -11.5 67.5t-33.5 43.5t-52 15q-58 0 -97 -50t-39 -128q0 -57 26.5 -90t71.5 -33zM982 29q39 0 69.5 21.5t48 62t17.5 92.5q0 58 -25.5 91.5t-71.5 33.5q-58 0 -96 -50t-38 -128q0 -57 25.5 -90t70.5 -33z" />
    <glyph glyph-name="guilsinglleft" unicode="&#x2039;" horiz-adv-x="256" 
d="M78 248l5 32l141 131l17 -23l-137 -124l105 -124l-23 -23z" />
    <glyph glyph-name="guilsinglright" unicode="&#x203a;" horiz-adv-x="256" 
d="M99 117l-17 23l135 124l-103 124l22 23l109 -131l-5 -32z" />
    <glyph glyph-name="fraction" unicode="&#x2044;" horiz-adv-x="288" 
d="M22 0l301 726h37l-301 -726h-37z" />
    <glyph glyph-name="Euro" unicode="&#x20ac;" horiz-adv-x="673" 
d="M486 626q-88 0 -158 -56.5t-100 -155.5h293l-11 -30h-290q-12 -50 -12 -106v-6h266l-12 -30h-252q8 -99 62.5 -156.5t137.5 -57.5q121 0 202 100l22 -23q-13 -16 -29 -31t-44.5 -35t-69 -32t-85.5 -12q-101 0 -163.5 67t-70.5 180h-98l11 30h86v3q0 57 11 109h-90l11 30
h87q32 113 113 179t188 66q43 0 80 -12.5t60.5 -32t37 -35.5t22.5 -31l-27 -24q-9 16 -22 30.5t-34.5 32t-53 28.5t-68.5 11z" />
    <glyph glyph-name="trademark" unicode="&#x2122;" horiz-adv-x="662" 
d="M115 627l3 26h240l-3 -26h-104l-33 -249h-29l32 249h-106zM632 653h35l-35 -275h-27l29 229l-123 -229h-24l-64 229l-30 -229h-27l35 275h37l66 -234z" />
    <glyph glyph-name="minus" unicode="&#x2212;" horiz-adv-x="466" 
d="M103 235l3 30h321l-4 -30h-320z" />
    <glyph glyph-name="uni2215" unicode="&#x2215;" horiz-adv-x="364" 
d="M13 0l396 726h37l-396 -726h-37z" />
    <glyph glyph-name="uni2219" unicode="&#x2219;" horiz-adv-x="295" 
d="M179 246q-11 0 -17.5 7t-6.5 17q0 13 9 22t22 9q10 0 16.5 -6.5t6.5 -17.5q0 -9 -4 -16t-11 -11t-15 -4z" />
    <glyph glyph-name="approxequal" unicode="&#x2248;" horiz-adv-x="535" 
d="M114 314l3 30q48 30 102 30q36 0 94 -20t93 -20q59 0 102 30l-4 -30q-45 -30 -103 -30q-34 0 -92 20t-94 20q-24 0 -52.5 -8.5t-48.5 -21.5zM91 140l4 30q47 30 102 30q36 0 94 -20t93 -20q59 0 102 31l-4 -31q-45 -30 -102 -30q-35 0 -92.5 20t-94.5 20q-24 0 -53 -8.5
t-49 -21.5z" />
    <glyph glyph-name="notequal" unicode="&#x2260;" horiz-adv-x="515" 
d="M483 330h-143l-64 -154h187l-3 -30h-196l-60 -146h-33l60 146h-139l3 30h149l64 154h-193l4 30h201l46 112h32l-46 -112h135z" />
    <glyph glyph-name="uniF8FF" unicode="&#xf8ff;" horiz-adv-x="1467" 
d="M725 583q0 26 17.5 44t43.5 18t44 -18t18 -44t-18 -43.5t-44 -17.5t-43.5 18t-17.5 43zM253 270h-119q0 134 9 314h100q10 -200 10 -314zM728 270q0 92 3 147h-61l3 -65q4 -4 15 -4q13 0 18 5v-74q-14 -15 -68 -15q-82 0 -82 66q0 12 2 49t2 38h-22v79l119 30l1 -17h178
q10 -64 10 -239h-118zM362 265q-92 0 -92 114q0 135 134 135q124 0 124 -117v-127h-83l-8 61q-6 -33 -23.5 -49.5t-51.5 -16.5zM1124 270h-114q0 26 1 56t1 37q0 29 -15 29q-18 0 -18 -29q0 -7 1.5 -37t1.5 -56h-114q0 175 10 239h80q6 -44 6 -76q2 15 6.5 30t24 33t49.5 18
q42 0 58.5 -25t18.5 -81zM1385 391q0 -126 -123 -126q-122 0 -122 124q0 125 124 125q121 0 121 -123zM424 375q0 26 -24 26q-22 0 -22 -26q0 -30 22 -30q24 0 24 30zM1285 375q0 26 -23 26q-21 0 -21 -26q0 -30 21 -30q23 0 23 30zM462 238h104q10 -52 10 -138
q0 -81 -33.5 -115.5t-118.5 -34.5q-61 0 -88 17v83q24 -16 70 -16q21 0 34 6t16.5 11.5t3.5 10.5q-17 -11 -49 -11q-90 0 -90 83v13h-55l3 -65q6 -4 15 -4q13 0 18 5v-73q-19 -15 -68 -15q-45 0 -63 17t-18 54q0 39 3 81h-18v80l117 29l-1 -18h177v-119q0 -16 3 -21.5
t12 -5.5q16 0 16 27v119zM767 243q37 0 58.5 -29t21.5 -84q0 -135 -137 -135q1 -15 1 -39h-119q0 142 10 282h78q7 -42 7 -76q17 81 80 81zM1104 127q0 -21 -3 -35h-124q11 -18 50 -18q34 0 55 12v-75q-23 -16 -78 -16q-141 0 -141 122q0 59 32.5 92.5t92.5 33.5
q55 0 85.5 -30t30.5 -86zM1012 109q3 27 -17 27q-23 0 -23 -27h40zM704 72q5 0 12.5 2.5t16 11.5t8.5 23q0 23 -20 23q-22 0 -22 -31q0 -14 5 -29zM1108 13q0 -23 24 -23t24 23t-24 23t-24 -23zM1114 13q0 18 18 18t18 -18t-18 -18t-18 18zM1142 2l-6 9q7 0 7 7t-10 7h-11
v-23h5v9h5l4 -9h6zM1134 15h-7v6h7q4 0 4 -3t-4 -3z" />
    <glyph glyph-name="napostrophe.s001" horiz-adv-x="544" 
d="M76 594q1 1 4 2.5t10.5 7.5t13.5 12.5t11.5 16.5t6.5 21q-15 0 -24 8t-9 21q0 11 5.5 19.5t14 13t17.5 4.5q14 0 22.5 -9t8.5 -24q0 -22 -6.5 -42.5t-16.5 -33.5t-20 -23t-17 -14l-7 -4zM494 28q9 0 17 2l-1 -31q-13 -4 -30 -4q-27 0 -39.5 16.5t-8.5 48.5l28 224
q8 69 -24.5 111.5t-95.5 42.5q-51 0 -93.5 -28t-65.5 -65.5t-30 -76.5l-35 -268h-35l59 465l26 1q-2 -59 -11 -128h1q24 56 76 93.5t117 37.5q78 0 117.5 -51t29.5 -133l-28 -220q-5 -37 26 -37z" />
    <glyph glyph-name="ncommaaccent.s001" horiz-adv-x="544" 
d="M494 28q9 0 17 2l-1 -31q-13 -4 -30 -4q-27 0 -39.5 16.5t-8.5 48.5l28 224q8 69 -24.5 111.5t-95.5 42.5q-51 0 -93.5 -28t-66 -65.5t-29.5 -76.5l-35 -268h-35l59 465l26 1q-2 -59 -11 -128h1q24 56 76 93.5t117 37.5q78 0 117.5 -51t29.5 -133l-28 -220q-5 -37 26 -37
zM262 -47q14 0 22.5 -9.5t8.5 -25.5t-4 -30.5t-10 -25t-13 -19.5t-14 -14.5t-13 -10t-10 -6.5l-4 -2l-12 24q4 2 11 6t19.5 18t14.5 29q-15 0 -24 8t-9 21q0 10 5.5 18.5t14 13.5t17.5 5z" />
    <glyph glyph-name="uni0306.case.001" 
d="M47 655q-4 -33 -19.5 -58t-41 -39t-56.5 -14q-48 0 -72.5 30.5t-18.5 80.5h31q-6 -37 11.5 -60t51 -22.5t56.5 23t28 59.5h30z" />
    <glyph glyph-name="caroncomb.alt" 
d="M-34 410q0 16 11.5 26.5t25.5 10.5q10 0 17 -4t10.5 -11.5t3.5 -17.5q0 -22 -6.5 -42.5t-16.5 -33.5t-20 -23t-17 -14l-7 -4l-15 24q5 2 12 7t20 20.5t15 32.5q-10 0 -17.5 3.5t-11.5 10.5t-4 15z" />
    <glyph glyph-name="acutecomb.case" 
d="M-68 548l-33 -3l77 117h51z" />
    <glyph glyph-name="uni0306.case" 
d="M47 655q-4 -33 -19.5 -58t-41 -39t-56.5 -14q-48 0 -72.5 30.5t-18.5 80.5h31q-6 -37 11.5 -60t51 -22.5t56.5 23t28 59.5h30z" />
    <glyph glyph-name="uni030C.case" 
d="M-180 669l35 -2l67 -85l89 85l37 2l-107 -120h-44z" />
    <glyph glyph-name="uni0302.case" 
d="M-44 664l76 -119l-36 2l-67 85l-89 -85l-36 -2l107 119h45z" />
    <glyph glyph-name="uni0308.case" 
d="M-164 569q-8 0 -14 4t-9.5 10.5t-3.5 14.5q0 14 11 25t25 11q12 0 19.5 -8.5t7.5 -20.5q0 -15 -11 -25.5t-25 -10.5zM2 569q-8 0 -14.5 4t-10 10.5t-3.5 14.5q0 14 11 25t25 11q8 0 14.5 -4t10 -10.5t3.5 -14.5q0 -15 -11 -25.5t-25 -10.5z" />
    <glyph glyph-name="uni0307.case" 
d="M-10 565q-13 0 -21.5 9.5t-8.5 22.5q0 7 3 14t8.5 12t12.5 8t15 3t15 -4t11 -11t4 -15q0 -16 -12 -27.5t-27 -11.5z" />
    <glyph glyph-name="gravecomb.case" 
d="M-15 545l-65 117h50l48 -114z" />
    <glyph glyph-name="uni030B.case" 
d="M-171 548l-32 -3l77 117h50zM-40 548l-32 -3l77 117h50z" />
    <glyph glyph-name="uni0304.case" 
d="M-215 572l4 30h240l-4 -30h-240z" />
    <glyph glyph-name="uni030A.case" 
d="M-47 536q-26 0 -42.5 17.5t-16.5 43.5q0 32 23 54t53 22q26 0 42.5 -17t16.5 -43q0 -32 -22.5 -54.5t-53.5 -22.5zM3 610q0 17 -10 27.5t-26 10.5q-19 0 -32.5 -14t-13.5 -34q0 -18 9.5 -28t25.5 -10q20 0 33.5 13.5t13.5 34.5z" />
    <glyph glyph-name="uni0338.case" 
d="M106 716l-563 -732h-39l563 732h39z" />
    <glyph glyph-name="uni0337.case" 
d="M-280 338l311 177l12 -25l-311 -177z" />
    <glyph glyph-name="tildecomb.case" 
d="M31 633l-1 -22q-3 -34 -22.5 -54t-50.5 -20q-23 0 -45.5 15.5t-42.5 31.5t-36 16q-18 0 -30 -14t-12 -40l1 -10h-31q-1 7 -1 12q0 39 21 61t55 22q23 0 46 -16t42 -31.5t34 -15.5q42 0 42 55v10h31z" />
    <glyph glyph-name="caron.alt" horiz-adv-x="108" 
d="M142 414q0 -13 -2 -24.5t-6 -20.5t-9 -17.5t-11 -14.5t-11.5 -11t-10.5 -8.5t-9 -6t-6 -3.5l-3 -1l-12 23q4 2 11 6t19.5 17t14.5 28q-8 0 -14 2t-10.5 6t-6.5 9.5t-2 11.5q0 11 5.5 19.5t14 13t17.5 4.5t16 -4t11 -11.5t4 -17.5z" />
    <glyph glyph-name="acute.case" horiz-adv-x="228" 
d="M160 548l-33 -3l77 117h51z" />
    <glyph glyph-name="breve.case" horiz-adv-x="281" 
d="M328 655q-6 -49 -38 -80t-79 -31q-48 0 -72.5 30.5t-18.5 80.5h31q-6 -37 11.5 -60t51 -22.5t56.5 23t28 59.5h30z" />
    <glyph glyph-name="caron.case" horiz-adv-x="300" 
d="M123 669l35 -2l68 -85l88 85l37 2l-107 -120h-44z" />
    <glyph glyph-name="circumflex.case" horiz-adv-x="303" 
d="M259 664l76 -119l-36 2l-67 85l-89 -85l-36 -2l107 119h45z" />
    <glyph glyph-name="dieresis.case" horiz-adv-x="307" 
d="M143 569q-8 0 -14.5 4t-10 10.5t-3.5 14.5q0 14 11.5 25t25.5 11q11 0 19 -8.5t8 -20.5q0 -10 -5 -18.5t-13.5 -13t-17.5 -4.5zM308 569q-8 0 -14 4t-9.5 10.5t-3.5 14.5q0 14 11 25t25 11q12 0 19.5 -8.5t7.5 -20.5q0 -15 -11 -25.5t-25 -10.5z" />
    <glyph glyph-name="dotaccent.case" horiz-adv-x="166" 
d="M155 565q-13 0 -21.5 9.5t-8.5 22.5q0 6 2 11.5t6 10.5t8.5 8.5t10.5 5t12 1.5q12 0 21 -9t9 -21q0 -16 -12 -27.5t-27 -11.5z" />
    <glyph glyph-name="grave.case" horiz-adv-x="228" 
d="M212 545l-65 117h50l48 -114z" />
    <glyph glyph-name="hungarumlaut.case" horiz-adv-x="333" 
d="M163 548l-33 -3l77 117h50zM294 548l-33 -3l78 117h49z" />
    <glyph glyph-name="macron.case" horiz-adv-x="335" 
d="M121 572l3 30h240l-3 -30h-240z" />
    <glyph glyph-name="ring.case" horiz-adv-x="230" 
d="M184 536q-26 0 -43 17.5t-17 43.5q0 32 23 54t54 22q25 0 41.5 -17t16.5 -43q0 -32 -22.5 -54.5t-52.5 -22.5zM233 610q0 17 -9.5 27.5t-25.5 10.5q-20 0 -33 -14t-13 -34q0 -18 9 -28t26 -10q19 0 32.5 13.5t13.5 34.5z" />
    <glyph glyph-name="tilde.case" horiz-adv-x="350" 
d="M381 633l-1 -22q-3 -34 -22.5 -54t-50.5 -20q-23 0 -45.5 15.5t-42.5 31.5t-36 16q-18 0 -30 -14t-12 -40l1 -10h-32v12q0 39 21 61t55 22q23 0 46 -16t42 -31.5t34 -15.5q42 0 42 55v10h31z" />
    <glyph glyph-name="Rem" horiz-adv-x="451" 
 />
    <glyph glyph-name="IJacute" horiz-adv-x="647" 
d="M626 685l-33 -3l78 117h50zM211 685l-33 -3l77 117h51zM95 0l84 653h37l-83 -653h-38zM276 85q46 -57 112 -57q124 0 142 138l63 487h37l-62 -483q-22 -174 -184 -174q-85 0 -135 60z" />
    <glyph glyph-name="ijacute" horiz-adv-x="390" 
d="M380 539l-33 -3l80 140h49zM188 539l-33 -3l80 139h48zM93 -156q22 -21 62 -21q49 0 75 28.5t34 92.5l67 521l36 1l-66 -518q-7 -52 -25 -86.5t-48.5 -52t-74.5 -17.5q-23 0 -42 6t-26 12l-7 6zM177 466l-53 -404q-4 -34 24 -34q7 0 15 2l-1 -31q-13 -4 -28 -4
q-55 0 -46 61l53 409z" />
    <glyph glyph-name="commaccent" horiz-adv-x="570" 
 />
    </font>
</defs>
</svg>
