<?xml version="1.0" standalone="no"?>
<!DOCTYPE svg PUBLIC "-//W3C//DTD SVG 1.1//EN" "http://www.w3.org/Graphics/SVG/1.1/DTD/svg11.dtd" >
<svg xmlns="http://www.w3.org/2000/svg" xmlns:xlink="http://www.w3.org/1999/xlink" version="1.1">
<metadata>
Created by FontForge 20170731 at Mon Jul 18 17:13:25 2016
 By Aleksey,,,
Copyright (c) 2016 by Daniel Hernandez. All rights reserved.
</metadata>
<defs>
<font id="BasicSans-Thin" horiz-adv-x="0" >
  <font-face 
    font-family="BasicSans-Thin"
    font-weight="400"
    font-stretch="normal"
    units-per-em="1000"
    panose-1="0 0 3 0 0 0 0 0 0 0"
    ascent="773"
    descent="-227"
    x-height="462"
    cap-height="650"
    bbox="-515 -222 1351 925"
    underline-thickness="50"
    underline-position="-150"
    unicode-range="U+0020-FB02"
  />
<missing-glyph horiz-adv-x="414" 
 />
    <glyph glyph-name="fi" unicode="fi" horiz-adv-x="507" 
d="M137 462h286l20 1v-463h-20v444h-286v-444h-20v444h-70v18h70v98q0 69 36 109.5t95 40.5q66 0 101 -35l-12 -15q-39 31 -90 31q-49 0 -79.5 -36t-30.5 -95v-98zM434 643q11 0 19 -8t8 -19t-8 -19t-19 -8q-10 0 -18.5 8.5t-8.5 18.5q0 11 8 19t19 8z" />
    <glyph glyph-name="fl" unicode="fl" horiz-adv-x="546" 
d="M117 560q0 69 36 109.5t95 40.5q66 0 101 -35l-12 -15q-39 31 -90 31q-49 0 -79.5 -36t-30.5 -95v-98h188v-18h-188v-444h-20v444h-70v18h70v98zM433 706h20v-706h-20v706z" />
    <glyph glyph-name=".notdef" horiz-adv-x="414" 
 />
    <glyph glyph-name=".null" 
 />
    <glyph glyph-name="nonmarkingreturn" horiz-adv-x="333" 
 />
    <glyph glyph-name="space" unicode=" " horiz-adv-x="259" 
 />
    <glyph glyph-name="exclam" unicode="!" horiz-adv-x="225" 
d="M123 663l-2 -488l-18 -1l-2 489h22zM112 47q11 0 19 -7.5t8 -18.5t-8 -19t-19 -8t-19 8t-8 19q0 10 8 18t19 8z" />
    <glyph glyph-name="quotedbl" unicode="&#x22;" horiz-adv-x="245" 
d="M73 569l-2 137h23l-2 -137h-19zM154 569l-2 137h23l-2 -137h-19z" />
    <glyph glyph-name="numbersign" unicode="#" horiz-adv-x="622" 
d="M570 315h-132l-31 -140h127l-5 -20h-127l-34 -155h-20l34 155h-180l-34 -155h-19l34 155h-135l4 20h136l31 140h-131l5 19h130l35 156h19l-35 -156h180l35 156h20l-35 -156h132zM387 175l31 140h-180l-31 -140h180z" />
    <glyph glyph-name="dollar" unicode="$" horiz-adv-x="537" 
d="M488 156q0 -69 -54.5 -113t-146.5 -47v-93h-22v93q-137 2 -221 74l13 16q91 -71 218 -71q87 0 139.5 39t52.5 102q0 45 -21.5 76.5t-56.5 48.5t-77 29t-84 25t-77 30.5t-56.5 50.5t-21.5 81q0 69 53.5 113t138.5 46v91h22v-91q141 -6 190 -130l-23 -6q-6 16 -17 33
t-31.5 38t-55 34t-77.5 13q-78 0 -128 -39t-50 -101q0 -43 21.5 -72.5t56.5 -45.5t76.5 -28t83.5 -25.5t77 -32t56.5 -53.5t21.5 -85z" />
    <glyph glyph-name="percent" unicode="%" horiz-adv-x="841" 
d="M196 291q-69 0 -110.5 48.5t-41.5 131.5q0 85 41.5 135t110.5 50q70 0 112 -50t42 -135q0 -83 -42 -131.5t-112 -48.5zM271 0l293 656h21l-293 -656h-21zM196 310q59 0 95 43.5t36 117.5q0 76 -36 120.5t-95 44.5t-95 -44.5t-36 -120.5q0 -74 36 -117.5t95 -43.5zM644 -3
q-69 0 -111 48.5t-42 131.5q0 85 42 135t111 50t111 -50t42 -135q0 -83 -42 -131.5t-111 -48.5zM644 16q59 0 94.5 43.5t35.5 117.5q0 76 -35.5 120.5t-94.5 44.5q-60 0 -95.5 -44.5t-35.5 -120.5q0 -74 35.5 -117.5t95.5 -43.5z" />
    <glyph glyph-name="ampersand" unicode="&#x26;" horiz-adv-x="594" 
d="M549 293q0 -145 -74 -221l53 -62l-16 -11l-51 60q-74 -63 -201 -63q-92 0 -148.5 48t-56.5 126q0 69 41.5 109.5t114.5 68.5q-77 84 -77 159q0 67 42.5 108t110.5 41q66 0 102.5 -38t36.5 -101q0 -62 -44.5 -100t-138.5 -75q3 -2 5 -5l213 -249q66 72 66 212zM287 637
q-59 0 -95.5 -36t-36.5 -94q0 -69 76 -152q91 37 132.5 71t41.5 90t-30.5 88.5t-87.5 32.5zM260 15q120 0 187 59l-215 250q-6 6 -9 10q-71 -29 -109 -64.5t-38 -98.5q0 -71 50.5 -113.5t133.5 -42.5z" />
    <glyph glyph-name="quotesingle" unicode="'" horiz-adv-x="164" 
d="M73 569l-2 137h23l-2 -137h-19z" />
    <glyph glyph-name="parenleft" unicode="(" horiz-adv-x="254" 
d="M210 -215q-6 7 -16 21t-36 60.5t-45.5 97t-35.5 129t-16 158.5q0 83 15.5 160t37.5 128.5t43.5 91t36.5 57.5l16 19l16 -13q-6 -6 -15.5 -18t-34.5 -54t-44.5 -89.5t-35 -124t-15.5 -157.5q0 -79 15 -154.5t36.5 -127.5t42.5 -92t36 -59l15 -20z" />
    <glyph glyph-name="parenright" unicode=")" horiz-adv-x="255" 
d="M194 251q0 -80 -15.5 -157.5t-37.5 -131t-43.5 -95t-37.5 -61.5l-15 -21l-16 13q6 7 15.5 20t34.5 58t44.5 94t35 125.5t15.5 155.5q0 81 -15 157t-36 125.5t-42.5 87.5t-36.5 55l-15 18l16 13q6 -7 16 -19.5t36 -56t45.5 -92.5t35.5 -127t16 -161z" />
    <glyph glyph-name="asterisk" unicode="*" horiz-adv-x="417" 
d="M260 390l-54 126l-85 -107l-17 14l89 103l-134 21l5 20l131 -23l-54 118l19 9l51 -123l87 113l17 -14l-92 -107l140 -21l-3 -19l-138 23l58 -124z" />
    <glyph glyph-name="plus" unicode="+" horiz-adv-x="429" 
d="M372 261v-20h-147v-167h-21v167h-147v20h147v153h21v-153h147z" />
    <glyph glyph-name="comma" unicode="," horiz-adv-x="206" 
d="M74 19q0 11 7.5 18.5t19.5 7.5q14 0 22.5 -10t8.5 -28q0 -34 -13.5 -64.5t-26.5 -43.5l-14 -13l-17 19q44 39 46 89q-33 0 -33 25z" />
    <glyph glyph-name="hyphen" unicode="-" horiz-adv-x="401" 
d="M78 315v20h245v-20h-245z" />
    <glyph glyph-name="period" unicode="." horiz-adv-x="203" 
d="M74 21q0 11 8 19t19 8t19 -8t8 -19t-8 -19t-19 -8t-19 8t-8 19z" />
    <glyph glyph-name="slash" unicode="/" horiz-adv-x="371" 
d="M36 -204l278 910h22l-278 -910h-22z" />
    <glyph glyph-name="zero" unicode="0" horiz-adv-x="597" 
d="M298 -6q-110 0 -170 80.5t-60 244.5q0 170 60 253.5t170 83.5t170.5 -83.5t60.5 -253.5q0 -164 -60.5 -244.5t-170.5 -80.5zM298 14q209 0 209 305q0 161 -54.5 239.5t-154.5 78.5q-208 0 -208 -318q0 -305 208 -305z" />
    <glyph glyph-name="one" unicode="1" horiz-adv-x="318" 
d="M191 0v626l-165 -43v21l181 46h6v-650h-22z" />
    <glyph glyph-name="two" unicode="2" horiz-adv-x="520" 
d="M83 18q10 2 37 2h343v-20h-410v21q8 5 41.5 27.5t48 33t48.5 35t51.5 39.5t47 41.5t46 47t37.5 49t32 53.5t18.5 55t7.5 60q0 80 -48 128t-133 48q-74 0 -120 -40.5t-46 -105.5q0 -31 5 -31l-20 -5q-1 0 -2 4.5t-2.5 14.5t-1.5 20q0 71 52 116t135 45q95 0 148.5 -53
t53.5 -141q0 -208 -336 -422q-5 -3 -17 -10t-17 -10z" />
    <glyph glyph-name="three" unicode="3" horiz-adv-x="546" 
d="M267 656q88 0 142 -47.5t54 -125.5q0 -67 -49 -110t-112 -43v-1q41 0 79.5 -14.5t68.5 -53t30 -94.5q0 -78 -58 -124.5t-154 -46.5q-46 0 -85 11t-62.5 27t-41 32t-23.5 27l-7 11l17 11q2 -4 7 -11t23.5 -24t39.5 -30t57 -24t75 -11q86 0 138.5 41.5t52.5 110.5
q0 79 -58 115.5t-151 36.5h-31v20h31q84 0 138 38.5t54 105.5q0 69 -48.5 112t-126.5 43q-74 0 -120.5 -37.5t-46.5 -98.5l5 -31l-20 -5l-1 2q0 2 -1 5.5t-2 8t-1.5 11t-0.5 12.5q0 65 52.5 108t135.5 43z" />
    <glyph glyph-name="four" unicode="4" horiz-adv-x="539" 
d="M404 650v-459h99v-19h-99v-172h-22v172h-352v19l348 459h26zM382 191v401q0 26 2 31l-2 1l-21 -28l-286 -380q-15 -20 -20 -24l1 -2q3 1 30 1h296z" />
    <glyph glyph-name="five" unicode="5" horiz-adv-x="534" 
d="M111 650h329v-19h-311l-26 -282l2 -1q20 23 63 41.5t100 18.5q95 0 153.5 -57t58.5 -150t-60 -149t-161 -56q-39 0 -75 9.5t-58.5 23t-39 27t-24.5 22.5l-7 10l17 16q2 -4 7 -10t21.5 -21t36.5 -27t53 -21.5t69 -9.5q91 0 145.5 51t54.5 135q0 85 -52.5 136.5
t-139.5 51.5q-50 0 -91 -15.5t-57 -30.5l-16 -15h-22z" />
    <glyph glyph-name="six" unicode="6" horiz-adv-x="569" 
d="M301 407q94 0 152 -54t58 -143q0 -97 -58.5 -156t-155.5 -59q-106 0 -168.5 84t-62.5 235q0 165 71 253.5t189 88.5q105 0 166 -70l-15 -15l-3 3l-10 10t-15 13t-21.5 14.5t-27.5 13.5t-34 9.5t-40 3.5q-108 0 -174 -85t-66 -239q0 -43 4 -72l4 -1q8 73 65.5 119.5
t141.5 46.5zM297 14q86 0 139.5 54t53.5 142q0 80 -52.5 129.5t-137.5 49.5q-89 0 -144.5 -57.5t-56.5 -138.5q21 -88 72.5 -133.5t125.5 -45.5z" />
    <glyph glyph-name="seven" unicode="7" horiz-adv-x="484" 
d="M460 650v-19l-277 -631h-22l260 589q14 31 20 41l-1 2q-14 -1 -58 -1h-323v-101h-21v120h422z" />
    <glyph glyph-name="eight" unicode="8" horiz-adv-x="577" 
d="M363 349q152 -29 152 -172q0 -81 -62.5 -131t-164.5 -50t-164 50t-62 131q0 143 152 172v1q-56 13 -86 52.5t-30 95.5q0 71 53 114.5t137 43.5q85 0 138 -43.5t53 -114.5q0 -56 -30.5 -95.5t-85.5 -52.5v-1zM119 498q0 -65 46.5 -104t122.5 -36q77 -3 123.5 36t46.5 104
q0 63 -47 101.5t-123 38.5q-75 0 -122 -38.5t-47 -101.5zM288 16q93 0 149 45t56 117q0 78 -54 119.5t-151 41.5t-150.5 -41.5t-53.5 -119.5q0 -72 56 -117t148 -45z" />
    <glyph glyph-name="nine" unicode="9" horiz-adv-x="567" 
d="M269 656q106 0 169 -84t63 -235q0 -165 -67 -253.5t-184 -88.5q-50 0 -91.5 18t-53.5 29.5t-21 22.5l15 15l3 -4q4 -3 10 -9t15 -13t22 -14t27.5 -13t34 -9.5t39.5 -3.5q107 0 169 83.5t62 239.5q0 35 -5 72l-3 1q-9 -73 -66.5 -119.5t-140.5 -46.5q-94 0 -152 54
t-58 143q0 97 58.5 156t154.5 59zM266 263q87 0 143.5 56t58.5 135q-21 90 -72.5 137t-126.5 47q-86 0 -139 -54.5t-53 -142.5q0 -80 52 -129t137 -49z" />
    <glyph glyph-name="colon" unicode=":" horiz-adv-x="209" 
d="M77 440q0 10 8.5 18.5t18.5 8.5q11 0 19 -8t8 -19t-8 -19t-19 -8t-19 8t-8 19zM77 21q0 11 8.5 19t18.5 8q11 0 19 -8t8 -19t-8 -19t-19 -8t-19 8t-8 19z" />
    <glyph glyph-name="semicolon" unicode=";" horiz-adv-x="235" 
d="M92 440q0 10 8 18.5t19 8.5t19 -8t8 -19t-8 -19t-19 -8t-19 8t-8 19zM92 19q0 11 7.5 18.5t19.5 7.5q14 0 22.5 -10t8.5 -28q0 -34 -13.5 -64.5t-26.5 -43.5l-14 -13l-17 19q44 39 46 89q-33 0 -33 25z" />
    <glyph glyph-name="less" unicode="&#x3c;" horiz-adv-x="391" 
d="M40 265v20l287 201v-22l-269 -189l269 -189v-22z" />
    <glyph glyph-name="equal" unicode="=" horiz-adv-x="551" 
d="M81 335v20h389v-20h-389zM81 155v19h389v-19h-389z" />
    <glyph glyph-name="greater" unicode="&#x3e;" horiz-adv-x="391" 
d="M65 64v22l268 189l-268 189v22l287 -201v-20z" />
    <glyph glyph-name="question" unicode="?" horiz-adv-x="445" 
d="M211 671q85 0 136.5 -46.5t51.5 -122.5q0 -41 -18.5 -75.5t-45.5 -60t-53.5 -51.5t-45.5 -61t-20 -76v-4l-20 -1v5q1 43 20 80t45.5 63.5t53.5 52t45.5 58t18.5 70.5q0 68 -46 109.5t-122 41.5q-66 0 -107 -39t-41 -97l5 -31l-19 -4q-6 16 -6 38q0 64 47 107.5t121 43.5z
M206 47q11 0 19 -7.5t8 -18.5t-8 -19t-19 -8t-19 8t-8 19q0 10 8 18t19 8z" />
    <glyph glyph-name="at" unicode="@" horiz-adv-x="870" 
d="M657 48q-42 0 -65.5 23.5t-23.5 70.5v18h-1q-12 -49 -52 -80.5t-100 -31.5q-77 0 -124 54t-47 142t47.5 141.5t125.5 53.5q56 0 96.5 -30.5t53.5 -77.5v101h20v-290q0 -76 70 -76q53 0 91 58t38 151q0 150 -94.5 242t-251.5 92q-161 0 -261 -102t-100 -269
q0 -160 100 -258t264 -98q55 0 103.5 11t78.5 27t52.5 32t32.5 27l9 11l13 -15q-3 -4 -10 -11.5t-33 -26.5t-56 -33.5t-81.5 -26.5t-108.5 -12q-172 0 -277 102.5t-105 270.5q0 174 105 281t274 107q165 0 264.5 -96t99.5 -255q0 -102 -41.5 -164.5t-105.5 -62.5zM417 66
q70 0 110 47.5t40 101.5v60q0 52 -41 99t-109 47t-110.5 -49t-42.5 -128t42.5 -128.5t110.5 -49.5z" />
    <glyph glyph-name="A" unicode="A" horiz-adv-x="592" 
d="M537 0l-77 199h-329l-76 -199h-23l251 650h24l252 -650h-22zM139 219h314l-150 388l-7 22h-2q-1 -7 -6 -22z" />
    <glyph glyph-name="B" unicode="B" horiz-adv-x="613" 
d="M404 340q60 -9 102 -49t42 -123q0 -82 -58 -125t-167 -43h-217v650h218q96 0 149 -43.5t53 -125.5q0 -36 -13 -63.5t-33.5 -42.5t-39 -22.5t-36.5 -10.5v-2zM504 481q0 68 -45 109t-137 41h-194v-281h226q71 0 110.5 37.5t39.5 93.5zM323 20q203 0 203 149
q0 74 -45 117.5t-127 43.5h-226v-310h195z" />
    <glyph glyph-name="C" unicode="C" horiz-adv-x="631" 
d="M348 656q62 0 110 -22t72.5 -54.5t36.5 -61t13 -50.5l-21 -5q-1 12 -6 30.5t-20.5 44.5t-37.5 47.5t-60.5 37t-86.5 15.5q-116 0 -189.5 -84.5t-73.5 -227.5q0 -144 75 -227.5t198 -83.5q43 0 81 11.5t64 30t40.5 33t25.5 29.5l16 -14q-82 -109 -227 -109
q-133 0 -213.5 87.5t-80.5 242.5q0 154 79 242t205 88z" />
    <glyph glyph-name="D" unicode="D" horiz-adv-x="645" 
d="M254 650q149 0 238 -86.5t89 -237.5q0 -150 -76 -238t-211 -88h-188v650h148zM294 20q125 0 195.5 82.5t70.5 223.5q0 143 -83 224t-223 81h-127v-611h167z" />
    <glyph glyph-name="E" unicode="E" horiz-adv-x="541" 
d="M486 631h-359v-281h329v-20h-329v-310h359v-20h-380v650h380v-19z" />
    <glyph glyph-name="F" unicode="F" horiz-adv-x="501" 
d="M471 631h-344v-281h304v-20h-304v-330h-21v650h365v-19z" />
    <glyph glyph-name="G" unicode="G" horiz-adv-x="648" 
d="M289 277v20h282v-297h-14q-6 102 -6 126q-21 -56 -75.5 -93t-137.5 -37q-125 0 -199.5 90.5t-74.5 239.5t76.5 239.5t201.5 90.5q52 0 94 -15t66.5 -36.5t42 -49t24 -48.5t8.5 -38l-22 -6q0 12 -5 30.5t-19.5 44.5t-37 47.5t-62 37t-89.5 15.5q-116 0 -186.5 -86
t-70.5 -226q0 -141 68.5 -226t184.5 -85q55 0 98.5 19t67 47.5t35.5 57t12 52.5v86h-262z" />
    <glyph glyph-name="H" unicode="H" horiz-adv-x="703" 
d="M576 650h21v-650h-21v330h-449v-330h-21v650h21v-300h449v300z" />
    <glyph glyph-name="I" unicode="I" horiz-adv-x="234" 
d="M106 0v650h21v-650h-21z" />
    <glyph glyph-name="J" unicode="J" horiz-adv-x="419" 
d="M32 72q55 -57 129 -57q137 0 137 144v491h21v-487q0 -167 -158 -167q-87 0 -143 58z" />
    <glyph glyph-name="K" unicode="K" horiz-adv-x="556" 
d="M506 0l-264 310h-115v-310h-21v650h21v-320h113l266 320h25l-272 -329l273 -321h-26z" />
    <glyph glyph-name="L" unicode="L" horiz-adv-x="501" 
d="M127 20h360v-20h-381v650h21v-630z" />
    <glyph glyph-name="M" unicode="M" horiz-adv-x="808" 
d="M702 650v-650h-21v587q0 30 1 36l-2 1q-1 -3 -14 -36l-252 -590h-18l-254 589q-11 23 -14 37l-2 -1q1 -7 1 -36v-587h-21v650h32l251 -586q11 -25 15 -42h2q11 32 15 42l248 586h33z" />
    <glyph glyph-name="N" unicode="N" horiz-adv-x="688" 
d="M582 650v-650h-33l-383 568q-37 57 -38 59l-2 -1q2 -10 2 -46v-580h-22v650h30l384 -569l40 -61l2 1q-2 14 -2 48v581h22z" />
    <glyph glyph-name="O" unicode="O" horiz-adv-x="706" 
d="M353 656q128 0 209 -88.5t81 -241.5t-81 -241.5t-209 -88.5q-127 0 -208 88.5t-81 241.5t81 241.5t208 88.5zM353 15q117 0 193 84.5t76 226.5t-76 227t-193 85t-192.5 -84.5t-75.5 -227.5q0 -142 75.5 -226.5t192.5 -84.5z" />
    <glyph glyph-name="P" unicode="P" horiz-adv-x="575" 
d="M310 650q100 0 161.5 -55.5t61.5 -146.5q0 -88 -61 -141.5t-161 -53.5h-184v-253h-21v650h204zM310 273q91 0 146.5 48t55.5 127q0 82 -55.5 132.5t-146.5 50.5h-183v-358h183z" />
    <glyph glyph-name="Q" unicode="Q" horiz-adv-x="706" 
d="M643 326q0 -142 -70.5 -229t-185.5 -99q121 -44 216 -52l-6 -21q-15 2 -30.5 4.5t-27.5 4t-28 6t-24.5 6.5t-25.5 7.5t-22.5 7.5t-24.5 9t-21.5 8t-23.5 9.5t-22 8.5q-125 2 -204 90t-79 240q0 153 81 241.5t208 88.5q128 0 209 -88.5t81 -241.5zM85 326
q0 -142 75.5 -226.5t192.5 -84.5t193 84.5t76 226.5t-76 227t-193 85t-192.5 -84.5t-75.5 -227.5z" />
    <glyph glyph-name="R" unicode="R" horiz-adv-x="589" 
d="M571 17l2 -20q-5 -1 -15 -1q-39 0 -67 28t-47 68t-41 80t-61 68t-93 28h-122v-268h-21v650h184q95 0 153 -52.5t58 -140.5q0 -81 -50.5 -129t-136.5 -58q35 -4 64 -31.5t48.5 -64t38 -73t42.5 -61.5t53 -25zM127 287h155q86 0 142 46t56 124t-53 126t-139 48h-161v-344z
" />
    <glyph glyph-name="S" unicode="S" horiz-adv-x="547" 
d="M455 520q-6 16 -17 33t-31.5 38t-55 34t-77.5 13q-78 0 -128 -39t-50 -101q0 -43 21.5 -72.5t56.5 -45.5t76.5 -28t83.5 -25.5t77 -32t56.5 -53.5t21.5 -85q0 -72 -58 -116t-155 -44q-145 0 -231 74l13 16q91 -71 218 -71q87 0 139.5 39t52.5 102q0 45 -21.5 76.5
t-56.5 48.5t-77 29t-84 25t-77 30.5t-56.5 50.5t-21.5 81q0 71 56 115t144 44q152 0 204 -130z" />
    <glyph glyph-name="T" unicode="T" horiz-adv-x="519" 
d="M248 0v631h-234v19h491v-19h-236v-631h-21z" />
    <glyph glyph-name="U" unicode="U" horiz-adv-x="677" 
d="M559 650h21v-384q0 -132 -63 -201t-178 -69t-178.5 69t-63.5 201v384h21v-384q0 -124 57.5 -187.5t163.5 -63.5q105 0 162.5 63.5t57.5 187.5v384z" />
    <glyph glyph-name="V" unicode="V" horiz-adv-x="587" 
d="M54 650l232 -607q4 -11 6 -21h2q1 6 7 21l232 607h21l-249 -650h-24l-249 650h22z" />
    <glyph glyph-name="W" unicode="W" horiz-adv-x="879" 
d="M822 650h21l-193 -650h-28l-172 585q-5 15 -10 40h-1q-7 -32 -9 -40l-172 -585h-30l-193 650h23l179 -607q4 -17 5 -22h2l6 22l179 607h21l180 -607q4 -16 5 -22h2q2 6 6 22z" />
    <glyph glyph-name="X" unicode="X" horiz-adv-x="547" 
d="M519 650l-231 -330l231 -320h-24l-200 272q-7 9 -20 35h-1q-2 -4 -22 -34l-199 -273h-24l231 319l-231 331h24l199 -282q19 -29 22 -37h1q5 14 21 38l198 281h25z" />
    <glyph glyph-name="Y" unicode="Y" horiz-adv-x="564" 
d="M533 650l-240 -389v-261h-22v263l-240 387h26l202 -328q6 -10 14.5 -26t8.5 -17h1l5 10t9 17t10 16l202 328h24z" />
    <glyph glyph-name="Z" unicode="Z" horiz-adv-x="533" 
d="M34 0v20l422 586l18 24l-1 2q-6 -1 -42 -1h-387v19h456v-19l-422 -587q-12 -19 -19 -23l1 -2q7 1 43 1h387v-20h-456z" />
    <glyph glyph-name="bracketleft" unicode="[" horiz-adv-x="249" 
d="M101 -204v910h111v-19h-91v-872h91v-19h-111z" />
    <glyph glyph-name="backslash" unicode="\" horiz-adv-x="371" 
d="M336 -204h-22l-278 910h22z" />
    <glyph glyph-name="bracketright" unicode="]" horiz-adv-x="249" 
d="M37 -204v19h91v872h-91v19h111v-910h-111z" />
    <glyph glyph-name="asciicircum" unicode="^" horiz-adv-x="350" 
d="M59 533l101 177h29l101 -177h-23l-93 155l-91 -155h-24z" />
    <glyph glyph-name="underscore" unicode="_" horiz-adv-x="321" 
d="M0 -89v19h321v-19h-321z" />
    <glyph glyph-name="grave" unicode="`" horiz-adv-x="229" 
d="M151 546l-81 135h28l69 -133z" />
    <glyph glyph-name="a" unicode="a" horiz-adv-x="511" 
d="M469 17l2 -18q-9 -3 -22 -3q-51 0 -51 58v58h-1q-21 -47 -70 -81.5t-126 -34.5q-69 0 -107 30t-38 84q0 40 21 67.5t62.5 42.5t90 22.5t116.5 9.5l52 1v47q0 67 -42.5 107.5t-114.5 40.5q-67 0 -110 -34.5t-43 -91.5q0 -4 0.5 -7.5t0.5 -6.5t0.5 -5.5t1.5 -4.5t1 -3.5
v-2.5l1 -1l-18 -4q-6 16 -6 38q0 63 48.5 102t123.5 39q82 0 129.5 -45t47.5 -121v-245q0 -40 35 -40q8 0 16 2zM205 15q43 0 78.5 13.5t55.5 32t34.5 39t19.5 34t5 17.5v84l-52 -2q-62 -2 -107 -8t-84 -19t-59 -37t-20 -58q0 -44 33.5 -70t95.5 -26z" />
    <glyph glyph-name="b" unicode="b" horiz-adv-x="572" 
d="M301 467q95 0 153.5 -64.5t58.5 -170.5t-58.5 -170.5t-153.5 -64.5q-75 0 -125 38.5t-66 97.5h-1q0 -73 -4 -132h-15v699h20v-369q16 59 67 97.5t124 38.5zM300 16q87 0 140 59.5t53 156.5q0 98 -53 157.5t-140 59.5q-85 0 -137.5 -57.5t-52.5 -120.5v-76
q0 -64 51 -121.5t139 -57.5z" />
    <glyph glyph-name="c" unicode="c" horiz-adv-x="503" 
d="M274 466q79 0 126.5 -43t47.5 -111l-2 -27l-20 -2q2 13 2 25q0 62 -42 101t-113 39q-87 0 -141 -60t-54 -158q0 -97 54.5 -156t147.5 -59q94 0 147 58l14 -14q-59 -63 -160 -63q-103 0 -163 64t-60 170t59.5 171t156.5 65z" />
    <glyph glyph-name="d" unicode="d" horiz-adv-x="571" 
d="M460 700h20v-699l-14 -1q-4 59 -4 133h-1q-16 -59 -66.5 -97.5t-124.5 -38.5q-95 0 -153.5 64.5t-58.5 170.5t58.5 170.5t153.5 64.5q71 0 122 -37t68 -95v365zM270 16q89 0 139.5 57.5t50.5 121.5v76q0 63 -52 120.5t-138 57.5t-139 -60t-53 -157t53 -156.5t139 -59.5z
" />
    <glyph glyph-name="e" unicode="e" horiz-adv-x="507" 
d="M266 466q81 0 133 -53.5t52 -146.5l-2 -31h-371v-4q0 -98 54 -157t146 -59q94 0 146 58l14 -13q-57 -64 -160 -64q-101 0 -160.5 64t-59.5 170q0 109 59.5 172.5t148.5 63.5zM267 448q-76 0 -128.5 -52.5t-59.5 -141.5h352v11q0 86 -45 134.5t-119 48.5z" />
    <glyph glyph-name="f" unicode="f" horiz-adv-x="341" 
d="M247 691q-49 0 -79.5 -36t-30.5 -95v-98h188v-18h-188v-444h-20v444h-70v18h70v98q0 69 36 109.5t95 40.5q66 0 101 -35l-12 -15q-39 31 -90 31z" />
    <glyph glyph-name="g" unicode="g" horiz-adv-x="509" 
d="M315 54q76 0 120 -33.5t44 -89.5q0 -67 -59.5 -103t-165.5 -36q-98 0 -157.5 35.5t-59.5 95.5q0 45 28 75t74 42q-73 15 -73 71q0 29 23.5 48.5t54.5 21.5q-61 45 -61 126q0 73 48.5 117t126.5 44q72 0 120 -38q30 3 45.5 28.5t15.5 56.5l21 -5q0 -40 -21 -64.5
t-48 -26.5q44 -44 44 -112q0 -72 -48.5 -116t-128.5 -44q-54 0 -93 21q-38 -1 -59 -16.5t-21 -40.5q0 -34 30 -45.5t92 -11.5h108zM103 307q0 -64 42.5 -103t112.5 -39t113.5 39t43.5 103t-43.5 103.5t-113.5 39.5t-112.5 -39.5t-42.5 -103.5zM254 -189q96 0 150.5 30.5
t54.5 89.5q0 48 -37 76t-108 28h-111q-64 0 -105 -30.5t-41 -81.5t54 -81.5t143 -30.5z" />
    <glyph glyph-name="h" unicode="h" horiz-adv-x="563" 
d="M300 466q82 0 130.5 -51t48.5 -132v-283h-20v283q0 73 -44 119t-116 46q-83 0 -136 -58.5t-53 -121.5v-268h-20v706h19v-375h2q17 58 68 96.5t121 38.5z" />
    <glyph glyph-name="i" unicode="i" horiz-adv-x="205" 
d="M130 616q0 -11 -8 -19t-19 -8t-19 8.5t-8 18.5q0 11 8 19t19 8t19 -8t8 -19zM92 0v462l20 1v-463h-20z" />
    <glyph glyph-name="j" unicode="j" horiz-adv-x="211" 
d="M138 616q0 -11 -8 -19t-19 -8t-19 8.5t-8 18.5q0 11 8 19t19 8t19 -8t8 -19zM-78 -168q26 -21 72 -21q54 0 79 30t25 99v522l20 1v-523q0 -76 -30 -112t-94 -36q-23 0 -43 6t-28 12l-8 5z" />
    <glyph glyph-name="k" unicode="k" horiz-adv-x="465" 
d="M424 0l-234 257h-80v-257h-20v706h20v-431h84l209 187h29l-222 -197l242 -265h-28z" />
    <glyph glyph-name="l" unicode="l" horiz-adv-x="205" 
d="M92 0v706h20v-706h-20z" />
    <glyph glyph-name="m" unicode="m" horiz-adv-x="889" 
d="M633 466q79 0 125.5 -51t46.5 -132v-283h-20v283q0 74 -41.5 119.5t-111.5 45.5q-78 0 -126 -58.5t-48 -121.5v-268h-20v283q0 74 -41.5 119.5t-111.5 45.5q-78 0 -126.5 -58.5t-48.5 -121.5v-268h-20v462l15 1q4 -57 4 -133h1q15 59 62.5 97.5t114.5 38.5q69 0 113 -39
t55 -105q13 62 61.5 103t116.5 41z" />
    <glyph glyph-name="n" unicode="n" horiz-adv-x="563" 
d="M300 466q82 0 130.5 -51t48.5 -132v-283h-20v283q0 73 -44 119t-116 46q-83 0 -136 -58.5t-53 -121.5v-268h-20v462l15 1q4 -57 4 -133h1v-2q16 59 67.5 98.5t122.5 39.5z" />
    <glyph glyph-name="o" unicode="o" horiz-adv-x="552" 
d="M276 466q99 0 159 -64.5t60 -170.5t-60 -170.5t-159 -64.5q-98 0 -158 64.5t-60 170.5t60 170.5t158 64.5zM276 15q89 0 144 59.5t55 156.5t-55 157t-144 60t-143.5 -59.5t-54.5 -157.5q0 -97 54.5 -156.5t143.5 -59.5z" />
    <glyph glyph-name="p" unicode="p" horiz-adv-x="572" 
d="M301 466q95 0 153.5 -64.5t58.5 -170.5t-58.5 -170.5t-153.5 -64.5q-73 0 -124 38.5t-67 97.5v-336h-20v666l15 1q4 -57 4 -133h1q16 59 66 97.5t125 38.5zM300 15q87 0 140 59.5t53 156.5q0 98 -53 157.5t-140 59.5q-88 0 -139 -58t-51 -122v-76q0 -63 52.5 -120
t137.5 -57z" />
    <glyph glyph-name="q" unicode="q" horiz-adv-x="571" 
d="M466 462h14v-666h-20v332q-17 -58 -68 -95t-122 -37q-95 0 -153.5 64.5t-58.5 170.5t58.5 170.5t153.5 64.5q74 0 124.5 -38.5t66.5 -97.5h1q0 75 4 132zM270 15q86 0 138 57t52 120v76q0 65 -50.5 122.5t-139.5 57.5q-86 0 -139 -60t-53 -157t53 -156.5t139 -59.5z" />
    <glyph glyph-name="r" unicode="r" horiz-adv-x="307" 
d="M249 466q26 0 41 -5l-4 -19q-15 5 -37 5q-44 0 -77.5 -35.5t-47.5 -76t-14 -72.5v-263h-20v462l15 1q4 -57 4 -133h1q13 55 50 95.5t89 40.5z" />
    <glyph glyph-name="s" unicode="s" horiz-adv-x="445" 
d="M353 321q3 3 3 24q0 49 -38 76t-98 27t-96.5 -27.5t-36.5 -71.5q0 -39 31 -62t75.5 -33.5t89 -22t75.5 -39t31 -73.5q0 -57 -44 -90t-123 -33q-21 0 -41.5 2.5t-35.5 7t-29.5 10.5t-24.5 11.5t-18.5 12t-13.5 10.5t-9 8l-4 4l16 12q59 -59 160 -59q68 0 107.5 27.5
t39.5 74.5q0 40 -31 64t-75.5 35t-89 22.5t-75.5 38.5t-31 71q0 53 41.5 85.5t111.5 32.5q68 0 111.5 -30.5t43.5 -85.5l-2 -26z" />
    <glyph glyph-name="t" unicode="t" horiz-adv-x="363" 
d="M343 46l10 -15q-43 -36 -108 -36q-68 0 -99.5 35.5t-31.5 108.5v305h-80v18h80v145l20 2v-147h199v-18h-199v-305q0 -63 26 -94t85 -31q26 0 50.5 8t36.5 16z" />
    <glyph glyph-name="u" unicode="u" horiz-adv-x="549" 
d="M439 462h20v-462l-15 -1q-4 59 -4 133h-1v2q-16 -59 -67 -98.5t-121 -39.5q-80 0 -123.5 48.5t-43.5 130.5v287h20v-287q0 -74 39 -117t109 -43q84 0 135.5 57.5t51.5 121.5v268z" />
    <glyph glyph-name="v" unicode="v" horiz-adv-x="483" 
d="M431 462h21l-196 -462h-29l-196 462h22l184 -435q3 -7 4 -9h2q1 6 3 9z" />
    <glyph glyph-name="w" unicode="w" horiz-adv-x="691" 
d="M636 462h21l-145 -462h-30l-124 398q-6 18 -11 36h-1q-5 -18 -11 -36l-124 -398h-31l-145 462h22l133 -428l5 -16h2l5 16l134 428h21l135 -428l4 -16h2q4 13 6 16z" />
    <glyph glyph-name="x" unicode="x" horiz-adv-x="436" 
d="M403 462l-173 -231l173 -231h-25l-153 205q-5 6 -6 10h-1q-1 -4 -6 -10l-153 -205h-25l172 231l-173 231h26l153 -205q5 -6 7 -11h1q4 9 6 11l152 205h25z" />
    <glyph glyph-name="y" unicode="y" horiz-adv-x="483" 
d="M211 -117q-18 -45 -40.5 -68t-64.5 -23q-13 0 -25 2t-17 4l-6 3l3 20q17 -10 45 -10q33 0 50 17t33 56l44 107l-200 471h22l184 -435q3 -4 4 -9h2l3 9l185 435h21z" />
    <glyph glyph-name="z" unicode="z" horiz-adv-x="425" 
d="M39 0v19l311 414l9 11l-1 1q-4 -1 -21 -1h-291v18h336v-18l-311 -415q-3 -4 -9 -10l1 -2q4 2 21 2h298v-19h-343z" />
    <glyph glyph-name="braceleft" unicode="{" horiz-adv-x="272" 
d="M238 -208q-53 0 -87.5 30.5t-34.5 100.5v242q0 33 -19 50t-45 17h-10v18h10q26 0 45 17t19 50v262q0 71 34.5 101t87.5 30v-20q-102 0 -102 -112v-262q0 -26 -10.5 -44t-20 -24t-18.5 -7q49 -18 49 -75v-242q0 -112 102 -112v-20z" />
    <glyph glyph-name="bar" unicode="|" horiz-adv-x="224" 
d="M101 -204v900h22v-900h-22z" />
    <glyph glyph-name="braceright" unicode="}" horiz-adv-x="272" 
d="M34 -188q102 0 102 112v242q0 57 49 75q-9 2 -18.5 7t-20 23t-10.5 45v262q0 112 -102 112v20q53 0 87.5 -30t34.5 -101v-262q0 -33 19 -50t45 -17h10v-18h-10q-26 0 -45 -17t-19 -50v-242q0 -70 -34.5 -100.5t-87.5 -30.5v20z" />
    <glyph glyph-name="asciitilde" unicode="~" horiz-adv-x="563" 
d="M83 264v21q46 29 101 29q36 0 99 -20t98 -20q61 0 102 31v-21q-43 -30 -102 -30q-35 0 -98 20t-99 20q-59 0 -101 -30z" />
    <glyph glyph-name="exclamdown" unicode="&#xa1;" horiz-adv-x="201" 
d="M101 413q-11 0 -19 7.5t-8 18.5t8 19t19 8t18.5 -8t7.5 -19t-7.5 -18.5t-18.5 -7.5zM89 -203l3 487l17 1l3 -488h-23z" />
    <glyph glyph-name="cent" unicode="&#xa2;" horiz-adv-x="506" 
d="M283 15q94 0 147 58l14 -14q-55 -60 -150 -63v-91h-18v91q-99 3 -157 67t-58 167t58 167t157 67v92h18v-92q95 -3 150 -63l-14 -13q-55 58 -147 58q-93 0 -147.5 -59t-54.5 -157q0 -97 54.5 -156t147.5 -59z" />
    <glyph glyph-name="sterling" unicode="&#xa3;" horiz-adv-x="552" 
d="M116 18q6 2 16 2h350v-20h-402v19q4 2 11.5 6t26 18.5t33 30.5t26 42.5t11.5 54.5q0 49 -34 104h-99v20h87q-20 33 -29 48.5t-19.5 48.5t-10.5 65q0 90 59 145t156 55q43 0 79 -9.5t57 -22.5t36 -26.5t20 -22.5l6 -10l-19 -10q-2 3 -5.5 8.5t-18.5 20t-33.5 25t-51 19.5
t-70.5 9q-86 0 -139.5 -50t-53.5 -131q0 -16 3.5 -33t6 -27.5t11.5 -29t12 -23.5t16 -26t14 -23h254v-20h-242q30 -55 30 -104q0 -14 -2.5 -27.5t-6.5 -24.5t-10 -22t-12.5 -19.5t-13.5 -16.5t-13.5 -13.5l-13 -11t-11 -8t-8.5 -5.5l-4 -3z" />
    <glyph glyph-name="currency" unicode="&#xa4;" horiz-adv-x="592" 
d="M138 348q0 46 24 86l-84 85l13 13l82 -83q49 59 123 59q72 0 123 -59l82 83l13 -13l-84 -85q26 -45 26 -87q0 -47 -26 -86l84 -85l-13 -13l-82 82q-46 -56 -122 -56q-79 0 -124 58l-82 -84l-13 13l84 86q-24 36 -24 86zM157 348q0 -59 40.5 -99.5t99.5 -40.5
q58 0 98.5 40.5t40.5 98.5q0 60 -40.5 100.5t-99.5 40.5q-58 0 -98.5 -41t-40.5 -99z" />
    <glyph glyph-name="yen" unicode="&#xa5;" horiz-adv-x="561" 
d="M531 650l-233 -378h176v-19h-183v-90h183v-19h-183v-144h-22v144h-182v19h182v90h-182v19h176l-234 378h26l202 -328q6 -10 14.5 -26t8.5 -17h1l5 10t9 17t10 16l202 328h24z" />
    <glyph glyph-name="brokenbar" unicode="&#xa6;" horiz-adv-x="222" 
d="M100 335v361h22v-361h-22zM100 -204v361h22v-361h-22z" />
    <glyph glyph-name="section" unicode="&#xa7;" horiz-adv-x="558" 
d="M403 78q90 -42 90 -134q0 -71 -57.5 -111t-155.5 -40q-145 0 -231 74l13 16q91 -71 218 -71q89 0 140.5 35t51.5 97q0 58 -40.5 91.5t-98 47t-115.5 26.5t-98.5 45t-40.5 89q0 41 26 72t67 43q-93 43 -93 139q0 71 56 115t144 44q152 0 204 -130l-23 -6q-6 16 -17 33
t-31.5 38t-55 34t-77.5 13q-78 0 -128 -39t-50 -101q0 -44 21.5 -74.5t56.5 -46t76.5 -26.5t83.5 -21.5t77 -25.5t56.5 -43.5t21.5 -70.5q0 -84 -91 -112zM100 243q0 -34 16.5 -58t48 -37.5t63 -21.5t76.5 -18t72 -19q97 20 97 101q0 34 -16.5 57t-48.5 37t-63.5 23
t-76 19.5t-72.5 21.5q-42 -9 -69 -37.5t-27 -67.5z" />
    <glyph glyph-name="dieresis" unicode="&#xa8;" horiz-adv-x="310" 
d="M71 588q-11 0 -18.5 8t-7.5 18q0 11 7.5 19t18.5 8t19 -8t8 -19t-8 -18.5t-19 -7.5zM239 588q-11 0 -19 8t-8 18q0 11 8 19t19 8t19 -8t8 -19t-8 -18.5t-19 -7.5z" />
    <glyph glyph-name="copyright" unicode="&#xa9;" horiz-adv-x="778" 
d="M388 -3q-146 0 -235.5 90.5t-89.5 238.5t89.5 238.5t235.5 90.5q147 0 237 -90.5t90 -238.5t-90 -238.5t-237 -90.5zM388 15q138 0 222.5 85.5t84.5 225.5t-84.5 225.5t-222.5 85.5q-137 0 -221 -85.5t-84 -225.5t84 -225.5t221 -85.5zM547 175q-5 -7 -15 -18t-49 -29.5
t-87 -18.5q-87 0 -140.5 55.5t-53.5 146.5q0 98 52.5 158.5t138.5 60.5q37 0 66 -11t44.5 -26t26 -32t13.5 -27t3 -14l-20 -4q-1 4 -2.5 10.5t-10.5 22.5t-22 28.5t-39 23t-59 10.5q-77 0 -124 -55t-47 -145q0 -82 48 -132.5t127 -50.5q44 0 78.5 15t46.5 30l13 15z" />
    <glyph glyph-name="ordfeminine" unicode="&#xaa;" horiz-adv-x="452" 
d="M391 308l2 -17l-7 -1q-7 -1 -12 -1q-43 0 -43 46v42h-1q-41 -88 -150 -88q-54 0 -84 24t-30 66q0 59 58.5 83.5t168.5 26.5l38 1v36q0 51 -32.5 81.5t-87.5 30.5q-51 0 -83.5 -26t-32.5 -68l4 -24l-18 -4q-5 13 -5 30q0 49 38 79.5t98 30.5q64 0 101.5 -35t37.5 -95v-188
q0 -31 27 -31q3 0 7.5 0.5t5.5 0.5zM184 307q32 0 59 10t42.5 23.5t26.5 29.5t15 26.5t4 14.5v62l-38 -1q-65 -2 -107.5 -9.5t-71 -28t-28.5 -54.5q0 -33 25.5 -53t72.5 -20z" />
    <glyph glyph-name="guillemotleft" unicode="&#xab;" horiz-adv-x="391" 
d="M52 254v20l125 130l13 -15l-124 -125l124 -125l-13 -15zM180 254v20l125 130l13 -15l-124 -125l124 -125l-13 -15z" />
    <glyph glyph-name="registered" unicode="&#xae;" horiz-adv-x="474" 
d="M237 306q-77 0 -125.5 48.5t-48.5 125.5q0 78 48.5 127t125.5 49t126 -49t49 -127q0 -77 -49 -125.5t-126 -48.5zM237 322q68 0 112.5 45t44.5 113q0 69 -45 115t-112 46q-68 0 -112.5 -45.5t-44.5 -115.5t44 -114t113 -44zM325 378q-5 -1 -10 -1q-17 0 -27.5 13.5
t-15.5 29.5t-16.5 29.5t-29.5 13.5h-41v-85h-19v213h70q29 0 47 -17t18 -45q0 -17 -6 -29.5t-15 -19.5t-14.5 -9.5t-9.5 -3.5q17 -6 31.5 -40t29.5 -34h5zM229 479q25 0 39 13.5t14 36.5q0 21 -14 34t-36 13h-47v-97h44z" />
    <glyph glyph-name="macron" unicode="&#xaf;" horiz-adv-x="341" 
d="M50 605v19h241v-19h-241z" />
    <glyph glyph-name="degree" unicode="&#xb0;" horiz-adv-x="351" 
d="M290 541q0 -51 -31.5 -82.5t-83.5 -31.5q-51 0 -82.5 31.5t-31.5 82.5q0 52 31.5 83.5t82.5 31.5q52 0 83.5 -31.5t31.5 -83.5zM274 541q0 45 -27.5 72t-71.5 27t-71 -27t-27 -72q0 -44 27 -71t71 -27t71.5 27t27.5 71z" />
    <glyph glyph-name="plusminus" unicode="&#xb1;" horiz-adv-x="477" 
d="M249 331h147v-20h-147v-127h-21v127h-148v20h148v124h21v-124zM80 88v19h316v-19h-316z" />
    <glyph glyph-name="acute" unicode="&#xb4;" horiz-adv-x="229" 
d="M87 548l-19 -2l69 135h29z" />
    <glyph glyph-name="paragraph" unicode="&#xb6;" horiz-adv-x="494" 
d="M368 -204v836h-90v-836h-19v533h-31q-89 0 -143.5 44t-54.5 116q0 73 54.5 117t143.5 44h159v-854h-19z" />
    <glyph glyph-name="periodcentered" unicode="&#xb7;" horiz-adv-x="209" 
d="M77 366q0 10 8.5 18.5t18.5 8.5q11 0 19 -8t8 -19t-8 -19t-19 -8t-19 8t-8 19z" />
    <glyph glyph-name="cedilla" unicode="&#xb8;" horiz-adv-x="254" 
d="M123 -40q32 -3 55 -21t23 -49t-22.5 -49.5t-60.5 -18.5q-20 0 -36 6t-22 12l-7 6l9 15q22 -20 57 -20q29 0 46 13.5t17 35.5t-20 39.5t-64 17.5l20 54l20 -1z" />
    <glyph glyph-name="ordmasculine" unicode="&#xba;" horiz-adv-x="463" 
d="M232 656q78 0 125 -50.5t47 -133.5t-47 -133t-125 -50t-125.5 50t-47.5 133t47.5 133.5t125.5 50.5zM232 307q68 0 110 45.5t42 119.5q0 75 -42 120.5t-110 45.5t-110 -45.5t-42 -120.5q0 -74 42 -119.5t110 -45.5z" />
    <glyph glyph-name="guillemotright" unicode="&#xbb;" horiz-adv-x="391" 
d="M86 124l-13 15l125 125l-125 125l13 15l126 -130v-20zM214 124l-13 15l124 125l-124 125l13 15l126 -130v-20z" />
    <glyph glyph-name="onequarter" unicode="&#xbc;" horiz-adv-x="781" 
d="M187 0l293 656h21l-293 -656h-21zM150 292v335l-121 -25v22l138 27h5v-359h-22zM672 359v-248h74v-19h-74v-92h-22v92h-237v21l236 246h23zM650 111v205q0 16 1 19l-1 1q-1 -1 -2.5 -3t-5 -6t-8.5 -9l-184 -193q-4 -4 -16 -13l1 -2q2 1 24 1h191z" />
    <glyph glyph-name="onehalf" unicode="&#xbd;" horiz-adv-x="781" 
d="M187 0l293 656h21l-293 -656h-21zM150 292v335l-121 -25v22l138 27h5v-359h-22zM472 18q4 1 26 1h238v-19h-296v24q17 10 63 33.5t74 40t61.5 41.5t50.5 52.5t17 57.5q0 44 -33.5 69t-93.5 25q-51 0 -82.5 -23.5t-31.5 -61.5q0 -10 3 -16l-21 -5q-4 8 -4 24
q0 46 37.5 73.5t98.5 27.5q70 0 109 -30t39 -82q0 -19 -7 -38t-16 -33.5t-27.5 -31.5t-31.5 -27.5t-38 -25.5t-37 -22t-39 -21.5t-35 -18.5q-10 -6 -25 -12z" />
    <glyph glyph-name="threequarters" unicode="&#xbe;" horiz-adv-x="865" 
d="M289 0l293 656h21l-293 -656h-21zM192 654q64 0 102.5 -26.5t38.5 -70.5q0 -36 -34.5 -59.5t-77.5 -23.5v-1q47 0 86 -22t39 -66q0 -43 -41.5 -69t-111.5 -26q-31 0 -57.5 6.5t-42.5 15t-27.5 17.5t-16.5 15l-5 7l17 11q5 -6 14.5 -15t43.5 -23.5t74 -14.5q60 0 96 21
t36 57q0 39 -39.5 57.5t-104.5 18.5h-24v20h23q59 0 95 19.5t36 53.5q0 35 -32.5 57t-86.5 22q-45 0 -75.5 -19t-30.5 -49q0 -13 4 -17l-21 -4l-1 3q-1 3 -2 8.5t-1 11.5q0 37 36.5 61t90.5 24zM759 359v-248h74v-19h-74v-92h-22v92h-237v21l236 246h23zM737 111v205
q0 16 1 19l-1 1q-1 -1 -2.5 -3t-5 -6t-8.5 -9l-184 -193q-4 -4 -16 -13l1 -2q2 1 24 1h191z" />
    <glyph glyph-name="questiondown" unicode="&#xbf;" horiz-adv-x="437" 
d="M235 413q-11 0 -19 8t-8 19t8 18.5t19 7.5t18.5 -8t7.5 -18q0 -11 -7.5 -19t-18.5 -8zM229 -211q-84 0 -135.5 46.5t-51.5 122.5q0 41 18.5 75.5t45.5 60t53.5 51.5t45.5 61t20 76v4l19 1v-5q0 -43 -19 -80t-45.5 -63t-53.5 -51.5t-45.5 -58.5t-18.5 -71q0 -68 46 -109.5
t121 -41.5q66 0 107.5 39t41.5 97l-5 31l19 4q6 -16 6 -38q0 -64 -47 -107.5t-122 -43.5z" />
    <glyph glyph-name="Agrave" unicode="&#xc0;" horiz-adv-x="592" 
d="M306 681l-19 -2l-81 114h31zM537 0l-77 199h-329l-76 -199h-23l251 650h24l252 -650h-22zM139 219h314l-150 388l-7 22h-2q-1 -7 -6 -22z" />
    <glyph glyph-name="Aacute" unicode="&#xc1;" horiz-adv-x="592" 
d="M380 793l-81 -112l-19 -2l69 114h31zM537 0l-77 199h-329l-76 -199h-23l251 650h24l252 -650h-22zM139 219h314l-150 388l-7 22h-2q-1 -7 -6 -22z" />
    <glyph glyph-name="Acircumflex" unicode="&#xc2;" horiz-adv-x="592" 
d="M295 771l-87 -91l-23 -1l96 114h29l96 -114l-24 1zM537 0l-77 199h-329l-76 -199h-23l251 650h24l252 -650h-22zM139 219h314l-150 388l-7 22h-2q-1 -7 -6 -22z" />
    <glyph glyph-name="Atilde" unicode="&#xc3;" horiz-adv-x="592" 
d="M186 673h-20q-2 13 -2 24q0 28 16.5 44.5t44.5 16.5q30 0 74 -32.5t63 -32.5q40 0 40 41l-2 24h21q2 -13 2 -24q0 -61 -61 -61q-28 0 -72 32t-65 32q-18 0 -29.5 -11t-11.5 -29zM537 0l-77 199h-329l-76 -199h-23l251 650h24l252 -650h-22zM139 219h314l-150 388l-7 22
h-2q-1 -7 -6 -22z" />
    <glyph glyph-name="Adieresis" unicode="&#xc4;" horiz-adv-x="592" 
d="M209 706q-11 0 -18.5 8t-7.5 18q0 11 7.5 19t18.5 8t19 -8t8 -19t-8 -18.5t-19 -7.5zM377 706q-11 0 -19 8t-8 18q0 11 8 19t19 8t19 -8t8 -19q0 -10 -8 -18t-19 -8zM537 0l-77 199h-329l-76 -199h-23l251 650h24l252 -650h-22zM139 219h314l-150 388l-7 22h-2
q-1 -7 -6 -22z" />
    <glyph glyph-name="Aring" unicode="&#xc5;" horiz-adv-x="592" 
d="M295 672q-28 0 -46.5 18t-18.5 46t18.5 46.5t46.5 18.5t47 -18.5t19 -46.5t-18.5 -46t-47.5 -18zM295 783q-20 0 -33 -13t-13 -34q0 -20 13 -33t33 -13q21 0 34 13t13 33q0 21 -13 34t-34 13zM537 0l-77 199h-329l-76 -199h-23l251 650h24l252 -650h-22zM139 219h314
l-150 388l-7 22h-2q-1 -7 -6 -22z" />
    <glyph glyph-name="AE" unicode="&#xc6;" horiz-adv-x="952" 
d="M897 631h-359v-281h329v-20h-329v-310h359v-20h-380v199h-332l-159 -199h-26l517 649v1h380v-19zM201 219h316v397z" />
    <glyph glyph-name="Ccedilla" unicode="&#xc7;" horiz-adv-x="631" 
d="M585 105q-11 -15 -26.5 -30t-42 -34t-65.5 -31.5t-83 -13.5l-14 -36q32 -3 55 -21t23 -49t-22.5 -49.5t-60.5 -18.5q-20 0 -36 6t-23 12l-6 6l9 15q22 -20 57 -20q29 0 46 13.5t17 35.5t-20 39.5t-64 17.5l18 49q-129 4 -206 91.5t-77 238.5q0 154 79 242t205 88
q62 0 110 -22t72.5 -54.5t36.5 -61t13 -50.5l-21 -5q-1 12 -6 30.5t-20.5 44.5t-37.5 47.5t-60.5 37t-86.5 15.5q-116 0 -189.5 -84.5t-73.5 -227.5q0 -144 75 -227.5t198 -83.5q43 0 81 11.5t64 30t40.5 33t25.5 29.5z" />
    <glyph glyph-name="Egrave" unicode="&#xc8;" horiz-adv-x="541" 
d="M312 681l-19 -2l-81 114h31zM486 631h-359v-281h329v-20h-329v-310h359v-20h-380v650h380v-19z" />
    <glyph glyph-name="Eacute" unicode="&#xc9;" horiz-adv-x="541" 
d="M386 793l-81 -112l-19 -2l69 114h31zM486 631h-359v-281h329v-20h-329v-310h359v-20h-380v650h380v-19z" />
    <glyph glyph-name="Ecircumflex" unicode="&#xca;" horiz-adv-x="541" 
d="M301 771l-87 -91l-23 -1l96 114h29l96 -114l-24 1zM486 631h-359v-281h329v-20h-329v-310h359v-20h-380v650h380v-19z" />
    <glyph glyph-name="Edieresis" unicode="&#xcb;" horiz-adv-x="541" 
d="M215 706q-11 0 -18.5 8t-7.5 18q0 11 7.5 19t18.5 8t19 -8t8 -19t-8 -18.5t-19 -7.5zM383 706q-11 0 -19 8t-8 18q0 11 8 19t19 8t19 -8t8 -19q0 -10 -8 -18t-19 -8zM486 631h-359v-281h329v-20h-329v-310h359v-20h-380v650h380v-19z" />
    <glyph glyph-name="Igrave" unicode="&#xcc;" horiz-adv-x="234" 
d="M109 679l-81 114h31l69 -112zM106 0v650h21v-650h-21z" />
    <glyph glyph-name="Iacute" unicode="&#xcd;" horiz-adv-x="234" 
d="M121 681l-19 -2l69 114h31zM106 0v650h21v-650h-21z" />
    <glyph glyph-name="Icircumflex" unicode="&#xce;" horiz-adv-x="234" 
d="M132 793l96 -114l-24 1l-87 91l-87 -91l-23 -1l96 114h29zM106 0v650h21v-650h-21z" />
    <glyph glyph-name="Idieresis" unicode="&#xcf;" horiz-adv-x="234" 
d="M31 706q-11 0 -18.5 8t-7.5 18q0 11 7.5 19t18.5 8t19 -8t8 -19t-8 -18.5t-19 -7.5zM199 706q-11 0 -19 8t-8 18q0 11 8 19t19 8t19 -8t8 -19q0 -10 -8 -18t-19 -8zM106 0v650h21v-650h-21z" />
    <glyph glyph-name="Eth" unicode="&#xd0;" horiz-adv-x="645" 
d="M254 650q149 0 238 -86.5t89 -237.5q0 -150 -76 -238t-211 -88h-188v317h-74v18h74v315h148zM294 20q125 0 195.5 82.5t70.5 223.5q0 143 -83 224t-223 81h-127v-296h199v-18h-199v-297h167z" />
    <glyph glyph-name="Ntilde" unicode="&#xd1;" horiz-adv-x="688" 
d="M484 758q2 -13 2 -24q0 -61 -61 -61q-27 0 -71 32t-66 32q-18 0 -29.5 -11t-11.5 -29l2 -24h-20q-2 13 -2 24q0 28 16.5 44.5t44.5 16.5q30 0 74 -32.5t63 -32.5q40 0 40 41l-2 24h21zM582 650v-650h-33l-383 568q-37 57 -38 59l-2 -1q2 -10 2 -46v-580h-22v650h30
l384 -569l40 -61l2 1q-2 14 -2 48v581h22z" />
    <glyph glyph-name="Ograve" unicode="&#xd2;" horiz-adv-x="706" 
d="M345 679l-81 114h31l69 -112zM353 656q128 0 209 -88.5t81 -241.5t-81 -241.5t-209 -88.5q-127 0 -208 88.5t-81 241.5t81 241.5t208 88.5zM353 15q117 0 193 84.5t76 226.5t-76 227t-193 85t-192.5 -84.5t-75.5 -227.5q0 -142 75.5 -226.5t192.5 -84.5z" />
    <glyph glyph-name="Oacute" unicode="&#xd3;" horiz-adv-x="706" 
d="M357 681l-19 -2l69 114h31zM353 656q128 0 209 -88.5t81 -241.5t-81 -241.5t-209 -88.5q-127 0 -208 88.5t-81 241.5t81 241.5t208 88.5zM353 15q117 0 193 84.5t76 226.5t-76 227t-193 85t-192.5 -84.5t-75.5 -227.5q0 -142 75.5 -226.5t192.5 -84.5z" />
    <glyph glyph-name="Ocircumflex" unicode="&#xd4;" horiz-adv-x="706" 
d="M368 793l96 -114l-24 1l-87 91l-87 -91l-23 -1l96 114h29zM353 656q128 0 209 -88.5t81 -241.5t-81 -241.5t-209 -88.5q-127 0 -208 88.5t-81 241.5t81 241.5t208 88.5zM353 15q117 0 193 84.5t76 226.5t-76 227t-193 85t-192.5 -84.5t-75.5 -227.5q0 -142 75.5 -226.5
t192.5 -84.5z" />
    <glyph glyph-name="Otilde" unicode="&#xd5;" horiz-adv-x="706" 
d="M479 758q2 -13 2 -24q0 -61 -61 -61q-27 0 -71.5 32t-65.5 32q-18 0 -29.5 -11t-11.5 -29l2 -24h-20q-2 13 -2 24q0 28 16.5 44.5t44.5 16.5q30 0 74 -32.5t63 -32.5q40 0 40 41l-2 24h21zM353 656q128 0 209 -88.5t81 -241.5t-81 -241.5t-209 -88.5q-127 0 -208 88.5
t-81 241.5t81 241.5t208 88.5zM353 15q117 0 193 84.5t76 226.5t-76 227t-193 85t-192.5 -84.5t-75.5 -227.5q0 -142 75.5 -226.5t192.5 -84.5z" />
    <glyph glyph-name="Odieresis" unicode="&#xd6;" horiz-adv-x="706" 
d="M267 706q-11 0 -18.5 8t-7.5 18q0 11 7.5 19t18.5 8t19 -8t8 -19t-8 -18.5t-19 -7.5zM435 706q-11 0 -19 8t-8 18q0 11 8 19t19 8t19 -8t8 -19q0 -10 -8 -18t-19 -8zM353 656q128 0 209 -88.5t81 -241.5t-81 -241.5t-209 -88.5q-127 0 -208 88.5t-81 241.5t81 241.5
t208 88.5zM353 15q117 0 193 84.5t76 226.5t-76 227t-193 85t-192.5 -84.5t-75.5 -227.5q0 -142 75.5 -226.5t192.5 -84.5z" />
    <glyph glyph-name="multiply" unicode="&#xd7;" horiz-adv-x="429" 
d="M348 368l-120 -120l120 -120l-14 -14l-120 120l-120 -120l-14 14l120 120l-120 120l14 14l120 -120l120 120z" />
    <glyph glyph-name="Oslash" unicode="&#xd8;" horiz-adv-x="706" 
d="M542 587q101 -90 101 -261q0 -153 -81 -241.5t-209 -88.5q-100 0 -174 57l-66 -97h-24l75 110q-100 90 -100 260q0 153 81 241.5t208 88.5q101 0 174 -56l60 88h24zM85 326q0 -156 91 -242l339 499q-67 55 -162 55q-117 0 -192.5 -84.5t-75.5 -227.5zM353 15
q117 0 193 84.5t76 226.5q0 157 -92 243l-339 -499q67 -55 162 -55z" />
    <glyph glyph-name="Ugrave" unicode="&#xd9;" horiz-adv-x="677" 
d="M331 679l-81 114h31l69 -112zM559 650h21v-384q0 -132 -63 -201t-178 -69t-178.5 69t-63.5 201v384h21v-384q0 -124 57.5 -187.5t163.5 -63.5q105 0 162.5 63.5t57.5 187.5v384z" />
    <glyph glyph-name="Uacute" unicode="&#xda;" horiz-adv-x="677" 
d="M343 681l-19 -2l69 114h31zM559 650h21v-384q0 -132 -63 -201t-178 -69t-178.5 69t-63.5 201v384h21v-384q0 -124 57.5 -187.5t163.5 -63.5q105 0 162.5 63.5t57.5 187.5v384z" />
    <glyph glyph-name="Ucircumflex" unicode="&#xdb;" horiz-adv-x="677" 
d="M354 793l96 -114l-24 1l-87 91l-87 -91l-23 -1l96 114h29zM559 650h21v-384q0 -132 -63 -201t-178 -69t-178.5 69t-63.5 201v384h21v-384q0 -124 57.5 -187.5t163.5 -63.5q105 0 162.5 63.5t57.5 187.5v384z" />
    <glyph glyph-name="Udieresis" unicode="&#xdc;" horiz-adv-x="677" 
d="M253 706q-11 0 -18.5 8t-7.5 18q0 11 7.5 19t18.5 8t19 -8t8 -19t-8 -18.5t-19 -7.5zM421 706q-11 0 -19 8t-8 18q0 11 8 19t19 8t19 -8t8 -19q0 -10 -8 -18t-19 -8zM559 650h21v-384q0 -132 -63 -201t-178 -69t-178.5 69t-63.5 201v384h21v-384q0 -124 57.5 -187.5
t163.5 -63.5q105 0 162.5 63.5t57.5 187.5v384z" />
    <glyph glyph-name="Yacute" unicode="&#xdd;" horiz-adv-x="564" 
d="M367 793l-81 -112l-19 -2l69 114h31zM533 650l-240 -389v-261h-22v263l-240 387h26l202 -328q6 -10 14.5 -26t8.5 -17h1l5 10t9 17t10 16l202 328h24z" />
    <glyph glyph-name="Thorn" unicode="&#xde;" horiz-adv-x="574" 
d="M306 530q100 0 161 -55.5t61 -147.5q0 -88 -61 -141.5t-161 -53.5h-179v-132h-21v650h21v-120h179zM306 152q90 0 145.5 48t55.5 127q0 82 -55.5 132.5t-145.5 50.5h-179v-358h179z" />
    <glyph glyph-name="germandbls" unicode="&#xdf;" horiz-adv-x="526" 
d="M314 376q71 -14 113 -64t42 -124q0 -91 -48.5 -141.5t-140.5 -50.5q-26 0 -50.5 4t-36.5 8l-12 4l6 19q34 -16 93 -16q82 0 125.5 46.5t43.5 126.5q0 78 -53 126.5t-134 48.5h-17v18h4q63 1 101.5 46.5t38.5 117.5q0 66 -40 106t-105 40q-60 0 -97 -40t-37 -107v-544h-20
v545q0 74 42.5 119.5t111.5 45.5q74 0 119.5 -45.5t45.5 -119.5q0 -129 -95 -169z" />
    <glyph glyph-name="agrave" unicode="&#xe0;" horiz-adv-x="511" 
d="M268 548l-16 -2l-81 135h28zM469 17l2 -18q-9 -3 -22 -3q-51 0 -51 58v58h-1q-21 -47 -70 -81.5t-126 -34.5q-69 0 -107 30t-38 84q0 40 21 67.5t62.5 42.5t90 22.5t116.5 9.5l52 1v47q0 67 -42.5 107.5t-114.5 40.5q-67 0 -110 -34.5t-43 -91.5q0 -4 0.5 -7.5t0.5 -6.5
t0.5 -5.5t1.5 -4.5t1 -3.5v-2.5l1 -1l-18 -4q-6 16 -6 38q0 63 48.5 102t123.5 39q82 0 129.5 -45t47.5 -121v-245q0 -40 35 -40q8 0 16 2zM205 15q43 0 78.5 13.5t55.5 32t34.5 39t19.5 34t5 17.5v84l-52 -2q-62 -2 -107 -8t-84 -19t-59 -37t-20 -58q0 -44 33.5 -70
t95.5 -26z" />
    <glyph glyph-name="aacute" unicode="&#xe1;" horiz-adv-x="511" 
d="M299 681l-79 -133l-19 -2l69 135h29zM469 17l2 -18q-9 -3 -22 -3q-51 0 -51 58v58h-1q-21 -47 -70 -81.5t-126 -34.5q-69 0 -107 30t-38 84q0 40 21 67.5t62.5 42.5t90 22.5t116.5 9.5l52 1v47q0 67 -42.5 107.5t-114.5 40.5q-67 0 -110 -34.5t-43 -91.5q0 -4 0.5 -7.5
t0.5 -6.5t0.5 -5.5t1.5 -4.5t1 -3.5v-2.5l1 -1l-18 -4q-6 16 -6 38q0 63 48.5 102t123.5 39q82 0 129.5 -45t47.5 -121v-245q0 -40 35 -40q8 0 16 2zM205 15q43 0 78.5 13.5t55.5 32t34.5 39t19.5 34t5 17.5v84l-52 -2q-62 -2 -107 -8t-84 -19t-59 -37t-20 -58
q0 -44 33.5 -70t95.5 -26z" />
    <glyph glyph-name="acircumflex" unicode="&#xe2;" horiz-adv-x="511" 
d="M238 658l-87 -111l-23 -1l96 134h29l96 -134l-24 1zM469 17l2 -18q-9 -3 -22 -3q-51 0 -51 58v58h-1q-21 -47 -70 -81.5t-126 -34.5q-69 0 -107 30t-38 84q0 40 21 67.5t62.5 42.5t90 22.5t116.5 9.5l52 1v47q0 67 -42.5 107.5t-114.5 40.5q-67 0 -110 -34.5t-43 -91.5
q0 -4 0.5 -7.5t0.5 -6.5t0.5 -5.5t1.5 -4.5t1 -3.5v-2.5l1 -1l-18 -4q-6 16 -6 38q0 63 48.5 102t123.5 39q82 0 129.5 -45t47.5 -121v-245q0 -40 35 -40q8 0 16 2zM205 15q43 0 78.5 13.5t55.5 32t34.5 39t19.5 34t5 17.5v84l-52 -2q-62 -2 -107 -8t-84 -19t-59 -37
t-20 -58q0 -44 33.5 -70t95.5 -26z" />
    <glyph glyph-name="atilde" unicode="&#xe3;" horiz-adv-x="511" 
d="M132 568h-20q-2 14 -2 25q0 28 16.5 44.5t44.5 16.5q30 0 74 -32.5t63 -32.5q40 0 40 41l-2 24h21q2 -13 2 -24q0 -61 -61 -61q-28 0 -72 32t-65 32q-18 0 -29.5 -10.5t-11.5 -29.5zM469 17l2 -18q-9 -3 -22 -3q-51 0 -51 58v58h-1q-21 -47 -70 -81.5t-126 -34.5
q-69 0 -107 30t-38 84q0 40 21 67.5t62.5 42.5t90 22.5t116.5 9.5l52 1v47q0 67 -42.5 107.5t-114.5 40.5q-67 0 -110 -34.5t-43 -91.5q0 -4 0.5 -7.5t0.5 -6.5t0.5 -5.5t1.5 -4.5t1 -3.5v-2.5l1 -1l-18 -4q-6 16 -6 38q0 63 48.5 102t123.5 39q82 0 129.5 -45t47.5 -121
v-245q0 -40 35 -40q8 0 16 2zM205 15q43 0 78.5 13.5t55.5 32t34.5 39t19.5 34t5 17.5v84l-52 -2q-62 -2 -107 -8t-84 -19t-59 -37t-20 -58q0 -44 33.5 -70t95.5 -26z" />
    <glyph glyph-name="adieresis" unicode="&#xe4;" horiz-adv-x="511" 
d="M157 588q-11 0 -18.5 8t-7.5 18q0 11 7.5 19t18.5 8t19 -8t8 -19t-8 -18.5t-19 -7.5zM325 588q-11 0 -19 8t-8 18q0 11 8 19t19 8t19 -8t8 -19t-8 -18.5t-19 -7.5zM469 17l2 -18q-9 -3 -22 -3q-51 0 -51 58v58h-1q-21 -47 -70 -81.5t-126 -34.5q-69 0 -107 30t-38 84
q0 40 21 67.5t62.5 42.5t90 22.5t116.5 9.5l52 1v47q0 67 -42.5 107.5t-114.5 40.5q-67 0 -110 -34.5t-43 -91.5q0 -4 0.5 -7.5t0.5 -6.5t0.5 -5.5t1.5 -4.5t1 -3.5v-2.5l1 -1l-18 -4q-6 16 -6 38q0 63 48.5 102t123.5 39q82 0 129.5 -45t47.5 -121v-245q0 -40 35 -40
q8 0 16 2zM205 15q43 0 78.5 13.5t55.5 32t34.5 39t19.5 34t5 17.5v84l-52 -2q-62 -2 -107 -8t-84 -19t-59 -37t-20 -58q0 -44 33.5 -70t95.5 -26z" />
    <glyph glyph-name="aring" unicode="&#xe5;" horiz-adv-x="511" 
d="M241 548q-28 0 -46.5 18.5t-18.5 46.5t18.5 46.5t46.5 18.5q29 0 47.5 -18.5t18.5 -46.5t-19 -46.5t-47 -18.5zM241 660q-20 0 -33 -13t-13 -34t13 -33.5t33 -12.5q21 0 34 12.5t13 33.5t-13 34t-34 13zM469 17l2 -18q-9 -3 -22 -3q-51 0 -51 58v58h-1q-21 -47 -70 -81.5
t-126 -34.5q-69 0 -107 30t-38 84q0 40 21 67.5t62.5 42.5t90 22.5t116.5 9.5l52 1v47q0 67 -42.5 107.5t-114.5 40.5q-67 0 -110 -34.5t-43 -91.5q0 -4 0.5 -7.5t0.5 -6.5t0.5 -5.5t1.5 -4.5t1 -3.5v-2.5l1 -1l-18 -4q-6 16 -6 38q0 63 48.5 102t123.5 39q82 0 129.5 -45
t47.5 -121v-245q0 -40 35 -40q8 0 16 2zM205 15q43 0 78.5 13.5t55.5 32t34.5 39t19.5 34t5 17.5v84l-52 -2q-62 -2 -107 -8t-84 -19t-59 -37t-20 -58q0 -44 33.5 -70t95.5 -26z" />
    <glyph glyph-name="ae" unicode="&#xe6;" horiz-adv-x="847" 
d="M607 466q81 0 133 -53.5t52 -146.5l-2 -31h-372v-4q0 -98 54.5 -157t146.5 -59q93 0 146 58l14 -13q-57 -64 -160 -64q-78 0 -132 39t-76 107h-2q-9 -54 -65.5 -100t-142.5 -46q-69 0 -107 30t-38 84q0 40 21 67.5t62.5 42.5t90 22.5t116.5 9.5l52 1v47q0 67 -42.5 107.5
t-114.5 40.5q-67 0 -110 -34.5t-43 -91.5q0 -4 0.5 -8.5t0.5 -7.5t0.5 -6t1.5 -5t1 -3.5v-2.5l1 -1l-18 -4q-6 16 -6 41q0 63 48.5 102t123.5 39q72 0 118 -35.5t56 -98.5q24 64 75.5 99t116.5 35zM608 448q-76 0 -129 -52.5t-60 -141.5h353v11q0 86 -45 134.5t-119 48.5z
M205 15q53 0 93.5 19t60.5 45t29.5 47t9.5 32v77l-52 -2q-62 -2 -107 -8t-84 -19t-59 -37t-20 -58q0 -44 33.5 -70t95.5 -26z" />
    <glyph glyph-name="ccedilla" unicode="&#xe7;" horiz-adv-x="503" 
d="M446 285l-20 -2q2 13 2 25q0 62 -42 101t-113 39q-87 0 -141 -60t-54 -158q0 -97 54.5 -156t147.5 -59q94 0 147 58l14 -14q-57 -61 -156 -63l-14 -36q32 -3 55 -21t23 -49t-22.5 -49.5t-60.5 -18.5q-20 0 -36 6t-22 12l-7 6l9 15q22 -20 57 -20q29 0 46 13.5t17 35.5
t-20 39.5t-64 17.5l18 49q-95 6 -150.5 69.5t-55.5 164.5q0 106 59.5 171t156.5 65q79 0 126.5 -43t47.5 -111z" />
    <glyph glyph-name="egrave" unicode="&#xe8;" horiz-adv-x="507" 
d="M293 548l-16 -2l-81 135h28zM266 466q81 0 133 -53.5t52 -146.5l-2 -31h-371v-4q0 -98 54 -157t146 -59q94 0 146 58l14 -13q-57 -64 -160 -64q-101 0 -160.5 64t-59.5 170q0 109 59.5 172.5t148.5 63.5zM267 448q-76 0 -128.5 -52.5t-59.5 -141.5h352v11q0 86 -45 134.5
t-119 48.5z" />
    <glyph glyph-name="eacute" unicode="&#xe9;" horiz-adv-x="507" 
d="M324 681l-79 -133l-19 -2l69 135h29zM266 466q81 0 133 -53.5t52 -146.5l-2 -31h-371v-4q0 -98 54 -157t146 -59q94 0 146 58l14 -13q-57 -64 -160 -64q-101 0 -160.5 64t-59.5 170q0 109 59.5 172.5t148.5 63.5zM267 448q-76 0 -128.5 -52.5t-59.5 -141.5h352v11
q0 86 -45 134.5t-119 48.5z" />
    <glyph glyph-name="ecircumflex" unicode="&#xea;" horiz-adv-x="507" 
d="M263 658l-87 -111l-23 -1l96 134h29l96 -134l-24 1zM266 466q81 0 133 -53.5t52 -146.5l-2 -31h-371v-4q0 -98 54 -157t146 -59q94 0 146 58l14 -13q-57 -64 -160 -64q-101 0 -160.5 64t-59.5 170q0 109 59.5 172.5t148.5 63.5zM267 448q-76 0 -128.5 -52.5t-59.5 -141.5
h352v11q0 86 -45 134.5t-119 48.5z" />
    <glyph glyph-name="edieresis" unicode="&#xeb;" horiz-adv-x="507" 
d="M182 588q-10 0 -18 8t-8 18q0 11 7.5 19t18.5 8t19 -8t8 -19t-8 -18.5t-19 -7.5zM350 588q-11 0 -19 8t-8 18q0 11 8 19t19 8t19 -8t8 -19t-8 -18.5t-19 -7.5zM266 466q81 0 133 -53.5t52 -146.5l-2 -31h-371v-4q0 -98 54 -157t146 -59q94 0 146 58l14 -13
q-57 -64 -160 -64q-101 0 -160.5 64t-59.5 170q0 109 59.5 172.5t148.5 63.5zM267 448q-76 0 -128.5 -52.5t-59.5 -141.5h352v11q0 86 -45 134.5t-119 48.5z" />
    <glyph glyph-name="igrave" unicode="&#xec;" horiz-adv-x="205" 
d="M88 546l-81 135h28l69 -133zM92 0v462l20 1v-463h-20z" />
    <glyph glyph-name="iacute" unicode="&#xed;" horiz-adv-x="205" 
d="M111 548l-19 -2l69 135h29zM92 0v462l20 1v-463h-20z" />
    <glyph glyph-name="icircumflex" unicode="&#xee;" horiz-adv-x="205" 
d="M-14 546l96 134h29l96 -134l-24 1l-87 111l-87 -111zM92 0v462l20 1v-463h-20z" />
    <glyph glyph-name="idieresis" unicode="&#xef;" horiz-adv-x="205" 
d="M15 588q-11 0 -18.5 8t-7.5 18q0 11 7.5 19t18.5 8t19 -8t8 -19t-8 -18.5t-19 -7.5zM183 588q-11 0 -19 8t-8 18q0 11 8 19t19 8t19 -8t8 -19t-8 -18.5t-19 -7.5zM92 0v462l20 1v-463h-20z" />
    <glyph glyph-name="eth" unicode="&#xf0;" horiz-adv-x="551" 
d="M356 619q122 -125 122 -371q0 -126 -58.5 -190t-159.5 -64q-88 0 -144.5 58t-56.5 154q0 108 57.5 166.5t147.5 58.5q76 0 127.5 -39t65.5 -92q-9 200 -119 308l-70 -41l-9 15l66 39q-66 57 -150 71l12 16q89 -16 156 -77l78 46l9 -15zM262 13q89 0 142.5 57.5
t53.5 157.5q0 71 -54.5 128t-139.5 57q-81 0 -133.5 -54.5t-52.5 -152.5q0 -87 50.5 -140t133.5 -53z" />
    <glyph glyph-name="ntilde" unicode="&#xf1;" horiz-adv-x="563" 
d="M173 568h-20q-2 14 -2 25q0 28 16.5 44.5t44.5 16.5q30 0 74 -32.5t63 -32.5q40 0 40 41l-2 24h21q2 -13 2 -24q0 -61 -61 -61q-27 0 -71 32t-66 32q-18 0 -29.5 -10.5t-11.5 -29.5zM300 466q82 0 130.5 -51t48.5 -132v-283h-20v283q0 73 -44 119t-116 46
q-83 0 -136 -58.5t-53 -121.5v-268h-20v462l15 1q4 -57 4 -133h1v-2q16 59 67.5 98.5t122.5 39.5z" />
    <glyph glyph-name="ograve" unicode="&#xf2;" horiz-adv-x="552" 
d="M287 546l-81 135h28l69 -133zM276 466q99 0 159 -64.5t60 -170.5t-60 -170.5t-159 -64.5q-98 0 -158 64.5t-60 170.5t60 170.5t158 64.5zM276 15q89 0 144 59.5t55 156.5t-55 157t-144 60t-143.5 -59.5t-54.5 -157.5q0 -97 54.5 -156.5t143.5 -59.5z" />
    <glyph glyph-name="oacute" unicode="&#xf3;" horiz-adv-x="552" 
d="M255 548l-19 -2l69 135h29zM276 466q99 0 159 -64.5t60 -170.5t-60 -170.5t-159 -64.5q-98 0 -158 64.5t-60 170.5t60 170.5t158 64.5zM276 15q89 0 144 59.5t55 156.5t-55 157t-144 60t-143.5 -59.5t-54.5 -157.5q0 -97 54.5 -156.5t143.5 -59.5z" />
    <glyph glyph-name="ocircumflex" unicode="&#xf4;" horiz-adv-x="552" 
d="M163 546l96 134h29l96 -134l-24 1l-87 111l-87 -111zM276 466q99 0 159 -64.5t60 -170.5t-60 -170.5t-159 -64.5q-98 0 -158 64.5t-60 170.5t60 170.5t158 64.5zM276 15q89 0 144 59.5t55 156.5t-55 157t-144 60t-143.5 -59.5t-54.5 -157.5q0 -97 54.5 -156.5
t143.5 -59.5z" />
    <glyph glyph-name="otilde" unicode="&#xf5;" horiz-adv-x="552" 
d="M402 654q2 -13 2 -24q0 -61 -61 -61q-27 0 -71 32t-66 32q-18 0 -29.5 -10.5t-11.5 -29.5l2 -25h-20q-2 14 -2 25q0 28 16.5 44.5t44.5 16.5q30 0 74 -32.5t63 -32.5q40 0 40 41l-2 24h21zM276 466q99 0 159 -64.5t60 -170.5t-60 -170.5t-159 -64.5q-98 0 -158 64.5
t-60 170.5t60 170.5t158 64.5zM276 15q89 0 144 59.5t55 156.5t-55 157t-144 60t-143.5 -59.5t-54.5 -157.5q0 -97 54.5 -156.5t143.5 -59.5z" />
    <glyph glyph-name="odieresis" unicode="&#xf6;" horiz-adv-x="552" 
d="M192 588q-10 0 -18 8t-8 18q0 11 7.5 19t18.5 8t19 -8t8 -19t-8 -18.5t-19 -7.5zM360 588q-11 0 -19 8t-8 18q0 11 8 19t19 8t19 -8t8 -19t-8 -18.5t-19 -7.5zM276 466q99 0 159 -64.5t60 -170.5t-60 -170.5t-159 -64.5q-98 0 -158 64.5t-60 170.5t60 170.5t158 64.5z
M276 15q89 0 144 59.5t55 156.5t-55 157t-144 60t-143.5 -59.5t-54.5 -157.5q0 -97 54.5 -156.5t143.5 -59.5z" />
    <glyph glyph-name="divide" unicode="&#xf7;" horiz-adv-x="487" 
d="M218 436q0 12 9.5 21.5t21.5 9.5q13 0 22 -9.5t9 -21.5q0 -13 -9 -22t-22 -9q-12 0 -21.5 9t-9.5 22zM81 234v20h326v-20h-326zM218 34q0 12 9.5 21.5t21.5 9.5q13 0 22 -9.5t9 -21.5q0 -13 -9 -22t-22 -9q-12 0 -21.5 9t-9.5 22z" />
    <glyph glyph-name="oslash" unicode="&#xf8;" horiz-adv-x="552" 
d="M411 423q84 -63 84 -192q0 -106 -60 -170.5t-159 -64.5q-69 0 -119 32l-38 -58h-22l44 69q-83 65 -83 192q0 106 60 170.5t158 64.5q68 0 120 -32l37 58h22zM78 231q0 -117 74 -175l233 362q-47 30 -109 30q-89 0 -143.5 -59.5t-54.5 -157.5zM276 15q89 0 144 59.5
t55 156.5q0 115 -75 176l-233 -362q47 -30 109 -30z" />
    <glyph glyph-name="ugrave" unicode="&#xf9;" horiz-adv-x="549" 
d="M296 548l-16 -2l-81 135h28zM439 462h20v-462l-15 -1q-4 59 -4 133h-1v2q-16 -59 -67 -98.5t-121 -39.5q-80 0 -123.5 48.5t-43.5 130.5v287h20v-287q0 -74 39 -117t109 -43q84 0 135.5 57.5t51.5 121.5v268z" />
    <glyph glyph-name="uacute" unicode="&#xfa;" horiz-adv-x="549" 
d="M327 681l-79 -133l-19 -2l69 135h29zM439 462h20v-462l-15 -1q-4 59 -4 133h-1v2q-16 -59 -67 -98.5t-121 -39.5q-80 0 -123.5 48.5t-43.5 130.5v287h20v-287q0 -74 39 -117t109 -43q84 0 135.5 57.5t51.5 121.5v268z" />
    <glyph glyph-name="ucircumflex" unicode="&#xfb;" horiz-adv-x="549" 
d="M266 658l-87 -111l-23 -1l96 134h29l96 -134l-24 1zM439 462h20v-462l-15 -1q-4 59 -4 133h-1v2q-16 -59 -67 -98.5t-121 -39.5q-80 0 -123.5 48.5t-43.5 130.5v287h20v-287q0 -74 39 -117t109 -43q84 0 135.5 57.5t51.5 121.5v268z" />
    <glyph glyph-name="udieresis" unicode="&#xfc;" horiz-adv-x="549" 
d="M185 588q-11 0 -18.5 8t-7.5 18q0 11 7.5 19t18.5 8t19 -8t8 -19t-8 -18.5t-19 -7.5zM353 588q-11 0 -19 8t-8 18q0 11 8 19t19 8t19 -8t8 -19t-8 -18.5t-19 -7.5zM439 462h20v-462l-15 -1q-4 59 -4 133h-1v2q-16 -59 -67 -98.5t-121 -39.5q-80 0 -123.5 48.5
t-43.5 130.5v287h20v-287q0 -74 39 -117t109 -43q84 0 135.5 57.5t51.5 121.5v268z" />
    <glyph glyph-name="yacute" unicode="&#xfd;" horiz-adv-x="483" 
d="M226 548l-19 -2l69 135h29zM211 -117q-18 -45 -40.5 -68t-64.5 -23q-13 0 -25 2t-17 4l-6 3l3 20q17 -10 45 -10q33 0 50 17t33 56l44 107l-200 471h22l184 -435q3 -4 4 -9h2l3 9l185 435h21z" />
    <glyph glyph-name="thorn" unicode="&#xfe;" horiz-adv-x="572" 
d="M301 466q95 0 153.5 -64.5t58.5 -170.5t-58.5 -170.5t-153.5 -64.5q-73 0 -124 38.5t-67 97.5v-336h-20v900h19v-364h2q16 58 66 96t124 38zM300 15q87 0 140 59.5t53 156.5q0 98 -53 157.5t-140 59.5q-88 0 -139 -58t-51 -122v-76q0 -63 52.5 -120t137.5 -57z" />
    <glyph glyph-name="ydieresis" unicode="&#xff;" horiz-adv-x="483" 
d="M163 588q-11 0 -18.5 8t-7.5 18q0 11 7.5 19t18.5 8t19 -8t8 -19t-8 -18.5t-19 -7.5zM331 588q-11 0 -19 8t-8 18q0 11 8 19t19 8t19 -8t8 -19t-8 -18.5t-19 -7.5zM211 -117q-18 -45 -40.5 -68t-64.5 -23q-13 0 -25 2t-17 4l-6 3l3 20q17 -10 45 -10q33 0 50 17t33 56
l44 107l-200 471h22l184 -435q3 -4 4 -9h2l3 9l185 435h21z" />
    <glyph glyph-name="Amacron" unicode="&#x100;" horiz-adv-x="592" 
d="M420 728v-19h-241v19h241zM537 0l-77 199h-329l-76 -199h-23l251 650h24l252 -650h-22zM139 219h314l-150 388l-7 22h-2q-1 -7 -6 -22z" />
    <glyph glyph-name="amacron" unicode="&#x101;" horiz-adv-x="511" 
d="M366 624v-19h-241v19h241zM469 17l2 -18q-9 -3 -22 -3q-51 0 -51 58v58h-1q-21 -47 -70 -81.5t-126 -34.5q-69 0 -107 30t-38 84q0 40 21 67.5t62.5 42.5t90 22.5t116.5 9.5l52 1v47q0 67 -42.5 107.5t-114.5 40.5q-67 0 -110 -34.5t-43 -91.5q0 -4 0.5 -7.5t0.5 -6.5
t0.5 -5.5t1.5 -4.5t1 -3.5v-2.5l1 -1l-18 -4q-6 16 -6 38q0 63 48.5 102t123.5 39q82 0 129.5 -45t47.5 -121v-245q0 -40 35 -40q8 0 16 2zM205 15q43 0 78.5 13.5t55.5 32t34.5 39t19.5 34t5 17.5v84l-52 -2q-62 -2 -107 -8t-84 -19t-59 -37t-20 -58q0 -44 33.5 -70
t95.5 -26z" />
    <glyph glyph-name="Abreve" unicode="&#x102;" horiz-adv-x="592" 
d="M295 677q-47 0 -75.5 29.5t-28.5 77.5h19q0 -39 23.5 -63.5t61.5 -25.5q38 1 61 25.5t23 63.5h19q0 -48 -28.5 -77.5t-74.5 -29.5zM537 0l-77 199h-329l-76 -199h-23l251 650h24l252 -650h-22zM139 219h314l-150 388l-7 22h-2q-1 -7 -6 -22z" />
    <glyph glyph-name="abreve" unicode="&#x103;" horiz-adv-x="511" 
d="M241 544q-52 0 -82.5 33t-30.5 93h20q0 -51 25 -79t68 -29q42 1 67.5 29t25.5 79h19q0 -60 -30.5 -93t-81.5 -33zM469 17l2 -18q-9 -3 -22 -3q-51 0 -51 58v58h-1q-21 -47 -70 -81.5t-126 -34.5q-69 0 -107 30t-38 84q0 40 21 67.5t62.5 42.5t90 22.5t116.5 9.5l52 1v47
q0 67 -42.5 107.5t-114.5 40.5q-67 0 -110 -34.5t-43 -91.5q0 -4 0.5 -7.5t0.5 -6.5t0.5 -5.5t1.5 -4.5t1 -3.5v-2.5l1 -1l-18 -4q-6 16 -6 38q0 63 48.5 102t123.5 39q82 0 129.5 -45t47.5 -121v-245q0 -40 35 -40q8 0 16 2zM205 15q43 0 78.5 13.5t55.5 32t34.5 39
t19.5 34t5 17.5v84l-52 -2q-62 -2 -107 -8t-84 -19t-59 -37t-20 -58q0 -44 33.5 -70t95.5 -26z" />
    <glyph glyph-name="Aogonek" unicode="&#x104;" horiz-adv-x="592" 
d="M570 -142l8 -14q-19 -22 -57 -22q-32 0 -53 19.5t-21 52.5q0 74 87 113l-74 192h-329l-76 -199h-23l251 650h24l252 -650q-4 -1 -10 -3.5t-22 -12t-28.5 -20.5t-22.5 -30t-10 -40q0 -24 15.5 -38.5t40.5 -14.5q12 0 24 4.5t18 8.5zM139 219h314l-150 388l-7 22h-2
q-1 -7 -6 -22z" />
    <glyph glyph-name="aogonek" unicode="&#x105;" horiz-adv-x="511" 
d="M482 -143l8 -14q-19 -22 -57 -22q-32 0 -53 19.5t-21 52.5q0 68 72 105q-33 10 -33 56v58h-1q-21 -47 -70 -81.5t-126 -34.5q-69 0 -107 30t-38 84q0 40 21 67.5t62.5 42.5t90 22.5t116.5 9.5l52 1v47q0 67 -42.5 107.5t-114.5 40.5q-67 0 -110 -34.5t-43 -91.5
q0 -4 0.5 -7.5t0.5 -6.5t0.5 -5.5t1.5 -4.5t1 -3.5v-2.5l1 -1l-18 -4q-6 16 -6 38q0 63 48.5 102t123.5 39q82 0 129.5 -45t47.5 -121v-245q0 -40 35 -40q8 0 16 2l2 -18q-4 -1 -10 -3.5t-22 -12t-28.5 -20.5t-22.5 -30t-10 -40q0 -24 15.5 -38.5t40.5 -14.5q12 0 24 4t18 8
zM205 15q43 0 78.5 13.5t55.5 32t34.5 39t19.5 34t5 17.5v84l-52 -2q-62 -2 -107 -8t-84 -19t-59 -37t-20 -58q0 -44 33.5 -70t95.5 -26z" />
    <glyph glyph-name="Cacute" unicode="&#x106;" horiz-adv-x="631" 
d="M352 681l-19 -2l69 114h31zM348 656q62 0 110 -22t72.5 -54.5t36.5 -61t13 -50.5l-21 -5q-1 12 -6 30.5t-20.5 44.5t-37.5 47.5t-60.5 37t-86.5 15.5q-116 0 -189.5 -84.5t-73.5 -227.5q0 -144 75 -227.5t198 -83.5q43 0 81 11.5t64 30t40.5 33t25.5 29.5l16 -14
q-82 -109 -227 -109q-133 0 -213.5 87.5t-80.5 242.5q0 154 79 242t205 88z" />
    <glyph glyph-name="cacute" unicode="&#x107;" horiz-adv-x="503" 
d="M253 548l-19 -2l69 135h29zM274 466q79 0 126.5 -43t47.5 -111l-2 -27l-20 -2q2 13 2 25q0 62 -42 101t-113 39q-87 0 -141 -60t-54 -158q0 -97 54.5 -156t147.5 -59q94 0 147 58l14 -14q-59 -63 -160 -63q-103 0 -163 64t-60 170t59.5 171t156.5 65z" />
    <glyph glyph-name="Ccircumflex" unicode="&#x108;" horiz-adv-x="631" 
d="M363 793l96 -114l-24 1l-87 91l-87 -91l-23 -1l96 114h29zM348 656q62 0 110 -22t72.5 -54.5t36.5 -61t13 -50.5l-21 -5q-1 12 -6 30.5t-20.5 44.5t-37.5 47.5t-60.5 37t-86.5 15.5q-116 0 -189.5 -84.5t-73.5 -227.5q0 -144 75 -227.5t198 -83.5q43 0 81 11.5t64 30
t40.5 33t25.5 29.5l16 -14q-82 -109 -227 -109q-133 0 -213.5 87.5t-80.5 242.5q0 154 79 242t205 88z" />
    <glyph glyph-name="ccircumflex" unicode="&#x109;" horiz-adv-x="503" 
d="M161 546l96 134h29l96 -134l-24 1l-87 111l-87 -111zM274 466q79 0 126.5 -43t47.5 -111l-2 -27l-20 -2q2 13 2 25q0 62 -42 101t-113 39q-87 0 -141 -60t-54 -158q0 -97 54.5 -156t147.5 -59q94 0 147 58l14 -14q-59 -63 -160 -63q-103 0 -163 64t-60 170t59.5 171
t156.5 65z" />
    <glyph glyph-name="Cdotaccent" unicode="&#x10a;" horiz-adv-x="631" 
d="M348 704q-11 0 -19 8t-8 19t8 19t19 8t19 -8t8 -19t-8.5 -19t-18.5 -8zM348 656q62 0 110 -22t72.5 -54.5t36.5 -61t13 -50.5l-21 -5q-1 12 -6 30.5t-20.5 44.5t-37.5 47.5t-60.5 37t-86.5 15.5q-116 0 -189.5 -84.5t-73.5 -227.5q0 -144 75 -227.5t198 -83.5
q43 0 81 11.5t64 30t40.5 33t25.5 29.5l16 -14q-82 -109 -227 -109q-133 0 -213.5 87.5t-80.5 242.5q0 154 79 242t205 88z" />
    <glyph glyph-name="cdotaccent" unicode="&#x10b;" horiz-adv-x="503" 
d="M301 616q0 -10 -8.5 -18.5t-18.5 -8.5q-11 0 -19 8t-8 19t8 19t19 8t19 -8t8 -19zM274 466q79 0 126.5 -43t47.5 -111l-2 -27l-20 -2q2 13 2 25q0 62 -42 101t-113 39q-87 0 -141 -60t-54 -158q0 -97 54.5 -156t147.5 -59q94 0 147 58l14 -14q-59 -63 -160 -63
q-103 0 -163 64t-60 170t59.5 171t156.5 65z" />
    <glyph glyph-name="Ccaron" unicode="&#x10c;" horiz-adv-x="631" 
d="M238 798l23 -2l87 -91l87 91l24 2l-96 -115h-29zM348 656q62 0 110 -22t72.5 -54.5t36.5 -61t13 -50.5l-21 -5q-1 12 -6 30.5t-20.5 44.5t-37.5 47.5t-60.5 37t-86.5 15.5q-116 0 -189.5 -84.5t-73.5 -227.5q0 -144 75 -227.5t198 -83.5q43 0 81 11.5t64 30t40.5 33
t25.5 29.5l16 -14q-82 -109 -227 -109q-133 0 -213.5 87.5t-80.5 242.5q0 154 79 242t205 88z" />
    <glyph glyph-name="ccaron" unicode="&#x10d;" horiz-adv-x="503" 
d="M164 680l23 -1l87 -111l87 111l24 1l-96 -134h-29zM274 466q79 0 126.5 -43t47.5 -111l-2 -27l-20 -2q2 13 2 25q0 62 -42 101t-113 39q-87 0 -141 -60t-54 -158q0 -97 54.5 -156t147.5 -59q94 0 147 58l14 -14q-59 -63 -160 -63q-103 0 -163 64t-60 170t59.5 171
t156.5 65z" />
    <glyph glyph-name="Dcaron" unicode="&#x10e;" horiz-adv-x="645" 
d="M308 678h-29l-96 115l23 -2l87 -91l87 91l24 2zM254 650q149 0 238 -86.5t89 -237.5q0 -150 -76 -238t-211 -88h-188v650h148zM294 20q125 0 195.5 82.5t70.5 223.5q0 143 -83 224t-223 81h-127v-611h167z" />
    <glyph glyph-name="dcaron" unicode="&#x10f;" horiz-adv-x="583" 
d="M580 716q29 0 29 -30t-11.5 -53t-23.5 -31l-11 -8l-13 17q34 19 35 54q-14 0 -23 7.5t-9 18.5t8.5 18t18.5 7zM460 335v365h20v-699l-14 -1q-4 59 -4 133h-1q-16 -59 -66.5 -97.5t-124.5 -38.5q-95 0 -153.5 64.5t-58.5 170.5t58.5 170.5t153.5 64.5q71 0 122 -37t68 -95
zM270 16q89 0 139.5 57.5t50.5 121.5v76q0 63 -52 120.5t-138 57.5t-139 -60t-53 -157t53 -156.5t139 -59.5z" />
    <glyph glyph-name="Dcroat" unicode="&#x110;" horiz-adv-x="645" 
d="M254 650q149 0 238 -86.5t89 -237.5q0 -150 -76 -238t-211 -88h-188v317h-74v18h74v315h148zM294 20q125 0 195.5 82.5t70.5 223.5q0 143 -83 224t-223 81h-127v-296h199v-18h-199v-297h167z" />
    <glyph glyph-name="dcroat" unicode="&#x111;" horiz-adv-x="571" 
d="M544 592v-18h-64v-573l-14 -1q-4 59 -4 133h-1q-16 -59 -66.5 -97.5t-124.5 -38.5q-95 0 -153.5 64.5t-58.5 170.5t58.5 170.5t153.5 64.5q71 0 122 -37t68 -95v239h-138v18h138v108h20v-108h64zM270 16q89 0 139.5 57.5t50.5 121.5v76q0 63 -52 120.5t-138 57.5
t-139 -60t-53 -157t53 -156.5t139 -59.5z" />
    <glyph glyph-name="Emacron" unicode="&#x112;" horiz-adv-x="541" 
d="M426 728v-19h-241v19h241zM486 631h-359v-281h329v-20h-329v-310h359v-20h-380v650h380v-19z" />
    <glyph glyph-name="emacron" unicode="&#x113;" horiz-adv-x="507" 
d="M391 624v-19h-241v19h241zM266 466q81 0 133 -53.5t52 -146.5l-2 -31h-371v-4q0 -98 54 -157t146 -59q94 0 146 58l14 -13q-57 -64 -160 -64q-101 0 -160.5 64t-59.5 170q0 109 59.5 172.5t148.5 63.5zM267 448q-76 0 -128.5 -52.5t-59.5 -141.5h352v11q0 86 -45 134.5
t-119 48.5z" />
    <glyph glyph-name="Ebreve" unicode="&#x114;" horiz-adv-x="541" 
d="M301 677q-47 0 -75.5 29.5t-28.5 77.5h19q0 -39 23.5 -63.5t61.5 -25.5q38 1 61 25.5t23 63.5h19q0 -48 -28.5 -77.5t-74.5 -29.5zM486 631h-359v-281h329v-20h-329v-310h359v-20h-380v650h380v-19z" />
    <glyph glyph-name="ebreve" unicode="&#x115;" horiz-adv-x="507" 
d="M266 544q-52 0 -82.5 33t-30.5 93h20q0 -51 25 -79t68 -29q42 1 67.5 29t25.5 79h19q0 -60 -30.5 -93t-81.5 -33zM266 466q81 0 133 -53.5t52 -146.5l-2 -31h-371v-4q0 -98 54 -157t146 -59q94 0 146 58l14 -13q-57 -64 -160 -64q-101 0 -160.5 64t-59.5 170
q0 109 59.5 172.5t148.5 63.5zM267 448q-76 0 -128.5 -52.5t-59.5 -141.5h352v11q0 86 -45 134.5t-119 48.5z" />
    <glyph glyph-name="Edotaccent" unicode="&#x116;" horiz-adv-x="541" 
d="M301 704q-11 0 -19 8t-8 19t8 19t19 8t19 -8t8 -19t-8 -19t-19 -8zM486 631h-359v-281h329v-20h-329v-310h359v-20h-380v650h380v-19z" />
    <glyph glyph-name="edotaccent" unicode="&#x117;" horiz-adv-x="507" 
d="M266 589q-11 0 -19 8t-8 19t8 19t19 8t19 -8t8 -19q0 -10 -8.5 -18.5t-18.5 -8.5zM266 466q81 0 133 -53.5t52 -146.5l-2 -31h-371v-4q0 -98 54 -157t146 -59q94 0 146 58l14 -13q-57 -64 -160 -64q-101 0 -160.5 64t-59.5 170q0 109 59.5 172.5t148.5 63.5zM267 448
q-76 0 -128.5 -52.5t-59.5 -141.5h352v11q0 86 -45 134.5t-119 48.5z" />
    <glyph glyph-name="Eogonek" unicode="&#x118;" horiz-adv-x="541" 
d="M497 -142l8 -14q-19 -22 -57 -22q-32 0 -53 19.5t-21 52.5q0 68 73 106h-341v650h380v-19h-359v-281h329v-20h-329v-310h359v-20q-4 -1 -10 -3.5t-22 -12t-28.5 -20.5t-22.5 -30t-10 -40q0 -24 15.5 -38.5t40.5 -14.5q12 0 24 4.5t18 8.5z" />
    <glyph glyph-name="eogonek" unicode="&#x119;" horiz-adv-x="507" 
d="M266 466q81 0 133 -53.5t52 -146.5l-2 -31h-371v-4q0 -98 54 -157t146 -59q94 0 146 58l14 -13q-30 -34 -75 -50q-61 -36 -61 -91q0 -24 15.5 -38.5t40.5 -14.5q12 0 24 4.5t18 8.5l6 4l8 -14q-19 -22 -57 -22q-32 0 -53 19.5t-21 52.5q0 45 35 80q-20 -3 -40 -3
q-101 0 -160.5 64t-59.5 170q0 109 59.5 172.5t148.5 63.5zM267 448q-76 0 -128.5 -52.5t-59.5 -141.5h352v11q0 86 -45 134.5t-119 48.5z" />
    <glyph glyph-name="Ecaron" unicode="&#x11a;" horiz-adv-x="541" 
d="M316 683h-29l-96 115l23 -2l87 -91l87 91l24 2zM486 631h-359v-281h329v-20h-329v-310h359v-20h-380v650h380v-19z" />
    <glyph glyph-name="ecaron" unicode="&#x11b;" horiz-adv-x="507" 
d="M281 546h-29l-96 134l23 -1l87 -111l87 111l24 1zM266 466q81 0 133 -53.5t52 -146.5l-2 -31h-371v-4q0 -98 54 -157t146 -59q94 0 146 58l14 -13q-57 -64 -160 -64q-101 0 -160.5 64t-59.5 170q0 109 59.5 172.5t148.5 63.5zM267 448q-76 0 -128.5 -52.5t-59.5 -141.5
h352v11q0 86 -45 134.5t-119 48.5z" />
    <glyph glyph-name="Gcircumflex" unicode="&#x11c;" horiz-adv-x="648" 
d="M342 771l-87 -91l-23 -1l96 114h29l96 -114l-24 1zM289 277v20h282v-297h-14q-6 102 -6 126q-21 -56 -75.5 -93t-137.5 -37q-125 0 -199.5 90.5t-74.5 239.5t76.5 239.5t201.5 90.5q52 0 94 -15t66.5 -36.5t42 -49t24 -48.5t8.5 -38l-22 -6q0 12 -5 30.5t-19.5 44.5
t-37 47.5t-62 37t-89.5 15.5q-116 0 -186.5 -86t-70.5 -226q0 -141 68.5 -226t184.5 -85q55 0 98.5 19t67 47.5t35.5 57t12 52.5v86h-262z" />
    <glyph glyph-name="gcircumflex" unicode="&#x11d;" horiz-adv-x="509" 
d="M268 658l-87 -111l-23 -1l96 134h29l96 -134l-24 1zM315 54q76 0 120 -33.5t44 -89.5q0 -67 -59.5 -103t-165.5 -36q-98 0 -157.5 35.5t-59.5 95.5q0 46 28 75.5t75 41.5q-74 15 -74 71q0 29 23.5 48.5t54.5 21.5q-61 45 -61 126q0 73 48.5 117t126.5 44q72 0 120 -38
q30 3 45.5 28.5t15.5 56.5l21 -5q0 -40 -21 -64.5t-48 -26.5q44 -44 44 -112q0 -72 -48.5 -116t-128.5 -44q-54 0 -93 21q-38 -1 -59 -16.5t-21 -40.5q0 -34 30 -45.5t92 -11.5h108zM103 307q0 -64 42.5 -103t112.5 -39t113.5 39t43.5 103t-43.5 103.5t-113.5 39.5
t-112.5 -39.5t-42.5 -103.5zM254 -189q96 0 150.5 30.5t54.5 89.5q0 48 -37 76t-108 28h-108h-8q-59 0 -100 -30.5t-41 -81.5t54 -81.5t143 -30.5z" />
    <glyph glyph-name="Gbreve" unicode="&#x11e;" horiz-adv-x="648" 
d="M342 677q-47 0 -75.5 29.5t-28.5 77.5h19q0 -39 23.5 -63.5t61.5 -25.5q38 1 61 25.5t23 63.5h19q0 -48 -28.5 -77.5t-74.5 -29.5zM289 277v20h282v-297h-14q-6 102 -6 126q-21 -56 -75.5 -93t-137.5 -37q-125 0 -199.5 90.5t-74.5 239.5t76.5 239.5t201.5 90.5
q52 0 94 -15t66.5 -36.5t42 -49t24 -48.5t8.5 -38l-22 -6q0 12 -5 30.5t-19.5 44.5t-37 47.5t-62 37t-89.5 15.5q-116 0 -186.5 -86t-70.5 -226q0 -141 68.5 -226t184.5 -85q55 0 98.5 19t67 47.5t35.5 57t12 52.5v86h-262z" />
    <glyph glyph-name="gbreve" unicode="&#x11f;" horiz-adv-x="509" 
d="M271 544q-52 0 -82.5 33t-30.5 93h20q0 -51 25 -79t68 -29q42 1 67.5 29t25.5 79h19q0 -60 -30.5 -93t-81.5 -33zM315 54q76 0 120 -33.5t44 -89.5q0 -67 -59.5 -103t-165.5 -36q-98 0 -157.5 35.5t-59.5 95.5q0 45 28 75t74 42q-73 15 -73 71q0 29 23.5 48.5t54.5 21.5
q-61 45 -61 126q0 73 48.5 117t126.5 44q72 0 120 -38q30 3 45.5 28.5t15.5 56.5l21 -5q0 -40 -21 -64.5t-48 -26.5q44 -44 44 -112q0 -72 -48.5 -116t-128.5 -44q-54 0 -93 21q-38 -1 -59 -16.5t-21 -40.5q0 -34 30 -45.5t92 -11.5h108zM103 307q0 -64 42.5 -103t112.5 -39
t113.5 39t43.5 103t-43.5 103.5t-113.5 39.5t-112.5 -39.5t-42.5 -103.5zM254 -189q96 0 150.5 30.5t54.5 89.5q0 48 -37 76t-108 28h-111q-64 0 -105 -30.5t-41 -81.5t54 -81.5t143 -30.5z" />
    <glyph glyph-name="Gdotaccent" unicode="&#x120;" horiz-adv-x="648" 
d="M342 704q-11 0 -19 8t-8 19t8 19t19 8t19 -8t8 -19t-8.5 -19t-18.5 -8zM289 277v20h282v-297h-14q-6 102 -6 126q-21 -56 -75.5 -93t-137.5 -37q-125 0 -199.5 90.5t-74.5 239.5t76.5 239.5t201.5 90.5q52 0 94 -15t66.5 -36.5t42 -49t24 -48.5t8.5 -38l-22 -6
q0 12 -5 30.5t-19.5 44.5t-37 47.5t-62 37t-89.5 15.5q-116 0 -186.5 -86t-70.5 -226q0 -141 68.5 -226t184.5 -85q55 0 98.5 19t67 47.5t35.5 57t12 52.5v86h-262z" />
    <glyph glyph-name="gdotaccent" unicode="&#x121;" horiz-adv-x="509" 
d="M271 589q-11 0 -19 8t-8 19t8 19t19 8t19 -8t8 -19q0 -10 -8 -18.5t-19 -8.5zM315 54q76 0 120 -33.5t44 -89.5q0 -67 -59.5 -103t-165.5 -36q-98 0 -157.5 35.5t-59.5 95.5q0 45 28 75t74 42q-73 15 -73 71q0 29 23.5 48.5t54.5 21.5q-61 45 -61 126q0 73 48.5 117
t126.5 44q72 0 120 -38q30 3 45.5 28.5t15.5 56.5l21 -5q0 -40 -21 -64.5t-48 -26.5q44 -44 44 -112q0 -72 -48.5 -116t-128.5 -44q-54 0 -93 21q-38 -1 -59 -16.5t-21 -40.5q0 -34 30 -45.5t92 -11.5h108zM103 307q0 -64 42.5 -103t112.5 -39t113.5 39t43.5 103
t-43.5 103.5t-113.5 39.5t-112.5 -39.5t-42.5 -103.5zM254 -189q96 0 150.5 30.5t54.5 89.5q0 48 -37 76t-108 28h-111q-64 0 -105 -30.5t-41 -81.5t54 -81.5t143 -30.5z" />
    <glyph glyph-name="Gcommaaccent" unicode="&#x122;" horiz-adv-x="648" 
d="M289 277v20h282v-297h-14q-6 102 -6 126q-21 -56 -75.5 -93t-137.5 -37q-125 0 -199.5 90.5t-74.5 239.5t76.5 239.5t201.5 90.5q52 0 94 -15t66.5 -36.5t42 -49t24 -48.5t8.5 -38l-22 -6q0 12 -5 30.5t-19.5 44.5t-37 47.5t-62 37t-89.5 15.5q-116 0 -186.5 -86
t-70.5 -226q0 -141 68.5 -226t184.5 -85q55 0 98.5 19t67 47.5t35.5 57t12 52.5v86h-262zM338 -50q29 0 29 -33q0 -28 -11.5 -50t-23.5 -30l-12 -8l-13 17q34 19 35 53q-14 0 -22.5 7.5t-8.5 18.5t8 18t19 7z" />
    <glyph glyph-name="gcommaaccent" unicode="&#x123;" horiz-adv-x="509" 
d="M271 512q-29 0 -29 33q0 28 12 50t24 30l11 8l13 -17q-34 -19 -35 -53q14 0 22.5 -7.5t8.5 -18.5t-8 -18t-19 -7zM315 54q76 0 120 -33.5t44 -89.5q0 -67 -59.5 -103t-165.5 -36q-98 0 -157.5 35.5t-59.5 95.5q0 45 28 75t74 42q-73 15 -73 71q0 29 23.5 48.5t54.5 21.5
q-61 45 -61 126q0 73 48.5 117t126.5 44q72 0 120 -38q30 3 45.5 28.5t15.5 56.5l21 -5q0 -40 -21 -64.5t-48 -26.5q44 -44 44 -112q0 -72 -48.5 -116t-128.5 -44q-54 0 -93 21q-38 -1 -59 -16.5t-21 -40.5q0 -34 30 -45.5t92 -11.5h108zM103 307q0 -64 42.5 -103t112.5 -39
t113.5 39t43.5 103t-43.5 103.5t-113.5 39.5t-112.5 -39.5t-42.5 -103.5zM254 -189q96 0 150.5 30.5t54.5 89.5q0 48 -37 76t-108 28h-111q-64 0 -105 -30.5t-41 -81.5t54 -81.5t143 -30.5z" />
    <glyph glyph-name="Hcircumflex" unicode="&#x124;" horiz-adv-x="703" 
d="M354 771l-87 -91l-23 -1l96 114h29l96 -114l-24 1zM576 650h21v-650h-21v330h-449v-330h-21v650h21v-300h449v300z" />
    <glyph glyph-name="Hbar" unicode="&#x126;" horiz-adv-x="703" 
d="M638 556v-18h-41v-538h-21v330h-449v-330h-21v538h-54v18h54v94h21v-94h449v94h21v-94h41zM576 350v188h-449v-188h449z" />
    <glyph glyph-name="hbar" unicode="&#x127;" horiz-adv-x="563" 
d="M300 466q82 0 130.5 -51t48.5 -132v-283h-20v283q0 73 -44 119t-116 46q-83 0 -136 -58.5t-53 -121.5v-268h-20v574h-59v18h59v114h19v-114h144v-18h-144v-243h2q17 58 68 96.5t121 38.5z" />
    <glyph glyph-name="Itilde" unicode="&#x128;" horiz-adv-x="234" 
d="M243 758q2 -13 2 -24q0 -61 -61 -61q-28 0 -71.5 32t-65.5 32q-18 0 -29.5 -11t-11.5 -29l2 -24h-20q-2 13 -2 24q0 28 16.5 44.5t44.5 16.5q30 0 74 -32.5t63 -32.5q40 0 40 41l-2 24h21zM106 0v650h21v-650h-21z" />
    <glyph glyph-name="itilde" unicode="&#x129;" horiz-adv-x="205" 
d="M225 654q2 -13 2 -24q0 -61 -61 -61q-28 0 -71.5 32t-65.5 32q-18 0 -29.5 -10.5t-11.5 -29.5l2 -25h-20q-2 14 -2 25q0 28 16.5 44.5t44.5 16.5q30 0 74 -32.5t63 -32.5q40 0 40 41l-2 24h21zM92 0v462l20 1v-463h-20z" />
    <glyph glyph-name="Imacron" unicode="&#x12a;" horiz-adv-x="234" 
d="M1 709v19h241v-19h-241zM106 0v650h21v-650h-21z" />
    <glyph glyph-name="imacron" unicode="&#x12b;" horiz-adv-x="205" 
d="M-17 605v19h241v-19h-241zM92 0v462l20 1v-463h-20z" />
    <glyph glyph-name="Ibreve" unicode="&#x12c;" horiz-adv-x="234" 
d="M220 784q0 -48 -28.5 -77.5t-74.5 -29.5q-47 0 -75.5 29.5t-28.5 77.5h19q0 -39 23.5 -63.5t61.5 -25.5q38 1 61 25.5t23 63.5h19zM106 0v650h21v-650h-21z" />
    <glyph glyph-name="ibreve" unicode="&#x12d;" horiz-adv-x="205" 
d="M211 670q0 -60 -30.5 -93t-81.5 -33q-52 0 -82.5 33t-30.5 93h20q0 -51 25 -79t68 -29q42 1 67.5 29t25.5 79h19zM92 0v462l20 1v-463h-20z" />
    <glyph glyph-name="Iogonek" unicode="&#x12e;" horiz-adv-x="234" 
d="M138 -142l8 -14q-19 -22 -57 -22q-32 0 -53 19.5t-21 52.5q0 25 9.5 45.5t25.5 34t29 21.5t27 13v642h21v-650q-4 -1 -10 -3.5t-22 -12t-28.5 -20.5t-22.5 -30t-10 -40q0 -24 15.5 -38.5t40.5 -14.5q12 0 24 4.5t18 8.5z" />
    <glyph glyph-name="iogonek" unicode="&#x12f;" horiz-adv-x="205" 
d="M103 589q-11 0 -19 8.5t-8 18.5q0 11 8 19t19 8t19 -8t8 -19t-8 -19t-19 -8zM123 -142l8 -14q-19 -22 -57 -22q-32 0 -53 19.5t-21 52.5q0 25 10 46t26 34.5t29 21.5t27 13v453l20 1v-463q-4 -1 -10 -3.5t-22 -12t-28.5 -20.5t-22.5 -30t-10 -40q0 -24 15.5 -38.5
t40.5 -14.5q12 0 24 4.5t18 8.5z" />
    <glyph glyph-name="Idotaccent" unicode="&#x130;" horiz-adv-x="234" 
d="M117 704q-11 0 -19 8t-8 19t8 19t19 8t19 -8t8 -19t-8 -19t-19 -8zM106 0v650h21v-650h-21z" />
    <glyph glyph-name="dotlessi" unicode="&#x131;" horiz-adv-x="205" 
d="M92 0v462l20 1v-463h-20z" />
    <glyph glyph-name="IJ" unicode="&#x132;" horiz-adv-x="653" 
d="M106 0v650h21v-650h-21zM266 72q55 -57 129 -57q137 0 137 144v491h21v-487q0 -167 -158 -167q-87 0 -143 58z" />
    <glyph glyph-name="ij" unicode="&#x133;" horiz-adv-x="393" 
d="M103 643q11 0 19 -8t8 -19t-8 -19t-19 -8t-19 8.5t-8 18.5q0 11 8 19t19 8zM286 643q11 0 19 -8t8 -19t-8 -19t-19 -8t-19 8t-8 19t8 19t19 8zM92 0v462l20 1v-463h-20zM104 -168q26 -21 72 -21q54 0 79.5 30t25.5 99v522l20 1v-523q0 -75 -30.5 -111.5t-94.5 -36.5
q-23 0 -43 6t-28 12l-8 5z" />
    <glyph glyph-name="Jcircumflex" unicode="&#x134;" horiz-adv-x="419" 
d="M324 793l96 -114l-24 1l-87 91l-87 -91l-23 -1l96 114h29zM32 72q55 -57 129 -57q137 0 137 144v491h21v-487q0 -167 -158 -167q-87 0 -143 58z" />
    <glyph glyph-name="jcircumflex" unicode="&#x135;" horiz-adv-x="211" 
d="M-5 566l96 134h30l96 -134l-24 1l-87 111l-87 -111zM-78 -168q26 -21 72 -21q54 0 79 30t25 99v522l20 1v-523q0 -76 -30 -112t-94 -36q-23 0 -43 6t-28 12l-8 5z" />
    <glyph glyph-name="Kcommaaccent" unicode="&#x136;" horiz-adv-x="556" 
d="M259 321l273 -321h-26l-264 310h-115v-310h-21v650h21v-320h113l266 320h25zM296 -50q29 0 29 -33q0 -28 -11.5 -50t-23.5 -30l-12 -8l-13 17q34 19 35 53q-14 0 -22.5 7.5t-8.5 18.5t8 18t19 7z" />
    <glyph glyph-name="kcommaaccent" unicode="&#x137;" horiz-adv-x="465" 
d="M210 265l242 -265h-28l-234 257h-80v-257h-20v706h20v-431h84l209 187h29zM237 -50q29 0 29 -33q0 -28 -12 -50t-24 -30l-11 -8l-13 17q34 19 35 53q-14 0 -22.5 7.5t-8.5 18.5t8 18t19 7z" />
    <glyph glyph-name="kgreenlandic" unicode="&#x138;" horiz-adv-x="465" 
d="M424 0l-233 227h-81v-227h-20v462h20v-216h83l210 216h29l-222 -227l242 -235h-28z" />
    <glyph glyph-name="Lacute" unicode="&#x139;" horiz-adv-x="501" 
d="M206 793l-81 -112l-19 -2l69 114h31zM127 20h360v-20h-381v650h21v-630z" />
    <glyph glyph-name="lacute" unicode="&#x13a;" horiz-adv-x="205" 
d="M111 792l-19 -2l69 135h29zM92 0v706h20v-706h-20z" />
    <glyph glyph-name="Lcommaaccent" unicode="&#x13b;" horiz-adv-x="501" 
d="M127 20h360v-20h-381v650h21v-630zM306 -50q29 0 29 -33q0 -28 -11.5 -50t-23.5 -30l-12 -8l-13 17q34 19 35 53q-14 0 -22.5 7.5t-8.5 18.5t8 18t19 7z" />
    <glyph glyph-name="lcommaaccent" unicode="&#x13c;" horiz-adv-x="205" 
d="M92 0v706h20v-706h-20zM73 -75q0 11 8 18t19 7q29 0 29 -33q0 -28 -11.5 -50t-23.5 -30l-12 -8l-13 17q34 19 35 53q-14 0 -22.5 7.5t-8.5 18.5z" />
    <glyph glyph-name="Lcaron" unicode="&#x13d;" horiz-adv-x="501" 
d="M340 591q35 19 36 54q-15 0 -23.5 7.5t-8.5 18.5t8 18t19 7q13 0 21 -8.5t8 -21.5q0 -30 -11.5 -53t-22.5 -31l-12 -8zM127 20h360v-20h-381v650h21v-630z" />
    <glyph glyph-name="lcaron" unicode="&#x13e;" horiz-adv-x="215" 
d="M186 691q0 11 8.5 18t18.5 7q29 0 29 -30t-11.5 -53t-22.5 -31l-12 -8l-13 17q34 19 35 54q-14 0 -23 7.5t-9 18.5zM92 0v706h20v-706h-20z" />
    <glyph glyph-name="Ldot" unicode="&#x13f;" horiz-adv-x="501" 
d="M127 20h360v-20h-381v650h21v-630zM313 257q-11 0 -19 8t-8 19q0 10 8 18.5t19 8.5t19 -8t8 -19t-8 -19t-19 -8z" />
    <glyph glyph-name="ldot" unicode="&#x140;" horiz-adv-x="221" 
d="M92 0v706h20v-706h-20zM240 350q0 -11 -8 -19t-19 -8t-19 8t-8 19t8 19t19 8t19 -8t8 -19z" />
    <glyph glyph-name="Lslash" unicode="&#x141;" horiz-adv-x="501" 
d="M127 20h360v-20h-381v284l-96 -56l-9 15l105 62v345h21v-333l165 97l9 -15l-174 -102v-277z" />
    <glyph glyph-name="lslash" unicode="&#x142;" horiz-adv-x="243" 
d="M209 397l-77 -45v-352h-20v340l-65 -38l-9 16l74 43v345h20v-333l68 39z" />
    <glyph glyph-name="Nacute" unicode="&#x143;" horiz-adv-x="688" 
d="M350 681l-19 -2l69 114h31zM582 650v-650h-33l-383 568q-37 57 -38 59l-2 -1q2 -10 2 -46v-580h-22v650h30l384 -569l40 -61l2 1q-2 14 -2 48v581h22z" />
    <glyph glyph-name="nacute" unicode="&#x144;" horiz-adv-x="563" 
d="M340 681l-79 -133l-19 -2l69 135h29zM300 466q82 0 130.5 -51t48.5 -132v-283h-20v283q0 73 -44 119t-116 46q-83 0 -136 -58.5t-53 -121.5v-268h-20v462l15 1q4 -57 4 -133h1v-2q16 59 67.5 98.5t122.5 39.5z" />
    <glyph glyph-name="Ncommaaccent" unicode="&#x145;" horiz-adv-x="688" 
d="M582 650v-650h-33l-383 568q-37 57 -38 59l-2 -1q2 -10 2 -46v-580h-22v650h30l384 -569l40 -61l2 1q-2 14 -2 48v581h22zM319 -75q0 11 8 18t19 7q29 0 29 -33q0 -28 -11.5 -50t-23.5 -30l-12 -8l-13 17q34 19 35 53q-14 0 -22.5 7.5t-8.5 18.5z" />
    <glyph glyph-name="ncommaaccent" unicode="&#x146;" horiz-adv-x="563" 
d="M300 466q82 0 130.5 -51t48.5 -132v-283h-20v283q0 73 -44 119t-116 46q-83 0 -136 -58.5t-53 -121.5v-268h-20v462l15 1q4 -57 4 -133h1v-2q16 59 67.5 98.5t122.5 39.5zM282 -50q29 0 29 -33q0 -28 -11.5 -50t-23.5 -30l-12 -8l-13 17q34 19 35 53q-14 0 -22.5 7.5
t-8.5 18.5t8 18t19 7z" />
    <glyph glyph-name="Ncaron" unicode="&#x147;" horiz-adv-x="688" 
d="M236 798l23 -2l87 -91l87 91l24 2l-96 -115h-29zM582 650v-650h-33l-383 568q-37 57 -38 59l-2 -1q2 -10 2 -46v-580h-22v650h30l384 -569l40 -61l2 1q-2 14 -2 48v581h22z" />
    <glyph glyph-name="ncaron" unicode="&#x148;" horiz-adv-x="563" 
d="M297 546h-29l-96 134l23 -1l87 -111l87 111l24 1zM300 466q82 0 130.5 -51t48.5 -132v-283h-20v283q0 73 -44 119t-116 46q-83 0 -136 -58.5t-53 -121.5v-268h-20v462l15 1q4 -57 4 -133h1v-2q16 59 67.5 98.5t122.5 39.5z" />
    <glyph glyph-name="napostrophe" unicode="&#x149;" horiz-adv-x="563" 
d="M44 720q13 0 21 -8.5t8 -21.5q0 -30 -11.5 -53t-23.5 -31l-11 -8l-14 17q35 19 36 54q-15 0 -23.5 7.5t-8.5 18.5t8 18t19 7zM300 466q82 0 130.5 -51t48.5 -132v-283h-20v283q0 73 -44 119t-116 46q-83 0 -136 -58.5t-53 -121.5v-268h-20v462l15 1q4 -57 4 -133h1v-2
q16 59 67.5 98.5t122.5 39.5z" />
    <glyph glyph-name="Eng" unicode="&#x14a;" horiz-adv-x="688" 
d="M560 650h22v-741q0 -59 -28.5 -95t-84.5 -36q-28 0 -51 10.5t-32 21.5l-10 10l12 17q34 -39 81 -39q43 0 67 28t24 83v91h-11l-383 568q-37 57 -38 59l-2 -1q2 -10 2 -46v-580h-22v650h30l384 -569l40 -61l2 1q-2 14 -2 48v581z" />
    <glyph glyph-name="eng" unicode="&#x14b;" horiz-adv-x="563" 
d="M300 466q82 0 130.5 -51t48.5 -132v-343q0 -148 -125 -148q-23 0 -43 6t-28 12l-8 5l7 17q26 -21 72 -21q53 0 79 30t26 99v343q0 73 -44 119t-116 46q-83 0 -136 -58.5t-53 -121.5v-268h-20v462l15 1q4 -57 4 -133h1v-2q16 59 67.5 98.5t122.5 39.5z" />
    <glyph glyph-name="Omacron" unicode="&#x14c;" horiz-adv-x="706" 
d="M237 709v19h241v-19h-241zM353 656q128 0 209 -88.5t81 -241.5t-81 -241.5t-209 -88.5q-127 0 -208 88.5t-81 241.5t81 241.5t208 88.5zM353 15q117 0 193 84.5t76 226.5t-76 227t-193 85t-192.5 -84.5t-75.5 -227.5q0 -142 75.5 -226.5t192.5 -84.5z" />
    <glyph glyph-name="omacron" unicode="&#x14d;" horiz-adv-x="552" 
d="M160 605v19h241v-19h-241zM276 466q99 0 159 -64.5t60 -170.5t-60 -170.5t-159 -64.5q-98 0 -158 64.5t-60 170.5t60 170.5t158 64.5zM276 15q89 0 144 59.5t55 156.5t-55 157t-144 60t-143.5 -59.5t-54.5 -157.5q0 -97 54.5 -156.5t143.5 -59.5z" />
    <glyph glyph-name="Obreve" unicode="&#x14e;" horiz-adv-x="706" 
d="M456 784q0 -48 -28.5 -77.5t-74.5 -29.5q-47 0 -75.5 29.5t-28.5 77.5h19q0 -39 23.5 -63.5t61.5 -25.5q38 1 61 25.5t23 63.5h19zM353 656q128 0 209 -88.5t81 -241.5t-81 -241.5t-209 -88.5q-127 0 -208 88.5t-81 241.5t81 241.5t208 88.5zM353 15q117 0 193 84.5
t76 226.5t-76 227t-193 85t-192.5 -84.5t-75.5 -227.5q0 -142 75.5 -226.5t192.5 -84.5z" />
    <glyph glyph-name="obreve" unicode="&#x14f;" horiz-adv-x="552" 
d="M388 670q0 -60 -30.5 -93t-81.5 -33q-52 0 -82.5 33t-30.5 93h20q0 -51 25 -79t68 -29q42 1 67.5 29t25.5 79h19zM276 466q99 0 159 -64.5t60 -170.5t-60 -170.5t-159 -64.5q-98 0 -158 64.5t-60 170.5t60 170.5t158 64.5zM276 15q89 0 144 59.5t55 156.5t-55 157
t-144 60t-143.5 -59.5t-54.5 -157.5q0 -97 54.5 -156.5t143.5 -59.5z" />
    <glyph glyph-name="Ohungarumlaut" unicode="&#x150;" horiz-adv-x="706" 
d="M289 681l-19 -2l69 114h31zM414 681l-19 -2l69 114h31zM353 656q128 0 209 -88.5t81 -241.5t-81 -241.5t-209 -88.5q-127 0 -208 88.5t-81 241.5t81 241.5t208 88.5zM353 15q117 0 193 84.5t76 226.5t-76 227t-193 85t-192.5 -84.5t-75.5 -227.5q0 -142 75.5 -226.5
t192.5 -84.5z" />
    <glyph glyph-name="ohungarumlaut" unicode="&#x151;" horiz-adv-x="552" 
d="M229 548l-16 -2l69 135h29zM345 548l-16 -2l68 135h29zM276 466q99 0 159 -64.5t60 -170.5t-60 -170.5t-159 -64.5q-98 0 -158 64.5t-60 170.5t60 170.5t158 64.5zM276 15q89 0 144 59.5t55 156.5t-55 157t-144 60t-143.5 -59.5t-54.5 -157.5q0 -97 54.5 -156.5
t143.5 -59.5z" />
    <glyph glyph-name="OE" unicode="&#x152;" horiz-adv-x="1058" 
d="M1003 631h-359v-281h329v-20h-329v-310h359v-20h-380v192q-30 -93 -102 -144.5t-168 -51.5q-127 0 -208 88.5t-81 241.5t81 241.5t208 88.5q96 0 168 -51.5t102 -144.5v190h380v-19zM353 15q117 0 193 84.5t76 226.5t-76 227t-193 85t-192.5 -84.5t-75.5 -227.5
q0 -142 75.5 -226.5t192.5 -84.5z" />
    <glyph glyph-name="oe" unicode="&#x153;" horiz-adv-x="925" 
d="M684 466q81 0 133 -53.5t52 -146.5l-2 -31h-371v-4q0 -98 54 -157t146 -59q94 0 146 58l14 -13q-57 -64 -160 -64q-81 0 -136 42t-75 116q-20 -73 -75 -115.5t-134 -42.5q-98 0 -158 64.5t-60 170.5t60 170.5t158 64.5q79 0 134 -42.5t75 -115.5q20 74 74 116t125 42z
M276 15q89 0 144 59.5t55 156.5t-55 157t-144 60t-143.5 -59.5t-54.5 -157.5q0 -97 54.5 -156.5t143.5 -59.5zM685 448q-76 0 -128.5 -52.5t-59.5 -141.5h352v11q0 86 -45 134.5t-119 48.5z" />
    <glyph glyph-name="Racute" unicode="&#x154;" horiz-adv-x="589" 
d="M362 793l-81 -112l-19 -2l69 114h31zM571 17l2 -20q-5 -1 -15 -1q-39 0 -67 28t-47 68t-41 80t-61 68t-93 28h-122v-268h-21v650h184q95 0 153 -52.5t58 -140.5q0 -81 -50.5 -129t-136.5 -58q35 -4 64 -31.5t48.5 -64t38 -73t42.5 -61.5t53 -25zM127 287h155q86 0 142 46
t56 124t-53 126t-139 48h-161v-344z" />
    <glyph glyph-name="racute" unicode="&#x155;" horiz-adv-x="307" 
d="M230 681l-79 -133l-19 -2l69 135h29zM249 466q26 0 41 -5l-4 -19q-15 5 -37 5q-44 0 -77.5 -35.5t-47.5 -76t-14 -72.5v-263h-20v462l15 1q4 -57 4 -133h1q13 55 50 95.5t89 40.5z" />
    <glyph glyph-name="Rcommaaccent" unicode="&#x156;" horiz-adv-x="589" 
d="M571 17l2 -20q-5 -1 -15 -1q-39 0 -67 28t-47 68t-41 80t-61 68t-93 28h-122v-268h-21v650h184q95 0 153 -52.5t58 -140.5q0 -81 -50.5 -129t-136.5 -58q35 -4 64 -31.5t48.5 -64t38 -73t42.5 -61.5t53 -25zM127 287h155q86 0 142 46t56 124t-53 126t-139 48h-161v-344z
M315 -50q29 0 29 -33q0 -28 -12 -50t-24 -30l-11 -8l-13 17q34 19 35 53q-14 0 -22.5 7.5t-8.5 18.5t8 18t19 7z" />
    <glyph glyph-name="rcommaaccent" unicode="&#x157;" horiz-adv-x="307" 
d="M249 466q26 0 41 -5l-4 -19q-15 5 -37 5q-44 0 -77.5 -35.5t-47.5 -76t-14 -72.5v-263h-20v462l15 1q4 -57 4 -133h1q13 55 50 95.5t89 40.5zM101 -50q29 0 29 -33q0 -28 -12 -50t-24 -30l-11 -8l-13 17q34 19 35 53q-14 0 -22.5 7.5t-8.5 18.5t8 18t19 7z" />
    <glyph glyph-name="Rcaron" unicode="&#x158;" horiz-adv-x="589" 
d="M292 683h-29l-96 115l23 -2l87 -91l87 91l24 2zM571 17l2 -20q-5 -1 -15 -1q-39 0 -67 28t-47 68t-41 80t-61 68t-93 28h-122v-268h-21v650h184q95 0 153 -52.5t58 -140.5q0 -81 -50.5 -129t-136.5 -58q35 -4 64 -31.5t48.5 -64t38 -73t42.5 -61.5t53 -25zM127 287h155
q86 0 142 46t56 124t-53 126t-139 48h-161v-344z" />
    <glyph glyph-name="rcaron" unicode="&#x159;" horiz-adv-x="307" 
d="M187 546h-29l-96 134l23 -1l87 -111l87 111l24 1zM249 466q26 0 41 -5l-4 -19q-15 5 -37 5q-44 0 -77.5 -35.5t-47.5 -76t-14 -72.5v-263h-20v462l15 1q4 -57 4 -133h1q13 55 50 95.5t89 40.5z" />
    <glyph glyph-name="Sacute" unicode="&#x15a;" horiz-adv-x="547" 
d="M274 681l-19 -2l69 114h31zM455 520q-6 16 -17 33t-31.5 38t-55 34t-77.5 13q-78 0 -128 -39t-50 -101q0 -43 21.5 -72.5t56.5 -45.5t76.5 -28t83.5 -25.5t77 -32t56.5 -53.5t21.5 -85q0 -72 -58 -116t-155 -44q-145 0 -231 74l13 16q91 -71 218 -71q87 0 139.5 39
t52.5 102q0 45 -21.5 76.5t-56.5 48.5t-77 29t-84 25t-77 30.5t-56.5 50.5t-21.5 81q0 71 56 115t144 44q152 0 204 -130z" />
    <glyph glyph-name="sacute" unicode="&#x15b;" horiz-adv-x="445" 
d="M196 548l-19 -2l69 135h29zM353 321q3 3 3 24q0 49 -38 76t-98 27t-96.5 -27.5t-36.5 -71.5q0 -39 31 -62t75.5 -33.5t89 -22t75.5 -39t31 -73.5q0 -57 -44 -90t-123 -33q-21 0 -41.5 2.5t-35.5 7t-29.5 10.5t-24.5 11.5t-18.5 12t-13.5 10.5t-9 8l-4 4l16 12
q59 -59 160 -59q68 0 107.5 27.5t39.5 74.5q0 40 -31 64t-75.5 35t-89 22.5t-75.5 38.5t-31 71q0 53 41.5 85.5t111.5 32.5q68 0 111.5 -30.5t43.5 -85.5l-2 -26z" />
    <glyph glyph-name="Scircumflex" unicode="&#x15c;" horiz-adv-x="547" 
d="M285 793l96 -114l-24 1l-87 91l-87 -91l-23 -1l96 114h29zM455 520q-6 16 -17 33t-31.5 38t-55 34t-77.5 13q-78 0 -128 -39t-50 -101q0 -43 21.5 -72.5t56.5 -45.5t76.5 -28t83.5 -25.5t77 -32t56.5 -53.5t21.5 -85q0 -72 -58 -116t-155 -44q-145 0 -231 74l13 16
q91 -71 218 -71q87 0 139.5 39t52.5 102q0 45 -21.5 76.5t-56.5 48.5t-77 29t-84 25t-77 30.5t-56.5 50.5t-21.5 81q0 71 56 115t144 44q152 0 204 -130z" />
    <glyph glyph-name="scircumflex" unicode="&#x15d;" horiz-adv-x="445" 
d="M104 546l96 134h29l96 -134l-24 1l-87 111l-87 -111zM353 321q3 3 3 24q0 49 -38 76t-98 27t-96.5 -27.5t-36.5 -71.5q0 -39 31 -62t75.5 -33.5t89 -22t75.5 -39t31 -73.5q0 -57 -44 -90t-123 -33q-21 0 -41.5 2.5t-35.5 7t-29.5 10.5t-24.5 11.5t-18.5 12t-13.5 10.5
t-9 8l-4 4l16 12q59 -59 160 -59q68 0 107.5 27.5t39.5 74.5q0 40 -31 64t-75.5 35t-89 22.5t-75.5 38.5t-31 71q0 53 41.5 85.5t111.5 32.5q68 0 111.5 -30.5t43.5 -85.5l-2 -26z" />
    <glyph glyph-name="Scedilla" unicode="&#x15e;" horiz-adv-x="547" 
d="M489 156q0 -69 -54 -112.5t-145 -47.5l-14 -36q32 -3 55 -21t23 -49t-22.5 -49.5t-60.5 -18.5q-20 0 -36 6t-23 12l-6 6l9 15q22 -20 57 -20q29 0 46 13.5t17 35.5t-20 39.5t-64 17.5l18 49q-140 2 -224 74l13 16q91 -71 218 -71q87 0 139.5 39t52.5 102q0 45 -21.5 76.5
t-56.5 48.5t-77 29t-84 25t-77 30.5t-56.5 50.5t-21.5 81q0 71 56 115t144 44q152 0 204 -130l-23 -6q-6 16 -17 33t-31.5 38t-55 34t-77.5 13q-78 0 -128 -39t-50 -101q0 -43 21.5 -72.5t56.5 -45.5t76.5 -28t83.5 -25.5t77 -32t56.5 -53.5t21.5 -85z" />
    <glyph glyph-name="scedilla" unicode="&#x15f;" horiz-adv-x="445" 
d="M389 119q0 -55 -41 -88t-115 -35l-14 -36q32 -3 55 -21t23 -49t-22.5 -49.5t-60.5 -18.5q-20 0 -36 6t-22 12l-7 6l9 15q22 -20 57 -20q29 0 46 13.5t17 35.5t-20 39.5t-64 17.5l18 49q-20 1 -39 4t-33.5 7t-28 10t-22.5 11.5t-17.5 11.5t-13 10.5t-8.5 7.5l-4 4l16 12
q59 -59 160 -59q68 0 107.5 27.5t39.5 74.5q0 40 -31 64t-75.5 35t-89 22.5t-75.5 38.5t-31 71q0 53 41.5 85.5t111.5 32.5q68 0 111.5 -30.5t43.5 -85.5l-2 -26l-20 -3q3 3 3 24q0 49 -38 76t-98 27t-96.5 -27.5t-36.5 -71.5q0 -39 31 -62t75.5 -33.5t89 -22t75.5 -39
t31 -73.5z" />
    <glyph glyph-name="Scaron" unicode="&#x160;" horiz-adv-x="547" 
d="M160 798l23 -2l87 -91l87 91l24 2l-96 -115h-29zM455 520q-6 16 -17 33t-31.5 38t-55 34t-77.5 13q-78 0 -128 -39t-50 -101q0 -43 21.5 -72.5t56.5 -45.5t76.5 -28t83.5 -25.5t77 -32t56.5 -53.5t21.5 -85q0 -72 -58 -116t-155 -44q-145 0 -231 74l13 16q91 -71 218 -71
q87 0 139.5 39t52.5 102q0 45 -21.5 76.5t-56.5 48.5t-77 29t-84 25t-77 30.5t-56.5 50.5t-21.5 81q0 71 56 115t144 44q152 0 204 -130z" />
    <glyph glyph-name="scaron" unicode="&#x161;" horiz-adv-x="445" 
d="M107 680l23 -1l87 -111l87 111l24 1l-96 -134h-29zM353 321q3 3 3 24q0 49 -38 76t-98 27t-96.5 -27.5t-36.5 -71.5q0 -39 31 -62t75.5 -33.5t89 -22t75.5 -39t31 -73.5q0 -57 -44 -90t-123 -33q-21 0 -41.5 2.5t-35.5 7t-29.5 10.5t-24.5 11.5t-18.5 12t-13.5 10.5t-9 8
l-4 4l16 12q59 -59 160 -59q68 0 107.5 27.5t39.5 74.5q0 40 -31 64t-75.5 35t-89 22.5t-75.5 38.5t-31 71q0 53 41.5 85.5t111.5 32.5q68 0 111.5 -30.5t43.5 -85.5l-2 -26z" />
    <glyph glyph-name="uni0162" unicode="&#x162;" horiz-adv-x="519" 
d="M269 631v-631l-15 -40q32 -3 55 -21t23 -49t-22.5 -49.5t-60.5 -18.5q-20 0 -36 6t-23 12l-6 6l9 15q22 -20 57 -20q29 0 46 13.5t17 35.5t-20 39.5t-64 17.5l20 53h-1v631h-234v19h491v-19h-236z" />
    <glyph glyph-name="uni0163" unicode="&#x163;" horiz-adv-x="363" 
d="M213 -40q32 -3 55 -21t23 -49t-22.5 -49.5t-60.5 -18.5q-20 0 -36 6t-22 12l-7 6l9 15q22 -20 57 -20q29 0 46 13.5t17 35.5t-20 39.5t-64 17.5l19 51q-93 17 -93 141v305h-80v18h80v145l20 2v-147h199v-18h-199v-305q0 -63 26 -94t85 -31q26 0 50.5 8t36.5 16l11 8
l10 -15q-43 -36 -108 -36q-13 0 -19 1z" />
    <glyph glyph-name="Tcaron" unicode="&#x164;" horiz-adv-x="519" 
d="M148 798l23 -2l87 -91l87 91l24 2l-96 -115h-29zM248 0v631h-234v19h491v-19h-236v-631h-21z" />
    <glyph glyph-name="tcaron" unicode="&#x165;" horiz-adv-x="363" 
d="M243 547q35 18 36 53q-15 0 -23.5 7.5t-8.5 18.5t8 18t19 7q13 0 21 -8.5t8 -21.5q0 -29 -11.5 -52t-23.5 -31l-11 -8zM343 46l10 -15q-43 -36 -108 -36q-68 0 -99.5 35.5t-31.5 108.5v305h-80v18h80v145l20 2v-147h199v-18h-199v-305q0 -63 26 -94t85 -31q26 0 50.5 8
t36.5 16z" />
    <glyph glyph-name="Tbar" unicode="&#x166;" horiz-adv-x="519" 
d="M505 631h-236v-271h141v-18h-141v-342h-21v342h-132v18h132v271h-234v19h491v-19z" />
    <glyph glyph-name="tbar" unicode="&#x167;" horiz-adv-x="363" 
d="M343 46l10 -15q-43 -36 -108 -36q-68 0 -99.5 35.5t-31.5 108.5v114h-63v18h63v173h-80v18h80v145l20 2v-147h199v-18h-199v-173h139v-18h-139v-114q0 -63 26 -94t85 -31q26 0 50.5 8t36.5 16z" />
    <glyph glyph-name="Utilde" unicode="&#x168;" horiz-adv-x="677" 
d="M472 758q2 -13 2 -24q0 -61 -61 -61q-27 0 -71 32t-66 32q-18 0 -29.5 -11t-11.5 -29l2 -24h-20q-2 13 -2 24q0 28 16.5 44.5t44.5 16.5q30 0 74 -32.5t63 -32.5q40 0 40 41l-2 24h21zM559 650h21v-384q0 -132 -63 -201t-178 -69t-178.5 69t-63.5 201v384h21v-384
q0 -124 57.5 -187.5t163.5 -63.5q105 0 162.5 63.5t57.5 187.5v384z" />
    <glyph glyph-name="utilde" unicode="&#x169;" horiz-adv-x="549" 
d="M160 568h-20q-2 14 -2 25q0 28 16.5 44.5t44.5 16.5q30 0 74 -32.5t63 -32.5q40 0 40 41l-2 24h21q2 -13 2 -24q0 -61 -61 -61q-28 0 -72 32t-65 32q-18 0 -29.5 -10.5t-11.5 -29.5zM439 462h20v-462l-15 -1q-4 59 -4 133h-1v2q-16 -59 -67 -98.5t-121 -39.5
q-80 0 -123.5 48.5t-43.5 130.5v287h20v-287q0 -74 39 -117t109 -43q84 0 135.5 57.5t51.5 121.5v268z" />
    <glyph glyph-name="Umacron" unicode="&#x16a;" horiz-adv-x="677" 
d="M223 709v19h241v-19h-241zM559 650h21v-384q0 -132 -63 -201t-178 -69t-178.5 69t-63.5 201v384h21v-384q0 -124 57.5 -187.5t163.5 -63.5q105 0 162.5 63.5t57.5 187.5v384z" />
    <glyph glyph-name="umacron" unicode="&#x16b;" horiz-adv-x="549" 
d="M394 624v-19h-241v19h241zM439 462h20v-462l-15 -1q-4 59 -4 133h-1v2q-16 -59 -67 -98.5t-121 -39.5q-80 0 -123.5 48.5t-43.5 130.5v287h20v-287q0 -74 39 -117t109 -43q84 0 135.5 57.5t51.5 121.5v268z" />
    <glyph glyph-name="Ubreve" unicode="&#x16c;" horiz-adv-x="677" 
d="M442 784q0 -48 -28.5 -77.5t-74.5 -29.5q-47 0 -75.5 29.5t-28.5 77.5h19q0 -39 23.5 -63.5t61.5 -25.5q38 1 61 25.5t23 63.5h19zM559 650h21v-384q0 -132 -63 -201t-178 -69t-178.5 69t-63.5 201v384h21v-384q0 -124 57.5 -187.5t163.5 -63.5q105 0 162.5 63.5
t57.5 187.5v384z" />
    <glyph glyph-name="ubreve" unicode="&#x16d;" horiz-adv-x="549" 
d="M269 544q-52 0 -82.5 33t-30.5 93h20q0 -51 25 -79t68 -29q42 1 67.5 29t25.5 79h19q0 -60 -30.5 -93t-81.5 -33zM439 462h20v-462l-15 -1q-4 59 -4 133h-1v2q-16 -59 -67 -98.5t-121 -39.5q-80 0 -123.5 48.5t-43.5 130.5v287h20v-287q0 -74 39 -117t109 -43
q84 0 135.5 57.5t51.5 121.5v268z" />
    <glyph glyph-name="Uring" unicode="&#x16e;" horiz-adv-x="677" 
d="M339 672q-28 0 -46.5 18t-18.5 46t18.5 46.5t46.5 18.5t47 -18.5t19 -46.5t-18.5 -46t-47.5 -18zM386 736q0 21 -13 34t-34 13q-20 0 -33 -13t-13 -34q0 -20 13 -33t33 -13q21 0 34 13t13 33zM559 650h21v-384q0 -132 -63 -201t-178 -69t-178.5 69t-63.5 201v384h21v-384
q0 -124 57.5 -187.5t163.5 -63.5q105 0 162.5 63.5t57.5 187.5v384z" />
    <glyph glyph-name="uring" unicode="&#x16f;" horiz-adv-x="549" 
d="M269 548q-28 0 -46.5 18.5t-18.5 46.5t18.5 46.5t46.5 18.5q29 0 47.5 -18.5t18.5 -46.5t-19 -46.5t-47 -18.5zM269 660q-20 0 -33 -13t-13 -34t13 -33.5t33 -12.5q21 0 34 12.5t13 33.5t-13 34t-34 13zM439 462h20v-462l-15 -1q-4 59 -4 133h-1v2q-16 -59 -67 -98.5
t-121 -39.5q-80 0 -123.5 48.5t-43.5 130.5v287h20v-287q0 -74 39 -117t109 -43q84 0 135.5 57.5t51.5 121.5v268z" />
    <glyph glyph-name="Uhungarumlaut" unicode="&#x170;" horiz-adv-x="677" 
d="M275 681l-19 -2l69 114h31zM400 681l-19 -2l69 114h31zM559 650h21v-384q0 -132 -63 -201t-178 -69t-178.5 69t-63.5 201v384h21v-384q0 -124 57.5 -187.5t163.5 -63.5q105 0 162.5 63.5t57.5 187.5v384z" />
    <glyph glyph-name="uhungarumlaut" unicode="&#x171;" horiz-adv-x="549" 
d="M304 681l-82 -133l-16 -2l69 135h29zM419 681l-81 -133l-16 -2l68 135h29zM439 462h20v-462l-15 -1q-4 59 -4 133h-1v2q-16 -59 -67 -98.5t-121 -39.5q-80 0 -123.5 48.5t-43.5 130.5v287h20v-287q0 -74 39 -117t109 -43q84 0 135.5 57.5t51.5 121.5v268z" />
    <glyph glyph-name="Uogonek" unicode="&#x172;" horiz-adv-x="677" 
d="M559 650h21v-384q0 -106 -41.5 -172t-118.5 -88q-12 -5 -24 -12t-26.5 -19.5t-24 -31t-9.5 -39.5q0 -24 15.5 -38.5t40.5 -14.5q12 0 24 4.5t18 8.5l6 4l8 -14q-19 -22 -57 -22q-32 0 -53 19.5t-21 52.5q0 57 52 93q-10 -1 -30 -1q-115 0 -178.5 69t-63.5 201v384h21
v-384q0 -124 57.5 -187.5t163.5 -63.5q105 0 162.5 63.5t57.5 187.5v384z" />
    <glyph glyph-name="uogonek" unicode="&#x173;" horiz-adv-x="549" 
d="M470 -142l8 -14q-19 -22 -57 -22q-32 0 -53 19.5t-21 52.5q0 26 11 48t28.5 35.5t30.5 20.5t26 12q-3 62 -3 122h-1v2q-16 -59 -67 -98.5t-121 -39.5q-80 0 -123.5 48.5t-43.5 130.5v287h20v-287q0 -74 39 -117t109 -43q84 0 135.5 57.5t51.5 121.5v268h20v-462
q-4 -1 -10 -3.5t-22 -12t-28.5 -20.5t-22.5 -30t-10 -40q0 -24 15.5 -38.5t40.5 -14.5q12 0 24 4.5t18 8.5z" />
    <glyph glyph-name="Wcircumflex" unicode="&#x174;" horiz-adv-x="879" 
d="M455 793l96 -114l-24 1l-87 91l-87 -91l-23 -1l96 114h29zM822 650h21l-193 -650h-28l-172 585q-5 15 -10 40h-1q-7 -32 -9 -40l-172 -585h-30l-193 650h23l179 -607q4 -17 5 -22h2l6 22l179 607h21l180 -607q4 -16 5 -22h2q2 6 6 22z" />
    <glyph glyph-name="wcircumflex" unicode="&#x175;" horiz-adv-x="691" 
d="M344 658l-87 -111l-23 -1l96 134h29l96 -134l-24 1zM636 462h21l-145 -462h-30l-124 398q-6 18 -11 36h-1q-5 -18 -11 -36l-124 -398h-31l-145 462h22l133 -428l5 -16h2l5 16l134 428h21l135 -428l4 -16h2q4 13 6 16z" />
    <glyph glyph-name="Ycircumflex" unicode="&#x176;" horiz-adv-x="564" 
d="M282 771l-87 -91l-23 -1l96 114h29l96 -114l-24 1zM533 650l-240 -389v-261h-22v263l-240 387h26l202 -328q6 -10 14.5 -26t8.5 -17h1l5 10t9 17t10 16l202 328h24z" />
    <glyph glyph-name="ycircumflex" unicode="&#x177;" horiz-adv-x="483" 
d="M134 546l96 134h29l96 -134l-24 1l-87 111l-87 -111zM211 -117q-18 -45 -40.5 -68t-64.5 -23q-13 0 -25 2t-17 4l-6 3l3 20q17 -10 45 -10q33 0 50 17t33 56l44 107l-200 471h22l184 -435q3 -4 4 -9h2l3 9l185 435h21z" />
    <glyph glyph-name="Ydieresis" unicode="&#x178;" horiz-adv-x="564" 
d="M196 706q-10 0 -18 8t-8 18q0 11 7.5 19t18.5 8t19 -8t8 -19t-8 -18.5t-19 -7.5zM364 706q-11 0 -19 8t-8 18q0 11 8 19t19 8t19 -8t8 -19q0 -10 -8 -18t-19 -8zM533 650l-240 -389v-261h-22v263l-240 387h26l202 -328q6 -10 14.5 -26t8.5 -17h1l5 10t9 17t10 16l202 328
h24z" />
    <glyph glyph-name="Zacute" unicode="&#x179;" horiz-adv-x="533" 
d="M272 681l-19 -2l69 114h31zM34 0v20l422 586l18 24l-1 2q-6 -1 -42 -1h-387v19h456v-19l-422 -587q-12 -19 -19 -23l1 -2q7 1 43 1h387v-20h-456z" />
    <glyph glyph-name="zacute" unicode="&#x17a;" horiz-adv-x="425" 
d="M200 548l-19 -2l69 135h29zM39 0v19l311 414l9 11l-1 1q-4 -1 -21 -1h-291v18h336v-18l-311 -415q-3 -4 -9 -10l1 -2q4 2 21 2h298v-19h-343z" />
    <glyph glyph-name="Zdotaccent" unicode="&#x17b;" horiz-adv-x="533" 
d="M268 704q-11 0 -19 8t-8 19t8 19t19 8t19 -8t8 -19t-8.5 -19t-18.5 -8zM34 0v20l422 586l18 24l-1 2q-6 -1 -42 -1h-387v19h456v-19l-422 -587q-12 -19 -19 -23l1 -2q7 1 43 1h387v-20h-456z" />
    <glyph glyph-name="zdotaccent" unicode="&#x17c;" horiz-adv-x="425" 
d="M248 616q0 -10 -8 -18.5t-19 -8.5t-19 8t-8 19t8 19t19 8t19 -8t8 -19zM39 0v19l311 414l9 11l-1 1q-4 -1 -21 -1h-291v18h336v-18l-311 -415q-3 -4 -9 -10l1 -2q4 2 21 2h298v-19h-343z" />
    <glyph glyph-name="Zcaron" unicode="&#x17d;" horiz-adv-x="533" 
d="M158 798l23 -2l87 -91l87 91l24 2l-96 -115h-29zM34 0v20l422 586l18 24l-1 2q-6 -1 -42 -1h-387v19h456v-19l-422 -587q-12 -19 -19 -23l1 -2q7 1 43 1h387v-20h-456z" />
    <glyph glyph-name="zcaron" unicode="&#x17e;" horiz-adv-x="425" 
d="M111 680l23 -1l87 -111l87 111l24 1l-96 -134h-29zM39 0v19l311 414l9 11l-1 1q-4 -1 -21 -1h-291v18h336v-18l-311 -415q-3 -4 -9 -10l1 -2q4 2 21 2h298v-19h-343z" />
    <glyph glyph-name="uni01EA" unicode="&#x1ea;" horiz-adv-x="706" 
d="M421 3q-14 -5 -31.5 -14t-38.5 -34.5t-21 -56.5q0 -24 15.5 -38.5t40.5 -14.5q12 0 24 4.5t18 8.5l6 4l8 -14q-19 -22 -57 -22q-32 0 -53 19.5t-21 52.5q0 63 60 98h-18q-127 0 -208 88.5t-81 241.5t81 241.5t208 88.5q128 0 209 -88.5t81 -241.5q0 -131 -60.5 -216
t-161.5 -107zM85 326q0 -142 75.5 -226.5t192.5 -84.5t193 84.5t76 226.5t-76 227t-193 85t-192.5 -84.5t-75.5 -227.5z" />
    <glyph glyph-name="uni01EB" unicode="&#x1eb;" horiz-adv-x="552" 
d="M495 231q0 -84 -38.5 -143t-105.5 -81q-4 -1 -10 -3.5t-22 -12t-28.5 -20.5t-22.5 -30t-10 -40q0 -24 15.5 -38.5t40.5 -14.5q12 0 24 4t18 8l6 5l8 -14q-19 -22 -57 -22q-32 0 -53 19.5t-21 52.5q0 57 55 96q-6 -1 -18 -1q-98 0 -158 64.5t-60 170.5t60 170.5t158 64.5
q99 0 159 -64.5t60 -170.5zM276 15q89 0 144 59.5t55 156.5t-55 157t-144 60t-143.5 -59.5t-54.5 -157.5q0 -97 54.5 -156.5t143.5 -59.5z" />
    <glyph glyph-name="AEacute" unicode="&#x1fc;" horiz-adv-x="952" 
d="M647 793l-81 -112l-19 -2l69 114h31zM897 631h-359v-281h329v-20h-329v-310h359v-20h-380v199h-332l-159 -199h-26l517 649v1h380v-19zM201 219h316v397z" />
    <glyph glyph-name="aeacute" unicode="&#x1fd;" horiz-adv-x="847" 
d="M461 681l-79 -133l-19 -2l69 135h29zM607 466q81 0 133 -53.5t52 -146.5l-2 -31h-372v-4q0 -98 54.5 -157t146.5 -59q93 0 146 58l14 -13q-57 -64 -160 -64q-78 0 -132 39t-76 107h-2q-9 -54 -65.5 -100t-142.5 -46q-69 0 -107 30t-38 84q0 40 21 67.5t62.5 42.5t90 22.5
t116.5 9.5l52 1v47q0 67 -42.5 107.5t-114.5 40.5q-67 0 -110 -34.5t-43 -91.5q0 -4 0.5 -8.5t0.5 -7.5t0.5 -6t1.5 -5t1 -3.5v-2.5l1 -1l-18 -4q-6 16 -6 41q0 63 48.5 102t123.5 39q72 0 118 -35.5t56 -98.5q24 64 75.5 99t116.5 35zM608 448q-76 0 -129 -52.5t-60 -141.5
h353v11q0 86 -45 134.5t-119 48.5zM205 15q53 0 93.5 19t60.5 45t29.5 47t9.5 32v77l-52 -2q-62 -2 -107 -8t-84 -19t-59 -37t-20 -58q0 -44 33.5 -70t95.5 -26z" />
    <glyph glyph-name="Oslashacute" unicode="&#x1fe;" horiz-adv-x="706" 
d="M423 793l-81 -112l-19 -2l69 114h31zM542 587q101 -90 101 -261q0 -153 -81 -241.5t-209 -88.5q-100 0 -174 57l-66 -97h-24l75 110q-100 90 -100 260q0 153 81 241.5t208 88.5q101 0 174 -56l60 88h24zM85 326q0 -156 91 -242l339 499q-67 55 -162 55
q-117 0 -192.5 -84.5t-75.5 -227.5zM353 15q117 0 193 84.5t76 226.5q0 157 -92 243l-339 -499q67 -55 162 -55z" />
    <glyph glyph-name="oslashacute" unicode="&#x1ff;" horiz-adv-x="552" 
d="M334 681l-79 -133l-19 -2l69 135h29zM411 423q84 -63 84 -192q0 -106 -60 -170.5t-159 -64.5q-69 0 -119 32l-38 -58h-22l44 69q-83 65 -83 192q0 106 60 170.5t158 64.5q68 0 120 -32l37 58h22zM78 231q0 -117 74 -175l233 362q-47 30 -109 30q-89 0 -143.5 -59.5
t-54.5 -157.5zM276 15q89 0 144 59.5t55 156.5q0 115 -75 176l-233 -362q47 -30 109 -30z" />
    <glyph glyph-name="Scommaaccent" unicode="&#x218;" horiz-adv-x="547" 
d="M455 520q-6 16 -17 33t-31.5 38t-55 34t-77.5 13q-78 0 -128 -39t-50 -101q0 -43 21.5 -72.5t56.5 -45.5t76.5 -28t83.5 -25.5t77 -32t56.5 -53.5t21.5 -85q0 -72 -58 -116t-155 -44q-145 0 -231 74l13 16q91 -71 218 -71q87 0 139.5 39t52.5 102q0 45 -21.5 76.5
t-56.5 48.5t-77 29t-84 25t-77 30.5t-56.5 50.5t-21.5 81q0 71 56 115t144 44q152 0 204 -130zM253 -75q0 11 8 18t19 7q29 0 29 -33q0 -28 -11.5 -50t-23.5 -30l-12 -8l-13 17q34 19 35 53q-14 0 -22.5 7.5t-8.5 18.5z" />
    <glyph glyph-name="scommaaccent" unicode="&#x219;" horiz-adv-x="445" 
d="M353 321q3 3 3 24q0 49 -38 76t-98 27t-96.5 -27.5t-36.5 -71.5q0 -39 31 -62t75.5 -33.5t89 -22t75.5 -39t31 -73.5q0 -57 -44 -90t-123 -33q-21 0 -41.5 2.5t-35.5 7t-29.5 10.5t-24.5 11.5t-18.5 12t-13.5 10.5t-9 8l-4 4l16 12q59 -59 160 -59q68 0 107.5 27.5
t39.5 74.5q0 40 -31 64t-75.5 35t-89 22.5t-75.5 38.5t-31 71q0 53 41.5 85.5t111.5 32.5q68 0 111.5 -30.5t43.5 -85.5l-2 -26zM196 -75q0 11 8 18t19 7q29 0 29 -33q0 -28 -12 -50t-24 -30l-11 -8l-13 17q34 19 35 53q-14 0 -22.5 7.5t-8.5 18.5z" />
    <glyph glyph-name="uni021A" unicode="&#x21a;" horiz-adv-x="519" 
d="M248 0v631h-234v19h491v-19h-236v-631h-21zM231 -75q0 11 8 18t19 7q29 0 29 -33q0 -28 -11.5 -50t-23.5 -30l-12 -8l-13 17q34 19 35 53q-14 0 -22.5 7.5t-8.5 18.5z" />
    <glyph glyph-name="uni021B" unicode="&#x21b;" horiz-adv-x="363" 
d="M353 31q-43 -36 -108 -36q-68 0 -99.5 35.5t-31.5 108.5v305h-80v18h80v145l20 2v-147h199v-18h-199v-305q0 -63 26 -94t85 -31q26 0 50.5 8t36.5 16l11 8zM217 -50q29 0 29 -33q0 -28 -12 -50t-24 -30l-11 -8l-13 17q34 19 35 53q-14 0 -22.5 7.5t-8.5 18.5t8 18t19 7z
" />
    <glyph glyph-name="uni0237" unicode="&#x237;" horiz-adv-x="211" 
d="M-78 -168q26 -21 72 -21q54 0 79 30t25 99v522l20 1v-523q0 -76 -30 -112t-94 -36q-23 0 -43 6t-28 12l-8 5z" />
    <glyph glyph-name="circumflex" unicode="&#x2c6;" horiz-adv-x="307" 
d="M44 546l96 134h29l96 -134l-24 1l-87 111l-87 -111z" />
    <glyph glyph-name="caron" unicode="&#x2c7;" horiz-adv-x="307" 
d="M44 680l23 -1l87 -111l87 111l24 1l-96 -134h-29z" />
    <glyph glyph-name="breve" unicode="&#x2d8;" horiz-adv-x="285" 
d="M255 670q0 -60 -30.5 -93t-81.5 -33q-52 0 -82.5 33t-30.5 93h20q0 -51 25 -79t68 -29q42 1 67.5 29t25.5 79h19z" />
    <glyph glyph-name="dotaccent" unicode="&#x2d9;" horiz-adv-x="163" 
d="M109 616q0 -10 -8.5 -18.5t-18.5 -8.5q-11 0 -19 8t-8 19t8 19t19 8t19 -8t8 -19z" />
    <glyph glyph-name="ring" unicode="&#x2da;" horiz-adv-x="235" 
d="M117 548q-28 0 -46.5 18.5t-18.5 46.5t18.5 46.5t46.5 18.5q29 0 47.5 -18.5t18.5 -46.5t-19 -46.5t-47 -18.5zM164 613q0 21 -13 34t-34 13q-20 0 -33 -13t-13 -34t13 -33.5t33 -12.5q21 0 34 12.5t13 33.5z" />
    <glyph glyph-name="ogonek" unicode="&#x2db;" horiz-adv-x="236" 
d="M179 -156q-19 -22 -57 -22q-32 0 -53 19.5t-21 52.5q0 25 11 47t26 34.5t30.5 21.5t26.5 13l11 3l7 -13q-4 -1 -10 -3.5t-22 -12t-28.5 -20.5t-22.5 -30t-10 -40q0 -24 15.5 -38.5t40.5 -14.5q12 0 24 4.5t18 8.5l6 4z" />
    <glyph glyph-name="tilde" unicode="&#x2dc;" horiz-adv-x="355" 
d="M301 654q2 -13 2 -24q0 -61 -61 -61q-28 0 -72 32t-65 32q-18 0 -29.5 -10.5t-11.5 -29.5l2 -25h-20q-2 14 -2 25q0 28 16.5 44.5t44.5 16.5q30 0 74 -32.5t63 -32.5q40 0 40 41l-2 24h21z" />
    <glyph glyph-name="hungarumlaut" unicode="&#x2dd;" horiz-adv-x="330" 
d="M74 548l-16 -2l69 135h29zM190 548l-16 -2l68 135h29z" />
    <glyph glyph-name="gravecomb" unicode="&#x300;" 
d="M-78 546l-81 135h28l69 -133z" />
    <glyph glyph-name="acutecomb" unicode="&#x301;" 
d="M-142 548l-19 -2l69 135h29z" />
    <glyph glyph-name="uni0302" unicode="&#x302;" 
d="M-263 546l96 134h29l96 -134l-24 1l-87 111l-87 -111z" />
    <glyph glyph-name="tildecomb" unicode="&#x303;" 
d="M-54 654q2 -13 2 -24q0 -61 -61 -61q-27 0 -71 32t-66 32q-18 0 -29.5 -10.5t-11.5 -29.5l2 -25h-20q-2 14 -2 25q0 28 16.5 44.5t44.5 16.5q30 0 74 -32.5t63 -32.5q40 0 40 41l-2 24h21z" />
    <glyph glyph-name="uni0304" unicode="&#x304;" 
d="M-291 605v19h241v-19h-241z" />
    <glyph glyph-name="uni0306" unicode="&#x306;" 
d="M-30 670q0 -60 -30.5 -93t-81.5 -33q-52 0 -82.5 33t-30.5 93h20q0 -51 25 -79t68 -29q42 1 67.5 29t25.5 79h19z" />
    <glyph glyph-name="uni0307" unicode="&#x307;" 
d="M-54 616q0 -10 -8 -18.5t-19 -8.5t-19 8t-8 19t8 19t19 8t19 -8t8 -19z" />
    <glyph glyph-name="uni0308" unicode="&#x308;" 
d="M-239 588q-11 0 -18.5 8t-7.5 18q0 11 7.5 19t18.5 8t19 -8t8 -19t-8 -18.5t-19 -7.5zM-71 588q-11 0 -19 8t-8 18q0 11 8 19t19 8t19 -8t8 -19t-8 -18.5t-19 -7.5z" />
    <glyph glyph-name="uni030A" unicode="&#x30a;" 
d="M-118 548q-28 0 -46.5 18.5t-18.5 46.5t18.5 46.5t46.5 18.5q29 0 47.5 -18.5t18.5 -46.5t-19 -46.5t-47 -18.5zM-71 613q0 21 -13 34t-34 13q-20 0 -33 -13t-13 -34t13 -33.5t33 -12.5q21 0 34 12.5t13 33.5z" />
    <glyph glyph-name="uni030B" unicode="&#x30b;" 
d="M-256 548l-16 -2l69 135h29zM-140 548l-16 -2l68 135h29z" />
    <glyph glyph-name="uni030C" unicode="&#x30c;" 
d="M-263 680l23 -1l87 -111l87 111l24 1l-96 -134h-29z" />
    <glyph glyph-name="uni0326" unicode="&#x326;" 
d="M-109 -75q0 11 8 18t19 7q29 0 29 -33q0 -28 -11.5 -50t-23.5 -30l-12 -8l-13 17q34 19 35 53q-14 0 -22.5 7.5t-8.5 18.5z" />
    <glyph glyph-name="uni0327" unicode="&#x327;" 
d="M-131 -40q32 -3 55 -21t23 -49t-22.5 -49.5t-60.5 -18.5q-20 0 -36 6t-22 12l-7 6l9 15q22 -20 57 -20q29 0 46 13.5t17 35.5t-20 39.5t-64 17.5l20 54l20 -1z" />
    <glyph glyph-name="uni0328" unicode="&#x328;" 
d="M-57 -156q-19 -22 -57 -22q-32 0 -53 19.5t-21 52.5q0 25 11 47t26 34.5t30.5 21.5t26.5 13l11 3l7 -13q-4 -1 -10 -3.5t-22 -12t-28.5 -20.5t-22.5 -30t-10 -40q0 -24 15.5 -38.5t40.5 -14.5q12 0 24 4.5t18 8.5l6 4z" />
    <glyph glyph-name="uni0335" unicode="&#x335;" 
d="M-242 196h222v-18h-222v18z" />
    <glyph glyph-name="uni0336" unicode="&#x336;" 
d="M-307 196h294v-18h-294v18z" />
    <glyph glyph-name="uni0337" unicode="&#x337;" 
d="M-191 337l162 95l9 -15l-162 -95z" />
    <glyph glyph-name="uni0338" unicode="&#x338;" 
d="M-45 502h22l-336 -522h-22z" />
    <glyph glyph-name="Wgrave" unicode="&#x1e80;" horiz-adv-x="879" 
d="M432 679l-81 114h31l69 -112zM822 650h21l-193 -650h-28l-172 585q-5 15 -10 40h-1q-7 -32 -9 -40l-172 -585h-30l-193 650h23l179 -607q4 -17 5 -22h2l6 22l179 607h21l180 -607q4 -16 5 -22h2q2 6 6 22z" />
    <glyph glyph-name="wgrave" unicode="&#x1e81;" horiz-adv-x="691" 
d="M374 548l-16 -2l-81 135h28zM636 462h21l-145 -462h-30l-124 398q-6 18 -11 36h-1q-5 -18 -11 -36l-124 -398h-31l-145 462h22l133 -428l5 -16h2l5 16l134 428h21l135 -428l4 -16h2q4 13 6 16z" />
    <glyph glyph-name="Wacute" unicode="&#x1e82;" horiz-adv-x="879" 
d="M444 681l-19 -2l69 114h31zM822 650h21l-193 -650h-28l-172 585q-5 15 -10 40h-1q-7 -32 -9 -40l-172 -585h-30l-193 650h23l179 -607q4 -17 5 -22h2l6 22l179 607h21l180 -607q4 -16 5 -22h2q2 6 6 22z" />
    <glyph glyph-name="wacute" unicode="&#x1e83;" horiz-adv-x="691" 
d="M432 681l-79 -133l-19 -2l69 135h29zM636 462h21l-145 -462h-30l-124 398q-6 18 -11 36h-1q-5 -18 -11 -36l-124 -398h-31l-145 462h22l133 -428l5 -16h2l5 16l134 428h21l135 -428l4 -16h2q4 13 6 16z" />
    <glyph glyph-name="Wdieresis" unicode="&#x1e84;" horiz-adv-x="879" 
d="M354 706q-10 0 -18 8t-8 18q0 11 7.5 19t18.5 8t19 -8t8 -19t-8 -18.5t-19 -7.5zM522 706q-11 0 -19 8t-8 18q0 11 8 19t19 8t19 -8t8 -19q0 -10 -8 -18t-19 -8zM822 650h21l-193 -650h-28l-172 585q-5 15 -10 40h-1q-7 -32 -9 -40l-172 -585h-30l-193 650h23l179 -607
q4 -17 5 -22h2l6 22l179 607h21l180 -607q4 -16 5 -22h2q2 6 6 22z" />
    <glyph glyph-name="wdieresis" unicode="&#x1e85;" horiz-adv-x="691" 
d="M263 588q-11 0 -18.5 8t-7.5 18q0 11 7.5 19t18.5 8t19 -8t8 -19t-8 -18.5t-19 -7.5zM431 588q-11 0 -19 8t-8 18q0 11 8 19t19 8t19 -8t8 -19t-8 -18.5t-19 -7.5zM636 462h21l-145 -462h-30l-124 398q-6 18 -11 36h-1q-5 -18 -11 -36l-124 -398h-31l-145 462h22
l133 -428l5 -16h2l5 16l134 428h21l135 -428l4 -16h2q4 13 6 16z" />
    <glyph glyph-name="Ygrave" unicode="&#x1ef2;" horiz-adv-x="564" 
d="M293 681l-19 -2l-81 114h31zM533 650l-240 -389v-261h-22v263l-240 387h26l202 -328q6 -10 14.5 -26t8.5 -17h1l5 10t9 17t10 16l202 328h24z" />
    <glyph glyph-name="ygrave" unicode="&#x1ef3;" horiz-adv-x="483" 
d="M258 546l-81 135h28l69 -133zM211 -117q-18 -45 -40.5 -68t-64.5 -23q-13 0 -25 2t-17 4l-6 3l3 20q17 -10 45 -10q33 0 50 17t33 56l44 107l-200 471h22l184 -435q3 -4 4 -9h2l3 9l185 435h21z" />
    <glyph glyph-name="uni1EF8" unicode="&#x1ef8;" horiz-adv-x="564" 
d="M183 673h-20q-2 13 -2 24q0 28 16.5 44.5t44.5 16.5q30 0 74 -32.5t63 -32.5q40 0 40 41l-2 24h21q2 -13 2 -24q0 -61 -61 -61q-27 0 -71 32t-66 32q-18 0 -29.5 -11t-11.5 -29zM533 650l-240 -389v-261h-22v263l-240 387h26l202 -328q6 -10 14.5 -26t8.5 -17h1l5 10
t9 17t10 16l202 328h24z" />
    <glyph glyph-name="uni1EF9" unicode="&#x1ef9;" horiz-adv-x="483" 
d="M373 654q2 -13 2 -24q0 -61 -61 -61q-28 0 -72 32t-65 32q-18 0 -29.5 -10.5t-11.5 -29.5l2 -25h-20q-2 14 -2 25q0 28 16.5 44.5t44.5 16.5q30 0 74 -32.5t63 -32.5q40 0 40 41l-2 24h21zM211 -117q-18 -45 -40.5 -68t-64.5 -23q-13 0 -25 2t-17 4l-6 3l3 20
q17 -10 45 -10q33 0 50 17t33 56l44 107l-200 471h22l184 -435q3 -4 4 -9h2l3 9l185 435h21z" />
    <glyph glyph-name="endash" unicode="&#x2013;" horiz-adv-x="486" 
d="M76 265v20h334v-20h-334z" />
    <glyph glyph-name="emdash" unicode="&#x2014;" horiz-adv-x="736" 
d="M76 265v20h584v-20h-584z" />
    <glyph glyph-name="quoteleft" unicode="&#x2018;" horiz-adv-x="191" 
d="M121 523q0 -11 -7.5 -18.5t-19.5 -7.5q-14 0 -22.5 10t-8.5 28q0 34 13.5 64.5t27.5 43.5l13 13l17 -19q-44 -39 -46 -89q33 0 33 -25z" />
    <glyph glyph-name="quoteright" unicode="&#x2019;" horiz-adv-x="188" 
d="M73 631q0 11 7.5 18.5t19.5 7.5q14 0 22.5 -10t8.5 -28q0 -34 -13.5 -64.5t-27.5 -43.5l-13 -13l-17 19q44 39 46 89q-33 0 -33 25z" />
    <glyph glyph-name="quotesinglbase" unicode="&#x201a;" horiz-adv-x="206" 
d="M74 19q0 11 7.5 18.5t19.5 7.5q14 0 22.5 -10t8.5 -28q0 -34 -13.5 -64.5t-26.5 -43.5l-14 -13l-17 19q44 39 46 89q-33 0 -33 25z" />
    <glyph glyph-name="quotedblleft" unicode="&#x201c;" horiz-adv-x="293" 
d="M121 523q0 -11 -7.5 -18.5t-19.5 -7.5q-14 0 -22.5 10t-8.5 28q0 34 13.5 64.5t27.5 43.5l13 13l17 -19q-44 -39 -46 -89q33 0 33 -25zM223 523q0 -11 -7.5 -18.5t-19.5 -7.5q-14 0 -22.5 10t-8.5 28q0 34 13.5 64.5t27.5 43.5l13 13l17 -19q-44 -39 -46 -89q33 0 33 -25
z" />
    <glyph glyph-name="quotedblright" unicode="&#x201d;" horiz-adv-x="290" 
d="M101 656q13 0 22 -10t9 -28q0 -34 -14 -64t-28 -44l-13 -13l-17 19q44 39 46 90q-33 0 -33 24q0 26 28 26zM203 656q13 0 22 -10t9 -28q0 -34 -14 -64t-28 -44l-13 -13l-17 19q44 39 46 90q-33 0 -33 24q0 26 28 26z" />
    <glyph glyph-name="quotedblbase" unicode="&#x201e;" horiz-adv-x="308" 
d="M74 19q0 11 7.5 18.5t19.5 7.5q14 0 22.5 -10t8.5 -28q0 -34 -13.5 -64.5t-26.5 -43.5l-14 -13l-17 19q44 39 46 89q-33 0 -33 25zM176 19q0 11 7.5 18.5t19.5 7.5q14 0 22.5 -10t8.5 -28q0 -34 -13.5 -64.5t-26.5 -43.5l-14 -13l-17 19q44 39 46 89q-33 0 -33 25z" />
    <glyph glyph-name="dagger" unicode="&#x2020;" horiz-adv-x="395" 
d="M337 444l-130 2l-1 -222l1 -427h-20l2 427l-1 222l-130 -2v18l130 -2l-1 190h20v-190l130 2v-18z" />
    <glyph glyph-name="daggerdbl" unicode="&#x2021;" horiz-adv-x="395" 
d="M337 442l-130 1l-1 -209l1 -210l130 1v-18l-130 1v-211h-20v211l-129 -1v18l129 -1l2 210l-2 209l-129 -1v18l129 -1v191h20v-191l130 1v-18z" />
    <glyph glyph-name="bullet" unicode="&#x2022;" horiz-adv-x="327" 
d="M227 289q0 -26 -19 -44.5t-45 -18.5t-44.5 18.5t-18.5 44.5t18.5 44.5t44.5 18.5t45 -18.5t19 -44.5z" />
    <glyph glyph-name="ellipsis" unicode="&#x2026;" horiz-adv-x="477" 
d="M74 21q0 11 8 19t19 8t19 -8t8 -19t-8 -19t-19 -8t-19 8t-8 19zM206 21q0 11 8 19t19 8t19 -8t8 -19t-8 -19t-19 -8t-19 8t-8 19zM349 21q0 11 8.5 19t18.5 8q11 0 19 -8t8 -19t-8 -19t-19 -8t-19 8t-8 19z" />
    <glyph glyph-name="perthousand" unicode="&#x2030;" horiz-adv-x="1215" 
d="M196 291q-69 0 -110.5 48.5t-41.5 131.5q0 85 41.5 135t110.5 50q70 0 112 -50t42 -135q0 -83 -42 -131.5t-112 -48.5zM262 0l293 656h21l-293 -656h-21zM196 310q59 0 95 43.5t36 117.5q0 76 -36 120.5t-95 44.5t-95 -44.5t-36 -120.5q0 -74 36 -117.5t95 -43.5zM625 -3
q-69 0 -111 48.5t-42 131.5q0 85 42 135t111 50t111 -50t42 -135q0 -83 -42 -131.5t-111 -48.5zM1019 -3q-69 0 -110.5 48.5t-41.5 131.5q0 85 41.5 135t110.5 50q70 0 112 -50t42 -135q0 -83 -42 -131.5t-112 -48.5zM625 16q59 0 94.5 43.5t35.5 117.5q0 76 -35.5 120.5
t-94.5 44.5q-60 0 -95.5 -44.5t-35.5 -120.5q0 -74 35.5 -117.5t95.5 -43.5zM1019 16q60 0 95.5 43.5t35.5 117.5q0 76 -35.5 120.5t-95.5 44.5q-59 0 -95 -44.5t-36 -120.5q0 -74 36 -117.5t95 -43.5z" />
    <glyph glyph-name="guilsinglleft" unicode="&#x2039;" horiz-adv-x="264" 
d="M52 254v20l125 130l13 -15l-124 -125l124 -125l-13 -15z" />
    <glyph glyph-name="guilsinglright" unicode="&#x203a;" horiz-adv-x="264" 
d="M86 124l-13 15l125 125l-125 125l13 15l126 -130v-20z" />
    <glyph glyph-name="fraction" unicode="&#x2044;" horiz-adv-x="292" 
d="M26 0l221 726h22l-221 -726h-22z" />
    <glyph glyph-name="Euro" unicode="&#x20ac;" horiz-adv-x="707" 
d="M426 15q125 0 206 103l15 -13q-79 -109 -221 -109q-109 0 -183 67.5t-94 183.5h-100l5 20h93q-4 25 -4 59q0 35 4 62h-98l5 19h96q20 115 93.5 182t182.5 67q58 0 108.5 -22t73 -43t39.5 -44l-15 -13q-82 104 -206 104q-99 0 -167 -62t-88 -169h314l-5 -19h-312
q-4 -27 -4 -62q0 -34 4 -59h287l-5 -20h-279q19 -107 87 -169.5t168 -62.5z" />
    <glyph glyph-name="trademark" unicode="&#x2122;" horiz-adv-x="694" 
d="M38 632v18h251v-18h-115v-256h-20v256h-116zM578 650h30v-274h-20v251l-106 -251h-20l-107 251v-251h-19v274h31l105 -249z" />
    <glyph glyph-name="minus" unicode="&#x2212;" horiz-adv-x="487" 
d="M81 241v20h325v-20h-325z" />
    <glyph glyph-name="uni2215" unicode="&#x2215;" horiz-adv-x="375" 
d="M17 0l322 726h22l-322 -726h-22z" />
    <glyph glyph-name="uni2219" unicode="&#x2219;" horiz-adv-x="303" 
d="M151 252q-20 0 -20 21t20 21q21 0 21 -21t-21 -21z" />
    <glyph glyph-name="approxequal" unicode="&#x2248;" horiz-adv-x="561" 
d="M81 321v20q43 29 101 29q36 0 99 -20t98 -20q62 0 102 31v-21q-44 -29 -102 -29q-35 0 -98 20t-99 20q-56 0 -101 -30zM81 146v20q44 30 101 30q36 0 99 -20t98 -20q62 0 102 31v-22q-44 -29 -102 -29q-35 0 -98 20t-99 20q-56 0 -101 -30z" />
    <glyph glyph-name="notequal" unicode="&#x2260;" horiz-adv-x="551" 
d="M470 335h-158l-48 -161h206v-19h-212l-46 -155h-22l47 155h-156v19h161l49 161h-210v20h216l35 117h21l-35 -117h152v-20z" />
    <glyph glyph-name="uniF8FF" unicode="&#xf8ff;" horiz-adv-x="1451" 
d="M691 583q0 26 17.5 44t43.5 18t44 -18t18 -44t-18 -43.5t-44 -17.5t-43.5 18t-17.5 43zM219 270h-119q0 134 9 314h100q10 -200 10 -314zM694 270q0 92 3 147h-61l3 -65q4 -4 15 -4q13 0 18 5v-74q-14 -15 -68 -15q-82 0 -82 66q0 12 2 49t2 38h-22v79l119 30l1 -17h178
q10 -64 10 -239h-118zM328 265q-92 0 -92 114q0 135 134 135q124 0 124 -117v-127h-83l-8 61q-6 -33 -23.5 -49.5t-51.5 -16.5zM1090 270h-114q0 26 1 56t1 37q0 29 -15 29q-18 0 -18 -29q0 -7 1.5 -37t1.5 -56h-114q0 175 10 239h80q6 -44 6 -76q2 15 6.5 30t24 33t49.5 18
q42 0 58.5 -25t18.5 -81zM1351 391q0 -126 -123 -126q-122 0 -122 124q0 125 124 125q121 0 121 -123zM390 375q0 26 -24 26q-22 0 -22 -26q0 -30 22 -30q24 0 24 30zM1251 375q0 26 -23 26q-21 0 -21 -26q0 -30 21 -30q23 0 23 30zM428 238h104q10 -52 10 -138
q0 -81 -33.5 -115.5t-118.5 -34.5q-61 0 -88 17v83q24 -16 70 -16q21 0 34 6t16.5 11.5t3.5 10.5q-16 -11 -49 -11q-90 0 -90 83v13h-55l3 -65q6 -4 15 -4q13 0 18 5v-73q-19 -15 -68 -15q-45 0 -63 17t-18 54q0 39 3 81h-18v80l117 29l-1 -18h177v-119q0 -16 3 -21.5
t12 -5.5q16 0 16 27v119zM733 243q37 0 58.5 -29t21.5 -84q0 -135 -137 -135q1 -15 1 -39h-119q0 142 10 282h78q7 -42 7 -76q17 81 80 81zM1070 127q0 -21 -3 -35h-124q11 -18 50 -18q34 0 55 12v-75q-23 -16 -78 -16q-141 0 -141 122q0 59 32.5 92.5t92.5 33.5
q55 0 85.5 -30t30.5 -86zM978 109q3 27 -17 27q-23 0 -23 -27h40zM670 72q5 0 12.5 2.5t16 11.5t8.5 23q0 23 -20 23q-22 0 -22 -31q0 -14 5 -29zM1074 13q0 -23 24 -23t24 23t-24 23t-24 -23zM1080 13q0 18 18 18t18 -18t-18 -18t-18 18zM1108 2l-6 9q7 0 7 7t-10 7h-11
v-23h5v9h5l4 -9h6zM1100 15h-7v6h7q4 0 4 -3t-4 -3z" />
    <glyph glyph-name="i.loclTRK" horiz-adv-x="205" 
d="M126 616q0 -10 -8 -18.5t-19 -8.5t-19 8t-8 19t8 19t19 8t19 -8t8 -19zM92 0v462l20 1v-463h-20z" />
    <glyph glyph-name="uni0306.case.001" 
d="M-39 651q0 -48 -28.5 -77.5t-74.5 -29.5q-47 0 -75.5 29.5t-28.5 77.5h19q0 -39 23.5 -63.5t61.5 -25.5q38 1 61 25.5t23 63.5h19z" />
    <glyph glyph-name="caroncomb.alt" 
d="M-75 422q0 11 8 18t19 7q13 0 21 -8.5t8 -21.5q0 -30 -11.5 -53t-23.5 -31l-11 -8l-14 17q35 19 36 54q-15 0 -23.5 7.5t-8.5 18.5z" />
    <glyph glyph-name="acutecomb.case" 
d="M-142 548l-19 -2l69 114h31z" />
    <glyph glyph-name="uni0306.case" 
d="M-39 651q0 -48 -28.5 -77.5t-74.5 -29.5q-47 0 -75.5 29.5t-28.5 77.5h19q0 -39 23.5 -63.5t61.5 -25.5q38 1 61 25.5t23 63.5h19z" />
    <glyph glyph-name="uni030C.case" 
d="M-263 665l23 -2l87 -91l87 91l24 2l-96 -115h-29z" />
    <glyph glyph-name="uni0302.case" 
d="M-138 660l96 -114l-24 1l-87 91l-87 -91l-23 -1l96 114h29z" />
    <glyph glyph-name="uni0308.case" 
d="M-239 573q-11 0 -18.5 7.5t-7.5 18.5t7.5 19t18.5 8t19 -8t8 -19t-8 -18.5t-19 -7.5zM-71 573q-11 0 -19 8t-8 18q0 11 8 19t19 8t19 -8t8 -19q0 -10 -8 -18t-19 -8z" />
    <glyph glyph-name="uni0307.case" 
d="M-81 571q-11 0 -19 8t-8 19t8 19t19 8t19 -8t8 -19q0 -10 -8 -18.5t-19 -8.5z" />
    <glyph glyph-name="gravecomb.case" 
d="M-78 546l-81 114h31l69 -112z" />
    <glyph glyph-name="uni030B.case" 
d="M-243 548l-19 -2l69 114h31zM-118 548l-19 -2l69 114h31z" />
    <glyph glyph-name="uni0304.case" 
d="M-291 576v19h241v-19h-241z" />
    <glyph glyph-name="uni030A.case" 
d="M-118 539q-28 0 -46.5 18t-18.5 46t18.5 46.5t46.5 18.5t47 -18.5t19 -46.5t-18.5 -46t-47.5 -18zM-71 603q0 21 -13 34t-34 13q-20 0 -33 -13t-13 -34q0 -20 13 -33t33 -13q21 0 34 13t13 33z" />
    <glyph glyph-name="uni0338.case" 
d="M7 716l-498 -732h-24l498 732h24z" />
    <glyph glyph-name="uni0337.case" 
d="M-321 337l291 171l9 -15l-291 -171z" />
    <glyph glyph-name="tildecomb.case" 
d="M-54 625q2 -13 2 -24q0 -61 -61 -61q-27 0 -71 32t-66 32q-18 0 -29.5 -11t-11.5 -29l2 -24h-20q-2 13 -2 24q0 28 16.5 44.5t44.5 16.5q30 0 74 -32.5t63 -32.5q40 0 40 41l-2 24h21z" />
    <glyph glyph-name="caron.alt" horiz-adv-x="98" 
d="M79 417q0 -29 -11.5 -52t-23.5 -31l-11 -8l-14 17q35 18 36 53q-15 0 -23.5 7.5t-8.5 18.5t8 18t19 7q13 0 21 -8.5t8 -21.5z" />
    <glyph glyph-name="acute.case" horiz-adv-x="229" 
d="M87 548l-19 -2l69 114h31z" />
    <glyph glyph-name="breve.case" horiz-adv-x="285" 
d="M246 651q0 -48 -28.5 -77.5t-74.5 -29.5q-47 0 -75.5 29.5t-28.5 77.5h19q0 -39 23.5 -63.5t61.5 -25.5q38 1 61 25.5t23 63.5h19z" />
    <glyph glyph-name="caron.case" horiz-adv-x="307" 
d="M44 665l23 -2l87 -91l87 91l24 2l-96 -115h-29z" />
    <glyph glyph-name="circumflex.case" horiz-adv-x="307" 
d="M169 660l96 -114l-24 1l-87 91l-87 -91l-23 -1l96 114h29z" />
    <glyph glyph-name="dieresis.case" horiz-adv-x="310" 
d="M71 573q-11 0 -18.5 7.5t-7.5 18.5t7.5 19t18.5 8t19 -8t8 -19t-8 -18.5t-19 -7.5zM239 573q-11 0 -19 8t-8 18q0 11 8 19t19 8t19 -8t8 -19q0 -10 -8 -18t-19 -8z" />
    <glyph glyph-name="dotaccent.case" horiz-adv-x="163" 
d="M82 571q-11 0 -19 8t-8 19t8 19t19 8t19 -8t8 -19q0 -10 -8.5 -18.5t-18.5 -8.5z" />
    <glyph glyph-name="grave.case" horiz-adv-x="229" 
d="M151 546l-81 114h31l69 -112z" />
    <glyph glyph-name="hungarumlaut.case" horiz-adv-x="330" 
d="M87 548l-19 -2l69 114h31zM212 548l-19 -2l69 114h31z" />
    <glyph glyph-name="macron.case" horiz-adv-x="341" 
d="M50 576v19h241v-19h-241z" />
    <glyph glyph-name="ring.case" horiz-adv-x="235" 
d="M117 539q-28 0 -46.5 18t-18.5 46t18.5 46.5t46.5 18.5t47 -18.5t19 -46.5t-18.5 -46t-47.5 -18zM164 603q0 21 -13 34t-34 13q-20 0 -33 -13t-13 -34q0 -20 13 -33t33 -13q21 0 34 13t13 33z" />
    <glyph glyph-name="tilde.case" horiz-adv-x="355" 
d="M301 625q2 -13 2 -24q0 -61 -61 -61q-28 0 -72 32t-65 32q-18 0 -29.5 -11t-11.5 -29l2 -24h-20q-2 13 -2 24q0 28 16.5 44.5t44.5 16.5q30 0 74 -32.5t63 -32.5q40 0 40 41l-2 24h21z" />
    <glyph glyph-name="Rem" horiz-adv-x="467" 
 />
    <glyph glyph-name="IJacute" horiz-adv-x="654" 
d="M126 681l-19 -2l69 114h31zM547 681l-19 -2l69 114h31zM106 0v650h21v-650h-21zM266 72q55 -57 129 -57q137 0 137 144v491h21v-487q0 -167 -158 -167q-87 0 -143 58z" />
    <glyph glyph-name="ijacute" horiz-adv-x="393" 
d="M116 538l-19 -2l69 135h29zM308 538l-18 -2l68 135h30zM92 0v462l20 1v-463h-20zM104 -168q26 -21 72 -21q54 0 79.5 30t25.5 99v522l20 1v-523q0 -75 -30.5 -111.5t-94.5 -36.5q-23 0 -43 6t-28 12l-8 5z" />
    <glyph glyph-name="commaccent" horiz-adv-x="600" 
 />
    </font>
</defs>
</svg>
